<svg xmlns="http://www.w3.org/2000/svg" xmlns:xlink="http://www.w3.org/1999/xlink" version="1.1" x="0px" y="0px" width="100px" height="100px" viewBox="0 0 100 100" enable-background="new 0 0 100 100" xml:space="preserve">
<g id="Your_Icon">
	<g>
		<polygon fill="#4a4a4a" points="77.002,37.264 77.003,37.261 77.003,37.261   "/>
		<path fill="#4a4a4a" d="M98.661,51.406c0.05,0.037,0.4,0.298,0.757,0.551v-2.198c-9.819-7.488-14.027-24.563-14.264-25.556V24.15l-2.213,0.001    l-0.002-0.001c0,0,0,0,0,0.001h-0.01v0.017C72.533,43.835,61.523,53.816,50.25,53.816c-0.151,0-0.303-0.002-0.454-0.007    c-18.988-0.447-32.778-29.284-32.951-29.65v-0.008h-2.22l-0.003-0.001c0,0,0,0,0,0.001h-0.006v0.026    c-0.181,0.767-4.32,17.857-14.108,25.463v2.213c0.225-0.155,0.567-0.418,0.647-0.477c1.436-1.06,2.753-2.298,3.961-3.651v6.364    H0.361v3.297h12.66v9.95h-1.779c-0.721,0-1.306,0.585-1.306,1.306v1.306h1.306h8.978h1.306v-1.306    c0-0.721-0.585-1.306-1.306-1.306h-1.779v-9.95h62.893v9.95h-1.779c-0.721,0-1.306,0.585-1.306,1.306v1.306h1.306h8.978h1.306    v-1.306c0-0.721-0.585-1.306-1.306-1.306h-1.779v-9.95h12.661V54.09H94.81v-6.196C95.988,49.193,97.27,50.384,98.661,51.406z     M73.182,42.317c1.313-1.567,2.615-3.271,3.908-5.113c-0.002,0.002-0.004,0.006-0.006,0.009V54.09h-3.899V42.315    c0.002-0.002,0.003-0.005,0.006-0.007C73.188,42.312,73.185,42.314,73.182,42.317z M72.121,43.553V54.09h-3.9v-6.544    C69.53,46.348,70.83,45.017,72.121,43.553z M32.771,48.283c1.292,1.08,2.592,2.042,3.899,2.888l0,0v2.919h-3.899V48.283    L32.771,48.283z M37.733,51.832L37.733,51.832c1.543,0.92,3.092,1.673,4.642,2.258h-4.642V51.832z M62.194,52.092v1.998h-4.099    C59.47,53.563,60.836,52.899,62.194,52.092L62.194,52.092L62.194,52.092z M63.258,51.431c1.308-0.849,2.607-1.834,3.899-2.942    v5.602h-3.899V51.431z M31.707,47.369v6.721h-3.9V43.516c0.001,0.001,0.003,0.001,0.003,0.003l0,0    C29.096,44.921,30.396,46.204,31.707,47.369z M26.743,42.322V54.09h-3.899V37.417c0.621,0.853,1.272,1.715,1.958,2.578    C25.445,40.802,26.093,41.576,26.743,42.322z M6.182,46.468c0-0.001,0.001-0.003,0.002-0.003l0,0    c1.032-1.278,1.975-2.632,2.833-4.018c0,0,0,0,0-0.001V54.09H6.182V46.468z M10.081,54.09V40.643    c2.04-3.636,3.526-7.333,4.536-10.263v3.462h-0.709v9.1h-0.887V54.09H10.081z M17.555,42.941v-9.1h-0.709v-5.875    c1.113,2.023,2.788,4.869,4.934,7.958V54.09h-3.339V42.941H17.555z M78.147,54.09V35.664c0.002-0.003,0.005-0.008,0.007-0.011    c0,0.001-0.001,0.001-0.002,0.002c1.608-2.394,3.201-4.999,4.777-7.821v6.008h-0.71v9.1h-0.886V54.09H78.147z M85.867,42.941v-9.1    h-0.711l-0.001-3.423c1.04,3,2.577,6.792,4.689,10.498l0,0c0.002,0,0.001,0.002,0.002,0.003V54.09h-3.094V42.941H85.867z     M93.745,54.09H90.91V42.696c0.861,1.368,1.807,2.701,2.835,3.959V54.09z"/>
	</g>
</g>
</svg>