<svg xmlns="http://www.w3.org/2000/svg" xmlns:xlink="http://www.w3.org/1999/xlink" version="1.1" id="Layer_1" x="0px" y="0px" width="71.3709677419px" height="100px" viewBox="0 0 708.662 992.126" enable-background="new 0 0 708.662 992.126" xml:space="preserve">
<g>
	<path fill="#4a4a4a" d="M521.791,47.977c-0.226-0.439-0.443-0.876-0.662-1.315c-1.977-5.93-5.056-10.323-8.785-13.181   c-0.436-0.436-0.879-0.658-1.098-1.098c-1.977-3.511-1.098-6.588,2.414-9.659c-0.661-2.858-2.85-3.953-7.022-3.517   c-0.661,0-1.323-0.218-1.759-0.436c-2.417-1.978-5.056-3.08-8.124-3.738c-0.661,0-1.322,0-1.541,0.44   c-0.437,0.218-0.661,0.881-0.879,1.539c-0.219,1.316-0.873,2.854-1.534,4.609c-0.219,0.663-0.665,1.103-0.883,1.543   c-2.195,1.974-3.729,5.05-4.827,9.441c0,0.658-0.226,1.1-0.661,1.1c-0.88,0.658-1.099,1.537-0.88,3.071   c0.437,1.977,0.218,3.516-0.661,4.614c-0.437,0.658-0.655,1.319-0.655,1.978c-0.218,3.953-1.098,7.027-2.859,8.785   c-0.215,0.44-0.651,0.88-0.651,1.319c-0.229,0.655-0.665,1.098-0.883,1.316c-2.414,1.979-3.512,2.855-3.955,2.855   c-0.218,0.44-0.654,0.88-1.098,1.098c-0.654,0.88-0.879,1.978-0.879,3.293c0.225,2.859-0.88,4.614-3.293,5.712   c-0.437,0.218-0.873,0.44-1.319,0.658c-0.654,0.223-1.316,0.441-1.541,0.881c-0.437,0.218-0.654,0.876-0.873,1.538   c-0.218,0.44-0.443,0.658-0.879,0.876c-2.414,0.662-4.173,1.756-5.489,3.517c-0.436,0.44-0.661,0.658-1.098,0.876   c-0.654,0.222-1.315,0.44-1.762,0.879c-0.655,0.218-1.098,0.44-1.534,0.658c-2.414,0.222-4.173,1.098-5.488,1.977   c-0.219,0.441-0.662,0.878-0.662,1.318c-0.436,1.319-1.315,2.195-2.631,2.856c-3.297,1.538-5.936,3.073-7.688,4.393   c-1.541,1.098-2.639,2.632-3.293,4.61c-1.098,3.075-2.643,5.272-4.395,6.591c-0.661,0.437-1.322,0.876-1.759,1.534   c-0.661,0.879-1.316,1.759-1.978,2.635c-2.856,3.956-5.928,7.687-9.446,11.202c-0.218,0.442-0.654,0.66-1.098,0.878   c-0.654,0.222-1.315,0.443-1.752,0.879c-2.639,1.756-5.71,2.635-9.229,2.635c-0.654,0-1.315,0-1.977-0.436   c-1.534-0.662-3.948-0.88-6.809-0.443c-3.293,0.658-6.149,1.319-8.563,2.417c-2.636,1.099-5.274,1.099-7.906-0.44   c-0.661-0.218-1.315-0.439-2.195-0.658c-1.759-0.218-3.957-0.44-6.371-0.876c-1.759,0.436-3.729,0.876-5.706,0.876   c-0.226,0.218-0.662,0.218-1.323,0.439c-0.437,0.218-1.102,0.44-1.102,0.658c-0.436,0.881-1.533,1.099-3.067,0.66   c-0.661-0.441-1.541-0.66-2.421-0.878c-3.295-0.661-5.49-0.222-6.587,1.976c-0.218,0.44-0.218,0.879-0.218,1.098   c0,1.538,0.218,3.075,0.661,4.393c0.655,2.417,0.873,5.054,0.873,7.686c0,1.101,0.218,2.199,0.443,3.298   c0.662,2.632,1.97,5.267,3.731,7.907c0.654,0.658,1.098,1.094,1.76,1.534c1.759,1.316,3.293,2.418,4.391,3.516   c2.86,2.854,3.95,6.806,3.078,11.199c0,0.879,0,1.319,0.437,1.977c0.661,1.098,1.322,2.855,1.322,4.611   c0.212,0.879,0,1.319-0.225,1.977c-1.534,2.419-3.075,4.614-4.831,7.028c-1.759,2.418-3.518,4.392-5.277,5.711   c-0.654,0.442-1.309,0.881-1.752,1.318c-0.663,0.222-1.1,0.658-1.753,0.879c-0.437,0-0.88,0.222-1.105,0   c-3.949-0.658-7.246-1.979-10.319-3.517c-3.733-2.192-7.907-2.853-12.739-1.974c-0.876,0-1.534,0.218-2.414,0.218   c-3.517,0.44-7.246,0.44-10.98,0c-0.661,0-1.319,0-2.195,0c-1.539,0-2.418-0.437-2.637-1.538c0-0.441-0.222-0.877-0.879-0.877   c-0.44-0.222-1.098-0.44-1.756-0.88c-0.881-0.439-1.761-0.879-2.637-1.098c-1.098-0.439-1.977-0.658-2.854-1.098   c-1.979-0.439-3.956-0.879-5.93-1.316c-0.44-0.222-1.103-0.439-1.757-0.879c-1.101-0.441-2.639-0.881-4.612-0.881   c-2.419,0-4.614-0.439-6.812-1.534c-0.439-0.222-1.098-0.662-1.534-0.88c-0.879-0.879-2.199-1.319-3.738-1.755   c-1.974-0.663-3.511-1.321-4.609-1.979c-0.439-0.44-1.099-0.658-1.979-0.658c-2.854-0.222-4.393-1.319-3.951-3.957   c0.218-2.195-0.218-3.951-1.321-4.609c-3.071-2.418-5.267-4.832-6.806-7.246c-0.44-0.445-0.658-0.881-0.658-1.321   c-0.439-1.538-1.759-2.196-3.516-1.756c-1.316,0.218-2.854,0.658-4.609,1.538c-0.658,0.218-1.321,0.436-1.761,0.876   c-3.072,2.197-6.366,3.513-10.099,4.174c-0.44,0.218-0.879,0.218-1.321,0.218c-4.391,0.222-6.806,2.2-6.588,5.93   c0,1.978-0.218,3.735-0.439,5.712c-0.437,1.538-0.658,3.295-0.658,4.832c0-0.439,0-0.879,0-0.879c0-0.218-0.221,0-1.098,0.218   c-0.658,1.977-1.319,3.296-2.195,4.396c-0.441,0.439-0.66,0.876-0.66,1.316c-1.977,6.151-5.49,10.98-10.103,14.276   c-0.439,0.218-0.879,0.658-0.879,1.098c-1.1,3.513-2.637,6.808-5.05,9.443c-3.735,4.832-7.688,9.225-11.642,13.615   c-0.878,1.103-1.757,1.979-2.637,2.858c-3.951,3.513-8.562,7.904-13.833,13.616c-2.415,2.197-4.614,3.953-6.81,5.272   c-0.66,0.439-1.317,0.876-1.757,1.534c-0.439,0.44-2.414,1.539-5.93,2.858c-2.417,1.098-4.173,2.195-5.269,3.072l-1.319,1.321   c-0.658,1.098-1.755,1.974-3.075,2.635c-0.44,0-0.876,0.218-1.318,0.658c-2.853,1.538-5.712,3.513-8.787,5.49   c-2.855,2.197-6.148,3.517-9.883,3.735c-0.658,0.221-1.537,0.221-2.195,0.439c-0.658,0.218-1.315,0.44-1.755,0.879   c-2.637,1.538-5.272,3.513-8.127,5.927c-0.218,0.439-0.658,0.661-1.098,0.879c-1.538,0.658-2.635,1.319-3.295,2.419   c-0.44,0.436-0.658,0.658-1.098,0.658c-1.098,0.44-1.977,0.658-2.417,1.316c-1.976,1.755-4.393,3.075-7.246,3.956   c-3.517,1.098-6.153,2.414-7.909,3.951c-0.218,0.439-0.658,0.658-1.098,1.099c-4.393,2.414-8.343,4.831-12.078,6.588   c-0.658,0.44-1.319,0.879-1.977,1.319c-2.415,2.635-4.832,5.05-7.029,7.246c-3.293,3.735-8.125,7.028-14.055,9.883   c-1.756,0.879-3.513,1.759-5.272,2.635c-0.437,0.222-0.876,0.439-1.316,0.658c-0.658,0.222-1.098,0.44-1.321,0.662   c-0.876,1.317-2.196,2.197-4.169,2.197c-0.658,0.218-1.537,0.218-2.195,0.437c-1.979,0.443-3.295,0.222-3.956-0.658l-1.534,1.101   c-0.881,3.073-1.321,6.148-1.099,9.225l3.294,2.853c0.44,0.218,0.658,0.658,0.876,1.098c0.879,2.416,2.195,4.833,3.734,7.469   c1.319,1.756,3.075,2.632,5.272,2.854c0.879,0,1.538,0.218,2.195,0.439c4.833,2.637,7.686,5.93,8.125,10.101   c0.218,0.222,0,0.661,0,1.098c-0.658,2.417-0.218,4.174,1.317,5.054c0.44,0.218,0.44,0.658,0.44,1.316   c-0.44,3.077-1.539,5.272-3.295,6.588c1.098,1.321,2.855,1.761,5.49,1.761c0.439,0,0.879,0,1.098,0c0.44,0,0.879-0.222,1.098-0.663   c2.419-2.195,4.614-3.729,6.811-5.049c0.658-0.218,1.319-0.441,1.978-0.218c1.315,0,1.974-0.66,2.195-2.197   c0,0,0.439-0.222,1.099,0c1.756,0,2.635,1.098,2.854,3.073c0,0.439,0.218,0.879,0.439,1.098c2.196,2.195,4.833,3.956,7.904,5.272   c0.663,0.218,1.321,0.439,1.979,0.658c2.417,0.662,5.05,1.319,7.686,1.978c1.538,0.221,2.855,0.658,4.174,1.321   c1.538,0.658,3.293,1.316,5.712,2.195c0.439,0,0.658,0.437,1.098,0.876c1.098,1.538,2.855,2.195,5.49,2.195   c0.658-0.218,1.537-0.439,2.414-0.876c0.658-0.222,1.321-0.439,1.979-0.439c1.978-0.222,3.511,0.218,4.609,0.658   c0.664,0.44,1.321,0.44,1.979,0.658c1.756,0,2.417,1.1,2.195,3.077l-1.315,1.756c-1.098,1.098-2.859,2.637-5.712,4.614   c-0.44,0.218-0.44,0.658-0.44,1.315c0.222,1.54,0.662,2.855,1.319,4.393c0,0.44,0.218,0.879,0.44,1.319   c0.876,2.415,1.098,5.49,0.876,8.563c0,1.101-0.44,2.199-0.876,3.075c-1.759,2.419-3.293,4.833-4.833,7.251   c-1.977,3.293-3.732,6.806-4.83,10.539c-0.222,1.098-0.658,2.197-0.881,3.294c-1.316,3.957-2.854,7.467-4.831,10.984   c-0.218,0.437-0.441,0.876-0.878,1.098c-3.075,3.735-5.052,7.246-5.933,11.199c0,0.221,0,0.658,0.221,1.101   c1.757,3.731,3.517,6.806,5.051,9.003c-1.534,2.635-3.072,4.391-4.833,5.049c-2.195,1.099-3.511,3.298-3.733,6.593   c0,0.437,0,0.876-0.218,1.316c-0.658,3.511-2.197,5.712-4.611,6.81c-2.417,1.098-3.734,2.855-3.956,5.05   c0,0.44-0.218,0.879-0.218,1.316c-0.661,1.319-1.098,2.858-1.538,4.174c-1.537,7.027-4.392,12.739-8.343,16.907   c-0.663,0.45-1.1,1.104-1.761,1.541c-2.854,3.293-5.49,6.153-7.686,8.785c-0.658,0.442-1.098,1.098-1.977,1.322   c-1.318,0.873-1.318,1.971,0,3.286c2.195,2.195,4.612,3.519,7.689,3.736c1.098,0.218,2.195,0.218,3.294,0.218   c0.876,0,1.538-0.218,2.195-0.654c2.854-1.541,5.93-1.759,9.001-0.443c0.663,0.443,1.321,0.443,1.979,0.662   c2.854,0.218,5.49,0,7.907-0.437c1.098-0.226,1.974-0.226,3.077,0c1.094,0.218,2.195,0.437,3.071,0.872   c0.879,0.219,1.756,0.884,2.419,1.545c1.098,1.315,1.974,2.413,2.195,3.286c-0.44,1.322-1.977,1.759-4.393,1.759   c-0.658,0-1.319,0-2.199,0c-2.855,0.443-5.708,0.661-8.785,0.88c-0.218,0.218-0.658,0.443-0.876,0.879   c-0.661,1.753-1.538,3.075-2.417,4.177c1.098,1.315,2.854,1.752,5.49,1.752c0.44,0,0.879,0,1.098,0c3.517,0,6.81,0.661,9.886,1.759   c1.316,0.443,2.195,0.88,2.853,1.541c0.218,0.219,0.88,0.654,1.538,0.873c0.441,0,0.66,0.443,1.1,0.661   c0.876,1.315,2.853,1.759,5.488,1.098c4.174-0.661,5.708,0.661,4.61,4.176c0,0.654-0.436,1.098-1.094,1.534   c-0.439,0.218-0.879,0.661-1.319,0.88c-0.88,0.879-2.419,1.534-4.393,1.759c-0.218,0-0.658,0.218-0.88,0.654   c-0.439,0.661-0.876,1.323-1.315,1.978c2.195,1.315,5.05,1.541,8.783,1.098c3.294-0.437,5.49-1.752,7.027-3.954   c0.441-0.655,1.1-1.091,1.539-1.753c1.538-1.315,3.072-1.977,4.614-1.977c2.854-0.219,3.951-1.981,3.951-5.492   c0-0.661,0-1.315,0.439-2.195c0.44-1.541,0.218-2.414-0.661-3.075c-0.218,0-0.437-0.443-0.658-1.098   c-0.218-0.437-0.436-0.883-0.879-1.101c-2.414-1.76-2.414-3.294-0.654-5.053c0.436-0.437,1.098-0.654,1.755-0.437   c3.513,0.219,6.148,1.098,8.127,2.632c0.437,0.226,1.098,0.661,1.534,0.88c1.759,0.88,3.075,1.978,3.736,3.958   c0.66,1.315,1.317,3.293,2.193,5.488c1.102,3.293,3.957,4.837,8.565,5.056c0.439,0,0.879,0,1.319,0.437   c1.317,0.661,2.637,1.759,3.953,2.639c0.439,0.436,1.098,0.872,1.755,1.533c2.858,2.414,6.372,3.729,10.544,3.729   c1.318,0,1.757-0.872,1.318-2.413c-0.441-2.414,0-4.173,0.879-5.488c1.316,1.977,3.515,3.293,6.588,3.729   c4.174,0.442,6.81-0.219,8.347-1.971c3.953,0.654,4.829,3.068,2.416,7.022c-0.222,0.443-0.44,0.661-0.881,0.661   c-1.974,0.437-2.414,1.537-1.534,3.515c0.218,0.88,0.658,1.759,1.316,2.632c0.441,1.098,1.1,1.978,1.757,2.856   c0.658,1.316,1.978,2.195,3.956,2.639c0.658,0.219,1.538,0.437,2.414,0.654c4.393,1.319,7.028,4.177,7.907,9.011   c0.218,0.436,0.218,0.872,0.437,1.309c0,0,0,0-0.218,0c-3.293,0.661-6.588,0-9.663-1.752c-0.658-0.437-1.1-0.437-1.54,0   c-0.658,0.218-1.094,0.879-1.315,1.534c-1.098,2.424-2.196,4.4-3.517,5.498c1.1,1.316,2.858,1.753,5.495,1.753   c0.876,0,1.538,0.225,2.196,0.661c1.537,1.098,3.293,1.315,5.49,1.098c1.316-0.219,1.756,0.437,1.756,1.978   c1.755,1.098,3.077,1.97,4.174,2.85c0.44,0.222,0.876,0.664,1.534,1.101c0.443,0.219,1.101,0.88,1.541,1.541   c0.218,0.437,0.437,0.88,0.658,1.316c1.099,2.195,2.637,4.391,4.61,6.367c-2.635,1.538-5.49,2.417-8.783,2.417   c-1.539,0.219-2.197,1.098-1.757,3.075c0,0.654,0.437,1.534,0.881,1.978c1.756,1.977,3.729,3.074,6.148,3.511   c0.218,0,0.44,0.443,0.44,1.098c0.218,1.538,0.658,2.86,1.316,4.395c1.098,3.075,2.414,5.932,3.513,7.901   c0.44,0.665,0.662,1.327,0.662,1.981c0.218,0.661,0.436,1.541,0.658,2.42c0.218,1.534-0.222,2.188-1.979,2.188   c-1.974-0.218-3.511-1.091-4.831-3.293c-0.659-0.872-1.975-1.315-3.734-0.872c-0.436,0.218-0.876,0.436-1.098,0.872   c-1.539,1.759-3.295,1.323-5.49-1.315c-0.439-0.654-1.098-1.316-1.539-1.534c-0.658-0.447-1.098-0.447-1.974-0.447   c-1.098,0.229-2.195,0.447-3.297,0.665c-1.094,0.219-1.975,0.437-2.852,0.88c-0.661,0.437-1.319,0.654-1.759,1.098   c-3.953,3.293-7.246,6.805-10.322,10.98c-0.218,0.218-0.658,0.661-1.316,0.879c-0.443,0-0.879,0.219-1.319,0.437   c-3.077,1.098-5.05,3.075-5.49,5.714c-0.44,1.534-0.222,2.635,0.658,3.078c0.44,0.219,0.658,0.654,0.658,1.316   c0.222,0.654,0.439,1.533,0.879,2.195c0.658,2.631,1.319,5.263,1.538,7.905c0.218,0.654,0.218,1.315,0.218,1.977   c0,0.437,0,0.873,0.221,1.316c0.658,1.759,1.536,3.511,3.073,4.827c0.222,0.225,0.88,0.443,1.538,0.443   c1.755,0,3.295,0.872,4.393,2.195c0.439,0.436,0.879,0.664,1.319,0.664c2.197,0.219,3.734,1.534,4.832,3.948   c0.437,0.661,0.658,1.322,0.879,1.977c0,0.437,0.437,0.662,0.876,0.88c1.975,1.315,3.953,2.632,5.93,4.391   c1.539,6.153,1.098,11.646-1.316,15.817c-0.661,1.316-0.661,2.414,0.218,3.512c0.218,0.437,0.658,1.098,0.879,1.752   c0,0.443,0.218,0.88,0.658,1.323c1.976,2.635,3.073,5.491,2.855,8.566c0,2.85,0.658,5.267,2.414,7.025   c2.197,2.196,2.858,4.827,2.197,8.346c-0.436,1.537-1.317,2.86-2.855,3.515c-0.439,0.218-0.876,0.661-0.876,1.098   c-0.222,0.654-0.439,1.315-0.879,1.759c1.098,1.534,3.075,2.85,5.93,3.512c4.174,1.315,6.148,3.515,6.148,6.59   c0,0.442-0.218,0.879-0.437,1.315c-1.319,2.639-3.077,3.736-4.835,2.639c-0.658-0.443-1.094-0.661-1.756-0.88   c-1.316,0.219-2.197,0.437-2.637,1.098c-1.756,1.534-2.632,3.515-2.414,5.71c0,0.443-0.218,0.88-0.44,1.098   c-1.098,1.316-2.855,1.76-5.708,1.76c-0.222,0-0.658,0.218-0.88,0.661c-1.098,2.413-1.539,4.827-1.316,7.462   c2.196,1.098,4.391,1.759,6.588,1.759c0.876,2.414,0.218,4.392-1.979,5.489c-3.071,1.315-5.272,3.732-6.366,7.251   c-0.221,0.879-0.443,1.977-0.879,3.074c-0.44,1.316-1.319,2.414-2.417,2.85c-0.66,0.443-1.099,0.88-1.757,1.316   c-2.417,2.86-3.951,5.935-4.614,9.229c-0.658,2.413-0.436,4.619,0.442,6.371c1.098,2.195,2.417,3.954,3.954,5.052   c0.218,0.437,0.437,0.873,0.658,1.534c0.218,2.199-0.879,2.86-3.515,2.199c-1.54-0.654-2.855-1.534-3.513-3.079   c-0.658-0.879-1.537-1.315-3.075-1.098c-3.295,0-5.49,1.978-6.588,5.274c-0.441,0.879-0.66,1.541-1.1,2.195   c-0.879-1.534-2.635-2.195-5.272-1.76c-1.755,0.443-2.414,1.541-1.974,3.955c0,0.661,0.437,1.541,0.876,1.977   c1.319,1.534,1.979,3.079,2.419,4.831c0,0.661,0,1.322-0.663,1.759c-2.414,2.632-4.831,5.488-6.81,8.349   c-0.437,0.437-0.658,1.098-0.876,1.752c-0.218,1.323-1.316,2.414-2.854,3.519c-3.734,2.413-4.614,6.143-2.637,10.98   c0.218,0.654,0.218,1.315,0.44,1.977c0,1.978-0.222,3.512-0.88,4.613c-0.658,1.533-0.439,2.195,0.658,2.413   c0.879,0.218,1.537,0.218,2.197,0.218c3.951,0,6.81,1.104,8.787,2.857c0.876,0.879,1.538,2.195,1.538,4.172   c0.218,0.88,0.218,1.534,0.437,2.417c0.223,2.639-0.658,4.173-2.854,4.609c-0.439,0.225-0.876,0.443-1.319,0.661   c-2.193,2.195-4.171,5.053-6.148,8.349c-0.218,0.437-0.658,0.654-1.317,0.873c-0.44,0-0.88,0.443-1.319,0.661   c-1.316,1.541-1.316,2.639,0,3.511c1.537,0.662,2.418,1.541,3.077,2.639c0.222,0.437,0.658,0.665,1.315,0.88   c0.44,0,0.88,0.222,1.098,0.222c0.443,0,0.879-0.222,1.319-0.437c1.976-1.108,3.735-2.642,4.833-3.958   c0.44-0.443,0.879-0.661,1.539-0.443c5.049,0.226,9.441-0.872,13.397-3.074c0.658-0.219,1.316-0.437,1.974-0.437   c4.832-0.654,7.028-3.297,6.588-7.688c3.734,0,5.93,1.316,6.811,4.391c0.218,1.763,0,2.643-0.881,3.078   c0.44,1.316,1.1,2.196,1.54,2.632c2.417,2.195,5.711,2.857,10.103,2.639c3.734-0.443,7.469-0.661,10.98-1.098   c0.44,0,0.88,0,1.098,0c1.979-0.218,3.517-0.661,4.614-1.315c0.658-0.226,1.316-0.226,1.979-0.226   c0.654,0.226,1.534,0.443,2.192,0.443c1.759,0.219,2.635-0.879,2.635-2.856c0.222-0.654,0.222-1.534,0.439-2.195   c0.224-1.102,0.441-2.199,0.663-3.078c0-0.88,0.437-1.534,1.098-1.978c1.094-1.098,2.854-1.971,5.051-2.85   c0.439-0.219,0.658-0.437,0.876-0.88c1.537-3.293,3.515-6.371,6.151-9.446c0.437-0.654,1.098-1.098,1.977-1.315   c2.855-0.662,5.051-1.76,6.367-3.512c0,1.534,0.221,2.632,0.661,3.512c0.218,0.661,0.437,1.315,0.437,1.977   c-0.218,2.414-1.538,3.955-4.169,4.827c-0.439,0-0.879,0.447-1.321,0.665c1.979,2.195,5.054,3.075,8.785,2.856   c1.541-0.225,2.635,0.219,3.077,1.098c0,0.437,0.658,0.437,1.098,0.219c0.88-0.219,1.538-0.662,2.195-1.098   c1.761-2.195,3.957-4.395,6.588-6.59c1.321-1.315,2.858-1.978,4.396-2.421c0.658,0,1.094-0.218,1.316-0.654   c1.539-1.098,1.539-2.639-0.222-3.954c-1.755-1.534-2.85-3.515-2.85-5.929c-0.222-1.54,0.654-3.074,2.192-4.172   c3.294-2.414,6.151-4.619,8.567-6.808c1.319,0,1.755,0.654,1.755,2.188c0,0.879,0,1.541,0,2.205c0,1.534,0.222,2.632,0.879,3.729   c-1.316,2.414-2.195,4.391-2.414,6.368c-0.221,0.654,0.218,1.319,1.098,1.756c2.854,2.202,5.272,1.541,7.686-1.756   c0.658-1.316,2.637-1.759,5.051-0.88c0.658,0,1.098,0.219,1.319,0.219c1.316,0.225,1.976-0.437,1.976-1.753   c0-3.3,0-6.593,0.222-9.889c0-0.219,0.44-0.655,1.316-0.873c3.733-1.098,7.246-3.293,10.544-5.932   c0.437-0.654,1.098-1.098,1.316-1.978c0.879,0.88,1.319,1.541,1.755,2.421c0.662,1.315,0.662,2.413-0.218,3.293   c-3.075,3.068-5.272,5.928-7.028,8.566c2.417,1.091,4.611,2.414,7.028,3.948c0.439,0.218,1.098,0.442,1.755,0.442   c3.077,0,5.054-1.54,6.372-4.391c1.098-2.639,2.635-5.273,4.172-7.912c0.876-1.315,2.197-2.195,3.956-2.632   c1.759-0.437,3.286-0.437,4.393,0c2.85-0.879,5.707-1.098,8.342-0.437c0,0,0.443,0.437,0.661,1.099c0,0.436,0.437,0.654,0.88,1.091   c0.872,0.661,1.759,1.759,2.413,3.074c0.437,1.316,1.534,1.76,2.857,1.316c2.632-0.655,3.947,0,4.394,1.98   c0,0.218,0.437,0.218,1.098,0c1.534-0.219,2.851-0.654,4.173-1.316c0.437-0.436,1.098-0.883,1.752-1.101   c0.437-0.437,1.098-0.661,1.541-0.88c2.417-0.654,4.395-1.97,5.71-4.165c0.88-1.323,2.414-1.76,4.391-1.541c0.443,0,0.88,0,1.098,0   c0.443,0,0.88-0.219,1.098-0.662c1.534-1.533,2.417-3.729,2.86-6.589c0-1.316-0.443-1.978-1.544-2.414   c-0.437-0.218-0.88-0.218-1.316-0.437c-1.54-0.218-2.413,0-3.293,0.655c-1.541,1.541-3.074,1.541-4.391,0.218   c-1.098-1.091-1.98-2.632-2.86-4.166c-0.218-0.661-0.879-1.098-1.752-1.098c-1.322-0.225-2.639-0.442-4.173-0.442   c1.316-2.636,3.068-4.613,5.707-6.153c0.661-0.219,1.319-0.437,1.98-0.437c3.512-0.437,6.586,0,9.218,1.759   c0.443,0.218,1.098,0.437,1.763,0.218c1.534-0.218,2.639,0,3.075,1.098c0.218,0.443,0.661,1.098,1.315,1.534   c1.759,1.326,3.736,1.545,5.932,0.443c0.873-0.443,1.756-0.661,2.854-0.88c0.661-0.218,1.541-0.218,2.195-0.442   c2.195,0,3.954-0.437,5.707-1.091c0.661-0.226,1.322-0.443,1.977-0.662c0.447-0.218,0.665-0.436,1.108-0.879   c1.091-1.76,2.85-2.85,5.481-3.512c0.443-0.218,0.661-0.443,0.88-0.879c1.54-2.86,4.172-4.395,7.912-4.395   c0.872-1.315,1.534-2.632,1.97-3.293c1.323-1.759,2.421-3.729,3.075-5.707c0.443-0.443,0.443-1.107,0.443-1.98   c0.218-3.954,2.199-6.804,5.71-8.563c4.173-1.98,6.368-5.056,6.368-9.01c0.218-3.947,1.315-7.025,3.296-8.778   c2.639-1.977,3.729-4.834,3.955-8.791c0-0.655,0.218-1.316,0.654-1.978c0.88-1.091,1.322-2.632,1.322-4.609   c0.219-0.654,0.219-1.315,0.655-2.195c1.315-3.732,3.074-7.687,5.048-12.296c0.443-0.446,0.662-1.098,0.662-1.98   c0.879-3.075,1.541-5.925,2.195-8.781c0.443-1.763,0.225-3.297-0.437-3.958c-0.661-0.655-1.315-1.098-1.978-1.316   c-0.654,0-1.315-0.218-1.98-0.443c-0.437-0.211-0.872-0.211-1.315-0.211c-0.219,0-0.662,0-1.098,0   c-3.512,0.211-5.489-0.887-5.932-3.736c0-0.443-0.219-0.88-0.437-1.315c-0.88-1.978-2.414-2.643-4.612-2.195   c0-1.326,0.218-2.86,0.437-4.177c0-0.879,0.225-1.759,0.442-2.42c0.655-3.729,0.873-7.026,0.873-9.883   c-0.437-5.488-0.654-10.98-0.873-16.469c0-3.297,0.219-7.025,0.655-10.762c0.218-0.88,0.218-1.534,0.664-2.414   c1.098-2.635,1.76-5.71,2.195-8.785c0-0.661,0-1.098-0.436-1.315c-0.88-0.443-1.098-1.541-1.098-3.078   c0.218-3.955-0.219-7.248-1.763-9.879c-1.098-1.763-1.978-3.74-2.856-5.718c-0.219-0.436-0.437-1.098-0.88-1.759   c-1.098-1.971-1.534-4.166-1.316-6.808c0.219-0.654,0.219-1.315,0.219-2.195c0.443-5.045-0.437-9.665-1.971-14.056   c-0.225-0.436-0.443-0.872-0.443-1.315c-1.315-3.293-2.631-6.59-3.958-9.665c-0.872-2.638-2.195-5.27-3.729-8.123   c-1.316-2.195-2.632-5.052-3.512-8.563c-2.195-6.371-4.173-10.326-6.59-12.088c-2.195-1.534-3.736-3.286-5.052-5.046   c-0.661-1.315-1.534-2.631-2.639-3.954c-1.091-1.534-2.41-3.297-3.515-5.049c-3.511-5.488-7.24-10.762-11.198-15.378   c-0.88-1.315-1.759-2.413-2.632-3.729c-3.518-5.056-6.586-10.762-9.229-17.352c-2.195-5.271-4.608-10.762-7.247-16.693   c-2.854-5.71-5.049-11.199-7.244-16.031c-0.225-0.439-0.225-0.879-0.225-1.321c-0.219-1.756-0.873-3.293-1.753-4.391   c-1.977-1.756-3.518-4.829-4.619-8.567c-1.098-3.733-2.195-7.464-2.85-11.199c0-0.658-0.437-1.319-0.661-1.755   c-1.316-1.977-2.632-3.738-4.166-5.712c-0.225-0.439-0.443-0.879-1.104-0.879c-3.297-1.098-6.146-2.637-8.56-3.734   c-1.978-1.098-3.521-2.632-5.054-4.609c-1.977-3.077-3.956-5.496-5.93-7.469c-0.222-0.222-0.658-0.44-1.101-0.44   c-1.974-0.218-3.513-0.879-4.393-1.755c-2.414-2.195-4.611-4.174-6.366-5.712c-1.098-0.876-2.635-1.755-3.733-2.633   c-2.637-1.541-4.614-3.075-6.372-4.834c-0.218-0.218-0.658-0.66-0.658-1.1c-0.222-0.658-0.662-1.316-0.879-1.534   c-1.978-1.978-3.511-3.517-5.051-5.054c-0.221-0.218-0.661-0.658-1.319-0.658c-0.437-0.218-1.098-0.658-1.316-0.876   c-0.658-0.662-1.538-1.098-2.855-1.541c-0.44-0.218-0.662-0.218-1.101-0.437c-1.316-0.439-2.414-0.658-3.293-0.658l-0.218-1.979   c-1.321-0.658-2.637-1.098-3.953-1.977c-0.879-0.218-1.537-1.316-1.761-2.637c0-0.437-0.218-0.876-0.436-1.316   c-0.44-1.098-1.098-1.756-1.759-1.978c-1.098-0.436-1.974-1.316-3.071-2.197c-0.44-0.88-1.103-1.756-1.757-2.414   c-0.879-1.098-1.538-2.635-1.978-4.396c-0.221-1.094-0.661-2.192-0.661-3.293c-0.218-2.416,0.222-4.611,1.759-6.148   c1.979-2.637,3.294-5.49,3.734-9.225c0.218-0.658,0.44-1.319,0.658-1.977c0.44-1.1,1.098-2.637,1.316-4.611   c0-0.221,0-0.658,0-1.098c0-0.658-0.218-1.537-0.218-2.197c-0.218-1.098-0.658-2.199-0.658-3.075   c-0.222-0.439-0.222-0.879-0.44-1.316c-0.218-1.761-0.658-3.734-0.879-6.151c0.662-1.1,0.879-2.197,0.662-3.734   c0-0.658,0-1.098,0.218-1.316c1.316-0.879,2.195-2.197,2.414-4.174c0-0.218,0-0.658,0.222-1.098c0-0.658,0.44-1.316,0.876-1.756   c0.224-0.663,0.663-1.321,1.1-1.757c2.417-3.075,4.614-5.054,6.81-6.591c0.658-0.218,1.098-0.218,1.537-0.436   c0.88-0.222,1.756-0.662,2.855-0.879c1.978-0.658,3.293-1.319,4.391-1.756c3.077-1.539,6.151-3.295,9.006-5.49   c1.098-0.663,1.977-1.539,3.077-2.418c2.195-1.978,5.267-2.854,9.001-2.854c3.734,0.218,7.027-0.658,9.668-2.858   c0.436-0.437,1.094-0.876,1.755-1.316c5.047-4.61,10.76-8.347,16.907-11.642c0.661-0.218,1.098-0.218,1.323-0.218   c1.752-0.218,3.067-0.879,4.391-1.755c2.635-2.197,5.71-3.735,8.785-4.614c2.195-0.436,3.732-1.098,4.612-1.538   c1.098-0.66,1.977-1.317,2.856-1.975c0.437-0.44,1.098-0.88,1.752-1.319c3.954-3.513,8.349-8.344,12.739-14.715   c0.443-0.658,0.88-1.319,1.541-1.756c3.951-3.733,8.124-7.027,12.732-10.322c2.86-1.756,5.492-3.955,7.694-6.591   c1.752-1.756,3.293-3.951,4.608-6.366c0.655-1.098,1.756-2.635,3.516-4.174c0.442-0.658,0.879-1.316,1.533-1.756   c1.76-1.977,3.736-3.951,6.15-5.93c2.198-1.977,4.612-3.956,7.032-6.151c2.851-2.196,5.707-3.953,9.003-5.49   c0.437-0.218,0.88-0.218,1.098-0.218c4.173,0,7.902-1.098,10.98-2.857c1.098-0.654,1.76-1.757,1.978-3.294   c0.218-2.414,0.218-5.051,0.218-7.686c0-1.757,0.219-3.517,0.443-5.272c0.437-3.731,0.654-7.246,0.654-11.199   c0-3.516,0.219-7.249,0.443-10.984c0.219-1.315,0.437-2.853,0.654-4.392c0.443-1.316,0.662-2.854,0.88-4.391   c0.218-0.66,0-1.321-0.218-1.536c-0.662-0.661-1.098-1.541-1.541-2.856c-0.873-3.077-1.971-6.37-3.293-9.883   c-1.098-3.517-1.316-7.028-0.873-10.762c0.219-0.879,0.219-1.755,0.437-2.417c0.218-0.658,0.437-1.316,0.88-1.534   c0.436-0.663,0.879-1.539,1.533-2.858c0.662-1.755,1.316-3.294,2.195-4.392c0.443-0.658,0.88-1.316,1.541-1.756   c2.414-1.759,4.177-4.614,4.831-8.125c0.218-1.099,0.443-1.979,1.098-2.418c1.534-2.195,2.856-4.611,3.954-7.246   c0.661-1.756,1.098-3.517,1.098-5.712c0.219-0.218,0.219-0.658,0.437-1.098c0.661-1.316,1.315-2.637,2.195-4.393   c0.218-0.658,0.446-1.316,0.665-1.974c1.315-1.979,2.413-3.956,3.954-5.712c0.437-0.658,0.873-1.321,1.316-1.979   c1.098-0.876,2.413-1.755,3.954-2.853c3.071-1.538,5.267-3.077,7.025-4.833c0.655-0.439,1.098-1.098,1.534-1.537   c4.173-5.272,8.567-9.883,13.619-14.057c0.218-0.222,0.661-0.658,0.661-1.098c0.654-2.195,1.316-3.515,2.632-4.393   c2.417-1.755,5.056-3.293,7.469-4.612c1.316-0.66,1.534-1.539,0.873-2.855c-0.654-1.098-1.534-2.635-2.85-4.614   c-0.437-0.658-0.88-1.316-1.534-1.755c-0.88-0.658-1.759-1.316-2.639-1.756c-1.763-1.098-2.417-2.415-2.199-3.953   c0.219-0.879,0.665-1.319,1.102-1.759c2.195-0.876,2.421-2.197,0.443-3.513C525.519,52.809,523.542,50.612,521.791,47.977z"/>
	<path fill="#4a4a4a" d="M213.433,944.927c-2.637,1.76-6.366,2.857-10.98,2.857c-0.658,0-1.319,0.218-1.977,0.654   c-2.194,1.315-3.953,2.642-5.708,4.176l-0.879-1.098c-1.757,1.316-3.513,2.856-5.708,4.616c-2.197,1.534-4.614,3.511-7.248,5.71   c-0.661,0.436-1.101,1.098-1.541,1.752c-1.755,2.195-3.294,4.608-4.392,6.586c1.319,1.104,3.077,1.541,5.49,1.759   c0.879,0,1.537,0.219,2.2,0.662c1.538,1.101,2.635,2.198,3.511,3.078c1.098,1.091,2.855,1.315,5.272,0.654   c0.44,0,0.88,0,1.316-0.218c2.637-0.662,4.833-1.316,6.588-1.76c0.663-0.218,1.321,0,1.979,0.443   c3.293,1.752,6.81,2.195,10.98,1.534c0.439,0,0.879-0.218,1.319-0.437c2.854-1.759,6.148-3.078,9.883-4.176   c0.658-0.218,1.319-0.437,1.978-0.661c0.439-0.219,0.658-0.437,1.098-0.88c0.658-1.098,1.974-1.534,3.294-1.534   c4.833-0.218,7.467-2.195,8.125-5.925c0.439-1.98,1.098-3.296,1.979-4.394c0.658-0.443,1.316-0.88,1.974-1.541   c2.635-1.978,3.733-4.827,3.075-8.567c-0.218-1.977-1.319-3.511-2.635-4.826c-0.658-0.443-1.316-0.88-1.756-1.098   c-0.658-0.443-1.099-0.662-1.757-0.88c-0.44-0.218-0.879-0.218-1.319-0.443c-1.098-0.218-2.195-0.437-3.077-0.654   c-0.876-0.219-1.534-0.219-2.414-0.443c-2.853-0.218-5.272,0.443-7.467,1.978c-0.439,0.218-0.876,0.443-1.316,0.443   c-3.077,0-6.151,0.654-8.566,1.752C214.312,944.272,213.872,944.491,213.433,944.927z"/>
	<g>
		<polygon fill="#4a4a4a" points="660.669,561.208 658.991,561.208 658.145,562.749 658.145,565.28 660.254,566.399     660.669,565.699 661.933,564.436 661.933,562.749   "/>
		<polygon fill="#4a4a4a" points="654.583,559.048 652.955,560.627 653.768,561.665 655.732,562.646 657.2,560.627 656.545,559.048     656.248,558.421 655.864,559.048 655.078,559.048   "/>
	</g>
	<polygon fill="#4a4a4a" points="607.188,559.245 606.01,561.506 606.585,563.161 607.167,564.072 605.997,565.426 605.107,566.631    603.943,566.624 603.355,567.985 601.748,567.971 599.283,565.845 598.417,563.57 597.69,563.57 596.824,561.752 597.707,560.8    599.168,559.803 600.047,559.2 601.502,559.207 602.011,559.973 603.248,559.221 603.988,558.168 605.595,558.175  "/>
</g>
</svg>