<svg xmlns="http://www.w3.org/2000/svg" xmlns:xlink="http://www.w3.org/1999/xlink" version="1.1" x="0px" y="0px" width="100px" height="100px" viewBox="0 0 100 100" enable-background="new 0 0 100 100" xml:space="preserve">
<g id="Layer_1">
</g>
<g id="Layer_2">
	<path fill="#4a4a4a" d="M91.729,16.364c-0.002-0.004-0.002-0.008-0.004-0.013c-0.004-0.012-0.01-0.021-0.014-0.033   c-0.004-0.014-0.012-0.026-0.018-0.039c-0.02-0.053-0.037-0.106-0.066-0.155c-0.016-0.028-0.039-0.051-0.057-0.077   c-0.018-0.023-0.033-0.046-0.053-0.068c-0.016-0.02-0.029-0.042-0.049-0.06c-0.027-0.028-0.062-0.049-0.094-0.074   c-0.033-0.026-0.062-0.057-0.1-0.079c-0.006-0.003-0.012-0.004-0.016-0.007c-0.006-0.003-0.01-0.008-0.016-0.011L70.859,4.622   c-0.299-0.163-0.66-0.163-0.959,0l-40.765,22.25c-0.321,0.175-0.521,0.512-0.521,0.878v21.657L8.757,60.246   c-0.321,0.176-0.521,0.512-0.521,0.878v22.247c0,0.366,0.2,0.702,0.521,0.878l20.379,11.129c0.048,0.026,0.099,0.04,0.148,0.058   c0.026,0.01,0.05,0.023,0.077,0.03c0.083,0.022,0.168,0.034,0.253,0.034h0h0c0.085,0,0.17-0.012,0.253-0.034   c0.002,0,0.005,0,0.007-0.001c0.027-0.007,0.052-0.022,0.078-0.032c0.047-0.017,0.096-0.03,0.141-0.055l40.766-22.253   c0.32-0.176,0.52-0.512,0.52-0.878V50.594l19.865-10.839c0.32-0.175,0.52-0.512,0.52-0.878v-22.25   C91.764,16.537,91.752,16.449,91.729,16.364z M69.379,49.406L51,59.438V39.47l18.379-10.032V49.406z M30.615,72.841L49,62.809   v19.97L30.615,92.814V72.841z M51,81.687V61.718l18.379-10.032v19.968L51,81.687z M71.379,48.315V28.346l18.385-10.034v19.971   L71.379,48.315z"/>
</g>
</svg>