<svg xmlns="http://www.w3.org/2000/svg" xmlns:xlink="http://www.w3.org/1999/xlink" version="1.1" id="Layer_1" x="0px" y="0px" width="100.0px" height="100px" viewBox="0 0 512 512" enable-background="new 0 0 512 512" xml:space="preserve">
<path fill="#78c272" d="M308.375,0L512,203.656l-67.875,22.625L285.75,67.89L308.375,0z M407.313,263.062l-90.5-90.5l-67.875-67.875L90.516,172.562  L0,444.094l22.625,22.625l148.672-148.656c-14.422-24.563-11.328-56.563,9.719-77.625c25-24.984,65.547-24.984,90.547,0  c25,25,25,65.531,0,90.5c-21.063,21.063-53.078,24.188-77.641,9.75L45.266,489.375L67.891,512l271.547-90.531L407.313,263.062z"/>
</svg>