<svg xmlns="http://www.w3.org/2000/svg" xmlns:xlink="http://www.w3.org/1999/xlink" version="1.1" x="0px" y="0px" width="100px" height="100px" viewBox="0 0 100 100" enable-background="new 0 0 100 100" xml:space="preserve">
<g id="Captions">
</g>
<g id="Your_Icon">
	<g>
		<path fill="#FFFFFF" d="M67.045,61.379c-0.761,0-1.517-0.291-2.091-0.864L39.475,35.033c-1.039-1.039-1.156-2.683-0.275-3.859L57.889,6.208    c0.977-1.306,2.827-1.574,4.135-0.594c1.307,0.977,1.571,2.828,0.593,4.134L45.462,32.665l21.859,21.862L90.242,37.37    c1.306-0.98,3.156-0.712,4.132,0.594c0.979,1.307,0.713,3.159-0.594,4.135L68.813,60.79    C68.286,61.186,67.664,61.379,67.045,61.379z"/>
	</g>
	<g>
		<path fill="#FFFFFF" d="M8.003,94.94c-0.756,0-1.512-0.288-2.089-0.865c-1.154-1.153-1.154-3.022,0-4.177c1.717-2.103,7.693-19.544,12.451-35.162    c0.209-0.685,0.658-1.268,1.264-1.646L44.851,37.38c1.382-0.863,3.205-0.441,4.068,0.944c0.862,1.384,0.44,3.206-0.944,4.068    L23.692,57.52c-3.294,10.759-10.505,33.459-13.602,36.556C9.514,94.652,8.758,94.94,8.003,94.94z"/>
	</g>
	<g>
		<path fill="#FFFFFF" d="M7.987,94.977c-0.758,0-1.516-0.294-2.101-0.877c-1.152-1.153-1.127-3.047,0.027-4.201l29.236-29.24    c1.154-1.152,3.023-1.152,4.178,0c1.152,1.154,1.152,3.024,0,4.178l-18.51,18.511c7.527-2.658,16.148-5.367,21.65-7.05    l15.128-24.283c0.861-1.382,2.683-1.806,4.069-0.943c1.384,0.862,1.806,2.685,0.944,4.068L46.897,80.359    c-0.379,0.606-0.962,1.057-1.646,1.264C29.633,86.382,12.193,92.357,10.04,94.124C9.468,94.695,8.729,94.977,7.987,94.977z"/>
	</g>
	<g>
		<path fill="#FFFFFF" d="M34.879,58.493c1.824-1.825,4.785-1.826,6.616,0.002c1.824,1.826,1.824,4.79,0,6.614c-1.825,1.825-4.787,1.825-6.616,0    C33.053,63.279,33.053,60.321,34.879,58.493z"/>
	</g>
</g>
</svg>