<svg xmlns="http://www.w3.org/2000/svg" xmlns:xlink="http://www.w3.org/1999/xlink" version="1.1" id="Livello_1" x="0px" y="0px" width="100px" height="100px" viewBox="0 0 100 100" enable-background="new 0 0 100 100" xml:space="preserve">
<g>
	<g>
		<path fill="#FFFFFF" d="M74.998,36.233c-7.595,0-11.961-4.455-15.82-8.387c-2.995-3.056-5.585-5.694-9.178-5.694c-3.541,0-6.109,2.62-9.081,5.652    c-3.868,3.95-8.25,8.429-15.921,8.429c-7.593,0-11.961-4.455-15.82-8.387C6.183,24.791,3.592,22.152,0,22.152v-4.704    c5.567,0,9.109,3.611,12.536,7.104c3.518,3.588,6.844,6.978,12.461,6.978c5.691,0,9.031-3.408,12.563-7.015    C40.96,21.04,44.479,17.448,50,17.448c5.566,0,9.11,3.611,12.535,7.104c3.52,3.588,6.845,6.978,12.463,6.978    c5.691,0,9.03-3.408,12.563-7.015c3.404-3.476,6.917-7.067,12.439-7.067v4.704c-3.541,0-6.11,2.62-9.077,5.652    C87.051,31.755,82.668,36.233,74.998,36.233z"/>
	</g>
	<polygon fill="#FFFFFF" points="66.945,58.959 52.352,73.549 52.352,36.233 47.648,36.233 47.648,73.552 33.124,59.031 29.798,62.355 50,82.552    70.271,62.286  "/>
</g>
</svg>