<svg xmlns="http://www.w3.org/2000/svg" xmlns:xlink="http://www.w3.org/1999/xlink" version="1.1" id="Layer_1" x="0px" y="0px" width="100px" height="100px" viewBox="0 0 100 100" enable-background="new 0 0 100 100" xml:space="preserve">
<g>
	<path fill="#757c78" fill-rule="evenodd" clip-rule="evenodd" d="M47.094,0c1.942,0,3.883,0,5.825,0c10.356,0.849,19.129,4.168,25.128,8.82   C61.246,8.883,54.905,19.405,54.25,35.612c-15.567-1.059-23.271,7.274-25.461,20.801c-0.311,1.919-0.895,4.478-0.499,5.991   c0.271,1.034,2.267,2.434,3.328,3.495c7.606,7.605,16.56,16.241,23.963,23.131c-0.032-16.92,8.874-29.091,25.96-26.793   c0.058-1.493-0.018-3.058,0.167-4.659c1.243-10.834,6.325-19.423,16.308-21.633c5.259,17.274-0.753,34.767-8.485,44.765   c-8.285,10.709-20.7,18.117-37.942,19.304c-1.054,0-2.109,0-3.162,0c-14.57-0.865-25.623-6.485-33.449-14.312   C7.138,77.863,1.101,67.272,0,52.919c0-1.942,0-3.882,0-5.825c0.867-13.358,7.115-25.247,14.644-32.617   C22.666,6.625,33.348,1.112,47.094,0z"/>
</g>
</svg>