<svg xmlns="http://www.w3.org/2000/svg" xmlns:xlink="http://www.w3.org/1999/xlink" version="1.1" x="0px" y="0px" width="100px" height="100px" viewBox="0 0 100 100" enable-background="new 0 0 100 100" xml:space="preserve">
<g id="Captions">
</g>
<g id="Your_Icon">
	<g>
		<path fill="#757c78" d="M44.105,28.015c3.273-4.784,8.729-7.385,14.099-7.385c9.652,0,16.7,8.308,16.7,16.952c0,3.272-1.006,6.629-2.938,9.399    L53.002,75.01c-2.351,3.607-6.295,5.538-10.239,5.538c-7.133,0-12.336-6.125-12.336-12.168c0-2.435,0.755-4.867,2.267-7.134    l19.133-28.113c1.428-2.35,3.776-3.44,6.295-3.44c3.943,0,7.553,3.692,7.553,7.805c0,1.426-0.42,2.937-1.343,4.28L49.812,63.345    c-0.588,0.923-1.427,1.427-2.434,1.343c-1.763,0-3.357-1.428-3.357-3.021c0-0.587,0.253-1.259,0.672-1.846l14.35-21.484    c0.253-0.252,0.337-0.587,0.337-0.923c0-0.671-0.42-1.511-1.259-1.511c-0.42,0-0.924,0.251-1.176,0.755L37.812,64.855    c-0.756,1.09-1.092,2.349-1.092,3.524c0,2.854,2.518,5.791,6.127,5.791c1.93,0,3.691-0.84,4.951-2.687l18.965-28.029    c1.176-1.762,1.847-3.776,1.763-5.874c0-5.371-4.195-10.742-10.322-10.742c-3.44,0-6.798,1.678-8.811,4.531L34.622,53.19    c-0.586,0.84-1.426,1.259-2.432,1.259c-1.764,0-3.19-1.511-3.19-3.105c0-0.587,0.168-0.923,0.588-1.51L44.105,28.015z"/>
	</g>
</g>
</svg>