<svg xmlns="http://www.w3.org/2000/svg" xmlns:xlink="http://www.w3.org/1999/xlink" version="1.1" id="chat_retro_simple_1_" x="0px" y="0px" width="100px" height="100px" viewBox="0 0 100 100" enable-background="new 0 0 100 100" xml:space="preserve">
<path fill="#78c272" d="M50,6.5c24.023,0,43.5,19.475,43.5,43.5c0,24.023-19.477,43.5-43.5,43.5c-10.473,0-20.081-3.703-27.588-9.869l-8.3,2.258  l2.259-8.299C10.204,70.083,6.5,60.475,6.5,50C6.5,25.975,25.976,6.5,50,6.5 M50,4.5C24.911,4.5,4.5,24.911,4.5,50  c0,10.157,3.428,20.075,9.674,28.047l-1.991,7.314l-0.918,3.373l3.373-0.918l7.318-1.988C29.927,92.073,39.844,95.5,50,95.5  c25.089,0,45.5-20.411,45.5-45.5S75.089,4.5,50,4.5L50,4.5z"/>
<path fill="#78c272" d="M49.892,10.645c-21.783,0-39.441,17.658-39.441,39.441c0,21.783,17.658,39.441,39.441,39.441s39.441-17.658,39.441-39.441  C89.333,28.303,71.675,10.645,49.892,10.645z M39,53.833c-2.117,0-3.833-1.716-3.833-3.833c0-2.117,1.716-3.833,3.833-3.833  s3.833,1.716,3.833,3.833C42.833,52.117,41.117,53.833,39,53.833z M50,53.833c-2.117,0-3.833-1.716-3.833-3.833  c0-2.117,1.716-3.833,3.833-3.833c2.117,0,3.833,1.716,3.833,3.833C53.833,52.117,52.117,53.833,50,53.833z M61,53.833  c-2.117,0-3.833-1.716-3.833-3.833c0-2.117,1.716-3.833,3.833-3.833s3.833,1.716,3.833,3.833C64.833,52.117,63.117,53.833,61,53.833  z"/>
</svg>