<?xml version="1.0" encoding="utf-8"?>
<!-- Generator: Adobe Illustrator 16.0.0, SVG Export Plug-In . SVG Version: 6.00 Build 0)  -->
<!DOCTYPE svg PUBLIC "-//W3C//DTD SVG 1.1//EN" "http://www.w3.org/Graphics/SVG/1.1/DTD/svg11.dtd">
<svg version="1.1" id="Layer_1" xmlns="http://www.w3.org/2000/svg" xmlns:xlink="http://www.w3.org/1999/xlink" x="0px" y="0px"
	 width="62.498px" height="100px" viewBox="18.75 0 62.498 100" enable-background="new 18.75 0 62.498 100" xml:space="preserve">
<path fill="#de6868" d="M18.75,83.336h35.416V100h12.501l14.581-16.664V0H18.75V83.336z M62.498,95.837h-4.166V16.666h4.166V95.837z M69.79,56.252
	c-1.726,0-3.123-1.4-3.123-3.126c0-1.723,1.397-3.126,3.123-3.126c1.725,0,3.126,1.403,3.126,3.126
	C72.916,54.852,71.516,56.252,69.79,56.252z M77.082,4.168l-10.415,8.333h-5.991l9.999-8.333H77.082z M22.916,4.165h41.25
	l-9.999,8.336v66.666h-31.25V4.165z"/>
</svg>
