<svg xmlns="http://www.w3.org/2000/svg" xmlns:xlink="http://www.w3.org/1999/xlink" version="1.1" id="Layer_1" x="0px" y="0px" width="20px" height="20px" viewBox="0 0 20 20" enable-background="new 0 0 20 20" xml:space="preserve">
<g>
	<path fill="#FFFFFF" d="M12.978,3.754c-0.512,0-1.014,0.081-1.498,0.24c-1.076-1.213-2.591-1.9-4.224-1.9c-3.124,0-5.666,2.541-5.666,5.665   s2.542,5.666,5.666,5.666h0.972v-1.273H7.256c-2.422,0-4.392-1.971-4.392-4.393s1.97-4.392,4.392-4.392   c1.391,0,2.671,0.645,3.513,1.768l0.304,0.406l0.463-0.206c0.461-0.204,0.945-0.308,1.441-0.308c1.963,0,3.562,1.598,3.562,3.562   s-1.599,3.562-3.562,3.562h-1.249v1.273h1.249c2.665,0,4.835-2.17,4.835-4.836S15.643,3.754,12.978,3.754z"/>
	<polygon fill="#FFFFFF" points="11.568,14.869 10.591,15.801 10.591,9.678 9.318,9.678 9.318,15.738 8.369,14.789 7.469,15.688 9.912,18.14    12.447,15.79  "/>
</g>
</svg>