<svg xmlns="http://www.w3.org/2000/svg" xmlns:xlink="http://www.w3.org/1999/xlink" version="1.1" id="Layer_1" x="0px" y="0px" width="100px" height="100px" viewBox="0 0 100 100" enable-background="new 0 0 100 100" xml:space="preserve">
<g id="Your_Icon">
	<path fill="#FFFFFF" d="M75.647,14.372H24.354c-4.742,0-8.6,3.857-8.6,8.598v37.403c0,4.741,3.857,8.599,8.6,8.599h16.715   L24.525,85.515c-1.292,1.292-1.292,3.387,0,4.678c0.646,0.646,1.491,0.969,2.338,0.969s1.692-0.322,2.338-0.969L50,69.394   l20.797,20.799c0.646,0.646,1.494,0.969,2.34,0.969c0.847,0,1.692-0.322,2.338-0.969c1.293-1.291,1.293-3.386,0-4.678   L58.932,68.972h16.716c4.741,0,8.599-3.855,8.599-8.599V22.97C84.246,18.229,80.389,14.372,75.647,14.372z M77.631,60.373   c0,1.094-0.891,1.983-1.982,1.983H24.354c-1.095,0-1.985-0.891-1.985-1.983V25.689h55.263V60.373L77.631,60.373z"/>
	<path fill="#FFFFFF" d="M44.317,12.627h11.364c1.047,0,1.895-0.848,1.895-1.894c0-1.045-0.848-1.894-1.895-1.894H44.317   c-1.046,0-1.895,0.849-1.895,1.894C42.423,11.779,43.271,12.627,44.317,12.627z"/>
</g>
</svg>