<svg xmlns="http://www.w3.org/2000/svg" xmlns:xlink="http://www.w3.org/1999/xlink" version="1.1" id="Layer_1" x="0px" y="0px" width="100px" height="100px" viewBox="0 0 100 100" enable-background="new 0 0 100 100" xml:space="preserve">
<path fill="#FFFFFF" d="M91.246,44.999h-9.42H46.669c-2.266-9.59-10.891-16.75-21.164-16.75c-11.994,0-21.751,9.757-21.751,21.75  c0,11.993,9.757,21.751,21.751,21.751c10.272,0,18.898-7.161,21.164-16.751h16.125v10.139c0,2.762,2.238,5,5,5s5-2.238,5-5V54.999  h4.031v10.139c0,2.762,2.238,5,5,5s5-2.238,5-5V54.999h4.42c2.762,0,5-2.238,5-5C96.246,47.238,94.008,44.999,91.246,44.999z   M25.506,61.75c-6.479,0-11.751-5.271-11.751-11.751c0-6.479,5.271-11.75,11.751-11.75c6.479,0,11.75,5.271,11.75,11.75  C37.256,56.479,31.985,61.75,25.506,61.75z"/>
</svg>