<svg xmlns="http://www.w3.org/2000/svg" xmlns:xlink="http://www.w3.org/1999/xlink" version="1.1" x="0px" y="0px" width="100px" height="100px" viewBox="0 0 100 100" enable-background="new 0 0 100 100" xml:space="preserve">
<g id="guides">
</g>
<g id="Captions">
</g>
<g id="Your_Icon">
	<path display="none" fill="#FFFFFF" d="M40.636,88.138c21.068,5.166,42.333-7.716,47.506-28.778   c5.166-21.063-7.721-42.329-28.784-47.496c-21.062-5.173-42.333,7.709-47.5,28.777C6.691,61.704,19.572,82.97,40.636,88.138z"/>
</g>
<g id="Layer_3">
</g>
<g id="Layer_5">
</g>
<g id="Layer_6">
</g>
<g id="Layer_4">
</g>
<g id="Layer_16">
</g>
<g id="Layer_15">
</g>
<g id="Layer_14">
</g>
<g id="Layer_13">
</g>
<g id="Layer_12">
</g>
<g id="Layer_11">
</g>
<g id="Layer_10">
</g>
<g id="Layer_9">
	<path fill="#FFFFFF" d="M37.138,84.742h-8.33c-5.634,0-10.238-3.36-10.238-11.673V59.317c0-4.964-6.593-5.519-8.57-5.519V44.68   c1.977,0,8.57-0.556,8.57-5.514V25.335c0-8.313,4.37-11.593,10.238-11.593h8.33v9.114h-3.886c-4.839,0-5.167,2.956-5.167,5.115   v12.876c-0.068,7.438-4.594,7.993-7.93,8.318v0.152c3.335,0.246,7.862,0.807,7.93,8.245v12.949c0,2.16,0.328,5.115,5.167,5.115   h3.886V84.742z"/>
	<path fill="#FFFFFF" d="M62.852,13.742h8.569c5.396,0,10,3.365,10,11.672v13.752c0,4.958,6.353,5.514,8.579,5.514v9.119   c-2.227,0-8.579,0.555-8.579,5.519v13.831c0,8.312-4.365,11.594-10.234,11.594h-8.335v-9.115h3.888c4.844,0,5.16-2.955,5.16-5.115   V57.635c0.078-7.436,4.6-7.992,7.939-8.317v-0.152c-3.34-0.246-7.861-0.806-7.939-8.243V27.972c0-2.159-0.316-5.115-5.16-5.115   h-3.888V13.742z"/>
</g>
</svg>