<svg xmlns="http://www.w3.org/2000/svg" xmlns:xlink="http://www.w3.org/1999/xlink" version="1.1" id="Your_Icon" x="0px" y="0px" width="100px" height="100px" viewBox="0 0 100 100" enable-background="new 0 0 100 100" xml:space="preserve">
<g>
	<path fill="#FFFFFF" d="M83.827,45.868H16.173c-2.282,0-4.132,1.85-4.132,4.132s1.85,4.132,4.132,4.132h67.655c2.282,0,4.132-1.85,4.132-4.132   S86.11,45.868,83.827,45.868z"/>
	<path fill="#FFFFFF" d="M83.827,71.239H16.173c-2.282,0-4.132,1.85-4.132,4.132s1.85,4.132,4.132,4.132h67.655c2.282,0,4.132-1.85,4.132-4.132   S86.11,71.239,83.827,71.239z"/>
	<path fill="#FFFFFF" d="M16.173,28.761h67.655c2.282,0,4.132-1.85,4.132-4.132s-1.85-4.132-4.132-4.132H16.173c-2.282,0-4.132,1.85-4.132,4.132   S13.89,28.761,16.173,28.761z"/>
</g>
</svg>