<?xml version="1.0"?>
<svg width="100" height="100" xmlns="http://www.w3.org/2000/svg">
 <g>
  <title>Layer 1</title>
  <path d="m88.894997,11.105c-14.806999,-14.806999 -38.811996,-14.806999 -53.618996,0c-14.807001,14.806 -14.807001,38.812 0,53.618999c14.806999,14.806999 38.811996,14.806999 53.618996,0s14.807014,-38.811996 0,-53.618999zm-4.232986,49.387001c-12.469002,12.467999 -32.684002,12.467999 -45.153,0c-12.468,-12.469002 -12.468,-32.685001 0,-45.153c12.468998,-12.468003 32.684998,-12.469 45.153,0s12.467987,32.682999 0,45.153z" fill="#FFFFFF"/>
  <rect fill="#FFFFFF" x="12.357" y="61.701" transform="matrix(0.7071,0.7071,-0.7071,0.7071,63.1103,10.9445) " width="11.973" height="39.91"/>
 </g>
</svg>