<svg xmlns="http://www.w3.org/2000/svg" xmlns:xlink="http://www.w3.org/1999/xlink" version="1.1" x="0px" y="0px" width="100px" height="100px" viewBox="0 0 100 100" enable-background="new 0 0 100 100" xml:space="preserve">
<g id="Your_Icon">
	<path fill="#757c78" d="M38.367,26.028L38.672,25h0.784c0.761,0,1.433-0.899,1.666-1.625l0.549-1.938l1.739-0.474   c0.648-0.138,1.164-0.686,1.328-1.329c0.165-0.645-0.051-1.352-0.555-1.783l-2.165-2.143C41.699,15.437,41.298,15,40.879,15h-2.847   C37.066,15,36,16.332,36,17.297v1.863l-2.164,3.102c-0.207,0.279-0.255,0.614-0.273,0.96l-2.068,0.321   c-0.903,0.135-1.531,0.939-1.459,1.849C30.103,26.304,30.88,27,31.794,27h4.861C37.482,27,38.197,26.837,38.367,26.028z"/>
	<path fill="#757c78" d="M78.319,54.423l-1.364-0.662c-0.435-0.21-0.934-0.232-1.383-0.062c-0.451,0.17-0.812,0.521-0.995,0.963l-1.363,3.284   c-0.342,0.815-0.019,1.755,0.747,2.191l1.651,0.937c0.27,0.151,0.564,0.227,0.864,0.227c0.303,0,0.496-0.079,0.767-0.236   C77.779,60.751,78,60.176,78,59.554v-1.229l0.955-1.449c0.245-0.42,0.356-0.924,0.215-1.388   C79.03,55.021,78.758,54.638,78.319,54.423z"/>
	<path fill="#757c78" d="M49.742,1.241c-26.981,0-48.929,21.949-48.929,48.93s21.948,48.93,48.929,48.93c26.98,0,48.93-21.949,48.93-48.93   S76.723,1.241,49.742,1.241z M57.121,87.897c0.035-0.042,0.084-0.069,0.115-0.115l5.135-5.898c0.495-0.685,0.428-1.624-0.155-2.232   c0,0-1.546-0.825-2.257-1.563c-0.349-0.362-0.752-0.886-0.368-1.813c0.571-1.392,6.634-5.866,6.634-5.866   c0.32-0.38,0.46-0.876,0.392-1.366c-0.067-0.488-0.34-0.928-0.75-1.205c0,0-5.51-3.543-6.63-4.488s-1.99-5.474-1.99-5.474   c-0.205-0.561-0.681-0.979-1.265-1.109l-3.932-0.874c-0.554-0.124-1.133,0.033-1.554,0.413c-0.211,0.191-0.109,0.688-1.856,0.688   c-1.746,0-3.474-1.402-3.474-1.402c-0.289-0.082-0.595-0.089-0.89-0.019l-1.877,0.446l-4.83-1.207   c-0.477-0.119-0.982-0.031-1.393,0.241l-6.639,4.587C29.049,59.963,29,60.508,29,61.093V67.1c0,0.817,0.325,1.525,1.122,1.705   c0,0,9.95,2.664,11.331,3.646c1.385,0.983,8.349,9.023,8.349,9.884s-1.994,1.76-1.994,1.76c-0.495,0.323-0.808,0.875-0.806,1.466   c0,0.592,0.291,1.144,0.79,1.464l2.435,1.578c-0.16,0.003-0.321,0.013-0.482,0.013c-21.199,0-38.447-17.246-38.447-38.444   c0-8.726,2.927-16.776,7.843-23.235l2.127,1.672c0.31,0.244,0.691,0.375,1.08,0.375c0.141,0,0.282-0.018,0.42-0.052   c0.523-0.131,0.957-0.496,1.176-0.989l1.584-3.571c0.24-0.541,0.191-1.124-0.132-1.618C25.072,22.257,24.521,22,23.93,22h-0.224   c1.793-1,3.744-3.179,5.826-4.472c-0.537,0.599-0.623,1.466-0.148,2.138c0.338,0.479,0.876,0.729,1.428,0.729   c0.29,0,0.583-0.077,0.852-0.225l2.402-1.344c0.815-0.456,1.131-1.474,0.713-2.311l-0.717-1.431   c4.793-2.15,10.099-3.358,15.682-3.358c4.27,0,8.372,0.71,12.212,2.001l-1.333,2.223l-1.66,1.968   c-0.34,0.404-0.478,0.945-0.376,1.464c0.104,0.521,0.07,0.966,0.538,1.211L60,21.24v1.197c0,0.55,0.628,1.068,1.069,1.398   l0.962,0.458L61.89,26h-2.355c-0.759,0-1.408,0-1.646,1h-0.318c-0.841,0-1.562,0.807-1.718,1.634l-0.195,1.142l-0.451,0.094   l-2.757-1.44c-0.628-0.334-1.397-0.244-1.941,0.214c-0.546,0.458-0.76,1.206-0.543,1.882l0.833,2.594   c0.15,0.462,0.484,0.842,0.924,1.048l1.766,0.827l-0.232,1.065c0,0-1.764,0.192-2.459,1.237c-0.695,1.045,0.387,2.672-0.734,2.858   s-4.978-2.945-4.978-2.945c-0.579-0.223-1.229-0.122-1.714,0.263c-0.484,0.385-0.504,2.119-0.42,2.731c0,0,0.101-2.11,0.015,0.105   c-0.084,2.216-7.552,5.465-7.552,5.465l-1.078,1.092c-0.353,0.355-0.535,0.844-0.502,1.342c0.032,0.498,0.276,0.958,0.669,1.266   l0.982,0.763c0.32,0.249,0.698,0.369,1.074,0.369c0.516,0,1.023-0.227,1.369-0.662l1.473-1.857c0.135-0.168,0.22-0.361,0.283-0.56   c0.176-0.023,0.349-0.067,0.516-0.146l2.748-1.292l1.666,0.757c0.845,0.384,1.842,0.042,2.272-0.779c0,0,0.95-0.925,1.713-0.97   c0.698,0,0.766,0.828,1.006,1.771c0.24,0.945,0.653,2.005,0.694,2.472c0.388,0.452,0.976,0.679,1.566,0.595   c0.591-0.08,1.098-0.454,1.348-0.995l2.149-4.618c0,0,0.751-2.625,1.847-2.517c1.096,0.107,3.242,2.245,3.242,2.245   s0.761,0.731,0.359,1.706c-0.399,0.974-3.177,1.396-3.177,1.396c-0.759,0.331-1.179,1.148-1.008,1.957   c0.17,0.81,0.933,1.073,1.71,1.389c0.776,0.316,1.018,0.383,2.11,0.929c1.09,0.546-1.062,1.446-1.18,2.782   c-0.12,1.334,2.605,5.04,3.341,5.644c1.232,1.013,4.995,2.585,4.995,2.585c0.247,0.123,0.514,0.185,0.78,0.185   c0.437,0,0.867-0.163,1.2-0.476l1.855-1.747c0.384-0.361,0.585-0.877,0.544-1.402c-0.038-0.526-0.313-1.005-0.745-1.307   l-3.871-2.685l3.285-3.48l1.62,0.353c0.645,0.143,1.311-0.093,1.728-0.604l1.828-2.246l2.153,0.154   c0.402,0.032,0.797-0.081,1.125-0.311l0.091-0.063l2.272,1.591c0.54,0.377,1.247,0.422,1.827,0.111s0.937-0.919,0.925-1.576   l-0.102-5.14l2.406-4.807c1.078,3.541,1.664,7.293,1.664,11.182C88.188,68.846,74.799,84.445,57.121,87.897z"/>
</g>
</svg>