<?xml version="1.0" encoding="utf-8"?>
<!-- Generator: Adobe Illustrator 16.0.0, SVG Export Plug-In . SVG Version: 6.00 Build 0)  -->
<!DOCTYPE svg PUBLIC "-//W3C//DTD SVG 1.1//EN" "http://www.w3.org/Graphics/SVG/1.1/DTD/svg11.dtd">
<svg version="1.1" id="Layer_1" xmlns="http://www.w3.org/2000/svg" xmlns:xlink="http://www.w3.org/1999/xlink" x="0px" y="0px"
	 width="105.167px" height="41.63px" viewBox="0 0 105.167 41.63" enable-background="new 0 0 105.167 41.63" xml:space="preserve">
<g>
	<g>
		<path fill="#696A6D" d="M13.24,27.496c-2.624,1.67-6.56,2.684-6.56,7.036c0,2.445,1.312,3.64,2.743,3.64
			c1.67-0.121,3.816-1.79,3.816-2.864V27.496z M13.599,37.814c-1.312,1.43-2.864,2.443-5.189,3.219
			C7.038,41.45,5.785,41.45,4.592,41.45c-2.207,0-4.114-1.788-4.114-5.127c0-2.746,1.192-5.427,5.485-7.335
			c3.699-1.789,5.966-2.744,7.277-3.698v-3.102c-0.119-1.193-0.237-2.625-0.954-3.341c-0.596-0.656-1.67-0.894-2.982-0.894
			c-1.072,0-2.505,0.358-3.459,1.073c-0.834,0.597-0.238,1.491-0.238,2.923c0,2.148-1.074,3.459-3.578,3.459
			C0.953,25.408,0,24.692,0,23.38c0-1.67,0.953-3.578,2.744-4.89c2.504-1.909,5.726-3.34,9.661-3.34c3.342,0,4.413,0.715,5.488,1.67
			c1.312,1.192,1.431,2.863,1.431,4.473l0.12,9.423v2.862c0,3.223,0.476,4.175,1.549,4.175c0.837,0,1.672-0.475,1.911-0.952
			c0.236-0.359,0.355-0.359,0.595-0.24l0.717,0.479c0.236,0.118,0.357,0.355,0.117,0.952c-0.595,1.075-2.027,3.459-5.486,3.459
			c-2.267,0-4.174-1.071-5.009-3.636H13.599z"/>
		<path fill="#696A6D" d="M34.413,11.094c0-1.789-0.357-3.102-1.432-3.102c-0.596,0-1.431,0.12-2.504,0.477l-3.579,1.074
			c-0.237,0.12-0.477,0.12-0.596-0.119L25.825,8.23c-0.12-0.238,0-0.477,0.359-0.715L39.9,0.358C40.258,0.179,40.615,0,40.975,0
			c0.356,0,0.477,0.239,0.477,0.955c0,0.478-0.238,9.781-0.238,17.475v2.505c0,2.028,0.118,13.36,0.118,14.135
			c0,3.102,0.24,3.459,3.579,3.459h2.148c0.477,0,0.594,0.178,0.594,0.417v1.491c0,0.357-0.117,0.477-0.594,0.477
			c-0.479,0-8.59-0.18-9.542-0.18c-1.194,0-9.545,0.18-9.903,0.18c-0.296,0-0.476-0.119-0.476-0.418v-1.55
			c0-0.358,0.239-0.417,0.655-0.417h2.325c3.581,0,4.058-0.119,4.176-3.28c0.119-1.671,0.119-10.735,0.119-12.405V11.094z"/>
		<path fill="#696A6D" d="M58.389,21.77c-1.072,1.312-1.192,3.817-1.192,7.217c0,3.219,0.597,10.496,6.082,10.496
			c1.671,0,5.609-0.716,5.609-9.601c0-5.488-2.149-10.021-6.084-10.021C60.417,19.861,59.105,20.697,58.389,21.77 M75.805,27.315
			c0,5.487-1.67,8.469-3.816,10.499c-2.506,2.502-5.012,3.816-9.185,3.816c-4.175,0-6.918-1.314-8.827-3.698
			c-3.222-3.817-3.816-8.231-3.816-11.333c0-7.752,3.34-14.671,8.469-19.562c3.578-3.34,7.156-5.248,10.378-6.44
			C70.318,0.239,71.152,0,71.512,0c0.356,0,0.834,0.358,0.834,0.716c0,0.477-0.239,0.954-0.955,1.193
			c-4.77,1.909-11.808,8.707-13.418,16.998l0.178,0.239c1.553-1.432,4.176-2.505,7.158-2.505
			C72.822,16.641,75.805,22.844,75.805,27.315"/>
		<path fill="#696A6D" d="M80.638,40.734c-0.599,0-0.837-0.355-0.241-1.311L94.83,17.774h-5.247c-3.46,0-4.535,0.477-9.307,6.56
			c-0.178,0.239-0.415,0.299-0.595,0.179l-0.834-0.477c-0.239-0.179-0.239-0.299-0.12-0.655l3.578-8.47
			c1.073,0.239,2.147,0.478,3.221,0.596c2.146,0.238,3.222,0.359,8.112,0.359h8.707c0.596,0,0.953,0.477,0.596,0.954l-14.91,21.887
			h6.799c1.552,0,4.412-1.072,8.708-6.38c0.237-0.299,0.417-0.299,0.656-0.18l0.776,0.597c0.237,0.177,0.237,0.356,0.117,0.596
			l-4.293,8.11c-1.072-0.356-3.459-0.478-6.203-0.596c-2.744-0.12-5.486-0.12-6.321-0.12H80.638z"/>
	</g>
</g>
</svg>
