<?xml version="1.0" encoding="UTF-8" standalone="no"?>
<!-- Created with Inkscape (http://www.inkscape.org/) -->

<svg
   xmlns:dc="http://purl.org/dc/elements/1.1/"
   xmlns:cc="http://creativecommons.org/ns#"
   xmlns:rdf="http://www.w3.org/1999/02/22-rdf-syntax-ns#"
   xmlns:svg="http://www.w3.org/2000/svg"
   xmlns="http://www.w3.org/2000/svg"
   xmlns:sodipodi="http://sodipodi.sourceforge.net/DTD/sodipodi-0.dtd"
   xmlns:inkscape="http://www.inkscape.org/namespaces/inkscape"
   width="220"
   height="60"
   id="svg2"
   version="1.1"
   inkscape:version="0.48.2 r9819"
   sodipodi:docname="Andreessen_Horowitz_logo_stacked.svg"
   inkscape:export-filename="/home/sysop/Pictures/Logos/Andreessen Horowitz/Andreessen_Horowitz_logo_stacked.png"
   inkscape:export-xdpi="90"
   inkscape:export-ydpi="90">
  <title
     id="title3247">Logo for Andreessen Horowitz</title>
  <defs
     id="defs4" />
  <sodipodi:namedview
     id="base"
     pagecolor="#ffffff"
     bordercolor="#666666"
     borderopacity="1.0"
     inkscape:pageopacity="0.0"
     inkscape:pageshadow="2"
     inkscape:zoom="4.0642462"
     inkscape:cx="110"
     inkscape:cy="30"
     inkscape:document-units="px"
     inkscape:current-layer="layer1"
     showgrid="false"
     units="px"
     inkscape:window-width="1024"
     inkscape:window-height="689"
     inkscape:window-x="0"
     inkscape:window-y="27"
     inkscape:window-maximized="1"
     fit-margin-top="0"
     fit-margin-left="0"
     fit-margin-right="0"
     fit-margin-bottom="0" />
  <metadata
     id="metadata7">
    <rdf:RDF>
      <cc:Work
         rdf:about="">
        <dc:format>image/svg+xml</dc:format>
        <dc:type
           rdf:resource="http://purl.org/dc/dcmitype/StillImage" />
        <dc:title>Logo for Andreessen Horowitz</dc:title>
        <dc:date>2012-12-07</dc:date>
        <dc:publisher>
          <cc:Agent>
            <dc:title>Andreessen Horowitz</dc:title>
          </cc:Agent>
        </dc:publisher>
        <dc:source>http://www.a16z.com</dc:source>
        <dc:description>Traced from images found at http://www.a16z.com using Inkscape 0.48</dc:description>
        <cc:license
           rdf:resource="" />
      </cc:Work>
    </rdf:RDF>
  </metadata>
  <g
     inkscape:label="Layer 1"
     inkscape:groupmode="layer"
     id="layer1"
     transform="translate(-306.96231,-477.7621)">
    <g
       id="g3086"
       transform="matrix(1.9882568,0,0,1.9882568,-410.07615,-503.38692)">
      <g
         transform="matrix(0.13044449,0,0,0.13044449,408.94332,434.68053)"
         id="g3184">
        <path
           style="fill:#000000"
           d="m -144.53125,394.03125 c -9.60726,-0.0337 -14.81943,0.16414 -13.09375,0.53125 7.90692,1.68207 7.70512,0.30984 7.375,45.09375 -0.31516,42.75462 -0.28664,42.46453 -5.625,43.28125 -1.47225,0.22524 0.2375,0.53273 3.8125,0.6875 3.575,0.15476 11.675,0.61745 18,1 18.53901,1.12128 21.15646,1.07227 28.28125,-0.4375 25.333274,-5.36823 41.14305,-30.56476 35.59375,-56.71875 -2.37421,-11.18973 -11.11837,-23.08015 -20.40625,-27.71875 -9.18246,-4.58594 -13.45992,-5.14546 -42.96875,-5.59375 -4.0899,-0.0621 -7.76633,-0.11377 -10.96875,-0.125 z m 16.03125,2.75 c 13.30045,-0.33551 28.48025,5.03394 36.71875,13.40625 12.77703,12.98459 16.25625,34.91637 8.21875,51.90625 -3.26725,6.90641 -10.767936,13.75622 -18.28125,16.6875 -10.57744,4.12674 -32.01196,3.48536 -36.59375,-1.09375 -0.7948,-0.79434 -1.125,-12.61947 -1.125,-40.3125 l 0,-39.1875 5.5,-0.90625 c 1.79721,-0.28855 3.66244,-0.45207 5.5625,-0.5 z"
           transform="translate(0,62.362)"
           id="path3176"
           inkscape:connector-curvature="0" />
        <path
           style="fill:#000000"
           d="m 185.88524,547.06998 c -6.70072,-2.03327 -6.9416,-2.4333 -6.9416,-11.52794 0,-4.62319 0.45,-8.68391 1,-9.02383 0.5996,-0.37058 1.0015,0.90708 1.00374,3.19098 0.008,8.53835 7.27003,14.30902 18.00608,14.30902 7.0748,0 10.86071,-1.65264 14.39205,-6.28246 3.13504,-4.11025 4.13228,-10.02013 2.63137,-15.59409 -1.2427,-4.61503 -4.71485,-8.45406 -20.21293,-22.34869 -10.2522,-9.19149 -13.82031,-15.25953 -13.82031,-23.50322 0,-13.40599 8.51123,-21.60424 22.5,-21.67261 11.02504,-0.0539 18.76856,1.25883 18.07575,3.06428 -0.31666,0.8252 -0.62095,4.50106 -0.6762,8.16858 -0.0958,6.35666 -0.14369,6.48366 -1.0259,2.71833 -1.6665,-7.11269 -6.83843,-10.55012 -15.87365,-10.55012 -10.22933,0 -15.98893,5.07666 -15.99626,14.09952 -0.005,6.08501 3.31653,10.92063 12.99626,18.92082 16.22815,13.41238 20.22452,18.26526 22.04961,26.77537 2.48781,11.60026 -2.7241,22.24288 -13.35594,27.2726 -5.32292,2.51818 -7.31836,2.91814 -14.19367,2.84495 -4.4,-0.0468 -9.15128,-0.43451 -10.5584,-0.86149 z"
           id="path3172"
           inkscape:connector-curvature="0" />
        <path
           style="fill:#000000"
           d="m 251.706,546.47816 c -5.65944,-1.8077 -6.06535,-2.92754 -4.87883,-13.45995 0.4647,-4.125 0.90601,-6.17958 0.98069,-4.56572 0.25974,5.61306 3.8895,11.26808 8.73962,13.61599 6.28676,3.04337 16.65028,2.51668 21.10537,-1.07262 4.09608,-3.30004 6.29079,-8.04841 6.29079,-13.61045 0,-6.76548 -2.40268,-10.71162 -11.37627,-18.68426 -18.39171,-16.34023 -21.82015,-20.83226 -23.03644,-30.18294 -0.76773,-5.90221 0.38706,-10.41249 4.00127,-15.62779 5.12499,-7.39537 14.54541,-9.7029 30.66144,-7.51051 l 5.75,0.78221 -0.0677,7.67805 c -0.0548,6.21527 -0.26119,7.20176 -1.08347,5.17804 -3.74346,-9.21295 -7.07874,-11.26361 -17.55093,-10.791 -6.37888,0.28788 -7.5523,0.66055 -10.26594,3.26039 -5.89383,5.64663 -6.04511,14.79624 -0.35643,21.55685 1.44262,1.71445 6.99918,6.66118 12.34792,10.99275 14.58759,11.81345 18.97655,18.4607 18.97655,28.74072 0,9.64122 -4.26149,16.96507 -12.77417,21.95383 -3.96058,2.32105 -5.93021,2.75104 -13.67638,2.98562 -6.0194,0.18229 -10.63576,-0.23263 -13.78709,-1.23921 z"
           id="path3170"
           inkscape:connector-curvature="0" />
        <path
           style="fill:#000000"
           d="m -204.29163,528.79815 c -9.75439,-10.05397 -25.27939,-26.68224 -34.5,-36.95172 -9.2206,-10.26948 -17.13396,-18.70698 -17.58524,-18.75 -1.02781,-0.098 0.17939,55.30447 1.38024,63.34394 0.48653,3.25719 1.33818,6.37575 1.89256,6.93013 0.55439,0.55439 2.92941,1.32059 5.27784,1.70268 2.6352,0.42874 -1.08988,0.69222 -9.73013,0.68822 -7.7,-0.004 -12.425,-0.28473 -10.5,-0.62483 5.72044,-1.01065 5.87997,-2.33491 5.94356,-49.33698 0.0446,-32.95259 0.31909,-41.61523 1.30644,-41.22661 0.6875,0.27061 16.96439,17.57959 36.17087,38.46442 19.20647,20.88483 35.06923,37.82405 35.25056,37.64271 0.18134,-0.18133 -0.0427,-15.948 -0.49781,-35.03703 -0.92379,-38.74552 -0.55749,-37.03004 -8.2281,-38.53407 -3.40017,-0.6667 -1.15345,-0.87336 9.55448,-0.87887 8.99476,-0.005 12.80495,0.27533 10.65735,0.78308 -1.83846,0.43466 -3.86346,1.31073 -4.5,1.94683 -0.83207,0.8315 -1.2362,13.36856 -1.4379,44.60735 -0.21526,33.33985 -0.56431,43.45778 -1.5,43.48075 -0.6707,0.0165 -9.20032,-8.19604 -18.95472,-18.25 z"
           id="path3158"
           inkscape:connector-curvature="0" />
        <path
           style="fill:#000000"
           d="m 48.943644,546.01821 c -6.325,-0.33059 -10.27833,-0.69083 -8.78518,-0.80053 5.17026,-0.37988 5.28518,-1.34828 5.28518,-44.5369 l 0,-39.83743 -2.36078,-1.91257 c -1.29844,-1.05191 -3.77344,-2.00961 -5.5,-2.1282 -2.12909,-0.14625 41.9975,-1.34922 47.0297,-1.28212 0.0929,10e-4 -0.15242,3.37624 -0.54516,7.5 -0.60346,6.33624 -0.83205,7.01034 -1.4756,4.35144 -1.41595,-5.85017 -3.56886,-6.80516 -16.2488,-7.20768 l -11.39936,-0.36186 0,18.10792 0,18.10793 12.3,0 c 8.13709,0 12.7005,-0.4005 13.48333,-1.18333 1.94947,-1.94947 2.19388,-0.59887 1.40011,7.73675 -0.6824,7.16611 -0.83101,7.57947 -1.51311,4.20873 -0.41602,-2.05581 -1.5732,-4.17498 -2.57152,-4.70927 -0.99831,-0.53428 -6.63991,-1.28335 -12.53689,-1.6646 l -10.72177,-0.69318 0.32993,19.00132 c 0.2466,14.20275 0.67501,19.41648 1.69641,20.64527 2.20938,2.658 8.46678,3.80213 16.70934,3.05521 8.64473,-0.78337 10.82512,-2.10723 13.00613,-7.8969 l 1.50683,-4 -0.53388,6.2961 c -0.88147,10.39525 -0.64558,10.23623 -14.84009,10.00443 -6.71815,-0.1097 -17.38982,-0.46994 -23.71482,-0.80053 z"
           id="path3156"
           inkscape:connector-curvature="0" />
        <path
           style="fill:#000000"
           d="m 118.94364,546.01821 c -6.325,-0.33059 -10.27833,-0.69083 -8.78518,-0.80053 5.17026,-0.37988 5.28518,-1.34828 5.28518,-44.5369 l 0,-39.83743 -2.36078,-1.91257 c -1.29844,-1.05191 -3.77344,-2.00961 -5.5,-2.1282 -2.12909,-0.14625 41.9975,-1.34922 47.0297,-1.28212 0.0929,10e-4 -0.15242,3.37624 -0.54516,7.5 -0.60346,6.33624 -0.83205,7.01034 -1.4756,4.35144 -1.44026,-5.95058 -3.54883,-6.85369 -16.00193,-6.85369 l -11.14623,0 -0.27307,17.75 -0.27308,17.75 11.58882,0 c 6.39257,0 12.49451,-0.48471 13.60872,-1.08102 1.11095,-0.59456 2.20692,-0.89401 2.43549,-0.66544 0.22857,0.22858 0.10469,3.97753 -0.2753,8.33102 -0.65213,7.47148 -0.74218,7.70395 -1.60544,4.14485 -0.503,-2.07382 -1.70383,-4.19299 -2.6685,-4.70927 -0.96467,-0.51627 -6.54278,-1.24829 -12.39579,-1.62669 l -10.64185,-0.68802 0.0564,16.89729 c 0.0685,20.49566 0.79617,23.3506 6.42144,25.19249 5.15568,1.68813 18.7814,0.62962 21.61424,-1.67909 1.0907,-0.88887 2.66112,-3.41612 3.48988,-5.61612 l 1.50683,-4 -0.53388,6.2961 c -0.88147,10.39525 -0.64558,10.23623 -14.84009,10.00443 -6.71815,-0.1097 -17.38982,-0.46994 -23.71482,-0.80053 z"
           id="path3154"
           inkscape:connector-curvature="0" />
        <path
           style="fill:#000000"
           d="m 323.94364,546.01821 c -6.325,-0.33059 -10.3176,-0.69083 -8.87244,-0.80053 5.36135,-0.407 5.34896,-0.31224 5.66552,-43.35423 l 0.29308,-39.84999 -2.49763,-2.49762 c -1.48233,-1.48234 -3.83723,-2.58853 -5.79308,-2.72125 -1.8125,-0.123 7.95455,-0.4605 21.70455,-0.75 13.75,-0.28951 25.12175,-0.47963 25.27056,-0.42249 0.14881,0.0571 -0.0317,3.35604 -0.40111,7.33088 l -0.67168,7.22698 -1.28263,-3.73091 c -0.70544,-2.052 -1.87494,-4.10026 -2.59888,-4.55169 -2.16636,-1.35089 -8.85013,-2.02317 -16.81626,-1.69146 l -7.5,0.31231 -0.27307,17.75 -0.27308,17.75 11.58882,0 c 6.39257,0 12.49451,-0.48471 13.60872,-1.08102 1.11095,-0.59456 2.24789,-0.85303 2.52655,-0.57438 0.27865,0.27866 0.13612,4.02761 -0.31673,8.33102 -0.50659,4.81401 -0.95177,6.5665 -1.1571,4.55497 -0.49575,-4.85671 -3.16323,-6.03553 -15.45593,-6.83027 l -10.74818,-0.69489 0.0564,16.89729 c 0.0345,10.3211 0.52096,18.25801 1.25,20.39364 1.64806,4.82775 6.40579,6.34065 17.02645,5.4142 9.03917,-0.7885 12.2589,-2.7648 13.72803,-8.42637 0.70581,-2.71998 0.80417,-1.97841 0.44847,3.38097 -0.25061,3.77583 -0.97284,7.48833 -1.60496,8.25 -1.22855,1.48035 -13.49674,1.60828 -36.90439,0.38484 z"
           id="path3152"
           inkscape:connector-curvature="0" />
        <path
           style="fill:#000000"
           d="m 448.95891,530.11083 c -9.45851,-9.57407 -25.30197,-26.33657 -35.20767,-37.25 -9.90571,-10.91344 -18.25136,-19.84262 -18.5459,-19.84262 -0.8333,0 0.78751,61.01609 1.73649,65.37086 1.05602,4.84597 1.96071,5.74558 6.70096,6.66329 2.37111,0.45905 -1.27735,0.71891 -9.69915,0.69081 -7.425,-0.0248 -12.0381,-0.22648 -10.25133,-0.44826 2.0048,-0.24883 3.72779,-1.24049 4.5,-2.58996 0.93506,-1.63405 1.32933,-13.14819 1.55992,-45.55601 l 0.30859,-43.36927 2.56588,2.36927 c 1.41123,1.3031 17.40907,18.45677 35.55074,38.11927 18.14168,19.6625 33.27371,35.75 33.62675,35.75 1.63682,0 -0.50349,-68.13264 -2.21347,-70.46144 -0.6309,-0.8592 -3.17208,-1.95756 -5.64708,-2.44081 -3.51775,-0.68684 -1.55326,-0.88377 9,-0.90223 9.47106,-0.0166 12.60503,0.24322 10.50116,0.8705 -5.57445,1.66204 -5.49303,1.00973 -5.60084,44.87511 -0.0548,22.30738 -0.45699,41.68387 -0.89371,43.05887 -0.75219,2.36825 -1.7003,1.58267 -17.99134,-14.90738 z"
           id="path3150"
           inkscape:connector-curvature="0" />
        <path
           style="fill:#000000"
           d="m -324.53125,392.03125 c -1.2404,0.10871 -3.57694,6.30709 -16.15625,40.9375 -7.43106,20.45748 -14.33384,38.9875 -15.3125,41.1875 -2.2905,5.14893 -5.14,7.62455 -9.8125,8.53125 -2.3105,0.44835 1.61662,0.742 10.25,0.75 9.0987,0.008 12.8212,-0.26277 10.625,-0.78125 -4.00928,-0.94651 -5.24238,-2.59018 -4.5,-6 1.30653,-6.00109 8.78073,-27.58203 9.78125,-28.25 1.47523,-0.98484 24.78497,-0.92771 26.34375,0.0625 0.67604,0.42946 3.87465,7.71913 7.125,16.21875 4.32913,11.32064 5.67693,15.9368 5,17.21875 -0.85768,1.62425 -0.0586,1.74945 11.34375,1.65625 9.89834,-0.0809 11.50867,-0.28275 8.3125,-1.03125 -8.06357,-1.88836 -8.79294,-3.27578 -27.6875,-52.6875 -7.7167,-20.18016 -14.39419,-37.0597 -14.84375,-37.53125 -0.15937,-0.16717 -0.29155,-0.29678 -0.46875,-0.28125 z m -2.125,17.9375 c 0.79429,0.26476 12.4907,31.86296 12.5625,33.9375 0.0143,0.4125 -5.51397,0.75 -12.3125,0.75 l -12.375,0 5.59375,-17.5 c 3.08113,-9.62663 6.02339,-17.35679 6.53125,-17.1875 z"
           transform="translate(0,62.362)"
           id="path3146"
           inkscape:connector-curvature="0" />
        <path
           style="fill:#000000"
           d="m -44.53125,393.96875 c -7.296321,0.0442 -10.846845,0.26702 -9.09375,0.625 2.15508,0.44005 4.45062,1.54648 5.125,2.46875 2.86124,3.91298 3.21913,76.62916 0.40625,82.78125 -0.87144,1.90593 -2.14316,2.81589 -4.34375,3.09375 -1.71255,0.21624 3.625,0.40125 11.875,0.40625 8.25,0.005 12.99323,-0.26386 10.53125,-0.59375 -6.47284,-0.86733 -6.9823,-2.44034 -7,-21.34375 l -0.03125,-15.75 8.5,0 8.53125,0 4.71875,6.6875 C -6.5368802,464.70712 4.71,478.33664 8.09375,480.75 c 3.0088,2.14594 4.48698,2.41539 14.34375,2.5625 7.4262,0.11083 9.53799,-0.0475 6.5,-0.53125 -8.97378,-1.42884 -13.55129,-5.43104 -29.90625,-26.09375 L -11.75,443.0625 -8.28125,439.09375 C 6.64442,422.03029 5.8698798,403.5943 -10.0625,396.25 c -4.06185,-1.87238 -6.59337,-2.07939 -26,-2.25 -3.20645,-0.0282 -6.036643,-0.046 -8.46875,-0.0312 z m 16.625,2.6875 c 13.372926,0.0676 21.6600237,10.41402 20.65625,26.875 -0.47654,7.81474 -2.88661,13.32575 -7.125,16.34375 -3.02573,2.15447 -11.48586,3.3029 -16.1875,2.1875 -1.1,-0.26097 -3.0125,-0.70468 -4.25,-0.96875 -2.248,-0.47971 -2.25,-0.50577 -2.25,-21.84375 l 0,-21.34375 3.125,-0.625 c 2.105934,-0.42119 4.120832,-0.63466 6.03125,-0.625 z"
           transform="translate(0,62.362)"
           id="path3142"
           inkscape:connector-curvature="0" />
      </g>
      <g
         transform="matrix(0.13044449,0,0,0.13044449,294.90722,451.76822)"
         id="g3196">
        <path
           style="fill:#000000"
           d="m 699.375,391.9375 c -10.20424,0.0922 -20.26491,2.82797 -27.65625,8.25 -6.2648,4.59559 -13.2974,13.65623 -15.875,20.46875 -10.2034,26.96745 3.1151,56.16609 29,63.59375 7.2108,2.06913 25.24895,1.28636 32.09375,-1.40625 12.2953,-4.83673 23.2928,-16.75238 27.1875,-29.46875 3.0064,-9.81483 2.98655,-24.6799 -0.0312,-33.0625 -2.4848,-6.90216 -7.7655,-14.38017 -13.125,-18.625 -8.29143,-6.56692 -20.02894,-9.85455 -31.59375,-9.75 z m -4.5,3.8125 c 1.43079,-0.0116 3.06417,0.0137 5.0625,0.0937 8.2063,0.32867 10.2489,0.78189 14.875,3.3125 16.3261,8.93083 24.4597,31.11045 19.6875,53.625 -2.7719,13.07774 -8.5441,20.95515 -19.0625,26 -5.0503,2.42223 -7.1871,2.85295 -13.5,2.78125 -4.125,-0.0468 -8.625,-0.42398 -10,-0.84375 -13.6109,-4.15524 -24.09985,-16.68447 -27.53125,-32.875 -4.8831,-23.03934 3.4646,-43.88262 20.125,-50.15625 3.7275,-1.40363 6.05137,-1.90258 10.34375,-1.9375 z"
           transform="translate(0,62.362)"
           id="path3168"
           inkscape:connector-curvature="0" />
        <path
           style="fill:#000000"
           d="m 894.375,391.9375 c -10.20424,0.0922 -20.2649,2.82797 -27.65625,8.25 -6.2648,4.59559 -13.2974,13.65623 -15.875,20.46875 -10.2034,26.96745 3.1151,56.16609 29,63.59375 7.21081,2.06913 25.24895,1.28636 32.09375,-1.40625 12.2953,-4.83673 23.2928,-16.75238 27.1875,-29.46875 3.0064,-9.81483 2.98655,-24.6799 -0.0312,-33.0625 -2.4848,-6.90216 -7.7655,-14.38017 -13.125,-18.625 -8.29143,-6.56692 -20.02894,-9.85455 -31.59375,-9.75 z m -4.5,3.8125 c 1.43079,-0.0116 3.06417,0.0137 5.0625,0.0937 8.2063,0.32867 10.2489,0.78189 14.875,3.3125 16.3261,8.93083 24.4597,31.11045 19.6875,53.625 -2.7719,13.07774 -8.5441,20.95515 -19.0625,26 -5.0503,2.42223 -7.1871,2.85295 -13.5,2.78125 -4.125,-0.0468 -8.625,-0.42398 -10,-0.84375 -13.61091,-4.15524 -24.09985,-16.68447 -27.53125,-32.875 -4.8831,-23.03934 3.4646,-43.88262 20.125,-50.15625 3.72751,-1.40363 6.05137,-1.90258 10.34375,-1.9375 z"
           transform="translate(0,62.362)"
           id="path3164"
           inkscape:connector-curvature="0" />
        <path
           style="fill:#000000"
           d="m 981.42225,546.76821 c -0.2523,-0.6875 -4.7649,-15.65 -10.0282,-33.25 -13.5472,-45.30101 -15.2951,-50.76189 -16.9312,-52.89626 -0.7995,-1.04294 -3.6058,-2.47507 -6.2364,-3.1825 -4.4321,-1.19194 -3.6462,-1.28022 10.7172,-1.20391 8.525,0.0453 14.2954,0.26662 12.8232,0.49186 -4.4736,0.68442 -5.2412,2.48864 -3.9188,9.21054 1.2488,6.34733 16.9792,63.29722 17.6762,63.99421 0.2307,0.23066 0.5791,0.23189 0.7744,0.003 0.1952,-0.22917 6.2644,-16.36337 13.4871,-35.85377 12.44105,-33.57203 14.39025,-38.16394 15.66095,-36.89321 0.295,0.29499 6.187,16.68698 13.0933,36.42663 6.9063,19.73966 12.7475,36.0808 12.9803,36.31365 0.2329,0.23285 0.6207,0.22611 0.8617,-0.015 1.3473,-1.34718 19.5617,-64.54639 19.5617,-67.87363 0,-3.32183 -0.3736,-4.06295 -2.25,-4.46334 -1.2375,-0.26407 -3.15,-0.67044 -4.25,-0.90305 -1.1,-0.23262 4.075,-0.42908 11.5,-0.43658 7.8975,-0.008 12.2188,0.29266 10.4127,0.72442 -1.698,0.40594 -3.6191,1.06672 -4.269,1.46841 -2.5817,1.59559 -6.435,11.68335 -18.5595,48.58881 -6.9567,21.175 -13.0925,39.175 -13.6353,40 -0.8611,1.30874 -1.16,1.27405 -2.3443,-0.2721 -0.7466,-0.97466 -4.5427,-10.87466 -8.4358,-22 -3.8931,-11.12535 -9.4084,-26.89568 -12.2563,-35.04518 -2.8479,-8.1495 -5.5412,-14.4495 -5.9851,-14 -0.444,0.4495 -6.4879,16.08788 -13.43105,34.75194 -6.943,18.66406 -13.0609,34.75156 -13.5952,35.75 -1.1244,2.10086 -2.7601,2.37104 -3.4226,0.56534 z"
           id="path3160"
           inkscape:connector-curvature="0" />
        <path
           style="fill:#000000"
           d="m 1236.4228,545.98436 c -0.3514,-0.56862 3.5263,-7.43112 8.6172,-15.25 26.5079,-40.71208 44.1011,-68.06712 44.5805,-69.31631 0.4416,-1.15065 -1.4845,-1.39208 -10.8198,-1.35625 -6.2464,0.024 -16.0299,0.43053 -21.7412,0.90345 -9.5973,0.79471 -10.6059,1.08149 -13.3087,3.78432 -1.6084,1.60845 -3.5533,4.68939 -4.3219,6.84655 -1.725,4.84158 -1.8096,3.22633 -0.3704,-7.07791 l 1.1173,-8 31.1339,0.33713 c 17.1237,0.18542 31.2626,0.46403 31.4198,0.61913 0.1572,0.1551 -11.8803,19.04166 -26.75,41.97012 -14.8697,22.92846 -27.0358,41.88735 -27.0358,42.13086 0,0.69276 40.3706,0.51864 43.9107,-0.18938 4.1562,-0.83124 8.946,-5.40147 9.7207,-9.27509 0.3403,-1.70102 1.0624,-3.09277 1.6049,-3.09277 0.9831,0 0.7711,2.01182 -1.344,12.75 l -1.0341,5.25 -32.3701,0 c -21.208,0 -32.5904,-0.3565 -33.009,-1.03385 z"
           id="path3148"
           inkscape:connector-curvature="0" />
        <path
           style="fill:#000000"
           d="m 553.41667,545.14474 c 5.38076,-1.15257 5.49615,-2.08797 5.51223,-44.6854 0.0112,-29.70923 -0.28448,-39.45848 -1.23526,-40.72826 -0.6875,-0.91816 -3.05,-2.08396 -5.25,-2.59067 -3.03203,-0.69835 -0.37012,-0.92084 11,-0.91939 9.86101,10e-4 13.81764,0.28027 11.54886,0.81439 -5.68705,1.33886 -6.04886,2.57548 -6.04886,20.67393 l 0,16.30887 26.5,0 26.5,0 0,-16.30887 c 0,-11.4722 -0.37071,-16.81391 -1.25,-18.01181 -0.6875,-0.93662 -3.275,-2.09832 -5.75,-2.58157 -3.42528,-0.66878 -0.9176,-0.88426 10.5,-0.90223 10.3517,-0.0163 14.0707,0.25346 12.0012,0.8705 -1.6494,0.49176 -3.5619,1.66409 -4.25,2.60518 -1.8083,2.47294 -1.7738,78.73247 0.037,82.3288 0.968,1.9223 2.2933,2.6386 5.7353,3.09981 2.462,0.32989 -2.2737,0.59997 -10.5237,0.60016 -8.25,2e-4 -13.79543,-0.18392 -12.32318,-0.40916 5.04311,-0.77155 5.29874,-1.92407 5.6431,-25.44205 l 0.32012,-21.84876 -26.56992,0 -26.56992,0 0,19.85078 c 0,25.5312 0.18449,26.09456 9,27.48308 1.375,0.21658 -4.25,0.40182 -12.5,0.41164 -8.25,0.01 -13.66213,-0.2687 -12.02697,-0.61897 z"
           id="path3138"
           inkscape:connector-curvature="0" />
        <path
           style="fill:#000000"
           d="m 774.46875,393.78125 c -11.3162,0.0684 -17.48785,0.40476 -15.21875,0.84375 7.5186,1.45456 7.1875,-0.60418 7.1875,43.8125 0,42.88758 -0.0982,43.7196 -5.25,44.5 -1.5127,0.22914 3.775,0.4305 11.75,0.4375 7.975,0.007 13.375,-0.15842 12,-0.375 -6.0033,-0.94557 -6.83905,-1.43865 -7.90625,-4.5 -0.6094,-1.74807 -1.09375,-9.78204 -1.09375,-18.03125 l 0,-14.875 8.75,0.28125 8.75,0.28125 5,6.90625 c 12.0343,16.62373 20.5472,26.57779 24.4375,28.5625 3.2554,1.66076 5.76305,2.00255 13.78125,1.90625 8.5594,-0.10284 9.1748,-0.22644 4.9375,-0.9375 -2.6655,-0.44729 -6.5197,-1.89809 -8.5625,-3.25 C 828.82405,476.55958 819.8249,466.63876 808.75,452.625 l -7.53125,-9.53125 4.375,-4.96875 c 12.0751,-13.72261 13.44045,-28.12279 3.59375,-37.71875 -5.7627,-5.61596 -11.80425,-6.7634 -34.71875,-6.625 z m 11.6875,2.9375 c 7.73724,0.23055 13.347,3.81987 17,10.8125 2.3996,4.59335 2.78125,6.52266 2.78125,13.53125 0,9.22192 -2.3363,15.40395 -7.1875,18.9375 -2.4993,1.82042 -11.688,3.25007 -14.3125,2.21875 -0.55,-0.21613 -2.6875,-0.68629 -4.75,-1.03125 l -3.75,-0.625 0,-21.375 0,-21.40625 4.5,-0.6875 c 2.01375,-0.30198 3.93323,-0.4282 5.71875,-0.375 z"
           transform="translate(0,62.362)"
           id="path3136"
           inkscape:connector-curvature="0" />
        <path
           style="fill:#000000"
           d="m 1098.096,545.31138 c 5.0757,-0.77918 5.3487,-3.10428 5.3372,-45.44974 -0.01,-36.15669 -0.1297,-38.78837 -1.8547,-40.69446 -1.0143,-1.12083 -3.2596,-2.21585 -4.9895,-2.43338 -1.7299,-0.21754 3.3797,-0.42147 11.3547,-0.45319 9.1316,-0.0363 13.2624,0.23491 11.1574,0.73261 -1.8385,0.43466 -3.8635,1.31139 -4.5,1.94829 -0.8383,0.83869 -1.1574,12.28322 -1.1574,41.5029 0,37.89898 0.1125,40.46919 1.8561,42.3953 1.021,1.12794 3.4955,2.22405 5.5,2.43636 2.0041,0.21226 -2.8811,0.39416 -10.8561,0.4042 -7.975,0.0101 -13.3065,-0.16495 -11.8477,-0.38889 z"
           id="path3132"
           inkscape:connector-curvature="0" />
        <path
           style="fill:#000000"
           d="m 1167.2156,545.29988 c 1.5758,-0.23804 3.5174,-1.55656 4.5,-3.05593 1.5639,-2.38663 1.7281,-6.39478 1.7281,-42.18147 l 0,-39.54423 -12.6202,0.14537 c -13.835,0.15936 -15.9581,0.79511 -18.9296,5.66845 -1.8703,3.06738 -1.9393,3.09296 -1.8505,0.68618 0.051,-1.375 0.6198,-4.75 1.2646,-7.5 1.0726,-4.57504 1.3832,-4.9575 3.654,-4.5 1.3649,0.275 17.6693,0.5 36.2319,0.5 l 33.7502,0 -0.057,7.5 c -0.054,7.12441 -0.1165,7.32531 -1.2502,4.01173 -1.666,-4.86889 -4.5902,-5.91552 -18.6382,-6.67087 l -12.1613,-0.65391 0.303,40.55279 c 0.2828,37.85921 0.4262,40.68893 2.159,42.60248 1.0208,1.12733 3.4958,2.22337 5.5,2.43564 2.0041,0.21226 -3.1061,0.39416 -11.3561,0.4042 -8.25,0.0101 -13.7527,-0.17014 -12.2281,-0.40042 z"
           id="path3128"
           inkscape:connector-curvature="0" />
      </g>
    </g>
  </g>
</svg>
