<?xml version="1.0" encoding="utf-8"?>
<!-- Generator: Adobe Illustrator 18.0.0, SVG Export Plug-In . SVG Version: 6.00 Build 0)  -->
<!DOCTYPE svg PUBLIC "-//W3C//DTD SVG 1.1//EN" "http://www.w3.org/Graphics/SVG/1.1/DTD/svg11.dtd">
<svg version="1.1" id="svg6522" xmlns:svg="http://www.w3.org/2000/svg"
	 xmlns="http://www.w3.org/2000/svg" xmlns:xlink="http://www.w3.org/1999/xlink" x="0px" y="0px"
	 viewBox="6.656 6.792 1004.94 317.668" enable-background="new 6.656 6.792 1004.94 317.668" xml:space="preserve">
<path id="path5427" fill="#820024" d="M1006.302,151.314c1.878,0.632,3.416,0.939,5.294,1.263
	c-5.909,17.404-12.45,34.808-18.358,52.535c-54.996,0-110.348,0-165.343,0c0-1.878,0-3.432,0-5.311c2.784,0,5.278,0,8.062,0
	c9.033,0,15.542-2.784,19.266-8.062c2.186-3.123,3.432-10.264,3.432-21.143c0-41.655,0-83.31,0-124.95
	c0-12.126-1.554-19.896-4.354-22.697c-4.031-4.339-10.265-6.524-18.343-6.524c-2.784,0-5.277,0-8.062,0c0-1.57,0-3.416,0-5.294
	c32.315,0,64.645,0,96.667,0c0,1.878,0,3.724,0,5.294c-11.186,0-19.281,0.923-23.637,3.108c-4.662,1.862-7.771,4.355-9.633,7.447
	c-1.554,3.124-2.493,10.264-2.493,21.758c0,40.732,0,81.449,0,121.857c0,7.772,0.94,13.373,2.493,16.481
	c1.247,1.862,3.108,3.416,5.909,4.355c2.478,0.922,10.88,1.23,24.543,1.23c5.294,0,10.588,0,15.542,0
	c16.497,0,27.992-0.924,34.5-3.092c6.54-2.186,12.757-6.233,18.035-11.818C995.423,172.15,1001.008,163.44,1006.302,151.314
	 M701.683,21.702c0,25.806,0,51.304,0,76.786c15.541,0,31.391,0,46.933,0c12.126,0,20.204-1.878,24.252-4.986
	c5.602-4.663,8.693-12.126,9.325-23.313c1.861,0,3.724,0,5.909,0c0,22.698,0,45.087,0,67.445c-2.186,0-4.048,0-5.909,0
	c-1.555-9.309-3.125-15.218-4.355-18.003c-1.861-3.432-5.277-5.909-9.325-7.771c-4.354-1.878-10.879-3.125-19.896-3.125
	c-15.542,0-31.392,0-46.933,0c0,21.451,0,42.578,0,64.03c0,8.709,0.307,13.68,1.246,15.541c0.632,1.861,2.478,3.432,4.355,4.355
	c2.169,1.246,6.2,1.861,12.109,1.861c11.818,0,23.944,0,36.07,0c12.109,0,20.819-0.615,26.404-2.493
	c5.294-1.538,10.588-4.339,15.542-8.693c6.54-6.217,13.372-14.911,20.221-26.729c2.169,0,4.047,0,6.217,0
	c-5.926,16.158-12.434,32.331-18.343,48.503c-55.027,0-109.716,0-164.743,0c0-1.878,0-3.432,0-5.311c2.477,0,4.97,0,7.77,0
	c4.971,0,9.633-1.23,14.296-3.416c3.108-1.537,5.602-3.723,6.848-6.814c0.923-2.818,1.862-9.326,1.862-18.667
	c0-41.963,0-83.91,0-125.889c0-12.417-1.555-19.897-4.355-22.681c-3.739-4.047-9.956-5.909-18.65-5.909c-2.801,0-5.294,0-7.77,0
	c0-1.57,0-3.416,0-5.294c55.027,0,109.716,0,164.743,0c0.631,14.295,1.554,28.299,2.169,42.578c-1.861,0-4.031,0-5.892,0
	c-2.186-10.248-4.679-17.096-7.463-21.111c-2.493-3.756-6.849-6.54-11.818-8.71c-4.356-1.263-11.803-2.185-22.391-2.185
	C740.537,21.702,721.255,21.702,701.683,21.702 M623.974,6.792c1.554,22.05,3.432,43.825,4.97,65.891c-1.538,0-3.416,0-4.97,0
	c-6.217-19.573-15.866-33.577-27.976-42.578c-11.802-8.709-26.421-13.048-43.21-13.048c-14.295,0-27.036,3.416-38.53,9.617
	c-11.511,6.848-20.512,17.112-27.053,31.391c-6.524,14.311-9.94,32.022-9.94,53.473c0,17.404,3.416,32.638,9.31,45.396
	c6.232,13.048,15.865,22.681,28.282,29.821c12.126,6.831,26.438,10.264,42.287,10.264c13.987,0,26.098-2.8,36.684-8.401
	c10.556-5.278,22.374-15.85,35.115-32.007c1.554,1.247,3.108,1.878,4.97,3.108c-10.555,17.404-23.312,29.53-37.592,37.624
	c-14.311,8.371-31.083,12.11-50.979,12.11c-35.455,0-63.123-11.511-82.081-35.746c-14.295-17.711-21.758-38.531-21.758-62.475
	c0-19.265,4.986-37.3,14.312-53.473c9.325-16.157,22.681-28.59,39.485-37.608c16.772-9.017,35.099-13.356,54.995-13.356
	c15.234,0,30.776,3.416,45.395,10.264c4.647,2.153,7.771,3.092,9.633,3.092c2.784,0,5.277-0.615,7.463-2.493
	c2.493-2.801,4.663-6.217,5.586-10.863C620.233,6.792,622.095,6.792,623.974,6.792 M419.761,6.792
	c1.554,22.05,3.108,43.825,4.646,65.891c-1.538,0-3.092,0-4.646,0c-6.524-19.573-15.85-33.577-27.975-42.578
	c-12.126-8.709-26.729-13.048-43.533-13.048c-14.279,0-27.036,3.416-38.531,9.617c-11.186,6.848-20.512,17.112-26.729,31.391
	c-6.54,14.311-9.956,32.022-9.956,53.473c0,17.404,3.125,32.638,9.325,45.396c5.909,13.048,15.542,22.681,27.975,29.821
	c12.45,6.831,26.421,10.264,42.595,10.264c13.68,0,26.098-2.8,36.669-8.401c10.571-5.278,22.39-15.85,34.807-32.007
	c1.878,1.247,3.416,1.878,4.971,3.108c-10.556,17.404-23.313,29.53-37.592,37.624c-14.312,8.371-31.084,12.11-50.673,12.11
	c-35.439,0-63.106-11.511-82.372-35.746c-14.295-17.711-21.758-38.531-21.758-62.475c0-19.265,4.97-37.3,14.295-53.473
	c9.633-16.157,23.005-28.591,39.794-37.608c16.464-9.017,34.807-13.356,54.704-13.356c15.542,0,30.776,3.416,45.687,10.264
	c4.355,2.153,7.464,3.092,9.325,3.092c2.801,0,5.602-0.615,7.479-2.493c2.785-2.801,4.647-6.217,5.894-10.863
	C416.037,6.792,417.882,6.792,419.761,6.792 M151.826,140.127c-27.668,0-55.336,0-82.696,0
	c-4.986,10.264-9.956,20.528-14.603,30.776c-3.724,7.464-5.294,13.065-5.294,16.788c0,2.801,1.57,5.602,4.663,7.771
	c2.801,2.169,9.649,3.74,19.896,4.338c0,1.879,0,3.433,0,5.311c-22.39,0-44.747,0-67.137,0c0-1.878,0-3.432,0-5.311
	c9.017-1.537,14.619-3.416,17.404-5.584c5.277-4.646,11.203-13.973,17.711-27.96C66.346,113.091,92.136,60.249,116.986,6.792
	c1.554,0,3.432,0,5.31,0c24.543,54.089,50.042,107.238,74.277,161.327c5.893,13.049,11.802,21.127,16.481,25.174
	c4.954,3.724,11.802,5.91,20.496,6.508c0,1.879,0,3.433,0,5.311c-28.267,0-56.258,0-84.524,0c0-1.878,0-3.432,0-5.311
	c8.693-0.598,14.586-1.861,17.403-4.014c3.092-2.203,4.355-4.68,4.355-7.771c0-4.355-1.862-10.895-6.217-19.897
	C160.196,158.777,155.841,149.453,151.826,140.127z M147.148,129.572c-11.802-26.113-24.252-52.227-36.054-78.34
	c-12.109,26.113-24.867,52.227-37.3,78.34C98.353,129.572,122.896,129.572,147.148,129.572"/>
<path id="path5443" fill="#820024" d="M900.925,243.334c0,8.694,0,17.712,0,26.73c-0.939,0-1.861,0-2.493,0
	c-0.923-5.278-2.169-9.325-4.354-12.11c-1.862-3.124-4.954-5.617-8.694-7.478c-4.03-1.862-8.078-2.785-12.125-2.785
	c-4.356,0-8.387,1.23-11.495,3.724c-2.784,2.493-4.354,5.278-4.354,8.386c0,2.17,0.938,4.355,2.801,6.525
	c2.784,2.816,9.325,6.539,19.589,11.186c8.693,4.048,14.279,7.172,17.403,9.034c3.108,2.169,5.602,4.646,7.14,7.464
	c1.555,2.801,2.493,5.893,2.493,9.001c0,5.909-2.801,10.895-8.078,15.233c-5.278,4.355-12.126,6.217-20.512,6.217
	c-2.493,0-4.986,0-7.156-0.322c-1.554-0.293-4.339-0.924-8.693-2.17c-4.355-1.246-7.172-1.846-8.095-1.846
	c-1.247,0-2.17,0.291-2.801,0.923c-0.615,0.632-0.923,1.554-1.23,3.416c-0.939,0-1.862,0-2.493,0c0-8.694,0-17.728,0-26.729
	c0.631,0,1.554,0,2.493,0c0.938,5.586,2.493,9.941,4.662,12.742c1.846,2.801,4.971,4.97,8.694,6.848
	c4.047,1.861,8.693,2.801,13.372,2.801c5.585,0,9.94-1.263,13.064-3.756c3.416-2.785,4.971-5.586,4.971-9.002
	c0-1.861-0.632-3.723-1.878-5.908c-1.247-1.862-3.093-3.725-5.586-5.278c-1.861-1.247-6.54-3.724-14.311-7.464
	c-7.772-3.723-13.356-6.523-16.481-9.017c-3.092-2.186-5.893-4.355-7.447-7.14c-1.554-2.816-2.477-5.602-2.477-9.033
	c0-5.278,2.477-10.248,7.447-14.279c4.97-4.047,11.186-5.909,18.958-5.909c4.679,0,9.956,0.923,15.233,2.801
	c2.493,1.247,4.355,1.554,5.294,1.554c1.247,0,2.17-0.307,2.785-0.94c0.938-0.614,1.263-1.861,1.861-3.415c0.632,0,1.555,0,2.493,0
	 M821.354,322.598c-8.079,0-16.174,0-24.252,0c-9.94-12.125-20.512-23.943-30.452-36.054c-2.493,0-4.356,0-5.602,0
	c-0.615,0-1.247,0-1.862,0c-0.631,0-1.23,0-2.169,0c0,7.464,0,14.911,0,22.374c0,4.986,0.615,8.078,1.861,9.324
	c1.862,1.555,4.355,2.478,7.771,2.478c1.23,0,2.169,0,3.416,0c0,0.631,0,1.246,0,1.877c-12.741,0-25.806,0-38.547,0
	c0-0.631,0-1.246,0-1.877c0.923,0,2.186,0,3.124,0c4.016,0,6.509-1.23,8.37-3.4c0.955-1.246,1.247-4.047,1.247-8.402
	c0-16.789,0-33.27,0-50.041c0-4.971-0.615-8.096-1.846-9.326c-1.57-1.57-4.355-2.492-7.771-2.492c-0.939,0-2.201,0-3.124,0
	c0-0.632,0-1.23,0-2.17c10.896,0,21.759,0,32.638,0c9.633,0,16.788,0.615,21.451,1.861c4.354,1.231,8.402,3.433,11.494,6.525
	c3.125,3.416,4.679,7.155,4.679,11.818c0,4.646-1.878,8.693-5.294,12.416c-3.724,3.434-9.325,5.91-16.788,7.48
	c5.909,7.463,12.433,14.603,18.666,22.066c4.015,5.293,7.771,8.709,10.863,10.264c3.124,1.861,7.14,2.801,12.126,3.4
	C821.354,321.352,821.354,321.967,821.354,322.598z M757.018,282.82c0.939,0,1.538,0,2.169,0c0.615,0,1.247,0,1.555,0
	c8.71,0,15.234-1.555,19.589-4.678c4.355-3.416,6.509-7.447,6.509-12.418c0-4.986-1.846-8.71-5.278-11.818
	c-3.416-3.125-8.386-4.662-13.987-4.662c-2.477,0-6.201,0.307-10.556,1.23C757.018,261.369,757.018,271.926,757.018,282.82
	 M657.534,249.244c0,10.264,0,20.496,0,30.76c6.54,0,13.064,0,19.912,0c4.954,0,8.37-0.615,10.248-2.17
	c2.17-1.554,3.74-4.662,3.74-9.018c0.923,0,1.861,0,2.477,0c0,9.018,0,18.02,0,27.053c-0.615,0-1.554,0-2.477,0
	c-0.632-4.047-1.263-6.232-1.862-7.463c-0.631-1.246-2.186-2.17-3.756-3.125c-1.846-0.599-4.647-1.23-8.37-1.23
	c-6.848,0-13.372,0-19.912,0c0,8.71,0,17.096,0,25.807c0,3.416,0,5.585,0.631,6.217c0.323,0.615,0.923,1.246,1.862,1.846
	c0.631,0.322,2.477,0.631,4.97,0.631c4.986,0,10.264,0,15.25,0c5.278,0,8.694-0.308,11.188-0.923
	c2.153-0.632,4.647-1.862,6.508-3.724c2.817-2.186,5.909-5.909,8.71-10.588c0.632,0,1.554,0,2.477,0
	c-2.477,6.541-5.277,13.049-7.771,19.281c-23.312,0-46.302,0-69.614,0c0-0.631,0-1.246,0-1.877c1.246,0,2.169,0,3.108,0
	c2.186,0,4.339-0.6,6.217-1.23c1.246-0.939,2.477-1.57,2.801-2.801c0.615-1.247,0.938-3.74,0.938-7.772c0-16.789,0-33.576,0-50.365
	c0-4.954-0.631-8.078-1.861-9.309c-1.555-1.555-4.355-2.186-8.095-2.186c-0.939,0-1.862,0-3.108,0c0-0.632,0-1.23,0-2.17
	c23.312,0,46.302,0,69.614,0c0.323,5.893,0.632,11.494,0.94,17.08c-0.615,0-1.538,0-2.494,0c-0.922-4.016-1.861-6.816-3.092-8.37
	c-0.923-1.57-2.801-2.817-4.97-3.415c-1.878-0.633-4.986-0.939-9.342-0.939C674.03,249.244,665.628,249.244,657.534,249.244
	 M508.964,244.889c8.095,0,16.157,0,24.559,0c18.034,19.573,36.992,38.855,55.027,58.428c0-14.91,0-29.82,0-44.764
	c0-4.954-0.632-7.771-1.878-9.002c-1.555-1.57-4.031-2.492-7.772-2.492c-0.938,0-1.878,0-3.107,0c0-0.632,0-1.23,0-2.17
	c10.571,0,21.127,0,31.391,0c0,0.939,0,1.538,0,2.17c-0.923,0-1.861,0-3.092,0c-3.756,0-6.541,0.922-8.095,3.124
	c-0.939,1.23-1.555,4.015-1.555,8.37c0,21.775,0,43.533,0,65.583c-0.615,0-1.554,0-2.477,0
	c-19.589-21.127-39.81-41.64-59.366-62.767c0,16.141,0,32.007,0,47.857c0,4.679,0.599,7.77,1.845,9.018
	c1.571,1.554,4.048,2.478,7.771,2.478c0.938,0,2.169,0,3.124,0c0,0.631,0,1.246,0,1.877c-10.588,0-20.835,0-31.407,0
	c0-0.631,0-1.246,0-1.877c0.923,0,2.185,0,3.125,0c3.724,0,6.508-0.924,8.062-3.093c0.938-1.263,1.554-4.048,1.554-8.402
	c0-18.035,0-36.054,0-54.073c-2.477-2.492-4.646-4.371-5.893-5.293c-1.57-0.615-3.433-1.555-5.926-2.17
	c-1.23-0.308-3.416-0.631-5.892-0.631C508.964,246.427,508.964,245.828,508.964,244.889 M489.698,244.889
	c0.291,6.217,0.615,12.126,0.923,18.343c-0.923,0-1.554,0-2.493,0c-0.599-3.124-1.23-5.602-2.153-6.849
	c-1.263-2.186-3.124-3.723-5.294-4.97c-2.477-0.938-5.277-1.554-9.018-1.554c-4.354,0-8.71,0-12.757,0c0,19.881,0,39.777,0,59.366
	c0,4.679,0.631,7.77,1.554,9.018c1.878,1.554,4.355,2.478,8.095,2.478c0.939,0,1.878,0,3.108,0c0,0.631,0,1.246,0,1.877
	c-12.757,0-25.806,0-38.53,0c0-0.631,0-1.246,0-1.877c1.23,0,2.169,0,3.416,0c3.724,0,6.524-0.924,8.078-3.093
	c0.923-1.263,1.555-4.048,1.555-8.402c0-19.589,0-39.485,0-59.366c-3.74,0-7.464,0-10.88,0c-4.354,0-7.479,0.323-9.018,0.922
	c-2.477,0.632-4.354,1.879-5.909,4.048c-1.861,2.186-2.784,4.97-3.108,8.402c-0.939,0-1.554,0-2.493,0
	c0.324-6.217,0.632-12.126,0.939-18.343C440.272,244.889,465.139,244.889,489.698,244.889 M403.587,322.598
	c-8.078,0-16.157,0-24.252,0c-9.924-12.125-20.495-23.943-30.452-36.054c-2.493,0-4.354,0-5.585,0c-0.632,0-1.247,0-1.878,0
	c-0.615,0-1.538,0-2.17,0c0,7.464,0,14.911,0,22.374c0,4.986,0.632,8.078,1.862,9.324c1.554,1.555,4.354,2.478,7.77,2.478
	c0.94,0,2.186,0,3.416,0c0,0.631,0,1.246,0,1.877c-13.049,0-25.789,0-38.854,0c0-0.631,0-1.246,0-1.877c1.247,0,2.493,0,3.416,0
	c4.048,0,6.524-1.23,8.402-3.4c0.939-1.246,1.247-4.047,1.247-8.402c0-16.789,0-33.27,0-50.041c0-4.971-0.632-8.096-1.878-9.326
	c-1.555-1.57-4.339-2.492-7.771-2.492c-0.923,0-2.169,0-3.416,0c0-0.632,0-1.23,0-2.17c11.188,0,22.082,0,32.945,0
	c9.633,0,16.805,0.615,21.451,1.861c4.355,1.231,8.402,3.433,11.494,6.525c3.125,3.416,4.679,7.155,4.679,11.818
	c0,4.646-1.861,8.693-5.277,12.416c-3.756,3.434-9.325,5.91-16.805,7.48c5.909,7.463,12.45,14.603,18.666,22.066
	c4.031,5.293,7.771,8.709,10.863,10.264c3.108,1.861,7.156,2.801,12.126,3.4C403.587,321.352,403.587,321.967,403.587,322.598z
	 M339.251,282.82c0.922,0,1.554,0,2.169,0c0.631,0,1.246,0,1.554,0c8.694,0,15.234-1.554,19.59-4.678
	c4.354-3.416,6.524-7.447,6.524-12.418c0-4.986-1.878-8.71-5.294-11.818c-3.416-3.125-8.37-4.662-13.972-4.662
	c-2.801,0-6.217,0.307-10.571,1.23C339.251,261.369,339.251,271.926,339.251,282.82 M255.325,296.809c-11.511,0-23.312,0-34.823,0
	c-2.169,4.015-4.355,8.062-6.217,12.109c-1.554,3.108-2.169,5.277-2.169,6.848c0,1.23,0.615,2.154,1.878,3.093
	c1.23,0.939,4.015,1.554,8.37,1.862c0,0.631,0,1.246,0,1.877c-9.309,0-18.942,0-28.267,0c0-0.631,0-1.246,0-1.877
	c3.723-0.6,6.2-1.23,7.139-2.17c2.493-1.861,4.986-5.602,7.771-11.494c10.264-21.145,21.127-42.595,31.715-63.722
	c0.599,0,1.554,0,2.153,0c10.264,21.45,21.16,42.901,31.408,64.66c2.477,5.278,4.97,8.37,7.155,9.925
	c1.862,1.57,4.97,2.492,8.386,2.801c0,0.631,0,1.246,0,1.877c-11.818,0-23.637,0-35.422,0c0-0.631,0-1.246,0-1.877
	c3.416-0.309,5.893-0.6,7.14-1.539c1.23-0.938,1.862-2.186,1.862-3.416c0-1.57-0.939-4.354-2.493-7.77
	C259.048,304.256,257.186,300.531,255.325,296.809z M253.447,292.453c-4.954-10.588-10.248-20.836-15.218-31.407
	c-5.277,10.571-10.571,20.819-15.865,31.407C232.951,292.453,243.199,292.453,253.447,292.453 M144.978,286.236
	c0,7.772,0,15.219,0,22.682c0,4.986,0.631,8.078,1.862,9.325c1.554,1.554,4.047,2.478,7.463,2.478c1.247,0,2.493,0,3.416,0
	c0,0.631,0,1.246,0,1.877c-12.741,0-25.79,0-38.547,0c0-0.631,0-1.246,0-1.877c1.247,0,2.169,0,3.416,0
	c3.724,0,6.524-1.23,8.079-3.4c0.939-1.246,1.263-4.047,1.263-8.402c0-16.789,0-33.27,0-50.041c0-4.971-0.324-8.096-1.57-9.326
	c-1.846-1.57-4.339-2.492-7.771-2.492c-1.247,0-2.169,0-3.416,0c0-0.632,0-1.23,0-2.17c10.896,0,22.082,0,32.945,0
	c8.079,0,14.619,0.939,19.266,2.17c4.679,1.554,8.726,4.047,11.818,7.463c3.124,3.432,4.679,7.447,4.679,11.803
	c0,6.54-2.186,11.51-7.172,15.541c-4.646,4.047-11.786,6.233-20.512,6.233c-2.477,0-4.646-0.322-7.139-0.631
	C150.564,287.159,147.779,286.836,144.978,286.236z M144.978,283.111c2.17,0.309,4.355,0.633,6.217,0.94
	c1.862,0,3.416,0.309,4.646,0.309c4.679,0,8.726-1.539,11.818-4.663c3.432-3.108,5.278-7.14,5.278-12.126
	c0-3.416-0.923-6.524-2.477-9.325c-1.538-2.784-4.031-4.97-6.848-6.508c-3.092-1.554-6.217-2.186-9.94-2.186
	c-2.477,0-5.277,0.309-8.693,1.23c0,10.896,0,21.451,0,32.331"/>
<path id="path5445" fill="#820024" d="M965.407,22.188c2.023,0.162,2.023,0.162,2.023,2.024v10.037c0,1.781,0,1.781-2.023,1.943
	v0.647h6.719v-0.647c-2.023-0.162-2.023-0.162-2.023-1.943v-4.128h1.942c1.538,2.347,1.7,2.59,2.186,3.399
	c1.134,2.186,2.186,3.319,2.914,3.319h2.591v-0.324c-0.972-0.809-1.943-1.942-3.157-3.562l-2.348-3.238
	c2.186-0.89,3.319-2.347,3.319-4.371c0-2.267-1.862-3.805-4.776-3.805h-7.366V22.188L965.407,22.188z M970.102,22.35h1.699
	c1.943,0,2.914,1.133,2.914,3.319c0,2.348-1.052,3.642-2.833,3.642h-1.78V22.35z M972.126,15.065
	c-7.933,0-14.247,6.395-14.247,14.409c0,7.933,6.314,14.247,14.247,14.247c7.771,0,14.166-6.314,14.166-14.085
	C986.292,21.46,980.14,15.065,972.126,15.065z M972.126,16.845c6.557,0,11.899,5.667,11.899,12.79
	c0,6.638-5.505,12.385-11.899,12.385c-6.557,0-11.98-5.747-11.98-12.547C960.146,22.593,965.569,16.845,972.126,16.845z"/>
</svg>
