<?xml version="1.0" encoding="utf-8"?>
<!-- Generator: Adobe Illustrator 18.0.0, SVG Export Plug-In . SVG Version: 6.00 Build 0)  -->
<!DOCTYPE svg PUBLIC "-//W3C//DTD SVG 1.1//EN" "http://www.w3.org/Graphics/SVG/1.1/DTD/svg11.dtd">
<svg version="1.1" id="Layer_2" xmlns="http://www.w3.org/2000/svg" xmlns:xlink="http://www.w3.org/1999/xlink" x="0px" y="0px"
	 viewBox="0 0 665 116.1" enable-background="new 0 0 665 116.1" xml:space="preserve">
<rect x="0" y="0" fill="#C32126" width="665" height="116.1"/>
<path fill="#FFFFFF" d="M42.4,61.9l-5.9-2.5l5.9-2.7l49.7-22.5v6L79.1,46v26.9l13.1,5.8v5.7L42.4,61.9z M74.1,48.2L48.9,59.4
	l25.2,11.3V48.2z"/>
<path fill="#FFFFFF" d="M120.5,34.8h35.7V40h-30.1v16.7h27v5.2h-27v17.2h30.5v5.1h-36V34.8z"/>
<path fill="#FFFFFF" d="M184.7,34.8H206c3.1,0,5.8,0.4,8.2,1.3c2.4,0.9,4.3,2.1,5.9,3.6c1.2,1.2,2.2,2.7,2.8,4.3
	c0.7,1.6,1,3.5,1,5.4v0.1c0,2-0.3,3.8-1,5.5c-0.7,1.6-1.6,3-2.8,4.2c-1.2,1.2-2.6,2.2-4.3,3c-1.6,0.8-3.4,1.3-5.4,1.7l15.2,20.2
	h-6.8L204.4,65h-0.1h-14v19.2h-5.6V34.8z M205.5,60c1.8,0,3.5-0.2,5.1-0.7c1.6-0.5,2.9-1.1,4-2c1.1-0.9,2-1.9,2.7-3.2
	c0.6-1.2,0.9-2.7,0.9-4.3v-0.1c0-3.1-1.1-5.4-3.3-7.2c-2.2-1.7-5.3-2.6-9.3-2.6h-15.3v20H205.5z"/>
<path fill="#FFFFFF" d="M275.6,85.1c-3.8,0-7.2-0.7-10.3-2.1c-3.1-1.4-5.7-3.2-7.9-5.5c-2.2-2.3-3.9-5-5.1-8.1
	c-1.2-3.1-1.8-6.3-1.8-9.7v-0.1c0-3.4,0.6-6.6,1.8-9.7c1.2-3.1,2.9-5.8,5.1-8.1c2.2-2.3,4.9-4.2,8-5.6c3.1-1.4,6.5-2.1,10.3-2.1
	c3.8,0,7.2,0.7,10.3,2c3.1,1.4,5.7,3.2,7.9,5.5c2.2,2.3,3.9,5,5.1,8.1c1.2,3.1,1.8,6.3,1.8,9.7c0,0,0,0.1,0,0.1
	c0,3.4-0.6,6.6-1.8,9.7c-1.2,3.1-2.9,5.8-5.1,8.1c-2.2,2.3-4.9,4.2-8,5.6C282.8,84.4,279.4,85.1,275.6,85.1z M275.8,79.9
	c2.8,0,5.4-0.5,7.8-1.6c2.4-1.1,4.4-2.5,6.1-4.3c1.7-1.8,3-4,4-6.4c1-2.4,1.4-5.1,1.4-7.9v-0.1c0-2.8-0.5-5.5-1.4-7.9
	c-1-2.5-2.3-4.6-4.1-6.5c-1.7-1.8-3.8-3.3-6.2-4.4c-2.4-1.1-5-1.6-7.8-1.6c-2.8,0-5.4,0.5-7.8,1.6c-2.4,1.1-4.4,2.5-6.1,4.3
	c-1.7,1.8-3,4-4,6.4c-1,2.4-1.4,5.1-1.4,7.9v0.1c0,2.8,0.5,5.5,1.4,7.9c1,2.5,2.3,4.6,4.1,6.5c1.7,1.8,3.8,3.3,6.2,4.4
	C270.3,79.4,272.9,79.9,275.8,79.9z"/>
<path fill="#FFFFFF" d="M346.2,84.9c-4,0-7.6-0.6-10.8-1.9c-3.3-1.3-6.4-3.3-9.4-6l3.5-4.1c2.6,2.4,5.2,4.1,7.8,5.3
	c2.6,1.1,5.7,1.7,9.1,1.7c3.3,0,6-0.8,8-2.4c2-1.6,3-3.6,3-6v-0.1c0-1.1-0.2-2.1-0.6-3.1c-0.4-0.9-1-1.8-2-2.5
	c-0.9-0.8-2.3-1.4-3.9-2c-1.7-0.6-3.8-1.2-6.4-1.8c-2.8-0.6-5.3-1.3-7.4-2.1c-2.1-0.8-3.8-1.8-5.2-2.9c-1.4-1.1-2.4-2.4-3-4
	c-0.7-1.5-1-3.3-1-5.3v-0.1c0-1.9,0.4-3.7,1.2-5.4c0.8-1.6,1.9-3.1,3.4-4.3c1.5-1.2,3.2-2.1,5.2-2.8c2-0.7,4.1-1,6.5-1
	c3.6,0,6.8,0.5,9.5,1.5c2.7,1,5.3,2.5,7.9,4.6l-3.3,4.3c-2.3-1.9-4.6-3.3-6.9-4.1c-2.3-0.9-4.8-1.3-7.3-1.3c-3.3,0-5.8,0.8-7.7,2.3
	c-1.9,1.5-2.8,3.4-2.8,5.7v0.1c0,1.2,0.2,2.2,0.6,3.1c0.4,0.9,1.1,1.8,2,2.5c1,0.8,2.4,1.5,4.1,2.1c1.7,0.6,4,1.2,6.7,1.8
	c5.5,1.2,9.6,2.9,12.2,5c2.6,2.2,3.9,5.2,3.9,8.9v0.1c0,2.1-0.4,4-1.3,5.8c-0.8,1.7-2,3.2-3.5,4.4c-1.5,1.2-3.2,2.2-5.3,2.8
	C350.9,84.6,348.7,84.9,346.2,84.9z"/>
<path fill="#FFFFFF" d="M391.3,34.8h18.5c2.8,0,5.3,0.4,7.6,1.1c2.3,0.7,4.2,1.8,5.9,3.1c1.6,1.3,2.9,3,3.7,4.9
	c0.9,1.9,1.3,4.1,1.3,6.6v0.1c0,2.7-0.5,5-1.6,7c-1,2-2.4,3.7-4.2,5c-1.8,1.4-3.8,2.4-6.2,3.1c-2.4,0.7-4.8,1-7.5,1h-12v17.4h-5.6
	V34.8z M409.1,61.6c2.1,0,3.9-0.3,5.6-0.8c1.6-0.5,3.1-1.3,4.3-2.2c1.2-1,2.1-2.1,2.8-3.4c0.6-1.3,1-2.8,1-4.4v-0.1
	c0-3.5-1.2-6.2-3.6-8c-2.4-1.8-5.6-2.7-9.7-2.7h-12.5v21.7H409.1z"/>
<path fill="#FFFFFF" d="M455.9,34.8h5.6v49.4h-5.6V34.8z"/>
<path fill="#FFFFFF" d="M492.8,34.8h5.6v29.5l28.4-29.5h7.2l-21.2,21.6l22.1,27.8h-7l-19-23.9l-10.5,10.7v13.3h-5.6V34.8z"/>
<path fill="#FFFFFF" d="M560.5,34.8h35.7V40h-30.1v16.7h56.3v5.2h-56.3v17.2h30.5v5.1h-36.1V34.8z"/>
</svg>
