<?xml version="1.0" encoding="utf-8"?>
<!-- Generator: Adobe Illustrator 18.0.0, SVG Export Plug-In . SVG Version: 6.00 Build 0)  -->
<!DOCTYPE svg PUBLIC "-//W3C//DTD SVG 1.1//EN" "http://www.w3.org/Graphics/SVG/1.1/DTD/svg11.dtd">
<svg version="1.1"
	 id="svg2" xmlns:svg="http://www.w3.org/2000/svg" xmlns:cc="http://creativecommons.org/ns#" xmlns:rdf="http://www.w3.org/1999/02/22-rdf-syntax-ns#" xmlns:dc="http://purl.org/dc/elements/1.1/"
	 xmlns="http://www.w3.org/2000/svg" xmlns:xlink="http://www.w3.org/1999/xlink" x="0px" y="0px" viewBox="1.6 2.1 109.6 41.4"
	 enable-background="new 1.6 2.1 109.6 41.4" xml:space="preserve">
<path id="path243" fill="#201C1D" d="M39.3,18.2c-2.3,0-4.8,0.9-5.4,3.8c-0.1,0.3,0.1,0.5,0.3,0.5l2.3,0.3c0.2,0,0.4-0.2,0.4-0.5
	c0.2-1,1-1.5,1.9-1.5c0.5,0,1.1,0.2,1.3,0.6c0.3,0.5,0.3,1.2,0.3,1.8v0.3c-1.4,0.2-3.2,0.3-4.5,0.8c-1.5,0.7-2.6,2-2.6,4
	c0,2.6,1.6,3.8,3.6,3.8c1.7,0,2.7-0.4,4-1.8c0.4,0.6,0.6,0.9,1.4,1.6c0.2,0.1,0.4,0.1,0.6-0.1v0c0.5-0.4,1.4-1.2,1.8-1.7
	c0.2-0.2,0.2-0.4,0-0.7c-0.4-0.6-0.9-1.1-0.9-2.3v-3.8c0-1.6,0.1-3.1-1-4.2C42,18.5,40.5,18.2,39.3,18.2z M70.8,18.2
	c-2.3,0-4.8,0.9-5.4,3.8c-0.1,0.3,0.1,0.5,0.3,0.5l2.3,0.3c0.2,0,0.4-0.2,0.4-0.5c0.2-1,1-1.5,1.9-1.5c0.5,0,1.1,0.2,1.3,0.6
	c0.3,0.5,0.3,1.2,0.3,1.8v0.3c-1.4,0.2-3.2,0.3-4.5,0.8c-1.5,0.7-2.6,2-2.6,4c0,2.6,1.6,3.8,3.6,3.8c1.7,0,2.7-0.4,4-1.8
	c0.4,0.6,0.6,0.9,1.4,1.6c0.2,0.1,0.4,0.1,0.6-0.1v0c0.5-0.4,1.4-1.2,1.8-1.7c0.2-0.2,0.2-0.4,0-0.7c-0.4-0.6-0.9-1.1-0.9-2.3v-3.8
	c0-1.6,0.1-3.1-1.1-4.2C73.5,18.5,72,18.2,70.8,18.2z M53.1,18.3c-1.5,0-2.6,0.7-3.2,2.3h0V19c0-0.2-0.2-0.4-0.4-0.4h-2.2
	c-0.3,0-0.5,0.2-0.5,0.5v12.7c0,0.2,0.2,0.4,0.4,0.4h2.4c0.3,0,0.5-0.2,0.5-0.5v-6.7c0-1.5-0.1-3.5,1.7-3.5c1.7,0,1.5,2.1,1.5,3.5
	v6.7c0,0.2,0.2,0.5,0.4,0.5H56c0.3,0,0.5-0.2,0.5-0.5v-6.7c0-0.7,0-1.8,0.2-2.4c0.2-0.6,0.9-1.1,1.4-1.1c0.7,0,1.2,0.2,1.4,1.1
	c0.1,0.5,0.1,1.8,0.1,2.4v6.7c0,0.2,0.2,0.5,0.4,0.5h2.4c0.3,0,0.5-0.2,0.5-0.5v-8c0-1.4,0.1-2.9-0.6-4c-0.7-1-1.8-1.4-2.8-1.4
	c-1.4,0-2.7,0.7-3.3,2.3C55.6,19,54.6,18.3,53.1,18.3z M94,18.3c-3.5,0-5.4,3.1-5.4,7c0,3.9,1.9,7.1,5.4,7.1c3.4,0,5.5-3.1,5.5-6.9
	C99.5,21.4,97.6,18.3,94,18.3z M107.7,18.3c-1.7,0-2.6,0.8-3.3,2.6h0v-1.9c0-0.2-0.2-0.3-0.4-0.3h-2.2c-0.2,0-0.4,0.2-0.5,0.4v12.7
	c0,0.2,0.2,0.5,0.4,0.5h2.4c0.3,0,0.5-0.2,0.5-0.5v-6.8c0-0.9,0.1-1.6,0.4-2.4c0.3-0.6,0.8-1,1.4-1c1.7,0,1.5,2,1.5,3.4v6.9
	c0,0.2,0.2,0.4,0.4,0.4h2.4c0.2,0,0.4-0.2,0.5-0.4v-8c0-1.2,0-2.9-0.6-3.9C109.9,18.7,108.8,18.3,107.7,18.3L107.7,18.3z M78.9,18.5
	c-0.2,0-0.4,0.2-0.4,0.5v1.8c0,0.3,0.2,0.5,0.4,0.5H83l-4.7,7c-0.3,0.4-0.3,1-0.3,1.2v1.8c0,0.3,0.3,0.6,0.6,0.4
	c2.7-1.5,5.9-1.3,8.3,0c0.3,0.2,0.6-0.1,0.6-0.4v-1.9c0-0.3-0.1-0.5-0.4-0.7c-1.4-0.8-3-1-4.5-1l4.1-6c0.4-0.5,0.6-0.9,0.6-1.1V19
	c0-0.3-0.2-0.5-0.4-0.5H78.9z M94,20.9c0.8,0,1.3,0.3,1.6,1.2c0.3,1,0.3,2.3,0.3,3.3c0,1.6-0.1,4.3-1.9,4.3c-1.9,0-1.9-3.3-1.9-4.9
	C92.1,23.3,92.2,20.9,94,20.9z M40.6,25.5V26c0,1,0,1.8-0.4,2.6c-0.4,0.7-1,1.1-1.7,1.1C37.6,29.8,37,29,37,28
	C37,25.9,38.9,25.5,40.6,25.5z M72.1,25.5V26c0,1,0,1.8-0.4,2.6c-0.4,0.7-1,1.1-1.7,1.1c-0.9,0-1.5-0.7-1.5-1.8
	C68.5,25.9,70.4,25.5,72.1,25.5z"/>
<path id="path257" d="M87.7,32.5V34h1.2v-1.5H87.7z M52.4,32.8v10.5h1.1v-0.9c0.2,0.4,0.5,0.7,0.8,0.8c0.3,0.2,0.7,0.3,1.1,0.3
	c0.8,0,1.5-0.3,2.2-1c0.6-0.7,0.9-1.7,0.9-3c0-0.8-0.1-1.5-0.4-2.1c-0.3-0.6-0.6-1-1.1-1.3c-0.5-0.3-1-0.5-1.5-0.5
	c-0.4,0-0.8,0.1-1.1,0.3c-0.3,0.2-0.6,0.4-0.8,0.8v-3.8C53.6,32.8,52.4,32.8,52.4,32.8z M63.9,35.2c-0.8,0-1.5,0.2-2,0.6
	c-0.5,0.4-0.7,0.9-0.7,1.6c0,0.4,0.1,0.7,0.3,1s0.4,0.5,0.8,0.7c0.3,0.2,1,0.4,1.9,0.7c0.7,0.2,1,0.3,1.2,0.4
	c0.2,0.2,0.4,0.4,0.4,0.7c0,0.3-0.1,0.6-0.4,0.9c-0.3,0.2-0.7,0.3-1.2,0.3s-1-0.1-1.3-0.4c-0.3-0.3-0.5-0.7-0.6-1.2L61,40.7
	c0.3,1.6,1.3,2.4,3,2.4c0.9,0,1.6-0.2,2.2-0.7s0.8-1.1,0.8-1.8c0-0.4-0.1-0.7-0.2-1S66.3,39.2,66,39c-0.3-0.2-1-0.4-2-0.7
	c-0.7-0.2-1.2-0.4-1.3-0.5c-0.2-0.2-0.4-0.4-0.4-0.7c0-0.3,0.1-0.5,0.4-0.7c0.3-0.2,0.7-0.3,1.2-0.3c0.9,0,1.5,0.4,1.6,1.2l1.2-0.2
	c-0.1-0.5-0.2-0.9-0.4-1.2s-0.5-0.5-0.9-0.7C64.9,35.3,64.5,35.2,63.9,35.2z M71.4,35.2c-1,0-1.8,0.3-2.4,1c-0.6,0.7-0.9,1.7-0.9,3
	c0,1.3,0.3,2.3,0.9,2.9c0.6,0.7,1.4,1,2.5,1c0.8,0,1.5-0.2,2-0.6c0.5-0.4,0.9-1,1.2-1.8l-1.2-0.2c-0.4,1-1,1.6-1.9,1.6
	c-0.6,0-1.1-0.2-1.5-0.6c-0.4-0.4-0.6-1.1-0.7-1.9h5.4v-0.4c0-1.3-0.3-2.3-0.9-2.9C73.1,35.6,72.3,35.2,71.4,35.2z M78.8,35.2
	c-0.3,0-0.5,0.1-0.8,0.3c-0.2,0.2-0.5,0.5-0.8,1.1v-1.2h-1.1V43h1.2v-4c0-0.6,0.1-1.1,0.2-1.6c0.1-0.3,0.3-0.5,0.5-0.7
	c0.2-0.2,0.5-0.2,0.7-0.2c0.3,0,0.6,0.1,0.9,0.3l0.4-1.2C79.6,35.4,79.2,35.2,78.8,35.2z M93.7,35.2c-1,0-1.8,0.3-2.4,1
	c-0.6,0.7-0.9,1.7-0.9,3c0,1.3,0.3,2.3,0.9,3c0.6,0.7,1.4,1,2.3,1c0.8,0,1.4-0.2,2-0.7c0.6-0.5,0.9-1.2,1-2.1l-1.2-0.2
	c-0.1,0.6-0.3,1.1-0.6,1.4c-0.3,0.3-0.7,0.5-1.2,0.5c-0.6,0-1.1-0.2-1.5-0.7c-0.4-0.5-0.6-1.2-0.6-2.2c0-1,0.2-1.7,0.6-2.2
	s0.9-0.7,1.5-0.7c0.4,0,0.7,0.1,1,0.4c0.3,0.3,0.5,0.7,0.6,1.2l1.2-0.2c-0.1-0.8-0.5-1.4-1-1.8C95.1,35.4,94.5,35.2,93.7,35.2z
	 M100.7,35.2c-1,0-1.8,0.3-2.4,1c-0.6,0.7-0.9,1.7-0.9,3c0,1.3,0.3,2.3,0.9,2.9c0.6,0.7,1.4,1,2.5,1c0.8,0,1.5-0.2,2-0.6
	c0.5-0.4,0.9-1,1.2-1.8l-1.2-0.2c-0.4,1-1,1.6-1.9,1.6c-0.6,0-1.1-0.2-1.5-0.6c-0.4-0.4-0.6-1.1-0.7-1.9h5.4v-0.4
	c0-1.3-0.3-2.3-0.9-2.9C102.4,35.6,101.6,35.2,100.7,35.2z M107.9,35.2c-0.8,0-1.5,0.2-2,0.6c-0.5,0.4-0.7,0.9-0.7,1.6
	c0,0.4,0.1,0.7,0.2,1c0.2,0.3,0.4,0.5,0.8,0.7c0.3,0.2,1,0.4,1.9,0.7c0.7,0.2,1.1,0.3,1.2,0.4c0.2,0.2,0.4,0.4,0.4,0.7
	c0,0.3-0.1,0.6-0.4,0.9c-0.3,0.2-0.7,0.3-1.2,0.3c-0.5,0-1-0.1-1.3-0.4c-0.3-0.3-0.5-0.7-0.6-1.2l-1.2,0.2c0.3,1.6,1.3,2.4,3,2.4
	c0.9,0,1.7-0.2,2.2-0.7s0.8-1.1,0.8-1.8c0-0.4-0.1-0.7-0.2-1s-0.4-0.5-0.7-0.7c-0.3-0.2-0.9-0.4-1.9-0.7c-0.7-0.2-1.2-0.4-1.3-0.5
	c-0.2-0.2-0.4-0.4-0.4-0.7c0-0.3,0.1-0.5,0.4-0.7c0.3-0.2,0.7-0.3,1.2-0.3c0.9,0,1.5,0.4,1.6,1.2l1.2-0.2c-0.1-0.5-0.2-0.9-0.4-1.2
	c-0.2-0.3-0.5-0.5-0.9-0.7C108.9,35.3,108.5,35.2,107.9,35.2z M80,35.4l2.7,7.6h1.2l2.7-7.6h-1.2L83.8,40c-0.2,0.6-0.4,1.1-0.5,1.5
	c-0.1-0.5-0.3-1-0.4-1.6l-1.6-4.6H80z M87.7,35.4V43h1.2v-7.6H87.7z M47.6,35.5c-1,0-1.7,0.4-2.4,1c-0.6,0.7-1,1.7-1,3
	c0,1.3,0.3,2.2,0.9,2.9c0.6,0.7,1.5,1,2.5,1c0.8,0,1.5-0.2,2-0.6c0.5-0.4,0.9-1,1.1-1.8l-1.2-0.2c-0.4,1-1,1.6-1.9,1.6
	c-0.6,0-1.1-0.2-1.5-0.6c-0.4-0.4-0.6-1.1-0.7-1.9h5.3l0-0.4c0-1.3-0.3-2.3-0.9-3C49.3,35.8,48.6,35.5,47.6,35.5z M33.9,35.7
	l2.2,7.6h1.3l1.4-5.9l0.2,1.3l1.2,4.6h1.2l2.2-7.6h-1.2l-1.2,4.4l-0.4,1.5l-0.4-1.5l-1.1-4.4h-1.2l-1.1,4.5l-0.4,1.6l-0.4-1.6
	l-1.1-4.4H33.9z M71.4,36.3c0.6,0,1.1,0.2,1.5,0.7c0.3,0.3,0.4,0.8,0.5,1.5h-4c0-0.7,0.3-1.2,0.7-1.6S70.8,36.3,71.4,36.3z
	 M100.7,36.3c0.6,0,1.1,0.2,1.5,0.7c0.3,0.3,0.4,0.8,0.5,1.5h-4c0-0.7,0.3-1.2,0.7-1.6C99.7,36.5,100.1,36.3,100.7,36.3z M47.6,36.6
	c0.6,0,1.1,0.2,1.5,0.7c0.3,0.3,0.4,0.8,0.5,1.5h-4c0-0.7,0.2-1.2,0.6-1.6C46.6,36.7,47.1,36.6,47.6,36.6z M55.4,36.6
	c0.5,0,1,0.2,1.4,0.7c0.4,0.5,0.5,1.2,0.5,2.2c0,1-0.2,1.7-0.6,2.2c-0.4,0.5-0.8,0.7-1.3,0.7c-0.4,0-0.7-0.1-1-0.3
	c-0.3-0.2-0.5-0.5-0.7-0.9c-0.2-0.4-0.2-1-0.2-1.8c0-0.9,0.2-1.6,0.6-2.1S54.9,36.6,55.4,36.6z"/>
<path id="polygon287" fill="#F7A80D" d="M16.4,27.6l-4.7,2l4.3,1.8l5-1.8L16.4,27.6z M9.4,30.1l-0.2,9l6.8,3v-9.3L9.4,30.1z
	 M23.4,30.1l-6.2,2.3v8.8l6.2-2.5V30.1z"/>
<path id="polygon311" fill="#F7A80D" d="M30.8,2.1l-4.7,2l4.3,1.8l5-1.8L30.8,2.1z M24.2,4.7v9l5.8,1.7l0.2-8.2L24.2,4.7z M37.2,5.2
	l-5.5,2.3v8.8l5.5-2.5V5.2z"/>
<path id="use3387" fill="#F7A80D" d="M8.7,14.7l-4.7,2l4.3,1.8l5-1.8L8.7,14.7z M1.7,17.2l-0.2,9l6.8,3v-9.3L1.7,17.2z M15.7,17.2
	l-6.2,2.3v8.8l6.2-2.5V17.2z"/>
<path id="use3389" fill="#F7A80D" d="M23.7,14.4l-4.7,2l4.3,1.8l5-1.8L23.7,14.4z M16.7,16.9l-0.2,9l6.8,3v-9.3L16.7,16.9z
	 M30.7,16.9l-6.2,2.3v8.8l6.2-2.5V16.9z"/>
<path id="use3391" fill="#F7A80D" d="M45.4,2.1l-4.7,2l4.3,1.8l5-1.8L45.4,2.1z M38.4,4.6l-0.2,9l6.8,3V7.2L38.4,4.6z M52.4,4.6
	l-6.2,2.3v8.8l6.2-2.5V4.6z"/>
</svg>
