<?xml version="1.0" encoding="utf-8"?>
<!-- Generator: Adobe Illustrator 18.0.0, SVG Export Plug-In . SVG Version: 6.00 Build 0)  -->
<!DOCTYPE svg PUBLIC "-//W3C//DTD SVG 1.1//EN" "http://www.w3.org/Graphics/SVG/1.1/DTD/svg11.dtd">
<svg version="1.1" xmlns="http://www.w3.org/2000/svg" xmlns:xlink="http://www.w3.org/1999/xlink" x="0px" y="0px"
	 viewBox="0 0 435.1 114.2" enable-background="new 0 0 435.1 114.2" xml:space="preserve">
<g id="Layer_1">
	<rect x="0" y="0" fill="#1A1F23" width="435.1" height="114.2"/>
</g>
<g id="Layer_2">
	<linearGradient id="SVGID_1_" gradientUnits="userSpaceOnUse" x1="45.0574" y1="87.1323" x2="45.0574" y2="13.8666">
		<stop  offset="0" style="stop-color:#97A4B7"/>
		<stop  offset="0.882" style="stop-color:#FFFFFF"/>
	</linearGradient>
	<path fill="url(#SVGID_1_)" d="M57.8,76l-6.3,11l-12.7,0l-6.4-11l1.1-1.9l5.2-9.1l12.7,0l5.3,9.1L57.8,76z M73.7,52.3l-12.7,0
		l-6.3,11l5.2,9l1.2,2l12.7,0l6.3-11L73.7,52.3z M30.1,28.4l-1-1.7l-12.7,0l-6.3,11l6.4,11l12.7,0l6.3-11L30.1,28.4z M51.3,13.9
		l-12.7,0l-6.3,11l0.9,1.6l5.4,9.4l12.7,0l5.4-9.4l0.9-1.6L51.3,13.9z M29.1,52.4l-12.7,0l-6.3,11l6.4,11l12.7,0l1.1-2l5.2-9.1
		L29.1,52.4z"/>
</g>
<g id="Layer_3">
	<path fill="#EBBA1E" d="M54.5,38.1l6.3-11l12.7,0l6.4,11L78.8,40l-5.2,9.1l-12.7,0L55.6,40L54.5,38.1z M38.7,61.9l12.7,0l6.3-11
		l-5.2-9l-1.2-2l-12.7,0l-6.3,11L38.7,61.9z M82.2,85.8l1,1.7l12.7,0l6.3-11l-6.4-11l-12.7,0l-6.3,11L82.2,85.8z M61,100.3l12.7,0
		l6.3-11l-1-1.6l-5.4-9.4l-12.7,0l-5.4,9.4l-0.9,1.6L61,100.3z M83.2,61.8l12.7,0l6.3-11l-6.4-11l-12.7,0l-1.1,2l-5.2,9.1L83.2,61.8
		z"/>
</g>
<g id="Layer_4">
	
		<linearGradient id="SVGID_2_" gradientUnits="userSpaceOnUse" x1="58.1905" y1="99.4039" x2="72.965" y2="99.4039" gradientTransform="matrix(1 -3.700000e-03 3.700000e-03 1 3.8396 -9.894)">
		<stop  offset="0" style="stop-color:#FFFFFF;stop-opacity:0"/>
		<stop  offset="1" style="stop-color:#FFFFFF"/>
	</linearGradient>
	<polygon opacity="0.72" fill="url(#SVGID_2_)" points="62.4,80.8 72.2,80.7 77.2,89.2 72.3,97.8 	"/>
</g>
<g id="Layer_5">
	
		<linearGradient id="SVGID_3_" gradientUnits="userSpaceOnUse" x1="80.4434" y1="86.7206" x2="95.2161" y2="86.7206" gradientTransform="matrix(1 -3.700000e-03 3.700000e-03 1 3.8396 -9.894)">
		<stop  offset="0" style="stop-color:#FFFFFF;stop-opacity:0"/>
		<stop  offset="1" style="stop-color:#FFFFFF"/>
	</linearGradient>
	<polygon opacity="0.72" fill="url(#SVGID_3_)" points="84.6,68 94.4,68 99.4,76.5 94.5,85 	"/>
</g>
<g id="Layer_6">
	
		<linearGradient id="SVGID_4_" gradientUnits="userSpaceOnUse" x1="80.5593" y1="60.9321" x2="95.3232" y2="60.9321" gradientTransform="matrix(1 -3.700000e-03 3.700000e-03 1 3.8396 -9.894)">
		<stop  offset="0" style="stop-color:#FFFFFF;stop-opacity:0"/>
		<stop  offset="1" style="stop-color:#FFFFFF"/>
	</linearGradient>
	<polygon opacity="0.72" fill="url(#SVGID_4_)" points="84.6,42.2 94.4,42.2 99.4,50.7 94.5,59.2 	"/>
</g>
<g id="Layer_7">
	
		<linearGradient id="SVGID_5_" gradientUnits="userSpaceOnUse" x1="36" y1="60.8973" x2="50.7672" y2="60.8973" gradientTransform="matrix(1 -3.700000e-03 3.700000e-03 1 3.8396 -9.894)">
		<stop  offset="0" style="stop-color:#FFFFFF;stop-opacity:0"/>
		<stop  offset="1" style="stop-color:#FFFFFF"/>
	</linearGradient>
	<polygon opacity="0.72" fill="url(#SVGID_5_)" points="40,42.3 49.9,42.3 54.8,50.8 49.9,59.4 	"/>
</g>
<g id="Layer_8">
	
		<linearGradient id="SVGID_6_" gradientUnits="userSpaceOnUse" x1="58.2519" y1="48.21" x2="73.0183" y2="48.21" gradientTransform="matrix(1 -3.700000e-03 3.700000e-03 1 3.8396 -9.894)">
		<stop  offset="0" style="stop-color:#FFFFFF;stop-opacity:0"/>
		<stop  offset="1" style="stop-color:#FFFFFF"/>
	</linearGradient>
	<polygon opacity="0.72" fill="url(#SVGID_6_)" points="62.2,29.6 72.1,29.5 77,38 72.1,46.6 	"/>
</g>
<g id="Layer_9">
	<linearGradient id="SVGID_7_" gradientUnits="userSpaceOnUse" x1="270.7743" y1="71.0367" x2="270.7743" y2="50.1529">
		<stop  offset="0" style="stop-color:#97A4B7"/>
		<stop  offset="0.882" style="stop-color:#FFFFFF"/>
	</linearGradient>
	<path fill="url(#SVGID_7_)" d="M138.7,61c0.6,0.6,0.9,1.6,0.9,2.9v2.2c0,1-0.2,1.9-0.5,2.5c-0.3,0.6-0.9,1.1-1.6,1.4
		c-0.7,0.3-1.7,0.6-2.8,0.7c-1.1,0.1-2.5,0.2-4.1,0.2h-14.1V50.4H131c1.4,0,2.7,0.1,3.7,0.2c1,0.1,1.8,0.4,2.5,0.7
		c0.7,0.4,1.2,1,1.4,1.7c0.2,0.7,0.3,1.5,0.3,2.6c0,0.7,0,1.2-0.1,1.7c-0.1,0.5-0.3,0.9-0.5,1.2c-0.3,0.3-0.6,0.6-1,0.9
		c-0.4,0.2-1,0.4-1.7,0.6C137,60,138,60.4,138.7,61z M119,59h11.6c1.1,0,2.1,0,2.8-0.1c0.7,0,1.3-0.2,1.8-0.4c0.4-0.2,0.8-0.5,1-0.9
		c0.2-0.4,0.3-1,0.3-1.8c0-0.7-0.1-1.3-0.2-1.7c-0.1-0.4-0.4-0.7-0.7-1c-0.4-0.3-1-0.4-1.8-0.5c-0.8-0.1-1.7-0.1-2.8-0.1h-12V59z
		 M119,61.3v7.1h13.4c1,0,1.8,0,2.4-0.1c0.6-0.1,1.1-0.2,1.5-0.5c0.4-0.2,0.6-0.6,0.7-1c0.1-0.4,0.2-1,0.2-1.7
		c0-0.8-0.1-1.4-0.2-1.9c-0.1-0.5-0.4-0.9-0.7-1.2c-0.3-0.3-0.8-0.5-1.5-0.6c-0.6-0.1-1.4-0.1-2.5-0.1H119z M143.6,50.4h20.1v2.3
		H146v6.4h16.9v2.3H146v7.2h17.6v2.3h-20.1V50.4z M167.4,50.4h20.1v2.3h-17.6v6.4h16.9v2.3h-16.9v7.2h17.6v2.3h-20.1V50.4z
		 M219.8,50.4c1.4,0,2.5,0.1,3.3,0.2c0.8,0.1,1.5,0.3,2.1,0.6c1,0.5,1.8,1.3,2.2,2.4c0.5,1.1,0.7,2.5,0.7,4.4c0,2.8-0.5,4.8-1.4,5.9
		c-0.9,1.2-2.5,1.7-4.7,1.7h-11.6v5.1h-6.2V50.4H219.8z M219.6,55.5h-9.2v5.2h9.2c0.8,0,1.4-0.2,1.7-0.6c0.3-0.4,0.5-1.1,0.5-2.2
		c0-0.8-0.2-1.4-0.5-1.8C221,55.7,220.4,55.5,219.6,55.5z M234.7,70.8h-6.8L239,50.4h7.9l10.9,20.4h-6.8l-2-3.4h-12.4L234.7,70.8z
		 M239,62.5h7.8l-4-7.2L239,62.5z M276.5,50.4c3.2,0,5.4,0.5,6.6,1.4c1.2,1,1.8,2.7,1.8,5.2c0,1.8-0.3,3.1-0.8,3.9
		c-0.5,0.9-1.4,1.4-2.6,1.7c1.1,0.3,1.9,0.7,2.4,1.4c0.5,0.6,0.8,1.5,0.8,2.5v4.2h-6.2v-3.1c0-0.8-0.2-1.4-0.6-1.7
		c-0.4-0.3-1.1-0.5-2.2-0.5h-9.3v5.2h-6.2V50.4H276.5z M276.3,55.5h-9.9v5h9.9c0.8,0,1.4-0.2,1.7-0.6c0.3-0.4,0.5-1.1,0.5-2.1
		c0-0.8-0.2-1.4-0.5-1.8C277.6,55.7,277,55.5,276.3,55.5z M302.1,70.8h-6.2V55.4h-8.5v-5h23.3v5h-8.5V70.8z M341,70.8h-9.1L319.7,56
		v14.8h-6.2V50.4h9.2l12.1,15v-15h6.2V70.8z M367.3,55.4h-16.1v3.1h15.1v4.3h-15.1v3.1h16.3v4.9H345V50.4h22.3V55.4z M387.6,50.4
		c3.2,0,5.4,0.5,6.6,1.4c1.2,1,1.8,2.7,1.8,5.2c0,1.8-0.3,3.1-0.8,3.9c-0.5,0.9-1.4,1.4-2.6,1.7c1.1,0.3,1.9,0.7,2.4,1.4
		c0.5,0.6,0.8,1.5,0.8,2.5v4.2h-6.2v-3.1c0-0.8-0.2-1.4-0.6-1.7c-0.4-0.3-1.1-0.5-2.2-0.5h-9.3v5.2h-6.2V50.4H387.6z M387.4,55.5
		h-9.9v5h9.9c0.8,0,1.4-0.2,1.7-0.6c0.3-0.4,0.5-1.1,0.5-2.1c0-0.8-0.2-1.4-0.5-1.8C388.8,55.7,388.2,55.5,387.4,55.5z M399.7,64
		l6.1,0v0.4c0,0.8,0.2,1.3,0.6,1.6c0.4,0.3,1.2,0.4,2.4,0.4h7.8c0.8,0,1.3-0.1,1.6-0.4c0.3-0.3,0.5-0.7,0.5-1.3c0-0.6-0.2-1-0.6-1.3
		c-0.4-0.3-1.2-0.4-2.4-0.5l-9.8-0.2c-2.4-0.1-4.1-0.5-5-1.4c-0.9-0.9-1.3-2.4-1.3-4.7c0-1.2,0.1-2.1,0.3-2.9
		c0.2-0.8,0.6-1.4,1.1-1.9c0.6-0.6,1.4-1,2.3-1.2c1-0.2,2.5-0.4,4.7-0.4h9.5c2.4,0,4.1,0.4,5.1,1.3c1,0.9,1.6,2.3,1.6,4.2
		c0,0.1,0,0.3,0,0.4c0,0.1,0,0.4,0,0.7h-6v-0.1c0-0.7-0.2-1.2-0.5-1.5c-0.3-0.3-0.9-0.5-1.5-0.5H409c-1.2,0-2,0.1-2.4,0.4
		c-0.4,0.2-0.6,0.7-0.6,1.2c0,0.6,0.2,1,0.5,1.3c0.3,0.3,1,0.4,1.9,0.5l10.2,0.2c2.3,0.1,4,0.6,4.9,1.6c1,1,1.4,2.7,1.4,5.1
		c0,1.4-0.2,2.5-0.5,3.3c-0.4,0.8-0.9,1.4-1.8,2c-0.5,0.3-1.3,0.6-2.2,0.7c-0.9,0.1-2.3,0.2-4.1,0.2h-8.3c-3.4,0-5.7-0.4-6.8-1.1
		c-1.1-0.8-1.7-2.2-1.7-4.3c0-0.1,0-0.3,0-0.6C399.6,64.8,399.7,64.4,399.7,64z"/>
</g>
</svg>
