<?xml version="1.0" encoding="utf-8"?>
<!-- Generator: Adobe Illustrator 18.0.0, SVG Export Plug-In . SVG Version: 6.00 Build 0)  -->
<!DOCTYPE svg PUBLIC "-//W3C//DTD SVG 1.1//EN" "http://www.w3.org/Graphics/SVG/1.1/DTD/svg11.dtd">
<svg version="1.1" id="Layer_1" xmlns="http://www.w3.org/2000/svg" xmlns:xlink="http://www.w3.org/1999/xlink" x="0px" y="0px"
	 viewBox="0 0 186.7 36.6" enable-background="new 0 0 186.7 36.6" xml:space="preserve">
<g>
	<path fill-rule="evenodd" clip-rule="evenodd" d="M0,0h7.8c4.9,0,6.3,0,8.3,2.4c1,1,1.5,2.9,1.5,4.4c0,1.9-1,3.4-2.9,4.9
		c4.4,1.5,3.9,5.4,3.9,6.8c0,2-0.5,3.9-2.4,5.4c-2.4,1.9-3.4,2.4-7.8,2.4H0V0L0,0z M6.8,9.8h1.9c1,0,2.4,0,2.4-2
		c0-1.9-1.5-1.9-2.4-1.9H6.8V9.8L6.8,9.8z M6.8,20.5h2.4c1,0,3.4,0,2.9-2.4c0.5-2.4-1.5-2.4-2.9-2.4H6.8V20.5L6.8,20.5z"/>
	<polygon fill-rule="evenodd" clip-rule="evenodd" points="20.5,0 26.3,0 26.3,26.3 20.5,26.3 20.5,0 	"/>
	<path fill-rule="evenodd" clip-rule="evenodd" d="M38.5,5.8c7.3,0,10.7,5.4,10.7,10.7c0,4.4-3.4,10.2-10.7,10.2
		c-6.8,0-10.2-5.8-10.7-10.2C28.3,11.2,31.7,5.8,38.5,5.8L38.5,5.8z M38.5,21.5c2.9,0,4.9-2.4,4.9-4.9c0-3.4-2-5.4-4.9-5.4
		c-2.4,0-4.4,1.9-4.4,5.4C34.1,19,36.1,21.5,38.5,21.5L38.5,21.5z"/>
	<path fill-rule="evenodd" clip-rule="evenodd" d="M61.4,5.8c7.3,0,10.7,5.4,10.7,10.7c0,4.4-3.4,10.2-10.7,10.2
		c-7.3,0-10.7-5.8-10.7-10.2C50.7,11.2,54.1,5.8,61.4,5.8L61.4,5.8z M61.4,21.5c2.4,0,4.9-2.4,4.9-4.9c0-3.4-2.4-5.4-4.9-5.4
		c-2.4,0-4.9,1.9-4.9,5.4C56.6,19,59,21.5,61.4,21.5L61.4,21.5z"/>
	<path fill-rule="evenodd" clip-rule="evenodd" d="M73.6,6.3H79v2.4c0.5-1,1.9-2.9,5.4-2.9c2,0,4.4,0.5,5.9,3.4
		c1.5-1.9,3.4-3.4,6.3-3.4c1.5,0,3.9,0,5.4,1.9c1.9,2,1.9,3.4,1.9,7.8v10.7H98V15.6c0-1.5,0-4.4-2.9-4.4c-3.4,0-3.4,2.9-3.4,4.4
		v10.7h-5.8V15.6c0-1.5,0-4.4-2.9-4.4c-3.4,0-3.4,3.4-3.4,4.4v10.7h-5.9V6.3L73.6,6.3z"/>
	<path fill-rule="evenodd" clip-rule="evenodd" d="M106.3,0h6.3v8.3c1.9-2.4,4.9-2.4,5.4-2.4c4.4,0,10.2,2.9,9.7,10.2
		c0.5,7.3-4.9,10.7-9.7,10.7c-2.9,0-4.9-1.5-5.9-2.4v1.9h-5.9V0L106.3,0z M117,21.5c2.9,0,4.9-2.4,4.9-4.9c0-2.9-1.9-5.4-4.9-5.4
		c-2.9,0-4.9,2.4-4.9,5.4C112.1,19,114.1,21.5,117,21.5L117,21.5z"/>
	<path fill-rule="evenodd" clip-rule="evenodd" d="M150.2,20c-1,2.4-2.4,3.9-4.4,5.4c-1.5,1-3.4,1.5-5.4,1.5
		c-5.9,0-10.7-4.4-10.7-10.2c0-5.8,4.4-10.7,10.2-10.7c6.3,0,10.7,4.9,10.7,10.7c0,1,0,1,0,1.5h-15.1c0.5,2.4,2.4,3.9,4.9,3.9
		c1.9,0,2.9-1,3.4-2H150.2L150.2,20z M144.8,14.1c0-1-1.5-3.4-4.4-3.4c-2.9,0-4.4,2.4-4.9,3.4H144.8L144.8,14.1z"/>
	<path fill-rule="evenodd" clip-rule="evenodd" d="M153.1,6.3h5.4v2.4c1-1,3.4-2.4,5.8-1.9v5.4c-2.4,0-5.4,0-5.4,3.4v10.7h-5.9V6.3
		L153.1,6.3z"/>
	<path fill-rule="evenodd" clip-rule="evenodd" d="M186.7,23.9c0,2.9-0.5,6.8-1.5,8.3c-1.5,2.4-4.9,4.9-9.8,4.4
		c-6.8-1-8.8-3.9-9.3-6.8h6.3c1,1.5,2.9,1.5,3.4,2c2.9-0.5,4.9-0.5,4.4-6.8v-0.5c-0.5,1-2,2.4-5.4,2.4c-5.4,0-9.8-3.9-9.8-10.2
		c0-6.8,4.9-10.7,9.8-10.7c2.4,0,4.4,0.5,5.4,2.4v-2h6.3V23.9L186.7,23.9z M176,21.5c2.9,0,4.9-2,4.4-4.9c0.5-3.4-2-5.4-4.4-5.4
		c-2.4,0-4.9,1.9-4.9,5.4C171.1,19.5,173.6,21.5,176,21.5L176,21.5z"/>
</g>
</svg>
