<?xml version="1.0" encoding="utf-8"?>
<!-- Generator: Adobe Illustrator 18.0.0, SVG Export Plug-In . SVG Version: 6.00 Build 0)  -->
<!DOCTYPE svg PUBLIC "-//W3C//DTD SVG 1.1//EN" "http://www.w3.org/Graphics/SVG/1.1/DTD/svg11.dtd">
<svg version="1.1" id="Layer_1" xmlns="http://www.w3.org/2000/svg" xmlns:xlink="http://www.w3.org/1999/xlink" x="0px" y="0px"
	 viewBox="0 0 1611 166" enable-background="new 0 0 1611 166" xml:space="preserve">
<g>
	<defs>
		<rect id="SVGID_1_" x="0" y="0" width="1611" height="166"/>
	</defs>
	<clipPath id="SVGID_2_">
		<use xlink:href="#SVGID_1_"  overflow="visible"/>
	</clipPath>
	<g clip-path="url(#SVGID_2_)">
		<defs>
			<rect id="SVGID_3_" x="0" y="0" width="1611" height="166"/>
		</defs>
		<clipPath id="SVGID_4_">
			<use xlink:href="#SVGID_3_"  overflow="visible"/>
		</clipPath>
		<path clip-path="url(#SVGID_4_)" d="M0,137.2V119h14.3V31.2H0V13.1h57.3c26.3,0,42.4,12.2,42.4,33.4c0,13.9-8.1,22.5-18.4,26.5
			c14.8,4.1,25.2,14.5,25.2,28.9c0,22.7-17.5,35.3-46.2,35.3H0z M34,31.2V65h21.4c16,0,24.4-6,24.4-16.9c0-11.1-8.6-16.9-24.6-16.9
			H34z M34,119h24.4c18.8,0,28.2-6.2,28.2-18.2c0-11.8-10.1-18.2-29.7-18.2H34V119z"/>
		<path clip-path="url(#SVGID_4_)" d="M210.6,72.5C208.4,65.3,203.1,61,196,61c-16.5,0-32.1,12.2-32.1,34.4V119h31.7v18.2H125V119
			h20.1V64.2h-15.8V46h34.4v15.4c5.8-10.7,17.5-18.4,33.2-18.4c17.5,0,28.5,10.1,31.7,24.4L210.6,72.5z"/>
		<path clip-path="url(#SVGID_4_)" d="M306.8,84.1V79c0-12.8-10.3-18.2-21.4-18.2c-10.5,0-19.5,4.3-26.7,10.9l-12.4-13.5
			C254.8,50.3,267,43,285.4,43c22.9,0,40.7,12.2,40.7,35.3V119h13.3v18.2h-32.5v-9.6c-4.9,7.9-18.2,12.6-31.2,12.6
			c-18.8,0-35.1-9.6-35.1-28.7c0-22.5,22-31,42.2-31C292.5,80.5,300.6,82.4,306.8,84.1 M306.8,100.4c-6-2.1-15-3.9-23.3-3.9
			c-12,0-23.5,3.9-23.5,14.8c0,8.1,7.3,12,17.3,12c13.9,0,29.5-7.5,29.5-20.3V100.4z"/>
		<path clip-path="url(#SVGID_4_)" d="M453.6,119v18.2h-92V119h38.1V64.2h-29.1V46h47.9v73H453.6z M418.5,27.8h-21.2V0h21.2V27.8z"
			/>
		<path clip-path="url(#SVGID_4_)" d="M476.3,119h13.9V64.2h-13.1V46h31.7v11.8c5.6-9,17.1-14.8,31.2-14.8
			c20.3,0,34.9,12.8,34.9,33.6V119h13.9v18.2h-47.3V119h14.6V81.7c0-15.8-9.6-20.3-18.4-20.3c-14.3,0-28.7,10.7-28.7,27.2V119h14.6
			v18.2h-47.3V119z"/>
		<path clip-path="url(#SVGID_4_)" d="M614.8,64.2H591V46h23.7V13.1h18.8V46h44.3v18.2h-44.3v38.3c0,14.1,9.8,19.9,21.2,19.9
			c10.7,0,19.7-6,26.3-12.6l12.6,13.1c-8.3,9-21.2,17.3-38.9,17.3c-22.9,0-40-12.6-40-37V64.2z"/>
		<path clip-path="url(#SVGID_4_)" d="M796.4,72.5c-2.1-7.3-7.5-11.6-14.6-11.6c-16.5,0-32.1,12.2-32.1,34.4V119h31.7v18.2h-70.6
			V119h20.1V64.2h-15.8V46h34.4v15.4c5.8-10.7,17.5-18.4,33.2-18.4c17.5,0,28.5,10.1,31.7,24.4L796.4,72.5z"/>
		<path clip-path="url(#SVGID_4_)" d="M923.1,123.2c-9.4,9.8-26.1,16.9-44.7,16.9c-30.6,0-52-20.5-52-48.6c0-28,20.8-48.6,49.6-48.6
			c28.7,0,48.8,22,48.8,52v3.2h-78.5c3.2,15.2,15.8,24.4,32.3,24.4c13.7,0,25.5-5.6,31.9-12.6L923.1,123.2z M847.1,82.2h56.1
			c-2.8-13.1-14.3-21.8-27.2-21.8C861.5,60.3,850.3,69.3,847.1,82.2"/>
		<path clip-path="url(#SVGID_4_)" d="M1040.1,123.2c-9.4,9.8-26.1,16.9-44.7,16.9c-30.6,0-52-20.5-52-48.6
			c0-28,20.8-48.6,49.6-48.6c28.7,0,48.8,22,48.8,52v3.2h-78.5c3.2,15.2,15.8,24.4,32.3,24.4c13.7,0,25.5-5.6,31.9-12.6
			L1040.1,123.2z M964.2,82.2h56.1c-2.8-13.1-14.3-21.8-27.2-21.8C978.5,60.3,967.4,69.3,964.2,82.2"/>
		<rect x="1071.8" y="147.9" clip-path="url(#SVGID_4_)" width="86.4" height="18.2"/>
		<path clip-path="url(#SVGID_4_)" fill="#808285" d="M1300.1,75.1c0,36.6-22.3,62.1-64.4,62.1h-45.6V119h13.3V31.2h-13.3V13.1h45.6
			C1277.8,13.1,1300.1,38.5,1300.1,75.1 M1223,31.2V119h12.6c28.2,0,43.9-16.9,43.9-43.9c0-26.3-15.6-43.9-43.9-43.9H1223z"/>
		<path clip-path="url(#SVGID_4_)" fill="#808285" d="M1417.7,123.2c-9.4,9.8-26.1,16.9-44.7,16.9c-30.6,0-52-20.5-52-48.6
			c0-28,20.8-48.6,49.6-48.6c28.7,0,48.8,22,48.8,52v3.2h-78.5c3.2,15.2,15.8,24.4,32.3,24.4c13.7,0,25.5-5.6,31.9-12.6
			L1417.7,123.2z M1341.8,82.2h56.1c-2.8-13.1-14.3-21.8-27.2-21.8C1356.1,60.3,1345,69.3,1341.8,82.2"/>
		<polygon clip-path="url(#SVGID_4_)" fill="#808285" points="1483,137.2 1448.1,64.2 1436.8,64.2 1436.8,46 1481.5,46 1481.5,64.2 
			1469.3,64.2 1493.9,117 1518.3,64.2 1506.3,64.2 1506.3,46 1551.1,46 1551.1,64.2 1539.3,64.2 1504.4,137.2 		"/>
		<path clip-path="url(#SVGID_4_)" fill="#808285" d="M1590.9,100.8c11.8,0,20.1,8.3,20.1,19.7c0,11.3-8.3,19.5-20.1,19.5
			c-11.8,0-20.1-8.1-20.1-19.5C1570.8,109.1,1579.1,100.8,1590.9,100.8"/>
	</g>
</g>
</svg>
