<?xml version="1.0" encoding="utf-8"?>
<!-- Generator: Adobe Illustrator 18.0.0, SVG Export Plug-In . SVG Version: 6.00 Build 0)  -->
<!DOCTYPE svg PUBLIC "-//W3C//DTD SVG 1.1//EN" "http://www.w3.org/Graphics/SVG/1.1/DTD/svg11.dtd">
<svg version="1.1" id="Layer_1" xmlns="http://www.w3.org/2000/svg" xmlns:xlink="http://www.w3.org/1999/xlink" x="0px" y="0px"
	 viewBox="0 0 360 93.4" enable-background="new 0 0 360 93.4" xml:space="preserve">
<g>
	<path fill="#F15D22" d="M281.2,33.5V21.3h-8.1v0h-22.7c-10.3,0-19.7,5.9-23.8,15.3c-5.9,13.2-1.8,26.1,7.1,33.6
		c-5.9,5-9.6,12.4-9.8,20.6h0v2.6H237v-2.1h0c0-8,6.5-14.5,14.5-14.5c8,0,14.5,6.5,14.5,14.5h0v2.1h13.3v-2.6h0
		c-0.2-8.3-3.9-15.6-9.8-20.6c6-5.1,9.8-12.7,9.8-21.1c0-5.8-1.8-11.1-4.8-15.5l0,0H281.2z M264.3,56.1c-1.2,2.5-3.2,4.5-5.7,5.7
		c-13.2,6.5-26.4-6.6-19.9-19.9c1.2-2.5,3.2-4.5,5.7-5.7C257.7,29.8,270.8,42.9,264.3,56.1z"/>
	<path fill="#40474F" d="M177,57.7c-0.4,0-0.7,0-1.1,0c-5.2,0-7.4-2.4-7.4-8.2V33.4h8.6V21.2h-8.6V9.1H155v40.4
		c0,13.1,7.1,20.9,19,20.9c1,0,2.1-0.1,3.2-0.2l0.6-0.1V57.7L177,57.7z"/>
	<rect x="183.4" y="0" fill="#F15D22" width="13.6" height="70.3"/>
	<g>
		<rect x="204.5" y="4.6" fill="#F15D22" width="13.6" height="12.7"/>
		<rect x="204.5" y="21.2" fill="#F15D22" width="13.6" height="49.1"/>
	</g>
	<path fill="#F15D22" d="M310.8,20c-3.7,0-7.2,1.1-10.3,3.1V0h-13.7v70.3h13.7V41.7c0-5,3.5-8.4,8.6-8.4c3.1,0,8.2,1.1,8.2,8.4v28.6
		H331V41.7C331,28.7,322.9,20,310.8,20z"/>
	<path fill="#F15D22" d="M359.3,57.7c-0.4,0-0.7,0-1.1,0c-5.2,0-7.4-2.4-7.4-8.2V33.4h8.6V21.2h-8.6V9.1h-13.6v40.4
		c0,13.1,7.1,20.9,19,20.9c1,0,2.1-0.1,3.2-0.2l0.6-0.1V57.7L359.3,57.7z"/>
	<g>
		<path fill="#40474F" d="M77.6,20c-14.4,0-25.2,11.1-25.2,25.8c0,14.1,10.6,25.5,23.6,25.5c5.4,0,10.3-1.8,13.9-5.1v4h12.9V45.8
			C102.8,31.1,91.9,20,77.6,20z M77.6,58.7c-7.1,0-12.9-5.8-12.9-12.9c0-7.1,5.8-12.9,12.9-12.9c7.1,0,12.9,5.8,12.9,12.9
			C90.5,52.9,84.7,58.7,77.6,58.7z"/>
	</g>
	<g>
		<path fill="#40474F" d="M36.1,52.8c-2.3,3.5-6.3,5.9-10.8,5.9c-7.1,0-12.9-5.8-12.9-12.9c0-7.1,5.8-12.9,12.9-12.9
			c4.5,0,8.4,2.3,10.7,5.7h13.1L49,37.8C46.1,26.8,37.1,20,25.3,20C10.9,20,0,31.1,0,45.8c0,14.6,10.9,25.6,25.3,25.6
			c12,0,20.9-6.6,23.7-17.7l0.2-0.8H36.1z"/>
	</g>
	<g>
		<path fill="#40474F" d="M106.5,54.3L106.5,54.3c1.5,10.3,10.5,17,23,17c12.5,0,21.3-6.8,21.3-16.4c0-10.9-9.4-13.3-20.8-15.2
			c-5.6-0.9-9.6-1.7-9.6-4.3c0-1.8,2.5-3.8,8.1-3.8c4.2,0,7.3,1.5,8.1,4l0,0h12.9l0,0c-1.6-9.2-9.9-15.2-21-15.2
			c-14.3,0-20.7,8.1-20.7,15.6c0,11.4,13.2,13.5,20.3,14.5c8.6,1.3,10.2,2.5,10.2,5.2c0,2.7-3.3,4.3-8.7,4.3c-4,0-8.8-1.7-10.3-5.6
			l0,0H106.5z"/>
	</g>
	<g>
		<path fill="#40474F" d="M298,93.4h-2.6v-5.8h-5.9v5.8h-2.6V79.6h2.6v5.5h5.9v-5.5h2.6V93.4z"/>
		<path fill="#40474F" d="M311.2,93.4H301V79.6H311v2.4h-7.4V85h6.4v2.4h-6.4V91h7.6V93.4z"/>
		<path fill="#40474F" d="M316.8,90.7l-0.9,2.8h-2.8l4.8-13.8h3.3l4.8,13.8h-2.8l-0.9-2.8H316.8z M319.6,82.6l-1.9,5.7h3.8
			L319.6,82.6z"/>
		<path fill="#40474F" d="M330.9,91h6.8v2.4h-9.5V79.6h2.6V91z"/>
		<path fill="#40474F" d="M342.9,82.1v11.3h-2.6V82.1h-3.7v-2.4h10v2.4H342.9z"/>
		<path fill="#40474F" d="M360,93.4h-2.6v-5.8h-5.9v5.8h-2.6V79.6h2.6v5.5h5.9v-5.5h2.6V93.4z"/>
	</g>
</g>
</svg>
