<?xml version="1.0" encoding="UTF-8" standalone="no"?>
<svg width="558px" height="563px" viewBox="0 0 558 563" version="1.1" xmlns="http://www.w3.org/2000/svg" xmlns:xlink="http://www.w3.org/1999/xlink" xmlns:sketch="http://www.bohemiancoding.com/sketch/ns">
    <!-- Generator: Sketch 3.3.2 (12043) - http://www.bohemiancoding.com/sketch -->
    <title>citris</title>
    <desc>Created with Sketch.</desc>
    <defs></defs>
    <g id="Page-1" stroke="none" stroke-width="1" fill="none" fill-rule="evenodd" sketch:type="MSPage">
        <g id="citris" sketch:type="MSLayerGroup">
            <g id="Group" sketch:type="MSShapeGroup">
                <path d="M509.2,280.2 C509.2,408.7 405,512.8 276.6,512.8 C148.1,512.8 44,408.6 44,280.2 C43.8,151.7 148,47.5 276.6,47.5 C405,47.5 509.2,151.7 509.2,280.2 L509.2,280.2 Z" id="Shape" fill="#004A7C"></path>
                <g transform="translate(128.000000, 140.000000)" id="Shape">
                    <g>
                        <path d="M151.5,195.1 C190,195.1 225,185.8 252.2,170.7 L251.6,170.3 C233.8,176.8 213.1,180.4 191.1,180.4 C120.2,180.4 62.7,143.3 62.7,97.5 C62.7,51.7 120.3,14.6 191.1,14.6 C213.2,14.6 233.9,18.3 251.3,24.6 L251.9,24.2 C225.2,9.2 190,1.13686838e-13 151.6,1.13686838e-13 C68.1,1.13686838e-13 0.6,43.6 0.6,97.6 C0.3,151.5 67.9,195.1 151.5,195.1 L151.5,195.1 Z" fill="#FFFFFF"></path>
                        <path d="M290,128.5 C276.3,140.8 253.5,148.8 227.8,148.8 C184.1,148.8 148.5,125.9 148.5,97.6 C148.5,69.3 183.9,46.4 227.8,46.4 C253.5,46.4 276.3,54.3 290,66.7 L290.6,66.3 C272.8,42.1 234.1,25.1 188.9,25.1 C126.7,25.1 76.6,57.5 76.6,97.6 C76.6,137.7 126.7,170.1 188.9,170.1 C233.7,170.1 272.2,153.2 290.6,128.9 L290,128.5 L290,128.5 Z" fill="#F26522"></path>
                        <path d="M288.9,116.8 C280.7,124.1 267.3,128.8 251.9,128.8 C225.8,128.8 204.8,115.2 204.8,98.4 C204.8,81.6 225.9,68 251.9,68 C267.2,68 280.7,72.7 288.9,80 L289.3,79.7 C278.8,65.4 255.7,55.1 228.9,55.1 C191.9,55.1 162.1,74.3 162.1,98.2 C162.1,122.1 191.9,141.3 228.9,141.3 C255.5,141.3 278.4,131.3 289.3,116.7 L288.9,116.7 L288.9,116.8 Z" fill="#F7941E"></path>
                        <path d="M281.3,106.9 C277.5,110.5 270.9,112.7 263.5,112.7 C251,112.7 240.9,106.2 240.9,98.1 C240.9,90 251,83.5 263.5,83.5 C270.8,83.5 277.3,85.8 281.3,89.3 L281.6,89.2 C276.5,82.3 265.5,77.4 252.6,77.4 C234.8,77.4 220.5,86.6 220.5,98.1 C220.5,109.6 234.8,118.8 252.6,118.8 C265.4,118.8 276.4,113.9 281.6,107 L281.3,106.9 L281.3,106.9 Z" fill="#FFC20E"></path>
                    </g>
                    <g transform="translate(0.000000, 219.000000)" stroke="#FFFFFF" fill="#FFFFFF">
                        <path d="M54.3,52.6 C52.6,54.4 50.7,55.9 48.5,57.3 C46.3,58.7 43.9,59.9 41.3,60.8 C38.6,61.7 35.7,62.2 32.3,62.2 C27.4,62.2 23.1,61.4 19.3,59.9 C15.5,58.4 12.3,56.6 10,54.3 C6.9,51.4 4.6,48 3,44.2 C1.3,40.4 0.4,36.1 0.4,31.4 C0.4,26.8 1.2,22.4 2.8,18.7 C4.5,15 6.6,11.7 9.6,9 C12.5,6.3 16,4.3 19.8,2.9 C23.8,1.5 28,0.9 32.7,0.9 C35.5,0.9 38.1,1.3 40.5,1.9 C42.9,2.5 45.1,3.4 47,4.7 C48.9,5.9 50.7,7.4 52.4,8.9 C54.1,10.6 55.5,12.4 56.6,14.3 L53,16.5 C52,14.8 50.7,13.3 49.4,11.9 C48.1,10.5 46.6,9.2 44.9,8.2 C43.2,7.2 41.3,6.3 39.4,5.8 C37.4,5.2 35.2,4.9 32.7,4.9 C29.4,4.9 25.9,5.4 22.6,6.4 C19.3,7.4 16.2,9 13.6,11.1 C10.9,13.3 8.7,16.1 7.1,19.4 C5.4,22.7 4.7,26.8 4.7,31.7 C4.7,36.2 5.5,40.1 7,43.5 C8.5,46.8 10.6,49.6 13.1,51.8 C15.7,54 18.6,55.6 21.9,56.7 C25.2,57.9 28.7,58.4 32.3,58.4 C35.1,58.4 37.8,58 40.1,57.1 C42.4,56.2 44.6,55.2 46.5,53.9 C48.4,52.6 50.1,51.2 51.5,49.7 C52.9,48.2 54.1,46.6 55.1,45.4 L58.6,47.8 C57.4,49.1 56,50.9 54.3,52.6 L54.3,52.6 Z"></path>
                        <path d="M70,61 L70,1.9 L74.3,1.9 L74.3,61 L70,61 L70,61 Z"></path>
                        <path d="M116.1,6 L116.1,61 L111.8,61 L111.8,6 L88.5,6 L88.5,1.9 L139.4,1.9 L139.4,6 L116.1,6 L116.1,6 Z"></path>
                        <path d="M202.2,61 L176.9,36.4 L157.3,36.4 L157.3,61 L153,61 L153,1.9 L173.3,1.9 C183.4,1.9 190.8,3.4 195.6,6.4 C200.2,9.3 202.6,13.4 202.6,18.8 C202.6,21.2 202.1,23.4 201.1,25.3 C200.1,27.2 198.7,29 196.9,30.5 C195.1,32 192.9,33.3 190.5,34.2 C188.1,35.2 185.4,35.9 182.6,36.1 L208.4,61 L202.3,61 L202.3,61 L202.2,61 Z M197.2,14.2 C196.6,12.7 195.4,11.3 193.5,10.1 C191.7,8.9 189,7.9 185.7,7.2 C182.4,6.4 178,6 172.5,6 L157.2,6 L157.2,32.3 L177.9,32.3 C181.2,32.3 184.2,31.9 186.7,31.1 C189.3,30.3 191.3,29.3 193,27.9 C194.7,26.6 195.9,25.2 196.8,23.6 C197.7,21.9 198.1,20.3 198.1,18.6 C198.1,17.3 197.7,15.8 197.2,14.2 L197.2,14.2 Z"></path>
                        <path d="M222.6,61 L222.6,1.9 L226.9,1.9 L226.9,61 L222.6,61 L222.6,61 Z"></path>
                        <path d="M292.5,51.4 C291.2,53.6 289.4,55.4 287,56.9 C284.6,58.6 281.8,59.8 278.4,60.7 C275.1,61.6 271.4,62.1 267.4,62.1 C260.7,62.1 255.2,61.2 251,59.5 C246.8,57.7 243.3,55.3 240.5,52.1 L243.8,49.3 C246,52 248.9,54.2 252.8,55.7 C256.6,57.4 261.5,58.1 267.5,58.1 C271.2,58.1 274.5,57.7 277.3,56.8 C280.1,55.9 282.5,54.9 284.7,53.5 C286.4,52.3 287.8,51.1 288.7,49.4 C289.6,47.9 290.1,46.2 290.1,44.4 C290.1,42.1 289.6,40.2 288.4,38.9 C287.2,37.6 286.1,36.6 284.8,35.8 C284.2,35.4 283.4,35 282.5,34.8 C281.6,34.4 280.5,34 279.2,33.6 C277.8,33.2 276.1,32.8 274.2,32.3 C272.2,31.8 269.7,31.3 266.8,30.6 C263.7,30 261.2,29.3 259.3,28.8 C257.4,28.3 255.7,27.9 254.4,27.5 C253.1,27.1 252.1,26.7 251.2,26.5 C250.3,26.1 249.7,25.9 248.9,25.5 C247.4,24.6 245.8,23.3 244.6,21.7 C243.3,19.9 242.7,17.7 242.7,14.9 C242.7,13 243.2,10.9 244.4,9 C245.6,7.1 247.3,5.4 249.9,4.1 C252.2,2.8 254.9,2.1 257.8,1.4 C260.9,0.9 264.2,0.6 267.9,0.6 C271.2,0.6 274.2,0.9 276.6,1.2 C279.2,1.6 281.3,2.2 283.3,3.1 C285.2,4 286.9,5 288.3,6.3 C289.7,7.6 290.9,9 291.8,10.6 L288.1,12.6 C287.3,11.3 286.4,10.2 285.3,9.1 C284.1,8.1 282.9,7.3 281.3,6.5 C279.6,5.9 277.8,5.2 275.7,5 C273.5,4.6 271,4.5 268,4.5 C264.8,4.5 261.7,4.8 258.9,5.3 C256.1,5.8 253.8,6.6 252,7.5 C248.8,9.3 247.1,11.7 247.1,14.9 C247.1,16.6 247.5,17.8 248.4,19.1 C249.2,20.3 250.3,21.3 251.7,21.9 C252.5,22.3 253.2,22.7 254.1,22.9 C255,23.2 256.1,23.5 257.4,23.9 C258.8,24.3 260.3,24.7 262.4,25.1 C264.3,25.5 266.7,26 269.6,26.6 C272,27.1 274.2,27.6 276.1,28.1 C278,28.5 279.7,29 281.1,29.4 C282.6,29.8 283.9,30.3 284.9,30.8 C286.1,31.3 287.1,31.8 288.1,32.5 C289.8,33.5 291.3,35.1 292.6,37 C293.9,38.9 294.6,41.2 294.6,44 C294.4,47 293.7,49.3 292.5,51.4 L292.5,51.4 Z"></path>
                    </g>
                </g>
                <g id="Shape" fill="#004A7C">
                    <path d="M33.2,356.5 C34.2,356.9 35.1,357.4 36,358.2 C36.9,358.8 37.7,359.6 38.4,360.6 C39.2,361.5 39.8,362.6 40.2,363.9 C40.8,365.8 41.2,367.6 41.2,369.4 C41.2,371.2 40.8,372.6 40.3,374 C39.7,375.7 38.6,377.1 37.4,378.2 C36.2,379.3 34.6,380.4 32.7,381 C30.9,381.6 29.1,382 27.3,381.9 C25.5,381.8 24,381.4 22.4,380.6 C20.9,379.8 19.6,378.7 18.4,377.4 C17.2,376 16.4,374.5 15.7,372.5 C15.3,371.3 15.1,370.3 14.9,369.2 C14.8,368.2 14.9,367.2 15.2,366.1 C15.5,365.1 15.7,364.2 16.2,363.3 C16.7,362.4 17.2,361.5 17.9,360.7 L19.7,362.1 C18.7,363.5 17.9,364.9 17.5,366.4 C17.1,367.9 17.2,369.7 17.9,371.5 C18.4,372.8 19.1,374.1 19.8,375.2 C20.7,376.4 21.6,377.2 22.9,378 C24.1,378.8 25.5,379.2 27,379.3 C28.5,379.4 30.2,379.2 32,378.5 C33.7,377.9 35.1,377.1 36.2,375.9 C37.2,374.9 38,373.7 38.5,372.4 C39,371.1 39.3,369.8 39.1,368.3 C39.1,366.9 38.8,365.5 38.3,364.2 C37.9,363 37.4,362.2 36.8,361.4 C36.2,360.6 35.4,360 34.6,359.4 C33.8,358.9 33.1,358.4 32.2,358.1 C31.4,357.7 30.7,357.5 29.9,357.3 L30.5,355.1 C31.3,355.7 32.3,356.1 33.2,356.5 L33.2,356.5 Z"></path>
                    <path d="M35.4,350.5 L11.1,356.8 L6.9,340.3 L9.1,339.8 L12.8,354 L21.1,351.8 L18.2,340.3 L20.4,339.8 L23.3,351.3 L32.6,348.9 L28.8,334.3 L31,333.8 L35.4,350.5 L35.4,350.5 Z"></path>
                    <path d="M27.2,311.1 C22.9,316 19.1,320.1 16.2,323.4 C13.3,326.7 10.8,329.4 8.9,331.5 C10.9,331.1 13.8,330.7 17.2,330.1 C20.7,329.6 24.9,328.8 29.9,328.1 L30.3,330.4 L5.6,334.4 L5.2,332.4 C9.5,327.5 13.3,323.4 16.2,320.1 C19.3,316.8 21.6,314.1 23.4,312 C21.4,312.4 18.5,312.8 15.1,313.4 C11.6,313.9 7.4,314.7 2.4,315.4 L2,313 L26.7,309 L27.2,311.1 L27.2,311.1 Z"></path>
                    <path d="M3,294.1 L25.8,292.8 L25.9,295.1 L3.1,296.4 L3.6,306 L1.3,306.1 L2.84217094e-14,284.5 L2.2,284.4 L3,294.1 L3,294.1 Z"></path>
                    <path d="M25.2,279.2 L0.1,278.4 L0.6,261.4 L2.8,261.4 L2.4,276.1 L11,276.4 L11.4,264.5 L13.7,264.6 L13.3,276.5 L23,276.8 L23.5,261.7 L25.8,261.7 L25.2,279.2 L25.2,279.2 Z"></path>
                    <path d="M28.7,236.4 L17.3,245.5 L16.4,253.2 L26.5,254.5 L26.2,256.8 L1.4,253.7 L2.4,245.1 C2.9,240.9 3.9,237.9 5.5,236 C7,234.2 9,233.3 11.3,233.7 C12.3,233.8 13.1,234.2 14,234.7 C14.8,235.2 15.4,235.9 15.9,236.6 C16.4,237.3 16.9,238.3 17.2,239.3 C17.5,240.3 17.7,241.3 17.7,242.5 L29.3,233 L28.7,236.4 L28.7,236.4 Z M9,236.1 C8.4,236.2 7.8,236.6 7.2,237.3 C6.7,237.9 6,239 5.7,240.2 C5.2,241.5 4.8,243.3 4.5,245.4 L3.7,251.4 L14.1,252.7 L15.1,244.5 C15.2,243.2 15.2,241.9 15.1,240.9 C14.8,239.9 14.6,239 14.2,238.2 C13.8,237.4 13.3,236.9 12.7,236.5 C12.1,236.1 11.4,235.9 10.8,235.7 C10.3,236 9.6,236 9,236.1 L9,236.1 Z"></path>
                    <path d="M10.9,211.4 L19.2,213.7 L22.3,202.2 L24.5,202.8 L21.4,214.3 L32.9,217.5 L32.3,219.8 L8.1,213.3 L12.6,196.9 L14.8,197.5 L10.9,211.4 L10.9,211.4 Z"></path>
                    <path d="M39.6,175.9 C40.9,177.2 41.8,178.6 42.3,180.2 C42.8,181.7 43.1,183.4 43.1,185.2 C43,186.9 42.7,188.7 42.1,190.3 C41.5,191.9 40.6,193.5 39.5,194.8 C38.5,196.2 37.2,197.2 35.7,198 C34.3,198.8 32.6,199.3 30.8,199.4 C29,199.5 27.1,199.3 25,198.5 C23,197.7 21.3,196.7 20,195.4 C18.7,194.1 17.8,192.7 17.3,191.2 C16.8,189.7 16.5,188 16.5,186.2 C16.6,184.4 16.9,182.7 17.5,181.1 C18.1,179.5 18.9,177.9 20.1,176.6 C21.1,175.2 22.4,174.2 23.9,173.4 C25.3,172.6 27,172.1 28.8,172 C30.6,171.9 32.5,172.1 34.6,172.9 C36.8,173.6 38.3,174.6 39.6,175.9 L39.6,175.9 Z M33.8,175 C32.1,174.4 30.5,174.1 29.1,174.2 C27.6,174.3 26.3,174.7 25,175.4 C23.8,176 22.7,176.9 21.8,178.1 C20.9,179.3 20.1,180.5 19.6,181.9 C19.1,183.3 18.8,184.7 18.7,186.1 C18.6,187.5 18.8,188.9 19.3,190.2 C19.8,191.5 20.6,192.6 21.6,193.8 C22.6,194.8 24,195.7 25.7,196.4 C27.4,197 29,197.3 30.4,197.2 C31.9,197.1 33.2,196.7 34.4,196 C35.6,195.4 36.7,194.5 37.6,193.3 C38.5,192.1 39.3,190.9 39.8,189.6 C40.3,188.2 40.6,186.8 40.7,185.4 C40.7,184 40.6,182.6 40.1,181.3 C39.6,180 38.8,178.9 37.8,177.7 C36.9,176.5 35.5,175.6 33.8,175 L33.8,175 L33.8,175 Z"></path>
                    <path d="M58.2,153.7 L44.4,158.4 L40.9,165.2 L50,169.8 L49,171.8 L26.7,160.4 L30.7,152.7 C32.6,149 34.7,146.4 36.6,145.3 C38.6,144 40.7,144 42.7,145 C43.6,145.5 44.2,146 44.9,146.8 C45.4,147.6 45.8,148.3 46.1,149.4 C46.4,150.3 46.5,151.3 46.4,152.3 C46.4,153.3 46.1,154.5 45.8,155.5 L60,150.6 L58.2,153.7 L58.2,153.7 Z M40,146.7 C39.4,146.6 38.7,146.8 38,147.2 C37.2,147.6 36.5,148.4 35.6,149.4 C34.7,150.4 33.7,152 32.8,154 L30.1,159.4 L39.3,164.1 L43,156.8 C43.6,155.6 44,154.5 44.2,153.3 C44.3,152.3 44.3,151.3 44.2,150.5 C44.1,149.7 43.8,149 43.3,148.3 C42.9,147.7 42.4,147.3 41.8,147 C41.1,147 40.6,146.8 40,146.7 L40,146.7 Z"></path>
                    <path d="M67.7,138.9 L47,124.8 L48.3,122.9 L69,137 L67.7,138.9 L67.7,138.9 Z"></path>
                    <path d="M84.3,116.4 C77.8,116.5 72.3,116.7 67.8,116.7 C63.3,116.8 59.7,116.8 56.9,116.8 C58.6,118.1 60.9,119.9 63.6,121.9 C66.3,124.1 69.7,126.6 73.7,129.8 L72.2,131.7 L52.5,116.2 L53.8,114.5 C60.3,114.4 65.8,114.2 70.3,114.2 C74.8,114.1 78.4,114.1 81,114.1 C79.3,112.8 77,111.2 74.3,109 C71.6,106.8 68.2,104.3 64.2,101.2 L65.6,99.3 L85.3,114.8 L84.3,116.4 L84.3,116.4 Z"></path>
                    <path d="M74.7,93 L81,98.9 L89.2,90.2 L90.9,91.7 L82.7,100.3 L91.4,108.5 L89.7,110.2 L71.5,93.2 L83.1,80.9 L84.8,82.4 L74.7,93 L74.7,93 Z"></path>
                    <path d="M117.1,75.1 C117.6,76.9 117.7,78.6 117.5,80.2 C117.2,81.9 116.7,83.4 115.8,84.9 C114.9,86.4 113.8,87.7 112.5,88.9 C111.2,90.1 109.7,90.9 108.2,91.7 C106.5,92.3 105,92.7 103.3,92.7 C101.6,92.7 100,92.4 98.3,91.7 C96.6,91.1 95.1,89.8 93.7,88.1 C92.3,86.4 91.3,84.8 90.8,83 C90.3,81.3 90.2,79.5 90.4,78 C90.7,76.3 91.2,74.8 92.1,73.3 C93,71.8 94.1,70.5 95.4,69.3 C96.7,68.1 98.2,67.3 99.7,66.5 C101.2,65.9 102.9,65.5 104.6,65.5 C106.3,65.5 107.9,65.8 109.6,66.5 C111.3,67.3 112.8,68.4 114.2,70.1 C115.5,71.6 116.6,73.3 117.1,75.1 L117.1,75.1 Z M112.3,71.5 C111.1,70.1 109.9,69.2 108.5,68.6 C107.1,68 105.8,67.7 104.4,67.7 C103,67.7 101.7,68 100.3,68.6 C99,69.1 97.7,70 96.6,70.9 C95.4,71.9 94.6,72.9 93.8,74.2 C93,75.4 92.6,76.8 92.4,78 C92.1,79.4 92.3,80.8 92.8,82.2 C93.2,83.6 94.1,85 95.2,86.4 C96.4,87.8 97.6,88.7 99,89.3 C100.4,89.9 101.7,90.2 103.1,90.2 C104.5,90.2 105.8,89.9 107.2,89.3 C108.5,88.8 109.8,88 110.9,87 C112.1,86 112.9,85 113.7,83.7 C114.5,82.4 114.9,81.1 115.1,79.9 C115.4,78.5 115.2,77.2 114.7,75.7 C114.4,74.3 113.5,72.9 112.3,71.5 L112.3,71.5 L112.3,71.5 Z"></path>
                    <path d="M143.7,64.6 L129.2,62.2 L122.9,66.5 L128.8,74.8 L126.9,76.1 L112.6,55.5 L119.6,50.5 C123.1,48.1 126,46.8 128.4,46.7 C130.8,46.6 132.6,47.5 133.9,49.4 C134.4,50.2 134.8,51.1 134.9,52 C135,52.9 135,53.8 134.8,54.8 C134.5,55.7 134.2,56.7 133.6,57.6 C133.1,58.5 132.3,59.4 131.6,60.2 L146.3,62.6 L143.7,64.6 L143.7,64.6 Z M130.8,49.8 C130.3,49.4 129.5,49.3 128.8,49.3 C127.9,49.3 126.9,49.6 125.6,50.1 C124.3,50.6 122.8,51.5 120.9,52.8 L115.9,56.3 L121.8,64.9 L128.6,60.2 C129.8,59.4 130.6,58.5 131.3,57.8 C131.9,56.9 132.5,56.1 132.7,55.4 C133,54.6 133.1,53.9 133,53.1 C132.9,52.3 132.6,51.8 132.2,51.2 C131.7,50.5 131.3,50.1 130.8,49.8 L130.8,49.8 Z"></path>
                    <path d="M177.4,46.6 C175.2,42.1 173.3,38.4 171.8,35.5 C170.3,32.4 169,30 168.1,28.1 C167.8,30.7 167.5,34 166.9,38.1 C166.4,42.2 165.9,47.2 165.1,52.9 L163.7,53.7 C158.6,50.8 154.2,48.3 150.7,46.3 C147.1,44.3 144.2,42.6 142,41.4 C143,43.3 144.3,45.7 145.8,48.8 C147.3,51.9 149.3,55.6 151.4,59.9 L149.2,60.9 L137.9,38.5 L139.9,37.5 C145.5,40.7 150.3,43.4 154,45.6 C157.8,47.8 160.8,49.4 163,50.7 C163.3,48.3 163.6,44.8 164.2,40.5 C164.7,36.2 165.4,30.8 166.1,24.4 L168.1,23.4 L179.5,45.8 L177.4,46.6 L177.4,46.6 Z"></path>
                    <path d="M203.4,37.1 L197.3,30.6 L186.7,34.3 L185.9,43.3 L183.5,44.1 L185.7,16.9 L187.1,16.4 L205.9,36.4 L203.4,37.1 L203.4,37.1 Z M191.5,24.3 C190.9,23.7 190.2,22.9 189.6,22.3 C189,21.7 188.3,20.9 187.7,20.3 C187.6,21.2 187.6,22.2 187.6,23.1 C187.6,24 187.5,24.9 187.5,25.8 L187,32 L195.7,28.9 L191.5,24.3 L191.5,24.3 Z"></path>
                    <path d="M209.8,11.8 L215.6,33.8 L213.3,34.4 L207.5,12.4 L198.2,14.8 L197.6,12.6 L218.6,7.1 L219.1,9.3 L209.8,11.8 L209.8,11.8 Z"></path>
                    <path d="M228.9,30.8 L224.2,6.2 L226.5,5.7 L231.2,30.3 L228.9,30.8 L228.9,30.8 Z"></path>
                    <path d="M262.1,19.3 C261.5,21 260.7,22.5 259.5,23.6 C258.3,24.9 256.9,25.8 255.4,26.5 C253.9,27.1 252.2,27.7 250.4,27.9 C248.6,28.1 246.9,28 245.3,27.6 C243.6,27.2 242.1,26.6 240.7,25.7 C239.3,24.8 238.1,23.5 237.2,22 C236.3,20.5 235.7,18.7 235.4,16.5 C235.1,14.3 235.4,12.4 235.9,10.7 C236.5,9 237.3,7.5 238.5,6.4 C239.7,5.3 241.1,4.2 242.6,3.5 C244.1,2.9 245.8,2.3 247.6,2.1 C249.4,2 251.1,2 252.7,2.4 C254.4,2.8 255.9,3.4 257.3,4.3 C258.7,5.2 259.9,6.5 260.8,8 C261.7,9.5 262.3,11.5 262.6,13.6 C262.9,15.7 262.8,17.7 262.1,19.3 L262.1,19.3 Z M260.3,13.8 C260.2,12 259.7,10.5 258.9,9.2 C258.1,7.9 257.2,6.9 256.1,6.1 C255,5.3 253.7,4.8 252.3,4.6 C250.9,4.3 249.5,4.2 248,4.5 C246.5,4.6 245.2,5 243.8,5.7 C242.5,6.2 241.4,7.1 240.5,8.1 C239.6,9.1 238.8,10.3 238.5,11.7 C238,13.1 237.9,14.8 238.1,16.6 C238.4,18.4 238.7,19.9 239.5,21.2 C240.3,22.5 241.3,23.5 242.3,24.3 C243.5,25.1 244.7,25.6 246.1,25.8 C247.5,26.1 248.9,26.2 250.4,25.9 C251.9,25.8 253.3,25.4 254.6,24.7 C255.9,24.2 257,23.3 257.9,22.3 C258.8,21.3 259.6,20.1 259.9,18.7 C260.3,17.1 260.5,15.6 260.3,13.8 L260.3,13.8 L260.3,13.8 Z"></path>
                    <path d="M288.6,26.1 C284.6,21 281.2,16.6 278.5,13.1 C275.7,9.5 273.5,6.7 271.8,4.5 C271.8,6.7 271.8,9.5 271.7,12.9 C271.7,16.4 271.6,20.7 271.4,25.7 L269,25.7 L269.4,0.6 L271.6,0.6 C275.6,5.7 279,10.1 281.8,13.6 C284.6,17.2 286.8,20 288.5,22 C288.5,19.8 288.5,17.1 288.6,13.6 C288.6,10.1 288.7,5.8 288.7,0.8 L291.1,0.8 L290.8,26 L288.6,26.1 L288.6,26.1 Z"></path>
                    <path d="M322.1,6.5 L318.6,29 L316.3,28.6 L319.8,6.1 L310.2,4.7 L310.6,2.4 L332,5.7 L331.6,7.9 L322.1,6.5 L322.1,6.5 Z"></path>
                    <path d="M332.1,31.5 L338.1,7.2 L354.6,11.3 L354.1,13.5 L339.8,9.9 L337.8,18.2 L349.3,21 L348.8,23.2 L337.3,20.4 L335,29.9 L349.7,33.5 L349.2,35.7 L332.1,31.5 L332.1,31.5 Z"></path>
                    <path d="M372,39.4 C371.1,39.9 370.1,40.3 369.1,40.6 C368.1,40.9 366.9,41 365.6,41 C364.4,41 363.2,40.7 361.9,40.4 C360,39.8 358.3,38.9 357,37.7 C355.7,36.5 354.7,35.4 354.1,34.1 C353.2,32.6 352.8,30.9 352.6,29.1 C352.5,27.3 352.7,25.5 353.4,23.6 C354,21.8 354.9,20.1 356.1,18.9 C357.3,17.6 358.7,16.6 360.2,16 C361.7,15.4 363.4,15 365.2,15 C367,15 368.8,15.3 370.7,15.9 C371.9,16.3 372.9,16.8 373.8,17.4 C374.7,18 375.5,18.7 376.1,19.4 C376.7,20.1 377.3,21.1 377.6,22 C378,22.9 378.4,23.9 378.6,24.9 L376.3,25.4 C375.9,23.7 375.3,22.2 374.3,20.9 C373.4,19.6 371.9,18.6 370.1,18 C368.8,17.6 367.4,17.2 366,17.2 C364.6,17.1 363.2,17.3 361.9,17.8 C360.6,18.3 359.5,19.1 358.3,20.1 C357.3,21.3 356.4,22.7 355.7,24.4 C355.1,26.1 354.9,27.7 355.1,29.3 C355.2,30.7 355.7,32.1 356.4,33.3 C357,34.5 358.1,35.5 359.1,36.4 C360.3,37.3 361.5,37.9 362.8,38.3 C363.8,38.7 365,38.8 366,38.8 C367,38.8 367.9,38.7 368.9,38.4 C369.8,38.1 370.7,37.8 371.5,37.4 C372.3,37 373,36.5 373.5,36.1 L374.9,38 C373.8,38.4 373,38.9 372,39.4 L372,39.4 Z"></path>
                    <path d="M393.2,53.1 L398.3,42.2 L382.7,34.9 L377.6,45.8 L375.4,44.8 L386.1,22 L388.3,23 L383.7,32.8 L399.3,40.1 L403.9,30.3 L406.1,31.3 L395.5,54.1 L393.2,53.1 L393.2,53.1 Z"></path>
                    <path d="M417.1,66.9 C416.2,60.4 415.4,55 414.9,50.5 C414.3,46 413.7,42.4 413.5,39.8 C412.3,41.6 410.9,44 409.2,47.1 C407.4,50.2 405.2,53.8 402.5,58.1 L400.5,56.8 L413.5,35.3 L415.3,36.5 C416.2,42.9 417,48.4 417.5,52.9 C418.1,57.4 418.7,61 418.9,63.6 C419.9,61.8 421.5,59.4 423.2,56.4 C425,53.5 427.2,49.7 429.9,45.4 L431.9,46.7 L419,67.9 L417.1,66.9 L417.1,66.9 Z"></path>
                    <path d="M448.3,81.6 C446.6,82.4 445.1,82.9 443.4,82.9 C441.7,83 440.1,82.8 438.4,82.1 C436.7,81.5 435.2,80.7 433.9,79.5 C432.5,78.5 431.3,77.2 430.3,75.8 C429.3,74.4 428.6,72.9 428.4,71.2 C428,69.5 428.1,67.9 428.5,66.1 C428.9,64.3 429.8,62.6 431.1,60.9 C432.4,59.2 433.9,58 435.6,57.1 C437.3,56.3 438.8,55.8 440.5,55.8 C442.2,55.8 443.8,55.9 445.5,56.6 C447.2,57.2 448.7,58 450,59.2 C451.4,60.2 452.6,61.5 453.6,62.9 C454.6,64.3 455.3,65.8 455.5,67.5 C455.9,69.2 455.8,70.8 455.4,72.6 C455,74.4 454.1,76.1 452.8,77.8 C451.4,79.6 449.9,80.8 448.3,81.6 L448.3,81.6 Z M450.9,76.4 C452.1,75 452.7,73.5 453.1,72.1 C453.5,70.7 453.5,69.3 453.2,67.9 C452.9,66.6 452.4,65.3 451.5,64.1 C450.7,62.9 449.7,61.8 448.6,60.9 C447.4,60 446.2,59.2 444.8,58.7 C443.4,58.2 442.1,58.1 440.7,58.1 C439.3,58.2 438,58.5 436.6,59.3 C435.3,59.9 434,61.1 432.9,62.5 C431.7,63.9 431,65.4 430.7,66.8 C430.3,68.2 430.3,69.6 430.6,71 C430.9,72.4 431.4,73.6 432.3,74.8 C433.1,76 434.1,77.1 435.2,78 C436.4,78.9 437.6,79.7 439,80 C440.3,80.5 441.7,80.8 443.1,80.6 C444.5,80.6 445.8,80.2 447.2,79.4 C448.6,78.8 449.7,77.8 450.9,76.4 L450.9,76.4 L450.9,76.4 Z"></path>
                    <path d="M449.1,91.6 L466.5,73.6 L468.2,75.3 L452.5,91.7 L463.8,102.6 L462.3,104.3 L449.1,91.6 L449.1,91.6 Z"></path>
                    <path d="M483.6,118.4 C481.8,118.9 480.1,119 478.5,118.8 C476.9,118.6 475.3,117.9 473.8,117.1 C472.3,116.2 471,115.1 469.8,113.8 C468.6,112.5 467.8,111 467.1,109.5 C466.5,108 466.1,106.3 466.1,104.6 C466.1,102.9 466.5,101.3 467.1,99.6 C467.9,97.9 469,96.4 470.7,95 C472.4,93.6 474,92.6 475.8,92.2 C477.6,91.7 479.3,91.6 480.9,91.8 C482.6,92.1 484.1,92.7 485.6,93.6 C487.1,94.5 488.4,95.6 489.6,96.9 C490.8,98.2 491.6,99.7 492.4,101.2 C493,102.7 493.4,104.4 493.4,106.1 C493.4,107.8 493,109.4 492.4,111.1 C491.6,112.8 490.5,114.3 488.8,115.7 C487.1,117 485.4,118.1 483.6,118.4 L483.6,118.4 Z M487.2,113.8 C488.6,112.6 489.6,111.4 490.1,110 C490.7,108.6 491,107.3 491,105.9 C491,104.5 490.7,103.2 490.1,101.8 C489.6,100.4 488.7,99.2 487.8,98.1 C486.8,96.9 485.8,96.1 484.5,95.3 C483.2,94.5 481.9,94.1 480.7,93.9 C479.3,93.6 478,93.8 476.5,94.2 C475.1,94.6 473.7,95.4 472.3,96.6 C470.9,97.8 469.9,99 469.4,100.4 C468.8,101.8 468.5,103.1 468.5,104.5 C468.5,105.9 468.8,107.2 469.4,108.6 C469.9,109.9 470.7,111.2 471.7,112.3 C472.7,113.5 473.7,114.3 475,115.1 C476.3,115.9 477.6,116.4 478.8,116.5 C480.2,116.8 481.5,116.6 483,116.2 C484.4,115.8 485.8,115 487.2,113.8 L487.2,113.8 L487.2,113.8 Z"></path>
                    <path d="M509.6,134.8 C509.9,133.9 510.1,133 510.2,132.2 C510.3,131.4 510.5,130.7 510.3,129.9 C510.2,129.1 510,128.4 509.8,127.7 C509.5,126.9 509.2,126.3 508.6,125.4 C508,124.4 507.1,123.5 506,122.6 C504.9,121.7 503.8,121.1 502.4,120.7 C501.1,120.3 499.7,120.2 498.1,120.3 C496.6,120.4 494.9,121.2 493.2,122.2 C491.8,123.2 490.6,124.2 489.9,125.5 C489.1,126.8 488.6,128.1 488.5,129.3 C488.4,130.7 488.4,132 488.8,133.4 C489.2,134.8 489.8,136.1 490.7,137.5 C491.3,138.5 492.2,139.4 493.3,140.3 C494.3,141.2 495.3,141.8 496.5,142.5 L501.4,139.2 L496,131.3 L497.9,130 L504.6,139.8 L496.9,145 C495.9,144.6 495.1,144.2 494.3,143.7 C493.5,143.2 492.8,142.8 492.1,142.3 C491.5,141.8 490.8,141.1 490.3,140.5 C489.8,139.9 489.1,139.2 488.8,138.5 C487.8,137.1 487.1,135.4 486.6,133.8 C486.2,132.1 486.1,130.5 486.3,128.8 C486.6,127.1 487.1,125.6 488,124.1 C488.9,122.6 490.2,121.3 492,120.1 C493.9,118.8 495.8,117.9 497.8,117.8 C499.7,117.5 501.4,117.7 502.9,118.2 C504.4,118.7 506,119.5 507.2,120.5 C508.5,121.5 509.5,122.7 510.3,123.8 C510.9,124.8 511.6,125.8 511.8,126.7 C512.2,127.6 512.3,128.6 512.4,129.5 C512.5,130.4 512.4,131.4 512.3,132.3 C512.2,133.2 511.9,134.2 511.5,135.4 L509.6,134.8 L509.6,134.8 Z"></path>
                    <path d="M510.8,153.2 L501.5,158.3 L500.3,156.3 L509.6,151.2 L517,134.7 L518.4,137.1 L514.9,144.8 C514.4,145.8 513.9,146.8 513.5,148 C513,149 512.6,150 512.1,151.2 C513.3,151.3 514.4,151.5 515.6,151.7 C516.8,151.8 517.9,152 519.1,152.2 L527.4,153.4 L528.8,155.8 L510.8,153.2 L510.8,153.2 Z"></path>
                    <path d="M520,200.7 L525.9,187.3 L523.2,180.1 L513.6,183.7 L512.7,181.5 L536.1,172.7 L539.2,180.8 C540.7,184.8 541.2,188 540.7,190.3 C540.2,192.6 538.9,194.1 536.7,195 C535.8,195.4 534.9,195.5 533.9,195.4 C533,195.3 532.1,195 531.2,194.6 C530.3,194.2 529.5,193.6 528.8,192.8 C528,192 527.4,191.1 526.9,190.1 L521,203.8 L520,200.7 L520,200.7 Z M537.5,191.9 C538,191.5 538.3,190.9 538.5,190 C538.8,189.1 538.8,188.1 538.5,186.7 C538.2,185.3 537.9,183.6 537,181.5 L534.8,175.9 L525.1,179.6 L528,187.3 C528.5,188.6 529,189.6 529.7,190.5 C530.4,191.4 531,192 531.7,192.4 C532.5,192.8 533.1,193.2 533.9,193.2 C534.7,193.3 535.3,193.2 535.9,192.9 C536.5,192.5 537,192.2 537.5,191.9 L537.5,191.9 Z"></path>
                    <path d="M521.9,207.5 L546.1,201.2 L550.4,217.7 L548.2,218.2 L544.5,204 L536.2,206.2 L539.3,217.7 L537.1,218.2 L534,206.7 L524.7,209.1 L528.5,223.7 L526.3,224.3 L521.9,207.5 L521.9,207.5 Z"></path>
                    <path d="M534.5,247.5 C533.5,247.1 532.6,246.5 531.8,245.6 C530.9,244.7 530.1,243.6 529.6,242.3 C529,241 528.6,239.5 528.3,237.8 C528,236.4 527.9,235.1 527.9,234 C527.9,232.9 528,231.8 528.3,230.8 C528.6,229.8 528.8,228.9 529.3,228.1 C529.7,227.3 530.2,226.4 530.8,225.7 L532.6,227.2 C531.6,228.4 530.9,229.6 530.4,231.3 C530,233 530,235 530.4,237.3 C530.7,238.8 531,240.1 531.6,241.1 C532.1,242.3 532.8,243.1 533.4,243.8 C533.9,244.3 534.6,244.8 535.2,245.1 C535.8,245.4 536.5,245.5 537.2,245.4 C538.1,245.3 538.7,244.9 539.2,244.4 C539.6,243.9 540,243.4 540.2,242.9 C540.3,242.6 540.5,242.3 540.5,241.9 C540.6,241.5 540.6,241.1 540.8,240.5 C540.9,240 540.9,239.2 541.1,238.5 C541.1,237.6 541.2,236.6 541.2,235.3 C541.3,234 541.3,232.9 541.5,232.1 C541.6,231.3 541.6,230.6 541.8,230.1 C541.8,229.6 541.9,229.1 542.1,228.7 C542.2,228.3 542.2,227.9 542.4,227.7 C542.5,227.3 542.7,226.9 542.9,226.5 C543.2,226.1 543.4,225.7 543.8,225.5 C544.2,225.2 544.6,225 545,224.7 C545.5,224.4 546,224.3 546.5,224.2 C547.4,224.1 548.2,224.2 549.2,224.5 C550.1,224.9 551,225.5 551.6,226.4 C552.2,227.3 552.8,228.3 553.3,229.6 C553.7,230.9 554.1,232.2 554.3,233.7 C554.6,235.1 554.7,236.3 554.6,237.4 C554.6,238.4 554.5,239.4 554.2,240.3 C553.9,241.2 553.6,242 553.2,242.6 C552.7,243.2 552.2,243.9 551.4,244.5 L550,242.6 C550.5,242.2 550.9,241.7 551.3,241.2 C551.7,240.7 551.9,240 552.1,239.4 C552.4,238.8 552.4,238 552.4,237 C552.4,236.1 552.3,235.1 552.1,233.9 C551.8,232.6 551.6,231.3 551.2,230.3 C550.8,229.1 550.3,228.4 549.9,227.7 C549,226.5 548,226.2 546.8,226.3 C546.2,226.4 545.8,226.7 545.4,227.1 C545,227.5 544.8,228 544.5,228.5 C544.4,228.9 544.4,229.1 544.2,229.5 C544.2,229.9 544.1,230.4 544.1,230.9 C544,231.4 544,232.2 544,232.9 C544,233.7 543.9,234.7 543.9,236 C543.9,237 543.8,237.9 543.8,238.7 C543.7,239.5 543.7,240.2 543.5,240.9 C543.4,241.5 543.4,242.1 543.2,242.6 C543.1,243.1 542.9,243.6 542.7,244 C542.6,244.4 542.3,244.8 542.1,245.2 C541.8,245.6 541.6,246 541.2,246.2 C540.8,246.6 540.4,246.8 539.9,247.1 C539.4,247.4 538.9,247.5 538.2,247.6 C536.6,248.1 535.6,248 534.5,247.5 L534.5,247.5 Z"></path>
                    <path d="M531,253.9 L555.9,252.1 L557.1,269.1 L554.9,269.2 L553.9,254.6 L545.3,255.2 L546.1,267.1 L543.9,267.2 L543.1,255.3 L533.5,255.9 L534.5,271 L532.2,271.1 L531,253.9 L531,253.9 Z"></path>
                    <path d="M531.7,294.8 L540,291.3 L540.3,280 L532.2,276.2 L532.2,273.6 L557,285.2 L557,286.7 L531.7,297.2 L531.7,294.8 L531.7,294.8 Z M548,288.2 C548.9,287.8 549.7,287.4 550.6,287.2 C551.5,286.8 552.4,286.4 553.3,286.2 C552.4,285.8 551.6,285.4 550.7,285 C549.9,284.6 549,284.2 548.3,283.8 L542.7,281.2 L542.4,290.5 L548,288.2 L548,288.2 Z"></path>
                    <path d="M528.5,323 L539.9,313.9 L540.9,306.2 L530.8,304.9 L531.1,302.6 L555.9,305.8 L554.9,314.4 C554.4,318.6 553.4,321.6 551.8,323.5 C550.3,325.3 548.3,326.1 546,325.8 C545,325.7 544.1,325.3 543.3,324.8 C542.5,324.3 541.9,323.6 541.4,322.9 C540.9,322.1 540.4,321.2 540.1,320.2 C539.8,319.2 539.6,318 539.6,317 L528,326.3 L528.5,323 L528.5,323 Z M548.2,323.2 C548.8,323.1 549.4,322.7 550,321.9 C550.5,321.3 551,320.2 551.5,319 C552,317.7 552.4,315.9 552.7,313.8 L553.5,307.8 L543.1,306.5 L542.1,314.7 C542,316.1 542,317.3 542.1,318.3 C542.2,319.3 542.6,320.2 543,321 C543.4,321.8 543.9,322.3 544.5,322.7 C545.1,323.1 545.7,323.3 546.4,323.5 C547.1,323.5 547.6,323.3 548.2,323.2 L548.2,323.2 Z"></path>
                    <path d="M526,350.5 C525.4,349.6 525,348.7 524.6,347.7 C524.2,346.7 524,345.5 523.8,344.4 C523.7,343.2 523.8,342 524.2,340.6 C524.7,338.6 525.5,336.9 526.4,335.5 C527.4,334.1 528.4,332.9 529.7,332.2 C531.2,331.2 532.8,330.5 534.6,330.3 C536.3,330 538.2,330 540.1,330.6 C542,331.1 543.7,331.9 545.1,332.9 C546.5,333.9 547.7,335.2 548.4,336.6 C549.2,338.1 549.7,339.7 549.9,341.5 C550.2,343.3 549.9,345.1 549.5,347 C549.2,348.2 548.9,349.2 548.3,350.1 C547.7,351 547.1,351.9 546.5,352.5 C545.7,353.3 545,353.8 544.1,354.3 C543.2,354.8 542.3,355.2 541.3,355.6 L540.7,353.4 C542.4,352.9 543.8,352 544.9,351 C546.1,350 546.9,348.4 547.5,346.5 C547.9,345.1 548,343.8 547.9,342.4 C547.8,341 547.5,339.7 546.9,338.4 C546.3,337.1 545.5,336 544.2,335.1 C543,334.1 541.5,333.4 539.6,332.9 C537.8,332.5 536.3,332.4 534.7,332.6 C533.3,332.9 532,333.5 530.9,334.3 C529.7,335.1 528.9,336.1 528.1,337.4 C527.3,338.6 526.8,340 526.4,341.4 C526.1,342.6 526,343.6 526.1,344.6 C526.2,345.6 526.5,346.5 526.7,347.4 C527.1,348.3 527.5,349.1 528,349.8 C528.5,350.6 529,351.2 529.5,351.7 L527.8,353.2 C527.3,352.1 526.6,351.4 526,350.5 L526,350.5 Z"></path>
                    <path d="M514.3,372.8 L525.6,376.9 L531.4,360.7 L520.1,356.6 L520.9,354.3 L544.4,362.7 L543.6,364.9 L533.4,361.2 L527.6,377.4 L537.8,381.1 L537,383.4 L513.5,375 L514.3,372.8 L514.3,372.8 Z"></path>
                </g>
                <g transform="translate(34.000000, 399.000000)" id="Shape" fill="#004A7C">
                    <path d="M0.2,18.2 L22.1,5.8 L23.3,7.8 L1.4,20.2 L0.2,18.2 L0.2,18.2 Z"></path>
                    <path d="M16.1,43.5 C18,37.2 19.7,32 21.1,27.8 C22.4,23.5 23.5,20.1 24.3,17.4 C22.5,18.6 20.2,20.2 17.3,22.1 C14.4,24 10.9,26.4 6.7,29.1 L5.4,27.1 L26.2,13.3 L27.4,15.1 C25.5,21.2 23.8,26.6 22.4,30.8 C21,35.1 20,38.5 19.2,41.2 C21,40 23.3,38.4 26.2,36.5 C29.1,34.6 32.6,32.3 36.8,29.5 L38.1,31.4 L17.3,45.2 L16.1,43.5 L16.1,43.5 Z"></path>
                    <path d="M54.4,54.8 L37.4,70 L35.9,68.2 L52.8,53 L46.4,45.8 L48.1,44.3 L62.6,60.4 L60.9,61.9 L54.4,54.8 L54.4,54.8 Z"></path>
                    <path d="M63,95.1 L71.1,86.3 L58.3,74.7 L50.2,83.5 L48.4,82 L65.3,63.5 L67.1,65 L59.8,73.1 L72.6,84.7 L79.9,76.6 L81.7,78.3 L64.8,96.8 L63,95.1 L63,95.1 Z"></path>
                    <path d="M71.6,102 L86.6,81.9 L100.2,92 L98.9,93.8 L87,85 L81.9,91.9 L91.5,99.1 L90.1,100.9 L80.5,93.7 L74.7,101.5 L86.9,110.6 L85.5,112.4 L71.6,102 L71.6,102 Z"></path>
                    <path d="M103.3,123.7 L116,102.1 L118,103.3 L105.3,124.9 L103.3,123.7 L103.3,123.7 Z"></path>
                    <path d="M129.8,137.7 C128.4,131.4 127.1,126.1 126.2,121.6 C125.2,117.3 124.4,113.7 123.9,111 C123,112.9 121.7,115.5 120.2,118.5 C118.7,121.5 116.7,125.4 114.6,130 L112.4,129 L123.5,106.5 L125.4,107.4 C126.8,113.8 128.1,119.2 129,123.5 C130,127.8 130.8,131.4 131.4,134 C132.3,132.1 133.6,129.5 135.1,126.5 C136.6,123.5 138.6,119.6 140.7,115 L142.9,116 L131.8,138.5 L129.8,137.7 L129.8,137.7 Z"></path>
                    <path d="M157.3,124.1 L149.4,145.5 L147.2,144.7 L155.1,123.3 L146,120 L146.8,117.8 L167,125.3 L166.2,127.5 L157.3,124.1 L157.3,124.1 Z"></path>
                    <path d="M164.6,150.7 L171.3,126.5 L187.7,131 L187.1,133.2 L172.9,129.4 L170.6,137.7 L182.1,140.9 L181.5,143.1 L170,139.9 L167.4,149.2 L182,153.2 L181.4,155.4 L164.6,150.7 L164.6,150.7 Z"></path>
                    <path d="M208.8,160.4 L200.2,148.5 L192.7,147.1 L190.9,157.2 L188.6,156.8 L192.9,132.1 L201.5,133.6 C205.7,134.4 208.7,135.5 210.5,137.1 C212.3,138.6 212.9,140.7 212.5,143 C212.4,144 212,144.8 211.3,145.6 C210.8,146.4 210,147 209.3,147.5 C208.5,148 207.5,148.4 206.5,148.7 C205.5,149 204.5,149.1 203.3,149.1 L212.1,161.3 L208.8,160.4 L208.8,160.4 Z M210,140.9 C209.9,140.3 209.5,139.6 208.8,139 C208.2,138.4 207.3,137.8 206,137.3 C204.7,136.8 202.9,136.3 200.8,135.9 L194.8,134.9 L193,145.1 L201.2,146.5 C202.5,146.8 203.8,146.8 204.8,146.6 C205.8,146.5 206.7,146.2 207.5,145.8 C208.3,145.4 208.9,144.9 209.3,144.4 C209.8,143.9 210.1,143.2 210.2,142.6 C210.2,142.2 210.1,141.5 210,140.9 L210,140.9 Z"></path>
                    <path d="M218.5,161.5 L220.3,136.4 L237.3,137.7 L237.2,139.9 L222.6,138.9 L222,147.5 L233.9,148.4 L233.8,150.6 L221.9,149.7 L221.1,159.3 L236.2,160.5 L236.1,162.8 L218.5,161.5 L218.5,161.5 Z"></path>
                    <path d="M262.5,158.4 C262,159.3 261.2,160.2 260.2,160.8 C259.2,161.6 258,162.1 256.6,162.6 C255.2,163 253.7,163.2 252,163.2 C250.6,163.2 249.3,163.2 248.2,162.9 C247,162.8 246,162.4 245.1,162.1 C244.2,161.7 243.3,161.2 242.5,160.7 C241.7,160.2 241.1,159.5 240.3,158.8 L242.1,157.3 C243,158.5 244.3,159.3 245.9,160 C247.4,160.6 249.5,161 251.9,160.9 C253.4,160.9 254.7,160.6 255.9,160.3 C257.1,159.9 258.1,159.4 258.8,158.9 C259.4,158.4 260,157.9 260.3,157.4 C260.7,156.8 260.8,156.1 260.8,155.5 C260.8,154.6 260.5,154 260.2,153.3 C259.7,152.8 259.3,152.4 258.8,152.1 C258.5,152 258.2,151.8 257.9,151.7 C257.5,151.6 257.1,151.4 256.6,151.3 C256.1,151.2 255.3,151 254.6,150.8 C253.8,150.7 252.7,150.4 251.5,150.2 C250.2,149.9 249.2,149.7 248.3,149.6 C247.5,149.5 246.8,149.2 246.3,149.1 C245.8,149 245.3,148.8 245,148.7 C244.6,148.6 244.4,148.4 244,148.3 C243.6,148.2 243.4,147.9 243,147.7 C242.6,147.4 242.4,147.1 242.1,146.7 C241.8,146.3 241.6,145.8 241.5,145.4 C241.4,144.9 241.2,144.4 241.2,143.7 C241.2,142.8 241.5,142 241.8,141.1 C242.3,140.2 243.1,139.6 244.1,138.9 C245.1,138.4 246.1,138 247.4,137.7 C248.7,137.4 250.1,137.3 251.6,137.3 C253,137.3 254.2,137.3 255.3,137.6 C256.3,137.7 257.3,138 258.1,138.4 C259,138.8 259.6,139.2 260.3,139.8 C260.9,140.4 261.5,141.1 262,141.8 L260,143 C259.6,142.5 259.2,142 258.8,141.6 C258.3,141.2 257.8,140.8 257.1,140.6 C256.4,140.4 255.7,140.1 254.8,140 C253.9,139.9 252.9,139.7 251.7,139.9 C250.4,139.9 249.1,140 248,140.3 C246.8,140.6 246,140.8 245.2,141.2 C243.9,142 243.4,142.9 243.4,144.1 C243.4,144.7 243.5,145.3 243.9,145.6 C244.2,146 244.7,146.4 245.2,146.6 C245.5,146.7 245.8,146.9 246.2,147 C246.6,147.1 247,147.3 247.6,147.4 C248.1,147.5 248.9,147.7 249.6,147.9 C250.4,148 251.4,148.3 252.5,148.5 C253.5,148.8 254.4,148.9 255.2,149 C256,149.1 256.6,149.4 257.2,149.5 C257.8,149.6 258.4,149.9 258.9,150 C259.4,150.3 259.8,150.4 260.3,150.8 C260.7,151.1 261.1,151.3 261.3,151.6 C261.7,151.9 261.9,152.2 262.2,152.6 C262.5,153 262.7,153.5 262.8,154 C262.9,154.5 263.1,155 263.1,155.7 C263.4,156.5 263.2,157.5 262.5,158.4 L262.5,158.4 Z"></path>
                    <path d="M275.6,138.4 L278,161 L275.7,161.3 L273.4,138.7 L263.8,139.7 L263.5,137.4 L285,135.1 L285.3,137.3 L275.6,138.4 L275.6,138.4 Z"></path>
                    <path d="M328.3,144.1 C327.9,145.9 327.3,147.4 326.4,148.8 C325.5,150.2 324.2,151.2 322.8,152.3 C321.4,153.2 319.7,154 318.1,154.3 C316.4,154.8 314.6,154.9 313,154.8 C311.2,154.7 309.7,154.3 308.1,153.5 C306.6,152.7 305.3,151.7 304.1,150.3 C302.9,148.9 302.1,147.1 301.5,145.1 C301,143.1 300.9,141 301.2,139.3 C301.6,137.5 302.2,136 303.1,134.6 C304,133.2 305.3,132 306.7,131.1 C308.1,130.2 309.8,129.4 311.4,129.1 C313.1,128.7 314.9,128.5 316.5,128.6 C318.3,128.7 319.8,129.1 321.4,129.9 C322.9,130.7 324.2,131.7 325.4,133.1 C326.6,134.5 327.4,136.3 328,138.3 C328.6,140.3 328.5,142.3 328.3,144.1 L328.3,144.1 Z M325.6,138.8 C325.1,137 324.4,135.6 323.6,134.5 C322.7,133.3 321.6,132.5 320.3,131.8 C319,131.2 317.7,130.9 316.3,130.8 C314.9,130.7 313.4,130.8 312,131.2 C310.6,131.6 309.2,132.1 308,132.9 C306.8,133.7 305.8,134.6 305.1,135.7 C304.3,136.9 303.8,138.1 303.6,139.5 C303.3,140.9 303.5,142.6 303.9,144.4 C304.4,146.2 305.1,147.6 305.9,148.7 C306.8,149.9 307.9,150.7 309.2,151.4 C310.5,152 311.8,152.3 313.2,152.4 C314.6,152.5 316,152.4 317.5,152 C318.9,151.6 320.3,151.1 321.5,150.3 C322.7,149.5 323.7,148.6 324.4,147.5 C325.2,146.3 325.7,145.1 325.9,143.7 C326.2,142.2 326.1,140.6 325.6,138.8 L325.6,138.8 L325.6,138.8 Z"></path>
                    <path d="M333.1,125.3 L336.2,133.4 L347.3,129.2 L348.1,131.4 L337,135.6 L341.2,146.9 L339,147.8 L330.2,124.4 L346.1,118.4 L346.9,120.4 L333.1,125.3 L333.1,125.3 Z"></path>
                    <path d="M389,119.9 C389,120.9 388.6,122.1 388.1,123.1 C387.6,124.3 386.7,125.3 385.7,126.3 C384.7,127.3 383.4,128.2 381.9,129 C380.6,129.6 379.5,130.2 378.4,130.5 C377.2,130.9 376.2,131.1 375.2,131.3 C374.2,131.4 373.3,131.4 372.3,131.3 C371.4,131.2 370.5,130.9 369.5,130.7 L370.4,128.5 C371.8,129.1 373.3,129.3 375,129.1 C376.7,128.9 378.6,128.3 380.8,127.2 C382.1,126.4 383.2,125.7 384,124.9 C384.9,124 385.5,123.1 385.9,122.2 C386.3,121.6 386.4,120.8 386.5,120 C386.5,119.4 386.4,118.6 386.1,118.1 C385.7,117.3 385.1,116.8 384.4,116.6 C383.8,116.3 383.1,116.2 382.6,116.2 C382.2,116.2 382,116.2 381.6,116.3 C381.2,116.3 380.8,116.4 380.2,116.6 C379.7,116.7 378.9,116.9 378.2,117.1 C377.4,117.4 376.4,117.6 375.1,118 C373.8,118.4 372.8,118.6 372,118.9 C371.2,119.2 370.5,119.3 370,119.4 C369.5,119.5 369,119.7 368.6,119.7 C368.2,119.7 367.8,119.7 367.6,119.8 C367.2,119.8 366.8,119.8 366.3,119.7 C365.9,119.7 365.4,119.4 365,119.3 C364.6,119 364.2,118.8 363.8,118.4 C363.4,118 363.2,117.6 362.8,117.1 C362.4,116.3 362.2,115.4 362.3,114.5 C362.3,113.5 362.7,112.6 363.3,111.6 C363.9,110.7 364.7,109.8 365.7,109 C366.7,108.2 367.9,107.5 369.3,106.7 C370.6,106.1 371.6,105.5 372.6,105.2 C373.6,104.8 374.6,104.7 375.5,104.6 C376.4,104.5 377.3,104.6 378.1,104.9 C378.9,105.2 379.8,105.4 380.5,105.9 L379.2,107.8 C378.7,107.4 378,107.2 377.5,107 C376.9,106.9 376.2,106.7 375.6,106.9 C374.8,106.9 374.1,107 373.3,107.4 C372.4,107.7 371.5,108.2 370.5,108.7 C369.3,109.3 368.3,110 367.4,110.7 C366.5,111.5 365.9,112.1 365.4,112.7 C364.6,114 364.5,115 365.1,116.2 C365.4,116.7 365.7,117.1 366.3,117.4 C366.8,117.7 367.3,117.8 368,117.8 C368.4,117.8 368.6,117.7 369,117.7 C369.4,117.7 369.9,117.6 370.4,117.4 C370.9,117.3 371.7,117.1 372.4,116.9 C373.2,116.6 374.2,116.4 375.3,116 C376.3,115.7 377.2,115.5 378,115.2 C378.8,115.1 379.4,114.8 380,114.7 C380.6,114.6 381.2,114.4 381.7,114.4 L383.2,114.4 C383.6,114.4 384.1,114.5 384.5,114.7 C385,114.8 385.4,115 385.8,115.2 C386.2,115.5 386.7,115.7 387.1,116.1 C387.5,116.5 387.9,116.9 388.1,117.5 C388.9,117.7 389,118.7 389,119.9 L389,119.9 Z"></path>
                    <path d="M415.9,98.5 C416.2,100.3 416.2,102 415.8,103.6 C415.4,105.1 414.6,106.7 413.6,108.1 C412.6,109.5 411.3,110.7 409.9,111.7 C408.5,112.7 407,113.5 405.3,114 C403.6,114.5 402,114.6 400.3,114.5 C398.6,114.4 397.1,113.9 395.4,113 C393.9,112.1 392.5,110.8 391.2,109 C389.9,107.2 389.2,105.4 388.9,103.6 C388.6,101.8 388.6,100.1 389,98.5 C389.4,96.8 390.2,95.4 391.2,94 C392.2,92.6 393.5,91.4 394.9,90.4 C396.3,89.4 397.8,88.6 399.5,88.1 C401.2,87.6 402.8,87.3 404.5,87.6 C406.2,87.7 407.8,88.2 409.4,89.1 C410.9,90 412.3,91.3 413.6,93.2 C414.7,95 415.5,96.7 415.9,98.5 L415.9,98.5 Z M411.5,94.4 C410.5,92.9 409.3,91.8 407.9,91.1 C406.6,90.3 405.3,89.9 403.9,89.8 C402.5,89.7 401.2,89.8 399.8,90.3 C398.4,90.7 397.1,91.3 396,92.2 C394.7,93.1 393.7,94.1 392.9,95.1 C392,96.3 391.5,97.5 391.1,98.8 C390.7,100.1 390.7,101.5 391,103 C391.3,104.4 391.9,105.9 392.9,107.5 C393.9,109 395.1,110.1 396.5,110.8 C397.8,111.6 399.1,112 400.5,112.1 C401.9,112.2 403.2,112.1 404.6,111.6 C406,111.2 407.3,110.6 408.4,109.7 C409.7,108.8 410.7,107.8 411.5,106.6 C412.4,105.4 412.9,104.2 413.3,102.9 C413.7,101.6 413.7,100.2 413.4,98.7 C413.2,97.4 412.5,96 411.5,94.4 L411.5,94.4 L411.5,94.4 Z"></path>
                    <path d="M441.3,80.4 C441.3,81.4 441.2,82.4 440.9,83.6 C440.6,84.6 440.3,85.8 439.6,86.8 C439,87.8 438.2,88.8 437.2,89.7 C435.7,91.1 434.1,92 432.5,92.6 C430.8,93.2 429.3,93.5 427.9,93.5 C426.1,93.5 424.4,93.1 422.8,92.3 C421.3,91.5 419.7,90.5 418.5,89 C417.2,87.6 416.2,86.1 415.7,84.4 C415.2,82.7 414.9,81.1 415.1,79.4 C415.2,77.7 415.7,76.1 416.6,74.5 C417.4,73 418.5,71.6 420.1,70.2 C421,69.4 421.9,68.8 422.9,68.3 C423.8,67.8 424.8,67.5 425.8,67.3 C426.8,67.2 427.7,67 428.7,67.2 C429.7,67.4 430.7,67.5 431.8,67.7 L431.2,69.9 C429.5,69.4 427.9,69.3 426.3,69.5 C424.8,69.6 423.1,70.4 421.7,71.8 C420.7,72.7 419.8,73.8 419,75 C418.2,76.2 417.7,77.4 417.6,78.8 C417.3,80.2 417.5,81.6 417.9,83 C418.3,84.4 419.2,85.9 420.5,87.3 C421.8,88.6 423.1,89.6 424.3,90.2 C425.7,90.7 427,91.1 428.4,91 C429.8,91 431.1,90.6 432.4,90.1 C433.7,89.5 434.8,88.7 436,87.8 C436.9,87 437.5,86.1 438,85.2 C438.5,84.3 438.9,83.4 439,82.5 C439.3,81.6 439.3,80.7 439.4,79.8 C439.4,78.9 439.4,78.1 439.3,77.4 L441.6,77.1 C441.3,78.3 441.3,79.2 441.3,80.4 L441.3,80.4 Z"></path>
                    <path d="M448.4,78.2 L430.5,60.7 L432.2,59 L450.1,76.5 L448.4,78.2 L448.4,78.2 Z"></path>
                    <path d="M455.7,70.7 L436.8,54.3 L447.9,41.4 L449.6,42.8 L440,53.9 L446.5,59.5 L454.3,50.4 L456,51.8 L448.2,60.9 L455.5,67.2 L465.3,55.8 L467,57.3 L455.7,70.7 L455.7,70.7 Z"></path>
                    <path d="M457.8,31.6 L476.2,45 L474.8,46.9 L456.4,33.5 L450.8,41.3 L449,40 L461.7,22.5 L463.5,23.8 L457.8,31.6 L457.8,31.6 Z"></path>
                    <path d="M481.6,17.5 L490.8,22.9 L489.6,24.9 L480.4,19.5 L462.5,21.5 L463.9,19.1 L472.2,18.2 C473.4,18.1 474.5,17.9 475.7,17.8 C476.9,17.7 478,17.5 479.2,17.4 C478.7,16.2 478.3,15.2 477.8,14.2 C477.3,13.2 476.9,12 476.5,11 L473.3,3.3 L474.7,0.9 L481.6,17.5 L481.6,17.5 Z"></path>
                </g>
            </g>
        </g>
    </g>
</svg>