<?xml version="1.0" encoding="utf-8"?>
<!-- Generator: Adobe Illustrator 18.0.0, SVG Export Plug-In . SVG Version: 6.00 Build 0)  -->
<!DOCTYPE svg PUBLIC "-//W3C//DTD SVG 1.1//EN" "http://www.w3.org/Graphics/SVG/1.1/DTD/svg11.dtd">
<svg version="1.1" id="Ebene_1" xmlns="http://www.w3.org/2000/svg" xmlns:xlink="http://www.w3.org/1999/xlink" x="0px" y="0px"
	 viewBox="0 0 499 120.1" enable-background="new 0 0 499 120.1" xml:space="preserve">
<g>
	<path fill="#354453" d="M165.4,78.4c-10.2,0-18.4-8.2-18.4-18.4s8.2-18.4,18.4-18.4c5.2,0,9.7,1.3,13,4.6c1,1,1,2.6,0,3.7
		c-1.1,1.1-2.7,1.2-3.8,0.1c-2.4-2.4-5.6-3.2-9.2-3.2c-7.3,0-13.1,5.9-13.1,13.1s5.9,13.1,13.1,13.1c3.7,0,6.9-0.6,9.4-3.1
		c1.1-1.1,2.6-1.1,3.7,0c1,1,1,2.6,0,3.7C175,77.2,170.5,78.4,165.4,78.4z"/>
	<path fill="#354453" d="M210.3,41.6c10.2,0,18.4,8.2,18.4,18.4s-8.2,18.4-18.4,18.4c-10.2,0-18.4-8.2-18.4-18.4
		S200.1,41.6,210.3,41.6z M210.3,73.2c7.3,0,13.1-5.9,13.1-13.1s-5.9-13.1-13.1-13.1c-7.3,0-13.1,5.9-13.1,13.1S203,73.2,210.3,73.2
		z"/>
	<path fill="#354453" d="M259.7,42.2c10.2,0,18.4,7.7,18.4,17.9s-8.2,17.9-18.4,17.9h-11.6c-1.5,0-2.6-1.2-2.6-2.6V44.8
		c0-1.5,1.2-2.6,2.6-2.6H259.7z M250.7,47.2v25.6h8.9c7.3,0,13.1-5.6,13.1-12.8s-5.9-12.8-13.1-12.8H250.7z"/>
	<path fill="#354453" d="M322.7,72.9c1.5,0,2.6,1.1,2.6,2.5c0,1.5-1.2,2.5-2.6,2.5h-25.2c-1.5,0-2.6-1.2-2.6-2.6V44.8
		c0-1.5,1.2-2.6,2.6-2.6h25.2c1.5,0,2.6,1.1,2.6,2.5c0,1.5-1.2,2.5-2.6,2.5h-22.6v9.9h17.3c1.5,0,2.6,1.1,2.6,2.5s-1.2,2.5-2.6,2.5
		h-17.3v10.7H322.7z"/>
	<path fill="#354453" d="M416,61.6h-24.2v13.9c0,1.5-1.2,2.6-2.6,2.6c-1.5,0-2.6-1.2-2.6-2.6V44.6c0-1.5,1.2-2.6,2.6-2.6
		c1.5,0,2.6,1.2,2.6,2.6v12H416v-12c0-1.5,1.2-2.6,2.6-2.6c1.5,0,2.6,1.2,2.6,2.6v30.9c0,1.5-1.2,2.6-2.6,2.6
		c-1.5,0-2.6-1.2-2.6-2.6V61.6z"/>
	<path fill="#354453" d="M447.5,75.5c0,1.5-1.2,2.6-2.6,2.6c-1.5,0-2.6-1.2-2.6-2.6V44.6c0-1.5,1.2-2.6,2.6-2.6
		c1.5,0,2.6,1.2,2.6,2.6V75.5z"/>
	<path fill="#354453" d="M487.6,42.2c6.3,0,11.5,5.2,11.5,11.5c0,6.3-5.1,11.5-11.5,11.5h-13.8v10.5c0,1.5-1.2,2.5-2.6,2.5
		c-1.5,0-2.6-1.2-2.6-2.6V44.8c0-1.5,1.2-2.6,2.6-2.6H487.6z M473.8,47.2V60h13.8c3.7,0,6.2-3,6.2-6.4c0-3.4-2.5-6.4-6.2-6.4H473.8z
		"/>
</g>
<g>
	<path fill="#354453" d="M60,120.1c-33.1,0-60-26.9-60-60C0,26.9,26.9,0,60,0c33.1,0,60,26.9,60,60C120.1,93.1,93.1,120.1,60,120.1z
		 M60,6.1C30.3,6.1,6.1,30.3,6.1,60C6.1,89.8,30.3,114,60,114C89.8,114,114,89.8,114,60C114,30.3,89.8,6.1,60,6.1z"/>
</g>
<g>
	<g>
		<path opacity="0.7" fill="#354453" d="M60,25.4c2.8,0,6.2,0.4,9.4,1v-9.7c0-1.4-5.7-3-9.4-3c-3.7,0-9.2,1.6-9.2,3v9.7
			C53.8,25.8,57.1,25.4,60,25.4z"/>
	</g>
</g>
<g>
	<path fill="none" d="M61.8,65.4l0.6-10.3L60,43.4l-2.6,11.8l0.5,10.3l1.9,15.3c0.1,0,0.2,0.1,0.3,0.1L61.8,65.4z"/>
	<path opacity="0.65" fill="#354453" d="M29.2,82.8c4.1,0.4,19.5,7,34.4-1.5l-3.7-0.5c-4.8-1.1-13.8-7.7-14.2-8.1
		c0-0.1-14.5-14.8-31.5,0.7c0.6,2,1.2,3.9,2,5.8C20.2,77.5,24.9,82.4,29.2,82.8z"/>
	<path fill="#B5479A" d="M16.3,79.3C16.3,79.3,16.3,79.3,16.3,79.3c0-0.1,0-0.1-0.1-0.2C16.3,79.2,16.3,79.3,16.3,79.3z"/>
	<path fill="#354453" d="M80,44.6c0-1.3,0-10.1,0-10.1c0-1.4-12.1-4.6-20-4.6c-7.9,0-19.5,3.2-19.5,4.6c0,0,0,9.6,0,10
		c9.2-6.6,19.4-9.6,19.4-9.6C59.9,34.9,70.6,37.9,80,44.6z"/>
	<path fill="#354453" d="M84.8,64.6c-3,0.6-6.5,4.9-11,9.2c1.8-6.4,5-13.6,10.9-19.8c-1.6-1.4-3.2-2.7-4.8-3.9v0
		C74,45.7,67.2,42,60.1,39.9c0,0,0,0,0,0c-2.9,0.8-5.8,2.1-8.5,3.4c-5.9,2.8-11.4,6.3-16.2,10.7c0,0,0,0,0,0
		c5.2,5.3,8.4,12,10.2,18.2c0,0.1,0.1,0.3,0.1,0.4c0.5,0.5,1,0.9,1.5,1.3c3.7,3.1,7.9,5.7,12.7,6.8l0-0.1l-1.9-15.3l-0.5-10.3
		L60,43.4l2.4,11.8l-0.6,10.3l-1.7,15.3l0,0.1l3.5,0.4c-5.6,2.6-14.3,4-23.4-0.4c-3.7-1.8-7.2-3.4-11.3-3.8c-4.3-0.4-8.7,0.4-12.7,2
		c0,0,0,0,0,0c0,0,0,0,0,0c0,0.1,0.1,0.1,0.1,0.2c7.8,17.6,25.9,29.2,45.2,28.6c18.9-0.6,36.1-12.8,43-30.4c0.4-1,0.7-1.9,1-2.9
		C99,69.8,88.8,63.8,84.8,64.6z"/>
	<path fill="#354453" d="M84.8,64.6C88.8,63.8,81.8,65.1,84.8,64.6L84.8,64.6z"/>
</g>
<g>
	<g>
		<g>
			<path fill="#354453" d="M354.6,79.3c-0.4,0-0.9,0-1.3,0c-3.5-0.2-7-1.5-9.4-3.7c-0.5-0.5-0.7-1.1-0.6-1.7
				c0.1-0.6,0.4-1.1,0.9-1.4c0.5-0.3,1.1-0.5,1.7-0.5c0.8,0,1.6,0.3,2,0.8c1.5,1.3,3.6,2.1,5.7,2.2c0.3,0,0.6,0,0.9,0
				c4.5,0,7.7-2.2,8-5.7c0.3-3.8-3.6-5.6-8.2-7.6c-5.3-2.4-11.2-5-10.6-11.5c0.5-5.4,5-8.6,12.2-8.6c0.5,0,1,0,1.4,0
				c3.4,0.2,6.5,1.4,8.8,3.5c0.5,0.5,0.7,1,0.7,1.6c0,0.6-0.4,1.1-0.9,1.5c-0.6,0.3-1.2,0.5-1.8,0.5c-0.8,0-1.6-0.3-2-0.8
				c-1.3-1.1-3.1-1.8-5.1-2c-0.2,0-0.5,0-0.7,0c-4.2,0-6.8,1.6-7,4.3c-0.4,4,3.6,5.8,8.3,7.9c5.2,2.3,11.1,5,10.5,11.6
				C367.5,75.5,362.1,79.3,354.6,79.3z"/>
		</g>
	</g>
</g>
</svg>
