<?xml version="1.0" encoding="UTF-8" standalone="no"?>
<svg width="657px" height="117px" viewBox="0 0 657 117" version="1.1" xmlns="http://www.w3.org/2000/svg" xmlns:xlink="http://www.w3.org/1999/xlink" xmlns:sketch="http://www.bohemiancoding.com/sketch/ns">
    <!-- Generator: Sketch 3.3.2 (12043) - http://www.bohemiancoding.com/sketch -->
    <title>Group</title>
    <desc>Created with Sketch.</desc>
    <defs></defs>
    <g id="Page-1" stroke="none" stroke-width="1" fill="none" fill-rule="evenodd" sketch:type="MSPage">
        <g id="compose" sketch:type="MSLayerGroup" fill="#000000">
            <g id="Group" sketch:type="MSShapeGroup">
                <g transform="translate(210.000000, 17.000000)" id="Shape">
                    <path d="M0.473,39.212 C0.473,16.568 18.085,0.213 40.045,0.213 C57.543,0.213 69.209,9.362 69.209,18.398 C69.209,23.888 65.664,27.661 60.974,27.661 C55.828,27.661 52.282,24.459 52.282,19.541 C52.282,18.054 52.626,16.568 53.083,15.653 C50.911,13.937 46.564,12.222 39.702,12.222 C25.063,12.222 13.855,23.43 13.855,39.098 C13.855,54.194 24.377,66.203 40.274,66.203 C49.081,66.203 56.286,62.315 61.89,56.253 L70.468,65.173 C63.148,73.293 52.283,78.211 40.274,78.211 C17.056,78.212 0.473,62.657 0.473,39.212 L0.473,39.212 Z"></path>
                    <path d="M75.041,51.792 C75.041,38.068 85.334,25.83 101.688,25.83 C118.271,25.83 128.335,37.839 128.335,51.792 C128.335,65.516 118.042,77.754 101.688,77.754 C85.104,77.754 75.041,65.745 75.041,51.792 L75.041,51.792 Z M115.526,51.792 C115.526,42.643 109.808,36.238 101.688,36.238 C93.568,36.238 87.85,42.643 87.85,51.792 C87.85,60.941 93.568,67.346 101.688,67.346 C109.808,67.346 115.526,60.942 115.526,51.792 L115.526,51.792 Z"></path>
                    <path d="M133.481,66.546 L140.915,66.546 L140.915,37.268 L133.481,37.268 L133.481,26.746 L152.923,26.746 L152.923,34.637 C156.812,30.405 162.302,25.831 169.736,25.831 C175.111,25.831 179.113,27.889 181.63,31.207 C182.316,32.122 182.774,33.037 183.232,34.066 C187.921,29.491 193.525,25.832 199.929,25.832 C206.906,25.832 211.709,28.348 214.225,33.037 C215.598,35.553 216.283,38.755 216.283,42.415 L216.283,66.547 L223.717,66.547 L223.717,76.84 L197.07,76.84 L197.07,66.547 L203.818,66.547 L203.818,45.389 C203.818,43.445 203.589,41.958 203.017,40.7 C201.988,38.298 199.929,37.155 197.07,37.155 C192.953,37.155 188.607,39.557 184.833,42.759 L184.833,66.547 L191.581,66.547 L191.581,76.84 L165.505,76.84 L165.505,66.547 L172.366,66.547 L172.366,45.389 C172.366,43.445 172.138,41.958 171.566,40.7 C170.536,38.298 168.593,37.155 165.618,37.155 C161.501,37.155 157.155,39.557 153.382,42.759 L153.382,66.547 L160.015,66.547 L160.015,76.84 L133.481,76.84 L133.481,66.546 L133.481,66.546 Z"></path>
                    <path d="M225.432,88.962 L232.866,88.962 L232.866,37.268 L225.432,37.268 L225.432,26.746 L244.874,26.746 L244.874,32.465 C248.763,28.805 252.994,25.831 259.742,25.831 C272.78,25.831 282.615,36.467 282.615,51.564 C282.615,66.088 272.208,77.754 258.941,77.754 C253.566,77.754 249.105,75.81 245.331,72.951 L245.331,88.962 L253.451,88.962 L253.451,99.255 L225.431,99.255 L225.431,88.962 L225.432,88.962 Z M269.807,51.678 C269.807,42.071 264.089,36.582 256.998,36.582 C252.309,36.582 248.649,38.64 245.332,41.614 L245.332,63.115 C248.535,65.403 252.423,67.003 256.998,67.003 C263.631,67.003 269.807,61.628 269.807,51.678 L269.807,51.678 Z"></path>
                    <path d="M288.104,51.792 C288.104,38.068 298.397,25.83 314.751,25.83 C331.335,25.83 341.398,37.839 341.398,51.792 C341.398,65.516 331.105,77.754 314.751,77.754 C298.168,77.754 288.104,65.745 288.104,51.792 L288.104,51.792 Z M328.59,51.792 C328.59,42.643 322.872,36.238 314.752,36.238 C306.632,36.238 300.914,42.643 300.914,51.792 C300.914,60.941 306.632,67.346 314.752,67.346 C322.872,67.346 328.59,60.942 328.59,51.792 L328.59,51.792 Z"></path>
                    <path d="M383.257,44.587 C379.255,44.587 376.509,42.185 376.509,38.411 C376.509,37.611 376.509,36.924 376.738,36.238 C374.679,35.438 372.163,34.98 369.647,34.98 C364.044,34.98 361.298,37.496 361.298,40.126 C361.298,42.985 364.157,44.472 371.82,46.531 C383.828,49.734 390.805,52.707 390.805,61.742 C390.805,72.264 380.969,77.868 369.646,77.868 C361.984,77.868 353.749,75.123 350.433,71.806 C348.374,69.748 347.573,67.689 347.573,65.059 C347.573,61.399 350.318,58.311 354.207,58.311 C357.638,58.311 360.955,60.598 360.955,64.944 C360.955,65.63 360.84,66.316 360.726,67.002 C363.013,67.917 366.216,68.603 369.761,68.603 C374.793,68.603 378.91,66.888 378.91,63.228 C378.91,60.712 376.738,59.225 369.074,57.166 C355.236,53.506 349.404,50.19 349.404,41.613 C349.404,33.836 355.808,25.716 369.875,25.716 C375.936,25.716 383.256,28.003 386.687,31.434 C388.517,33.264 389.432,35.437 389.432,37.839 C389.433,41.842 386.917,44.587 383.257,44.587 L383.257,44.587 Z"></path>
                    <path d="M409.675,56.024 C411.39,63.801 417.795,67.232 426.144,67.232 C432.205,67.232 438.496,65.288 444.328,61.971 L443.299,73.179 C438.039,76.267 431.633,77.754 424.314,77.754 C407.96,77.754 396.638,67.461 396.638,51.907 C396.638,37.725 406.587,25.831 422.027,25.831 C438.039,25.831 446.387,36.582 446.387,49.848 C446.387,51.792 446.158,54.309 445.815,56.024 L409.675,56.024 L409.675,56.024 Z M409.561,47.332 L433.922,47.332 C433.693,40.47 429.232,35.895 421.913,35.895 C416.423,35.895 410.933,39.098 409.561,47.332 L409.561,47.332 Z"></path>
                </g>
                <path d="M108.364,0.764 L72.382,21.416 L36.826,0.764 L0.844,21.416 L0.844,58.395 L72.808,100.126 L109.003,79.474 L144.559,100.126 L180.541,79.474 L180.541,42.495 L108.364,0.764 L108.364,0.764 Z M8.934,25.887 L36.825,9.919 L64.716,25.887 L36.825,42.068 L8.934,25.887 L8.934,25.887 Z M72.808,63.147 L44.917,46.966 L72.808,30.998 L100.699,46.966 L72.808,63.147 L72.808,63.147 Z M108.364,42.282 L80.472,26.1 L108.363,10.132 L136.254,26.1 L108.364,42.282 L108.364,42.282 Z M144.559,63.147 L116.668,46.966 L144.559,30.998 L172.45,46.966 L144.559,63.147 L144.559,63.147 Z" id="Shape"></path>
            </g>
        </g>
    </g>
</svg>