<?xml version="1.0" encoding="UTF-8" standalone="no"?>
<svg width="650px" height="121px" viewBox="0 0 650 121" version="1.1" xmlns="http://www.w3.org/2000/svg" xmlns:xlink="http://www.w3.org/1999/xlink" xmlns:sketch="http://www.bohemiancoding.com/sketch/ns">
    <!-- Generator: Sketch 3.3.2 (12043) - http://www.bohemiancoding.com/sketch -->
    <title>Layer 1</title>
    <desc>Created with Sketch.</desc>
    <defs></defs>
    <g id="Page-1" stroke="none" stroke-width="1" fill="none" fill-rule="evenodd" sketch:type="MSPage">
        <g id="Layer-1" sketch:type="MSLayerGroup" transform="translate(-12.999900, 0.000000)" fill="#000000">
            <path d="M338.442,74.285 C328.946,74.285 322.313,67.018 322.313,56.614 C322.313,46.045 328.795,38.944 338.442,38.944 C347.938,38.944 354.571,46.21 354.571,56.614 C354.571,67.018 347.938,74.285 338.442,74.285 M338.442,27.643 C321.788,27.643 309.7,39.827 309.7,56.614 C309.7,73.401 321.788,85.586 338.442,85.586 C355.096,85.586 367.183,73.401 367.183,56.614 C367.183,39.827 355.096,27.643 338.442,27.643" id="Shape" sketch:type="MSShapeGroup"></path>
            <path d="M407.112,49.175 L393.672,27.761 L378,27.761 L378,83.761 L391,83.761 L391,47.323 L407.501,70.418 L424,47.29 L424,83.761 L436,83.761 L436,27.761 L420.626,27.761 L407.112,49.175 L407.112,49.175 Z" id="Shape" sketch:type="MSShapeGroup"></path>
            <path d="M473.059,54.761 L461,54.761 L461,39.761 L473.059,39.761 C477.596,39.761 480.644,43.119 480.644,47.261 C480.644,51.404 477.596,54.761 473.059,54.761 M474.336,27.761 L449,27.761 L449,83.761 L461,83.761 L461,65.761 L474.336,65.761 C485.477,65.761 493.257,57.445 493.257,46.761 C493.257,36.077 485.477,27.761 474.336,27.761" id="Shape" sketch:type="MSShapeGroup"></path>
            <path d="M529.109,74.285 C519.613,74.285 512.98,67.018 512.98,56.614 C512.98,46.045 519.462,38.944 529.109,38.944 C538.605,38.944 545.238,46.21 545.238,56.614 C545.238,67.018 538.605,74.285 529.109,74.285 M529.109,27.643 C512.455,27.643 500.368,39.827 500.368,56.614 C500.368,73.401 512.455,85.586 529.109,85.586 C545.763,85.586 557.851,73.401 557.851,56.614 C557.851,39.827 545.763,27.643 529.109,27.643" id="Shape" sketch:type="MSShapeGroup"></path>
            <path d="M589.87,49.658 C583.413,48.021 579.493,46.831 579.493,44.118 C579.493,40.975 582.369,39.023 586.998,39.023 C592.617,39.023 597.709,41.014 601.335,44.629 L602.555,45.846 L609.784,36.489 L608.811,35.55 C603.427,30.356 596.356,27.722 587.796,27.722 C575.677,27.722 566.88,34.886 566.88,44.755 C566.88,57.092 577.92,59.88 586.792,62.122 C593.726,63.873 597.937,65.181 597.937,68.553 C597.937,71.197 595.532,74.285 588.755,74.285 C580.667,74.285 575.421,69.996 573.014,67.439 L571.755,66.103 L564.759,75.761 L565.612,76.67 C571.091,82.503 578.956,85.586 588.355,85.586 C604.66,85.586 610.47,76.334 610.47,67.677 C610.47,54.883 598.564,51.863 589.87,49.658" id="Shape" sketch:type="MSShapeGroup"></path>
            <path d="M663,39.761 L663,27.761 L621,27.761 L621,83.761 L663,83.761 L663,72.761 L633,72.761 L633,60.761 L659,60.761 L659,49.761 L633,49.761 L633,39.761 L663,39.761 L663,39.761 Z" id="Shape" sketch:type="MSShapeGroup"></path>
            <path d="M251,56.939 C251,73.727 262.949,85.941 280.019,85.941 C288.946,85.941 296.408,82.379 301.677,75.244 L293.717,67.288 C291.294,71.318 285.444,74.701 280.518,74.701 C270.756,74.701 263.707,67.148 263.707,56.909 C263.707,46.67 270.81,39.116 280.571,39.116 C285.497,39.116 291.428,42.499 293.851,46.53 L301.958,38.574 C296.688,31.438 288.944,27.876 280.017,27.876 C262.947,27.876 251,40.091 251,56.878 L251,56.939 L251,56.939 Z" id="Shape" sketch:type="MSShapeGroup"></path>
            <path d="M398.889,120.454 L390.72,99.658 L386.168,99.658 L378,120.454 L382.146,120.454 L383.674,116.463 L393.215,116.463 L394.742,120.454 L398.889,120.454 L398.889,120.454 Z M392.186,113.252 L384.703,113.252 L388.444,103.337 L392.186,113.252 L392.186,113.252 Z" id="Shape" sketch:type="MSShapeGroup"></path>
            <path d="M420.745,120.454 L420.745,99.658 L417.097,99.658 L417.097,114.094 L406.465,99.658 L402.724,99.658 L402.724,120.454 L406.372,120.454 L406.372,105.613 L417.222,120.454 L420.745,120.454 L420.745,120.454 Z" id="Shape" sketch:type="MSShapeGroup"></path>
            <rect id="Rectangle-path" sketch:type="MSShapeGroup" x="436.303" y="99.658" width="3.648" height="20.796"></rect>
            <path d="M456.444,120.454 C460.341,120.454 462.493,118.053 462.493,114.842 C462.493,112.285 460.684,110.072 458.471,109.729 C460.404,109.323 462.087,107.577 462.087,104.958 C462.087,102.028 459.967,99.658 456.163,99.658 L445.937,99.658 L445.937,120.454 L456.444,120.454 L456.444,120.454 Z M455.415,108.263 L449.585,108.263 L449.585,102.869 L455.415,102.869 C457.286,102.869 458.346,104.023 458.346,105.582 C458.346,107.141 457.286,108.263 455.415,108.263 L455.415,108.263 Z M455.571,117.243 L449.585,117.243 L449.585,111.475 L455.571,111.475 C457.66,111.475 458.751,112.784 458.751,114.343 C458.751,116.151 457.566,117.243 455.571,117.243 L455.571,117.243 Z" id="Shape" sketch:type="MSShapeGroup"></path>
            <path d="M489.306,120.454 L489.306,99.658 L484.162,99.658 L478.487,113.345 L472.844,99.658 L467.699,99.658 L467.699,120.454 L471.347,120.454 L471.347,105.021 L477.708,120.454 L479.267,120.454 L485.658,105.021 L485.658,120.454 L489.306,120.454 L489.306,120.454 Z" id="Shape" sketch:type="MSShapeGroup"></path>
            <path d="M514.841,120.828 C519.05,120.828 521.607,118.646 523.197,116.151 L520.079,114.561 C519.081,116.307 517.086,117.585 514.841,117.585 C510.725,117.585 507.67,114.436 507.67,110.072 C507.67,105.707 510.725,102.558 514.841,102.558 C517.086,102.558 519.081,103.867 520.079,105.582 L523.197,103.992 C521.638,101.497 519.05,99.315 514.841,99.315 C508.699,99.315 503.929,103.68 503.929,110.072 C503.929,116.463 508.699,120.828 514.841,120.828" id="Shape" sketch:type="MSShapeGroup"></path>
            <path d="M537.383,120.828 C543.619,120.828 548.015,116.276 548.015,110.072 C548.015,103.867 543.619,99.315 537.383,99.315 C531.147,99.315 526.751,103.867 526.751,110.072 C526.751,116.276 531.147,120.828 537.383,120.828 M537.383,117.585 C533.174,117.585 530.493,114.343 530.493,110.072 C530.493,105.769 533.174,102.558 537.383,102.558 C541.561,102.558 544.273,105.769 544.273,110.072 C544.273,114.343 541.561,117.585 537.383,117.585" id="Shape" sketch:type="MSShapeGroup"></path>
            <path d="M574.703,120.454 L574.703,99.658 L569.559,99.658 L563.884,113.345 L558.241,99.658 L553.096,99.658 L553.096,120.454 L556.744,120.454 L556.744,105.021 L563.105,120.454 L564.664,120.454 L571.055,105.021 L571.055,120.454 L574.703,120.454 L574.703,120.454 Z" id="Shape" sketch:type="MSShapeGroup"></path>
            <path d="M584.337,120.454 L584.337,112.691 L589.824,112.691 C594.158,112.691 596.621,109.698 596.621,106.174 C596.621,102.651 594.189,99.658 589.824,99.658 L580.689,99.658 L580.689,120.454 L584.337,120.454 L584.337,120.454 Z M589.325,109.479 L584.337,109.479 L584.337,102.869 L589.325,102.869 C591.383,102.869 592.88,104.179 592.88,106.174 C592.88,108.17 591.383,109.479 589.325,109.479 L589.325,109.479 Z" id="Shape" sketch:type="MSShapeGroup"></path>
            <path d="M617.573,120.454 L609.405,99.658 L604.852,99.658 L596.683,120.454 L600.831,120.454 L602.358,116.463 L611.899,116.463 L613.426,120.454 L617.573,120.454 L617.573,120.454 Z M610.87,113.252 L603.387,113.252 L607.128,103.337 L610.87,113.252 L610.87,113.252 Z" id="Shape" sketch:type="MSShapeGroup"></path>
            <path d="M639.429,120.454 L639.429,99.658 L635.781,99.658 L635.781,114.094 L625.149,99.658 L621.408,99.658 L621.408,120.454 L625.056,120.454 L625.056,105.613 L635.906,120.454 L639.429,120.454 L639.429,120.454 Z" id="Shape" sketch:type="MSShapeGroup"></path>
            <path d="M654.956,120.454 L654.956,111.818 L663,99.658 L658.822,99.658 L653.147,108.575 L647.411,99.658 L643.233,99.658 L651.308,111.818 L651.308,120.454 L654.956,120.454 L654.956,120.454 Z" id="Shape" sketch:type="MSShapeGroup"></path>
            <g id="Group" transform="translate(12.999900, 0.000000)" sketch:type="MSShapeGroup">
                <path d="M120.120053,96.7699687 L81.011947,119.349047 L39.109447,95.1568901 L0,72.5764709 L0,24.192157 L41.9025,0 L81.0106061,22.5790783 L120.118712,0 L162.021212,24.192157 L201.132,46.7725762 L201.132,95.1568901 L159.2295,119.349047 L120.120053,96.7699687 L120.120053,96.7699687 Z M122.913106,91.9320737 L122.914447,53.222209 L156.436447,72.5778118 L156.437788,111.287676 L122.913106,91.9320737 L122.913106,91.9320737 Z M44.695553,91.9320737 L44.695553,53.222209 L78.2188939,72.5778118 L78.2202348,111.287676 L44.695553,91.9320737 L44.695553,91.9320737 Z M5.58610608,69.3516545 L5.58610608,30.6417898 L39.109447,49.9973926 L39.1107878,88.7072573 L5.58610608,69.3516545 L5.58610608,69.3516545 Z M81.011947,29.030052 L114.535288,48.3856548 L81.011947,67.7399167 L47.4872652,48.3856548 L81.011947,29.030052 L81.011947,29.030052 Z M159.2295,29.030052 L192.752841,48.3856548 L159.2295,67.7399167 L125.704818,48.3856548 L159.2295,29.030052 L159.2295,29.030052 Z M41.9025,6.4496328 L75.4258409,25.8052356 L41.9025,45.1594975 L8.37781824,25.8052356 L41.9025,6.4496328 L41.9025,6.4496328 Z M120.118712,6.4496328 L153.642053,25.8052356 L120.118712,45.1594975 L86.5940304,25.8052356 L120.118712,6.4496328 L120.118712,6.4496328 Z" id="Shape"></path>
            </g>
            <g id="Group" transform="translate(34.875095, 59.527375) rotate(239.999971) translate(-34.875095, -59.527375) translate(0.704615, 39.427093)" fill-opacity="0.501961" sketch:type="MSShapeGroup">
                <path d="M33.8073348,1.08139519 L67.3305857,20.436627 L33.8073348,39.7905189 L0.282743971,20.436627 L33.8073348,1.08139519 L33.8073348,1.08139519 Z" id="Shape"></path>
            </g>
            <g id="Group" transform="translate(73.984195, 82.108375) rotate(239.999971) translate(-73.984195, -82.108375) translate(39.813715, 62.008093)" fill-opacity="0.501961" sketch:type="MSShapeGroup">
                <path d="M33.8073348,1.08139519 L67.3305857,20.436627 L33.8073348,39.7905189 L0.282743971,20.436627 L33.8073348,1.08139519 L33.8073348,1.08139519 Z" id="Shape"></path>
            </g>
            <g id="Group" transform="translate(152.201995, 82.108375) rotate(239.999971) translate(-152.201995, -82.108375) translate(118.031515, 62.008093)" fill-opacity="0.501961" sketch:type="MSShapeGroup">
                <path d="M33.8073348,1.08139519 L67.3305857,20.436627 L33.8073348,39.7905189 L0.282743971,20.436627 L33.8073348,1.08139519 L33.8073348,1.08139519 Z" id="Shape"></path>
            </g>
        </g>
    </g>
</svg>