<?xml version="1.0" encoding="utf-8"?>
<!-- Generator: Adobe Illustrator 17.0.2, SVG Export Plug-In . SVG Version: 6.00 Build 0)  -->
<!DOCTYPE svg PUBLIC "-//W3C//DTD SVG 1.1//EN" "http://www.w3.org/Graphics/SVG/1.1/DTD/svg11.dtd">
<svg version="1.1" id="Layer_1" xmlns="http://www.w3.org/2000/svg" xmlns:xlink="http://www.w3.org/1999/xlink" x="0px" y="0px"
	 width="799.388px" height="259.9px" viewBox="0 0 799.388 259.9" enable-background="new 0 0 799.388 259.9" xml:space="preserve">
<g>
	<g>
		<path d="M281.473,136.212c0-22.644,17.612-38.999,39.572-38.999c17.498,0,29.164,9.149,29.164,18.185
			c0,5.49-3.545,9.263-8.235,9.263c-5.146,0-8.692-3.202-8.692-8.12c0-1.487,0.344-2.973,0.801-3.888
			c-2.172-1.716-6.519-3.431-13.381-3.431c-14.639,0-25.847,11.208-25.847,26.876c0,15.096,10.522,27.105,26.419,27.105
			c8.807,0,16.012-3.888,21.616-9.95l8.578,8.92c-7.32,8.12-18.185,13.038-30.194,13.038
			C298.056,175.212,281.473,159.657,281.473,136.212z"/>
		<path d="M356.041,148.792c0-13.724,10.293-25.962,26.647-25.962c16.583,0,26.647,12.009,26.647,25.962
			c0,13.724-10.293,25.962-26.647,25.962C366.104,174.754,356.041,162.745,356.041,148.792z M396.526,148.792
			c0-9.149-5.718-15.554-13.838-15.554c-8.12,0-13.838,6.405-13.838,15.554s5.718,15.554,13.838,15.554
			C390.808,164.346,396.526,157.942,396.526,148.792z"/>
		<path d="M414.481,163.546h7.434v-29.278h-7.434v-10.522h19.442v7.891c3.889-4.232,9.379-8.806,16.813-8.806
			c5.375,0,9.377,2.058,11.894,5.376c0.686,0.915,1.144,1.83,1.602,2.859c4.689-4.575,10.293-8.234,16.697-8.234
			c6.977,0,11.78,2.516,14.296,7.205c1.373,2.516,2.058,5.718,2.058,9.378v24.132h7.434v10.293H478.07v-10.293h6.748v-21.158
			c0-1.944-0.229-3.431-0.801-4.689c-1.029-2.402-3.088-3.545-5.947-3.545c-4.117,0-8.463,2.402-12.237,5.604v23.788h6.748v10.293
			h-26.076v-10.293h6.861v-21.158c0-1.944-0.228-3.431-0.8-4.689c-1.03-2.402-2.973-3.545-5.948-3.545
			c-4.117,0-8.463,2.402-12.236,5.604v23.788h6.633v10.293h-26.534V163.546z"/>
		<path d="M506.432,185.962h7.434v-51.694h-7.434v-10.522h19.442v5.719c3.889-3.66,8.12-6.634,14.868-6.634
			c13.038,0,22.873,10.636,22.873,25.733c0,14.524-10.407,26.19-23.674,26.19c-5.375,0-9.836-1.944-13.61-4.803v16.011h8.12v10.293
			h-28.02V185.962z M550.807,148.678c0-9.607-5.718-15.096-12.809-15.096c-4.689,0-8.349,2.058-11.666,5.032v21.501
			c3.203,2.288,7.091,3.888,11.666,3.888C544.631,164.003,550.807,158.628,550.807,148.678z"/>
		<path d="M569.104,148.792c0-13.724,10.293-25.962,26.647-25.962c16.584,0,26.647,12.009,26.647,25.962
			c0,13.724-10.293,25.962-26.647,25.962C579.168,174.754,569.104,162.745,569.104,148.792z M609.59,148.792
			c0-9.149-5.718-15.554-13.838-15.554c-8.12,0-13.838,6.405-13.838,15.554s5.718,15.554,13.838,15.554
			C603.872,164.346,609.59,157.942,609.59,148.792z"/>
		<path d="M664.257,141.587c-4.002,0-6.748-2.402-6.748-6.176c0-0.8,0-1.487,0.229-2.173c-2.059-0.8-4.575-1.258-7.091-1.258
			c-5.603,0-8.349,2.516-8.349,5.146c0,2.859,2.859,4.346,10.522,6.405c12.008,3.203,18.985,6.176,18.985,15.211
			c0,10.522-9.836,16.126-21.159,16.126c-7.662,0-15.897-2.745-19.213-6.062c-2.059-2.058-2.86-4.117-2.86-6.747
			c0-3.66,2.745-6.748,6.634-6.748c3.431,0,6.748,2.287,6.748,6.633c0,0.686-0.115,1.372-0.229,2.058
			c2.287,0.915,5.49,1.601,9.035,1.601c5.032,0,9.149-1.715,9.149-5.375c0-2.516-2.172-4.003-9.836-6.062
			c-13.838-3.66-19.67-6.976-19.67-15.553c0-7.777,6.404-15.897,20.471-15.897c6.061,0,13.381,2.287,16.812,5.718
			c1.83,1.83,2.745,4.003,2.745,6.405C670.433,138.842,667.917,141.587,664.257,141.587z"/>
		<path d="M690.675,153.024c1.715,7.777,8.12,11.208,16.469,11.208c6.061,0,12.352-1.944,18.184-5.261l-1.029,11.208
			c-5.26,3.088-11.666,4.575-18.985,4.575c-16.354,0-27.676-10.293-27.676-25.847c0-14.182,9.949-26.076,25.389-26.076
			c16.012,0,24.36,10.751,24.36,24.017c0,1.944-0.229,4.461-0.572,6.176H690.675z M690.561,144.332h24.361
			c-0.229-6.862-4.69-11.437-12.009-11.437C697.423,132.895,691.933,136.098,690.561,144.332z"/>
	</g>
	<path d="M179.364,80.764l-35.982,20.652l-35.556-20.652l-35.982,20.652v36.979l71.964,41.731l36.195-20.652l35.556,20.652
		l35.982-20.652v-36.979L179.364,80.764z M79.934,105.887l27.891-15.968l27.891,15.968l-27.891,16.181L79.934,105.887z
		 M143.808,143.147l-27.891-16.181l27.891-15.968l27.891,15.968L143.808,143.147z M179.364,122.282L151.472,106.1l27.891-15.968
		l27.891,15.968L179.364,122.282z M215.559,143.147l-27.891-16.181l27.891-15.968l27.891,15.968L215.559,143.147z"/>
</g>
</svg>
