<?xml version="1.0" encoding="utf-8"?>
<!-- Generator: Adobe Illustrator 18.0.0, SVG Export Plug-In . SVG Version: 6.00 Build 0)  -->
<!DOCTYPE svg PUBLIC "-//W3C//DTD SVG 1.1//EN" "http://www.w3.org/Graphics/SVG/1.1/DTD/svg11.dtd">
<svg version="1.1" id="Layer_1" xmlns="http://www.w3.org/2000/svg" xmlns:xlink="http://www.w3.org/1999/xlink" x="0px" y="0px"
	 viewBox="0 0 1190.4 165.1" enable-background="new 0 0 1190.4 165.1" xml:space="preserve">
<g>
	<g>
		<path d="M119.7,127.1c-11.2,11.2-25,16.9-40.8,16.9c-16.4,0-30.3-5.5-41.3-16.5c-11-11-16.5-24.9-16.5-41.3
			c0-16.4,5.6-30.3,16.5-41.1c11-10.9,24.8-16.4,41.3-16.4c16.2,0,30.1,5.9,41.4,17.6l1.2,1.2l14.8-14.8l-1.1-1.2
			C119.7,15.7,100.8,7.7,78.9,7.7c-22.3,0-41.2,7.6-56.2,22.5C7.6,45.1,0,64,0,86.2c0,22.4,7.6,41.4,22.5,56.4
			c14.9,15,33.9,22.5,56.3,22.5c21.7,0,40.4-7.8,55.6-23.3l1.2-1.2l-14.8-14.8L119.7,127.1z"/>
		<path d="M425.3,50.3v112.8h-10.5c-0.9-0.2-4.6-0.3-10.8-0.3V10.5h21.4L505.4,122V10.5h22.1v152.4c-6.6,0-10.3,0.1-11.3,0.3
			l-10.9,0.3L425.3,50.3z"/>
		<polygon fill="#8CC63F" points="662.1,163.4 584.9,23.6 584.6,10.5 602.9,10.5 662.3,118 720.8,10.5 738.5,10.5 739.1,23.6 		"/>
		<rect x="796.2" y="10.8" fill="#8CC63F" width="22" height="152.7"/>
		<polygon fill="#8CC63F" points="953.6,163.4 876.4,23.6 876.1,10.5 894.3,10.5 953.7,118 1012.2,10.5 1029.9,10.5 1030.5,23.6 		
			"/>
		<path fill="#8CC63F" d="M1137.1,111.4h-62.4l-27,48.2h-18.1l0.3-12.7l76.4-136.4l76.2,136.4l-0.6,12.7H1164L1137.1,111.4z
			 M1084.6,93.6h43.3L1106.3,55L1084.6,93.6z"/>
		<path fill="#8EC640" d="M325.1,30.1c-9.6-9.6-20.9-16.2-33.7-19.6l-2.1-0.6v22.2l1.1,0.4c7.4,2.7,14,7,19.7,12.7
			c11,10.9,16.5,24.7,16.5,40.9c0,16.4-5.5,30.3-16.4,41.2c-10.9,10.9-24.7,16.5-41.1,16.5c-16.4,0-30.3-5.6-41.3-16.5
			c-11-10.9-16.5-24.8-16.5-41.2c0-16.4,5.6-30.1,16.5-41c6.1-6.1,13.4-10.5,21.6-13.2l1.1-0.4V9.6l-2.1,0.5
			c-13.5,3.3-25.5,10-35.6,20c-15.1,14.9-22.7,33.8-22.7,56c0,22.4,7.6,41.3,22.6,56.3c14.9,14.9,33.9,22.5,56.4,22.5
			c22.3,0,41.2-7.6,56.1-22.6c15-15,22.5-33.9,22.5-56.1C347.7,63.9,340.1,45.1,325.1,30.1"/>
		<rect x="261.4" fill="#8CC63F" width="17" height="65.5"/>
		<path d="M1152.2,29.6c0-5.3,1.9-9.8,5.6-13.5c3.7-3.7,8.2-5.6,13.5-5.6c5.3,0,9.8,1.9,13.5,5.6c3.7,3.7,5.6,8.2,5.6,13.5
			c0,5.3-1.9,9.8-5.6,13.5c-3.7,3.7-8.2,5.6-13.5,5.6c-5.3,0-9.8-1.9-13.5-5.6C1154.1,39.3,1152.2,34.8,1152.2,29.6 M1187.3,29.6
			c0-4.4-1.5-8.2-4.7-11.3c-3.1-3.1-6.9-4.7-11.3-4.7c-4.4,0-8.2,1.6-11.3,4.7c-3.1,3.1-4.7,6.9-4.7,11.3c0,4.4,1.6,8.2,4.7,11.3
			c3.1,3.1,6.9,4.7,11.3,4.7c4.4,0,8.2-1.6,11.3-4.7C1185.7,37.7,1187.3,34,1187.3,29.6 M1177.2,41.1l-5.9-10.1h-3.4v10.1h-3.4V17.6
			h6c5.7,0,8.5,2.2,8.5,6.5c0,3-1.5,5.2-4.6,6.4l6.4,10.6H1177.2z M1167.9,20.5v7.8c0.3,0,1,0,2.2,0c2.2,0,3.7-0.3,4.4-0.8
			c0.7-0.6,1.1-1.6,1.1-3.2c0-2.6-1.7-3.9-5.1-3.9h-1.3L1167.9,20.5z"/>
	</g>
</g>
</svg>
