<?xml version="1.0" encoding="utf-8"?>
<!-- Generator: Adobe Illustrator 18.0.0, SVG Export Plug-In . SVG Version: 6.00 Build 0)  -->
<!DOCTYPE svg PUBLIC "-//W3C//DTD SVG 1.1//EN" "http://www.w3.org/Graphics/SVG/1.1/DTD/svg11.dtd">
<svg version="1.1" id="Layer_1" xmlns="http://www.w3.org/2000/svg" xmlns:xlink="http://www.w3.org/1999/xlink" x="0px" y="0px"
	 viewBox="0 0 446.5 47.4" enable-background="new 0 0 446.5 47.4" xml:space="preserve">
<g>
	<path d="M408.6,45.9c0-14.9,0-29.3,0-44.4c8.6-0.1,17.2-1.4,25.4,2c9,3.7,13.8,13.8,12.1,25c-1.4,9.8-7.8,16.5-17.7,17.4
		C422.1,46.4,415.6,45.9,408.6,45.9z M413,42.3c5.1-0.3,9.6-0.3,14.1-0.8c8.2-0.9,13.4-5.8,14.5-13.4c1.4-9.5-2.2-17.9-9.8-20.3
		C425.9,6,419.5,5.8,413,4.9C413,18,413,29.7,413,42.3z"/>
	<path d="M137.2,45.9c-2,0-3.1,0-4.5,0c0-14.8,0-29.4,0-45.5c10.4,12,20.1,23,30.7,35.1c0-12.1,0-22.8,0-33.9
		c1.5-0.1,2.6-0.2,3.9-0.3c0,14.8,0,29.4,0,45.4c-10.1-11.6-19.6-22.4-30.1-34.4C137.2,24.4,137.2,34.9,137.2,45.9z"/>
	<path d="M393.1,33.7c0-10.6,0-21.2,0-32.1c1.6,0,2.6,0,4,0c0,14.7,0,29.4,0,45.3c-10.4-11.8-19.9-22.7-30.4-34.6
		c0,11.9,0,22.5,0,33.3c-1.5,0.2-2.6,0.4-4.1,0.6c0-14.9,0-29.6,0-45.4c10.1,11.6,19.6,22.5,29.1,33.4
		C392.1,34.1,392.6,33.9,393.1,33.7z"/>
	<path d="M82,46c-2.5,0-3.9,0-5.4,0c-5.7-7.1-11.3-14.2-16.9-21.2c-0.5,0.2-1.1,0.4-1.6,0.6c0,6.7,0,13.3,0,20.4
		c-1.9,0.1-3.1,0.1-4.5,0.2c0-15,0-29.6,0-44.6c5.9,0,11.6-0.4,17.4,0.1c6.3,0.5,10.2,4.9,10.5,10.7c0.3,6.8-2.9,11.1-9.6,12.6
		c-1.6,0.4-3.2,0.5-5.6,0.8C71.6,32.5,76.5,38.9,82,46z M58.2,21.2c4.6-0.3,8.7-0.3,12.7-0.9c4-0.6,5.9-3.5,5.8-7.5
		c-0.1-3.8-2.1-6.4-6-6.8c-4-0.5-8.2-0.5-12.6-0.7C58.2,10.8,58.2,15.5,58.2,21.2z"/>
	<path d="M261.3,46.1c-1.3-0.1-2.4-0.1-3.8-0.2c0-7.1,0-13.9,0-21.1c-7.8,0-15.1,0-23,0c0,7.1,0,14,0,21.1c-1.7,0-3,0-4.4,0
		c0-14.9,0-29.5,0-44.4c1.4,0,2.7,0,4.4,0c0,6.2,0,12.1,0,18.3c7.8,0,15,0,22.8,0c0-6,0-11.9,0-18.2c1.6-0.1,2.7-0.2,4-0.3
		C261.3,16.2,261.3,30.8,261.3,46.1z"/>
	<path d="M40.7,35.9c1.1,0.9,2,1.7,3,2.5C35.4,49,17.8,50.5,7.8,41.6C-2.3,32.7-2.6,16,7,6.7c10.2-9.8,27.2-8.8,36.7,2.4
		c-0.8,0.9-1.6,1.8-2.5,2.7C27.3,2.3,16.4,2.3,8.9,11.7c-6.1,7.7-5.4,19.2,1.6,25.9C18.5,45.4,30.2,44.9,40.7,35.9z"/>
	<path d="M220.7,9.5c-1.2,0.9-2.1,1.5-2.9,2.2c-10-9.5-22.8-10.1-31.6-0.5c-6.6,7.2-6.2,18.9,0.6,25.9c7.9,8.3,19.6,7.9,30.7-1
		c0.9,0.7,2,1.4,3.2,2.2c-3.9,5.5-9.3,7.8-15.3,8.7c-12.6,2-23.5-4.2-27.2-15.1c-4-11.5,0.6-23.7,11.1-29.1
		C199.7-2.7,213.4,0.1,220.7,9.5z"/>
	<path d="M116.6,1.6c1.9,0,3.1,0,4.5,0c0,10.9,0.5,21.5-0.2,32.1c-0.6,9.5-6.5,14-15.6,13.6c-8.5-0.4-13.6-5.9-13.7-15.1
		c-0.1-10,0-19.9,0-30.3c1.3-0.2,2.5-0.3,4.4-0.5c0,7.7,0,14.9,0,22.2c0,3.2,0,6.3,0.2,9.5c0.4,6.4,4.6,10.3,10.6,10.1
		c5.6-0.1,9.7-4.2,9.8-10.4C116.7,22.5,116.6,12.4,116.6,1.6z"/>
	<path d="M346.4,1.5c1.5,0,2.5,0,3.6,0c0.1,0.6,0.4,1.2,0.4,1.8c0,9.8,0.1,19.7,0,29.5c-0.2,8.9-5.5,14.3-13.8,14.4
		c-9.3,0.1-15-4.7-15.4-13.9c-0.4-10.5-0.1-20.9-0.1-31.7c1.4,0,2.6,0,4.3,0c0,10.1,0,20.1,0,30c0,4.2,1,7.9,5.2,10
		c7.8,3.9,15.3-0.6,15.6-9.7c0.3-8.2,0.1-16.3,0.2-24.5C346.4,5.7,346.4,3.9,346.4,1.5z"/>
	<path d="M312.6,1.6c0,1.3,0,2.3,0,3.8c-5.8,0-11.4,0-17.4,0c0,4.8,0,9.2,0,14c5.7,0,11.2,0,17.2,0c0.2,1.6,0.4,2.8,0.6,4.6
		c-6.1,0-11.9,0-18.3,0c0,7.6,0,14.6,0,21.8c-1.7,0-2.8,0-4.1,0c0-14.8,0-29.4,0-44.2C297.9,1.6,304.9,1.6,312.6,1.6z"/>
	<path fill="#40B550" d="M328.2,30.2c5.1,0,9.9,0,14.9,0c1.6,3.7,0.3,7-2.6,8.6c-2.2,1.2-5.8,1.6-8.1,0.8
		C328.6,38.2,327.6,34.6,328.2,30.2z"/>
</g>
</svg>
