<?xml version="1.0" encoding="utf-8"?>
<!-- Generator: Adobe Illustrator 18.0.0, SVG Export Plug-In . SVG Version: 6.00 Build 0)  -->
<!DOCTYPE svg PUBLIC "-//W3C//DTD SVG 1.1//EN" "http://www.w3.org/Graphics/SVG/1.1/DTD/svg11.dtd">
<svg version="1.1" id="Layer_1" xmlns="http://www.w3.org/2000/svg" xmlns:xlink="http://www.w3.org/1999/xlink" x="0px" y="0px"
	 viewBox="0 0 330.8 373" enable-background="new 0 0 330.8 373" xml:space="preserve">
<g>
	<path fill="#010101" d="M9.6,317.4c0.4-0.7,2.5-4.6,2.7-5c0.3-0.7,0-1-0.5-1.3l-1.3-0.8c-0.1-0.1-0.2-0.1-0.1-0.3l0.4-0.8
		c0.1-0.1,0.2-0.1,0.3,0c0.4,0.2,1.5,1,4.2,2.5c0.7,0.4,3.4,1.8,4.1,2.2c3.7,2.1,6.4,4,7.8,7.6c0.9,2.5,0.9,5.4-0.8,8.6
		c-1.8,3.1-3.8,4.7-6.7,5.6c-4.2,1.4-8.8-1.2-10.5-2.2c-0.4-0.2-3.6-2.1-5.1-3c-2.3-1.3-3.5-1.9-3.9-2.1c-0.1-0.1-0.2-0.2-0.1-0.3
		l0.4-0.7c0.1-0.1,0.2-0.1,0.3,0l1.4,0.8c0.5,0.3,0.9,0.2,1.2-0.2c0.4-0.5,3.9-6.5,5.1-8.6L9.6,317.4z M12.2,322.3
		c-0.2,0.4-2.8,5-3.7,6.6c-0.3,0.5-0.4,1-0.4,1.7c0,0.7,0.9,1.3,1.8,1.9c1.6,0.9,4.1,1.3,6.5,0.2c1.9-0.8,4-2.6,5.4-5.1
		c1.3-2.2,1.6-5,1.1-7.1c-0.5-2.4-2.4-4.6-4-5.5c-0.8-0.4-1.2-0.6-1.6-0.6c-0.5,0-0.9,0.3-1.2,0.9c-0.7,1.1-2.7,4.7-2.9,5.1
		L12.2,322.3z"/>
	<path fill="#010101" d="M32.4,330c0.9-2.1,1.8-3.9,2.1-4.7c0.4-0.9,0.2-1.6-0.2-1.8l-1.1-0.5c-0.1-0.1-0.1-0.2-0.1-0.3l0.3-0.8
		c0.1-0.1,0.1-0.2,0.3-0.1c0.3,0.1,1.1,0.6,4.2,2c1.6,0.7,4.1,1.8,5.3,2.3c2.2,1,3.5,2.5,4.2,4.1c0.6,1.4,0.7,2.8,0.2,3.8
		c-1.6,3.6-5,4-7.6,3.1l-0.1,0.2c0.7,0.7,1,1.4,1.2,2.3c0.2,0.6,0.6,3.8,0.7,4.3c0.1,0.3,0.6,3.2,0.9,4.1c0.2,0.5,1.1,1.2,1.8,1.5
		c0.2,0.1,0.2,0.2,0.1,0.3l-0.3,0.7c-0.1,0.2-0.1,0.2-0.3,0.2c-0.2-0.1-0.9-0.5-3.1-1.5c-0.8-0.4-1.9-0.8-2.7-1.1
		c-0.6-1-0.8-5.1-0.9-6.3c-0.1-2.4-0.3-5-1.7-5.6l-1-0.4l-0.7,1.4c-0.8,1.7-2.1,4.9-2.2,5.3c-0.2,0.6-0.2,1.2,0.2,1.4l1.2,0.5
		c0.2,0.1,0.2,0.2,0.1,0.3l-0.3,0.7c-0.1,0.2-0.1,0.2-0.6,0c0,0-0.7-0.4-3.7-1.8c-3-1.4-3.7-1.6-4-1.7c-0.2-0.1-0.2-0.2-0.1-0.4
		l0.3-0.7c0.1-0.1,0.1-0.2,0.2-0.2l0.8,0.4c0.6,0.3,1.2,0.3,1.5-0.4c1.3-2.8,2.5-5.4,3.7-8.1L32.4,330z M35,334.8
		c0.5,0.3,0.9,0.4,1.1,0.5c3.7,1.7,6.2-1.5,6.8-2.8c0.6-1.3,0.7-2.7,0.4-3.6c-0.6-1.4-1.7-2.3-2.6-2.7c-0.5-0.2-0.9-0.3-1.2-0.2
		c-0.2,0-0.4,0.3-0.7,0.6L35,334.8z"/>
	<path fill="#010101" d="M53.1,344.9c-0.5,0.5-3.3,4-3.7,4.9c-0.2,0.6-0.2,1.4,0.7,1.8l1,0.4c0.3,0.1,0.3,0.2,0.2,0.3l-0.2,0.6
		c-0.1,0.2-0.1,0.3-0.4,0.2c-0.4-0.1-1.5-0.7-3.9-1.5c-2.1-0.8-2.8-0.9-3.2-1.1c-0.2-0.1-0.1-0.2-0.1-0.5l0.2-0.6
		c0.1-0.2,0.1-0.3,0.3-0.2l0.8,0.3c0.7,0.3,1.5,0.1,2.4-0.6c0.6-0.5,4.5-4.8,6.4-7c0.4-0.5,5.1-5.9,5.6-6.6c0.2-0.3,0.5-0.6,0.4-1
		c0-0.1-0.1-0.3-0.1-0.5c0-0.1,0.1-0.2,0.4-0.2c1,0.1,3.2,0.1,3.8-0.3c0.2-0.1,0.3-0.2,0.5-0.1c0.2,0.1,0.2,0.3,0.1,0.6
		c-0.1,2-0.2,9.4-0.3,11.5c-0.1,2.5-0.2,8.6-0.1,9.6c0.2,1.1,0.8,1.8,1.2,1.9l1,0.4c0.2,0.1,0.2,0.2,0.1,0.3l-0.2,0.6
		c-0.1,0.2-0.2,0.4-0.4,0.3c-0.6-0.2-1.1-0.5-4.9-1.8c-2.4-0.9-3.5-1.1-4.1-1.4c-0.3-0.1-0.3-0.3-0.2-0.5l0.2-0.6
		c0.1-0.1,0.1-0.3,0.3-0.2l0.8,0.3c0.8,0.3,1.2,0.1,1.3-0.7c0.1-1.1,0.3-5.3,0.3-6.5L53.1,344.9z M59.7,346c0.1-1,0.5-7.7,0.6-8.5
		c0-0.5,0.1-0.7-0.1-0.8c-0.2-0.1-0.3,0-0.5,0.3c-0.3,0.3-5.3,6.3-5.8,7L59.7,346z"/>
	<path fill="#010101" d="M76.9,353c-0.4,1.4-1.5,5.5-1.6,5.8c-0.1,0.7,0.1,1.1,0.6,1.2l1.5,0.4c0.2,0.1,0.2,0.2,0.2,0.3l-0.2,0.8
		c0,0.1-0.1,0.2-0.3,0.2c-0.4-0.1-1.3-0.5-4.8-1.4c-2.6-0.7-3.8-1-4.1-1.1c-0.2-0.1-0.2-0.2-0.2-0.3l0.2-0.8c0-0.1,0.1-0.2,0.2-0.2
		l0.8,0.2c1,0.3,1.3,0.2,1.6-0.5c0.1-0.3,1.5-4.9,2.5-8.4l1-3.4c0.5-2,1.4-5.1,1.5-5.5c0.1-0.6-0.2-0.8-0.8-0.9l-1.4-0.4
		c-0.1,0-0.2-0.1-0.1-0.3l0.2-0.8c0-0.1,0.1-0.2,0.2-0.2c0.3,0.1,1.4,0.5,4.5,1.3c0.5,0.1,2.3,0.5,3.3,0.8c3.7,1,5.4,1.8,6.7,3.6
		c1,1.3,1.4,3.3,0.9,5.2c-1,3.6-4.5,5.2-9.6,3.9c-0.9-0.3-1.6-0.5-2.4-0.8L76.9,353z M77.5,350.8c0.6,0.3,1.3,0.6,1.8,0.7
		c0.9,0.3,2.7-0.3,3.6-1.1c0.9-0.8,1.3-1.9,1.6-3c1.1-4.1-1.6-5.8-2.8-6.2c-0.5-0.1-0.9-0.2-1.4-0.2L77.5,350.8z"/>
	<path fill="#010101" d="M97.7,354.4c1.4,0.3,2.8,0.5,3.1,0.4c0.5,0,1-0.2,1.6-0.7c0.4-0.4,1-1.2,1.1-1.7c0-0.2,0.1-0.3,0.3-0.2
		l0.8,0.3c0.1,0.1,0.3,0.1,0.2,0.3c-0.2,0.5-0.5,2.1-0.7,3.1c-0.3,1.4-0.4,2.8-0.5,3.5c0,0.2-0.1,0.2-0.3,0.2l-0.8,0
		c-0.1,0-0.2-0.1-0.2-0.3c0-0.5-0.2-1.3-0.3-1.7c-0.2-0.6-0.9-1.2-1.5-1.4c-0.8-0.3-1.7-0.5-3.1-0.8l-0.4,1.8
		c-0.3,1.6-0.8,4.6-0.9,5.2c-0.3,1.6-0.1,2.2,0.3,2.5c0.4,0.3,1,0.5,2.5,0.8c0.5,0.1,1.8,0.3,2.4,0.4c0.6,0.1,1.6-0.1,2.5-0.5
		c0.9-0.5,3-2,3.8-2.6c0.1-0.1,0.2-0.1,0.3,0l0.5,0.4c0.1,0.1,0.1,0.2,0.1,0.3l-2.3,4.3c-0.1,0.3-0.4,0.4-0.8,0.3
		c-0.2,0-0.8-0.2-2.8-0.6c-2-0.4-5.2-1.1-10.4-2.1c-1.1-0.2-2-0.4-2.6-0.5c-0.6-0.1-1-0.1-1.3-0.2c-0.2,0-0.3-0.1-0.2-0.4l0.1-0.6
		c0-0.2,0.1-0.3,0.4-0.2l0.9,0.2c1.4,0.3,1.6,0.1,1.8-1l2.1-10.2c0.5-2.5,1.2-6.3,1.2-6.6c0.1-1-0.2-1.3-1-1.4l-1.2-0.2
		c-0.1,0-0.1-0.1-0.1-0.3l0.1-0.7c0-0.1,0.1-0.2,0.3-0.2c0.7,0.1,1.7,0.4,4.5,1l10.7,2.1c0.5,0.1,1.1,0.2,1.2,0.2
		c0.2,0,0.2,0.1,0.2,0.2c0,0.4,0.2,4.8,0.3,5.1c0,0.2,0,0.2-0.2,0.3l-0.5,0.1c-0.1,0-0.3,0-0.3-0.2c-0.1-0.3-2.3-3.6-2.9-4.1
		c-0.6-0.5-1.3-1.1-2.1-1.3l-4-0.9L97.7,354.4z"/>
	<path fill="#010101" d="M114.2,355.2c0.3-2.3,0.5-4.2,0.6-5.1c0.1-1-0.2-1.6-0.7-1.6l-1.2-0.2c-0.2,0-0.2-0.1-0.2-0.2l0.1-0.8
		c0-0.2,0.1-0.2,0.2-0.2c0.3,0,1.2,0.2,4.6,0.7c1.7,0.2,4.4,0.5,5.7,0.6c2.4,0.3,4.1,1.4,5.2,2.7c1,1.2,1.5,2.4,1.3,3.6
		c-0.5,3.9-3.6,5.3-6.4,5.2l0,0.2c0.9,0.4,1.3,1.1,1.8,1.9c0.3,0.5,1.7,3.5,1.9,3.9c0.1,0.3,1.5,2.8,2,3.6c0.3,0.4,1.5,0.8,2.2,0.9
		c0.2,0,0.2,0.2,0.2,0.3l-0.1,0.7c0,0.2-0.1,0.3-0.3,0.2c-0.2,0-1-0.2-3.4-0.5c-0.9-0.1-2-0.2-2.9-0.3c-0.8-0.8-2.3-4.6-2.7-5.7
		c-0.8-2.2-1.8-4.7-3.2-4.8l-1-0.1l-0.2,1.6c-0.2,1.8-0.6,5.3-0.6,5.7c0,0.7,0.2,1.2,0.6,1.3l1.3,0.2c0.2,0,0.2,0.1,0.2,0.3
		l-0.1,0.7c0,0.2-0.1,0.3-0.5,0.2c0,0-0.8-0.2-4-0.6c-3.3-0.4-4-0.4-4.3-0.5c-0.2,0-0.2-0.1-0.2-0.3l0.1-0.7c0-0.2,0-0.2,0.2-0.2
		l0.9,0.1c0.7,0.1,1.3-0.1,1.4-0.8c0.4-3,0.8-5.9,1.2-8.8L114.2,355.2z M118.1,359.1c0.6,0.1,0.9,0.2,1.2,0.2
		c4.1,0.5,5.5-3.2,5.7-4.7c0.2-1.4-0.1-2.8-0.7-3.6c-1-1.1-2.3-1.7-3.2-1.8c-0.5-0.1-0.9-0.1-1.2,0.1c-0.2,0.1-0.3,0.4-0.4,0.8
		L118.1,359.1z"/>
	<path fill="#010101" d="M142,353c0-1.1-0.2-1.6-0.8-1.6l-1.5,0c-0.2,0-0.2-0.1-0.2-0.3l0-0.7c0-0.2,0-0.2,0.3-0.2
		c0.3,0,1.8,0.1,5.1,0.2c2.7,0.1,4.2,0,4.6,0c0.2,0,0.3,0.1,0.3,0.3l0,0.8c0,0.2,0,0.2-0.3,0.2l-1.1,0c-1.1,0-1.6,0.5-1.7,1.2
		c0,0.3-0.1,2.4-0.2,4l-0.1,2c-0.1,1.6,0,5.6,0,6.6c0,1.4,0.2,2.8,0.9,3.7c1,1.3,2.4,1.8,3.8,1.9c1.1,0,2.8-0.5,3.7-1.3
		c1.3-1.1,2-2.8,2.1-5l0.1-4.8c0.1-2.6-0.1-6-0.2-6.7c-0.1-0.8-0.6-1.4-1.1-1.4l-1,0c-0.2,0-0.2-0.1-0.2-0.3l0-0.8
		c0-0.2,0-0.2,0.2-0.2c0.3,0,1.7,0.1,3.8,0.2c1.7,0.1,2.7,0,2.9,0c0.3,0,0.3,0.1,0.3,0.3l0,0.7c0,0.2,0,0.3-0.2,0.3l-1,0
		c-1.2,0-1.3,0.8-1.4,1.1c-0.1,0.4-0.2,4.7-0.2,5.1c0,0.4-0.2,5.9-0.4,7.1c-0.3,2.5-1.2,4.5-2.8,5.8c-1.4,1.2-3.5,1.8-5.5,1.8
		c-1.5,0-3.4-0.3-4.7-0.9c-1.5-0.7-2.8-2.2-3.5-4.2c-0.5-1.3-0.5-3.4-0.4-7.5L142,353z"/>
	<path fill="#010101" d="M182.2,362.9c-0.1-2.8-0.2-4.3-0.4-5.8c-0.1-1.2-0.4-4.2-0.5-4.7c-0.2-0.8-1-1.2-1.7-1.1l-1,0
		c-0.2,0-0.2-0.1-0.2-0.3l0-0.8c0-0.2,0-0.2,0.3-0.2c0.3,0,1.3,0,3.6-0.1c1.9-0.1,2.6-0.2,2.9-0.2c0.3,0,0.3,0,0.3,0.2l0,0.7
		c0,0.2,0,0.3-0.1,0.3l-0.9,0c-0.5,0-0.8,0.6-0.9,1.7c-0.1,2.1-0.3,9.1-0.1,13.2l0.2,5.3c0,0.5,0,1-0.4,1c-0.5,0-0.9-0.1-1.2-0.4
		c-0.5-0.5-2.1-2-4.1-4.2c-2.4-2.5-5-5.4-5.6-6c-0.6-0.6-5.1-5.7-5.8-6.7l-0.2,0l0.3,6.3c0.1,2.6,0.6,6.4,0.7,7.5
		c0.1,1.8,0.7,2.7,2,2.6l0.8,0c0.2,0,0.3,0.1,0.3,0.3l0,0.7c0,0.2,0,0.2-0.2,0.3c-0.3,0-2.2,0-3.6,0.1c-1,0-3.1,0.2-3.4,0.3
		c-0.1,0-0.2-0.1-0.2-0.3l0-0.8c0-0.1,0-0.2,0.2-0.2l1.1,0c0.7,0,1.1-1,1.2-3.1c0-0.6,0-5.6-0.2-10.1l-0.1-2.8
		c-0.1-1.8-1.3-3.5-2.8-3.5l-0.8,0c-0.2,0-0.2-0.1-0.2-0.2l0-0.8c0-0.1,0-0.2,0.2-0.2c0.2,0,0.4,0,1,0c0.6,0,1.6,0,3.2-0.1
		c1.1,0,2-0.2,2.3-0.2c0.4,0,0.7,0.1,0.9,0.4c0.2,0.2,6.6,7.4,7.6,8.5c0.5,0.5,5.2,6,5.6,6.3l0.1,0L182.2,362.9z"/>
	<path fill="#010101" d="M190.8,358.1c-0.1-0.7-0.8-6.3-0.9-6.7c-0.1-0.7-0.5-1-1.1-0.9l-1.5,0.2c-0.2,0-0.3,0-0.3-0.2l-0.1-0.9
		c0-0.1,0.1-0.2,0.2-0.2c0.4,0,2-0.1,5-0.5c3.1-0.3,4.1-0.5,4.6-0.6c0.2,0,0.2,0.1,0.2,0.3l0.1,0.8c0,0.2-0.1,0.2-0.2,0.2l-0.9,0.1
		c-0.8,0.1-1.2,0.4-1.1,0.9c0,0.3,0.7,7.1,0.7,7.5l0.3,2.4c0,0.3,0.9,7.4,0.9,7.7c0.1,1,0.6,1.1,1.2,1l1.3-0.1c0.2,0,0.3,0,0.3,0.2
		l0.1,0.9c0,0.1-0.1,0.2-0.3,0.2c-0.4,0-1.6,0.1-4.5,0.4c-3.2,0.4-4.6,0.6-4.9,0.6c-0.2,0-0.3,0-0.3-0.2l-0.1-0.8
		c0-0.1,0.1-0.2,0.2-0.2l0.9-0.1c0.6-0.1,1.3-0.2,1.3-1c0-0.5-0.6-7.1-0.8-8.8L190.8,358.1z"/>
	<path fill="#010101" d="M212.4,346.1c0-0.2,0-0.2,0.1-0.2c0.3,0,1.7-0.2,3.7-0.5c2.8-0.5,3.6-0.7,3.9-0.7c0.2,0,0.2,0,0.3,0.2
		l0.1,0.8c0,0.1,0,0.2-0.2,0.2l-0.7,0.1c-0.5,0.1-1.4,0.5-2,2c-0.9,2.3-1.6,6.1-2.3,8.9c-0.5,1.8-2.6,10.5-2.9,11.5
		c-0.2,0.4-0.3,0.6-0.6,0.6c-0.4,0.1-0.6-0.3-0.8-0.6c-1.5-2.2-5.6-9.2-6.8-11.1c-1.2-2-3.5-6.1-4-6.9c-0.4-0.7-0.8-0.9-1.5-0.8
		l-0.8,0.1c-0.1,0-0.2-0.1-0.2-0.3l-0.1-0.7c0-0.2,0-0.2,0.2-0.2c0.3-0.1,1.3-0.1,5-0.7c3.2-0.5,4.5-0.9,4.8-0.9
		c0.3,0,0.3,0,0.4,0.2l0.1,0.7c0,0.2,0,0.3-0.2,0.3l-1.3,0.2c-0.7,0.1-1.3,0.6-1.2,1c0,0.2,0.1,0.6,0.3,1c0.4,1.1,2.2,4.5,3.1,6.2
		c0.6,1.1,2.9,5.3,3.5,6.4l0.1,0c0.5-2.2,1.4-6.3,1.6-7.4c0.3-1.6,0.8-4.3,1.1-5.8c0.2-0.8,0.1-1.4,0-1.7c-0.1-0.4-0.5-0.9-1.4-0.8
		l-0.9,0.2c-0.1,0-0.2-0.1-0.2-0.2L212.4,346.1z"/>
	<path fill="#010101" d="M228.9,352.8c1.4-0.3,2.7-0.8,3-0.9c0.5-0.2,0.8-0.6,1.2-1.3c0.2-0.5,0.4-1.5,0.2-2c-0.1-0.2,0-0.3,0.2-0.3
		l0.8-0.1c0.2,0,0.3,0,0.3,0.2c0,0.5,0.4,2.1,0.7,3.2c0.3,1.4,0.8,2.8,1,3.4c0.1,0.2,0,0.2-0.2,0.3l-0.7,0.3c-0.1,0.1-0.2,0-0.3-0.2
		c-0.2-0.5-0.7-1.1-1-1.4c-0.5-0.5-1.3-0.7-1.9-0.7c-0.8,0.1-1.8,0.2-3.1,0.6l0.4,1.8c0.4,1.6,1.3,4.5,1.4,5.1
		c0.4,1.6,0.8,2,1.3,2.1c0.5,0.1,1.1,0,2.6-0.3c0.5-0.1,1.8-0.5,2.4-0.7c0.6-0.2,1.4-0.7,2-1.6c0.6-0.8,1.9-3.1,2.3-4
		c0.1-0.1,0.2-0.2,0.3-0.2l0.6,0.2c0.1,0,0.2,0.1,0.2,0.2l-0.2,4.9c0,0.3-0.2,0.5-0.6,0.6c-0.2,0-0.8,0.2-2.8,0.6
		c-2,0.5-5.2,1.2-10.4,2.5c-1.1,0.3-2,0.5-2.6,0.7c-0.6,0.2-1,0.3-1.3,0.4c-0.2,0.1-0.3,0-0.4-0.3l-0.2-0.6c0-0.2,0-0.3,0.2-0.3
		l0.9-0.2c1.4-0.3,1.5-0.6,1.2-1.6l-2.5-10.1c-0.6-2.5-1.6-6.2-1.7-6.5c-0.4-0.9-0.7-1.1-1.5-0.9l-1.2,0.3c-0.1,0-0.2-0.1-0.2-0.3
		l-0.2-0.7c0-0.1,0-0.2,0.2-0.3c0.7-0.2,1.7-0.3,4.5-1l10.6-2.6c0.5-0.1,1-0.3,1.2-0.4c0.1,0,0.2,0,0.3,0.1c0.2,0.4,2.2,4.3,2.4,4.5
		c0.1,0.1,0.1,0.2,0,0.3l-0.4,0.4c-0.1,0.1-0.3,0.1-0.4,0c-0.2-0.2-3.6-2.3-4.4-2.5c-0.7-0.2-1.7-0.4-2.5-0.3l-4,0.8L228.9,352.8z"
		/>
	<path fill="#010101" d="M244.2,346.6c-0.7-2.2-1.3-4.1-1.6-4.9c-0.3-1-0.9-1.3-1.3-1.2l-1.2,0.4c-0.1,0-0.2,0-0.2-0.1l-0.3-0.8
		c0-0.1,0-0.2,0.1-0.3c0.3-0.1,1.2-0.3,4.4-1.3c1.6-0.5,4.2-1.5,5.4-1.9c2.3-0.7,4.3-0.5,5.8,0.3c1.4,0.6,2.4,1.6,2.7,2.7
		c1.2,3.7-1,6.3-3.6,7.4l0.1,0.2c1,0,1.7,0.4,2.5,0.9c0.5,0.3,3,2.4,3.4,2.7c0.3,0.2,2.6,1.9,3.4,2.4c0.5,0.3,1.7,0.1,2.4-0.1
		c0.2-0.1,0.3,0,0.3,0.2l0.2,0.7c0.1,0.2,0.1,0.3-0.1,0.3c-0.2,0.1-1,0.2-3.3,1c-0.9,0.3-1.9,0.7-2.8,1c-1.1-0.4-4-3.2-4.9-4.1
		c-1.7-1.7-3.6-3.5-5-3l-1,0.3l0.5,1.5c0.6,1.7,1.7,5,1.9,5.4c0.3,0.6,0.7,1.1,1.1,0.9l1.2-0.4c0.2-0.1,0.3,0,0.3,0.2l0.2,0.7
		c0.1,0.2,0.1,0.3-0.4,0.4c0,0-0.8,0.2-3.9,1.2c-3.1,1-3.8,1.3-4.1,1.4c-0.2,0.1-0.3,0-0.3-0.2l-0.2-0.7c0-0.1-0.1-0.2,0.1-0.3
		l0.9-0.3c0.6-0.2,1.1-0.6,0.9-1.3c-0.9-2.9-1.8-5.7-2.7-8.5L244.2,346.6z M249.4,348.4c0.6-0.2,0.9-0.3,1.2-0.4
		c3.9-1.3,3.6-5.3,3.1-6.7c-0.4-1.4-1.3-2.5-2.2-2.9c-1.4-0.6-2.8-0.5-3.7-0.2c-0.5,0.2-0.9,0.3-1,0.6c-0.1,0.2-0.1,0.5-0.1,0.9
		L249.4,348.4z"/>
	<path fill="#010101" d="M267.6,346.3c0.1,0,0.2-0.1,0.3,0.1c0.4,0.9,1.3,1.9,2.5,2.8c1.4,1,3,1,4.4,0.5c1.4-0.6,3.2-2.4,2.3-4.6
		c-1-2.4-1.7-2.9-6-2.8c-1,0-3.2-0.1-5.2-0.8c-1.4-0.5-2.4-1.8-3.1-3.5c-0.7-1.8-0.8-3.1,0.4-5.1c0.9-1.5,1.8-2.3,3.6-3.1
		c2.1-0.9,3.4-1,4.1-1c0.3,0,0.5-0.1,0.6-0.4l0.2-0.5c0.1-0.2,0.2-0.3,0.4-0.3c0.2-0.1,0.4,0.2,0.5,0.4l2.4,4.7c0,0.1,0,0.2-0.1,0.2
		l-0.6,0.5c-0.1,0.1-0.3,0.1-0.5,0c-0.7-0.7-1.6-1.6-3-2.3c-1-0.5-2.1-0.6-3.4,0c-2.2,0.9-2.3,3.1-2,3.8c0.4,1.1,0.8,1.9,1.8,2.3
		c1.1,0.5,3,0.5,4.5,0.3c1.5-0.2,3,0.1,4.6,0.7c1.5,0.6,2.5,1.6,3.3,3.6c1.4,3.5,0.1,7.4-3.7,8.9c-2.6,1-4.1,1.2-5.6,0.8
		c-0.4-0.1-0.6-0.1-0.8,0c-0.2,0.1-0.2,0.3-0.3,0.7c0,0.4-0.2,0.5-0.4,0.6c-0.3,0.1-0.5,0-0.6-0.3l-1.8-5.6c-0.1-0.2,0-0.2,0.1-0.3
		L267.6,346.3z"/>
	<path fill="#010101" d="M282.5,333.3c-0.3-0.7-2.8-5.7-3-6c-0.4-0.6-0.8-0.8-1.4-0.5l-1.3,0.6c-0.1,0.1-0.3,0-0.3-0.1l-0.4-0.8
		c-0.1-0.1,0-0.2,0.1-0.3c0.3-0.2,1.8-0.7,4.6-2c2.9-1.3,3.7-1.9,4.1-2c0.1-0.1,0.2,0,0.3,0.2l0.3,0.7c0.1,0.1,0,0.2-0.1,0.3
		l-0.8,0.4c-0.7,0.3-1,0.8-0.8,1.3c0.1,0.3,3,6.5,3.1,6.9l1,2.2c0.1,0.3,3.3,6.7,3.4,7c0.4,0.9,0.9,0.8,1.4,0.6l1.1-0.5
		c0.1-0.1,0.3,0,0.3,0.1l0.4,0.8c0.1,0.1,0,0.2-0.2,0.3c-0.3,0.2-1.5,0.6-4.2,1.9c-2.9,1.4-4.1,2-4.4,2.2c-0.1,0.1-0.3,0-0.3-0.1
		l-0.4-0.8c-0.1-0.1,0-0.2,0.1-0.3l0.8-0.4c0.6-0.3,1.1-0.6,0.9-1.4c-0.1-0.4-2.9-6.5-3.6-8L282.5,333.3z"/>
	<path fill="#010101" d="M294.9,318.7l-0.9,0.5c-0.9,0.5-2.5,1.4-3.4,2.5c-0.4,0.8-0.6,3.1-0.8,4.4c0,0.2,0,0.3-0.2,0.3l-0.7,0.1
		c-0.1,0-0.2-0.1-0.2-0.2c-0.3-1.3-1.4-5.4-1.6-6c-0.1-0.4,0-0.6,0.1-0.7c0.2-0.1,0.3,0,0.7,0.1c0.5,0.2,1.2,0.2,2.2-0.3
		c1.5-0.7,2.7-1.3,5.5-2.8l1.6-0.9c3-1.6,4.1-2.4,5.2-3.1c0.6-0.4,1.5-1.3,1.6-1.8c0.1-0.4,0.2-0.6,0.4-0.8c0.2-0.1,0.3,0,0.6,0.3
		c0.4,0.6,2.8,3.6,3.8,4.9c0.1,0.1,0.1,0.2,0,0.3l-0.4,0.5c-0.1,0.1-0.2,0-0.4-0.1c-1.1-0.6-3-1.5-4-1.7c-0.9,0-3.4,1.2-4,1.5
		l-0.9,0.5l4.1,7.5c0.2,0.4,4.4,8,4.7,8.4c0.4,0.6,0.9,0.9,1.5,0.6l1.2-0.7c0.2-0.1,0.3-0.1,0.4,0.1l0.3,0.6
		c0.1,0.1,0.1,0.2-0.2,0.4c-0.3,0.2-1.2,0.6-4.2,2.2c-2.9,1.6-4,2.3-4.3,2.5c-0.2,0.1-0.3,0-0.4-0.2l-0.3-0.5
		c-0.1-0.2-0.1-0.3,0-0.4l1.4-0.8c0.5-0.3,0.7-0.8,0.5-1.3c-0.3-0.6-4.9-8.9-5.2-9.4L294.9,318.7z"/>
	<path fill="#010101" d="M325.7,317.1c0.7,1,1.9,2.6,2.1,2.8c0.6,0.8,1.1,0.6,1.5,0.3l0.7-0.5c0.2-0.1,0.2,0,0.3,0.1l0.4,0.6
		c0.1,0.2,0.2,0.2,0,0.4c-0.3,0.2-1.4,0.8-3.8,2.4c-2.7,1.8-3.4,2.4-3.7,2.6c-0.1,0.1-0.2,0-0.3-0.2l-0.4-0.6
		c-0.1-0.1-0.1-0.2,0.1-0.3l0.9-0.6c0.7-0.5,0.7-0.8,0.5-1.2c-0.2-0.4-1.5-2.4-3.1-4.8L320,317c-0.9-0.5-10.1-5.3-11.4-5.7
		c-0.6-0.2-1.3,0-1.7,0.3l-0.4,0.3c-0.2,0.1-0.2,0-0.3-0.1l-0.5-0.7c-0.1-0.1-0.1-0.2,0.1-0.3c0.2-0.2,1.5-0.9,3.8-2.4
		c2.6-1.8,3.5-2.5,3.8-2.7c0.2-0.1,0.2-0.1,0.3,0.1l0.4,0.6c0.1,0.1,0.1,0.2,0,0.4l-0.6,0.4c-0.4,0.2-0.4,0.7-0.2,1.1
		c0.3,0.5,7.3,4.3,9,5.3c-0.2-1.9-0.7-9.4-1.3-10.2c-0.3-0.4-1-0.6-1.6-0.2l-0.7,0.5c-0.2,0.1-0.2,0-0.3-0.1l-0.5-0.7
		c-0.1-0.1-0.1-0.2,0.1-0.3c0.3-0.2,1.4-0.8,3.3-2.1c1.8-1.2,2.3-1.7,2.5-1.8c0.2-0.1,0.2-0.1,0.3,0.1l0.4,0.6
		c0.1,0.2,0.1,0.2-0.1,0.4l-0.5,0.3c-0.3,0.2-1,0.9-1.1,1.6c-0.1,0.6,0.4,9.9,0.6,12.6L325.7,317.1z"/>
</g>
<g>
	<g>
		<defs>
			<path id="SVGID_1_" d="M307.4,59.5c0.6,91.5-28.5,153.2-71.3,201.2c-0.8,0.7-1.6,1.4-2.3,2.3c-2,2.1-4,4.2-6.2,6.2
				c-0.8,0.6-1.5,1.3-2.1,2.1c-15,13.5-31.5,25.9-51.3,35.3c-2.6,1.2-6.5,3.5-8.8,3.5c-2,0-5.8-2.1-8.4-3.3
				c-39.2-18.3-69.2-48.7-91.2-83.8C41.5,184,26.4,137.4,23.6,78.8c-0.1-1,0.3-2.6-0.2-3.3c0-4.5,0-9,0-13.6
				c0.5-0.7,0.1-2.3,0.2-3.3c0.2-3-0.2-9.1,1.6-10.9c1.5-1.5,6.3-1.4,10.1-1.6c46.7-3.6,85.4-16.3,116-36.1c1.8-1.2,4.4-2.8,7-4.7
				c2-1.5,4.8-4.4,7.2-4.3c2.4,0,5,3,7.2,4.5C203.6,28,246,42.3,295.9,46.1c2.8,0.2,8.5,0.3,9.9,1.6c1.9,1.9,1,5.4,1.4,9.4
				C307.3,57.9,306.9,59.1,307.4,59.5z"/>
		</defs>
		<radialGradient id="SVGID_2_" cx="165.3987" cy="155.4919" r="148.3965" gradientUnits="userSpaceOnUse">
			<stop  offset="1.212120e-02" style="stop-color:#29ABE2"/>
			<stop  offset="0.1108" style="stop-color:#2AA6DE"/>
			<stop  offset="0.2586" style="stop-color:#2B9AD4"/>
			<stop  offset="0.4374" style="stop-color:#2D86C4"/>
			<stop  offset="0.6402" style="stop-color:#2E6DB1"/>
			<stop  offset="0.8605" style="stop-color:#2E4E9C"/>
			<stop  offset="1" style="stop-color:#2E368F"/>
		</radialGradient>
		<use xlink:href="#SVGID_1_"  overflow="visible" fill="url(#SVGID_2_)"/>
		<clipPath id="SVGID_3_">
			<use xlink:href="#SVGID_1_"  overflow="visible"/>
		</clipPath>
		<path clip-path="url(#SVGID_3_)" fill="#FAD617" d="M42.9,154.4c-4.1,10.3-9.4,26.5-13.1,37c-0.6,1.8-1.2,1.3-0.8-0.5
			C38,156.5,47,122,68.2,92.5c4.9-6.4,9.5-12.9,14-19.5c-0.7-1.3-2.2-0.1-3.2-0.2c-13.2,5.2-26.6,10.2-38.9,17.6
			c11.6-20.8,28.4-39.7,47-56.1c-6.3,0.3-11.5,4.6-17,7.3C78.6,30.9,87.7,20.4,99,12.3c0.6,0.2,1.1,0.5,1.9,0.4
			c-4.9,5.5-9.7,11.3-13,17.6c6-1.6,11.9-4.7,18.1-6.7c-13.8,10.9-27.1,25.6-36,40.2c-0.8,1.9-1.9,3.7-2.7,5.5
			c-0.5,1.2,0.4,1.7,1.9,1c14.9-6.9,30.3-12.7,46.7-15.6C81,79.4,57.5,117.2,42.9,154.4z"/>
	</g>
	<g>
		<path fill="#0096D6" d="M117.8,132.5c0-5.1-0.6-32.8-1-35.7c-0.6-4.7-3.1-5.5-6.4-5.5h-9.8c-1,0-1.6-0.2-1.6-1.4v-5.7
			c0-0.8,0.6-1,1.4-1c2.5,0,11.1,0.6,30.7,0.6c5.1,0,24.6-0.6,29.1-0.6c26.6,0,47.6,2.3,66.2,17.8c12.9,10.7,21.9,26.9,21.9,49.6
			c0,22.5-6.4,37.3-19.3,51.4c-18.9,20.5-52.3,20.7-64.6,20.7c-3.1,0-26.2-0.6-36.9-0.6c-17,0-24.8,0.6-27.5,0.6
			c-1,0-1.4-0.4-1.4-1.8v-5.1c0-0.8,0.6-1.2,1.6-1.2h10.2c3.7,0,5.9-1.6,6.2-4.7c0.6-4.1,1.4-48,1.4-62.9V132.5z M147.1,151.5
			c0,2.5,0.2,35.7,0.4,47.8c0,3.9,0.8,7,3.3,10.7c2.3,3.5,9,4.7,15.6,4.7c11.3,0,26.4-5.7,36.5-19.1c7.8-10.3,13.9-26.4,13.9-44.5
			c0-16-6.6-32.4-15.8-42.6c-10.4-11.5-27.5-17.8-38.9-17.8c-5.5,0-8.4,0.2-10.9,1.6c-2.9,1.4-3.7,4.5-3.9,8.4
			c-0.2,8.2-0.2,33.8-0.2,36.9V151.5z"/>
	</g>
	<g>
		<path fill="#2E368F" d="M117,136c0-5.1-0.6-32.8-1-35.7c-0.6-4.7-3.1-5.5-6.4-5.5h-9.8c-1,0-1.6-0.2-1.6-1.4v-5.7
			c0-0.8,0.6-1,1.4-1c2.5,0,11.1,0.6,30.7,0.6c5.1,0,24.6-0.6,29.1-0.6c26.6,0,47.6,2.3,66.2,17.8c12.9,10.7,21.9,26.9,21.9,49.6
			c0,22.5-6.4,37.3-19.3,51.4c-18.9,20.5-52.3,20.7-64.6,20.7c-3.1,0-26.2-0.6-36.9-0.6c-17,0-24.8,0.6-27.5,0.6
			c-1,0-1.4-0.4-1.4-1.8v-5.1c0-0.8,0.6-1.2,1.6-1.2h10.2c3.7,0,5.9-1.6,6.2-4.7c0.6-4.1,1.4-48,1.4-62.9V136z M146.3,155
			c0,2.5,0.2,35.7,0.4,47.8c0,3.9,0.8,7,3.3,10.7c2.3,3.5,9,4.7,15.6,4.7c11.3,0,26.4-5.7,36.5-19.1c7.8-10.3,13.9-26.4,13.9-44.5
			c0-16-6.6-32.4-15.8-42.6c-10.4-11.5-27.5-17.8-38.9-17.8c-5.5,0-8.4,0.2-10.9,1.6c-2.9,1.4-3.7,4.5-3.9,8.4
			c-0.2,8.2-0.2,33.8-0.2,36.9V155z"/>
	</g>
	<g>
		<g>
			<defs>
				<path id="SVGID_4_" d="M307.4,59.5c0.6,91.5-28.5,153.2-71.3,201.2c-0.8,0.7-1.6,1.4-2.3,2.3c-2,2.1-4,4.2-6.2,6.2
					c-0.8,0.6-1.5,1.3-2.1,2.1c-15,13.5-31.5,25.9-51.3,35.3c-2.6,1.2-6.5,3.5-8.8,3.5c-2,0-5.8-2.1-8.4-3.3
					c-39.2-18.3-69.2-48.7-91.2-83.8C41.5,184,26.4,137.4,23.6,78.8c-0.1-1,0.3-2.6-0.2-3.3c0-4.5,0-9,0-13.6
					c0.5-0.7,0.1-2.3,0.2-3.3c0.2-3-0.2-9.1,1.6-10.9c1.5-1.5,6.3-1.4,10.1-1.6c46.7-3.6,85.4-16.3,116-36.1c1.8-1.2,4.4-2.8,7-4.7
					c2-1.5,4.8-4.4,7.2-4.3c2.4,0,5,3,7.2,4.5C203.6,28,246,42.3,295.9,46.1c2.8,0.2,8.5,0.3,9.9,1.6c1.9,1.9,1,5.4,1.4,9.4
					C307.3,57.9,306.9,59.1,307.4,59.5z"/>
			</defs>
			<clipPath id="SVGID_5_">
				<use xlink:href="#SVGID_4_"  overflow="visible"/>
			</clipPath>
		</g>
		<g>
			<defs>
				<path id="SVGID_6_" d="M307.4,59.5c0.6,91.5-28.5,153.2-71.3,201.2c-0.8,0.7-1.6,1.4-2.3,2.3c-2,2.1-4,4.2-6.2,6.2
					c-0.8,0.6-1.5,1.3-2.1,2.1c-15,13.5-31.5,25.9-51.3,35.3c-2.6,1.2-6.5,3.5-8.8,3.5c-2,0-5.8-2.1-8.4-3.3
					c-39.2-18.3-69.2-48.7-91.2-83.8C41.5,184,26.4,137.4,23.6,78.8c-0.1-1,0.3-2.6-0.2-3.3c0-4.5,0-9,0-13.6
					c0.5-0.7,0.1-2.3,0.2-3.3c0.2-3-0.2-9.1,1.6-10.9c1.5-1.5,6.3-1.4,10.1-1.6c46.7-3.6,85.4-16.3,116-36.1c1.8-1.2,4.4-2.8,7-4.7
					c2-1.5,4.8-4.4,7.2-4.3c2.4,0,5,3,7.2,4.5C203.6,28,246,42.3,295.9,46.1c2.8,0.2,8.5,0.3,9.9,1.6c1.9,1.9,1,5.4,1.4,9.4
					C307.3,57.9,306.9,59.1,307.4,59.5z"/>
			</defs>
			<clipPath id="SVGID_7_">
				<use xlink:href="#SVGID_6_"  overflow="visible"/>
			</clipPath>
			<path clip-path="url(#SVGID_7_)" fill="none" stroke="#2A3B90" stroke-width="1.9344" stroke-miterlimit="10" d="M42.9,154.4
				c-4.1,10.3-9.4,26.5-13.1,37c-0.6,1.8-1.2,1.3-0.8-0.5C38,156.5,47,122,68.2,92.5c4.9-6.4,9.5-12.9,14-19.5
				c-0.7-1.3-2.2-0.1-3.2-0.2c-13.2,5.2-26.6,10.2-38.9,17.6c11.6-20.8,28.4-39.7,47-56.1c-6.3,0.3-11.5,4.6-17,7.3
				C78.6,30.9,87.7,20.4,99,12.3c0.6,0.2,1.1,0.5,1.9,0.4c-4.9,5.5-9.7,11.3-13,17.6c6-1.6,11.9-4.7,18.1-6.7
				c-13.8,10.9-27.1,25.6-36,40.2c-0.8,1.9-1.9,3.7-2.7,5.5c-0.5,1.2,0.4,1.7,1.9,1c14.9-6.9,30.3-12.7,46.7-15.6
				C81,79.4,57.5,117.2,42.9,154.4z"/>
			<use xlink:href="#SVGID_6_"  overflow="visible" fill="none" stroke="#2C398F" stroke-width="1.9344" stroke-miterlimit="10"/>
		</g>
		<g>
			<defs>
				<path id="SVGID_8_" d="M307.4,59.5c0.6,91.5-28.5,153.2-71.3,201.2c-0.8,0.7-1.6,1.4-2.3,2.3c-2,2.1-4,4.2-6.2,6.2
					c-0.8,0.6-1.5,1.3-2.1,2.1c-15,13.5-31.5,25.9-51.3,35.3c-2.6,1.2-6.5,3.5-8.8,3.5c-2,0-5.8-2.1-8.4-3.3
					c-39.2-18.3-69.2-48.7-91.2-83.8C41.5,184,26.4,137.4,23.6,78.8c-0.1-1,0.3-2.6-0.2-3.3c0-4.5,0-9,0-13.6
					c0.5-0.7,0.1-2.3,0.2-3.3c0.2-3-0.2-9.1,1.6-10.9c1.5-1.5,6.3-1.4,10.1-1.6c46.7-3.6,85.4-16.3,116-36.1c1.8-1.2,4.4-2.8,7-4.7
					c2-1.5,4.8-4.4,7.2-4.3c2.4,0,5,3,7.2,4.5C203.6,28,246,42.3,295.9,46.1c2.8,0.2,8.5,0.3,9.9,1.6c1.9,1.9,1,5.4,1.4,9.4
					C307.3,57.9,306.9,59.1,307.4,59.5z"/>
			</defs>
			<clipPath id="SVGID_9_">
				<use xlink:href="#SVGID_8_"  overflow="visible"/>
			</clipPath>
		</g>
	</g>
</g>
</svg>
