<?xml version="1.0" encoding="utf-8"?>
<!-- Generator: Adobe Illustrator 18.0.0, SVG Export Plug-In . SVG Version: 6.00 Build 0)  -->
<!DOCTYPE svg PUBLIC "-//W3C//DTD SVG 1.1//EN" "http://www.w3.org/Graphics/SVG/1.1/DTD/svg11.dtd">
<svg version="1.1"
	 id="svg2985" inkscape:version="0.48.4 r9939" sodipodi:docname="dropbox-logos_dropbox-logotype-blue.pdf" xmlns:inkscape="http://www.inkscape.org/namespaces/inkscape" xmlns:sodipodi="http://sodipodi.sourceforge.net/DTD/sodipodi-0.dtd" xmlns:svg="http://www.w3.org/2000/svg" xmlns:cc="http://creativecommons.org/ns#" xmlns:rdf="http://www.w3.org/1999/02/22-rdf-syntax-ns#" xmlns:dc="http://purl.org/dc/elements/1.1/"
	 xmlns="http://www.w3.org/2000/svg" xmlns:xlink="http://www.w3.org/1999/xlink" x="0px" y="0px" viewBox="58.1 48.8 429.1 117.1"
	 enable-background="new 58.1 48.8 429.1 117.1" xml:space="preserve">
<g id="g2993" transform="matrix(1.25,0,0,-1.25,0,212.5)" inkscape:label="dropbox-logos_dropbox-logotype-blue" inkscape:groupmode="layer">
	<g id="g2995" transform="translate(76.1162,130.9785)">
		<path id="path2997" fill="#007EE5" d="M0,0l-29.6-19.3l20.5-16.4l29.9,18.4L0,0z"/>
	</g>
	<g id="g2999" transform="translate(46.4863,78.8198)">
		<path id="path3001" fill="#007EE5" d="M0,0l29.6-19.3L50.4-2L20.5,16.4L0,0z"/>
	</g>
	<g id="g3003" transform="translate(96.8486,76.7798)">
		<path id="path3005" fill="#007EE5" d="M0,0l20.7-17.3L50.4,2L29.9,18.4L0,0z"/>
	</g>
	<g id="g3007" transform="translate(147.2109,111.6328)">
		<path id="path3009" fill="#007EE5" d="M0,0l-29.6,19.3L-50.4,2l29.9-18.4L0,0z"/>
	</g>
	<g id="g3011" transform="translate(96.9092,73.0566)">
		<path id="path3013" fill="#007EE5" d="M0,0l-20.8-17.3l-8.9,5.8V-18L0-35.8L29.7-18v6.5l-8.9-5.8L0,0z"/>
	</g>
	<g id="g3015">
		<g>
			<g id="g3017">
				<g id="g3023" transform="translate(173.7266,102.6348)">
					<path id="path3025" fill="#007EE5" d="M0,0h2c4.6,0,11-0.5,11-16.6c0-17-6.4-17.6-11-17.6H0V0z M-11.4-43.1H2.3
						c4,0,9.6,0,14.2,3.6c5.6,4.3,8.5,13,8.5,22.8C25,8.9,8.8,9,0.9,9h-12.3C-11.4,9-11.4-43.1-11.4-43.1z"/>
				</g>
				<g id="g3027" transform="translate(202.7119,98.0259)">
					<path id="path3029" fill="#007EE5" d="M0,0v-38.5h10.7v16.6c0,3,0,11.9,7.9,11.9c0.4,0,0.9,0,1.8-0.2V0.3
						c-0.5,0.2-1.1,0.2-1.9,0.2c-6.3,0-8.1-6.6-9.1-9.8l0,9.3H0z"/>
				</g>
				<g id="g3031" transform="translate(240.333,91.3848)">
					<path id="path3033" fill="#007EE5" d="M0,0c3.3,0,4.5-2.7,4.5-12.6c0-10.3-1.4-12.6-4.5-12.6c-3.2,0-4.6,2.3-4.6,12.6
						C-4.6-3.1-3.5,0,0,0L0,0z M0,7.5c-11.5,0-15.7-8-15.7-20.1c0-12.4,4.5-20.1,15.7-20.1c11.3,0,15.7,7.7,15.7,20.1
						C15.7-0.5,11.4,7.5,0,7.5"/>
				</g>
				<g id="g3035" transform="translate(269.7393,82.5566)">
					<path id="path3037" fill="#007EE5" d="M0,0c0,3.4,0,8.9,4.9,8.9C9,8.9,9.3,3.5,9.3-3.3c0-8.1-0.4-12.9-4.8-12.9
						C0-16.2,0-12.9,0-7.3V0z M-10.6,15.5v-51.6H0v15.9c1.2-1.2,3.1-3.4,7.4-3.4c12.3,0,13.1,14.8,13.1,20.3c0,6.5-1.3,12.5-5,16.3
						c-1.9,1.9-4.8,3-7.4,3c-5.2,0-7.4-3.8-8.7-6.3v5.8H-10.6z"/>
				</g>
				<g id="g3039" transform="translate(303.9316,84.4312)">
					<path id="path3041" fill="#007EE5" d="M0,0c0,2,0,3.9,1.3,5.4C2,6.4,3.3,7,4.7,7C7.8,7,9.4,4.5,9.4-5.7
						c0-9.9-1.5-12.6-4.9-12.6C0-18.3,0-13.3,0-8.9V0z M-10.6,27.2v-52.1h6.3c0.9,2.7,1.3,3.5,2,5c0.9-2,2.7-5.8,8.9-5.8
						c2,0,4.1,0.4,6.3,1.5c7,3.7,7.5,15.2,7.5,18.8c0,9.3-3,19.5-12.4,19.5c-4.6,0-6.7-2.5-8.1-4.1v17.2H-10.6z"/>
				</g>
				<g id="g3043" transform="translate(342.8721,91.3848)">
					<path id="path3045" fill="#007EE5" d="M0,0c3.3,0,4.5-2.7,4.5-12.6c0-10.3-1.4-12.6-4.5-12.6c-3.2,0-4.6,2.3-4.6,12.6
						C-4.6-3.1-3.5,0,0,0L0,0z M0,7.5c-11.5,0-15.7-8-15.7-20.1c0-12.4,4.5-20.1,15.7-20.1c11.3,0,15.7,7.7,15.7,20.1
						C15.7-0.5,11.4,7.5,0,7.5"/>
				</g>
				<g id="g3047" transform="translate(358.1104,98.0259)">
					<path id="path3049" fill="#007EE5" d="M0,0l9.9-18.8L-1.5-38.5h9.3L14.3-27L20-38.5h11.7L20.1-17l9.9,17h-9.3l-4.9-8.9L11.7,0
						H0z"/>
				</g>
			</g>
		</g>
	</g>
</g>
</svg>
