<?xml version="1.0" encoding="utf-8"?>
<!-- Generator: Adobe Illustrator 18.0.0, SVG Export Plug-In . SVG Version: 6.00 Build 0)  -->
<!DOCTYPE svg PUBLIC "-//W3C//DTD SVG 1.1//EN" "http://www.w3.org/Graphics/SVG/1.1/DTD/svg11.dtd">
<svg version="1.1" id="Layer_1" xmlns="http://www.w3.org/2000/svg" xmlns:xlink="http://www.w3.org/1999/xlink" x="0px" y="0px"
	 viewBox="0 0 2303.5 569.2" enable-background="new 0 0 2303.5 569.2" xml:space="preserve">
<path fill="#0165D1" d="M720.1,348.2c-1.7,1.3-1.7,3.4-2.3,5.2C696.4,411.2,655,446,594.9,457.9c-41.1,8.1-81.2,3.5-119.4-14.7
	c-17.9-8.6-33.4-20.5-46.5-35.9c-1.5,1.6-0.9,3.3-0.9,4.8c0,11.3-0.8,22.6-1.9,33.9c-0.3,2.6-0.7,3.8-3.7,3.8c-21-0.1-42-0.2-63,0
	c-4.3,0-3.5-2.4-3.3-4.8c2.8-42.6,2-85.3,2.3-127.9c0-5-1.4-5.9-6.1-5.9c-91.3,0.1-182.7,0.1-274,0c-4.5,0-6,0.9-5.5,5.7
	c5.3,55.3,42.3,91.1,94.4,96.4c22.6,2.3,44.6,0.1,65.5-9.1c19.1-8.4,33.2-21.9,40.9-41.6c1-2.6,2.2-3.5,5-3.5
	c21.7,0.1,43.3,0.2,65,0c4,0,4.7,0.9,3.8,4.8c-8.4,35.2-30.2,59.3-61.8,75.5c-22.7,11.6-46.9,17.8-72.1,20.4
	c-34.6,3.5-68.9,2.1-102.5-7.5c-38.3-11-69.5-31.7-89.8-66.8C8.3,362.8,2.2,338.1,0.5,312.1c-2-31.3,1.1-61.9,12.7-91.3
	c16.1-40.5,45.1-68.1,86.1-82c54.8-18.6,110.3-20,165,0.4c50,18.6,78.7,56.1,89.7,107.8c1.6,7.3,2.7,14.7,4.3,22.2
	c0-2.4,0-4.9,0-7.3c0-85.3,0-170.7-0.1-256c0-5,1.3-6,6.1-5.9c20,0.3,40,0.2,60,0c4.3-0.1,5.6,0.9,5.5,5.4
	c-0.2,55.5-0.1,111-0.1,166.5c0,1.8,0,3.6,0,6.3c5.5-5.4,10-10.4,15.1-14.9c23-20.4,50.4-31.3,80.5-35.7c33.7-4.9,66.9-3.2,98.8,9.5
	c57.8,23.1,91.4,65.6,101,127.1c3.1,20.1,2.8,40.1-0.2,60.7c0.7-0.6,1.1-0.8,1.2-1.2c10.3-26.2,30.5-41.7,55.7-51.8
	c21.2-8.5,43.4-12.6,66-14.9c44.3-4.6,88.9-3.4,133.4-3.7c4.9,0,6-1.3,5.9-6.1c-0.3-16.8-2.7-32.9-13.2-46.7
	c-10.8-14.4-26.1-21.4-43.2-24.7c-25.4-4.9-50.7-5.6-75.4,3.2c-16.9,6-30.2,16.1-35.5,34.3c-2.2,7.5-2.1,7.5-9.9,7.5
	c-19.8,0-39.7,0-59.5,0c-7.4,0-7.2,0-5.9-7.5c5.5-30.8,23.2-52.4,50.4-66.8c21.4-11.3,44.5-16.6,68.3-19.3
	c31.3-3.5,62.5-3.3,93.5,2.8c27.6,5.5,53,15.5,73.1,36.1c2,2.1,3.9,4.3,5.9,6.5c0.4-0.2,0.8-0.4,1.2-0.6c-6-11.5-12-23-18.3-35.1
	c2.3,0,3.9,0,5.5,0c24.2,0,48.3,0.1,72.5-0.1c3.8,0,5.8,1,7.5,4.6c38.9,78,77.9,156,116.8,233.9c0.7,1.5,1.5,3,2.3,4.5
	c1.9-0.9,2.2-2.9,2.9-4.4c38.9-78,77.8-156,116.6-234c1.8-3.6,3.7-4.6,7.5-4.6c21.5,0.2,43,0.1,64.5,0.1c1.6,0,3.3,0,4.9,0
	c0.4,2.2-0.9,3.5-1.6,4.9c-71.9,141.1-143.7,282.2-215.6,423.3c-1,2-1.7,4-4.9,3.9c-25.3-0.2-50.7-0.1-76-0.1
	c-0.3-2.2,1.1-3.6,2-5.1c19.5-36.9,38.9-73.9,58.5-110.8c1.6-3,1.6-5.2,0-8.2c-42.4-79.6-84.6-159.3-126.9-238.9
	c-0.7-1.4-1-3.2-3.3-4.1c2.6,9.1,4.7,17.9,5.6,27c0.5,5.2,0.7,10.3,0.7,15.5c0,52.5,0,105,0.1,157.5c0,14.5,0.7,29,2,43.4
	c0.3,3.5-0.9,4.2-4,4.2c-19.2-0.1-38.3-0.1-57.5,0c-3.3,0-4.5-0.8-4.8-4.3c-1.1-13.1-2-26.2-1.8-39.3c-1.6-0.3-1.9,0.9-2.5,1.6
	c-25.5,30.5-58.4,47.1-97.7,51.5c-29.8,3.3-59.5,3.6-88.8-4c-16.1-4.2-31.2-10.6-44.6-20.5c-27.2-20.2-40.2-47.1-38.3-81.1
	C720.2,351.7,720.8,349.9,720.1,348.2c1.1-0.9,1.2-1.9,0-3.2C720.1,346.2,720.1,347.2,720.1,348.2z M652.4,294
	c0-9.7-0.6-19.3-2.4-28.8c-6.5-33.5-22.6-60.6-53.1-77.6c-22.4-12.5-46.8-15.8-72-12.5c-34.1,4.3-60.9,20.7-78.2,50.7
	c-18.6,32.3-21,67.2-12.8,103c7,30.4,23.4,54.5,51,70.1c21.9,12.4,45.8,16,70.5,13.1c38.3-4.5,67-23.5,84.2-58.4
	C648.8,334.8,652.4,314.8,652.4,294z M935.2,300.8c-22.8,0.6-45.7,0.8-68.4,3.4c-16.7,1.9-33.3,4.7-48.3,13
	c-18.5,10.3-27.1,29-22.9,49.9c4.3,21.5,17.9,35.2,37.9,41.9c32.8,11,65.4,8.4,97.1-4.5c24.8-10.1,41.2-28.7,49.9-54.1
	c5-14.7,6.6-29.8,6.6-45.2c0-3.5-0.9-4.5-4.4-4.4C966.8,300.9,951,300.8,935.2,300.8z M178.4,264c5,0,10,0,15,0
	c28.5,0,57-0.1,85.5,0.1c3.7,0,5.2-0.8,4.5-4.7c-0.7-3.8-0.7-7.6-1.3-11.4c-5-28.9-19.6-50.9-46.4-64c-15.7-7.7-32.4-10.9-49.7-11.3
	c-20.9-0.6-41.2,2.3-60.1,11.8c-30.5,15.4-45.5,41.5-51,74.3c-0.8,4.8,0.4,5.4,4.7,5.4C112.4,264,145.4,264,178.4,264z"/>
<path fill="#0165D1" d="M1663.1,202.7c20.9-42.6,55.8-64.5,99.4-72.9c34.6-6.7,69.1-4.3,102.1,9.2c38.5,15.8,60.4,44.9,67.5,85.6
	c2.1,12.3,3,24.8,3,37.3c0,60.7-0.1,121.3,0.1,182c0,4-0.8,5.4-5.1,5.3c-10.3-0.3-20.7-0.3-31,0c-4.1,0.1-5.2-0.9-5.2-5.1
	c0.2-60.5,0.1-121,0.1-181.5c0-11.5-1-23-3.2-34.3c-6.9-34.3-28-56.1-60.9-66.1c-33.3-10-66.4-7.8-98,6.5
	c-37.3,16.9-56.8,47.8-64.7,87c-2.3,11.6-3.1,23.4-3.1,35.3c0,51,0,102,0.1,153c0,4.1-0.9,5.4-5.1,5.2c-10.5-0.3-21-0.3-31.5,0
	c-3.8,0.1-4.7-0.9-4.7-4.7c0.1-50.2,0.1-100.3,0.1-150.5c0-29.8,0.2-59.7-0.1-89.5c-0.2-21.2-1.1-42.3-1.9-63.5
	c-0.2-4.2,0.9-5.3,5.1-5.2c10,0.3,20,0.2,30,0c3.1-0.1,4.3,0.6,4.4,4c0.6,19.3,1.4,38.6,2.2,57.9
	C1662.7,199.1,1662.8,200.3,1663.1,202.7z"/>
<path fill="#0165D1" d="M2141.5,458.4c-34.6,0.2-68.1-4.9-98.9-21.5c-40.7-22-63.8-56.9-72.4-101.7c-7-37-5.9-73.7,8.2-109.1
	c19.2-48.1,55.1-78.1,104.6-91.2c49.6-13.1,99-12.1,146.8,8.2c38.1,16.2,61.7,45.2,70.8,85.8c0.9,3.9,0.3,5.3-4,5.1
	c-11.7-0.3-23.3-0.2-35,0c-2.6,0-3.9-0.7-4.5-3.3c-8.6-37.5-33.1-59.7-69.4-68.8c-39.2-9.8-77.9-7.5-113.9,12.5
	c-35.6,19.8-55.1,51.3-61.6,90.9c-5.2,31.5-2.7,62.5,10.1,92.1c15.9,36.9,44.7,58.8,83.2,67.2c33.6,7.4,67.3,6.1,99.8-6.3
	c28.7-11,47.1-31.7,54-61.9c0.8-3.5,2.1-4.4,5.5-4.3c11.8,0.2,23.7,0.2,35.5,0c2.9,0,3.5,0.5,2.9,3.6c-8.5,42.3-33.8,70.8-72.9,87.4
	C2202.1,455.2,2172.1,458.4,2141.5,458.4z"/>
<path fill="#0165D1" d="M1565.9,292.8c0,50.5,0,101,0.1,151.4c0,3.7-0.7,5.2-4.8,5c-10.3-0.3-20.7-0.3-31,0
	c-4.3,0.1-5.5-0.9-5.5-5.4c0.2-55.6,0.1-111.3,0.1-166.9c0-45.3,0-90.6-0.1-135.9c0-3.7,0.7-5.2,4.8-5c10.3,0.3,20.7,0.3,31,0
	c4.3-0.1,5.5,0.9,5.5,5.4C1565.9,191.8,1565.9,242.3,1565.9,292.8z"/>
<path fill="#0165D1" d="M1516.8,28.8c0.2-15.6,12.8-28.2,28.4-28.1c16,0,29,13.2,28.7,29c-0.3,15.6-13.6,28.6-29.1,28.2
	C1529,57.5,1516.6,44.7,1516.8,28.8z"/>
</svg>
