<?xml version="1.0" encoding="utf-8"?>
<!-- Generator: Adobe Illustrator 18.0.0, SVG Export Plug-In . SVG Version: 6.00 Build 0)  -->
<!DOCTYPE svg PUBLIC "-//W3C//DTD SVG 1.1//EN" "http://www.w3.org/Graphics/SVG/1.1/DTD/svg11.dtd">
<svg version="1.1" id="Layer_1" xmlns="http://www.w3.org/2000/svg" xmlns:xlink="http://www.w3.org/1999/xlink" x="0px" y="0px"
	 viewBox="0 0 302.4 113.5" enable-background="new 0 0 302.4 113.5" xml:space="preserve">
<polyline fill="#4967A9" points="0,0 302.4,0 302.4,113.5 0,113.5 "/>
<path fill="#FFFFFF" d="M159.2,56.3c-2,0-3.5,0.7-5,1.3V73c1.4,0.1,2.2,0.1,3.6,0.1c4.9,0,5.5-2.2,5.5-5.3v-7.3
	C163.3,58.2,162.6,56.3,159.2,56.3 M126.8,55.5c-3.4,0-4.1,1.9-4.1,4.1v1.3h8.3v-1.3C131,57.3,130.2,55.5,126.8,55.5 M64.2,71.4
	c0,1.8,0.9,2.8,2.7,2.8c2,0,3.2-0.7,4.7-1.3v-3.6h-4.4C65.1,69.2,64.2,69.6,64.2,71.4 M190.6,56.3c-3.4,0-4.6,1.8-4.6,4.1v8.4
	c0,2.3,1.2,4.1,4.6,4.1c3.4,0,4.6-1.8,4.6-4.1v-8.4C195.2,58.2,194,56.3,190.6,56.3 M47.6,80.8h-9.9v-24h-5v-8.3h5v-5
	c0-6.8,2.8-10.8,10.8-10.8h6.6V41H51c-3.1,0-3.3,1.2-3.3,3.3l0,4.1h7.5l-0.9,8.3h-6.6V80.8z M81.6,80.9h-8.3L73,78.8
	c-3.8,2.1-7.2,2.4-9.4,2.4c-6.1,0-9.3-4.1-9.3-9.7c0-6.6,3.8-9,10.5-9h6.9v-1.4c0-3.4-0.4-4.4-5.6-4.4h-8.5l0.8-8.3h9.3
	c11.4,0,13.9,3.6,13.9,12.7V80.9z M109.8,57.4c-5.2-0.9-6.6-1.1-9.1-1.1c-4.5,0-5.8,1-5.8,4.8v7.2c0,3.8,1.3,4.8,5.8,4.8
	c2.5,0,4-0.2,9.1-1.1V80c-4.5,1-7.5,1.3-9.9,1.3c-10.7,0-14.9-5.6-14.9-13.7v-5.8c0-8.1,4.2-13.7,14.9-13.7c2.5,0,5.4,0.3,9.9,1.3
	V57.4z M140.9,67.5h-18.2v0.7c0,3.8,1.3,4.8,5.8,4.8c4,0,6.5-0.2,11.6-1.1V80c-5,1-7.5,1.3-12.4,1.3c-10.7,0-14.9-5.6-14.9-13.7
	v-6.6c0-7.1,3.2-12.9,14.1-12.9c10.9,0,14.1,5.7,14.1,12.9V67.5z M173.3,67.7c0,7.8-2.2,13.5-15.8,13.5c-4.9,0-7.8-0.4-13.2-1.3
	V35.2l9.9-1.7v15.7c2.1-0.8,4.9-1.2,7.5-1.2c9.9,0,11.6,4.5,11.6,11.6V67.7z M205.1,67.9c0,6.8-2.8,13.3-14.5,13.3
	c-11.7,0-14.5-6.6-14.5-13.3v-6.5c0-6.8,2.8-13.3,14.5-13.3c11.7,0,14.5,6.6,14.5,13.3V67.9z M237,67.9c0,6.8-2.8,13.3-14.5,13.3
	c-11.7,0-14.5-6.6-14.5-13.3v-6.5c0-6.8,2.8-13.3,14.5-13.3c11.7,0,14.5,6.6,14.5,13.3V67.9z M269.7,80.8h-10.8l-9.1-15.2v15.2h-9.9
	V35.2l9.9-1.7v29.3l9.1-14.4h10.8l-10,15.7L269.7,80.8z M222.5,56.3c-3.4,0-4.5,1.8-4.5,4.1v8.4c0,2.3,1.2,4.1,4.5,4.1
	c3.4,0,4.6-1.8,4.6-4.1v-8.4C227,58.2,225.8,56.3,222.5,56.3"/>
<path fill="#FFFFFF" d="M275.3,75.1c1.7,0,3,1.4,3,3.1c0,1.7-1.3,3.1-3,3.1c-1.7,0-3-1.3-3-3.1C272.3,76.5,273.6,75.1,275.3,75.1
	L275.3,75.1z M275.3,75.6c-1.3,0-2.5,1.2-2.5,2.6c0,1.5,1.1,2.6,2.5,2.6c1.4,0,2.5-1.1,2.5-2.6C277.8,76.8,276.7,75.6,275.3,75.6
	L275.3,75.6z M274.8,80h-0.5v-3.4c0.3,0,0.6-0.1,1-0.1c0.5,0,0.9,0.1,1.1,0.3c0.2,0.2,0.3,0.4,0.3,0.7c0,0.4-0.3,0.7-0.7,0.8v0
	c0.3,0.1,0.5,0.3,0.6,0.8c0.1,0.5,0.2,0.7,0.2,0.8h-0.6c-0.1-0.1-0.2-0.4-0.2-0.9c-0.1-0.4-0.3-0.6-0.7-0.6h-0.4V80z M274.8,78.1
	h0.4c0.4,0,0.8-0.2,0.8-0.6c0-0.3-0.2-0.6-0.8-0.6c-0.2,0-0.3,0-0.4,0V78.1z"/>
</svg>
