<?xml version="1.0" encoding="utf-8"?>
<!-- Generator: Adobe Illustrator 18.0.0, SVG Export Plug-In . SVG Version: 6.00 Build 0)  -->
<!DOCTYPE svg PUBLIC "-//W3C//DTD SVG 1.1//EN" "http://www.w3.org/Graphics/SVG/1.1/DTD/svg11.dtd">
<svg version="1.1" id="Layer_1" xmlns="http://www.w3.org/2000/svg" xmlns:xlink="http://www.w3.org/1999/xlink" x="0px" y="0px"
	 viewBox="0 0 758.6 282" enable-background="new 0 0 758.6 282" xml:space="preserve">
<g>
	<line stroke="#000000" stroke-width="6.4531" stroke-miterlimit="10" x1="246.4" y1="141" x2="0" y2="141"/>
	<line stroke="#000000" stroke-width="6.1622" stroke-miterlimit="10" x1="246.4" y1="126.4" x2="21.7" y2="126.4"/>
	<line stroke="#000000" stroke-width="6.1622" stroke-miterlimit="10" x1="246.4" y1="155.6" x2="21.7" y2="155.6"/>
	<line stroke="#000000" stroke-width="5.8447" stroke-miterlimit="10" x1="244.5" y1="111.7" x2="42.4" y2="111.7"/>
	<line stroke="#000000" stroke-width="5.8447" stroke-miterlimit="10" x1="244.8" y1="170.3" x2="42.7" y2="170.3"/>
	<line stroke="#000000" stroke-width="5.5746" stroke-miterlimit="10" x1="250.1" y1="97.1" x2="66.2" y2="97.1"/>
	<line stroke="#000000" stroke-width="5.5661" stroke-miterlimit="10" x1="250.1" y1="184.9" x2="66.8" y2="184.9"/>
</g>
<path d="M520.8,141c0,77.9-63.1,141-141,141c-77.9,0-141-63.1-141-141c0-77.9,63.1-141,141-141C457.7,0,520.8,63.1,520.8,141z"/>
<g>
	<polygon fill="#FFFFFF" points="380.2,146 380.4,145.9 380.2,145.9 380.1,146 	"/>
	<polygon fill="#FFFFFF" points="380.1,146.1 380.1,146.1 380.2,146.1 380.1,146 	"/>
	<polygon fill="#FFFFFF" points="380,146 379.9,146.1 380,146.1 380,146.1 	"/>
	<polygon fill="#FFFFFF" points="380.1,146 380.1,145.9 380,145.9 380,145.9 	"/>
	<polygon fill="#FFFFFF" points="379.9,146.2 379.9,146.2 379.9,146.2 379.9,146.2 	"/>
	<polygon fill="#FFFFFF" points="379.9,146.2 379.9,146.2 379.9,146.2 379.9,146.2 	"/>
	<polygon fill="#FFFFFF" points="380.2,146.2 380.4,146.2 380.2,146.1 380.1,146.1 	"/>
	<polygon fill="#FFFFFF" points="380,146.2 380,146.2 380.1,146.2 380.1,146.2 	"/>
	<polygon fill="#FFFFFF" points="379.9,146.1 379.9,146.2 379.9,146.2 379.9,146.1 	"/>
	<polygon fill="#FFFFFF" points="379.9,146 379.9,146.1 379.9,146.1 379.9,146.1 	"/>
	<polygon fill="#FFFFFF" points="379.9,145.9 379.9,145.9 379.9,145.9 379.9,145.9 	"/>
	<polygon fill="#FFFFFF" points="380.4,146.1 380.7,146.1 381.5,146.1 380.7,146 	"/>
	<polygon fill="#FFFFFF" points="379.9,145.9 379.9,145.9 379.9,145.9 379.9,146 	"/>
	<polygon fill="#FFFFFF" points="379.9,146 379.9,145.9 379.9,145.9 379.9,146 	"/>
	<polygon fill="#FFFFFF" points="379.8,145.9 378.2,146.1 379.8,146.2 379.8,146.1 	"/>
	<polygon fill="#FFFFFF" points="380,146.2 380,146.1 380,146.1 380,146.1 	"/>
	<polygon fill="#FFFFFF" points="380,146 380,146 380,146 380,146 	"/>
	<polygon fill="#FFFFFF" points="379.9,145.9 379.8,145.9 379.9,145.9 	"/>
	<polygon fill="#FFFFFF" points="379.9,146 379.8,145.9 379.9,146.1 	"/>
	<polygon fill="#FFFFFF" points="379.9,145.9 379.8,145.9 379.9,145.9 	"/>
	<polygon fill="#FFFFFF" points="379.8,145.9 379.8,145.9 379.8,146.1 	"/>
	<polygon fill="#FFFFFF" points="379.9,145.9 379.8,145.9 379.9,145.9 	"/>
	<polygon fill="#FFFFFF" points="379.8,145.9 379.8,145.9 379.8,145.9 	"/>
	<polygon fill="#FFFFFF" points="379.8,145.8 379.8,145.8 379.8,145.9 	"/>
	<polygon fill="#FFFFFF" points="379.8,145.9 379.8,145.9 379.8,145.9 	"/>
	<path fill="#FFFFFF" d="M379.8,145.9L379.8,145.9L394.2,7.8c0,0,0,0,0,0L379.8,145.9z"/>
	<path fill="#FFFFFF" d="M379.8,145.9L365.5,7.8c0,0,0,0,0,0l14.3,137.9L379.8,145.9z"/>
	<path fill="#FFFFFF" d="M381.5,146.1l-0.8,0.1l0.9,0.3L512.5,160c0-0.1,0-0.2,0-0.3L381.5,146.1z"/>
	<polygon fill="#FFFFFF" points="379.9,146.2 379.9,146.2 380,146.2 379.9,146.2 	"/>
	<polygon fill="#FFFFFF" points="380.2,146.2 380.3,146.3 380.6,146.3 380.4,146.2 	"/>
	<polygon fill="#FFFFFF" points="380,146.2 380,146.2 380.1,146.3 380.1,146.2 	"/>
	<polygon fill="#FFFFFF" points="380.1,146 380.2,145.9 380.1,145.9 380.1,146 	"/>
	<polygon fill="#FFFFFF" points="380,146 380.1,146.1 380.1,146 380,146 	"/>
	<polygon fill="#FFFFFF" points="380,146.1 380,146.1 380,146.1 380,146.1 	"/>
	<polygon fill="#FFFFFF" points="379.9,146.1 379.9,146.2 379.9,146.2 379.9,146.2 	"/>
	<path fill="#FFFFFF" d="M380.3,145.8l106.1-86.1c-5.8-7.6-12.3-14.5-19.5-20.7l-86.7,106.8L380.3,145.8z"/>
	<polygon fill="#FFFFFF" points="380.1,146.1 380.1,146.1 380.2,146.1 380.2,146.1 	"/>
	<polygon fill="#FFFFFF" points="379.9,146.2 379.9,146.2 379.9,146.2 379.9,146.2 	"/>
	<polygon fill="#FFFFFF" points="380.2,146 380.4,146.1 380.7,146 380.4,145.9 	"/>
	<polygon fill="#FFFFFF" points="380,146.2 380,146.2 380.1,146.2 380,146.1 	"/>
	<path fill="#FFFFFF" d="M381.6,145.7l128-38.3c-2.4-9.2-5.7-18-9.9-26.3l-119.1,64.7L381.6,145.7z"/>
	<path fill="#FFFFFF" d="M380,145.9l65.6-121.6c-8.3-4.7-17.1-8.5-26.3-11.3L380,145.9L380,145.9z"/>
	<polygon fill="#FFFFFF" points="380,146 379.9,146 379.9,146 379.9,146.1 	"/>
	<polygon fill="#FFFFFF" points="380,146 379.9,145.9 379.9,146 380,146 	"/>
	<polygon fill="#FFFFFF" points="379.9,146.1 379.9,146.1 379.9,146.2 379.9,146.1 	"/>
	<polygon fill="#FFFFFF" points="380,145.9 380,145.9 379.9,145.9 379.9,145.9 	"/>
	<path fill="#FFFFFF" d="M378.2,146.1l1.6-0.2l0,0L246.2,132c0,0.1,0,0.2,0,0.3L378.2,146.1z"/>
	<polygon fill="#FFFFFF" points="379.8,145.9 379.8,145.9 379.8,145.9 	"/>
	<path fill="#FFFFFF" d="M379.8,7c-4.8,0-9.6,0.3-14.3,0.8l14.3,138.1L394.2,7.8C389.5,7.3,384.7,7,379.8,7z"/>
	<path fill="#FFFFFF" d="M379.8,145.8L293,39c-7.2,6.1-13.8,13-19.6,20.6L379.8,145.8L379.8,145.8z"/>
	<polygon fill="#FFFFFF" points="379.8,145.8 379.8,145.9 379.8,145.9 	"/>
	<path fill="#FFFFFF" d="M379.8,145.7L340.1,13c-9.2,2.9-18,6.7-26.3,11.4L379.8,145.7L379.8,145.7z"/>
	<polygon fill="#FFFFFF" points="379.8,145.7 379.8,145.8 379.8,145.9 	"/>
	<path fill="#FFFFFF" d="M379.8,145.9L259.9,81.2c-4.1,8.3-7.5,17.1-9.8,26.3L379.8,145.9L379.8,145.9z"/>
	<polygon fill="#FFFFFF" points="379.8,145.9 379.8,145.9 379.8,145.9 	"/>
	<polygon fill="#FFFFFF" points="379.9,146.2 379.8,146.2 379.9,146.2 	"/>
	<polygon fill="#FFFFFF" points="379.9,146.2 379.8,146.2 379.9,146.2 	"/>
	<polygon fill="#FFFFFF" points="379.8,146.3 379.8,146.2 379.8,146.3 	"/>
	<path fill="#FFFFFF" d="M379.8,146.2l13.3,128.1c0,0,0,0,0,0L379.8,146.2L379.8,146.2z"/>
	<polygon fill="#FFFFFF" points="379.8,146.2 379.8,146.2 379.8,146.1 	"/>
	<polygon fill="#FFFFFF" points="379.9,146.2 379.8,146.2 379.9,146.2 	"/>
	<polygon fill="#FFFFFF" points="379.8,146.3 379.8,146.2 379.8,146.2 	"/>
	<polygon fill="#FFFFFF" points="379.9,146.1 379.8,146.2 379.9,146.1 	"/>
	<polygon fill="#FFFFFF" points="379.8,146.2 379.8,146.2 379.8,146.2 	"/>
	<path fill="#FFFFFF" d="M379.8,146.2l-0.1,0.2l-13.3,127.9c0,0,0,0,0,0L379.8,146.2z"/>
	<polygon fill="#FFFFFF" points="379.8,145.9 379.8,146.1 379.8,146.2 379.9,146.1 	"/>
	<polygon fill="#FFFFFF" points="379.8,146.2 379.9,146.2 379.9,146.2 	"/>
	<polygon fill="#FFFFFF" points="379.9,146.2 379.8,146.2 379.9,146.2 	"/>
	<polygon fill="#FFFFFF" points="379.9,146.2 379.8,146.2 379.9,146.2 	"/>
	<polygon fill="#FFFFFF" points="379.9,146.1 379.8,146.2 379.9,146.2 	"/>
	<path fill="#FFFFFF" d="M380.7,146l0.8,0.1l132.1-13.7c0-0.1,0-0.2,0-0.3l-132,13.7L380.7,146z"/>
	<polygon fill="#FFFFFF" points="380.4,145.9 380.6,145.8 380.3,145.8 380.2,145.9 	"/>
	<polygon fill="#FFFFFF" points="379.9,145.9 380,145.9 379.9,145.9 379.9,145.9 	"/>
	<polygon fill="#FFFFFF" points="380.1,145.9 380.1,145.9 380,145.9 380,145.9 	"/>
	<polygon fill="#FFFFFF" points="379.9,145.9 379.8,145.9 379.9,145.9 	"/>
	<path fill="#FFFFFF" d="M512.5,159.7c0.9-6.1,1.3-12.3,1.3-18.7c0-2.9-0.1-5.8-0.3-8.6l-132.1,13.7L512.5,159.7z"/>
	<polygon fill="#FFFFFF" points="380.2,145.9 380.3,145.8 380.1,145.9 380.1,145.9 	"/>
	<polygon fill="#FFFFFF" points="380.7,146 381.6,145.7 380.6,145.8 380.4,145.9 	"/>
	<polygon fill="#FFFFFF" points="380,145.9 380,145.9 380,145.9 379.9,145.9 	"/>
	<polygon fill="#FFFFFF" points="380,146 380,146 380,146 380,146.1 	"/>
	<polygon fill="#FFFFFF" points="379.9,146 379.9,145.9 379.9,145.9 379.9,146 	"/>
	<polygon fill="#FFFFFF" points="380,146.1 380,146.1 380.1,146.1 380.1,146.1 	"/>
	<path fill="#FFFFFF" d="M380.1,146.3l81.7,100.7c7.1-5.5,13.7-11.7,19.5-18.6l-101.1-82.1L380.1,146.3z"/>
	<polygon fill="#FFFFFF" points="380.1,146.2 380.1,146.2 380.2,146.2 380.1,146.1 	"/>
	<polygon fill="#FFFFFF" points="379.9,145.9 379.8,145.9 379.9,145.9 	"/>
	<polygon fill="#FFFFFF" points="380.1,146.2 380.1,146.3 380.3,146.3 380.2,146.2 	"/>
	<polygon fill="#FFFFFF" points="380,146.1 380,146.1 380.1,146.1 380,146 	"/>
	<polygon fill="#FFFFFF" points="380.1,146.2 380.1,146.1 380.1,146.1 380,146.1 	"/>
	<polygon fill="#FFFFFF" points="380,146 379.9,146 379.9,146 380,146 	"/>
	<polygon fill="#FFFFFF" points="379.9,145.9 379.9,145.9 379.9,145.9 379.9,145.9 	"/>
	<path fill="#FFFFFF" d="M380.6,146.3l114.9,62.4c4.6-7.8,8.4-16.1,11.3-24.8l-125.3-37.5L380.6,146.3z"/>
	<polygon fill="#FFFFFF" points="380,146 380.1,146 380,145.9 380,146 	"/>
	<polygon fill="#FFFFFF" points="380.2,146.1 380.4,146.2 380.7,146.1 380.4,146.1 	"/>
	<polygon fill="#FFFFFF" points="380.1,146 380.2,146.1 380.2,146 380.1,146 	"/>
	<polygon fill="#FFFFFF" points="379.9,145.9 379.8,145.9 379.9,145.9 	"/>
	<polygon fill="#FFFFFF" points="380.6,146.3 381.6,146.4 380.7,146.1 380.4,146.2 	"/>
	<polygon fill="#FFFFFF" points="380.1,146 380.1,146 380.1,146 380,146 	"/>
	<polygon fill="#FFFFFF" points="380.2,146.1 380.2,146.1 380.4,146.1 380.2,146 	"/>
	<polygon fill="#FFFFFF" points="380,145.9 379.9,145.9 379.9,145.9 380,146 	"/>
	<polygon fill="#FFFFFF" points="379.9,146.2 379.9,146.2 380,146.2 380,146.2 	"/>
	<polygon fill="#FFFFFF" points="379.9,146 379.9,145.9 379.9,146 379.9,146.1 	"/>
	<path fill="#FFFFFF" d="M380,146.2l36.6,123.7c8.7-2.5,17-5.8,24.9-9.9L380,146.2L380,146.2z"/>
	<polygon fill="#FFFFFF" points="379.9,146.1 379.9,146.1 379.9,146.1 380,146.1 	"/>
	<polygon fill="#FFFFFF" points="380,146.1 379.9,146.2 379.9,146.2 380,146.2 	"/>
	<polygon fill="#FFFFFF" points="379.9,145.9 379.8,145.9 379.9,146 	"/>
	<polygon fill="#FFFFFF" points="379.9,146.2 380,146.2 380,146.2 380,146.2 	"/>
	<polygon fill="#FFFFFF" points="380,146.1 379.9,146.1 379.9,146.2 380,146.1 	"/>
	<polygon fill="#FFFFFF" points="379.9,146.2 379.9,146.2 380,146.2 380,146.2 	"/>
	<polygon fill="#FFFFFF" points="379.9,146 379.9,146.1 379.9,146.1 379.9,146.1 	"/>
	<path fill="#FFFFFF" d="M379.8,146.2l-1.6-0.2l-131.1,13.6c0,0.1,0,0.2,0,0.3L379.8,146.2L379.8,146.2z"/>
	<path fill="#FFFFFF" d="M245.9,141c0,6.3,0.4,12.6,1.3,18.7l131.1-13.6l-132.1-13.7C246,135.2,245.9,138.1,245.9,141z"/>
	<polygon fill="#FFFFFF" points="379.8,146.2 379.8,146.2 379.8,146.2 	"/>
	<path fill="#FFFFFF" d="M379.8,275c4.5,0,8.9-0.2,13.3-0.7l-13.3-128.1l-13.3,128.1C370.9,274.8,375.4,275,379.8,275z"/>
	<path fill="#FFFFFF" d="M379.8,146.3l-101.4,82.3c5.9,6.8,12.4,13,19.5,18.5L379.8,146.3L379.8,146.3z"/>
	<polygon fill="#FFFFFF" points="379.8,146.3 379.8,146.2 379.8,146.3 	"/>
	<path fill="#FFFFFF" d="M379.8,146.3l-61.7,113.6c7.8,4.1,16.1,7.4,24.8,9.9l36.9-123.4L379.8,146.3z"/>
	<polygon fill="#FFFFFF" points="379.8,146.4 379.8,146.2 379.8,146.3 	"/>
	<path fill="#FFFFFF" d="M379.8,146.2l-127,37.6c2.9,8.7,6.7,17,11.3,24.8L379.8,146.2L379.8,146.2z"/>
	<polygon fill="#FFFFFF" points="379.8,146.2 379.8,146.2 379.8,146.2 	"/>
</g>
<path d="M245.9,141c0,16.3,2.9,32,8.3,46.5h251.4c5.4-14.5,8.3-30.1,8.3-46.5c0-16.3-2.9-32-8.3-46.5H254.2
	C248.8,109,245.9,124.6,245.9,141z"/>
<g>
	<path fill="#FFFFFF" stroke="#FFFFFF" stroke-width="0.2681" stroke-miterlimit="10" d="M319.1,124.3v11h-16.4v45.3h-11v-78.1h11
		h11v11h-11v10.9H319.1z"/>
	<path fill="#FFFFFF" stroke="#FFFFFF" stroke-width="0.2681" stroke-miterlimit="10" d="M337,102.5h11v67.2h16.4v11H337V102.5z"/>
	<path fill="#FFFFFF" stroke="#FFFFFF" stroke-width="0.2681" stroke-miterlimit="10" d="M380.1,102.5h11v62.5
		c0,1.7,0.5,3.2,1.6,4.4c1.1,1.2,2.3,1.8,3.9,1.8c1.5,0,2.8-0.6,3.9-1.8c1.1-1.2,1.6-2.7,1.6-4.4v-62.5h11v62.5
		c0,4.8-1.6,8.8-4.8,12.2c-3.2,3.4-7.1,5-11.6,5c-4.5,0-8.4-1.7-11.6-5c-3.2-3.4-4.8-7.4-4.8-12.2V102.5z"/>
	<path fill="#FFFFFF" stroke="#FFFFFF" stroke-width="0.2681" stroke-miterlimit="10" d="M467.6,102.5l-12.7,39.1l12.7,39.1h-11.5
		l-6.9-21.4l-6.9,21.4h-11.5l12.7-39.1l-12.7-39.1h11.5l6.9,21.4l6.9-21.4H467.6z"/>
</g>
<path fill="none" stroke="#FFFFFF" stroke-width="4.2896" stroke-miterlimit="10" d="M513.8,141c0,74-60,134-134,134
	c-74,0-134-60-134-134c0-74,60-134,134-134C453.9,7,513.8,67,513.8,141z"/>
<g>
	<g>
		<path fill="#FFFFFF" stroke="#000000" stroke-width="2.5" stroke-miterlimit="10" d="M335.6,232.2c-1.3,2.9-4.2,5.6-8.7,8
			c-4.2,2.2-7.8,3.4-10.8,3.4h-5.8c-5.5,0-8.3-1.8-8.3-5.4c0-1.9,0.7-4.4,2.1-7.5l2.4-5.5c1.2-2.8,2.9-5,5-6.9
			c2.3-2,4.9-3.1,7.6-3.1h7.6c3.3,0,4.9,1.3,4.9,3.8c0,0.6-0.1,1.2-0.2,2l-11.4,4.1l1.8-4c0.1-0.2,0.1-0.4,0.1-0.5
			c0-0.6-0.4-0.9-1.3-0.9c-1.1,0-1.8,0.5-2.2,1.5l-6.5,14.5c-0.4,0.8-0.5,1.5-0.5,2.1c0,0.8,0.3,1.1,0.9,1.1h2.2
			c4.9,0,9.5-1.5,14-4.4c2.6-1.7,4.3-3.5,5.1-5.2L335.6,232.2L335.6,232.2z"/>
		<path fill="#FFFFFF" stroke="#000000" stroke-width="2.5" stroke-miterlimit="10" d="M367,221.6c-2.5,2.6-6.3,4.2-11.5,4.7
			c-0.4,0.9-1,2.3-1.8,4.2c-3.9,8.8-8.4,13.1-13.4,13.1h-8.6c-3,0-4.5-1.4-4.5-4.2c0-1.8,0.6-4.1,1.8-6.9l3.1-6.7
			c1.2-2.8,2.9-5.1,5.1-7.1c2.5-2.3,5.1-3.4,7.7-3.4h3.1c1.6-1.4,3.6-2.1,6-2.1c3.1,0,4.6,1.3,4.6,3.8c0,1.3-0.5,2.7-1.4,4.3
			c0.9,0.2,1.6,0.3,2.1,0.3c1.2,0,3-0.7,5.4-2.1L367,221.6z M340.8,237.1l6-13.4c-0.9-0.3-1.4-1.1-1.4-2.6c0-0.5,0.1-0.9,0.2-1.2
			c-0.8,0.5-1.4,1.1-1.8,2l-6.8,15.3c-0.2,0.5-0.3,0.9-0.3,1.3c0,0.8,0.4,1.1,1.1,1.1C339,239.5,340,238.7,340.8,237.1z
			 M353.3,220.6c0.3-0.7,0.5-1.3,0.5-2.1c0-1-0.3-1.5-1-1.5c-1.1,0-1.6,0.5-1.6,1.5c0,0.5,0.2,1,0.5,1.4c0.4,0.4,0.8,0.6,1.2,0.6
			C353.1,220.6,353.2,220.6,353.3,220.6z"/>
		<path fill="#FFFFFF" stroke="#000000" stroke-width="2.5" stroke-miterlimit="10" d="M381,235.9c-0.9,1-2.2,1.9-3.7,2.5
			c-1.6,0.7-3,1-4.1,1c-0.6,0-1.2-0.1-1.7-0.2c0.5,0.5,0.7,1,0.7,1.4c0,0.4-0.2,1-0.6,2.1l-3.2,7.1c-0.9,2-2.9,3.6-6,4.7
			c-2.5,1-4.9,1.5-7.2,1.5c-4.4,0-6.6-1.6-6.6-4.7c0-1.1,0.3-2.3,0.8-3.6l20.3-45.6c1.2-2.7,3.1-4.8,5.6-6.3c2.3-1.3,4.8-2,7.6-2
			c1.9,0,3.6,0.4,5.2,1.1c1.9,0.9,2.8,2,2.8,3.5c0,0.5-0.1,1-0.4,1.6l-8.9,19.9c-1,2.2-2.3,4.3-3.9,6.3c-2,2.5-4,4.2-6,5
			c0.4,2.2,1.6,3.4,3.6,3.4c1.2,0,2.4-0.5,3.6-1.5L381,235.9z M362.5,249.5l3.1-6.8c0.8-1.7,1.1-3.2,1.1-4.6c0-1.1-0.3-1.8-1-2
			c-1.3,3-3.3,7.4-5.9,13.4c-0.1,0.2-0.2,0.4-0.2,0.5c0,0.4,0.3,0.6,0.8,0.6C361.5,250.6,362.2,250.2,362.5,249.5z M375.7,219.9
			l8.7-19.6c0-0.1,0.1-0.2,0.1-0.3c0-0.6-0.4-0.8-1.2-0.8c-0.7,0-1.2,0.4-1.6,1.1c-2.5,5.8-6.4,14.5-11.6,26.1
			C372.1,225.9,373.9,223.7,375.7,219.9z"/>
		<path fill="#FFFFFF" stroke="#000000" stroke-width="2.5" stroke-miterlimit="10" d="M403.9,235.9c-0.9,1-2.2,1.9-3.7,2.5
			c-1.6,0.7-3,1-4.1,1c-0.6,0-1.2-0.1-1.7-0.2c0.5,0.5,0.7,1,0.7,1.4c0,0.4-0.2,1-0.6,2.1l-3.2,7.1c-0.9,2-2.9,3.6-6,4.7
			c-2.5,1-4.9,1.5-7.2,1.5c-4.4,0-6.6-1.6-6.6-4.7c0-1.1,0.3-2.3,0.8-3.6l20.3-45.6c1.2-2.7,3.1-4.8,5.6-6.3c2.3-1.3,4.8-2,7.6-2
			c1.9,0,3.6,0.4,5.2,1.1c1.9,0.9,2.8,2,2.8,3.5c0,0.5-0.1,1-0.4,1.6l-8.9,19.9c-1,2.2-2.3,4.3-3.9,6.3c-2,2.5-4,4.2-6,5
			c0.4,2.2,1.6,3.4,3.6,3.4c1.2,0,2.4-0.5,3.6-1.5L403.9,235.9z M385.3,249.5l3.1-6.8c0.8-1.7,1.1-3.2,1.1-4.6c0-1.1-0.3-1.8-1-2
			c-1.3,3-3.3,7.4-5.9,13.4c-0.1,0.2-0.2,0.4-0.2,0.5c0,0.4,0.3,0.6,0.8,0.6C384.3,250.6,385,250.2,385.3,249.5z M398.5,219.9
			l8.7-19.6c0-0.1,0.1-0.2,0.1-0.3c0-0.6-0.4-0.8-1.2-0.8c-0.7,0-1.2,0.4-1.6,1.1c-2.5,5.8-6.4,14.5-11.6,26.1
			C394.9,225.9,396.8,223.7,398.5,219.9z"/>
		<path fill="#FFFFFF" stroke="#000000" stroke-width="2.5" stroke-miterlimit="10" d="M433.2,232.2c-1.3,2.9-4.2,5.6-8.7,8
			c-4.2,2.2-7.8,3.4-10.8,3.4h-5.8c-5.5,0-8.3-1.8-8.3-5.4c0-1.9,0.7-4.4,2.1-7.5l2.4-5.5c1.2-2.8,2.9-5,5-6.9
			c2.3-2,4.9-3.1,7.6-3.1h7.6c3.3,0,4.9,1.2,4.9,3.7c0,1.5-0.9,4.3-2.7,8.3c-1.3,2.9-3.8,4.4-7.6,4.4h-7.6l-1.8,4
			c-0.4,0.8-0.5,1.5-0.5,2.1c0,0.8,0.3,1.1,0.9,1.1h2.2c4.9,0,9.6-1.5,14-4.4c2.6-1.8,4.3-3.5,5.1-5.2L433.2,232.2L433.2,232.2z
			 M416.6,227.4l2.8-6.3c0.1-0.2,0.1-0.4,0.1-0.5c0-0.6-0.4-0.9-1.3-0.9c-1.1,0-1.8,0.5-2.2,1.5l-2.8,6.2H416.6z"/>
		<path fill="#FFFFFF" stroke="#000000" stroke-width="2.5" stroke-miterlimit="10" d="M457.7,232.2c-1.3,2.9-4.2,5.6-8.7,8
			c-4.2,2.2-7.8,3.4-10.8,3.4h-5.8c-5.5,0-8.3-1.8-8.3-5.4c0-1.9,0.7-4.4,2.1-7.5l2.4-5.5c1.2-2.8,2.9-5,5-6.9
			c2.3-2,4.9-3.1,7.6-3.1h7.6c3.3,0,4.9,1.2,4.9,3.7c0,1.5-0.9,4.3-2.7,8.3c-1.3,2.9-3.8,4.4-7.6,4.4h-7.6l-1.8,4
			c-0.4,0.8-0.5,1.5-0.5,2.1c0,0.8,0.3,1.1,0.9,1.1h2.2c4.9,0,9.6-1.5,14-4.4c2.6-1.8,4.3-3.5,5.1-5.2L457.7,232.2L457.7,232.2z
			 M441.1,227.4l2.8-6.3c0.1-0.2,0.1-0.4,0.1-0.5c0-0.6-0.4-0.9-1.3-0.9c-1.1,0-1.8,0.5-2.2,1.5l-2.8,6.2H441.1z"/>
	</g>
</g>
<g>
	<g>
		<path fill="#FFFFFF" d="M335.6,232.2c-1.3,2.9-4.2,5.6-8.7,8c-4.2,2.2-7.8,3.4-10.8,3.4h-5.8c-5.5,0-8.3-1.8-8.3-5.4
			c0-1.9,0.7-4.4,2.1-7.5l2.4-5.5c1.2-2.8,2.9-5,5-6.9c2.3-2,4.9-3.1,7.6-3.1h7.6c3.3,0,4.9,1.3,4.9,3.8c0,0.6-0.1,1.2-0.2,2
			l-11.4,4.1l1.8-4c0.1-0.2,0.1-0.4,0.1-0.5c0-0.6-0.4-0.9-1.3-0.9c-1.1,0-1.8,0.5-2.2,1.5l-6.5,14.5c-0.4,0.8-0.5,1.5-0.5,2.1
			c0,0.8,0.3,1.1,0.9,1.1h2.2c4.9,0,9.5-1.5,14-4.4c2.6-1.7,4.3-3.5,5.1-5.2L335.6,232.2L335.6,232.2z"/>
		<path fill="#FFFFFF" d="M367,221.6c-2.5,2.6-6.3,4.2-11.5,4.7c-0.4,0.9-1,2.3-1.8,4.2c-3.9,8.8-8.4,13.1-13.4,13.1h-8.6
			c-3,0-4.5-1.4-4.5-4.2c0-1.8,0.6-4.1,1.8-6.9l3.1-6.7c1.2-2.8,2.9-5.1,5.1-7.1c2.5-2.3,5.1-3.4,7.7-3.4h3.1c1.6-1.4,3.6-2.1,6-2.1
			c3.1,0,4.6,1.3,4.6,3.8c0,1.3-0.5,2.7-1.4,4.3c0.9,0.2,1.6,0.3,2.1,0.3c1.2,0,3-0.7,5.4-2.1L367,221.6z M340.8,237.1l6-13.4
			c-0.9-0.3-1.4-1.1-1.4-2.6c0-0.5,0.1-0.9,0.2-1.2c-0.8,0.5-1.4,1.1-1.8,2l-6.8,15.3c-0.2,0.5-0.3,0.9-0.3,1.3
			c0,0.8,0.4,1.1,1.1,1.1C339,239.5,340,238.7,340.8,237.1z M353.3,220.6c0.3-0.7,0.5-1.3,0.5-2.1c0-1-0.3-1.5-1-1.5
			c-1.1,0-1.6,0.5-1.6,1.5c0,0.5,0.2,1,0.5,1.4c0.4,0.4,0.8,0.6,1.2,0.6C353.1,220.6,353.2,220.6,353.3,220.6z"/>
		<path fill="#FFFFFF" d="M381,235.9c-0.9,1-2.2,1.9-3.7,2.5c-1.6,0.7-3,1-4.1,1c-0.6,0-1.2-0.1-1.7-0.2c0.5,0.5,0.7,1,0.7,1.4
			c0,0.4-0.2,1-0.6,2.1l-3.2,7.1c-0.9,2-2.9,3.6-6,4.7c-2.5,1-4.9,1.5-7.2,1.5c-4.4,0-6.6-1.6-6.6-4.7c0-1.1,0.3-2.3,0.8-3.6
			l20.3-45.6c1.2-2.7,3.1-4.8,5.6-6.3c2.3-1.3,4.8-2,7.6-2c1.9,0,3.6,0.4,5.2,1.1c1.9,0.9,2.8,2,2.8,3.5c0,0.5-0.1,1-0.4,1.6
			l-8.9,19.9c-1,2.2-2.3,4.3-3.9,6.3c-2,2.5-4,4.2-6,5c0.4,2.2,1.6,3.4,3.6,3.4c1.2,0,2.4-0.5,3.6-1.5L381,235.9z M362.5,249.5
			l3.1-6.8c0.8-1.7,1.1-3.2,1.1-4.6c0-1.1-0.3-1.8-1-2c-1.3,3-3.3,7.4-5.9,13.4c-0.1,0.2-0.2,0.4-0.2,0.5c0,0.4,0.3,0.6,0.8,0.6
			C361.5,250.6,362.2,250.2,362.5,249.5z M375.7,219.9l8.7-19.6c0-0.1,0.1-0.2,0.1-0.3c0-0.6-0.4-0.8-1.2-0.8
			c-0.7,0-1.2,0.4-1.6,1.1c-2.5,5.8-6.4,14.5-11.6,26.1C372.1,225.9,373.9,223.7,375.7,219.9z"/>
		<path fill="#FFFFFF" d="M403.9,235.9c-0.9,1-2.2,1.9-3.7,2.5c-1.6,0.7-3,1-4.1,1c-0.6,0-1.2-0.1-1.7-0.2c0.5,0.5,0.7,1,0.7,1.4
			c0,0.4-0.2,1-0.6,2.1l-3.2,7.1c-0.9,2-2.9,3.6-6,4.7c-2.5,1-4.9,1.5-7.2,1.5c-4.4,0-6.6-1.6-6.6-4.7c0-1.1,0.3-2.3,0.8-3.6
			l20.3-45.6c1.2-2.7,3.1-4.8,5.6-6.3c2.3-1.3,4.8-2,7.6-2c1.9,0,3.6,0.4,5.2,1.1c1.9,0.9,2.8,2,2.8,3.5c0,0.5-0.1,1-0.4,1.6
			l-8.9,19.9c-1,2.2-2.3,4.3-3.9,6.3c-2,2.5-4,4.2-6,5c0.4,2.2,1.6,3.4,3.6,3.4c1.2,0,2.4-0.5,3.6-1.5L403.9,235.9z M385.3,249.5
			l3.1-6.8c0.8-1.7,1.1-3.2,1.1-4.6c0-1.1-0.3-1.8-1-2c-1.3,3-3.3,7.4-5.9,13.4c-0.1,0.2-0.2,0.4-0.2,0.5c0,0.4,0.3,0.6,0.8,0.6
			C384.3,250.6,385,250.2,385.3,249.5z M398.5,219.9l8.7-19.6c0-0.1,0.1-0.2,0.1-0.3c0-0.6-0.4-0.8-1.2-0.8c-0.7,0-1.2,0.4-1.6,1.1
			c-2.5,5.8-6.4,14.5-11.6,26.1C394.9,225.9,396.8,223.7,398.5,219.9z"/>
		<path fill="#FFFFFF" d="M433.2,232.2c-1.3,2.9-4.2,5.6-8.7,8c-4.2,2.2-7.8,3.4-10.8,3.4h-5.8c-5.5,0-8.3-1.8-8.3-5.4
			c0-1.9,0.7-4.4,2.1-7.5l2.4-5.5c1.2-2.8,2.9-5,5-6.9c2.3-2,4.9-3.1,7.6-3.1h7.6c3.3,0,4.9,1.2,4.9,3.7c0,1.5-0.9,4.3-2.7,8.3
			c-1.3,2.9-3.8,4.4-7.6,4.4h-7.6l-1.8,4c-0.4,0.8-0.5,1.5-0.5,2.1c0,0.8,0.3,1.1,0.9,1.1h2.2c4.9,0,9.6-1.5,14-4.4
			c2.6-1.8,4.3-3.5,5.1-5.2L433.2,232.2L433.2,232.2z M416.6,227.4l2.8-6.3c0.1-0.2,0.1-0.4,0.1-0.5c0-0.6-0.4-0.9-1.3-0.9
			c-1.1,0-1.8,0.5-2.2,1.5l-2.8,6.2H416.6z"/>
		<path fill="#FFFFFF" d="M457.7,232.2c-1.3,2.9-4.2,5.6-8.7,8c-4.2,2.2-7.8,3.4-10.8,3.4h-5.8c-5.5,0-8.3-1.8-8.3-5.4
			c0-1.9,0.7-4.4,2.1-7.5l2.4-5.5c1.2-2.8,2.9-5,5-6.9c2.3-2,4.9-3.1,7.6-3.1h7.6c3.3,0,4.9,1.2,4.9,3.7c0,1.5-0.9,4.3-2.7,8.3
			c-1.3,2.9-3.8,4.4-7.6,4.4h-7.6l-1.8,4c-0.4,0.8-0.5,1.5-0.5,2.1c0,0.8,0.3,1.1,0.9,1.1h2.2c4.9,0,9.6-1.5,14-4.4
			c2.6-1.8,4.3-3.5,5.1-5.2L457.7,232.2L457.7,232.2z M441.1,227.4l2.8-6.3c0.1-0.2,0.1-0.4,0.1-0.5c0-0.6-0.4-0.9-1.3-0.9
			c-1.1,0-1.8,0.5-2.2,1.5l-2.8,6.2H441.1z"/>
	</g>
</g>
<g>
	<g>
		<path fill="#FFFFFF" stroke="#000000" stroke-width="2.5" stroke-miterlimit="10" d="M307.3,68.3c-1,2.2-3.2,4.3-6.7,6.2
			c-3.2,1.7-6,2.6-8.3,2.6h-4.5c-4.2,0-6.4-1.4-6.4-4.2c0-1.5,0.5-3.4,1.7-5.8l1.9-4.2c0.9-2.1,2.2-3.9,3.8-5.3
			c1.8-1.6,3.8-2.4,5.8-2.4h5.8c2.5,0,3.8,1,3.8,2.9c0,0.4-0.1,0.9-0.2,1.5l-8.8,3.2l1.4-3.1c0-0.2,0.1-0.3,0.1-0.4
			c0-0.5-0.3-0.7-1-0.7c-0.8,0-1.4,0.4-1.7,1.1l-5,11.2c-0.3,0.6-0.4,1.2-0.4,1.7c0,0.6,0.2,0.9,0.7,0.9h1.7c3.8,0,7.4-1.1,10.8-3.4
			c2-1.3,3.3-2.7,3.9-4L307.3,68.3L307.3,68.3z"/>
		<path fill="#FFFFFF" stroke="#000000" stroke-width="2.5" stroke-miterlimit="10" d="M331.6,60.1c-1.9,2-4.9,3.2-8.8,3.6
			c-0.3,0.7-0.8,1.8-1.4,3.2c-3,6.8-6.5,10.1-10.4,10.1h-6.7c-2.3,0-3.5-1.1-3.5-3.2c0-1.4,0.5-3.1,1.4-5.3l2.4-5.2
			c0.9-2.1,2.3-3.9,3.9-5.5c1.9-1.8,3.9-2.7,6-2.7h2.4c1.3-1.1,2.8-1.7,4.6-1.7c2.4,0,3.5,1,3.5,2.9c0,1-0.4,2.1-1.1,3.3
			c0.7,0.2,1.2,0.2,1.7,0.2c0.9,0,2.3-0.5,4.2-1.7L331.6,60.1z M311.3,72l4.6-10.4c-0.7-0.2-1.1-0.9-1.1-2c0-0.4,0.1-0.7,0.2-0.9
			c-0.6,0.4-1.1,0.9-1.4,1.5L308.4,72c-0.2,0.4-0.2,0.7-0.2,1c0,0.6,0.3,0.9,0.8,0.9C309.9,73.9,310.7,73.3,311.3,72z M320.9,59.3
			c0.2-0.5,0.4-1,0.4-1.6c0-0.7-0.3-1.1-0.8-1.1c-0.8,0-1.2,0.4-1.2,1.2c0,0.4,0.1,0.8,0.4,1.1c0.3,0.3,0.6,0.5,0.9,0.5
			C320.8,59.4,320.9,59.3,320.9,59.3z"/>
		<path fill="#FFFFFF" stroke="#000000" stroke-width="2.5" stroke-miterlimit="10" d="M343.6,68.3c-1.1,2.5-3.2,4.6-6.4,6.4
			c-2.9,1.6-5.6,2.4-8.2,2.4c-1.8,0-3.4-0.5-4.7-1.5c-1.4-1.1-2.1-2.5-2.1-4.2c0-0.6,0.1-1.2,0.4-1.7l11-24.6
			c0.9-2.1,2.4-3.7,4.3-4.8c1.8-1,3.7-1.5,5.8-1.5c1.5,0,2.8,0.3,4,0.8c1.5,0.7,2.2,1.6,2.2,2.7c0,0.4-0.1,0.8-0.3,1.2l-3.8,8.6
			c-2.3,5.1-6.1,8.7-11.6,10.8l-3.1,6.9c-0.2,0.4-0.3,0.7-0.3,1.1c0,0.9,0.6,1.3,1.8,1.3c1.6,0,3.4-0.6,5.3-1.8
			c1.9-1.2,3.3-2.6,3.9-4.2L343.6,68.3z M341.2,52l3.8-8.4c0-0.1,0-0.2,0.1-0.2c0-0.4-0.3-0.6-0.9-0.6c-0.6,0-1.1,0.3-1.4,0.9
			c-1.3,2.9-3.3,7.4-6,13.3C338.4,56.7,339.8,55,341.2,52z"/>
		<path fill="#FFFFFF" stroke="#000000" stroke-width="2.5" stroke-miterlimit="10" d="M368.2,68.4c-1,2.2-3.2,4.2-6.5,6.1
			c-3.2,1.8-6.2,2.7-9,2.7c-1.7,0-2.6-0.5-2.7-1.7c-1.5,1.2-2.9,1.8-4.2,1.8c-4.2,0-6.2-1.4-6.2-4.2c0-1.5,0.5-3.4,1.6-5.8l0.8-1.9
			c1.2-2.7,2.8-5,4.8-6.8c2.3-2.1,4.8-3.2,7.4-3.2c0.7,0,1.5,0.1,2.1,0.4l7.5-16.9h8.5l-14.3,32.1c0,0.1-0.1,0.2-0.1,0.2
			c0,0.4,0.3,0.6,0.8,0.6c1,0,2.4-0.6,4.1-1.7c0.9-0.6,2.2-1.9,3.8-3.8L368.2,68.4L368.2,68.4z M348.9,72.1l5.7-12.9
			c-0.2-0.2-0.5-0.4-0.9-0.4c-0.9,0-1.5,0.4-1.8,1.1l-5.2,11.7c-0.2,0.5-0.4,0.9-0.4,1.3c0,0.5,0.2,0.7,0.6,0.7
			C347.9,73.7,348.5,73.1,348.9,72.1z"/>
		<path fill="#FFFFFF" stroke="#000000" stroke-width="2.5" stroke-miterlimit="10" d="M404.1,65.9c-0.2,0.3-0.6,0.7-1.1,1.3
			c-3.6,4.2-7,6.4-10.3,6.4c-1.2,0-2-0.4-2.2-1.2c-1.2,1.5-2.9,2.7-5,3.6c-1.9,0.8-3.7,1.2-5.4,1.2c-4.2,0-6.2-1.6-6.2-4.8
			c0-1.1,0.3-2.4,1-3.9l13.2-29.7h8.5l-7.8,17.5c1.2-0.7,2.4-1,3.5-1c1.2,0,2.2,0.4,2.9,1.1c0.7,0.8,1.1,1.8,1.1,3
			c0,1.5-0.9,4.2-2.6,8.1c-0.2,0.4-0.2,0.7-0.2,0.9c0,0.7,0.4,1,1.3,1c1.3,0,2.7-0.5,4.1-1.6c1.4-1.1,2.4-2.3,3-3.6L404.1,65.9z
			 M384.8,71.3l5.2-11.6c0-0.2,0.1-0.3,0.1-0.4c0-0.5-0.3-0.7-1-0.7c-0.8,0-1.4,0.4-1.7,1.1l-5.2,11.5c-0.2,0.6-0.4,1.2-0.4,1.6
			c0,0.6,0.2,0.8,0.6,0.8C383.3,73.7,384.1,72.9,384.8,71.3z"/>
		<path fill="#FFFFFF" stroke="#000000" stroke-width="2.5" stroke-miterlimit="10" d="M424.8,68.3c-1,2.2-3.2,4.2-6.5,6.1
			c-3.2,1.8-6.2,2.7-9,2.7c-2.5,0-3.7-1.1-3.7-3.4c0-0.7,0.2-1.5,0.5-2.4l4.1-9.2c0-0.1,0.1-0.2,0.1-0.3c0-0.3-0.2-0.5-0.5-0.7
			c-0.3-0.2-0.6-0.3-0.9-0.3c-0.5,0-0.9,0.5-1.4,1.5c-1.9,4.2-5,7.5-9.3,9.8c-1.3,0.7-2.4,1.1-3.3,1.2l8.7-19.5l12.6,7.1
			c0.9,0.5,1.4,1.4,1.4,2.5c0,0.3-0.1,0.5-0.2,0.7l-2.6,5.9c-0.2,0.4-0.2,0.7-0.2,0.9c0,0.5,0.3,0.8,0.9,0.8c1.2,0,2.6-0.6,4.3-1.9
			c1.7-1.3,2.8-2.5,3.4-3.7L424.8,68.3z"/>
		<path fill="#FFFFFF" stroke="#000000" stroke-width="2.5" stroke-miterlimit="10" d="M444.1,68.3c-1,2.2-3.2,4.3-6.7,6.2
			c-3.2,1.7-6,2.6-8.3,2.6h-4.5c-4.2,0-6.4-1.4-6.4-4.2c0-1.5,0.5-3.4,1.7-5.8l1.9-4.2c0.9-2.1,2.2-3.9,3.8-5.3
			c1.8-1.6,3.8-2.4,5.8-2.4h5.8c2.5,0,3.8,1,3.8,2.9c0,1.2-0.7,3.3-2.1,6.4c-1,2.2-2.9,3.4-5.8,3.4h-5.9l-1.4,3.1
			c-0.3,0.6-0.4,1.2-0.4,1.7c0,0.6,0.2,0.9,0.7,0.9h1.7c3.8,0,7.4-1.1,10.8-3.4c2-1.4,3.3-2.7,3.9-4L444.1,68.3L444.1,68.3z
			 M431.4,64.5l2.2-4.8c0-0.2,0.1-0.3,0.1-0.4c0-0.5-0.3-0.7-1-0.7c-0.8,0-1.4,0.4-1.7,1.1l-2.2,4.8H431.4z"/>
		<path fill="#FFFFFF" stroke="#000000" stroke-width="2.5" stroke-miterlimit="10" d="M478.3,60.1c-1.9,2-4.9,3.2-8.8,3.6l-2.5,5.7
			c-1.6,3.5-4.8,5.9-9.6,7.2c-1.3,0.4-2.4,0.6-3.2,0.6c-2.5,0-4.2-0.5-5.2-1.4c-1.7,0.9-3.4,1.4-5.1,1.4c-4.2,0-6.3-1.4-6.3-4.2
			c0-1.5,0.5-3.4,1.6-5.8L445,54l6.1,3.6l-6,13.4c-0.3,0.6-0.4,1.2-0.4,1.7c0,0.6,0.2,0.8,0.7,0.8c0.8,0,1.6-0.7,2.2-2.2l5.6-12.5
			l6,3.6l-3.8,8.6c-0.3,0.6-0.4,1.2-0.4,1.7c0,0.6,0.2,0.8,0.7,0.8c0.8,0,1.5-0.7,2.2-2.2l4.4-9.8c-0.4-0.3-0.6-0.8-0.6-1.5
			c0-0.7,0.2-1.6,0.7-2.7c1.1-2.6,3-3.9,5.7-3.9c2.5,0,3.8,1,3.8,3c0,1-0.4,2.1-1.1,3.3c0.7,0.2,1.3,0.2,1.7,0.2
			c0.9,0,2.3-0.5,4.1-1.7L478.3,60.1z M467.8,59.3c0.2-0.5,0.3-1,0.3-1.6c0-0.7-0.3-1.1-0.8-1.1c-0.8,0-1.2,0.4-1.2,1.2
			c0,0.4,0.1,0.8,0.4,1.1c0.3,0.3,0.6,0.5,0.9,0.5C467.5,59.4,467.7,59.3,467.8,59.3z"/>
	</g>
</g>
<g>
	<g>
		<path fill="#FFFFFF" d="M307.3,68.3c-1,2.2-3.2,4.3-6.7,6.2c-3.2,1.7-6,2.6-8.3,2.6h-4.5c-4.2,0-6.4-1.4-6.4-4.2
			c0-1.5,0.5-3.4,1.7-5.8l1.9-4.2c0.9-2.1,2.2-3.9,3.8-5.3c1.8-1.6,3.8-2.4,5.8-2.4h5.8c2.5,0,3.8,1,3.8,2.9c0,0.4-0.1,0.9-0.2,1.5
			l-8.8,3.2l1.4-3.1c0-0.2,0.1-0.3,0.1-0.4c0-0.5-0.3-0.7-1-0.7c-0.8,0-1.4,0.4-1.7,1.1l-5,11.2c-0.3,0.6-0.4,1.2-0.4,1.7
			c0,0.6,0.2,0.9,0.7,0.9h1.7c3.8,0,7.4-1.1,10.8-3.4c2-1.3,3.3-2.7,3.9-4L307.3,68.3L307.3,68.3z"/>
		<path fill="#FFFFFF" d="M331.6,60.2c-1.9,2-4.9,3.2-8.8,3.6c-0.3,0.7-0.8,1.8-1.4,3.2c-3,6.8-6.5,10.1-10.4,10.1h-6.7
			c-2.3,0-3.5-1.1-3.5-3.2c0-1.4,0.5-3.1,1.4-5.3l2.4-5.2c0.9-2.1,2.3-3.9,3.9-5.5c1.9-1.8,3.9-2.7,6-2.7h2.4
			c1.3-1.1,2.8-1.7,4.6-1.7c2.4,0,3.5,1,3.5,2.9c0,1-0.4,2.1-1.1,3.3c0.7,0.2,1.2,0.2,1.7,0.2c0.9,0,2.3-0.5,4.2-1.7L331.6,60.2z
			 M311.3,72.1l4.6-10.4c-0.7-0.2-1.1-0.9-1.1-2c0-0.4,0.1-0.7,0.2-0.9c-0.6,0.4-1.1,0.9-1.4,1.5l-5.2,11.8c-0.2,0.4-0.2,0.7-0.2,1
			c0,0.6,0.3,0.9,0.8,0.9C309.9,74,310.7,73.4,311.3,72.1z M320.9,59.4c0.2-0.5,0.4-1,0.4-1.6c0-0.7-0.3-1.1-0.8-1.1
			c-0.8,0-1.2,0.4-1.2,1.2c0,0.4,0.1,0.8,0.4,1.1c0.3,0.3,0.6,0.5,0.9,0.5C320.8,59.4,320.9,59.4,320.9,59.4z"/>
		<path fill="#FFFFFF" d="M343.6,68.3c-1.1,2.5-3.2,4.6-6.4,6.4c-2.9,1.6-5.6,2.4-8.2,2.4c-1.8,0-3.4-0.5-4.7-1.5
			c-1.4-1.1-2.1-2.5-2.1-4.2c0-0.6,0.1-1.2,0.4-1.7l11-24.6c0.9-2.1,2.4-3.7,4.3-4.8c1.8-1,3.7-1.5,5.8-1.5c1.5,0,2.8,0.3,4,0.8
			c1.5,0.7,2.2,1.6,2.2,2.7c0,0.4-0.1,0.8-0.3,1.2l-3.8,8.6c-2.3,5.1-6.1,8.7-11.6,10.8l-3.1,6.9c-0.2,0.4-0.3,0.7-0.3,1.1
			c0,0.9,0.6,1.3,1.8,1.3c1.6,0,3.4-0.6,5.3-1.8c1.9-1.2,3.3-2.6,3.9-4.2L343.6,68.3z M341.2,52.1l3.8-8.4c0-0.1,0-0.2,0.1-0.2
			c0-0.4-0.3-0.6-0.9-0.6c-0.6,0-1.1,0.3-1.4,0.9c-1.3,2.9-3.3,7.4-6,13.3C338.4,56.8,339.8,55.1,341.2,52.1z"/>
		<path fill="#FFFFFF" d="M368.2,68.5c-1,2.2-3.2,4.2-6.5,6.1c-3.2,1.8-6.2,2.7-9,2.7c-1.7,0-2.6-0.5-2.7-1.7
			c-1.5,1.2-2.9,1.8-4.2,1.8c-4.2,0-6.2-1.4-6.2-4.2c0-1.5,0.5-3.4,1.6-5.8l0.8-1.9c1.2-2.8,2.8-5,4.8-6.8c2.3-2.1,4.8-3.2,7.4-3.2
			c0.7,0,1.5,0.1,2.1,0.4l7.5-16.9h8.5l-14.3,32.1c0,0.1-0.1,0.2-0.1,0.2c0,0.4,0.3,0.6,0.8,0.6c1,0,2.4-0.6,4.1-1.7
			c0.9-0.6,2.2-1.9,3.8-3.8L368.2,68.5L368.2,68.5z M348.9,72.2l5.7-12.9c-0.2-0.2-0.5-0.4-0.9-0.4c-0.9,0-1.5,0.4-1.8,1.1
			l-5.2,11.7c-0.2,0.5-0.4,0.9-0.4,1.3c0,0.5,0.2,0.7,0.6,0.7C347.9,73.8,348.5,73.2,348.9,72.2z"/>
		<path fill="#FFFFFF" d="M404.1,66c-0.2,0.3-0.6,0.7-1.1,1.3c-3.6,4.2-7,6.4-10.3,6.4c-1.2,0-2-0.4-2.2-1.2c-1.2,1.5-2.9,2.7-5,3.6
			c-1.9,0.8-3.7,1.2-5.4,1.2c-4.2,0-6.2-1.6-6.2-4.8c0-1.1,0.3-2.4,1-3.9l13.2-29.7h8.5l-7.8,17.5c1.2-0.7,2.4-1,3.5-1
			c1.2,0,2.2,0.4,2.9,1.1c0.7,0.8,1.1,1.8,1.1,3c0,1.5-0.9,4.2-2.6,8.1c-0.2,0.4-0.2,0.7-0.2,0.9c0,0.7,0.4,1,1.3,1
			c1.3,0,2.7-0.5,4.1-1.6c1.4-1.1,2.4-2.3,3-3.6L404.1,66z M384.8,71.4l5.2-11.6c0-0.2,0.1-0.3,0.1-0.4c0-0.5-0.3-0.7-1-0.7
			c-0.8,0-1.4,0.4-1.7,1.1l-5.2,11.5c-0.2,0.6-0.4,1.2-0.4,1.6c0,0.6,0.2,0.8,0.6,0.8C383.3,73.8,384.1,73,384.8,71.4z"/>
		<path fill="#FFFFFF" d="M424.8,68.3c-1,2.2-3.2,4.2-6.5,6.1c-3.2,1.8-6.2,2.7-9,2.7c-2.5,0-3.7-1.1-3.7-3.4c0-0.7,0.2-1.5,0.5-2.4
			l4.1-9.2c0-0.1,0.1-0.2,0.1-0.3c0-0.3-0.2-0.5-0.5-0.7c-0.3-0.2-0.6-0.3-0.9-0.3c-0.5,0-0.9,0.5-1.4,1.5c-1.9,4.2-5,7.5-9.3,9.8
			c-1.3,0.7-2.4,1.1-3.3,1.2l8.7-19.5l12.6,7.1c0.9,0.5,1.4,1.4,1.4,2.5c0,0.3-0.1,0.5-0.2,0.7l-2.6,5.9c-0.2,0.4-0.2,0.7-0.2,0.9
			c0,0.5,0.3,0.8,0.9,0.8c1.2,0,2.6-0.6,4.3-1.9c1.7-1.3,2.8-2.5,3.4-3.7L424.8,68.3z"/>
		<path fill="#FFFFFF" d="M444.1,68.3c-1,2.2-3.2,4.3-6.7,6.2c-3.2,1.7-6,2.6-8.3,2.6h-4.5c-4.2,0-6.4-1.4-6.4-4.2
			c0-1.5,0.5-3.4,1.7-5.8l1.9-4.2c0.9-2.1,2.2-3.9,3.8-5.3c1.8-1.6,3.8-2.4,5.8-2.4h5.8c2.5,0,3.8,1,3.8,2.9c0,1.2-0.7,3.3-2.1,6.4
			c-1,2.2-2.9,3.4-5.8,3.4h-5.9l-1.4,3.1c-0.3,0.6-0.4,1.2-0.4,1.7c0,0.6,0.2,0.9,0.7,0.9h1.7c3.8,0,7.4-1.1,10.8-3.4
			c2-1.4,3.3-2.7,3.9-4L444.1,68.3L444.1,68.3z M431.4,64.6l2.2-4.8c0-0.2,0.1-0.3,0.1-0.4c0-0.5-0.3-0.7-1-0.7
			c-0.8,0-1.4,0.4-1.7,1.1l-2.2,4.8H431.4z"/>
		<path fill="#FFFFFF" d="M478.3,60.2c-1.9,2-4.9,3.2-8.8,3.6l-2.5,5.7c-1.6,3.5-4.8,5.9-9.6,7.2c-1.3,0.4-2.4,0.6-3.2,0.6
			c-2.5,0-4.2-0.5-5.2-1.4c-1.7,0.9-3.4,1.4-5.1,1.4c-4.2,0-6.3-1.4-6.3-4.2c0-1.5,0.5-3.4,1.6-5.8l5.8-13.1l6.1,3.6l-6,13.4
			c-0.3,0.6-0.4,1.2-0.4,1.7c0,0.6,0.2,0.8,0.7,0.8c0.8,0,1.6-0.7,2.2-2.2l5.6-12.5l6,3.6l-3.8,8.6c-0.3,0.6-0.4,1.2-0.4,1.7
			c0,0.6,0.2,0.8,0.7,0.8c0.8,0,1.5-0.7,2.2-2.2l4.4-9.8c-0.4-0.3-0.6-0.8-0.6-1.5c0-0.7,0.2-1.6,0.7-2.7c1.1-2.6,3-3.9,5.7-3.9
			c2.5,0,3.8,1,3.8,3c0,1-0.4,2.1-1.1,3.3c0.7,0.2,1.3,0.2,1.7,0.2c0.9,0,2.3-0.5,4.1-1.7L478.3,60.2z M467.8,59.4
			c0.2-0.5,0.3-1,0.3-1.6c0-0.7-0.3-1.1-0.8-1.1c-0.8,0-1.2,0.4-1.2,1.2c0,0.4,0.1,0.8,0.4,1.1c0.3,0.3,0.6,0.5,0.9,0.5
			C467.5,59.4,467.7,59.4,467.8,59.4z"/>
	</g>
</g>
<g id="Layer_3">
</g>
<g>
	<line stroke="#000000" stroke-width="6.3393" stroke-miterlimit="10" x1="520.8" y1="140.9" x2="758.6" y2="140.9"/>
	<line stroke="#000000" stroke-width="6.0843" stroke-miterlimit="10" x1="517.9" y1="155.5" x2="736.9" y2="155.5"/>
	<line stroke="#000000" stroke-width="6.0843" stroke-miterlimit="10" x1="517.9" y1="126.3" x2="736.9" y2="126.3"/>
	<line stroke="#000000" stroke-width="5.8447" stroke-miterlimit="10" x1="514.1" y1="170.2" x2="716.3" y2="170.2"/>
	<line stroke="#000000" stroke-width="5.8447" stroke-miterlimit="10" x1="513.8" y1="111.6" x2="716" y2="111.6"/>
	<line stroke="#000000" stroke-width="5.5101" stroke-miterlimit="10" x1="512.8" y1="184.8" x2="692.4" y2="184.8"/>
	<line stroke="#000000" stroke-width="5.5101" stroke-miterlimit="10" x1="512.2" y1="97" x2="691.9" y2="97"/>
</g>
</svg>
