<?xml version="1.0" encoding="utf-8"?>
<!-- Generator: Adobe Illustrator 18.0.0, SVG Export Plug-In . SVG Version: 6.00 Build 0)  -->
<!DOCTYPE svg PUBLIC "-//W3C//DTD SVG 1.1//EN" "http://www.w3.org/Graphics/SVG/1.1/DTD/svg11.dtd">
<svg version="1.1" id="Layer_1" xmlns="http://www.w3.org/2000/svg" xmlns:xlink="http://www.w3.org/1999/xlink" x="0px" y="0px"
	 viewBox="0 0 309.8 89.1" enable-background="new 0 0 309.8 89.1" xml:space="preserve">
<g>
	<path d="M53.7,63.5c-3.5,1-14.5,1.5-17.3,1.5C9.1,65,0,48.6,0,34.3C0,12.3,16.7,0,31.9,0C40.7,0,44,2.9,48.8,2.9
		c1.9,0,2.8-0.5,3.5-2.1h1.9v18.3h-1.7C50.9,7.4,40.4,2.4,31.9,2.4C19.2,2.4,9.5,13.5,9.5,30.5c0,18.2,10.8,31.6,25.5,31.6
		c4.4,0,10.4-1.1,10.4-6.6v-6.7c0-7.6-1.7-10.3-6.8-10.3h-2.4v-1.8h25.1v1.8c-6.1,0-7.7,2.9-7.7,8.3V63.5z"/>
	<path d="M97.2,54.6c0,4.4,0.4,6,2.2,6c1.2,0,1.7-1,2.6-3.7h1.8c-0.3,4.8-3.1,7.8-7.5,7.8c-3.2,0-5.2-1.6-6.5-5.4
		c-3.8,4.1-6.3,5.4-10.3,5.4c-6,0-10.9-4.5-10.9-10.2c0-10.9,14.9-10.5,21.2-14.2v-2.8c0-5.4-3.1-9.3-8.5-9.3
		c-4.3,0-8.5,2.7-10.2,8.2l-1.9-0.5c1.6-7.1,7.2-11.8,14.2-11.8c6.4,0,13.8,3.7,13.8,14.1V54.6z M89.9,42.7
		c-7.2,3.1-13.7,3-13.7,10.8c0,3.9,2.7,7,5.8,7c2.3,0,6.4-1.6,7.9-4.9V42.7z"/>
	<path d="M114.3,33.1c0-5.2-1-6-6.7-6v-1.8l12.2-1.2h1.8v6.5c4.9-4.8,8.4-6.5,13.3-6.5c10,0,17.3,8.5,17.3,20
		c0,11.8-8.1,20.6-19,20.6c-4.1,0-7.2-1.2-11.6-4.5v20.7c0,4.6,1,6.4,6.4,6.4v1.8h-20.5v-1.8c5.2,0,6.7-1.1,6.7-5.3V33.1z
		 M121.6,57.5c2.8,2.9,6.9,4.8,10.6,4.8c6.8,0,12-7.2,12-16.8c0-10.3-5.1-17.7-12.2-17.7c-3.9,0-6.8,1.6-10.4,5.7V57.5z"/>
	<path d="M189,51.8c0,7.6,1.8,9.8,7,9.8v1.8h-22.3v-1.8c5.1,0,7-1.9,7-9.8V13.2c0-7.8-1.7-9.8-7-9.8V1.5H196v1.8c-5.2,0-7,2.4-7,9.8
		V51.8z"/>
	<path d="M244.8,55.2c0,5,1.1,6.5,6.5,6.5v1.8h-20.5v-1.8c5.2,0,6.6-1.2,6.6-4.8v-20c0-6.2-4.4-8.8-8.6-8.8c-3.8,0-7.1,2.4-10.9,7.5
		v18.7c0,5.8,0.8,7.4,6.5,7.4v1.8h-20.2v-1.8c5.1,0,6.4-0.4,6.4-7.4V32.8c0-4.7-1.2-5.6-6.4-5.6v-1.8l11.9-1.2h1.8v7.7
		c4.5-5.2,9-7.7,13.9-7.7c6.4,0,13,4.5,13,13.7V55.2z"/>
	<path d="M291,37.7h-1.8c-1.6-6.9-6.5-11.4-12.9-11.4c-7.6,0-12.9,6.5-12.9,15.9c0,10.5,6.6,19.3,14.4,19.3c4.7,0,10.3-2.5,14.3-8
		v2.8c-4.1,5.6-10,8.4-16.9,8.4c-11.4,0-19.3-7.9-19.3-19.4c0-11.8,8.9-21.2,19.8-21.2c5.7,0,8.9,2.2,10.8,2.2c1,0,1.9-0.8,2.6-2.2
		h1.8V37.7z"/>
	<path d="M309.8,59.5c0,2.8-2.3,5.2-5.1,5.2c-2.8,0-5.2-2.4-5.2-5.2c0-2.8,2.4-5.1,5.2-5.1C307.5,54.4,309.8,56.7,309.8,59.5z"/>
</g>
</svg>
