<?xml version="1.0" encoding="utf-8"?>
<!-- Generator: Adobe Illustrator 18.0.0, SVG Export Plug-In . SVG Version: 6.00 Build 0)  -->
<!DOCTYPE svg PUBLIC "-//W3C//DTD SVG 1.1//EN" "http://www.w3.org/Graphics/SVG/1.1/DTD/svg11.dtd">
<svg version="1.1" id="Layer_1" xmlns="http://www.w3.org/2000/svg" xmlns:xlink="http://www.w3.org/1999/xlink" x="0px" y="0px"
	 viewBox="334 173.5 438.6 154.8" enable-background="new 334 173.5 438.6 154.8" xml:space="preserve">
<g>
	<path fill="#EF3E35" d="M764.5,277.8c-1.7,0.9-3.4,2-5,2.7c-5,2.3-10.2,2.9-14.8,2.9c-4.9,0-12.5-0.3-20.3-5.9
		c-10.8-7.6-15.6-20.7-15.6-32.2c0-23.6,19.2-35.2,34.9-35.2c5.5,0,11.1,1.4,15.7,4.3c7.6,5,9.6,11.6,10.7,15.1L734.3,244l-11.7,0.9
		c3.8,19.4,16.9,30.7,31.4,30.7c7.8,0,13.4-2.7,18.6-5.3L764.5,277.8L764.5,277.8z M750.2,232.4c2.9-1.1,4.4-2,4.4-4.1
		c0-6.1-6.9-13.1-15.1-13.1c-6.1,0-17.5,4.7-17.5,21.2c0,2.6,0.3,5.3,0.5,8.1L750.2,232.4L750.2,232.4z"/>
	<path fill="#2FB457" d="M705.2,281.2h-27c3.5-4.6,4.1-5,4.1-8.1v-24.9c0-11.9,0.2-28.8,0.6-44.7c0.2-7.8,0.8-17.5,0.9-24.6h-11.9
		l11.4-5.5h21.8c-4.7,2.7-6.3,3.7-6.9,9c-1.2,11.7-1.4,30.4-1.4,52v35.2c0,5.9,1.1,6.9,6.1,7.3c2.6,0.3,5.2,0.5,7.8,0.8L705.2,281.2
		L705.2,281.2z"/>
	<path fill="#0075BF" d="M655.1,217.6c3.5,2.9,10.8,9,10.8,20.6c0,11.3-6.4,16.6-12.8,21.7c-2,2-4.3,4.1-4.3,7.5s2.3,5.2,4,6.6
		l5.5,4.3c6.7,5.6,12.8,10.8,12.8,21.4c0,14.3-13.9,28.8-40.1,28.8c-22.1,0-32.8-10.5-32.8-21.8c0-5.5,2.7-13.3,11.7-18.6
		c9.5-5.8,22.3-6.6,29.1-7c-2.1-2.7-4.6-5.6-4.6-10.4c0-2.6,0.8-4.1,1.5-5.9c-1.7,0.2-3.4,0.3-4.9,0.3c-16.2,0-25.3-12.1-25.3-23.9
		c0-7,3.2-14.8,9.8-20.4c8.7-7.2,19.1-8.4,27.3-8.4h31.4l-9.8,5.5L655.1,217.6L655.1,217.6z M644.3,285.3c-1.2-0.2-2-0.2-3.5-0.2
		c-1.4,0-9.6,0.3-16,2.4c-3.4,1.2-13.1,4.9-13.1,15.7c0,10.8,10.5,18.6,26.8,18.6c14.6,0,22.4-7,22.4-16.5
		C660.9,297.7,655.9,293.5,644.3,285.3L644.3,285.3z M648.7,256.3c3.5-3.5,3.8-8.4,3.8-11.1c0-11-6.6-28.1-19.2-28.1
		c-4,0-8.2,2-10.7,5c-2.6,3.2-3.4,7.3-3.4,11.3c0,10.2,5.9,27.1,19.1,27.1C642.2,260.6,646.3,258.8,648.7,256.3L648.7,256.3z"/>
	<path fill="#FFDF1C" d="M560.6,283.2c-24.2,0-37.2-18.9-37.2-36c0-20,16.3-37.1,39.5-37.1c22.4,0,36.5,17.5,36.5,36
		C599.3,264.1,585.4,283.2,560.6,283.2L560.6,283.2z M579.6,270.8c3.7-4.9,4.6-11,4.6-16.9c0-13.4-6.4-39-25.3-39
		c-5,0-10.1,2-13.7,5.2c-5.9,5.3-7,12-7,18.6c0,15.1,7.5,40,25.9,40C570,278.6,576.1,275.7,579.6,270.8L579.6,270.8z"/>
	<path fill="#EF3E35" d="M479.4,283.2c-24.3,0-37.2-18.9-37.2-36c0-20,16.3-37.1,39.5-37.1c22.4,0,36.4,17.5,36.4,36
		C518.2,264.1,504.3,283.2,479.4,283.2L479.4,283.2z M498.5,270.8c3.7-4.9,4.6-11,4.6-16.9c0-13.4-6.4-39-25.3-39
		c-5,0-10.1,2-13.7,5.2c-5.9,5.3-7,12-7,18.6c0,15.1,7.5,40,25.9,40C488.9,278.6,495,275.7,498.5,270.8L498.5,270.8z"/>
	<path fill="#0075BF" d="M432.5,277.8l-20.4,4.7c-8.3,1.3-15.7,2.4-23.6,2.4c-39.5,0-54.5-29-54.5-51.8c0-27.7,21.3-53.5,57.8-53.5
		c7.7,0,15.2,1.1,21.9,3c10.7,3,15.7,6.7,18.9,8.9l-11.9,11.3l-5,1.1l3.6-5.7c-4.9-4.7-13.7-13.4-30.6-13.4
		c-22.6,0-39.6,17.2-39.6,42.2c0,26.9,19.4,52.2,50.6,52.2c9.2,0,13.9-1.9,18.2-3.6v-23l-21.6,1.1l11.4-6.1H438l-3.7,3.6
		c-1,0.9-1.1,1.1-1.4,2.3c-0.1,1.3-0.3,5.4-0.3,6.9L432.5,277.8L432.5,277.8z"/>
</g>
</svg>
