<?xml version="1.0" encoding="utf-8"?>
<!-- Generator: Adobe Illustrator 18.0.0, SVG Export Plug-In . SVG Version: 6.00 Build 0)  -->
<!DOCTYPE svg PUBLIC "-//W3C//DTD SVG 1.1//EN" "http://www.w3.org/Graphics/SVG/1.1/DTD/svg11.dtd">
<svg version="1.1" id="Layer_1" xmlns="http://www.w3.org/2000/svg" xmlns:xlink="http://www.w3.org/1999/xlink" x="0px" y="0px"
	 viewBox="6.1 10 1676.9 500.1" enable-background="new 6.1 10 1676.9 500.1" xml:space="preserve">
<g id="_x23_ffffffff">
	<path fill="#FFFFFF" d="M239.4,39.7c38.5-3,77.8,4.4,112.6,21.3c52,25,93.4,71,112.5,125.5c14.5,40.8,16.5,86,5.8,128
		c-8.4,33.1-24.7,64.1-47,89.9c-23.4,27.1-53.3,48.4-86.6,61.4c-37.1,14.7-78.3,18.8-117.6,12.1c-50.2-8.4-97.1-35.1-130.2-73.7
		C67,378.9,51,348.7,42.5,316.4c-11-41.4-9.6-86.1,4.2-126.8c14.6-43.7,43.4-82.3,80.8-109.2C160.1,57,199.3,42.6,239.4,39.7
		 M234.5,57.8c-30.7,3.2-60.6,13.6-86.7,30.1c-32,20.1-58.2,49.3-74.7,83.4c-17,34.7-23.5,74.4-18.9,112.8
		c3.8,33.1,16.1,65.2,35.2,92.5c19.7,28.2,46.6,51.3,77.6,66.3c31.2,15.3,66.3,22.2,101,20.1c34.7-1.9,68.8-13,98-31.9
		c32.3-20.7,58.5-50.7,74.6-85.5c17.9-38.3,23.2-82.2,15.3-123.7c-5.6-29.8-18.1-58.4-36.2-82.8c-21.1-28.6-49.7-51.5-82.3-65.6
		C305.3,59.5,269.4,54.1,234.5,57.8z"/>
	<path fill="#FFFFFF" d="M341.4,131.7c7.4-1.7,15.5,0.7,20.7,6.2c6.3,6.3,8,16.5,4.3,24.5c-4,9.2-14.7,14.8-24.5,12.6
		c-9.9-1.8-17.7-11-17.8-21C323.5,143.7,331.3,133.8,341.4,131.7z"/>
	<path fill="#FFFFFF" d="M250.2,148.1c16.5-1.4,33.4,1.8,48.1,9.5c18.2,9.3,33,25.2,40.9,44.1c8.9,20.7,9.3,44.8,1.3,65.9
		c-6.6,17.6-19.1,32.9-34.9,43.1c-28.6,18.9-68.3,18.6-96.6-0.6c-15.3-10.1-27.3-25.1-33.8-42.2c-7.6-19.7-7.7-42.2-0.4-62
		c6.4-17.5,18.4-32.8,33.9-43.1C221,154.4,235.5,149.4,250.2,148.1z"/>
	<path fill="#FFFFFF" d="M250.3,341.3c17.7-0.6,35.6,0.9,52.5,6c8.7,2.7,17.4,6.4,24.5,12.4c4.4,3.8,8.2,9.2,7.9,15.3
		c-0.2,5.7-3.9,10.6-8.1,14.2c-6.7,5.6-14.9,9.1-23.1,11.8c-17.7,5.5-36.5,7.1-55,6.3c-15.4-0.8-30.8-3.3-45.1-9.2
		c-7.7-3.3-15.5-7.6-20.4-14.6c-3.4-4.7-4.1-11.2-1.3-16.4c3.8-7.1,10.9-11.6,17.9-15C215.8,344.9,233.2,342.1,250.3,341.3z"/>
</g>
<g id="_x23_ced3d7ff">
	<path fill="#CED3D7" d="M239.4,10.5c40.1-2.7,80.8,4.3,117.5,20.6c51.8,22.7,95.3,63.6,121.3,113.8c18.4,35.4,28.2,75.2,28,115.1
		c0.1,37.4-8.4,74.7-24.7,108.4c-25.4,53-70.1,96.4-123.9,120.2c-38.5,17.3-81.5,24.2-123.5,20.5c-38.3-3.3-75.7-15.7-108.4-35.8
		c-50.7-31-89.8-80.5-107.8-137.1C4.7,294.8,2.5,250,11.6,207.6c10.1-47.8,34.8-92.2,69.8-126.3C123.4,39.9,180.5,14.2,239.4,10.5
		 M239.4,39.7c-40.1,2.9-79.3,17.3-112,40.8C90.1,107.3,61.3,146,46.7,189.7c-13.7,40.6-15.2,85.3-4.2,126.8
		c8.5,32.3,24.5,62.5,46.3,87.7c33.2,38.6,80,65.3,130.2,73.7c39.3,6.7,80.5,2.6,117.6-12.1c33.3-13,63.2-34.4,86.6-61.4
		c22.4-25.8,38.7-56.8,47-89.9c10.7-42,8.7-87.1-5.8-128C445.4,132,404,85.9,352,61C317.2,44.1,278,36.7,239.4,39.7z"/>
</g>
<g id="_x23_e21b22ff">
	<path fill="#E21B22" d="M234.5,57.8c34.9-3.7,70.8,1.7,102.9,15.8c32.6,14.2,61.2,37.1,82.3,65.6c18.1,24.4,30.6,52.9,36.2,82.8
		c7.9,41.5,2.6,85.4-15.3,123.7c-16.1,34.8-42.3,64.8-74.6,85.5C336.8,450,302.7,461,268,463c-34.6,2.1-69.8-4.9-101-20.1
		c-30.9-15-57.9-38.1-77.6-66.3c-19.2-27.3-31.4-59.3-35.2-92.5c-4.6-38.4,1.9-78,18.9-112.8c16.5-34,42.7-63.2,74.7-83.4
		C173.9,71.4,203.8,61,234.5,57.8 M341.4,131.7c-10.1,2.1-17.9,12-17.3,22.4c0.1,10,8,19.2,17.8,21c9.8,2.1,20.5-3.4,24.5-12.6
		c3.7-8.1,2-18.3-4.3-24.5C356.9,132.4,348.8,130,341.4,131.7 M250.2,148.1c-14.8,1.2-29.2,6.3-41.5,14.6
		c-15.5,10.3-27.5,25.6-33.9,43.1c-7.3,19.8-7.2,42.3,0.4,62c6.5,17.2,18.5,32.1,33.8,42.2c28.4,19.2,68,19.5,96.6,0.6
		c15.8-10.1,28.3-25.5,34.9-43.1c8-21,7.6-45.2-1.3-65.9c-8-18.9-22.7-34.8-40.9-44.1C283.6,150,266.8,146.7,250.2,148.1
		 M250.3,341.3c-17.2,0.8-34.6,3.6-50.2,10.9c-7,3.4-14.1,7.9-17.9,15c-2.8,5.1-2.1,11.7,1.3,16.4c4.9,7,12.7,11.3,20.4,14.6
		c14.3,5.9,29.8,8.4,45.1,9.2c18.5,0.8,37.2-0.8,55-6.3c8.2-2.7,16.4-6.2,23.1-11.8c4.2-3.6,7.9-8.5,8.1-14.2
		c0.3-6.1-3.5-11.5-7.9-15.3c-7-6-15.7-9.6-24.5-12.4C285.9,342.2,268,340.6,250.3,341.3z"/>
</g>
<g id="_x23_000000ff">
	<path d="M1458,196.1c5.9,0,11.8,0,17.8,0c0,9.1,0,18.2,0,27.3c19.3,0,38.7,0,58,0c0,5,0,10.1,0,15.1c-19.3,0-38.7,0-58,0
		c0,15.9,0,31.7,0,47.6c0,8.4-0.7,17.6,4.2,25c4.3,6.6,12.7,8.7,20.1,9.1c9.7,0.5,20.1-0.1,28.4-5.7c6.1-4.1,9.4-11.1,11.1-18
		c5.7,0,11.5,0,17.2,0c-2,8.2-4.9,16.4-10.2,23.1c-4.7,6.2-11.4,10.7-18.8,13.2c-9.9,3.3-20.6,3.8-31,3c-10.3-0.8-21.1-3.6-28.7-11
		c-7.1-6.9-10-17-10.2-26.7C1458,264,1458,230.1,1458,196.1z"/>
	<path d="M609.6,240.6c13.8-14.6,34.8-20.8,54.5-19.2c15,1,30.1,7.1,39.8,18.9c-0.1-5.6,0-11.2,0-16.8c5.9,0,11.7,0,17.6,0
		c0,32.5,0,65,0,97.5c-0.1,13-2.2,26.6-10,37.3c-5.5,7.6-13.8,12.8-22.6,15.5c-12.5,3.9-25.7,4.2-38.7,3.5
		c-12.8-0.9-26.2-3.8-36.1-12.4c-7.7-6.5-12-16.1-13.6-25.9c6.1,0,12.1,0,18.2,0c1.4,6.1,4.5,11.9,9.7,15.5
		c8.3,5.9,18.8,6.9,28.6,7.1c10.4,0,21.2-0.5,30.7-5.2c6.4-3.1,11.3-8.7,13.6-15.4c2.9-7.7,2.6-16,2.6-24
		c-9.1,11.4-23.5,17.2-37.7,18.4c-18.4,1.8-38.1-2.2-52.5-14.2C590.2,301.9,588.5,262.4,609.6,240.6 M648.5,237.8
		c-9.6,1.6-18.9,6-25.5,13.3c-11.4,12.7-12.7,32.4-5.4,47.4c5.6,11.4,17.2,18.9,29.5,21c12.4,2,25.8,0.8,37.1-5.2
		c9-4.8,15.9-13.3,18.5-23.2c2.7-10.1,2.3-21.2-2-30.8c-4-8.8-11.7-15.6-20.7-19.1C670.2,237.1,659.1,236.1,648.5,237.8z"/>
	<path d="M760.7,238.8c8-12.8,23.8-17.9,38.2-17.7c0,5.4,0,10.8,0,16.2c-10.1,0.1-21.1,1.7-28.8,8.8c-7.1,6.6-9.2,16.6-9.3,25.9
		c-0.1,20.6,0,41.2,0,61.8c-5.9,0-11.8,0-17.7,0c0-36.8,0-73.6,0-110.3c5.9,0,11.8,0,17.7,0C760.7,228.6,760.8,233.7,760.7,238.8z"
		/>
	<path d="M819.5,231.4c11.1-8.8,25.9-10.3,39.5-10.3c13,0.2,27,1.3,38.2,8.7c7.7,5,12,14.1,12,23.2c0.1,26.9,0,53.9,0,80.8
		c-5.9,0-11.8,0-17.7,0c0-5.1,0-10.1,0-15.2c-8.7,11-22.9,15.8-36.5,16.9c-14.4,1.4-30.1,0.2-42.1-8.7c-15.2-11-15.5-37-0.3-48.1
		c10.7-7.8,24.4-9.3,37.2-10c13.8-0.3,27.5,0,41.3-0.1c-0.3-6.2,0.7-12.5-0.8-18.5c-1.4-5.3-6.2-9-11.2-10.5
		c-8.1-2.6-16.8-2.7-25.3-2.5c-8,0.4-16.7,1.5-23,6.9c-4.8,4-6.7,10.3-7.7,16.2c-5.9,0-11.8,0-17.7,0
		C806.9,249.5,810.8,238.3,819.5,231.4 M825.5,290.4c-8.5,6-7,20.4,1.8,25.4c7.7,4.5,17,4.6,25.7,4.4c11.6-0.7,24.2-3.9,32.1-13.2
		c5.5-6.4,6.8-15.1,6.4-23.2c-11.1,0-22.2,0-33.4,0C847,283.7,834.8,283.8,825.5,290.4z"/>
	<path d="M945.1,233.1c12.6-9.8,29.2-12.9,44.9-11.9c14.7,0.9,29.8,5.7,40.2,16.4c7.9,8,12.1,19,13.9,30c-6,0-12,0-18.1,0
		c-1.9-8.2-5.5-16.4-12-21.9c-7.7-6.6-18.2-8.7-28.1-8.9c-11.5-0.4-23.4,3.2-31.8,11.2c-7.3,6.9-11.2,16.9-11.6,26.8
		c-0.4,11,1.9,22.6,8.8,31.4c5.7,7.4,14.5,11.8,23.5,13.1c11.1,1.4,22.8,1,33.2-3.4c8.4-3.6,14.1-11.4,17.4-19.7
		c6.1,0,12.2,0,18.2,0c-2.8,9.8-7.6,19.2-15.3,26c-11.8,10.5-28.2,13.5-43.5,13.6c-15.5,0.3-31.9-3.8-43.4-14.7
		c-13-11.9-18.5-30.2-17.2-47.5C925.3,258.2,932.5,242.7,945.1,233.1z"/>
	<path d="M1073.7,238.7c10.5-11.4,26-16.9,41.3-17.5c17.3-0.9,35.8,4.1,48,16.9c12,12.3,16.2,30.1,16.1,46.8c-33.9,0-67.8,0-101.6,0
		c0.4,8.7,3.7,17.4,9.9,23.7c7.6,8,18.9,11.6,29.7,11.7c10.6,0.1,21.7-1.5,30.6-7.7c5.6-3.9,9.5-9.8,11.7-16.2c6.1,0,12.2,0,18.2,0
		c-3.5,11.4-9.8,22.5-19.9,29.4c-11.2,7.8-25.3,10.1-38.7,10.2c-14.3,0.2-29.3-3.2-40.6-12.4c-11.4-9-18-23.2-19.3-37.5
		C1057.3,269.2,1061.9,251.2,1073.7,238.7 M1086.8,249.9c-5,5.5-7.9,12.6-9.2,19.8c27.4,0,54.8,0,82.2,0
		c-1.6-8.5-5.3-16.8-11.8-22.6c-8.6-7.8-20.7-10.6-32.1-10C1105.2,237.7,1094.2,241.7,1086.8,249.9z"/>
	<path d="M1238.7,222.8c10.1-2.3,20.7-2.2,30.9-0.2c9.5,1.9,18.7,6.5,24.7,14.2c6.4,8.2,8.6,18.9,8.6,29.2c0,22.6,0,45.2,0,67.8
		c-5.9,0-11.7,0-17.6,0c0-23.3,0-46.6,0-69.9c0.1-7.1-1.8-14.9-7.3-19.8c-6.8-5.9-16.2-7-24.9-7.2c-10.8-0.1-22.6,1.5-31.2,8.7
		c-7.6,6.3-10.6,16.6-10.7,26.2c-0.1,20.6,0,41.3,0,61.9c-5.8,0-11.7,0-17.5,0c0-36.8,0-73.5,0-110.3c5.8,0,11.5,0,17.3,0
		c0,5.2,0,10.5,0,15.7C1217.8,230.5,1228.1,225.3,1238.7,222.8z"/>
	<path d="M1369.5,221.8c19.2-2.2,40.2,0.6,55.7,12.8c12,9.4,18.5,24.4,19.2,39.4c1.3,16.9-4.4,34.7-17.1,46.2
		c-12.7,11.7-30.5,15.9-47.4,15.7c-16.7,0-34.3-4.6-46.5-16.5c-16-15.4-20.3-40.4-13-60.9c3.9-11.2,11.8-21,21.9-27.3
		C1350.5,226.1,1359.9,223.1,1369.5,221.8 M1370.5,237.9c-12.6,1.9-25,9.1-30.8,20.7c-8.3,16.4-5.7,38.9,8.6,51.2
		c10,8.7,23.9,11.1,36.7,10.4c11.9-0.6,24.2-4.9,32.2-14c10.7-11.9,12.4-29.8,7.1-44.5c-3.4-9.4-11.1-17-20.4-20.7
		C1393.3,236.9,1381.6,236.2,1370.5,237.9z"/>
	<path d="M1592,227.9c15.2-7.6,33.3-8.6,49.6-4.4c14.4,3.7,27.4,13.4,34,26.9c5.4,10.6,7.3,22.7,7.3,34.5c-33.9,0-67.8,0-101.6,0
		c0.5,8.5,3.6,17,9.6,23.2c7.4,8,18.4,11.8,29.2,12.1c10.2,0.2,20.9-1.1,29.8-6.5c6.5-3.9,11.1-10.3,13.4-17.4c6.1,0,12.1,0,18.2,0
		c-3,9.6-7.7,19.1-15.4,25.9c-11.8,10.8-28.5,13.8-44.1,13.7c-16.1,0.2-33-4.8-44.3-16.8c-13.6-14.1-17.3-35.5-13.5-54.2
		C1567.4,249.4,1577.6,235.1,1592,227.9 M1590.8,249.9c-5,5.5-7.9,12.6-9.1,19.8c27.4,0,54.8,0,82.2,0c-1.5-8.3-5.1-16.4-11.4-22.1
		c-8.6-8.2-21-11.2-32.6-10.5C1609.1,237.7,1598.2,241.7,1590.8,249.9z"/>
</g>
</svg>
