<?xml version="1.0" encoding="utf-8"?>
<!-- Generator: Adobe Illustrator 18.0.0, SVG Export Plug-In . SVG Version: 6.00 Build 0)  -->
<!DOCTYPE svg PUBLIC "-//W3C//DTD SVG 1.1//EN" "http://www.w3.org/Graphics/SVG/1.1/DTD/svg11.dtd">
<svg version="1.1" id="Layer_1" xmlns="http://www.w3.org/2000/svg" xmlns:xlink="http://www.w3.org/1999/xlink" x="0px" y="0px"
	 viewBox="0 0 308.9 308.9" enable-background="new 0 0 308.9 308.9" xml:space="preserve">
<g>
	<polygon points="142.7,0.2 76.2,0.2 76.2,28.8 67.7,28.8 67.7,0.2 1.2,0.2 1.2,142.6 67.7,142.6 67.7,114 76.2,114 76.2,142.6 
		142.7,142.6 	"/>
	<path d="M142.7,308.9v-67.3h-28.6v-8.2h28.6v-67.3H71.3c-19.1,0-37,7.3-50.4,20.9C7.3,200.5,0,218.5,0,237.6
		c0,19.1,7.3,37,20.9,50.4c13.4,13.6,31.4,20.9,50.4,20.9H142.7z"/>
	<polygon points="269.8,237.6 308.8,308.8 166.4,308.8 166.4,166.4 308.8,166.4 	"/>
	<path d="M308.9,142.6h-67.2v-28.4h-8.2v28.4h-67.2V71.3c0-19.1,7.3-37,20.9-50.4C200.6,7.3,218.6,0,237.6,0
		c19.1,0,37,7.3,50.4,20.9c13.6,13.4,20.9,31.3,20.9,50.4V142.6z"/>
</g>
</svg>
