<?xml version="1.0" encoding="utf-8"?>
<!-- Generator: Adobe Illustrator 18.0.0, SVG Export Plug-In . SVG Version: 6.00 Build 0)  -->
<!DOCTYPE svg PUBLIC "-//W3C//DTD SVG 1.1//EN" "http://www.w3.org/Graphics/SVG/1.1/DTD/svg11.dtd">
<svg version="1.1" id="H_I_R_E_D" xmlns="http://www.w3.org/2000/svg" xmlns:xlink="http://www.w3.org/1999/xlink" x="0px" y="0px"
	 viewBox="0 0.1 1000 142.8" enable-background="new 0 0.1 1000 142.8" xml:space="preserve">
<g>
	<path fill="#1E1D1D" d="M25.1,82.7v60.2H0V0.1h25.1v59.4h68.1V0.1h25.1v142.8H93.2V82.7L25.1,82.7L25.1,82.7z"/>
	<path fill="#1E1D1D" d="M273.3,0.1v142.8h-25.1V0.1H273.3z"/>
	<path fill="#1E1D1D" d="M494.8,142.9l-35.1-49.8h-31.4v49.8h-25.1V0.1h63.6c32.8,0,53,17.3,53,45.3c0,23.7-14.1,37.9-34.1,43.5
		l38.6,54L494.8,142.9L494.8,142.9z M464.8,22.9h-36.5v47.9H465c17.9,0,29.4-9.4,29.4-24.1C494.4,31.1,483.4,22.9,464.8,22.9z"/>
	<path fill="#1E1D1D" d="M748.3,22.5h-80.8v37.1h71.6v22.4h-71.6v38.4h81.8v22.4H642.5V0.1h105.9V22.5z"/>
	<path fill="#1E1D1D" d="M924.1,142.9h-53.2V0.1h53.2c44.9,0,75.9,30.8,75.9,71.2C1000,111.7,969,142.9,924.1,142.9z M924.1,22.9
		H896V120h28.1c30,0,49.6-20.2,49.6-48.4C973.7,43.5,954.1,22.9,924.1,22.9z"/>
</g>
</svg>
