<?xml version="1.0" encoding="utf-8"?>
<!-- Generator: Adobe Illustrator 18.0.0, SVG Export Plug-In . SVG Version: 6.00 Build 0)  -->
<!DOCTYPE svg PUBLIC "-//W3C//DTD SVG 1.1//EN" "http://www.w3.org/Graphics/SVG/1.1/DTD/svg11.dtd">
<svg version="1.1" id="Layer_1" xmlns="http://www.w3.org/2000/svg" xmlns:xlink="http://www.w3.org/1999/xlink" x="0px" y="0px"
	 viewBox="0 0 407.1 385.8" enable-background="new 0 0 407.1 385.8" xml:space="preserve">
<g>
	<path fill="#020202" d="M78.8,378.4c-20.8,0-37.8-0.2-54.7,0.6c-5,0.2-10,0.2-14.9-1.1c-5.6-1.5-8.7-4.6-9.1-9.3
		c-0.4-4.6,2.2-8.5,7.3-10.8c4.1-1.9,8.6-2.7,12.9-3.9c4-1.1,8-2.3,11.8-4c7.1-3.2,11.9-8.3,14-15.9c2.4-8.4,3.1-17.1,3.1-25.7
		c0.2-33.7,0.3-67.3,0.4-101c0-22,0-44,0-66c0-4.7-0.1-9.3-1-13.9c-1-5.1-3.6-8.9-8.1-11.4c-5.2-3-10.6-5.6-16.5-7
		c-3.9-0.9-7.7-2.1-11.3-3.9c-1.6-0.8-3.3-1.7-4.7-2.8C4.6,99.5,2,96.2,3,91.6c1-4.4,4.5-6.5,8.4-7.6c4.5-1.3,9.2-1.9,13.8-1.6
		c18,0.8,35.9,1.9,53.9,2.5c13,0.4,25.9-1.3,38.9-2.2c8-0.6,16-0.6,23.9,1.1c1.3,0.3,2.6,0.6,3.8,1.1c3.9,1.5,7.3,3.9,7.8,8.3
		c0.5,4.4-2.1,7.5-5.5,10c-4.3,3.1-9.2,4.5-14.3,5.7c-2.7,0.7-5.5,1.2-8.2,2c-9.8,3.1-16.8,9.1-19.8,19.3
		c-1.8,6.1-3.4,12.2-3.7,18.6c-0.7,19.5-1.5,38.9-1,58.4c0.2,6.5,0.3,6.6,6.9,6.1c7.8-0.6,15.6-1.8,23.1-3.8
		c14.8-3.9,26.1-12.9,35.7-24.5c7.3-8.9,13.2-18.8,19.2-28.6c13.1-21.8,28.3-42,45.5-60.6c8.8-9.6,18.8-17.5,31.5-21.3
		c10.6-3.2,21.3-3.8,32-0.3c12.7,4.1,19.1,13.9,17.9,27.2c-1.2,12.8-7.7,22.9-17,31.2c-4,3.6-8.5,3.2-13,0.9
		c-7.4-3.7-15.1-6.1-23.4-6.7c-8.4-0.6-15.8,1.6-22.4,6.7c-4.9,3.8-9.1,8.3-12.7,13.3c-5.5,7.6-10.8,15.2-16.1,22.9
		c-7.1,10.5-14.4,20.8-22.9,30.2c-4.2,4.7-4.4,6.4-1,11.5c20.1,30.2,40.1,60.6,62.8,89c10.1,12.6,20.3,25.1,32.1,36.2
		c13.1,12.3,28.2,19.8,45.9,22.3c3,0.4,5.9,1,8.7,2.1c7.1,2.8,8.7,10.1,3.3,15.6c-2.1,2.2-4.8,3.5-7.6,4.6
		c-7.5,3.1-15.5,3.5-23.5,4.2c-13.9,1.2-27.6,0.1-41.2-2.8c-18.1-3.8-32.8-13.5-45.2-26.9c-11.7-12.7-21.4-26.8-31.3-40.8
		c-11.1-15.8-22-31.8-33-47.6c-4.6-6.6-9.5-12.9-14.8-18.8c-7.2-8-16.3-12.5-26.9-14c-1.7-0.2-3.3-0.3-5,0c-4.5,0.9-6.1,2.5-6.2,7
		c-0.2,7.3-0.4,14.7-0.3,22c0,20,0.2,40,0.3,60c0.1,10.8,4.9,18.8,14.3,24c5.3,2.9,11,4.7,16.7,6.6c4,1.3,7.9,2.5,11.5,4.8
		c3.7,2.4,6.2,5.6,5.6,10.3c-0.6,5.1-4.2,7.4-8.5,8.7c-4,1.2-8.2,1.5-12.4,1.4C111.3,378.9,93.2,378,78.8,378.4z"/>
	<path fill="#EE4038" d="M371.8,0c-21.3-0.3-36.4,14.9-37,35.5c-0.6,22.3,18.4,36.7,36.3,36.3c20.4,0,36.2-15.3,35.9-35.5
		C406.7,14.1,391,0.3,371.8,0z M371.1,48.8c-7.5-0.2-13.7-6.3-13.5-13.3c0.2-7.1,6.3-12.5,13.7-12.4c7.2,0.1,13,5.8,12.7,12.7
		C383.8,43.5,378.2,49,371.1,48.8z"/>
</g>
</svg>
