<?xml version="1.0" encoding="utf-8"?>
<!-- Generator: Adobe Illustrator 18.0.0, SVG Export Plug-In . SVG Version: 6.00 Build 0)  -->
<!DOCTYPE svg PUBLIC "-//W3C//DTD SVG 1.1//EN" "http://www.w3.org/Graphics/SVG/1.1/DTD/svg11.dtd">
<svg version="1.1" id="Layer_1" xmlns="http://www.w3.org/2000/svg" xmlns:xlink="http://www.w3.org/1999/xlink" x="0px" y="0px"
	 viewBox="0 0 1200 255.9" enable-background="new 0 0 1200 255.9" xml:space="preserve">
<g>
	<g>
		<g>
			<path d="M326.1,208.9V69.6c0-14.8-2.9-23.1-2.9-23.1l17.7-3.4c0,0,2.9,9.5,2.9,26.8v139.1H326.1z M396.4,208.9l-51.9-64l43.1-49
				h22.2l-44.5,49l54.7,64H396.4z"/>
			<path d="M457.8,211.2c-5.4,0-10-1.6-13.4-4.8c-3.7-3.1-5.5-7.9-5.5-16.1V70.5c0-14.7-2.7-23.1-2.7-23.1l17.7-3.4
				c0,0,3,9.5,3,26.8v115.5c0,8.8,1.4,11.3,6.3,11.3c0.7,0,2.3-0.4,2.3-0.4l3.6,11.6C464.6,210.7,462.6,211.2,457.8,211.2z"/>
			<path d="M534.7,211.9c-31.1,0-48.8-22.9-48.8-60.1c0-36.8,18.4-59.2,48.1-59.2c18.8,0,31.1,8.6,38.8,19.7
				c7,10.2,10.4,23.6,10.4,42C583.3,191.9,563.1,211.9,534.7,211.9z M557.9,121.6c-4.8-10-14.8-14.5-24-14.5
				c-10,0-19.3,4.7-23.1,12.2c-3.6,7-5.5,16.1-5.5,29.5c0,15.9,2.7,30,7,37c4.1,6.8,13.2,11.4,22.9,11.4c11.8,0,20.7-6.1,24.5-17
				c2.5-7,3.4-13.4,3.4-24.5C563.1,139.7,561.5,129.1,557.9,121.6z"/>
			<path d="M692.4,213.7c-7.5-6.1-10.7-10.7-12.3-18.2c-8.6,11.6-20.4,17.2-35.9,17.2c-14.3,0-24.9-6.1-29.7-16.1
				c-2-4.3-2.9-10.2-2.9-16.8v-83l17.5-3.4v81.2c0,10.7,1.6,15.4,6.8,19c3.6,2.5,8.8,3.9,13.8,3.9c11.1,0,22.7-8.2,28.8-20.4V97.1
				l17.5-3v82.4c0,14.3,2,19.9,7.7,25.2L692.4,213.7z"/>
			<path d="M803.9,208.9c0,0-2.3-5.7-2.5-11.5c-8.2,9.3-16.8,13.1-29.9,13.1c-29.3,0-46.1-21.1-46.1-57.2c0-24.1,7.9-41.7,23.4-52.4
				c7.3-5,13.6-7,21.8-7c12.7,0,23.8,5.2,30.6,14.3c0,0-0.2-9.3-0.2-17.4V43.3l17.7,2.9v126.2c0,19.5,0.9,29.9,3.4,36.5H803.9z
				 M800.7,120.2c-5.7-7.9-14.1-11.8-27.4-11.8c-8.8,0-16.3,4.1-21.1,11.8c-5.4,8.6-7.3,16.8-7.3,32.7c0,13.2,0.9,22.9,4.5,29.5
				c5.2,9.3,12.3,13.1,22.7,13.1c9.3,0,14.5-2,21.8-7.2c4.8-3.4,6.8-8.2,6.8-8.2V120.2z"/>
			<path d="M873,211.2c-5.4,0-10-1.6-13.4-4.8c-3.6-3.1-5.4-7.9-5.4-16.1V70.5c0-14.7-2.7-23.1-2.7-23.1l17.7-3.4c0,0,3,9.5,3,26.8
				v115.5c0,8.8,1.3,11.3,6.3,11.3c0.7,0,2.3-0.4,2.3-0.4l3.6,11.6C879.8,210.7,877.7,211.2,873,211.2z"/>
			<path d="M922.1,155.4v2.7c0,10.7,1.4,18.8,5.2,24.7c6.3,9.8,16.8,13.8,28.1,13.8c10.9,0,19.7-3.4,27.7-10.7l6.8,11.4
				c-10,9-23.6,14-38.1,14c-31.3,0-50.1-22.7-50.1-60.1c0-19.1,4.1-31.3,13.6-42.7C924.4,98,935.5,93,949.1,93
				c12.2,0,22.9,4.3,30.6,12.3c9.7,10,12.9,20.6,12.9,47.6v2.5H922.1z M968.6,116.8c-3.9-6.1-11.8-10-20.4-10
				c-16.1,0-25.2,11.8-26.1,35.2h51.7C973.6,129.8,972,122.3,968.6,116.8z"/>
			<path d="M1054.4,212.3c-14.3,0-29.9-4.3-41.5-11.4l6.8-13.2c11.6,7,23.3,10.7,35.8,10.7c13.8,0,22.9-7.5,22.9-19.5
				c0-10.2-5.7-15.9-18.6-18.6l-14.1-2.9c-18.6-3.9-28.6-15.4-28.6-31.1c0-20.4,16.6-34.7,40.2-34.7c11.8,0,24.9,3.6,34.5,9.1
				l-6.6,13.2c-10-4.8-18.4-8.2-28.3-8.2c-12.9,0-21.3,7.5-21.3,18.6c0,8.6,4.3,13.9,16.3,16.4l15,3.2c20.4,4.3,30.2,14.7,30.2,31.5
				C1097.1,197.4,1079.8,212.3,1054.4,212.3z"/>
			<path d="M1157.4,212.3c-14.3,0-29.9-4.3-41.5-11.4l6.8-13.2c11.6,7,23.4,10.7,35.8,10.7c13.8,0,22.9-7.5,22.9-19.5
				c0-10.2-5.7-15.9-18.6-18.6l-14.1-2.9c-18.6-3.9-28.6-15.4-28.6-31.1c0-20.4,16.6-34.7,40.2-34.7c11.8,0,25,3.6,34.5,9.1
				l-6.6,13.2c-10-4.8-18.4-8.2-28.4-8.2c-12.9,0-21.3,7.5-21.3,18.6c0,8.6,4.3,13.9,16.3,16.4l15,3.2c20.4,4.3,30.2,14.7,30.2,31.5
				C1200,197.4,1182.8,212.3,1157.4,212.3z"/>
		</g>
	</g>
	<g>
		<g>
			<g>
				<path fill="#3C98FF" d="M76.8,76.8L36.4,36.4c-0.8,0.8-1.1,2.2-0.7,4l10.4,40.4c0.9,3.5-1.1,7.4-4.4,8.7L2.8,104.8
					c-1.7,0.7-2.6,1.7-2.8,2.9l56.5,9C58.9,101.2,66.2,87.4,76.8,76.8z"/>
				<path fill="#1B5CED" d="M55.6,127.9c0-3.8,0.3-7.6,0.9-11.3l-56.5-9c-0.2,1.2,0.4,2.5,1.8,3.6L34,137.9c2.8,2.3,3.4,6.6,1.5,9.7
					l-22.4,35.2c-1,1.5-1.1,2.9-0.6,4l51-26C58.5,150.9,55.6,139.8,55.6,127.9z"/>
				<path fill="#009B4A" d="M116.6,56.5L107.7,0c-1.2,0.2-2.2,1.1-2.9,2.8L89.5,41.7c-1.3,3.3-5.2,5.3-8.7,4.4L40.4,35.7
					c-1.7-0.5-3.1-0.2-4,0.7l40.4,40.4C87.4,66.3,101.2,58.9,116.6,56.5z"/>
				<path fill="#1B5CED" d="M200.3,127.9c0,3.9-0.3,7.6-0.9,11.3l56.5,8.9c0.2-1.2-0.4-2.5-1.8-3.6L221.9,118
					c-2.8-2.3-3.5-6.6-1.5-9.7l22.4-35.2c1-1.5,1.1-2.9,0.6-4l-51,26C197.4,105,200.3,116.1,200.3,127.9z"/>
				<path fill="#EA3200" d="M192.4,95.1l51-26c-0.6-1.1-1.8-1.8-3.6-1.9l-41.7-2.6c-3.6-0.2-6.7-3.3-6.9-6.9l-2.5-41.6
					c-0.1-1.8-0.8-3-1.9-3.6l-26,51C174.4,70.5,185.5,81.5,192.4,95.1z"/>
				<path fill="#EAAD00" d="M128,55.6c11.8,0,23,2.9,32.8,7.9l26-51c-1.1-0.5-2.5-0.4-4,0.6l-35.2,22.4c-3,1.9-7.4,1.2-9.7-1.5
					L111.3,1.8c-1.1-1.4-2.4-2-3.6-1.8l8.9,56.5C120.3,55.9,124.1,55.6,128,55.6z"/>
				<path fill="#009B4A" d="M139.3,199.4l9,56.5c1.2-0.2,2.3-1.2,2.9-2.8l15.3-38.8c1.3-3.3,5.3-5.3,8.7-4.4l40.4,10.4
					c1.7,0.4,3.1,0.1,4-0.7l-40.4-40.4C168.5,189.6,154.7,197,139.3,199.4z"/>
				<path fill="#3C98FF" d="M199.4,139.3c-2.4,15.4-9.7,29.2-20.3,39.8l40.4,40.4c0.9-0.9,1.2-2.3,0.7-4l-10.4-40.4
					c-0.9-3.5,1.1-7.4,4.4-8.7l38.8-15.3c1.7-0.7,2.6-1.7,2.8-2.9L199.4,139.3z"/>
				<path fill="#EAAD00" d="M128,200.3c-11.8,0-23-2.9-32.8-7.9l-26,50.9c1.1,0.6,2.5,0.4,4-0.6l35.2-22.4c3-1.9,7.4-1.2,9.7,1.5
					l26.6,32.2c1.1,1.4,2.5,2,3.6,1.8l-9-56.5C135.6,200,131.8,200.3,128,200.3z"/>
				<path fill="#EA3200" d="M63.5,160.8l-51,26c0.6,1.1,1.8,1.8,3.6,1.9l41.7,2.5c3.6,0.2,6.7,3.3,6.9,6.9l2.6,41.6
					c0.1,1.8,0.8,3,1.9,3.6l26-50.9C81.5,185.4,70.5,174.4,63.5,160.8z"/>
			</g>
			<g>
				<path fill="#EAAD00" d="M113.1,140.8c2.8,0.4,5.6,0,8.2-1.3l2-1c6.6-3.4,9.2-11.4,5.9-18l-13-25.5c-0.8-1.5-2.2-2.5-3.7-2.8
					c-0.9-0.1-1.7,0-2.5,0.4c-1.1,0.5-1.8,1.5-2.2,2.8c-0.3,1.2-0.1,2.5,0.4,3.7l12.5,24.5c1.4,2.8,0.3,6.2-2.5,7.6
					c-1.1,0.6-2.3,0.7-3.4,0.6c-1.8-0.3-3.3-1.4-4.2-3l-12.5-24.5c-4.1-8-1-17.7,6.7-21.6c2.9-1.5,6.2-2,9.4-1.5
					c5.1,0.8,9.6,4.1,12,8.8l13,25.5c6.2,12.1,1.4,27-10.8,33.2l-2,1c-4.7,2.4-9.9,3.2-15,2.4c-7.8-1.2-14.6-6.2-18.2-13.2L74.9,103
					l-0.3-0.5c-2.4,5-4.1,10.4-5.1,16.2c-5.1,32.3,16.9,62.6,49.2,67.6c32.2,5.1,62.5-16.9,67.6-49.1c5.1-32.2-16.9-62.5-49.2-67.6
					c-21.9-3.5-42.8,5.5-55.6,21.7l21.6,42.4C105.1,137.5,108.8,140.2,113.1,140.8z"/>
			</g>
		</g>
	</g>
</g>
</svg>
