<?xml version="1.0" encoding="utf-8"?>
<!-- Generator: Adobe Illustrator 18.0.0, SVG Export Plug-In . SVG Version: 6.00 Build 0)  -->
<!DOCTYPE svg PUBLIC "-//W3C//DTD SVG 1.1//EN" "http://www.w3.org/Graphics/SVG/1.1/DTD/svg11.dtd">
<svg version="1.1" id="Layer_1" xmlns="http://www.w3.org/2000/svg" xmlns:xlink="http://www.w3.org/1999/xlink" x="0px" y="0px"
	 viewBox="0 0 202.6 82.4" enable-background="new 0 0 202.6 82.4" xml:space="preserve">
<path fill="#5E7875" d="M129.4,0c-14.1,0-22.7,9.5-22.7,21.7v39.1c0,12.2,8.6,21.7,22.7,21.7c14,0,21.3-8.8,21.3-20.6v-9.6h-13.1
	v9.5c0,4.6-2.6,7.8-7.9,7.8s-8.1-3.2-8.1-7.6V20.5c0-4.4,2.7-7.6,8.1-7.6s7.9,3.2,7.9,7.8v9.5h13.1v-9.6C150.7,8.8,143.4,0,129.4,0z
	 M192.9,40.3c6.8-1.4,9.4-6.5,9.4-13.3v-8.5c0-10.9-6.6-16.7-17.4-16.7h-24.6v78.9h24.9c10.8,0,17.5-5.7,17.5-16.7V53.7
	C202.6,47,200,42.2,192.9,40.3z M175,13.9h7.9c3.7,0,5.2,2.1,5.2,5.7v9.8c0,4.1-2,6.2-5.8,6.2H175V13.9z M188.4,62.9
	c0,3.7-1.4,5.7-5.1,5.7H175V46.3h7.6c3.8,0,5.8,2.1,5.8,6.3V62.9z M79.3,1.8H55v78.9h14.7V50.5h9.6c11.1,0,17.9-6.4,17.9-17.6V19.5
	C97.2,8.2,90.4,1.8,79.3,1.8z M83,33.2c0,3.9-1.5,5.9-5.2,5.9h-8.1V13.9h8.1c3.7,0,5.2,2,5.2,5.9V33.2z M45.4,1.8H30.6L14.7,37.9
	V1.8H0v78.9h14.7v-22l5.1-10.4l10.9,32.5h15.4L29.8,35.1L45.4,1.8z"/>
</svg>
