<?xml version="1.0" encoding="utf-8"?>
<!-- Generator: Adobe Illustrator 18.0.0, SVG Export Plug-In . SVG Version: 6.00 Build 0)  -->
<!DOCTYPE svg PUBLIC "-//W3C//DTD SVG 1.1//EN" "http://www.w3.org/Graphics/SVG/1.1/DTD/svg11.dtd">
<svg version="1.1" id="Layer_1" xmlns="http://www.w3.org/2000/svg" xmlns:xlink="http://www.w3.org/1999/xlink" x="0px" y="0px"
	 viewBox="0 0 106.488 140.241" enable-background="new 0 0 106.488 140.241" xml:space="preserve">
<g>
	<path fill="#414042" d="M104.244,68.815c0,0-2.182,0.287-6.918-1.238c-5.617-1.811-14.674-2.125-23.627-1.631
		c-8.771,0.482-10.034,1.455-11.604,2.078c-1.02,0.402-4.912,2.201-7.648,2.201c-1.402,0,0,0-1.613,0
		c-2.736,0-5.659-1.727-6.678-2.131c-1.595-0.635-4.549-1.588-12.67-2.148c-8.715-0.604-18.01-0.18-23.627,1.631
		c-4.736,1.525-6.917,1.238-6.917,1.238c-0.969,2.75,0,5.082,0,5.082c2.497,1.205,3.462,4.665,3.462,4.665
		C7.601,97.07,21.184,96.895,28.207,96.887c10.212-0.01,17.119-4.279,19.658-14.508c0.873-3.518,1.229-5.082,2.461-5.805
		c1.234-0.724,5.09-0.857,6.508-0.053c1.243,0.707,1.602,2.29,2.486,5.857c2.539,10.229,9.445,14.498,19.658,14.508
		c7.021,0.008,20.605,0.183,21.803-18.325c0,0,0.965-3.46,3.463-4.665C104.244,73.897,105.212,71.565,104.244,68.815z M9.115,71.848
		c0,0.188-0.154,0.342-0.344,0.342h-3.41c-0.189,0-0.343-0.153-0.343-0.342v-0.859c0-0.188,0.153-0.342,0.343-0.342h3.41
		c0.19,0,0.344,0.153,0.344,0.342V71.848z M23.997,94.361c-10.576-0.519-13.145-8.841-13.273-14.523
		c-0.128-5.683,0.503-7.788,5.555-9.155c5.052-1.369,29.049-2.895,29.128,4.74C45.484,82.794,44,95.342,23.997,94.361z
		 M96.46,79.837c-0.127,5.683-2.697,14.005-13.273,14.523c-19.869,0.975-21.033-11.412-21.416-18.79
		c-0.395-7.626,24.082-6.258,29.135-4.889C95.956,72.049,96.589,74.155,96.46,79.837z M102.165,71.848
		c0,0.188-0.152,0.342-0.342,0.342h-3.41c-0.189,0-0.344-0.153-0.344-0.342v-0.859c0-0.188,0.154-0.342,0.344-0.342h3.41
		c0.189,0,0.342,0.153,0.342,0.342V71.848z"/>
</g>
<g>
	<path fill="none" d="M49.496,47.799c2.143-0.312,4.322,0.172,6.134,1.364c2.609,1.716,4.136,4.72,3.981,7.843
		c-0.044,0.911,0.658,1.685,1.567,1.73c0.028,0.001,0.056,0.001,0.083,0.001c0.874,0,1.604-0.687,1.647-1.569
		c0.21-4.285-1.884-8.409-5.466-10.764c-2.488-1.635-5.479-2.299-8.422-1.873c-0.901,0.132-1.527,0.969-1.396,1.871
		C47.756,47.305,48.598,47.929,49.496,47.799z"/>
	<path fill="none" d="M29.571,49.57c3.081,0.514,5.691,2.646,6.813,5.563c0.328,0.852,1.283,1.274,2.133,0.948
		c0.851-0.327,1.276-1.282,0.948-2.133c-1.539-4.005-5.122-6.931-9.351-7.635c-3.202-0.533-6.422,0.211-9.065,2.098
		c-2.643,1.888-4.391,4.69-4.922,7.893c-0.149,0.899,0.458,1.75,1.357,1.899c0.091,0.015,0.182,0.021,0.272,0.021
		c0.792,0,1.492-0.572,1.626-1.379c0.387-2.333,1.661-4.373,3.585-5.749C24.892,49.723,27.238,49.18,29.571,49.57z"/>
	<path fill="none" d="M68.808,56.19c0.457,0,0.91-0.188,1.236-0.555c4.514-5.09,12.326-5.559,17.414-1.045
		c0.684,0.604,1.727,0.541,2.33-0.141c0.605-0.682,0.543-1.725-0.139-2.33c-6.451-5.719-16.353-5.126-22.074,1.325
		c-0.605,0.682-0.543,1.724,0.139,2.329C68.029,56.052,68.419,56.19,68.808,56.19z"/>
	<path fill="#DC88B6" d="M31.295,62.352c14.868,0,16.551,4.278,22.297,4.278c5.481,0,10.325-4.278,20.534-4.278
		c8.205,0,19.5,1.543,21.336,1.204c6.176-0.53,11.025-5.703,11.025-12.017c0-1.895-0.441-3.684-1.223-5.277
		c-0.184-0.227-0.379-0.446-0.598-0.646c-1.188-1.094-2.725-1.657-4.346-1.596c-2.131,0.088-4.082,1.312-5.09,3.195
		c-0.43,0.805-1.428,1.107-2.232,0.677c-0.803-0.431-1.107-1.43-0.678-2.233c1.557-2.91,4.57-4.801,7.865-4.937
		c0.988-0.038,1.955,0.08,2.877,0.333c0.871-1.852,1.367-3.918,1.367-6.102c0-5.698-3.318-10.622-8.127-12.945
		c-3.014-0.926-6.43-0.203-8.809,2.177c-3.428,3.427-3.428,9.002-0.002,12.429c0.645,0.646,0.645,1.689,0,2.335
		c-0.057,0.057-0.121,0.104-0.186,0.151c-0.127,0.192-0.293,0.362-0.502,0.491c-0.271,0.167-0.57,0.246-0.867,0.246
		c-0.553,0-1.094-0.277-1.404-0.781c-2.549-4.121-7.975-5.402-12.098-2.854c-0.973,0.602-1.807,1.37-2.475,2.285
		c-0.537,0.734-1.572,0.894-2.306,0.357c-0.735-0.539-0.896-1.571-0.358-2.307c0.921-1.259,2.064-2.316,3.402-3.144
		c3.479-2.149,7.627-2.311,11.127-0.812c-0.688-3.776,0.42-7.818,3.334-10.733c1.354-1.352,2.951-2.303,4.652-2.88
		c-0.572-2.559-2.113-4.749-4.227-6.155c-0.711-0.329-1.486-0.523-2.287-0.556c-1.607-0.067-3.158,0.5-4.346,1.595
		c-1.189,1.095-1.879,2.586-1.945,4.199c-0.035,0.888-0.766,1.583-1.646,1.583c-0.023,0-0.047-0.001-0.068-0.001
		c-0.91-0.038-1.619-0.806-1.582-1.716c0.102-2.495,1.168-4.801,3.006-6.493c0.65-0.6,1.375-1.091,2.145-1.478
		C76.468,4.112,70.73,0,64.031,0c-3.4,0-6.543,1.071-9.137,2.876v11.37c0,6.801,5.534,12.336,12.336,12.336
		c0.912,0,1.65,0.738,1.65,1.65c0,0.911-0.738,1.65-1.65,1.65c-3.8,0-7.287-1.364-10-3.627c-0.793,3.01-2.466,5.712-4.869,7.795
		c-2.868,2.488-6.46,3.824-10.22,3.824c-0.377,0-0.755-0.014-1.134-0.041c-0.909-0.064-1.594-0.854-1.529-1.764
		c0.064-0.908,0.853-1.589,1.763-1.528c3.289,0.235,6.467-0.825,8.957-2.984c2.471-2.142,3.963-5.113,4.214-8.372
		c-1.773-2.535-2.819-5.617-2.819-8.94V2.876C49,1.071,45.857,0,42.458,0c-6.649,0-12.346,4.052-14.773,9.82
		c0.678,0.917,1.624,1.596,2.736,1.933c1.365,0.416,2.81,0.273,4.069-0.4c0.031-0.017,0.065-0.025,0.097-0.039
		c0.121-0.078,0.234-0.162,0.358-0.235c2.153-1.265,4.669-1.615,7.087-0.986c0.882,0.23,1.411,1.131,1.181,2.013
		c-0.23,0.882-1.129,1.411-2.013,1.182c-1.562-0.407-3.19-0.181-4.583,0.637c-1.393,0.818-2.384,2.129-2.792,3.694
		c-0.537,2.064,0.066,4.286,1.574,5.798c0.644,0.645,0.643,1.69-0.003,2.334c-0.322,0.32-0.744,0.482-1.166,0.482
		c-0.423,0-0.846-0.161-1.168-0.485c-2.33-2.336-3.262-5.768-2.432-8.959c0.14-0.536,0.33-1.048,0.555-1.541
		c-0.578-0.054-1.155-0.162-1.724-0.334c-1.989-0.604-3.654-1.877-4.76-3.61c-3.994,0.697-7.161,3.758-8.03,7.69
		c1.677,0.579,3.255,1.523,4.592,2.859c4.713,4.714,4.713,12.384,0,17.097c-0.321,0.322-0.744,0.483-1.167,0.483
		c-0.422,0-0.844-0.161-1.167-0.483c-0.645-0.646-0.645-1.689,0-2.334c3.426-3.427,3.426-9.002,0-12.43
		c-2.333-2.332-5.659-3.072-8.626-2.23c-4.873,2.301-8.244,7.255-8.244,12.999c0,2.101,0.455,4.097,1.266,5.896
		c0.387-0.066,0.779-0.109,1.176-0.126c2.492-0.099,4.88,0.773,6.717,2.466c1.837,1.691,2.904,3.998,3.006,6.492
		c0.037,0.91-0.671,1.68-1.583,1.717c-0.022,0-0.045,0.002-0.068,0.002c-0.88,0-1.611-0.696-1.648-1.584
		c-0.065-1.614-0.755-3.104-1.943-4.199c-1.188-1.096-2.729-1.664-4.346-1.596c-0.879,0.037-1.723,0.275-2.487,0.664
		C0.797,46.63,0,48.991,0,51.54c0,6.312,4.848,11.484,11.023,12.016C12.417,64.348,23.299,62.352,31.295,62.352z M67.576,53.445
		c5.721-6.451,15.623-7.044,22.074-1.325c0.682,0.605,0.744,1.648,0.139,2.33c-0.604,0.682-1.646,0.745-2.33,0.141
		c-5.088-4.514-12.9-4.045-17.414,1.045c-0.326,0.367-0.779,0.555-1.236,0.555c-0.389,0-0.779-0.138-1.094-0.416
		C67.033,55.168,66.97,54.126,67.576,53.445z M49.021,44.532c2.942-0.426,5.934,0.238,8.422,1.873
		c3.582,2.354,5.676,6.479,5.466,10.764c-0.044,0.883-0.773,1.569-1.647,1.569c-0.027,0-0.055,0-0.083-0.001
		c-0.909-0.045-1.611-0.819-1.567-1.73c0.154-3.123-1.372-6.127-3.981-7.843c-1.812-1.192-3.991-1.676-6.134-1.364
		c-0.898,0.13-1.739-0.494-1.871-1.396C47.494,45.5,48.12,44.664,49.021,44.532z M19.383,56.846
		c-0.134,0.807-0.834,1.379-1.626,1.379c-0.09,0-0.181-0.007-0.272-0.021c-0.899-0.149-1.506-1-1.357-1.899
		c0.531-3.203,2.28-6.006,4.922-7.893c2.642-1.887,5.863-2.631,9.065-2.098c4.229,0.704,7.812,3.63,9.351,7.635
		c0.328,0.851-0.098,1.806-0.948,2.133c-0.85,0.326-1.805-0.097-2.133-0.948c-1.122-2.918-3.732-5.05-6.813-5.563
		c-2.333-0.39-4.679,0.153-6.603,1.527C21.044,52.473,19.771,54.513,19.383,56.846z"/>
</g>
<path fill="#414042" d="M6.918,118.329c0.232-0.043,0.506-0.09,0.823-0.146c0.315-0.057,0.657-0.119,1.024-0.191
	c0.367-0.072,0.73-0.146,1.09-0.225l0.296-0.541c0.595-1.121,1.235-2.115,1.917-2.979c0.684-0.863,1.381-1.611,2.094-2.244
	c0.714-0.631,1.425-1.15,2.133-1.557c0.709-0.404,1.387-0.711,2.038-0.916c0.651-0.205,1.255-0.312,1.815-0.32
	c0.559-0.01,1.046,0.068,1.464,0.232c0.303,0.121,0.561,0.283,0.773,0.49c0.212,0.205,0.368,0.449,0.466,0.732
	c0.098,0.285,0.135,0.606,0.112,0.965c-0.023,0.359-0.117,0.752-0.284,1.176c-0.205,0.52-0.504,1.031-0.898,1.535
	c-0.395,0.502-0.861,0.984-1.401,1.443c-0.542,0.457-1.143,0.889-1.807,1.297c-0.663,0.406-1.364,0.773-2.106,1.102
	c-0.74,0.328-3.514,1.143-4.727,1.371c-0.279,0.771-0.146,1.439,0.29,1.844c1.195,1.109,4.293,0.998,4.293,0.998
	c0.053,0.008,0.104,0.017,0.155,0.031c0.051,0.014,0.097,0.029,0.139,0.045c0.152,0.061,0.271,0.139,0.36,0.234
	c0.088,0.096,0.15,0.203,0.189,0.32c0.038,0.119,0.05,0.242,0.041,0.375c-0.01,0.131-0.04,0.26-0.088,0.381
	c-0.044,0.113-0.104,0.215-0.184,0.307c-0.078,0.092-0.171,0.17-0.28,0.234c-0.108,0.062-0.231,0.105-0.366,0.129
	c-0.135,0.025-4.239,0.59-6.697-1.654c-1.117-1.021-0.907-2.484-0.767-2.842c-0.659,0.145-1.211,0.252-1.655,0.316
	c-0.444,0.062-1.151,0.275-1.236-0.537C5.817,118.624,6.685,118.368,6.918,118.329z M12.734,117.504
	c0.424-0.174,0.873-0.369,1.347-0.586c0.474-0.217,0.951-0.453,1.431-0.705c0.479-0.254,0.952-0.52,1.414-0.797
	c0.464-0.281,0.896-0.57,1.296-0.871c0.402-0.299,0.76-0.604,1.073-0.912c0.315-0.311,0.562-0.621,0.742-0.938
	c0.062-0.105,0.117-0.209,0.163-0.309c0.047-0.102,0.088-0.197,0.123-0.287c0.125-0.318,0.17-0.568,0.134-0.75
	c-0.038-0.182-0.136-0.305-0.3-0.369c-0.194-0.078-0.458-0.072-0.792,0.012c-0.333,0.086-0.711,0.244-1.131,0.48
	c-0.421,0.234-0.873,0.539-1.357,0.916c-0.484,0.379-0.969,0.818-1.455,1.324c-0.486,0.506-0.961,1.078-1.425,1.715
	C13.534,116.065,13.113,116.758,12.734,117.504z"/>
<path fill="#414042" d="M17.68,127.602c-0.567-0.23-1.023-0.525-1.372-0.887c-0.348-0.361-0.598-0.76-0.752-1.195
	c-0.153-0.434-0.216-0.891-0.187-1.369c0.029-0.477,0.137-0.947,0.325-1.408c0.127-0.312,0.293-0.627,0.5-0.949
	c0.208-0.32,0.447-0.621,0.718-0.898c0.271-0.279,0.571-0.529,0.899-0.75c0.327-0.221,0.675-0.389,1.043-0.51
	c0.368-0.119,0.75-0.178,1.145-0.176c0.396,0,0.802,0.086,1.218,0.256c0.338,0.137,0.63,0.312,0.879,0.531
	c0.249,0.217,0.443,0.461,0.583,0.729c0.14,0.266,0.219,0.555,0.236,0.858c0.016,0.307-0.04,0.617-0.168,0.934
	c-0.14,0.346-0.372,0.652-0.696,0.924c-0.324,0.27-0.711,0.492-1.161,0.666c-0.449,0.174-0.947,0.291-1.493,0.348
	c-0.546,0.057-1.108,0.045-1.686-0.033c0.029,0.186,0.067,0.348,0.114,0.482c0.047,0.137,0.103,0.25,0.171,0.342
	c0.068,0.094,0.148,0.172,0.238,0.234c0.09,0.062,0.193,0.115,0.308,0.162c0.362,0.146,0.769,0.234,1.225,0.264
	c0.455,0.029,0.913,0.021,1.374-0.025c0.46-0.047,0.908-0.119,1.341-0.219c0.435-0.1,0.811-0.207,1.131-0.324l0.712,1.594
	c-0.736,0.289-1.481,0.51-2.236,0.656c-0.327,0.062-0.672,0.113-1.036,0.154c-0.363,0.039-0.735,0.055-1.113,0.047
	c-0.379-0.008-0.761-0.045-1.144-0.113C18.413,127.856,18.042,127.749,17.68,127.602z M18.069,123.192
	c0.218,0.088,0.474,0.131,0.773,0.133c0.298,0,0.59-0.035,0.874-0.107c0.286-0.07,0.542-0.172,0.77-0.299
	c0.228-0.129,0.376-0.281,0.45-0.459c0.102-0.252,0.136-0.477,0.101-0.678c-0.034-0.203-0.122-0.332-0.267-0.393
	c-0.259-0.104-0.498-0.148-0.719-0.135c-0.22,0.014-0.42,0.068-0.601,0.16c-0.181,0.09-0.347,0.211-0.495,0.361
	c-0.149,0.15-0.28,0.311-0.393,0.477c-0.114,0.17-0.211,0.336-0.295,0.504C18.185,122.924,18.12,123.069,18.069,123.192z"/>
<path fill="#414042" d="M33.172,130.292c-0.2,0.141-0.456,0.299-0.77,0.473c-0.315,0.174-0.656,0.328-1.022,0.461
	c-0.368,0.133-0.745,0.225-1.135,0.277c-0.389,0.051-0.754,0.025-1.098-0.08c-0.41-0.125-0.715-0.352-0.914-0.678
	c-0.2-0.328-0.328-0.754-0.386-1.281c-0.199,0.117-0.433,0.225-0.7,0.324c-0.269,0.102-0.552,0.18-0.852,0.236
	c-0.298,0.057-0.601,0.084-0.907,0.086c-0.306,0.002-0.6-0.041-0.879-0.127c-0.298-0.09-0.572-0.234-0.822-0.434
	c-0.248-0.197-0.45-0.434-0.604-0.709c-0.154-0.277-0.251-0.586-0.289-0.926c-0.04-0.344,0-0.703,0.115-1.082
	c0.13-0.432,0.331-0.854,0.599-1.268c0.269-0.414,0.584-0.803,0.946-1.168c0.362-0.363,0.759-0.689,1.19-0.979
	c0.431-0.289,0.876-0.523,1.338-0.695c0.46-0.174,0.922-0.283,1.389-0.326c0.465-0.045,0.912,0,1.341,0.131
	c0.144,0.043,0.247,0.102,0.312,0.18c0.066,0.076,0.114,0.154,0.148,0.236c0.032,0.084,0.064,0.162,0.095,0.24
	c0.03,0.08,0.079,0.145,0.145,0.195c0.065,0.053,0.136,0.094,0.212,0.125c0.074,0.033,0.152,0.061,0.233,0.086
	c0.068,0.021,0.14,0.041,0.211,0.061c0.072,0.018,0.142,0.037,0.212,0.059c0.092,0.029,0.177,0.064,0.253,0.105
	c0.075,0.043,0.135,0.1,0.179,0.178c0.045,0.076,0.069,0.172,0.071,0.285c0.003,0.113-0.023,0.26-0.077,0.438
	c-0.084,0.277-0.208,0.572-0.372,0.891c-0.165,0.316-0.338,0.641-0.52,0.971c-0.183,0.33-0.358,0.664-0.528,0.998
	c-0.169,0.334-0.302,0.66-0.398,0.977c-0.082,0.27-0.12,0.488-0.113,0.656c0.007,0.17,0.096,0.279,0.271,0.332
	c0.131,0.039,0.277,0.053,0.438,0.035c0.161-0.018,0.33-0.053,0.506-0.107c0.176-0.051,0.356-0.117,0.539-0.197
	c0.183-0.078,0.36-0.164,0.531-0.256c0.399-0.219,0.815-0.475,1.245-0.77L33.172,130.292z M25.41,127.188
	c-0.045,0.145-0.076,0.287-0.095,0.428c-0.019,0.141-0.016,0.273,0.007,0.398c0.023,0.123,0.072,0.232,0.145,0.326
	c0.073,0.094,0.182,0.164,0.325,0.207c0.229,0.07,0.466,0.041,0.708-0.086c0.243-0.127,0.472-0.299,0.687-0.516
	c0.215-0.217,0.408-0.449,0.575-0.701c0.168-0.25,0.292-0.463,0.373-0.641l1.339-2.359c-0.255-0.078-0.521-0.096-0.8-0.051
	c-0.278,0.045-0.555,0.133-0.831,0.27c-0.276,0.137-0.544,0.307-0.803,0.51c-0.258,0.203-0.496,0.428-0.713,0.672
	c-0.217,0.246-0.404,0.5-0.563,0.767C25.603,126.676,25.487,126.936,25.41,127.188z"/>
<path fill="#414042" d="M45.46,130.796c0,0.676-4.155,3.562-6.591,1.562c-0.185-0.152-0.366-0.346-0.536-0.592
	c-0.168-0.244-0.298-0.553-0.387-0.922c-0.277,0.166-0.565,0.322-0.866,0.465c-0.301,0.143-0.607,0.26-0.917,0.348
	c-0.312,0.09-0.621,0.15-0.928,0.18c-0.307,0.033-0.607,0.021-0.9-0.033c-0.416-0.078-0.761-0.227-1.034-0.449
	c-0.273-0.223-0.484-0.488-0.634-0.801s-0.243-0.652-0.277-1.018c-0.034-0.367-0.017-0.736,0.053-1.107
	c0.069-0.379,0.193-0.752,0.371-1.119c0.178-0.367,0.4-0.713,0.669-1.039c0.268-0.324,0.578-0.621,0.925-0.891
	c0.348-0.268,0.726-0.494,1.138-0.678c0.412-0.182,0.846-0.316,1.306-0.402c0.458-0.086,0.935-0.105,1.429-0.057
	c0.16-0.752,0.372-1.484,0.637-2.199c0.265-0.715,0.564-1.385,0.9-2.012c0.334-0.629,0.696-1.199,1.087-1.715
	c0.39-0.514,0.793-0.945,1.208-1.295c0.416-0.35,0.837-0.606,1.265-0.77c0.427-0.162,0.844-0.203,1.254-0.127
	c0.3,0.055,0.542,0.176,0.727,0.359c0.183,0.184,0.319,0.406,0.405,0.67c0.087,0.264,0.129,0.559,0.128,0.887
	c-0.001,0.324-0.034,0.658-0.097,0.994c-0.038,0.205-0.086,0.416-0.146,0.631c-0.238,0.818-0.538,1.576-0.899,2.275
	c-0.361,0.699-0.758,1.373-1.189,2.02c-0.432,0.646-0.887,1.283-1.367,1.908c-0.48,0.627-0.956,1.279-1.426,1.961
	c-0.048,0.078-0.099,0.172-0.152,0.283c-0.054,0.113-0.107,0.234-0.162,0.369c-0.055,0.133-0.105,0.271-0.15,0.41
	c-0.047,0.143-0.083,0.281-0.108,0.416c-0.032,0.172-0.052,0.336-0.057,0.494c-0.007,0.156,0.004,0.301,0.034,0.432
	c0.028,0.131,0.078,0.24,0.152,0.324c0.073,0.09,0.173,0.146,0.301,0.168c2.44,0.4,4.488-1.801,4.928-2.031L45.46,130.796z
	 M38.072,125.571c-0.458,0.109-0.879,0.291-1.266,0.539c-0.387,0.248-0.724,0.533-1.011,0.852c-0.288,0.32-0.523,0.652-0.706,0.994
	c-0.183,0.348-0.302,0.666-0.357,0.961c-0.022,0.117-0.029,0.238-0.023,0.363c0.007,0.123,0.04,0.238,0.1,0.348
	c0.059,0.109,0.153,0.205,0.283,0.293c0.129,0.082,0.306,0.146,0.53,0.189c0.115,0.02,0.234,0.016,0.355-0.018
	c0.122-0.033,0.243-0.082,0.36-0.148c0.119-0.066,0.234-0.146,0.347-0.238c0.113-0.092,0.219-0.189,0.317-0.293
	c0.229-0.238,0.449-0.516,0.66-0.83c-0.004-0.088,0.004-0.221,0.025-0.404c0.021-0.182,0.049-0.385,0.083-0.607
	c0.035-0.223,0.071-0.451,0.109-0.689c0.037-0.236,0.072-0.453,0.105-0.65c0.033-0.193,0.058-0.354,0.075-0.479
	C38.076,125.626,38.08,125.567,38.072,125.571z M43.773,119.989c0.116-0.408,0.195-0.73,0.24-0.975
	c0.06-0.318,0.07-0.545,0.032-0.68c-0.038-0.135-0.114-0.213-0.229-0.236c-0.205-0.037-0.412,0.049-0.623,0.256
	c-0.212,0.209-0.415,0.486-0.611,0.836c-0.197,0.348-0.385,0.738-0.564,1.168c-0.18,0.43-0.34,0.85-0.483,1.258
	c-0.141,0.406-0.262,0.775-0.363,1.104c-0.101,0.33-0.17,0.564-0.21,0.703c-0.079,0.285-0.152,0.561-0.218,0.826
	c-0.066,0.266-0.122,0.508-0.17,0.729c-0.048,0.221-0.087,0.414-0.118,0.578c-0.03,0.166-0.054,0.293-0.07,0.381l-0.018,0.09
	c0.508-0.699,0.986-1.402,1.436-2.107c0.187-0.301,0.38-0.617,0.579-0.951c0.197-0.332,0.382-0.668,0.559-1.008
	c0.175-0.34,0.336-0.678,0.48-1.012C43.565,120.616,43.683,120.296,43.773,119.989z"/>
<path fill="#414042" d="M58.685,130.754c-0.023,0.697-0.092,1.42-0.205,2.166c-0.114,0.746-0.28,1.479-0.499,2.191
	c-0.22,0.713-0.501,1.387-0.845,2.018c-0.344,0.631-0.757,1.182-1.242,1.65c-0.483,0.473-1.045,0.84-1.682,1.104
	c-0.638,0.264-1.357,0.381-2.164,0.354c-0.149-0.004-0.327-0.02-0.535-0.045c-0.208-0.023-0.424-0.062-0.65-0.111
	c-0.227-0.051-0.449-0.113-0.672-0.191c-0.222-0.076-0.419-0.168-0.591-0.275c-0.172-0.109-0.31-0.23-0.416-0.371
	c-0.106-0.139-0.156-0.295-0.15-0.469c0.004-0.09,0.028-0.209,0.076-0.354c0.047-0.145,0.117-0.287,0.208-0.422
	c0.093-0.135,0.207-0.252,0.345-0.348c0.137-0.098,0.3-0.145,0.487-0.139c0.215,0.01,0.421,0.049,0.621,0.121
	c0.198,0.074,0.404,0.154,0.616,0.242c0.212,0.09,0.435,0.168,0.665,0.242c0.232,0.074,0.483,0.117,0.756,0.127
	c0.307,0.01,0.611-0.125,0.918-0.402c0.306-0.277,0.598-0.643,0.877-1.096c0.277-0.453,0.536-0.963,0.774-1.529
	s0.44-1.133,0.609-1.705c-0.322,0.252-0.659,0.492-1.016,0.719c-0.355,0.225-0.759,0.418-1.21,0.58
	c-0.451,0.162-0.964,0.285-1.54,0.373c-0.574,0.084-1.24,0.113-1.995,0.088c-0.877-0.029-1.661-0.221-2.355-0.572
	c-0.695-0.35-1.282-0.812-1.764-1.383c-0.482-0.572-0.845-1.232-1.089-1.977c-0.245-0.742-0.352-1.521-0.326-2.332
	c0.036-1.061,0.209-2.074,0.518-3.033c0.31-0.961,0.722-1.848,1.239-2.662c0.515-0.814,1.116-1.549,1.801-2.201
	c0.686-0.652,1.421-1.203,2.203-1.654c0.783-0.453,1.6-0.795,2.451-1.027c0.85-0.232,1.697-0.334,2.543-0.305
	c0.521,0.016,0.999,0.105,1.44,0.264c0.441,0.16,0.82,0.398,1.138,0.715c0.317,0.318,0.562,0.715,0.73,1.188
	c0.169,0.477,0.243,1.037,0.221,1.686c-0.009,0.252-0.049,0.502-0.122,0.748c-0.074,0.246-0.189,0.494-0.348,0.74
	c-0.219,0.275-0.426,0.469-0.625,0.58c-0.198,0.109-0.386,0.162-0.563,0.156c-0.136-0.006-0.261-0.043-0.376-0.113
	c-0.114-0.068-0.212-0.16-0.293-0.271c-0.08-0.109-0.143-0.234-0.188-0.371c-0.044-0.137-0.063-0.277-0.059-0.42
	c0.003-0.115,0.026-0.225,0.069-0.332c0.043-0.107,0.087-0.213,0.133-0.318c0.046-0.109,0.091-0.219,0.134-0.336
	c0.043-0.113,0.066-0.234,0.07-0.361c0.021-0.602-0.106-1.055-0.382-1.365c-0.277-0.311-0.629-0.473-1.058-0.486
	c-0.526-0.02-1.084,0.064-1.673,0.244c-0.588,0.182-1.169,0.453-1.74,0.816c-0.572,0.361-1.119,0.812-1.643,1.35
	c-0.521,0.537-0.986,1.158-1.395,1.859c-0.407,0.701-0.737,1.479-0.991,2.332c-0.254,0.855-0.398,1.775-0.432,2.766
	c-0.021,0.619,0.044,1.16,0.194,1.625c0.149,0.463,0.373,0.855,0.667,1.174c0.295,0.314,0.662,0.555,1.098,0.719
	c0.438,0.166,0.933,0.258,1.485,0.277c1.026,0.035,1.976-0.061,2.849-0.287c0.874-0.225,1.697-0.555,2.474-0.992
	c0.059-0.178,0.109-0.35,0.154-0.514c0.044-0.162,0.069-0.314,0.074-0.451c0.006-0.182-0.016-0.324-0.063-0.432
	c-0.049-0.105-0.115-0.188-0.202-0.242c-0.086-0.053-0.188-0.088-0.309-0.104c-0.119-0.018-0.247-0.025-0.385-0.031
	c-0.246-0.008-0.461-0.045-0.645-0.111c-0.184-0.066-0.338-0.15-0.465-0.252c-0.126-0.098-0.221-0.215-0.281-0.342
	c-0.06-0.129-0.089-0.256-0.085-0.383c0.005-0.125,0.04-0.246,0.105-0.361c0.065-0.115,0.165-0.215,0.298-0.301
	c0.134-0.084,0.3-0.152,0.5-0.203c0.2-0.051,0.433-0.07,0.699-0.062c0.632,0.021,1.146,0.1,1.55,0.234
	c0.401,0.135,0.714,0.32,0.936,0.562c0.223,0.242,0.372,0.533,0.448,0.877C58.669,129.936,58.7,130.323,58.685,130.754z"/>
<path fill="#414042" d="M63.622,133.489c-0.607,0.064-1.15,0.02-1.627-0.135c-0.478-0.154-0.887-0.385-1.229-0.697
	c-0.339-0.311-0.61-0.684-0.811-1.119c-0.199-0.434-0.327-0.898-0.38-1.395c-0.035-0.334-0.037-0.691-0.006-1.072
	c0.031-0.381,0.1-0.758,0.208-1.133c0.107-0.373,0.252-0.734,0.437-1.084c0.184-0.35,0.412-0.662,0.68-0.941
	c0.268-0.279,0.576-0.512,0.925-0.697c0.351-0.186,0.748-0.303,1.194-0.35c0.361-0.039,0.703-0.021,1.026,0.053
	c0.321,0.074,0.607,0.197,0.857,0.365c0.251,0.17,0.456,0.387,0.614,0.645c0.158,0.262,0.256,0.562,0.292,0.902
	c0.04,0.371-0.019,0.754-0.177,1.143c-0.156,0.393-0.393,0.77-0.706,1.137c-0.315,0.367-0.698,0.703-1.153,1.012
	c-0.454,0.307-0.955,0.562-1.501,0.768c0.113,0.15,0.224,0.273,0.329,0.371c0.104,0.098,0.209,0.172,0.312,0.221
	c0.104,0.049,0.21,0.08,0.319,0.094c0.109,0.012,0.225,0.012,0.349-0.002c0.387-0.041,0.789-0.156,1.203-0.348
	c0.415-0.189,0.813-0.412,1.198-0.67c0.384-0.258,0.744-0.533,1.079-0.826c0.335-0.293,0.617-0.566,0.845-0.82l1.38,1.066
	c-0.511,0.604-1.065,1.15-1.66,1.635c-0.259,0.211-0.538,0.418-0.84,0.625c-0.303,0.207-0.622,0.398-0.96,0.57
	c-0.338,0.172-0.691,0.318-1.061,0.439C64.389,133.366,64.01,133.448,63.622,133.489z M61.882,129.417
	c0.233-0.025,0.48-0.107,0.743-0.246c0.263-0.141,0.503-0.309,0.721-0.508c0.216-0.199,0.396-0.408,0.535-0.629
	c0.141-0.219,0.2-0.426,0.18-0.617c-0.028-0.267-0.105-0.484-0.231-0.646c-0.124-0.16-0.264-0.234-0.419-0.215
	c-0.278,0.027-0.512,0.102-0.698,0.217c-0.187,0.117-0.339,0.258-0.455,0.426c-0.115,0.166-0.203,0.352-0.264,0.555
	c-0.061,0.203-0.101,0.404-0.122,0.605c-0.021,0.201-0.028,0.396-0.021,0.582C61.857,129.126,61.867,129.286,61.882,129.417z"/>
<path fill="#414042" d="M68.298,131.579c-0.096-0.385-0.18-0.834-0.255-1.352c-0.075-0.516-0.14-1.045-0.193-1.586
	c-0.057-0.539-0.096-1.065-0.121-1.57c-0.026-0.506-0.037-0.943-0.034-1.311c0.001-0.285,0.08-0.541,0.235-0.771
	c0.151-0.23,0.4-0.389,0.741-0.473c0.341-0.084,0.6-0.049,0.78,0.111c0.181,0.16,0.311,0.398,0.391,0.719
	c0.021,0.088,0.042,0.209,0.06,0.363c0.019,0.152,0.036,0.32,0.051,0.506c0.017,0.186,0.032,0.377,0.047,0.572
	c0.017,0.197,0.03,0.379,0.041,0.547c0.012,0.168,0.023,0.314,0.033,0.438c0.012,0.125,0.021,0.207,0.033,0.248l0.189-0.047
	c0.022-0.074,0.056-0.191,0.103-0.355c0.047-0.162,0.1-0.352,0.161-0.564c0.061-0.213,0.127-0.439,0.197-0.676
	c0.073-0.238,0.138-0.465,0.197-0.682c0.062-0.215,0.116-0.406,0.17-0.574c0.052-0.168,0.091-0.293,0.118-0.373
	c0.122-0.365,0.299-0.639,0.53-0.82c0.229-0.182,0.501-0.311,0.817-0.389c0.314-0.078,0.596-0.018,0.844,0.18
	c0.247,0.199,0.424,0.514,0.532,0.945c0.015,0.062,0.027,0.174,0.036,0.332c0.01,0.16,0.019,0.35,0.027,0.57
	c0.009,0.221,0.017,0.463,0.025,0.727c0.008,0.264,0.022,0.533,0.044,0.807c0.021,0.273,0.05,0.541,0.085,0.805
	c0.037,0.264,0.08,0.504,0.134,0.719c0.091,0.361,0.213,0.646,0.369,0.855c0.156,0.209,0.338,0.287,0.547,0.234
	c0.093-0.023,0.196-0.076,0.307-0.16c0.109-0.082,0.226-0.184,0.346-0.305c0.121-0.117,0.241-0.252,0.362-0.4
	c0.121-0.148,0.238-0.297,0.355-0.449c0.266-0.357,0.539-0.754,0.82-1.189l0.648,1.918l-0.39,0.449
	c-0.216,0.246-0.433,0.492-0.656,0.74c-0.224,0.246-0.463,0.479-0.717,0.693c-0.255,0.215-0.529,0.406-0.821,0.576
	c-0.294,0.17-0.613,0.295-0.96,0.383c-0.349,0.088-0.697-0.074-1.049-0.477c-0.352-0.406-0.64-1.053-0.861-1.945
	c-0.087-0.35-0.155-0.732-0.207-1.15c-0.05-0.416-0.095-0.869-0.136-1.354l-0.151,0.039l-1.348,5.162
	c-0.066,0.27-0.168,0.469-0.303,0.596c-0.138,0.125-0.309,0.215-0.517,0.268c-0.26,0.062-0.48,0.064-0.664,0.002
	c-0.184-0.062-0.338-0.17-0.467-0.32c-0.127-0.15-0.232-0.332-0.316-0.543C68.427,132.036,68.357,131.813,68.298,131.579z"/>
<path fill="#414042" d="M75.832,120.102c-0.049-0.129-0.074-0.287-0.074-0.473c-0.001-0.186,0.04-0.377,0.122-0.57
	c0.082-0.195,0.22-0.385,0.409-0.57c0.191-0.186,0.457-0.342,0.798-0.471c0.213-0.08,0.422-0.133,0.628-0.16
	c0.205-0.025,0.396-0.02,0.571,0.02c0.174,0.039,0.332,0.121,0.472,0.24c0.139,0.121,0.247,0.285,0.326,0.494
	c0.072,0.191,0.108,0.389,0.11,0.594c0.001,0.205-0.045,0.404-0.138,0.602c-0.094,0.195-0.234,0.379-0.424,0.549
	c-0.188,0.172-0.437,0.316-0.748,0.434c-0.535,0.201-0.974,0.234-1.318,0.1C76.224,120.753,75.979,120.489,75.832,120.102z
	 M83.185,127.221c-0.148,0.268-0.346,0.568-0.592,0.902c-0.246,0.336-0.523,0.662-0.834,0.98c-0.31,0.32-0.639,0.611-0.985,0.879
	c-0.349,0.268-0.698,0.467-1.052,0.6c-0.316,0.119-0.597,0.18-0.844,0.18c-0.247,0-0.465-0.047-0.654-0.143
	c-0.188-0.096-0.353-0.238-0.49-0.428c-0.138-0.188-0.253-0.408-0.35-0.662c-0.133-0.354-0.245-0.781-0.334-1.283
	c-0.09-0.504-0.166-1.029-0.228-1.58c-0.062-0.553-0.117-1.105-0.162-1.658c-0.048-0.553-0.095-1.062-0.144-1.525
	c-0.015-0.162,0.024-0.318,0.112-0.471c0.089-0.152,0.202-0.291,0.338-0.418c0.136-0.125,0.286-0.234,0.449-0.332
	c0.16-0.096,0.311-0.17,0.451-0.225c0.256-0.098,0.445-0.117,0.568-0.066c0.126,0.053,0.214,0.152,0.271,0.299
	c0.047,0.123,0.083,0.312,0.11,0.57c0.028,0.256,0.051,0.549,0.071,0.877c0.021,0.33,0.043,0.684,0.068,1.062
	c0.026,0.379,0.057,0.756,0.094,1.131c0.037,0.373,0.087,0.734,0.147,1.08c0.062,0.346,0.142,0.648,0.239,0.906
	c0.095,0.254,0.202,0.443,0.319,0.568c0.117,0.127,0.268,0.152,0.458,0.082c0.22-0.082,0.435-0.244,0.65-0.486
	c0.215-0.242,0.421-0.514,0.619-0.818c0.198-0.301,0.387-0.609,0.568-0.922c0.181-0.311,0.344-0.582,0.486-0.811L83.185,127.221z"/>
<path fill="#414042" d="M87.376,118.036c0.062,0.148,0.129,0.361,0.199,0.633c0.069,0.273,0.142,0.576,0.213,0.908
	c0.07,0.33,0.14,0.674,0.21,1.029c0.069,0.354,0.135,0.684,0.195,0.99c0.059,0.307,0.116,0.574,0.169,0.803
	c0.052,0.229,0.096,0.383,0.131,0.469c0.063,0.154,0.127,0.297,0.186,0.424c0.061,0.129,0.126,0.234,0.196,0.318
	c0.069,0.086,0.148,0.141,0.232,0.168c0.085,0.027,0.188,0.014,0.309-0.037c0.132-0.053,0.296-0.133,0.443-0.291
	c1.151-1.217,1.372-2.041,1.514-2.268c0.142-0.229,0.227,0.031,0.333-0.18c0.105-0.209,0.186-0.396,0.235-0.561
	c0.078,0.184,0.148,0.35,0.213,0.498c0.065,0.148,0.126,0.291,0.183,0.426c0.057,0.135,0.115,0.275,0.178,0.418
	c0.063,0.143,0.131,0.303,0.205,0.48c-0.082,0.178-0.191,0.375-0.328,0.594c-0.139,0.221-0.297,0.449-0.477,0.686
	c-0.18,0.238-0.377,0.475-0.591,0.715c-0.215,0.238-0.438,0.463-0.667,0.672c-0.23,0.209-0.465,0.396-0.705,0.564
	c-0.24,0.168-0.475,0.299-0.703,0.395c-0.228,0.094-0.44,0.133-0.638,0.117c-0.195-0.016-0.384-0.074-0.562-0.176
	c-0.18-0.102-0.353-0.24-0.521-0.414c-0.167-0.174-0.334-0.375-0.498-0.607c-0.109,0.352-0.237,0.686-0.388,1.004
	c-0.149,0.32-0.314,0.611-0.497,0.875c-0.183,0.266-0.383,0.496-0.601,0.693c-0.218,0.197-0.447,0.346-0.687,0.445
	c-0.198,0.082-0.396,0.129-0.597,0.139c-0.197,0.014-0.396-0.025-0.591-0.113c-0.195-0.088-0.38-0.234-0.557-0.438
	c-0.175-0.205-0.337-0.48-0.48-0.83c-0.178-0.428-0.349-0.994-0.51-1.699c-0.163-0.707-0.34-1.518-0.529-2.434
	c-0.023-0.088-0.047-0.211-0.072-0.365c-0.025-0.154-0.044-0.328-0.056-0.52c-0.011-0.189-0.011-0.387,0.001-0.594
	c0.013-0.207,0.048-0.404,0.104-0.59c0.058-0.186,0.144-0.354,0.26-0.508c0.117-0.152,0.27-0.27,0.459-0.355
	c0.323-0.121,0.567-0.178,0.731-0.172c0.164,0.008,0.266,0.057,0.307,0.152c0.066,0.314,0.145,0.666,0.23,1.055
	c0.087,0.387,0.174,0.777,0.259,1.17c0.086,0.393,0.171,0.775,0.255,1.146c0.082,0.371,0.157,0.705,0.223,0.996
	c0.063,0.291,0.116,0.525,0.158,0.705c0.043,0.176,0.065,0.268,0.067,0.273c0.042,0.1,0.091,0.191,0.151,0.273
	c0.058,0.084,0.123,0.152,0.196,0.205c0.07,0.057,0.149,0.092,0.234,0.109c0.084,0.016,0.171,0.006,0.262-0.031
	c0.132-0.055,0.254-0.143,0.365-0.264c0.112-0.119,0.205-0.266,0.279-0.438c0.072-0.17,0.122-0.361,0.145-0.576
	c0.023-0.215,0.014-0.443-0.03-0.686l-0.86-4.598c-0.026-0.145,0.05-0.309,0.225-0.486c0.175-0.182,0.398-0.326,0.668-0.438
	c0.307-0.129,0.57-0.18,0.793-0.154C87.169,117.79,87.311,117.879,87.376,118.036z"/>
<path fill="#414042" d="M91.373,121.182c0.184-0.428,0.329-0.777,0.438-1.057c0.109-0.277,0.197-0.525,0.264-0.742
	c0.067-0.217,0.121-0.43,0.162-0.635c0.039-0.207,0.087-0.449,0.143-0.732c0.054-0.281,0.119-0.625,0.193-1.033
	c0.076-0.404,0.184-0.92,0.32-1.541c0.023-0.133,0.057-0.271,0.1-0.41c0.043-0.141,0.102-0.275,0.175-0.406
	c0.072-0.131,0.164-0.256,0.274-0.375c0.11-0.117,0.249-0.221,0.414-0.311c0.275-0.149,0.501-0.234,0.68-0.26
	c0.18-0.025,0.324-0.016,0.436,0.025c0.112,0.043,0.197,0.104,0.254,0.186c0.06,0.08,0.105,0.152,0.141,0.217
	c0.068,0.127,0.09,0.295,0.064,0.508c-0.026,0.211-0.067,0.424-0.122,0.639c-0.054,0.213-0.107,0.412-0.16,0.594
	c-0.054,0.182-0.072,0.307-0.059,0.373c0.089,0.164,0.183,0.309,0.281,0.43c0.098,0.119,0.204,0.232,0.316,0.338
	c0.113,0.107,0.232,0.221,0.356,0.342c0.123,0.119,0.26,0.264,0.404,0.43c0.146,0.168,0.299,0.369,0.459,0.604
	c0.16,0.234,0.332,0.521,0.515,0.857c0.138-0.236,0.298-0.473,0.477-0.703c0.182-0.232,0.372-0.473,0.569-0.723
	c0.197-0.25,0.827-1.34,1.657-0.803c0.831,0.539-0.038,1.75-0.384,2.223c-0.347,0.475-0.729,0.936-1.151,1.381
	c-0.419,0.447-0.865,0.859-1.336,1.24c-0.471,0.381-0.94,0.697-1.408,0.951c-0.339,0.182-0.668,0.324-0.991,0.424
	c-0.324,0.1-0.628,0.146-0.916,0.141c-0.287-0.006-0.555-0.07-0.799-0.197c-0.247-0.127-0.461-0.322-0.645-0.594
	c-0.071,0.059-0.144,0.111-0.219,0.16c-0.074,0.047-0.148,0.09-0.223,0.129c-0.091,0.051-0.179,0.094-0.262,0.131
	c-0.083,0.041-0.162,0.057-0.237,0.053c-0.076-0.004-0.151-0.033-0.229-0.092c-0.074-0.059-0.151-0.158-0.229-0.301
	c-0.069-0.127-0.098-0.262-0.088-0.408c0.01-0.145,0.038-0.285,0.084-0.42c0.045-0.133,0.098-0.258,0.154-0.369
	C91.306,121.331,91.348,121.243,91.373,121.182z M93.021,121.602c0.068-0.037,0.165-0.039,0.291-0.004
	c0.126,0.033,0.27,0.07,0.43,0.105c0.16,0.037,0.333,0.055,0.519,0.057c0.186,0.002,0.37-0.047,0.554-0.145
	c0.223-0.121,0.389-0.254,0.497-0.402c0.108-0.148,0.176-0.301,0.2-0.461c0.023-0.16,0.013-0.326-0.034-0.494
	c-0.047-0.168-0.115-0.336-0.203-0.5c-0.077-0.143-0.165-0.281-0.267-0.42c-0.1-0.135-0.202-0.264-0.306-0.381
	c-0.104-0.119-0.208-0.227-0.31-0.324c-0.102-0.1-0.189-0.184-0.263-0.252L93.021,121.602z"/>
</svg>
