<?xml version="1.0" encoding="utf-8"?>
<!-- Generator: Adobe Illustrator 18.0.0, SVG Export Plug-In . SVG Version: 6.00 Build 0)  -->
<!DOCTYPE svg PUBLIC "-//W3C//DTD SVG 1.1//EN" "http://www.w3.org/Graphics/SVG/1.1/DTD/svg11.dtd">
<svg version="1.1" id="Layer_1" xmlns="http://www.w3.org/2000/svg" xmlns:xlink="http://www.w3.org/1999/xlink" x="0px" y="0px"
	 viewBox="0 0 679.7 325.8" enable-background="new 0 0 679.7 325.8" xml:space="preserve">
<g>
	<path fill="#231F20" d="M17.6,191.4V10c0-6-3.1-10-8.9-10C3.1,0,0,4,0,10v188.7c0,6.4,3.1,9.3,9.3,9.3h100.8c6,0,10-2.5,10-8.3
		c0-5.8-3.9-8.3-10-8.3H17.6z"/>
	<path fill="#231F20" d="M171.3,17.4h99.8c6,0,10-2.5,10-8.3c0-5.8-3.9-8.3-10-8.3H163c-6.2,0-9.3,2.9-9.3,9.3v188.5
		c0,6.4,3.1,9.3,9.3,9.3h108.1c6,0,10-2.5,10-8.3c0-5.8-3.9-8.3-10-8.3h-99.8V17.4z"/>
	<path fill="#231F20" d="M406.9,25.5l76.2,175.8c1.7,4.1,4.6,7.5,8.5,7.5c4.6,0,12.2-4.8,8.3-13.5l-82-187
		c-1.7-3.5-4.1-8.3-10.8-8.3c-6.6,0-9.1,4.8-10.8,8.3l-82,187c-3.9,8.7,3.7,13.5,8.3,13.5c3.9,0,6.8-3.3,8.5-7.5L406.9,25.5z"/>
	<path fill="#231F20" d="M380,130.3c0,5.8,3.9,8.3,9.9,8.3h34.4c6,0,10-2.5,10-8.3c0-5.8-3.9-8.3-10-8.3h-34.4
		C383.9,122,380,124.5,380,130.3"/>
	<path fill="#231F20" d="M558.5,17.4h48.1c13.9,0,26.1,0.2,36.4,6c11.6,6.4,18.6,18.9,18.6,33.1c0,14.3-7,26.7-18.6,33.1
		c-10.3,5.6-22.6,6-36.4,6h-21.7c-6,0-10,2.5-10,8.3c0,5.8,3.9,8.3,10,8.3h20.7c13.1,0,30,0,45.6-8.3c17.6-9.3,28.6-25.7,28.6-47.4
		c0-20.9-10.3-37.9-28.4-47.4c-15.5-8.3-32.7-8.3-45.8-8.3h-55.3c-6.2,0-9.3,2.9-9.3,9.3v188.7c0,6,3.1,9.9,8.9,9.9
		c5.6,0,8.7-3.9,8.7-9.9V17.4z"/>
</g>
<path fill="#5DAA00" d="M623.1,283.1l28.9,37.7c2,2.6,3.4,4,5.7,4c3,0,3.9-2.2,3.9-4.4v-44.2c0-2.3-1.3-3.9-3.5-3.9
	c-2.2,0-3.5,1.6-3.5,3.9l0.1,37.1l-28.9-37.7c-1.6-2.1-2.8-3.3-5.3-3.3c-3.4,0-4.4,2.3-4.4,4.4v44.2c0,2.3,1.2,3.9,3.5,3.9
	c2.2,0,3.5-1.6,3.5-3.9L623.1,283.1z M527,298.5c0,11.4-7.8,20.7-19.5,20.7c-11.6,0-19.5-9.3-19.5-20.7c0-11.4,7.8-20.7,19.5-20.7
	C519.2,277.8,527,287.1,527,298.5 M480.5,298.5c0,15.3,11.4,27.3,27,27.3c15.6,0,27-11.9,27-27.3c0-15.4-11.4-27.3-27-27.3
	C491.9,271.3,480.5,283.2,480.5,298.5 M395.4,324.8c2.2,0,3.5-1.6,3.5-3.9v-44.7c0-2.3-1.3-3.9-3.5-3.9c-2.3,0-3.6,1.6-3.6,3.9v44.7
	C391.8,323.2,393.1,324.8,395.4,324.8 M284.8,320.9c0,2.3,1.3,3.9,3.6,3.9c2.2,0,3.5-1.6,3.5-3.9v-41.8h16.4c2.2,0,3.6-1.1,3.6-3.3
	c0-2.1-1.4-3.3-3.6-3.3h-39.8c-2.2,0-3.6,1.2-3.6,3.3c0,2.1,1.4,3.3,3.6,3.3h16.4V320.9z M183.4,298.5c0,11.4-7.8,20.7-19.5,20.7
	c-11.6,0-19.5-9.3-19.5-20.7c0-11.4,7.8-20.7,19.5-20.7C175.6,277.8,183.4,287.1,183.4,298.5 M136.9,298.5c0,15.3,11.4,27.3,27,27.3
	c15.6,0,27-11.9,27-27.3c0-15.4-11.4-27.3-27-27.3C148.3,271.3,136.9,283.2,136.9,298.5 M27.7,307.3l-16.1-29.6
	c-2-3.7-3.6-5.5-6.9-5.5c-4,0-4.8,2.7-4.8,4.8v43.9c0,2.3,1.2,3.9,3.5,3.9c2.2,0,3.5-1.6,3.5-3.9l-0.1-38.3l16.5,31
	c1.1,2.1,2.2,3.4,4.2,3.4c2,0,3.2-1.3,4.3-3.4l16.5-31l-0.1,38.3c0,2.3,1.3,3.9,3.5,3.9c2.3,0,3.5-1.6,3.5-3.9V277
	c0-2.1-0.8-4.8-4.8-4.8c-3.3,0-4.7,1.8-6.7,5.5L27.7,307.3z"/>
<path fill="#5DAA00" d="M187.6,104c0,5.8,3.9,8.3,9.9,8.3h44.1c6,0,9.9-2.5,9.9-8.3c0-5.8-3.9-8.3-9.9-8.3h-44.1
	C191.5,95.7,187.6,98.2,187.6,104"/>
</svg>
