<?xml version="1.0" encoding="utf-8"?>
<!-- Generator: Adobe Illustrator 16.0.0, SVG Export Plug-In . SVG Version: 6.00 Build 0)  -->
<!DOCTYPE svg PUBLIC "-//W3C//DTD SVG 1.1//EN" "http://www.w3.org/Graphics/SVG/1.1/DTD/svg11.dtd">
<svg version="1.1" id="Layer_1" xmlns="http://www.w3.org/2000/svg" xmlns:xlink="http://www.w3.org/1999/xlink" x="0px" y="0px"
	 width="224.253px" height="75.596px" viewBox="28.073 16.558 224.253 75.596"
	 enable-background="new 28.073 16.558 224.253 75.596" xml:space="preserve">
<g id="Lob">
	<g>
		<path fill="#425463" d="M109.8,85.816V22.013h6.909v57.125h32.585v6.68H109.8V85.816z"/>
		<path fill="#425463" d="M157.979,74.305c-1.34-3.41-2.008-7.545-2.008-12.402c0-4.856,0.668-8.99,2.008-12.4
			c1.338-3.41,3.158-5.955,5.461-7.637c2.304-1.682,4.646-2.873,7.026-3.573s5.011-1.051,7.89-1.051s5.523,0.35,7.937,1.051
			s4.771,1.892,7.073,3.573c2.303,1.682,4.123,4.227,5.462,7.637c1.338,3.41,2.007,7.544,2.007,12.4
			c0,4.857-0.669,8.992-2.007,12.402c-1.339,3.409-3.159,5.954-5.462,7.637c-2.305,1.682-4.661,2.873-7.073,3.572
			c-2.412,0.701-5.058,1.051-7.937,1.051s-5.508-0.35-7.89-1.051c-2.381-0.699-4.724-1.892-7.026-3.572
			C161.137,80.259,159.314,77.714,157.979,74.305z M166.566,47.937c-2.459,2.927-3.688,7.583-3.688,13.965
			c0,6.385,1.229,11.039,3.688,13.967s6.396,4.391,11.812,4.391c5.416,0,9.36-1.447,11.835-4.344s3.711-7.566,3.711-14.014
			c0-6.444-1.236-11.116-3.711-14.012s-6.419-4.344-11.835-4.344C172.963,43.546,169.025,45.01,166.566,47.937z"/>
		<path fill="#425463" d="M211.805,71.479V19.818h6.861v19.338c3.828-1.276,7.749-1.915,11.766-1.915
			c2.178,0,4.225,0.187,6.139,0.561s3.857,1.105,5.834,2.195c1.978,1.09,3.682,2.491,5.113,4.204
			c1.431,1.713,2.59,4.041,3.478,6.983c0.888,2.943,1.331,6.33,1.331,10.159c0,4.204-0.49,7.888-1.471,11.048
			s-2.188,5.612-3.619,7.355c-1.432,1.744-3.15,3.161-5.157,4.251c-2.009,1.09-3.858,1.791-5.556,2.103
			c-1.697,0.311-3.433,0.467-5.205,0.467c-3.455,0-6.459-0.428-9.01-1.284c-2.554-0.856-4.468-1.845-5.742-2.966
			c-1.276-1.121-2.312-2.461-3.104-4.019c-0.794-1.557-1.269-2.841-1.424-3.854C211.881,73.434,211.805,72.443,211.805,71.479z
			 M218.666,71.852c0.029,5.604,4.248,8.407,12.65,8.407c1.773,0,3.377-0.202,4.81-0.606c1.431-0.404,2.917-1.198,4.458-2.383
			c1.54-1.183,2.738-3.129,3.596-5.838c0.854-2.709,1.282-6.072,1.282-10.09c0-6.195-1.183-10.696-3.548-13.499
			c-2.365-2.802-6.193-4.204-11.482-4.204c-3.953,0-7.875,0.794-11.766,2.382V71.852L218.666,71.852z"/>
	</g>
</g>
<g id="Rounded_Rectangle_3_5_" enable-background="new    ">
	<g id="Rounded_Rectangle_3">
		<g>
			<path fill="#187ADD" d="M72.71,18.059c-2.024-2.001-5.306-2.001-7.331,0L29.592,53.434c-2.025,2.001-2.025,5.246,0,7.246
				c2.024,2.002,5.307,2.002,7.331,0L72.71,25.304C74.735,23.303,74.735,20.06,72.71,18.059z"/>
		</g>
	</g>
</g>
<g id="Rounded_Rectangle_3_4_" enable-background="new    ">
	<g id="Rounded_Rectangle_3_1_">
		<g>
			<path fill="#2994EC" d="M91.838,20.363c-2.024-2-5.307-2-7.331,0L48.719,55.74c-2.024,2-2.024,5.244,0,7.246
				c2.024,2,5.307,2,7.331,0L91.838,27.61C93.862,25.609,93.862,22.365,91.838,20.363z"/>
		</g>
	</g>
</g>
<g id="Rounded_Rectangle_3_3_" enable-background="new    ">
	<g id="Rounded_Rectangle_3_2_">
		<g>
			<path fill="#40ABF4" d="M84.374,48.032c-2.024-2.001-5.307-2.001-7.331,0L41.255,83.407c-2.024,2.001-2.024,5.245,0,7.247
				c2.024,2,5.306,2,7.331,0l35.789-35.375C86.398,53.278,86.398,50.034,84.374,48.032z"/>
		</g>
	</g>
</g>
</svg>
