<?xml version="1.0" encoding="utf-8"?>
<!-- Generator: Adobe Illustrator 16.0.0, SVG Export Plug-In . SVG Version: 6.00 Build 0)  -->
<!DOCTYPE svg PUBLIC "-//W3C//DTD SVG 1.1//EN" "http://www.w3.org/Graphics/SVG/1.1/DTD/svg11.dtd">
<svg version="1.1" id="Layer_1" xmlns="http://www.w3.org/2000/svg" xmlns:xlink="http://www.w3.org/1999/xlink" x="0px" y="0px"
	 width="373.616px" height="61.291px" viewBox="0 0 373.616 61.291" enable-background="new 0 0 373.616 61.291"
	 xml:space="preserve">
<g>
	<g>
		<path fill="#AABF38" d="M24.145,37.021C12.777,32.15,3.901,22.589,0,10.729v50.562h50.535
			C38.621,57.363,29.009,48.457,24.145,37.021z"/>
		<path fill="#0E4C88" d="M25.661,0H0.086c1.028,15.006,10.109,27.798,22.968,34.101c-1.5-4.375-2.341-9.104-2.341-14.004
			C20.712,12.857,22.527,5.99,25.661,0z"/>
		<path fill="#FCB324" d="M41.171,40.468c-4.943,0-9.695-0.826-14.139-2.348c6.305,12.922,19.168,22.061,34.26,23.072V35.511
			C55.278,38.689,48.444,40.468,41.171,40.468z"/>
	</g>
	<g>
		<path fill="#999999" d="M82.917,4.841h8.932v16.487h8.215v6.058H82.917V4.841z"/>
		<path fill="#999999" d="M111.181,4.841h8.931v22.545h-8.931V4.841z"/>
		<path fill="#999999" d="M142.942,14.678h11.617v11.804c-3.496,0.904-7.555,1.5-11.241,1.5c-8.12,0-12.086-4.965-12.086-11.869
			c0-6.9,3.966-11.865,12.335-11.865c6.933,0,10.557,2.279,10.649,7.555h-8.37c-0.031-0.717-0.31-1.186-0.687-1.468
			c-0.373-0.276-0.905-0.405-1.468-0.405c-1.341,0-2.217,0.688-2.653,1.596c-0.438,0.902-0.562,3.121-0.562,5.028
			c0,2.185,0.187,3.684,0.593,4.401c0.531,0.937,1.405,1.343,2.562,1.343c0.843,0,1.657-0.125,2.373-0.469v-2.716h-3.061V14.678z"/>
		<path fill="#999999" d="M179.107,19.084h-3.809v8.302h-8.932V4.841h8.932v7.618h3.809V4.841h8.936v22.545h-8.936V19.084z"/>
		<path fill="#999999" d="M204.814,10.899h-5.562V4.841h20.051v6.059h-5.558v16.487h-8.931V10.899z"/>
		<path fill="#999999" d="M241.381,11.242c-0.029-1.407-0.81-1.874-1.968-1.874c-1.435,0-2.057,0.624-2.057,1.312
			c0,0.813,0.529,1.159,1.466,1.433c1.718,0.504,4.872,1.126,7.151,2.096c2.843,1.188,4.092,3.217,4.092,5.934
			c0,5.529-4.498,7.839-10.867,7.839c-5.438,0-10.432-1.684-10.432-7.557h8.557c0,0.624,0.125,1.249,0.469,1.717
			c0.342,0.438,0.906,0.721,1.75,0.721c1.309,0,2.152-0.848,2.152-1.845c0-0.843-0.656-1.281-1.5-1.528l-6.337-1.874
			c-3.468-1.033-4.685-3.127-4.685-6.029c0-4.684,3.775-7.338,10.369-7.338c5.619,0,9.834,1.747,9.834,6.994H241.381z"/>
		<path fill="#999999" d="M269.96,14.678V9.963h0.938c1.935,0,2.685,0.684,2.685,2.279c0,1.592-0.877,2.436-3.188,2.436H269.96z
			 M261.026,27.386h8.935v-7.585h2.936c6.306,0,9.244-3.062,9.244-7.559c0-4.249-2.559-7.401-7.995-7.401h-13.119V27.386z"/>
		<path fill="#999999" d="M291.634,4.841h17.146v5.874h-8.587v2.402h7.931v5.871h-7.931v2.529h8.866v5.869h-17.425V4.841z"/>
		<path fill="#999999" d="M321.616,4.841h17.146v5.874h-8.588v2.402h7.932v5.871h-7.932v2.529h8.869v5.869h-17.428V4.841z"/>
		<path fill="#999999" d="M359.875,9.963h0.875c1.436,0,2.278,0.528,2.843,1.434c0.593,0.941,0.779,2.533,0.779,4.717
			c0,2.188-0.187,3.779-0.779,4.717c-0.564,0.906-1.407,1.437-2.843,1.437h-0.875V9.963z M351.13,27.386h11.117
			c6.934,0,11.368-4.215,11.368-11.022c0-6.685-2.872-11.523-11.899-11.523H351.13V27.386z"/>
	</g>
	<g>
		<path fill="#0E4C88" d="M91.542,56.417H88.92l-6.119-17.191h2.643l4.882,14.691l5.143-14.691h2.406L91.542,56.417z"/>
		<path fill="#0E4C88" d="M104.209,39.226h10.789v2.023h-8.408v5.359h8.001v1.996h-8.001v5.719h8.596v2.094h-10.978V39.226z"/>
		<path fill="#0E4C88" d="M122.428,39.226h3.31l8.453,14.217V39.226h2.191v17.191h-3.047l-8.739-14.6v14.6h-2.167V39.226z"/>
		<path fill="#0E4C88" d="M147.574,56.417V41.25h-5.764v-2.023h13.885v2.023h-5.762v15.168H147.574z"/>
		<path fill="#0E4C88" d="M162.839,39.226v10.646c0,1.828,0.403,2.592,0.763,3.094c1.071,1.428,2.737,1.689,3.928,1.689
			c4.644,0,4.644-3.643,4.644-4.881V39.226h2.31v10.596c0,0.93-0.024,2.859-1.404,4.572c-1.692,2.119-4.311,2.383-5.549,2.383
			c-1.621,0-4.477-0.451-6.071-2.738c-0.525-0.764-1.003-1.762-1.003-4.334V39.226H162.839z"/>
		<path fill="#0E4C88" d="M183.509,41.228h3.762c0.953,0,3.427,0,3.427,2.783c0,1.432-0.832,2.051-1.164,2.24
			c-0.645,0.381-2,0.381-2.263,0.381h-3.762V41.228z M181.2,56.417h2.358v-7.762h3c2.881,0,3.476,0.713,3.764,3.215
			c0.166,1.309,0.403,3.406,0.785,4.547h2.549c-0.668-1.902-0.834-3.379-1.076-5.404c-0.234-2.143-0.973-2.881-2.617-3.309
			c0.525-0.146,1.286-0.379,2.023-1.121c0.762-0.76,1.215-1.832,1.215-3.047c0-1.383-0.621-2.689-1.906-3.498
			c-1.261-0.812-3.07-0.812-3.951-0.812H181.2V56.417z"/>
		<path fill="#0E4C88" d="M199.463,39.226h10.79v2.023h-8.408v5.359h8.004v1.996h-8.004v5.719h8.598v2.094h-10.979V39.226z"/>
		<path fill="#0E4C88" d="M230.082,40.781h3.412c1.268,0,3.564,0,3.564,2.756c0,2.877-2.464,3.002-4.075,3.002h-2.901V40.781z
			 M227.637,56.417h2.444v-7.832h2.854c3.173,0,4.393-0.582,5.318-1.514c0.951-0.949,1.393-2.094,1.393-3.441
			c0-1.314-0.415-2.506-1.298-3.412c-1.192-1.293-2.658-1.416-4.801-1.416h-5.91V56.417z"/>
		<path fill="#0E4C88" d="M249.964,41.22l3.246,8.635h-6.663L249.964,41.22z M241.352,56.417h2.513l1.902-4.584h8.175l1.903,4.584
			h2.658l-7.125-17.615h-2.61L241.352,56.417z"/>
		<path fill="#0E4C88" d="M266.386,40.851h3.854c0.977,0,3.514,0,3.514,2.855c0,1.463-0.854,2.1-1.196,2.295
			c-0.658,0.391-2.048,0.391-2.317,0.391h-3.854V40.851z M264.017,56.417h2.418v-7.951h3.073c2.953,0,3.565,0.73,3.857,3.293
			c0.17,1.342,0.412,3.488,0.804,4.658h2.609c-0.683-1.951-0.853-3.463-1.096-5.537c-0.245-2.197-1.001-2.953-2.683-3.393
			c0.535-0.145,1.314-0.389,2.07-1.146c0.783-0.779,1.244-1.879,1.244-3.123c0-1.414-0.632-2.756-1.948-3.584
			c-1.293-0.832-3.149-0.832-4.054-0.832h-6.296V56.417z"/>
		<path fill="#0E4C88" d="M286.929,56.417V40.876h-5.904v-2.074h14.225v2.074h-5.904v15.541H286.929z"/>
		<path fill="#0E4C88" d="M300.669,38.802h3.388l8.664,14.566V38.802h2.243v17.615h-3.122l-8.957-14.955v14.955h-2.216V38.802z"/>
		<path fill="#0E4C88" d="M322.359,38.802h11.052v2.074h-8.611v5.488h8.199v2.051h-8.199v5.857h8.807v2.145h-11.247V38.802z"/>
		<path fill="#0E4C88" d="M342.441,40.851h3.854c0.975,0,3.515,0,3.515,2.855c0,1.463-0.855,2.1-1.195,2.295
			c-0.662,0.391-2.052,0.391-2.319,0.391h-3.854V40.851z M340.072,56.417h2.415v-7.951h3.075c2.954,0,3.563,0.73,3.858,3.293
			c0.167,1.342,0.413,3.488,0.802,4.658h2.612c-0.684-1.951-0.855-3.463-1.101-5.537c-0.244-2.197-0.996-2.953-2.683-3.393
			c0.536-0.145,1.319-0.389,2.075-1.146c0.779-0.779,1.243-1.879,1.243-3.123c0-1.414-0.636-2.756-1.954-3.584
			c-1.29-0.832-3.146-0.832-4.047-0.832h-6.297V56.417z"/>
		<path fill="#0E4C88" d="M360.226,51.269c0.051,1.223,0.197,3.49,4.245,3.49c3.66,0,4.127-2.268,4.127-3.148
			c0-1.975-1.587-2.365-4.054-2.977c-2.683-0.656-3.879-0.949-4.782-1.562c-1.439-0.971-1.83-2.291-1.83-3.463
			c0-3.586,3.396-5.146,6.71-5.146c1.17,0,3.538,0.195,4.952,1.729c0.978,1.076,1.024,2.271,1.077,3.002h-2.54
			c-0.121-2.193-1.976-2.682-3.709-2.682c-2.439,0-3.901,1.098-3.901,2.852c0,1.564,1.021,2.102,3.171,2.613
			c4.196,1.074,4.658,1.172,5.684,1.852c1.636,1.076,1.759,2.785,1.759,3.514c0,3.125-2.442,5.492-6.957,5.492
			c-1.339,0-4.072-0.219-5.465-2c-0.999-1.295-1.025-2.707-1.025-3.564H360.226z"/>
	</g>
</g>
</svg>
