<?xml version="1.0" encoding="utf-8"?>
<!-- Generator: Adobe Illustrator 18.0.0, SVG Export Plug-In . SVG Version: 6.00 Build 0)  -->
<!DOCTYPE svg PUBLIC "-//W3C//DTD SVG 1.1//EN" "http://www.w3.org/Graphics/SVG/1.1/DTD/svg11.dtd">
<svg version="1.1" id="Layer_1" xmlns="http://www.w3.org/2000/svg" xmlns:xlink="http://www.w3.org/1999/xlink" x="0px" y="0px"
	 viewBox="0 0 133.9 121.2" enable-background="new 0 0 133.9 121.2" xml:space="preserve">
<g>
	<g>
		<path fill="#5F6369" d="M1.4,108.7c0.8-0.1,1.7-0.2,2.7-0.2c1.8,0,3.1,0.4,4,1.2c0.9,0.8,1.4,1.9,1.4,3.5c0,1.6-0.5,2.9-1.4,3.8
			c-0.9,0.9-2.4,1.4-4.3,1.4c-0.9,0-1.7,0-2.3-0.1V108.7z M2.7,117.3c0.3,0.1,0.8,0.1,1.3,0.1c2.7,0,4.2-1.5,4.2-4.1
			c0-2.3-1.3-3.8-4-3.8c-0.7,0-1.1,0.1-1.5,0.1V117.3z"/>
		<path fill="#5F6369" d="M12.2,115.1c0,1.7,1.1,2.4,2.4,2.4c0.9,0,1.5-0.2,1.9-0.4l0.2,0.9c-0.4,0.2-1.2,0.4-2.3,0.4
			c-2.2,0-3.5-1.4-3.5-3.5c0-2.1,1.2-3.8,3.3-3.8c2.3,0,2.9,2,2.9,3.3c0,0.3,0,0.5,0,0.6H12.2z M16,114.2c0-0.8-0.3-2.1-1.8-2.1
			c-1.3,0-1.9,1.2-2,2.1H16z"/>
		<path fill="#5F6369" d="M19.7,111.3l1.4,3.9c0.2,0.6,0.4,1.2,0.6,1.8h0c0.2-0.6,0.4-1.2,0.6-1.8l1.4-3.9h1.3l-2.8,7H21l-2.7-7
			H19.7z"/>
		<path fill="#5F6369" d="M27.1,115.1c0,1.7,1.1,2.4,2.4,2.4c0.9,0,1.5-0.2,1.9-0.4l0.2,0.9c-0.4,0.2-1.2,0.4-2.3,0.4
			c-2.2,0-3.5-1.4-3.5-3.5c0-2.1,1.2-3.8,3.3-3.8c2.3,0,2.9,2,2.9,3.3c0,0.3,0,0.5,0,0.6H27.1z M30.8,114.2c0-0.8-0.3-2.1-1.8-2.1
			c-1.3,0-1.9,1.2-2,2.1H30.8z"/>
		<path fill="#5F6369" d="M34,108h1.3v10.3H34V108z"/>
		<path fill="#5F6369" d="M44.2,114.8c0,2.6-1.8,3.7-3.5,3.7c-1.9,0-3.4-1.4-3.4-3.6c0-2.3,1.5-3.7,3.5-3.7
			C42.8,111.2,44.2,112.6,44.2,114.8z M38.6,114.8c0,1.5,0.9,2.7,2.1,2.7c1.2,0,2.1-1.1,2.1-2.7c0-1.2-0.6-2.7-2.1-2.7
			S38.6,113.5,38.6,114.8z"/>
		<path fill="#5F6369" d="M46.2,113.6c0-0.9,0-1.6-0.1-2.3h1.1l0.1,1.2h0c0.5-0.9,1.3-1.4,2.5-1.4c1.7,0,3,1.4,3,3.6
			c0,2.5-1.5,3.8-3.2,3.8c-0.9,0-1.7-0.4-2.2-1.1h0v3.8h-1.3V113.6z M47.5,115.5c0,0.2,0,0.4,0.1,0.5c0.2,0.9,1,1.5,1.9,1.5
			c1.3,0,2.1-1.1,2.1-2.7c0-1.4-0.7-2.6-2.1-2.6c-0.9,0-1.7,0.6-1.9,1.6c0,0.2-0.1,0.3-0.1,0.5V115.5z"/>
		<path fill="#5F6369" d="M55.6,115.1c0,1.7,1.1,2.4,2.4,2.4c0.9,0,1.5-0.2,1.9-0.4l0.2,0.9c-0.4,0.2-1.2,0.4-2.3,0.4
			c-2.2,0-3.5-1.4-3.5-3.5c0-2.1,1.2-3.8,3.3-3.8c2.3,0,2.9,2,2.9,3.3c0,0.3,0,0.5,0,0.6H55.6z M59.3,114.2c0-0.8-0.3-2.1-1.8-2.1
			c-1.3,0-1.9,1.2-2,2.1H59.3z"/>
		<path fill="#5F6369" d="M62.5,113.5c0-0.8,0-1.5-0.1-2.2h1.1l0,1.4h0.1c0.3-0.9,1.1-1.5,1.9-1.5c0.1,0,0.2,0,0.4,0v1.2
			c-0.1,0-0.3,0-0.4,0c-0.9,0-1.5,0.7-1.7,1.6c0,0.2-0.1,0.4-0.1,0.6v3.7h-1.3V113.5z"/>
		<path fill="#5F6369" d="M71.1,108.7c0.6-0.1,1.4-0.2,2.4-0.2c1.2,0,2.2,0.3,2.7,0.8c0.5,0.5,0.9,1.2,0.9,2c0,0.9-0.3,1.6-0.8,2.1
			c-0.7,0.7-1.8,1.1-3,1.1c-0.4,0-0.7,0-1-0.1v3.9h-1.3V108.7z M72.4,113.4c0.3,0.1,0.6,0.1,1,0.1c1.5,0,2.5-0.7,2.5-2.1
			c0-1.3-0.9-1.9-2.3-1.9c-0.6,0-1,0-1.2,0.1V113.4z"/>
		<path fill="#5F6369" d="M79.1,108h1.3v10.3h-1.3V108z"/>
		<path fill="#5F6369" d="M86.8,118.3l-0.1-0.9h0c-0.4,0.6-1.1,1-2.1,1c-1.4,0-2.1-1-2.1-2c0-1.7,1.5-2.6,4.2-2.6v-0.1
			c0-0.6-0.2-1.6-1.6-1.6c-0.7,0-1.3,0.2-1.8,0.5l-0.3-0.8c0.6-0.4,1.4-0.6,2.3-0.6c2.1,0,2.7,1.5,2.7,2.9v2.6c0,0.6,0,1.2,0.1,1.7
			H86.8z M86.6,114.8c-1.4,0-3,0.2-3,1.6c0,0.8,0.6,1.2,1.2,1.2c0.9,0,1.5-0.6,1.7-1.2c0-0.1,0.1-0.3,0.1-0.4V114.8z"/>
		<path fill="#5F6369" d="M91.8,109.3v2h1.8v1h-1.8v3.8c0,0.9,0.2,1.4,1,1.4c0.3,0,0.6,0,0.7-0.1l0.1,1c-0.2,0.1-0.6,0.2-1.1,0.2
			c-0.6,0-1.1-0.2-1.4-0.5c-0.4-0.4-0.5-1-0.5-1.8v-3.8h-1.1v-1h1.1v-1.7L91.8,109.3z"/>
		<path fill="#5F6369" d="M95.6,118.3v-6h-1v-1h1V111c0-1,0.2-1.9,0.8-2.5c0.5-0.5,1.1-0.7,1.7-0.7c0.4,0,0.8,0.1,1.1,0.2l-0.2,1
			c-0.2-0.1-0.4-0.2-0.8-0.2c-1.1,0-1.4,1-1.4,2v0.4h1.7v1h-1.7v6H95.6z"/>
		<path fill="#5F6369" d="M106.3,114.8c0,2.6-1.8,3.7-3.5,3.7c-1.9,0-3.4-1.4-3.4-3.6c0-2.3,1.5-3.7,3.5-3.7
			C104.9,111.2,106.3,112.6,106.3,114.8z M100.7,114.8c0,1.5,0.9,2.7,2.1,2.7c1.2,0,2.1-1.1,2.1-2.7c0-1.2-0.6-2.7-2.1-2.7
			S100.7,113.5,100.7,114.8z"/>
		<path fill="#5F6369" d="M108.3,113.5c0-0.8,0-1.5-0.1-2.2h1.1l0,1.4h0.1c0.3-0.9,1.1-1.5,1.9-1.5c0.1,0,0.2,0,0.4,0v1.2
			c-0.1,0-0.3,0-0.4,0c-0.9,0-1.5,0.7-1.7,1.6c0,0.2-0.1,0.4-0.1,0.6v3.7h-1.3V113.5z"/>
		<path fill="#5F6369" d="M113.4,113.2c0-0.7,0-1.3-0.1-1.9h1.1l0.1,1.1h0c0.4-0.7,1-1.3,2.2-1.3c1,0,1.7,0.6,2,1.4h0
			c0.2-0.4,0.5-0.7,0.8-0.9c0.4-0.3,0.9-0.5,1.6-0.5c0.9,0,2.3,0.6,2.3,3v4.1h-1.2v-4c0-1.3-0.5-2.2-1.5-2.2c-0.7,0-1.3,0.5-1.5,1.2
			c-0.1,0.2-0.1,0.4-0.1,0.6v4.3h-1.2v-4.2c0-1.1-0.5-1.9-1.5-1.9c-0.8,0-1.4,0.6-1.6,1.3c-0.1,0.2-0.1,0.4-0.1,0.6v4.2h-1.2V113.2z
			"/>
	</g>
</g>
<g>
	<g>
		<path fill="#5F6369" d="M2.6,90.7v10.8H1.2V90.7H2.6z"/>
		<path fill="#5F6369" d="M6.2,101.5V90.7h1.5l3.5,5.5c0.8,1.3,1.4,2.4,1.9,3.5l0,0C13,98.2,13,96.9,13,95.2v-4.5h1.3v10.8h-1.4
			L9.4,96c-0.8-1.2-1.5-2.4-2-3.6l0,0c0.1,1.4,0.1,2.7,0.1,4.4v4.6H6.2z"/>
		<path fill="#5F6369" d="M19.8,91.9h-3.3v-1.2h8v1.2h-3.3v9.6h-1.4V91.9z"/>
		<path fill="#5F6369" d="M32.4,96.5h-4.2v3.9h4.7v1.2h-6.1V90.7h5.8v1.2h-4.4v3.4h4.2V96.5z"/>
		<path fill="#5F6369" d="M35.8,90.7h1.4v9.6h4.6v1.2h-6V90.7z"/>
		<path fill="#5F6369" d="M58.1,96.8c-0.1-1.5-0.2-3.3-0.2-4.7h0c-0.4,1.3-0.8,2.6-1.4,4.1l-1.9,5.2h-1.1l-1.7-5.1
			c-0.5-1.5-0.9-2.9-1.2-4.2h0c0,1.3-0.1,3.2-0.2,4.8l-0.3,4.6h-1.3l0.8-10.8h1.8l1.8,5.2c0.4,1.3,0.8,2.5,1.1,3.6h0
			c0.3-1.1,0.7-2.3,1.1-3.6l1.9-5.2H59l0.7,10.8h-1.4L58.1,96.8z"/>
		<path fill="#5F6369" d="M64.5,98.1l-1.1,3.4H62l3.7-10.8h1.7l3.7,10.8h-1.5l-1.2-3.4H64.5z M68.1,97L67,93.9
			c-0.2-0.7-0.4-1.3-0.6-2h0c-0.2,0.6-0.3,1.3-0.5,2L64.8,97H68.1z"/>
		<path fill="#5F6369" d="M73.5,99.8c0.6,0.4,1.5,0.7,2.5,0.7c1.4,0,2.3-0.8,2.3-1.8c0-1-0.6-1.6-2-2.1c-1.8-0.6-2.8-1.5-2.8-3.1
			c0-1.7,1.4-2.9,3.5-2.9c1.1,0,1.9,0.3,2.4,0.5l-0.4,1.1c-0.4-0.2-1.1-0.5-2-0.5c-1.5,0-2,0.9-2,1.6c0,1,0.7,1.5,2.1,2.1
			c1.8,0.7,2.8,1.6,2.8,3.2c0,1.7-1.2,3.1-3.8,3.1c-1,0-2.2-0.3-2.8-0.7L73.5,99.8z"/>
		<path fill="#5F6369" d="M84.1,90.7v4.5h5.2v-4.5h1.4v10.8h-1.4v-5.1h-5.2v5.1h-1.4V90.7H84.1z"/>
		<path fill="#5F6369" d="M99.8,96.5h-4.2v3.9h4.7v1.2h-6.1V90.7h5.8v1.2h-4.4v3.4h4.2V96.5z"/>
		<path fill="#5F6369" d="M103.2,90.9c0.7-0.1,1.7-0.2,2.7-0.2c1.5,0,2.4,0.3,3.1,0.9c0.5,0.5,0.8,1.2,0.8,2c0,1.4-0.9,2.4-2,2.8v0
			c0.8,0.3,1.3,1.1,1.6,2.2c0.4,1.5,0.6,2.5,0.8,3h-1.4c-0.2-0.3-0.4-1.2-0.7-2.6c-0.3-1.5-0.9-2-2.2-2.1h-1.3v4.7h-1.4V90.9z
			 M104.6,95.8h1.4c1.5,0,2.4-0.8,2.4-2c0-1.4-1-2-2.5-2c-0.7,0-1.2,0.1-1.4,0.1V95.8z"/>
		<path fill="#5F6369" d="M115.1,101.5v-4.6l-3.4-6.2h1.6l1.5,3c0.4,0.8,0.7,1.5,1.1,2.2h0c0.3-0.7,0.7-1.4,1.1-2.2l1.6-3h1.6
			l-3.6,6.2v4.6H115.1z"/>
	</g>
</g>
<g>
	<path fill-rule="evenodd" clip-rule="evenodd" fill="#FFFFFF" d="M133.9,74.1c0,2.2-2.5,7.4-8.1,8.1H8c-2.4,0-6.9-3.1-8-8l0-66
		c0-2.2,1.7-7.1,7.5-8L125.8,0c5.4,1,8.2,6.6,8.1,9.3V74.1z"/>
	<g>
		<g>
			<path fill-rule="evenodd" clip-rule="evenodd" fill="#A61E2F" d="M125.3,0H8.6C4.7,0,1.4,2.6,0.3,6.2l11.9,4.9l4.2,1.8
				c0,0,0.8,0,1.4,0.2c0.6,0.2,1.1,0.7,1.1,0.7s2.2,0.8,2.8,1.2c0.5,0.3,0.9,1.1,1,2c0.1,0.8-0.1,2-0.1,2s5.5,2.2,6.6,2.6
				c1.1,0.3,3.7,0.2,6.2-0.1c2.5-0.4,14.5-2.1,14.5-2.1l21.3-3.2c0,0,8.9-1.3,9.8-1.4c0.9-0.1,2.9,0,4.4,0.4
				c1.5,0.4,6.2,1.9,6.2,1.9l4.9,1.6l7.8,2.4c0,0,0.2-0.2,0.7-0.3c0.4-0.1,1.2-0.3,2.2,0.2c1,0.5,1.4,1.5,1.4,1.5l4.4,1.3
				c0,0,0.1-0.7,0.3-1.5c0.2-0.8,0.6-1.6,1-2.2c0.4-0.5,1.2-1.4,2-1.7c0.8-0.3,1.8-0.1,2.4,0.2c0.6,0.3,1.3,1.3,1.7,2.1
				c0.3,0.8,0.6,2.3,0.6,3.4c0,1-0.2,2.1-0.6,2.7c-0.4,0.6-1.1,1.1-2.1,1.2c-0.9,0.1-2.1-0.2-2.1-0.2s0,0.1,0,0.3
				c0.1,0.2,0.3,1.9,0.7,3.7c0.4,1.8,0.9,4.3,1.2,6c0.2,1.7,0,3.6-0.4,4.6c-0.4,1-1.2,2.4-2,3c-0.8,0.6-1.8,0.7-2.6,0.4
				c-0.8-0.3-1.5-0.9-2-1.8c-0.5-0.9-1-3-1.6-5.6c-0.6-2.6-1.5-6.3-2-8.8c-0.3-1.3-0.6-2.7-0.8-3.6c-0.2-0.8-0.3-1.3-0.3-1.3
				l-1.1-0.4c0,0-0.1,0-0.4,0.6c-0.3,0.5-0.6,1.6-0.6,2.8c0,1.2,0.6,3.5,1.2,6c0.6,2.5,1.6,7.2,1.9,8.9c0.4,1.8,1.4,6.3,1.7,7.9
				c0.3,1.6,0.8,3.4,0.9,4.7c0.1,1.3,0,2.5-0.2,3.3c-0.2,0.8-0.7,2.3-1.6,3.2c-0.1,0.1-0.3,0.2-0.4,0.4l0-0.1c-0.9,0.5-2,1-2.8,0.9
				c-0.9-0.1-1.6-0.6-2.3-1.6c-0.7-1-0.9-2.2-1.5-4.5c-0.6-2.3-1.7-6.8-2.2-9.4c-0.6-2.5-1.6-6.5-2.1-8.5c-0.4-2-1.2-4.7-1.6-6.5
				c-0.4-1.8-0.7-2.6-0.9-2.9c-0.1-0.3-0.2-0.4-0.5-0.3c-0.3,0.2-0.5,0.3-1,1.1c-0.6,0.9-0.7,1.8-0.7,2.9c0,1.1,0.3,2.7,0.8,4.4
				c0.4,1.8,1.6,7,2.2,9.3c0.6,2.3,1.7,7.2,1.7,7.2s1.6,6.6,2,8.6c0.5,2,1,4.3,1.1,5.7c0.1,1.4,0,3-0.4,4.1c-0.4,1.1-1.2,2.4-2.3,3
				c-1.1,0.6-2.1,0.8-3.2,0.4c-1-0.3-1.9-1.3-2.2-2.3c-0.4-1-1.3-4.3-1.3-4.3l-2.8-10.3c0,0-2.2-8-2.8-10.2c-0.6-2.2-1.4-5-1.6-5.6
				c-0.2-0.6-0.5-0.9-1-0.5c-0.5,0.4-0.7,0.5-1.3,1.6c-0.6,1.1-0.6,2.2-0.5,3.3c0.1,1.1,0.5,2.6,1,4.4c0.5,1.8,1.4,5.5,1.9,7.6
				c0.5,2,1.4,5.4,1.4,5.4s1.3,5,1.6,6.4c0.3,1.5,0.5,2.8,0.4,4.3c-0.1,1.5-0.8,2.9-1.2,3.5c-0.5,0.6-1.4,1.9-2.6,2.2
				c-1.2,0.3-2.5,0-3.2-0.6c-0.8-0.6-1.3-1.9-1.9-3.7c-0.5-1.7-1.3-5.1-1.3-5.1s-1.7-6-2.2-7.9c-0.6-2-0.9-2.7-1.1-3.1
				c-0.2-0.4-0.5-0.4-0.9,0c-0.5,0.4-0.8,0.7-1.3,1.8c-0.5,1.1-0.4,1.8-0.3,3.1c0.2,1.3,1,3.7,1.6,5.7c0.6,2,1.3,4.6,1.6,5.9
				c0.2,1.3,0.1,3-0.4,4.3c-0.1,0.2-0.2,0.4-0.3,0.7h52.1c4.7,0,8.6-3.8,8.6-8.6v-65C133.9,3.8,130,0,125.3,0"/>
			<path fill-rule="evenodd" clip-rule="evenodd" fill="#A61E2F" d="M84.8,17.8c-1.3-0.3-2.5-0.5-3.9-0.3c-1.5,0.2-9.2,1.3-9.2,1.3
				s-11.5,1.7-14.2,2.1c-2.7,0.4-13.7,2-13.7,2s-8.6,1.3-10.6,1.5c-2,0.2-3.5,0-4.6-0.2c-1-0.2-1.8-0.5-1.8-0.5s1,0.7,1.5,1.5
				c0.5,0.8,0.7,1.8,0.8,3c0.1,1.2,0.1,9.7,0.1,9.8c0,0.1,0.1,9.7,0.1,9.7s0,4.7,0.1,5.7c0,1,0,2,0.2,2.3c0.2,0.3,0.7,0.9,1.8,1.6
				c1.1,0.6,6.6,3.5,6.6,3.5l10,5.2c0,0,10.6,5.6,12.3,6.6c1.7,1,3.3,1.9,4.3,3c1,1.1,1.9,2.4,2.5,3.7c0.6,1.3,0.9,2.5,1.1,2.8
				c0,0.1,0.1,0.1,0.1,0.2h0.9c0.5-0.4,0.9-0.8,1.2-1.8c0.4-1,0.2-2.4,0-3.4c-0.2-1-1-3.5-1.4-4.9c-0.4-1.4-1-3.5-1.3-4.6
				c-0.3-1.1-0.6-2.8-0.3-4.3c0.2-1.5,0.8-3,1.9-4.2c1.1-1.2,2.3-1.7,3.2-1.7c1.1-0.1,2,0.4,2.8,1.5c0.9,1.2,1.2,2.4,1.6,3.7
				c0.4,1.2,2.3,8.4,2.3,8.4s1.1,4.2,1.5,5.4c0.4,1.2,0.5,1.8,0.7,1.9c0.1,0.1,0.3,0.1,0.8-0.3c0.5-0.4,0.9-1.1,1.1-1.7
				c0.2-0.6,0.4-2,0.2-2.9c-0.1-0.8-1.1-4.6-1.1-4.6s-1-3.8-1.3-4.9c-0.3-1.3-1.3-5.2-2-7.7c-0.7-2.5-1.4-5.6-1.7-6.9
				c-0.3-1.4-0.5-3.5-0.1-5c0.4-1.4,1.2-2.8,2.4-3.8c1.2-1,2.5-1.2,3.6-1c1.2,0.3,2,1.4,2.6,2.7c0.5,1.2,1.2,3.9,1.9,6.3
				c0.7,2.4,2.3,8.3,3,11c0.7,2.8,1.9,6.7,2.4,8.8c0.6,2.1,1,3.8,1.3,4.4c0.3,0.6,0.7,0.5,1.3-0.1c0.6-0.6,1-1.5,1.1-2.5
				c0.1-1,0-2.3-0.3-3.4c-0.3-1.2-1.7-7-1.7-7l-2-8.6l-1.9-8.1c0,0-1.4-6-1.6-7.1c-0.3-1.1-0.6-2.8-0.2-4.6c0.4-1.8,1-3.1,2.1-4.1
				c1.1-1,2.3-1.2,3.4-1.1c1.1,0.2,1.9,1.1,2.4,2.1c0.5,1.1,1.5,5.2,1.5,5.2l1.7,7.5c0,0,1.3,5.6,2,8.5c0.7,3,1.8,7.6,2.1,8.7
				c0.3,1.1,0.5,1.7,0.7,1.9c0.1,0.2,0.6-0.1,1-0.5c0.3-0.4,0.8-1.3,0.9-2c0.1-0.8,0.2-1.8,0-2.7c-0.2-0.9-0.7-2.9-0.7-2.9
				s-0.8-3.8-1.3-6c-0.5-2.2-1.9-8.5-1.9-8.5s-1.1-5-1.5-6.8c-0.4-1.8-0.5-3.8-0.3-5.1c0.3-1.3,0.7-2.1,0.7-2.1s-1.2-0.4-2.5-0.8
				l0,0c-2.2-0.7-4.7-1.5-6.4-2.1C89.5,19.2,86.1,18.1,84.8,17.8"/>
			<path fill-rule="evenodd" clip-rule="evenodd" fill="#A61E2F" d="M64.1,79.8c-0.5-1.2-1.1-1.8-1.9-2.5c-0.7-0.7-2.4-1.6-4.9-3
				c-2.5-1.4-8.2-4.4-10.4-5.6c-2.6-1.4-5.6-3.1-8-4.3c-2.4-1.2-7.7-4-9.4-5c-1.7-1-2.5-2.2-2.8-3.4c-0.3-1.1-0.2-3.9-0.2-3.9
				s0-10.7,0-13.7c0-3,0.1-9.6-0.2-10.9c-0.2-1.3-0.8-1.5-1.8-2c-1-0.5-4.7-2-4.7-2s-0.7,0.6-1.6,1.1c-0.9,0.5-2.1,0.6-2.8,0.4
				c-0.7-0.1-3-1.1-3-1.1s-0.2,0-0.8-0.1c-0.6-0.1-1.4-0.8-1.4-0.8L6.2,21L0,18.3v55.2c0,4.7,3.8,8.6,8.6,8.6H65
				C64.7,81.5,64.4,80.7,64.1,79.8"/>
			<path fill-rule="evenodd" clip-rule="evenodd" fill="#A61E2F" d="M112.6,38.6c0.5,2.2,0.7,3.2,0.9,3.7c0.2,0.5,0.3,0.5,0.5,0.3
				c0.2-0.2,0.6-0.7,0.8-1.3c0.3-0.6,0.4-1.3,0.4-2.2c0-0.9,0-1.7-0.4-3.1c-0.3-1.4-0.9-4.4-1.3-6.4c-0.4-2-0.5-2.3-0.5-2.6
				c0-0.3-0.1-0.4-0.1-0.4l-3.3-1.1l1.6,7.2C111.3,32.8,112.1,36.4,112.6,38.6"/>
			<path fill-rule="evenodd" clip-rule="evenodd" fill="#A61E2F" d="M118,24.6c0.1-0.4,0.2-1-0.1-1.9c-0.2-1-0.4-1.3-0.4-1.4
				c-0.1-0.1,0-0.3-0.5,0.2c-0.4,0.4-0.8,1.2-0.9,1.8c-0.1,0.6-0.2,1.3-0.2,1.3s1.3,0.2,1.6,0.3C117.8,24.9,117.9,25,118,24.6"/>
		</g>
	</g>
</g>
</svg>
