<?xml version="1.0" encoding="utf-8"?>
<!-- Generator: Adobe Illustrator 18.0.0, SVG Export Plug-In . SVG Version: 6.00 Build 0)  -->
<!DOCTYPE svg PUBLIC "-//W3C//DTD SVG 1.1//EN" "http://www.w3.org/Graphics/SVG/1.1/DTD/svg11.dtd">
<svg version="1.1" id="Layer_1" xmlns="http://www.w3.org/2000/svg" xmlns:xlink="http://www.w3.org/1999/xlink" x="0px" y="0px"
	 viewBox="0 0 360.602 67.752" enable-background="new 0 0 360.602 67.752" xml:space="preserve">
<g>
	
		<rect x="21.899" y="4.962" transform="matrix(0.7071 -0.7071 0.7071 0.7071 -2.0561 28.9137)" fill="#72CDF4" width="23.954" height="23.954"/>
	
		<rect x="38.836" y="21.9" transform="matrix(0.7071 -0.7071 0.7071 0.7071 -9.0712 45.8531)" fill="#13B5EA" width="23.955" height="23.954"/>
	
		<rect x="21.899" y="38.839" transform="matrix(0.7072 -0.7071 0.7071 0.7072 -26.0091 38.8333)" fill="#026CB6" width="23.954" height="23.954"/>
	
		<rect x="4.961" y="21.899" transform="matrix(0.7071 -0.7071 0.7071 0.7071 -18.994 21.9012)" fill="#009AC7" width="23.954" height="23.955"/>
</g>
<g>
	<path fill="#1C2D37" d="M90.679,16.442h8.797l9.751,15.686l9.75-15.686h8.797v37.096h-8.108V29.32l-10.439,15.845h-0.212
		L98.681,29.479v24.059h-8.002V16.442z"/>
	<path fill="#1C2D37" d="M135.517,16.442h27.98v7.26h-19.873v7.525h17.488v7.261h-17.488v7.79h20.138v7.26h-28.246V16.442z"/>
	<path fill="#1C2D37" d="M170.072,16.442h14.467c11.658,0,19.714,8.002,19.714,18.441v0.106c0,10.439-8.056,18.548-19.714,18.548
		h-14.467V16.442z M178.233,23.809v22.363h6.307c6.677,0,11.182-4.505,11.182-11.075V34.99c0-6.571-4.505-11.182-11.182-11.182
		H178.233z"/>
	<path fill="#1C2D37" d="M220.208,16.177h7.525l15.897,37.361H235.1l-3.392-8.32h-15.687l-3.392,8.32h-8.32L220.208,16.177z
		 M228.793,38.011l-4.929-12.029l-4.928,12.029H228.793z"/>
	<path fill="#1C2D37" d="M247.505,16.442h8.161v29.677h18.495v7.419h-26.656V16.442z"/>
	<path fill="#1C2D37" d="M278.245,16.442h8.161v29.677h18.495v7.419h-26.656V16.442z"/>
	<path fill="#1C2D37" d="M309.144,16.442h8.161v37.096h-8.161V16.442z"/>
	<path fill="#1C2D37" d="M337.179,16.177h7.525l15.897,37.361h-8.531l-3.392-8.32h-15.687l-3.392,8.32h-8.32L337.179,16.177z
		 M345.764,38.011l-4.929-12.029l-4.928,12.029H345.764z"/>
</g>
</svg>
