<?xml version="1.0" encoding="utf-8"?>
<!-- Generator: Adobe Illustrator 18.0.0, SVG Export Plug-In . SVG Version: 6.00 Build 0)  -->
<!DOCTYPE svg PUBLIC "-//W3C//DTD SVG 1.1//EN" "http://www.w3.org/Graphics/SVG/1.1/DTD/svg11.dtd">
<svg version="1.1" id="Layer_1" xmlns="http://www.w3.org/2000/svg" xmlns:xlink="http://www.w3.org/1999/xlink" x="0px" y="0px"
	 viewBox="0 0 252.9 49.2" enable-background="new 0 0 252.9 49.2" xml:space="preserve">
<g>
	<rect x="26.2" y="32.4" fill="#8A8A8D" width="4.1" height="16.1"/>
	<path fill="#8A8A8D" d="M62.9,37c-0.2-0.1-1.5-0.9-3.4-0.9c-2.6,0-4.4,1.8-4.4,4.3c0,2.4,1.7,4.3,4.4,4.3c1.9,0,3.2-0.8,3.4-0.9
		v4.3c-0.5,0.1-1.9,0.6-3.7,0.6c-4.6,0-8.6-3.1-8.6-8.3c0-4.8,3.6-8.3,8.6-8.3c1.9,0,3.3,0.5,3.7,0.6V37z"/>
	<path fill="#8A8A8D" d="M20.6,37c-0.2-0.1-1.5-0.9-3.4-0.9c-2.6,0-4.4,1.8-4.4,4.3c0,2.4,1.7,4.3,4.4,4.3c1.9,0,3.2-0.8,3.4-0.9
		v4.3c-0.5,0.1-1.9,0.6-3.7,0.6c-4.6,0-8.6-3.1-8.6-8.3c0-4.8,3.6-8.3,8.6-8.3c1.9,0,3.3,0.5,3.7,0.6V37z"/>
	<path fill="#8A8A8D" d="M75.7,36.2c-2.4,0-4.2,1.9-4.2,4.2c0,2.3,1.8,4.2,4.2,4.2c2.4,0,4.2-1.9,4.2-4.2
		C79.9,38.1,78.1,36.2,75.7,36.2 M84.2,40.4c0,4.6-3.5,8.3-8.5,8.3c-4.9,0-8.5-3.7-8.5-8.3c0-4.6,3.5-8.3,8.5-8.3
		C80.6,32.1,84.2,35.8,84.2,40.4"/>
	<path fill="#8A8A8D" d="M45.6,36.1c-0.1,0-1.8-0.5-3.2-0.5c-1.6,0-2.5,0.5-2.5,1.3c0,1,1.2,1.3,1.9,1.5l1.1,0.4
		c2.6,0.8,3.8,2.6,3.8,4.6c0,4-3.6,5.4-6.7,5.4c-2.2,0-4.2-0.4-4.4-0.4v-3.7c0.4,0.1,2.1,0.6,3.8,0.6c2,0,2.9-0.6,2.9-1.5
		c0-0.8-0.8-1.3-1.8-1.6c-0.2-0.1-0.6-0.2-0.9-0.3c-2.3-0.7-4.1-2-4.1-4.7c0-3,2.2-5,6-5c2,0,3.8,0.5,4,0.5V36.1z"/>
	<path fill="#8A8A8D" d="M4,15.1c0-1.1-0.9-2-2-2c-1.1,0-2,0.9-2,2v4.2c0,1.1,0.9,2,2,2c1.1,0,2-0.9,2-2V15.1z"/>
	<path fill="#8A8A8D" d="M15.1,9.6c0-1.1-0.9-2-2-2c-1.1,0-2,0.9-2,2v9.8c0,1.1,0.9,2,2,2c1.1,0,2-0.9,2-2V9.6z"/>
	<path fill="#8A8A8D" d="M26.1,2c0-1.1-0.9-2-2-2c-1.1,0-2,0.9-2,2v21.3c0,1.1,0.9,2,2,2c1.1,0,2-0.9,2-2V2z"/>
	<path fill="#8A8A8D" d="M37.2,9.6c0-1.1-0.9-2-2-2c-1.1,0-2,0.9-2,2v9.8c0,1.1,0.9,2,2,2c1.1,0,2-0.9,2-2V9.6z"/>
	<path fill="#8A8A8D" d="M48.3,15.1c0-1.1-0.9-2-2-2c-1.1,0-2,0.9-2,2v4.2c0,1.1,0.9,2,2,2c1.1,0,2-0.9,2-2V15.1z"/>
	<path fill="#8A8A8D" d="M59.3,9.6c0-1.1-0.9-2-2-2c-1.1,0-2,0.9-2,2v9.8c0,1.1,0.9,2,2,2c1.1,0,2-0.9,2-2V9.6z"/>
	<path fill="#8A8A8D" d="M70.4,2c0-1.1-0.9-2-2-2c-1.1,0-2,0.9-2,2v21.3c0,1.1,0.9,2,2,2c1.1,0,2-0.9,2-2V2z"/>
	<path fill="#8A8A8D" d="M81.5,9.6c0-1.1-0.9-2-2-2c-1.1,0-2,0.9-2,2v9.8c0,1.1,0.9,2,2,2c1.1,0,2-0.9,2-2V9.6z"/>
	<path fill="#8A8A8D" d="M92.5,15.1c0-1.1-0.9-2-2-2c-1.1,0-2,0.9-2,2v4.2c0,1.1,0.9,2,2,2c1.1,0,2-0.9,2-2V15.1z"/>
</g>
<g>
	<path fill="#66B245" d="M134.7,48.5l-12.5-31v31h-2.6V14h4l12.7,31.6l12-31.6h3.8v34.5h-2.6V17.8l-11.8,30.7H134.7z"/>
	<path fill="#66B245" d="M179.7,41.7c-1.2,4.6-5,7.5-10.3,7.5c-6.7,0-11.8-4.6-11.8-13.2c0-8.5,4.9-13.2,11.3-13.2
		c6.4,0,11.2,4.3,11.2,13.8h-20c0.2,7.1,4.3,10.3,9.2,10.3c3.7,0,6.6-2,7.6-5.3H179.7z M160.2,34.5h17.2c-0.3-6.4-3.9-9.5-8.6-9.5
		C164.3,25,160.7,28.3,160.2,34.5z"/>
	<path fill="#66B245" d="M186.1,48.5V23.6h2.1l0.4,4.8c1.3-3.8,3.9-5.5,7-5.5c1,0,2,0.2,2.6,0.4v2.5c-0.9-0.2-1.7-0.4-2.7-0.4
		c-3.6,0-6.7,3.5-6.7,9.5v13.6H186.1z"/>
	<path fill="#66B245" d="M201.4,30.1c0.4-4.3,4.2-7.2,9.7-7.2c5.6,0,9.2,3.1,9.2,8.2v17.4h-2.1l-0.4-4.1c-1.5,2.6-4.4,4.8-8.8,4.8
		c-4.8,0-8.3-2.6-8.3-7c0-4.3,2.6-6.8,9.6-8l7.5-1.2v-2.2c0-3.6-2.5-5.8-6.8-5.8c-4,0-6.5,2.1-6.8,5.1H201.4z M217.8,39.6V35
		l-6.7,1.1c-5.9,1-7.7,2.9-7.7,5.8c0,3.3,2.6,5,6.3,5C213.7,47,217.8,44,217.8,39.6z"/>
	<path fill="#66B245" d="M227,48.5V14h2.6v19.7l11.9-10.1h3.5l-12.8,10.9l14.4,14h-3.5l-13.5-13.2v13.2H227z"/>
	<path fill="#66B245" d="M249.8,17.6V14h3.1v3.5H249.8z M250,48.5V23.6h2.6v24.9H250z"/>
</g>
</svg>
