<?xml version="1.0" encoding="utf-8"?>
<!-- Generator: Adobe Illustrator 18.0.0, SVG Export Plug-In . SVG Version: 6.00 Build 0)  -->
<!DOCTYPE svg PUBLIC "-//W3C//DTD SVG 1.1//EN" "http://www.w3.org/Graphics/SVG/1.1/DTD/svg11.dtd">
<svg version="1.1" xmlns="http://www.w3.org/2000/svg" xmlns:xlink="http://www.w3.org/1999/xlink" x="0px" y="0px"
	 viewBox="0 0 514.1 301.5" enable-background="new 0 0 514.1 301.5" xml:space="preserve">
<g id="Layer_1">
	<g display="none">
		<path display="inline" d="M168,3.2c3.6,1.6,6.7,3.7,9.2,6.2c2.6,2.6,4.7,5.7,6.2,9.3c1.6,3.6,2.4,7.4,2.4,11.4v141
			c0,1.3-0.5,2.5-1.4,3.4c-0.9,0.9-2,1.4-3.4,1.4h-34.8c-1.3,0-2.4-0.5-3.2-1.4c-0.8-0.9-1.2-2-1.2-3.4V43.3h-28V171
			c0,1.3-0.4,2.5-1.2,3.4c-0.8,0.9-1.9,1.4-3.2,1.4H77.8c-1.3,0-2.5-0.5-3.4-1.4c-0.9-0.9-1.4-2-1.4-3.4V43.3h-28V171
			c0,3.2-1.6,4.8-4.8,4.8H5.8c-3.2,0-4.8-1.6-4.8-4.8V5.5c0-3.2,1.6-4.8,4.8-4.8h150.8C160.6,0.8,164.4,1.6,168,3.2z"/>
		<path display="inline" d="M338.1,133.3c1.3,0,2.4,0.5,3.2,1.4c0.8,0.9,1.2,2,1.2,3.4v33c0,1.3-0.4,2.5-1.2,3.4
			c-0.8,0.9-1.9,1.4-3.2,1.4h-108c-3.2,0-4.8-1.6-4.8-4.8V5.5c0-3.2,1.6-4.8,4.8-4.8h34.5c3.2,0,4.8,1.6,4.8,4.8v123.2
			c0,1.3,0.5,2.4,1.4,3.2c0.9,0.8,2,1.2,3.4,1.2H338.1z"/>
		<path display="inline" d="M508.6,0.8c1.3,0,2.5,0.5,3.4,1.4c0.9,0.9,1.4,2,1.4,3.4V171c0,1.3-0.5,2.5-1.4,3.4
			c-0.9,0.9-2,1.4-3.4,1.4h-34.8c-1.3,0-2.5-0.5-3.4-1.4c-0.9-0.9-1.4-2-1.4-3.4v-57.7c0-1.3-0.4-2.4-1.2-3.2
			c-0.8-0.8-1.9-1.2-3.2-1.2h-48.7c-1.3,0-2.5,0.4-3.4,1.2c-0.9,0.8-1.4,1.9-1.4,3.2V171c0,3.2-1.6,4.8-4.8,4.8h-34.5
			c-3.2,0-4.8-1.6-4.8-4.8V5.5c0-3.2,1.6-4.8,4.8-4.8h34.5c3.2,0,4.8,1.6,4.8,4.8v56c0,3.2,1.6,4.8,4.8,4.8h48.7
			c1.3,0,2.4-0.5,3.2-1.4c0.8-0.9,1.2-2,1.2-3.4v-56c0-1.3,0.5-2.5,1.4-3.4c0.9-0.9,2-1.4,3.4-1.4H508.6z"/>
	</g>
	<g id="H">
		<g id="Layer_9">
		</g>
		<g id="Layer_10">
		</g>
		<g id="Layer_11">
		</g>
	</g>
	<g id="L">
		<g id="Layer_6">
		</g>
		<g id="Layer_7">
		</g>
	</g>
	<g id="M">
		<g id="Layer_2">
		</g>
		<g id="Layer_4">
		</g>
	</g>
	<g id="Major_League_Hacking">
		<g>
			<path fill="#FDEE00" d="M508.6,0.3c1.3,0,2.5,0.5,3.4,1.4c0.9,0.9,1.4,2,1.4,3.4v165.5c0,1.3-0.5,2.5-1.4,3.4
				c-0.9,0.9-2,1.4-3.4,1.4h-34.8c-1.3,0-2.5-0.5-3.4-1.4c-0.9-0.9-1.4-2-1.4-3.4v-57.8c0-1.3-0.4-2.4-1.2-3.2
				c-0.8-0.8-1.9-1.2-3.2-1.2h-48.7c-1.3,0-2.5,0.4-3.4,1.2c-0.9,0.8-1.4,1.9-1.4,3.2v57.8c0,3.2-1.6,4.8-4.8,4.8h-34.5
				c-3.2,0-4.8-1.6-4.8-4.8V5c0-3.2,1.6-4.8,4.8-4.8h34.5c3.2,0,4.8,1.6,4.8,4.8v56c0,3.2,1.6,4.8,4.8,4.8h48.7
				c1.3,0,2.4-0.5,3.2-1.4c0.8-0.9,1.2-2,1.2-3.4V5c0-1.3,0.5-2.5,1.4-3.4c0.9-0.9,2-1.4,3.4-1.4H508.6z"/>
			<path fill="#ECC700" d="M411.1,112.8v57.8c0,3.2-1.6,4.8-4.8,4.8h-34.5c-3.2,0-4.8-1.6-4.8-4.8V5c0-3.2,1.6-4.8,4.8-4.8h34.5
				c3.2,0,4.8,1.6,4.8,4.8v56C411.1,64.2,411.1,111.4,411.1,112.8z"/>
			<path fill="#ECC700" d="M508.6,0.3c1.3,0,2.5,0.5,3.4,1.4c0.9,0.9,1.4,2,1.4,3.4v165.5c0,1.3-0.5,2.5-1.4,3.4
				c-0.9,0.9-2,1.4-3.4,1.4h-34.8c-1.3,0-2.5-0.5-3.4-1.4c-0.9-0.9-1.4-2-1.4-3.4v-57.8c0-1.3,0-50.4,0-51.7V5
				c0-1.3,0.5-2.5,1.4-3.4c0.9-0.9,2-1.4,3.4-1.4H508.6z"/>
			<path fill="#265A8F" d="M338.1,132.5c1.3,0,2.4,0.5,3.2,1.4c0.8,0.9,1.2,2,1.2,3.4v33c0,1.3-0.4,2.5-1.2,3.4
				c-0.8,0.9-1.9,1.4-3.2,1.4h-108c-3.2,0-4.8-1.6-4.8-4.8V4.8c0-3.2,1.6-4.8,4.8-4.8h34.5c3.2,0,4.8,1.6,4.8,4.8V128
				c0,1.3,0.5,2.4,1.4,3.2c0.9,0.8,2,1.2,3.4,1.2H338.1z"/>
			<path fill="#162F51" d="M269.1,175h-39c-3.2,0-4.8-1.6-4.8-4.8V4.8c0-3.2,1.6-4.8,4.8-4.8h34.5c3.2,0,4.8,1.6,4.8,4.8V128
				C269.3,129.3,269.1,175,269.1,175z"/>
			<path fill="#C53C02" d="M168,2.6c3.6,1.6,6.7,3.7,9.2,6.2c2.6,2.6,4.7,5.7,6.2,9.2c1.6,3.6,2.4,7.4,2.4,11.4v141
				c0,1.3-0.5,2.5-1.4,3.4c-0.9,0.9-2,1.4-3.4,1.4h-34.8c-1.3,0-2.4-0.5-3.2-1.4c-0.8-0.9-1.2-2-1.2-3.4V42.8h-28v127.8
				c0,1.3-0.4,2.5-1.2,3.4c-0.8,0.9-1.9,1.4-3.2,1.4H77.8c-1.3,0-2.5-0.5-3.4-1.4c-0.9-0.9-1.4-2-1.4-3.4V42.8h-28v127.8
				c0,3.2-1.6,4.8-4.8,4.8H5.8c-3.2,0-4.8-1.6-4.8-4.8V5c0-3.2,1.6-4.8,4.8-4.8h150.8C160.6,0.3,164.4,1.1,168,2.6z"/>
			<path fill="#751B00" d="M168,2.6c3.6,1.6,6.7,3.7,9.2,6.2c2.6,2.6,4.7,5.7,6.2,9.2c1.6,3.6,2.4,7.4,2.4,11.4v13l-44,0.3h-28H73.1
				h-28l-44-0.3V5c0-3.2,1.6-4.8,4.8-4.8h150.8C160.6,0.3,164.4,1.1,168,2.6z"/>
			<g>
				<path fill="#353535" d="M25.9,193.2c0.6,0.2,1,0.6,1.4,1c0.4,0.4,0.7,0.9,1,1.4c0.2,0.6,0.4,1.1,0.4,1.8v21.9
					c0,0.2-0.1,0.4-0.2,0.5c-0.1,0.1-0.3,0.2-0.5,0.2h-5.4c-0.2,0-0.4-0.1-0.5-0.2c-0.1-0.1-0.2-0.3-0.2-0.5v-19.8h-4.4v19.8
					c0,0.2-0.1,0.4-0.2,0.5c-0.1,0.1-0.3,0.2-0.5,0.2h-4.9c-0.2,0-0.4-0.1-0.5-0.2c-0.1-0.1-0.2-0.3-0.2-0.5v-19.8H6.8v19.8
					c0,0.5-0.2,0.7-0.7,0.7H0.7c-0.5,0-0.7-0.2-0.7-0.7v-25.7c0-0.5,0.2-0.7,0.7-0.7h23.4C24.8,192.8,25.4,193,25.9,193.2z"/>
				<path fill="#353535" d="M53.1,192.8c0.6,0,1.2,0.1,1.8,0.4c0.6,0.2,1,0.6,1.4,1c0.4,0.4,0.7,0.9,1,1.4c0.2,0.6,0.4,1.1,0.4,1.8
					v21.9c0,0.2-0.1,0.4-0.2,0.5c-0.1,0.1-0.3,0.2-0.5,0.2h-5.4c-0.2,0-0.4-0.1-0.5-0.2c-0.1-0.1-0.2-0.3-0.2-0.5v-7
					c0-0.2-0.1-0.4-0.2-0.5c-0.1-0.1-0.3-0.2-0.5-0.2h-7.7c-0.2,0-0.4,0.1-0.5,0.2c-0.1,0.1-0.2,0.3-0.2,0.5v7
					c0,0.5-0.2,0.7-0.7,0.7h-5.4c-0.5,0-0.7-0.2-0.7-0.7v-21.9c0-0.6,0.1-1.2,0.3-1.8c0.2-0.6,0.6-1,1-1.4c0.4-0.4,0.9-0.7,1.5-1
					c0.6-0.2,1.1-0.4,1.8-0.4H53.1z M50.8,205.8v-6.8h-9.1v6.8H50.8z"/>
				<path fill="#353535" d="M82.1,193c0.1,0.1,0.2,0.3,0.2,0.5v21.9c0,0.6-0.1,1.2-0.4,1.8c-0.2,0.6-0.6,1-1,1.5
					c-0.4,0.4-0.9,0.7-1.4,1c-0.6,0.2-1.1,0.4-1.8,0.4H66.1c-0.6,0-1.2-0.1-1.8-0.4c-0.6-0.2-1-0.6-1.5-1c-0.4-0.4-0.7-0.9-1-1.5
					c-0.2-0.6-0.4-1.1-0.4-1.8v-8.3c0-0.5,0.2-0.7,0.7-0.7h5.4c0.5,0,0.7,0.2,0.7,0.7v5.6c0,0.2,0.1,0.4,0.2,0.5
					c0.1,0.1,0.3,0.2,0.5,0.2h5.6c0.2,0,0.4-0.1,0.5-0.2c0.1-0.1,0.2-0.3,0.2-0.5v-19.2c0-0.2,0.1-0.4,0.2-0.5
					c0.1-0.1,0.3-0.2,0.5-0.2h5.4C81.8,192.8,81.9,192.9,82.1,193z"/>
				<path fill="#353535" d="M106.7,192.8c0.6,0,1.2,0.1,1.8,0.4c0.6,0.2,1,0.6,1.4,1c0.4,0.4,0.7,0.9,1,1.4c0.2,0.6,0.4,1.1,0.4,1.8
					v18.1c0,0.6-0.1,1.2-0.4,1.8c-0.2,0.6-0.6,1-1,1.5c-0.4,0.4-0.9,0.7-1.4,1c-0.6,0.2-1.1,0.4-1.8,0.4H92.9
					c-0.6,0-1.2-0.1-1.8-0.4c-0.6-0.2-1-0.6-1.5-1c-0.4-0.4-0.7-0.9-1-1.5c-0.2-0.6-0.3-1.1-0.3-1.8v-18.1c0-0.6,0.1-1.2,0.3-1.8
					c0.2-0.6,0.6-1,1-1.4c0.4-0.4,0.9-0.7,1.5-1c0.6-0.2,1.1-0.4,1.8-0.4H106.7z M104.3,199.4h-9.1v14h9.1V199.4z"/>
				<path fill="#353535" d="M140.6,219.4c0.1,0.2,0.1,0.3,0,0.4c-0.1,0.1-0.2,0.2-0.4,0.2H134c-0.2,0-0.4-0.1-0.6-0.2
					c-0.2-0.1-0.4-0.3-0.5-0.4l-4.1-7.4c-0.1-0.1-0.1-0.2-0.3-0.2h-4.6c-0.1,0-0.2,0.1-0.2,0.2v7.2c0,0.5-0.2,0.7-0.7,0.7h-5.4
					c-0.5,0-0.7-0.2-0.7-0.7v-25.7c0-0.5,0.2-0.7,0.7-0.7h17.6c0.6,0,1.2,0.1,1.8,0.4c0.6,0.2,1,0.6,1.4,1c0.4,0.4,0.7,0.9,1,1.4
					c0.2,0.6,0.4,1.1,0.4,1.8v10.2c0,1-0.3,1.9-0.9,2.7c-0.6,0.8-1.3,1.3-2.2,1.6l-0.1,0c-0.2,0.1-0.2,0.1-0.1,0.2l0,0.1
					L140.6,219.4z M132.9,199.2h-9.4v6.6h9.4V199.2z"/>
				<path fill="#353535" d="M177.2,213.4c0.2,0,0.4,0.1,0.5,0.2c0.1,0.1,0.2,0.3,0.2,0.5v5.1c0,0.2-0.1,0.4-0.2,0.5
					c-0.1,0.1-0.3,0.2-0.5,0.2h-16.8c-0.5,0-0.7-0.2-0.7-0.7v-25.7c0-0.5,0.2-0.7,0.7-0.7h5.4c0.5,0,0.7,0.2,0.7,0.7v19.2
					c0,0.2,0.1,0.4,0.2,0.5c0.1,0.1,0.3,0.2,0.5,0.2H177.2z"/>
				<path fill="#353535" d="M188.5,199.4v4.2c0,0.1,0.1,0.2,0.2,0.2h11.1c0.2,0,0.4,0.1,0.5,0.2c0.1,0.1,0.2,0.3,0.2,0.5v3.9
					c0,0.5-0.2,0.7-0.7,0.7h-11.1c-0.1,0-0.2,0.1-0.2,0.2v4.2c0,0.1,0.1,0.2,0.2,0.2h13c0.2,0,0.4,0.1,0.5,0.2
					c0.1,0.1,0.2,0.3,0.2,0.5v4.9c0,0.2-0.1,0.4-0.2,0.5c-0.1,0.1-0.3,0.2-0.5,0.2h-15.5c-0.6,0-1.2-0.1-1.8-0.4
					c-0.6-0.2-1-0.6-1.5-1c-0.4-0.4-0.7-0.9-1-1.5c-0.2-0.6-0.3-1.1-0.3-1.8v-18.1c0-0.6,0.1-1.2,0.3-1.8c0.2-0.6,0.6-1,1-1.4
					c0.4-0.4,0.9-0.7,1.5-1c0.6-0.2,1.1-0.4,1.8-0.4h15.5c0.2,0,0.4,0.1,0.5,0.2c0.1,0.1,0.2,0.3,0.2,0.5v4.9c0,0.2-0.1,0.4-0.2,0.5
					c-0.1,0.1-0.3,0.2-0.5,0.2h-13C188.5,199.2,188.5,199.2,188.5,199.4z"/>
				<path fill="#353535" d="M226.8,192.8c0.6,0,1.2,0.1,1.8,0.4c0.6,0.2,1,0.6,1.4,1c0.4,0.4,0.7,0.9,1,1.4c0.2,0.6,0.4,1.1,0.4,1.8
					v21.9c0,0.2-0.1,0.4-0.2,0.5c-0.1,0.1-0.3,0.2-0.5,0.2h-5.4c-0.2,0-0.4-0.1-0.5-0.2c-0.1-0.1-0.2-0.3-0.2-0.5v-7
					c0-0.2-0.1-0.4-0.2-0.5c-0.1-0.1-0.3-0.2-0.5-0.2h-7.7c-0.2,0-0.4,0.1-0.5,0.2c-0.1,0.1-0.2,0.3-0.2,0.5v7
					c0,0.5-0.2,0.7-0.7,0.7h-5.4c-0.5,0-0.7-0.2-0.7-0.7v-21.9c0-0.6,0.1-1.2,0.3-1.8c0.2-0.6,0.6-1,1-1.4c0.4-0.4,0.9-0.7,1.5-1
					c0.6-0.2,1.1-0.4,1.8-0.4H226.8z M224.5,205.8v-6.8h-9.1v6.8H224.5z"/>
				<path fill="#353535" d="M260.1,205.4c0.1,0.1,0.2,0.3,0.2,0.5v9.6c0,0.6-0.1,1.2-0.4,1.8c-0.2,0.6-0.6,1-1,1.5
					c-0.4,0.4-0.9,0.7-1.4,1c-0.6,0.2-1.1,0.4-1.8,0.4H242c-0.6,0-1.2-0.1-1.8-0.4c-0.6-0.2-1-0.6-1.5-1c-0.4-0.4-0.7-0.9-1-1.5
					c-0.2-0.6-0.4-1.1-0.4-1.8v-18.1c0-0.6,0.1-1.2,0.4-1.8c0.2-0.6,0.6-1,1-1.4c0.4-0.4,0.9-0.7,1.5-1c0.6-0.2,1.1-0.4,1.8-0.4h16
					c0.2,0,0.4,0.1,0.5,0.2c0.1,0.1,0.2,0.3,0.2,0.5v5.1c0,0.2-0.1,0.4-0.2,0.5c-0.1,0.1-0.3,0.2-0.5,0.2h-13
					c-0.2,0-0.4,0.1-0.5,0.2c-0.1,0.1-0.2,0.3-0.2,0.5v12.6c0,0.2,0.1,0.4,0.2,0.5c0.1,0.1,0.3,0.2,0.5,0.2h7.7
					c0.2,0,0.4-0.1,0.5-0.2c0.1-0.1,0.2-0.3,0.2-0.5v-6.8c0-0.2,0.1-0.4,0.2-0.5c0.1-0.1,0.3-0.2,0.5-0.2h5.4
					C259.7,205.2,259.9,205.3,260.1,205.4z"/>
				<path fill="#353535" d="M288.7,193c0.1,0.1,0.2,0.3,0.2,0.5v21.9c0,0.6-0.1,1.2-0.4,1.8c-0.2,0.6-0.6,1-1,1.5
					c-0.4,0.4-0.9,0.7-1.4,1c-0.6,0.2-1.1,0.4-1.8,0.4h-13.8c-0.6,0-1.2-0.1-1.8-0.4c-0.6-0.2-1-0.6-1.5-1c-0.4-0.4-0.7-0.9-1-1.5
					c-0.2-0.6-0.3-1.1-0.3-1.8v-21.9c0-0.5,0.2-0.7,0.7-0.7h5.4c0.5,0,0.7,0.2,0.7,0.7v19.2c0,0.2,0.1,0.4,0.2,0.5
					c0.1,0.1,0.3,0.2,0.5,0.2h7.7c0.2,0,0.4-0.1,0.5-0.2c0.1-0.1,0.2-0.3,0.2-0.5v-19.2c0-0.2,0.1-0.4,0.2-0.5
					c0.1-0.1,0.3-0.2,0.5-0.2h5.4C288.4,192.8,288.6,192.9,288.7,193z"/>
				<path fill="#353535" d="M301.8,199.4v4.2c0,0.1,0.1,0.2,0.2,0.2h11.1c0.2,0,0.4,0.1,0.5,0.2c0.1,0.1,0.2,0.3,0.2,0.5v3.9
					c0,0.5-0.2,0.7-0.7,0.7H302c-0.1,0-0.2,0.1-0.2,0.2v4.2c0,0.1,0.1,0.2,0.2,0.2h13c0.2,0,0.4,0.1,0.5,0.2
					c0.1,0.1,0.2,0.3,0.2,0.5v4.9c0,0.2-0.1,0.4-0.2,0.5c-0.1,0.1-0.3,0.2-0.5,0.2h-15.5c-0.6,0-1.2-0.1-1.8-0.4
					c-0.6-0.2-1-0.6-1.5-1c-0.4-0.4-0.7-0.9-1-1.5c-0.2-0.6-0.3-1.1-0.3-1.8v-18.1c0-0.6,0.1-1.2,0.3-1.8c0.2-0.6,0.6-1,1-1.4
					c0.4-0.4,0.9-0.7,1.5-1c0.6-0.2,1.1-0.4,1.8-0.4H315c0.2,0,0.4,0.1,0.5,0.2c0.1,0.1,0.2,0.3,0.2,0.5v4.9c0,0.2-0.1,0.4-0.2,0.5
					c-0.1,0.1-0.3,0.2-0.5,0.2h-13C301.9,199.2,301.8,199.2,301.8,199.4z"/>
				<path fill="#353535" d="M357.2,192.8c0.2,0,0.4,0.1,0.5,0.2c0.1,0.1,0.2,0.3,0.2,0.5v25.7c0,0.2-0.1,0.4-0.2,0.5
					c-0.1,0.1-0.3,0.2-0.5,0.2h-5.4c-0.2,0-0.4-0.1-0.5-0.2c-0.1-0.1-0.2-0.3-0.2-0.5v-9c0-0.2-0.1-0.4-0.2-0.5
					c-0.1-0.1-0.3-0.2-0.5-0.2h-7.7c-0.2,0-0.4,0.1-0.5,0.2c-0.1,0.1-0.2,0.3-0.2,0.5v9c0,0.5-0.2,0.7-0.7,0.7h-5.4
					c-0.5,0-0.7-0.2-0.7-0.7v-25.7c0-0.5,0.2-0.7,0.7-0.7h5.4c0.5,0,0.7,0.2,0.7,0.7v8.7c0,0.5,0.2,0.7,0.7,0.7h7.7
					c0.2,0,0.4-0.1,0.5-0.2c0.1-0.1,0.2-0.3,0.2-0.5v-8.7c0-0.2,0.1-0.4,0.2-0.5c0.1-0.1,0.3-0.2,0.5-0.2H357.2z"/>
				<path fill="#353535" d="M382.4,192.8c0.6,0,1.2,0.1,1.8,0.4c0.6,0.2,1,0.6,1.4,1c0.4,0.4,0.7,0.9,1,1.4c0.2,0.6,0.4,1.1,0.4,1.8
					v21.9c0,0.2-0.1,0.4-0.2,0.5c-0.1,0.1-0.3,0.2-0.5,0.2h-5.4c-0.2,0-0.4-0.1-0.5-0.2c-0.1-0.1-0.2-0.3-0.2-0.5v-7
					c0-0.2-0.1-0.4-0.2-0.5c-0.1-0.1-0.3-0.2-0.5-0.2h-7.7c-0.2,0-0.4,0.1-0.5,0.2c-0.1,0.1-0.2,0.3-0.2,0.5v7
					c0,0.5-0.2,0.7-0.7,0.7h-5.4c-0.5,0-0.7-0.2-0.7-0.7v-21.9c0-0.6,0.1-1.2,0.3-1.8c0.2-0.6,0.6-1,1-1.4c0.4-0.4,0.9-0.7,1.5-1
					c0.6-0.2,1.1-0.4,1.8-0.4H382.4z M380.1,205.8v-6.8h-9.1v6.8H380.1z"/>
				<path fill="#353535" d="M400,199.6c-0.1,0.1-0.2,0.3-0.2,0.5v12.6c0,0.2,0.1,0.4,0.2,0.5c0.1,0.1,0.3,0.2,0.5,0.2H413
					c0.2,0,0.4,0.1,0.5,0.2c0.1,0.1,0.2,0.3,0.2,0.5v5.1c0,0.2-0.1,0.4-0.2,0.5c-0.1,0.1-0.3,0.2-0.5,0.2h-8.1h-6.7h-0.7
					c-0.6,0-1.2-0.1-1.8-0.4c-0.6-0.2-1-0.6-1.5-1c-0.4-0.4-0.7-0.9-1-1.5c-0.2-0.6-0.3-1.1-0.3-1.8v-0.7v-2.8v-9v-2.5v-3
					c0-0.6,0.1-1.2,0.3-1.8c0.2-0.6,0.6-1,1-1.4c0.4-0.4,0.9-0.7,1.5-1c0.6-0.2,1.1-0.4,1.8-0.4h0.7H413c0.2,0,0.4,0.1,0.5,0.2
					c0.1,0.1,0.2,0.3,0.2,0.5v5.1c0,0.2-0.1,0.4-0.2,0.5c-0.1,0.1-0.3,0.2-0.5,0.2h-12.5C400.3,199.4,400.1,199.5,400,199.6z"/>
				<path fill="#353535" d="M435.4,204.3c-0.1,0.1-0.1,0.2,0,0.3l9.1,14.8c0.1,0.2,0.1,0.3,0,0.4c-0.1,0.1-0.2,0.2-0.4,0.2h-6.4
					c-0.2,0-0.4-0.1-0.6-0.2c-0.2-0.1-0.4-0.3-0.5-0.4l-5.9-10.6c-0.1-0.1-0.1-0.1-0.2,0l-3.2,3.5c-0.1,0.1-0.2,0.3-0.3,0.6
					c-0.1,0.2-0.1,0.5-0.1,0.7v5.7c0,0.5-0.2,0.7-0.7,0.7h-5.4c-0.5,0-0.7-0.2-0.7-0.7v-25.7c0-0.5,0.2-0.7,0.7-0.7h5.4
					c0.5,0,0.7,0.2,0.7,0.7v11.5l10-11.7c0.1-0.2,0.3-0.3,0.5-0.4c0.2-0.1,0.5-0.2,0.7-0.2h6.4c0.2,0,0.3,0.1,0.4,0.2
					c0,0.1,0,0.2-0.1,0.4L435.4,204.3z"/>
				<path fill="#353535" d="M456.3,219.3c0,0.5-0.2,0.7-0.7,0.7h-5.4c-0.5,0-0.7-0.2-0.7-0.7v-25.7c0-0.5,0.2-0.7,0.7-0.7h5.4
					c0.5,0,0.7,0.2,0.7,0.7V219.3z"/>
				<path fill="#353535" d="M482.5,193.2c0.6,0.2,1,0.6,1.4,1c0.4,0.4,0.7,0.9,1,1.4c0.2,0.6,0.4,1.1,0.4,1.8v21.9
					c0,0.2-0.1,0.4-0.2,0.5c-0.1,0.1-0.3,0.2-0.5,0.2h-5.4c-0.2,0-0.4-0.1-0.5-0.2c-0.1-0.1-0.2-0.3-0.2-0.5v-19.1
					c0-0.2-0.1-0.4-0.2-0.5c-0.1-0.1-0.3-0.2-0.5-0.2H470c-0.2,0-0.4,0.1-0.5,0.2c-0.1,0.1-0.2,0.3-0.2,0.5v19.1
					c0,0.5-0.2,0.7-0.7,0.7h-5.4c-0.5,0-0.7-0.2-0.7-0.7v-25.7c0-0.5,0.2-0.7,0.7-0.7h17.6C481.3,192.8,481.9,193,482.5,193.2z"/>
				<path fill="#353535" d="M513.9,205.4c0.1,0.1,0.2,0.3,0.2,0.5v9.6c0,0.6-0.1,1.2-0.4,1.8c-0.2,0.6-0.6,1-1,1.5
					c-0.4,0.4-0.9,0.7-1.4,1c-0.6,0.2-1.1,0.4-1.8,0.4h-13.8c-0.6,0-1.2-0.1-1.8-0.4c-0.6-0.2-1-0.6-1.5-1c-0.4-0.4-0.7-0.9-1-1.5
					c-0.2-0.6-0.3-1.1-0.3-1.8v-18.1c0-0.6,0.1-1.2,0.3-1.8c0.2-0.6,0.6-1,1-1.4c0.4-0.4,0.9-0.7,1.5-1c0.6-0.2,1.1-0.4,1.8-0.4h16
					c0.2,0,0.4,0.1,0.5,0.2c0.1,0.1,0.2,0.3,0.2,0.5v5.1c0,0.2-0.1,0.4-0.2,0.5c-0.1,0.1-0.3,0.2-0.5,0.2h-13
					c-0.2,0-0.4,0.1-0.5,0.2c-0.1,0.1-0.2,0.3-0.2,0.5v12.6c0,0.2,0.1,0.4,0.2,0.5c0.1,0.1,0.3,0.2,0.5,0.2h7.7
					c0.2,0,0.4-0.1,0.5-0.2c0.1-0.1,0.2-0.3,0.2-0.5v-6.8c0-0.2,0.1-0.4,0.2-0.5c0.1-0.1,0.3-0.2,0.5-0.2h5.4
					C513.6,205.2,513.8,205.3,513.9,205.4z"/>
			</g>
		</g>
	</g>
</g>
<g id="Layer_14">
	<g>
		<g>
			<path fill="#353535" d="M81.8,270.6c0,2.5-0.9,4.4-2.6,5.8c-1.7,1.3-4.1,2-7.3,2h-4v10.8h-1.8v-26h6.4
				C78.7,263.1,81.8,265.6,81.8,270.6z M68,276.8h3.6c2.9,0,5.1-0.5,6.4-1.5s2-2.5,2-4.7c0-2-0.6-3.5-1.9-4.5
				c-1.2-1-3.1-1.5-5.7-1.5H68V276.8z"/>
			<path fill="#353535" d="M109.4,276.1c0,4.1-1,7.4-3.1,9.8s-4.9,3.6-8.5,3.6c-3.6,0-6.5-1.2-8.5-3.6s-3.1-5.7-3.1-9.8
				c0-4.1,1-7.4,3.1-9.8c2.1-2.4,4.9-3.6,8.5-3.6c3.6,0,6.5,1.2,8.5,3.6S109.4,271.9,109.4,276.1z M88.1,276.1
				c0,3.7,0.8,6.6,2.5,8.6c1.7,2,4,3.1,7.2,3.1c3.1,0,5.5-1,7.2-3c1.7-2,2.5-4.9,2.5-8.7c0-3.8-0.8-6.6-2.5-8.6c-1.7-2-4-3-7.2-3
				c-3.1,0-5.5,1-7.2,3S88.1,272.4,88.1,276.1z"/>
			<path fill="#353535" d="M136.1,289.1h-1.5l-5.7-20.1c-0.5-1.6-0.8-3-1.1-4.1c-0.2,1-0.5,2.2-0.8,3.6c-0.4,1.3-2.3,8.2-5.7,20.6
				h-1.5l-7.2-26h1.9l4.6,16.8c0.2,0.7,0.3,1.3,0.5,1.9c0.2,0.6,0.3,1.1,0.4,1.6c0.1,0.5,0.2,1,0.3,1.5c0.1,0.5,0.2,0.9,0.3,1.4
				c0.3-1.6,0.9-4.1,1.8-7.4l4.5-15.8h2l5.2,18.1c0.6,2.1,1,3.8,1.3,5.1c0.2-0.9,0.4-1.8,0.6-2.7c0.2-1,2.1-7.8,5.5-20.5h1.8
				L136.1,289.1z"/>
			<path fill="#353535" d="M162.1,289.1h-14.2v-26h14.2v1.7h-12.4v9.8h11.7v1.7h-11.7v11.2h12.4V289.1z"/>
			<path fill="#353535" d="M169.8,277.8v11.3H168v-26h6.2c3.2,0,5.6,0.6,7.2,1.8s2.3,3,2.3,5.4c0,1.7-0.5,3.2-1.4,4.4
				c-0.9,1.2-2.3,2.1-4.2,2.6l7.1,11.9H183l-6.7-11.3H169.8z M169.8,276.2h5c2.2,0,3.9-0.5,5.1-1.5s1.8-2.4,1.8-4.3
				c0-2-0.6-3.4-1.8-4.3c-1.2-0.9-3.1-1.4-5.8-1.4h-4.3V276.2z"/>
			<path fill="#353535" d="M203.9,289.1h-14.2v-26h14.2v1.7h-12.4v9.8h11.7v1.7h-11.7v11.2h12.4V289.1z"/>
			<path fill="#353535" d="M229.6,275.9c0,4.4-1.1,7.7-3.4,9.9c-2.3,2.2-5.7,3.4-10.1,3.4h-6.2v-26h7c4.2,0,7.3,1.1,9.5,3.3
				S229.6,271.7,229.6,275.9z M227.6,275.9c0-3.7-0.9-6.5-2.8-8.4c-1.9-1.9-4.7-2.8-8.3-2.8h-4.8v22.8h4.3
				C223.7,287.5,227.6,283.7,227.6,275.9z"/>
			<path fill="#353535" d="M245,263.1h7.1c3.2,0,5.6,0.5,7.1,1.6c1.5,1.1,2.3,2.7,2.3,5c0,1.5-0.5,2.8-1.4,3.8c-0.9,1-2.3,1.6-4,1.9
				v0.1c2.1,0.3,3.6,1,4.6,2c1,1,1.5,2.4,1.5,4.2c0,2.4-0.8,4.2-2.4,5.5c-1.6,1.3-3.8,1.9-6.8,1.9h-8V263.1z M246.9,274.7h5.7
				c2.4,0,4.2-0.4,5.3-1.2c1.1-0.8,1.7-2.1,1.7-3.8c0-1.7-0.6-3-1.9-3.8c-1.3-0.8-3.1-1.2-5.6-1.2h-5.3V274.7z M246.9,276.3v11.2
				h6.1c4.8,0,7.2-2,7.2-5.9c0-3.6-2.5-5.4-7.6-5.4H246.9z"/>
			<path fill="#353535" d="M273.9,277.3l7.6-14.2h2l-8.7,16v10.1h-1.9v-9.9l-8.7-16.1h2.1L273.9,277.3z"/>
		</g>
		<g>
			<g>
				<polygon fill="#ADB2B7" points="381.3,301.5 380,301.5 380,253.8 381.3,253.8 381.3,301.5 				"/>
				<g>
					<path fill="#0086CB" d="M340.7,256.4c-5.9,0-11.2,2.4-15,6.2l0,0c-3.8,3.9-6.2,9.2-6.2,15l0,0c0,5.9,2.4,11.2,6.2,15l0,0
						c3.9,3.8,9.2,6.2,15,6.2l0,0c5.9,0,11.2-2.4,15-6.2l0,0c3.8-3.9,6.2-9.2,6.2-15l0,0c0-5.9-2.4-11.2-6.2-15l0,0
						C351.9,258.8,346.6,256.4,340.7,256.4L340.7,256.4 M357.5,260.9L357.5,260.9 M340.7,253.8c13.2,0,23.9,10.7,23.9,23.9l0,0
						c0,13.2-10.7,23.9-23.9,23.9l0,0c-13.2,0-23.9-10.7-23.9-23.9l0,0C316.9,264.5,327.6,253.8,340.7,253.8L340.7,253.8
						 M323.9,260.9L323.9,260.9"/>
					<path fill="#0086CB" d="M329.4,277.5c0-1.4-0.9-2.2-2.2-2.2h-0.8v4.4h0.8C328.4,279.7,329.4,279,329.4,277.5L329.4,277.5z
						 M343.7,279l-5.9,4.6l-5.4-4.2c-0.8,1.9-2.6,3.2-4.8,3.2H323v-10.3h4.6c2.4,0,4.2,1.5,4.8,3.2l5.4-4.2l2,1.6l-4.9,3.9l0.9,0.7
						l4.9-3.9l2,1.6l-4.9,3.9l0.9,0.7l4.9-3.9v-3.6h3.6v7.3h3.6v3h-7.1V279L343.7,279z M355.3,279.6h3.6v3h-7.1v-10.3h3.6V279.6
						L355.3,279.6z"/>
				</g>
			</g>
			<g>
				<path fill="#007DC2" d="M422.8,291.9c-10.9,1-22.2-0.6-23.8-9.1c-0.8-4.2,1.1-8.6,3.7-11.4v-1.5c-4.6,4-7,9.1-5.6,15
					c1.8,7.7,11.5,12,26.4,10.6c5.9-0.6,13.6-2.5,18.9-5.4V286C437.5,288.8,429.5,291.2,422.8,291.9z M451.4,269.8
					c-2.6-12.6-27-13.4-42.8-3.8v1.1c15.7-8.1,38.1-8,40.1,3.6c0.7,3.8-1.5,7.8-5.3,10.1v3C448.1,282.1,452.8,276.6,451.4,269.8z"/>
				<path fill="#007DC2" d="M441.5,268h-2.9v12.7c0,1.5,0.7,2.8,2.9,3V268z"/>
				<path fill="#007DC2" d="M407.6,272.6h-2.9l0,8.3c0,1.5,0.7,2.8,2.9,3V272.6z"/>
				<rect x="404.7" y="268.4" fill="#007DC2" width="2.8" height="2.7"/>
				<path fill="#007DC2" d="M424.6,283.8c-2.3,0-3.3-1.6-3.3-3.2v-11h2.8v3h2.1v2.3h-2.1v5.5c0,0.6,0.3,1,1,1h1.2v2.4H424.6"/>
				<path fill="#007DC2" d="M429.8,279.1c0,1.4,0.9,2.5,2.5,2.5c1.3,0,1.9-0.3,2.6-1.1l1.7,1.7c-1.1,1.1-2.3,1.8-4.4,1.8
					c-2.7,0-5.3-1.5-5.3-5.8c0-3.7,2.3-5.8,5.2-5.8c3,0,4.8,2.4,4.8,5.6v1H429.8 M432.1,274.8c-1,0-1.7,0.5-2,1.2
					c-0.2,0.4-0.3,0.7-0.3,1.2h4.4C434.1,275.9,433.6,274.8,432.1,274.8z"/>
				<path fill="#007DC2" d="M415.2,274.9c0.8,0,1.2,0.4,1.2,1.1v7.8h2.8V276c0-1.6-0.8-3.3-3.3-3.3l-5.8,0v11.2h2.8v-8.9H415.2z"/>
				<g>
					<path fill="#007DC2" d="M444.5,270.3c-0.6,0-1.1-0.5-1.1-1.1c0-0.6,0.5-1.1,1.1-1.1c0.6,0,1.1,0.5,1.1,1.1
						C445.7,269.8,445.2,270.3,444.5,270.3z M444.5,268.2c-0.5,0-0.9,0.4-0.9,0.9c0,0.5,0.4,0.9,0.9,0.9c0.5,0,0.9-0.4,0.9-0.9
						C445.5,268.6,445.1,268.2,444.5,268.2z M445.1,269.8h-0.2c0,0,0,0,0,0l-0.3-0.5c0,0,0,0,0,0c0,0,0,0-0.1,0c0,0,0,0,0,0v0.5
						c0,0,0,0.1,0,0.1h-0.2c0,0,0,0,0-0.1v-1.2c0-0.1,0-0.1,0.1-0.1c0.1,0,0.2,0,0.3,0c0.4,0,0.6,0.1,0.6,0.4v0
						c0,0.2-0.1,0.3-0.3,0.4L445.1,269.8C445.1,269.7,445.1,269.8,445.1,269.8C445.1,269.8,445.1,269.8,445.1,269.8z M444.8,268.8
						c0-0.1-0.1-0.2-0.3-0.2c0,0-0.1,0-0.1,0c0,0,0,0,0,0v0.4c0,0,0.2,0,0.2,0C444.7,269,444.8,269,444.8,268.8L444.8,268.8z"/>
				</g>
			</g>
		</g>
	</g>
</g>
</svg>
