<?xml version="1.0" encoding="utf-8"?>
<!-- Generator: Adobe Illustrator 18.0.0, SVG Export Plug-In . SVG Version: 6.00 Build 0)  -->
<!DOCTYPE svg PUBLIC "-//W3C//DTD SVG 1.1//EN" "http://www.w3.org/Graphics/SVG/1.1/DTD/svg11.dtd">
<svg version="1.1" id="Layer_4" xmlns="http://www.w3.org/2000/svg" xmlns:xlink="http://www.w3.org/1999/xlink" x="0px" y="0px"
	 viewBox="0 0 402.1 114.6" enable-background="new 0 0 402.1 114.6" xml:space="preserve">
<linearGradient id="SVGID_1_" gradientUnits="userSpaceOnUse" x1="-221.7116" y1="-782.4094" x2="-257.0309" y2="-782.6506" gradientTransform="matrix(-0.9771 -0.323 0.2901 -0.8773 18.119 -701.0503)">
	<stop  offset="0.2308" style="stop-color:#9B9A75"/>
	<stop  offset="0.5632" style="stop-color:#9C9B77"/>
	<stop  offset="0.6829" style="stop-color:#A2A17E"/>
	<stop  offset="0.7683" style="stop-color:#ABAA89"/>
	<stop  offset="0.8373" style="stop-color:#B8B79A"/>
	<stop  offset="0.8964" style="stop-color:#CAC8B0"/>
	<stop  offset="0.9482" style="stop-color:#DFDDCB"/>
	<stop  offset="0.9944" style="stop-color:#F8F6EB"/>
	<stop  offset="1" style="stop-color:#FBF9EF"/>
</linearGradient>
<path fill="url(#SVGID_1_)" d="M27.6,111.7l-3-1c0,0,0.4-15.2-5.1-16.2c-3.6-4.2,0.6-178.5,13.7-0.6c0,0-4.5,2.3-5.3,6.1
	C27,103.8,27.6,111.7,27.6,111.7z"/>
<linearGradient id="SVGID_2_" gradientUnits="userSpaceOnUse" x1="-216.272" y1="-720.5948" x2="-267.0848" y2="-808.6052" gradientTransform="matrix(-0.9771 -0.323 0.2901 -0.8773 18.119 -701.0503)">
	<stop  offset="0" style="stop-color:#48A638"/>
	<stop  offset="1" style="stop-color:#3F9132"/>
</linearGradient>
<path fill="url(#SVGID_2_)" d="M29.2,97.1c0,0,26-17.1,19.9-52.8C43.3,18.4,29.4,9.9,27.9,6.7c-1.6-2.3-3.3-6.4-3.3-6.4l1.1,72.1
	C25.7,72.4,23.4,94.4,29.2,97.1z"/>
<linearGradient id="SVGID_3_" gradientUnits="userSpaceOnUse" x1="-211.617" y1="-783.8621" x2="-247.6342" y2="-759.6694" gradientTransform="matrix(-0.9771 -0.323 0.2901 -0.8773 18.119 -701.0503)">
	<stop  offset="0" style="stop-color:#41A334"/>
	<stop  offset="0.3523" style="stop-color:#4BA83D"/>
	<stop  offset="0.9557" style="stop-color:#67B655"/>
	<stop  offset="1" style="stop-color:#69B757"/>
</linearGradient>
<path fill="url(#SVGID_3_)" d="M23.1,98c0,0-24.4-16.7-23-46.1c1.4-29.4,18.7-43.8,22-46.5c2.2-2.3,2.3-3.2,2.4-5.5
	c1.5,3.3,1.3,48.8,1.4,54.2C26.6,74.9,24.8,94.1,23.1,98z"/>
<path fill="#94795D" d="M301.8,43.4c1.4,0,6.7,0.2,9.2,0.2c4.6,0,7.8-0.2,16.4-0.2c7.2,0,13.3,1.9,17.7,5.7
	c5.3,4.5,8.1,10.9,8.1,18.6c0,11-5,17.3-10,20.9c-5,3.7-11.5,5.8-20.8,5.8c-4.9,0-13.4-0.2-20.5-0.2h-0.1c-0.3-0.7,0.6-3.2,1.2-3.2
	c1.9-0.2,2.4-0.3,3.3-0.7c1.5-0.6,1.8-1.4,2-4.1c0.2-5,0.2-11,0.2-17.9c0-4.9,0.1-14.4-0.1-17.4c-0.2-2.5-1.3-3.2-3.5-3.7
	c-1.1-0.2-2.6-0.5-4.6-0.7C300.1,46,301.3,43.8,301.8,43.4z M318.2,88.5c1.7,1.4,5.2,1.9,8.2,1.9c3.9,0,7.8-0.7,11.6-4.1
	c3.9-3.5,6.5-8.9,6.5-17.4c0-8.2-3.1-14.9-9.5-18.8c-3.6-2.3-8.3-3.2-13.7-3.2c-1.6,0-3.1,0.1-4,0.5c-0.2,0.2-0.7,0.8-0.7,1.1
	c-0.2,1.5-0.2,12.6-0.2,19.2c0,6.7,0,16.2,0.2,17.3C316.6,86.1,317.1,87.8,318.2,88.5z"/>
<path fill="#94795D" d="M360.1,43.4c0.7,0,2.9,0.2,8.5,0.2c5.3,0,9.5-0.2,14.6-0.2c6.3,0,15.1,2.3,15.1,11.7c0,4.6-3.3,8.4-7.6,10.2
	c-0.2,0.1-0.2,0.2,0,0.3c6.1,1.5,11.4,5.3,11.4,12.4c0,7-4.4,11.4-10.7,14.1c-3.9,1.7-8.6,2.3-13.5,2.3c-3.7,0-13.6-0.4-19.1-0.3
	c-0.6-0.2,0.5-2.8,1-3.2c1.3-0.1,2.3-0.2,3.7-0.6c2-0.5,2.2-1.1,2.5-4c0.2-2.5,0.2-11.5,0.2-18c0-8.8,0.1-14.7,0-17.6
	c-0.1-2.3-0.9-3-2.5-3.4c-1.2-0.2-3.3-0.5-4.9-0.7C358.4,46.1,359.6,43.7,360.1,43.4z M393.6,79.8c0-7.1-5.3-11.2-14.9-11.2
	c-0.4,0-3.5-0.1-4.2,0.1c-0.2,0.1-0.5,0.2-0.5,0.4c0,5.1-0.1,13.3,0.2,16.6c0.2,1.4,1.2,3.3,2.4,3.9c1.3,0.7,4.3,0.9,6.3,0.9
	C388.6,90.5,393.6,87.3,393.6,79.8z M374.9,47.3c-0.3,0.1-0.7,0.9-0.7,1.3c-0.1,2.9-0.2,10.6-0.2,15.8c0,0.2,0.2,0.4,0.4,0.4
	c1.1,0.1,3.7,0.2,5.9,0.2c3.1,0,4.9-0.4,5.9-0.9c2.6-1.3,3.9-4.1,3.9-7.2c0-7.1-4.9-9.7-12.3-9.7C377.4,47.2,376,47.2,374.9,47.3z"
	/>
<path fill="#4E3629" d="M65.8,94.3c-0.1-0.2-0.3-0.9-0.3-1.6c0-0.6,0.1-1,0.3-1.1c1.6-0.2,2.3-0.4,3.2-0.6c1.5-0.4,2-1.1,2.1-3
	c0.2-4.4,0.3-12.6,0.2-18.4l0-0.2c0-0.6,0-1.5-0.8-2.1c-1.1-0.8-2.6-1.4-4.4-1.9c-0.7-0.2-1.1-0.6-1-1c0-0.4,0.5-0.9,1.4-1.1
	c2.4-0.2,8.6-1.7,11.1-2.9c0.1,0.2,0.4,0.6,0.3,1.2c0,0.3,0,0.5-0.1,0.8c-0.1,0.8-0.1,1.7-0.1,2.7c0,0.3,0.3,0.5,0.6,0.5
	c0.2,0,0.3-0.1,0.4-0.2c4.7-3.7,8.8-5,11-5c3.5,0,6.3,1.7,8.4,5.2c0.1,0.2,0.3,0.3,0.5,0.3c0.2,0,0.3-0.1,0.4-0.2
	c4.3-3.3,8.6-5.2,11.4-5.2c6.7,0,10.8,5,10.8,13.5c0,2.4,0,5.5,0,8.4c0,2.5,0,4.9,0,6.5c0,0.4,0.5,1.5,1.3,1.7c1,0.5,2.4,0.7,4.2,1
	l0.1,0c0.1,0.5-0.1,2.4-0.4,2.7c-0.4,0-1.1,0-1.8-0.1c-1.4-0.1-3.3-0.2-5.5-0.2c-4.5,0-6.8,0.1-9,0.2c-0.2-0.6-0.2-2.4,0-2.7
	c1.3-0.2,1.9-0.4,2.7-0.6c1.4-0.5,1.8-1.1,1.9-3c0-1.3,0.3-13.2-0.2-16c-0.4-2.9-2.6-6.3-7.4-6.3c-1.8,0-4.7,0.7-7.4,2.8
	c-0.2,0.2-0.3,0.5-0.3,0.7l0,0.1c0.3,1.5,0.3,3.3,0.3,6c0,1.5,0,3.1,0,4.7c0,3.3,0,6.3,0,8.7c0,1.6,1,2,1.7,2.3
	c0.4,0.1,0.8,0.2,1.1,0.3c0.6,0.2,1.3,0.3,2.3,0.5c0.1,0.3,0.1,1.2,0,2c-0.1,0.4-0.2,0.6-0.3,0.7c-2.5-0.1-5-0.2-8.7-0.2
	c-1.1,0-2.9,0-4.5,0.1c-1.3,0-2.5,0.1-3.2,0.1c-0.1-0.2-0.2-0.7-0.2-1.4c0-0.7,0.1-1.2,0.3-1.3c0.3-0.1,0.7-0.1,1-0.2
	c0.9-0.2,1.6-0.3,2.3-0.5c1.2-0.4,1.7-1,1.8-2.6c0.2-3.6,0.4-14-0.1-16.6c-0.9-4.2-3.3-6.3-7.1-6.3c-2.2,0-5.1,1.1-7.4,2.8
	c-0.4,0.3-0.7,1-0.7,1.7c0,1.2,0,2.7,0,4.3c0,5.2,0,11.7,0.1,14.6c0.1,0.9,0.4,1.9,2,2.3c0.4,0.1,1,0.2,1.7,0.3
	c0.4,0.1,0.9,0.1,1.3,0.2c0.2,0.4,0.1,2.2-0.2,2.7c-0.7,0-1.6,0-2.6-0.1c-1.5-0.1-3.5-0.2-5.6-0.2c-2.6,0-4.4,0.1-5.8,0.2
	C67.5,94.3,66.6,94.3,65.8,94.3L65.8,94.3z"/>
<path fill="#4E3629" d="M148.7,95.1c-12.4,0-16.8-9.1-16.8-17.5c0-5.9,2.4-10.5,7.2-13.8c3.4-2.1,7.5-3.3,11.1-3.3
	c9.4,0,16,6.8,16,16.5c0,6.6-2.6,11.8-7.6,15.1C156.3,93.5,152.1,95.1,148.7,95.1L148.7,95.1z M147.4,64c-1.5,0-2.9,0.4-3.9,1.1
	c-2.9,1.7-4.3,5.2-4.3,10.3c0,9.5,4.8,16.2,11.6,16.2c2,0,3.7-0.6,5-1.8c2.1-1.7,3.2-5.2,3.2-10.1C159,70.3,154.3,64,147.4,64
	L147.4,64z"/>
<path fill="#4E3629" d="M276.7,95.1c-12.4,0-16.8-9.1-16.8-17.5c0-5.9,2.4-10.5,7.2-13.8c3.4-2.1,7.5-3.3,11.1-3.3
	c9.4,0,16,6.8,16,16.5c0,6.6-2.6,11.8-7.6,15.1C284.3,93.5,280.1,95.1,276.7,95.1L276.7,95.1z M275.4,64c-1.5,0-2.9,0.4-3.9,1.1
	c-2.9,1.7-4.3,5.2-4.3,10.3c0,9.5,4.8,16.2,11.6,16.2c2,0,3.7-0.6,5-1.8c2.1-1.7,3.2-5.2,3.2-10.1C287,70.3,282.3,64,275.4,64
	L275.4,64z"/>
<path fill="#4E3629" d="M234,114.6c-4.4,0-7.6-0.9-10.4-3c-2.7-2-3.8-5.1-3.8-7.2c0-0.6,0.1-2.2,1.5-3.7c0.8-0.9,2.6-2.5,6.7-5.4
	c0.1,0,0.2-0.2,0.2-0.3c0-0.2-0.1-0.3-0.3-0.3c-3.4-1.3-4.4-3.4-4.7-4.6c0,0,0-0.1,0-0.2c-0.1-0.5-0.2-0.9,0.4-1.3
	c0.5-0.3,1.2-0.8,2.1-1.3c1.2-0.7,2.6-1.5,3.3-2.2c0.1-0.1,0.2-0.3,0.1-0.5c0-0.2-0.1-0.3-0.3-0.4c-5-1.7-7.6-5.4-7.6-11.1
	c0-3.7,1.7-7,4.7-9.1c2-1.6,7.1-3.5,10.4-3.5l0.2,0c3.4,0.1,5.3,0.8,8,1.8c1.4,0.5,2.8,0.7,4.7,0.7c2.8,0,4-0.9,5.1-1.9
	c0.1,0.1,0.2,0.5,0.3,1.5c0.1,0.9-0.2,2.3-0.9,3.3c-0.6,0.8-1.9,1.4-3.2,1.4c-0.1,0-0.2,0-0.4,0c-1.3-0.1-1.9-0.3-1.9-0.3l-0.3,0.1
	c-0.1,0.1,0,0.3,0,0.5c0,0,0,0.1,0,0.1c0.2,0.7,0.5,2.6,0.5,3.1c0,6-2.4,8.6-4.9,10.5c-2.4,1.8-5.3,2.9-8.5,3.3h0
	c-0.1,0-0.4,0-1,0.1c-0.4,0-0.9,0.1-1,0.1l-0.1,0c-0.6,0.2-2,0.8-2,2.1c0,1.1,0.7,2.4,3.8,2.6c0.6,0,1.3,0.1,2,0.1
	c4.1,0.3,9.3,0.6,11.7,1.5c3.3,1.2,5.4,4.2,5.4,7.8c0,5.4-3.8,10.4-10.2,13.5C240.6,113.9,237.4,114.6,234,114.6L234,114.6z
	 M233.5,95.7c-1.4,0-2.5,0.4-3.1,0.8c-3,1.9-4.4,3.9-4.4,6.1c0,2.1,0.8,3.8,2.6,5.2c2.1,1.8,5,2.7,8.7,2.7c7.4,0,10.7-4,10.7-7.9
	c0-2.7-1.4-4.6-4.2-5.6C241.6,96.2,238,95.7,233.5,95.7L233.5,95.7z M234,63.6c-3.8,0-6.3,3-6.3,7.7c0,4.7,2.1,10.2,8.1,10.2
	c1,0,2.9-0.5,3.8-1.5c1.4-1.3,2.3-3.9,2.3-6.7C241.9,67.3,239,63.6,234,63.6L234,63.6z"/>
<g>
	<g>
		<path fill="#4E3629" d="M213.9,91.4c-1.8-0.2-3.1-0.5-4.7-1.2c-0.2-0.2-0.6-0.9-0.6-1.1c-0.2-2.5-0.2-9.8-0.2-14.6
			c0-3.9-0.7-7.3-2.3-9.7c-2-2.8-4.8-4.4-8.4-4.4c-3.2,0-7.5,2.2-11,5.2c-0.1,0.1-0.6,0.6-0.6-0.2c0-0.8,0.1-2.4,0.2-3.4
			c0.1-1-0.5-1.5-0.5-1.5c-2.3,1.1-8.8,2.7-11.2,2.9c-1.8,0.3-2.3,2-0.3,2.6l0,0c0,0,0,0,0,0c1.9,0.6,3.3,1.2,4.2,1.9
			c0.7,0.6,0.7,1.4,0.7,2c0.1,5.4,0.1,13.8-0.2,18.4c-0.1,1.8-0.6,2.4-1.9,2.8l0.1,0c-1,0.2-1.8,0.4-3,0.6c-0.4,0.4-0.4,2.8,0,3.2
			c0.8,0,5-0.2,8.5-0.2c4.8,0,7.2,0.2,8.5,0.2c0.5-0.6,0.7-2.8,0.3-3.2c-1.4-0.1-2.4-0.2-3.4-0.5c-1.3-0.3-1.6-1-1.7-2.4
			c-0.2-3.8-0.2-11.9-0.2-17.5c0-1.5,0.4-2.3,0.9-2.7c1.6-1.5,4.4-2.4,6.7-2.4c2.3,0,3.9,0.7,5,1.7c1.6,1.3,2.1,3.2,2.3,4.5
			c0.3,3.1,0.2,9.3,0.2,14.6c0,2.9-0.2,3.7-1.3,4c-0.5,0.2-1.8,0.5-3.4,0.6c-0.5,0.5-0.3,2.8,0,3.2c2.1,0,4.6-0.2,8.2-0.2
			c4.5,0,7.4,0.2,8.6,0.2C214.1,94,214.3,91.9,213.9,91.4z"/>
	</g>
</g>
</svg>
