<?xml version="1.0" encoding="utf-8"?>
<!-- Generator: Adobe Illustrator 18.0.0, SVG Export Plug-In . SVG Version: 6.00 Build 0)  -->
<!DOCTYPE svg PUBLIC "-//W3C//DTD SVG 1.1//EN" "http://www.w3.org/Graphics/SVG/1.1/DTD/svg11.dtd">
<svg version="1.1" id="Layer_1" xmlns="http://www.w3.org/2000/svg" xmlns:xlink="http://www.w3.org/1999/xlink" x="0px" y="0px"
	 viewBox="0 0 110.9 47.6" enable-background="new 0 0 110.9 47.6" xml:space="preserve">
<path fill="#95A0A9" d="M105.3,15.6V8.4h-5.9V0h-7.2v8.4H77.7l0,0c-6.7,0-11.6,4.5-11.6,10.7c0,0.7,0.1,1.4,0.2,2.1
	C64.1,13.4,58,8.4,49.9,8.4c-9.9,0-17.5,7.7-18.1,18.1v-2.2c0-8.8-7.1-15.9-15.9-15.9C7.1,8.4,0,15.6,0,24.4v22.8h7.3V24.4
	c0-4.8,3.9-8.6,8.6-8.6c4.8,0,8.6,3.9,8.6,8.6v22.8h7.3V29.4c0.6,10.5,8.3,18.2,18.3,18.2c6.1,0,11.5-3.6,14.6-7.7
	c2.3,4.9,6.7,7.7,12.2,7.7c6.4,0,12.8-4.1,12.8-11.9c0-4.7-2.7-8.5-7.6-10.7c-0.6-0.3-1.1-0.5-1.6-0.8l-0.1,0
	c-0.6-0.3-1.1-0.5-1.7-0.8C75.6,22,74,20.9,74,18.8c0-1.9,1.7-3.2,3.7-3.2c0.3,0,12.7,0,14.5,0v20.3c0,6.5,5.3,11.7,11.7,11.7v-7.2
	c-2.5,0-4.5-2-4.5-4.5V15.6C102.3,15.6,104.6,15.6,105.3,15.6z M49.9,15.5c5.7,0,8.4,3.9,9.2,7.9H40.3
	C41.3,19.3,44.8,15.5,49.9,15.5z M78.7,32c2,0.9,3.2,2.5,3.2,4.4c0,2.5-1.9,3.9-5.1,3.9c-3.4,0-4.9-3-5.3-3.9L71,35.3h-6.3l0,0h-5.9
	c-1.6,2.7-4.8,5.1-8.6,5.1c-6.8,0-10.1-5.3-10.6-10.5h27.6v-1.1c0-2.2-0.2-4.2-0.6-6.1c0.8,2.4,2.6,4.9,6.4,6.7
	C74.5,30.1,76.5,31.1,78.7,32z"/>
<g>
	<path fill="#95A0A9" d="M108.7,47.6c-1.3,0-2.2-0.9-2.2-2.2c0-1.3,0.9-2.2,2.2-2.2s2.2,0.9,2.2,2.2C110.9,46.7,110,47.6,108.7,47.6
		z M108.7,43.7c-1,0-1.7,0.7-1.7,1.7c0,1,0.7,1.7,1.7,1.7c1,0,1.7-0.7,1.7-1.7C110.4,44.4,109.7,43.7,108.7,43.7z M109,46.5
		l-0.3-0.7h-0.3v0.7h-0.6v-2.2h0.9c0.5,0,0.8,0.3,0.8,0.7c0,0.3-0.1,0.5-0.3,0.6l0.4,0.8H109z M108.8,44.8h-0.3v0.5h0.3
		c0.2,0,0.3-0.1,0.3-0.2C109,44.9,108.9,44.8,108.8,44.8z"/>
</g>
</svg>
