<?xml version="1.0" encoding="UTF-8" standalone="no"?>
<svg
   xmlns:svg="http://www.w3.org/2000/svg"
   xmlns="http://www.w3.org/2000/svg"
   version="1.1"
   width="313.125"
   height="123.959"
   id="svg2816"
   xml:space="preserve"><defs
     id="defs2820"><clipPath
       id="clipPath2834"><path
         d="M 0,991.672 0,0 l 2505,0 0,991.672 -2505,0 z"
         id="path2836" /></clipPath></defs><g
     transform="matrix(1.25,0,0,-1.25,0,123.959)"
     id="g2826"><g
       transform="scale(0.1,0.1)"
       id="g2828"><g
         id="g2830"><g
           clip-path="url(#clipPath2834)"
           id="g2832"><path
             d="m 250,250 2005,0 0,491.672 -2005,0 L 250,250 z"
             id="path2838"
             style="fill:#f36418;fill-opacity:1;fill-rule:nonzero;stroke:none" /><path
             d="m 100,991.672 c -55,0 -100,-45 -100,-100 L 0,100 C 0,45 45,0 100,0 l 2305,0 c 55,0 100,45 100,100 l 0,791.672 c 0,55 -45,100 -100,100 l -2305,0"
             id="path2840"
             style="fill:#f36418;fill-opacity:1;fill-rule:nonzero;stroke:none" /><path
             d="m 317.281,390.527 c 0,-36.472 10.809,-54.05 44.59,-54.05 33.777,0 44.59,17.578 44.59,54.05 l 0,247.266 c 0,36.48 -10.813,54.043 -44.59,54.043 -33.781,0 -44.59,-17.563 -44.59,-54.043 l 0,-247.266 z M 233.512,639.82 c 0,68.907 40.531,124.981 128.359,124.981 87.824,0 128.359,-56.074 128.359,-124.981 l 0,-251.312 c 0,-68.918 -40.535,-124.992 -128.359,-124.992 -87.828,0 -128.359,56.074 -128.359,124.992 l 0,251.312"
             id="path2842"
             style="fill:#ffffff;fill-opacity:1;fill-rule:nonzero;stroke:none" /><path
             d="m 620.535,344.59 c 14.863,-10.813 28.375,-18.914 43.238,-18.914 20.266,0 36.481,10.801 36.481,58.765 l 0,135.122 c 0,47.964 -16.215,58.777 -36.481,58.777 -14.863,0 -28.375,-8.106 -43.238,-18.914 l 0,-214.836 z m -4.055,289.144 0,-37.832 1.352,0 c 24.996,31.754 43.238,44.59 81.07,44.59 47.293,0 77.016,-35.133 77.016,-101.336 l 0,-174.301 c 0,-66.21 -29.723,-101.339 -77.016,-101.339 -33.101,0 -48.644,13.515 -78.367,37.839 l 0,-145.933 -75.668,0 0,478.312 71.613,0"
             id="path2844"
             style="fill:#ffffff;fill-opacity:1;fill-rule:nonzero;stroke:none" /><path
             d="m 987.168,499.973 0,18.914 c 0,41.89 -14.863,59.453 -41.887,59.453 -27.023,0 -41.886,-17.563 -41.886,-59.453 l 0,-18.914 83.773,0 z m 75.662,-62.153 -159.435,0 0,-52.691 c 0,-41.899 14.863,-59.453 41.886,-59.453 27.024,0 41.887,17.554 41.887,59.453 l 0,8.101 75.662,0 c -1.35,-77.019 -33.1,-129.714 -117.549,-129.714 -86.472,0 -117.551,55.402 -117.551,135.117 l 0,106.75 c 0,79.711 31.079,135.109 117.551,135.109 86.479,0 117.549,-55.398 117.549,-135.109 l 0,-67.563"
             id="path2846"
             style="fill:#ffffff;fill-opacity:1;fill-rule:nonzero;stroke:none" /><path
             d="m 1111.2,270.273 0,363.461 71.62,0 0,-36.476 c 31.75,27.019 47.96,43.234 91.87,43.234 39.87,0 63.51,-29.047 63.51,-76.344 l 0,-293.875 -75.67,0 0,281.719 c 0,18.242 -10.81,26.348 -27.02,26.348 -16.21,0 -31.08,-10.137 -48.64,-22.969 l 0,-285.098 -75.67,0"
             id="path2848"
             style="fill:#ffffff;fill-opacity:1;fill-rule:nonzero;stroke:none" /><path
             d="m 1478.45,339.191 29.05,0 c 44.59,0 60.12,16.883 60.12,68.219 l 0,213.492 c 0,51.344 -15.53,68.235 -60.12,68.235 l -29.05,0 0,-349.946 z m -83.77,418.852 124.3,0 c 86.47,0 132.43,-47.289 132.43,-147.277 l 0,-193.215 c 0,-99.985 -45.96,-147.278 -132.43,-147.278 l -124.3,0 0,487.77"
             id="path2850"
             style="fill:#ffffff;fill-opacity:1;fill-rule:nonzero;stroke:none" /><path
             d="m 1705.92,270.273 0,487.77 77.69,0 102.02,-279.012 1.34,0 0,279.012 75.67,0 0,-487.77 -72.95,0 -106.76,304.688 -1.35,0 0,-304.688 -75.66,0"
             id="path2852"
             style="fill:#ffffff;fill-opacity:1;fill-rule:nonzero;stroke:none" /><path
             d="m 2184.84,642.793 c -3.38,41.887 -25.66,54.043 -44.57,54.043 -27.03,0 -41.89,-17.563 -41.89,-47.965 0,-83.094 170.25,-122.965 170.25,-255.363 0,-80.403 -54.06,-124.992 -132.42,-124.992 -77.69,0 -122.28,62.16 -125.66,135.117 l 79.72,11.484 c 3.38,-49.316 22.97,-73.64 50,-73.64 29.05,0 48.64,15.546 48.64,44.589 0,96.61 -170.26,122.286 -170.26,262.125 0,77.7 47.31,121.61 129.73,121.61 68.22,0 108.77,-49.317 116.19,-118.231 l -79.73,-8.777"
             id="path2854"
             style="fill:#ffffff;fill-opacity:1;fill-rule:nonzero;stroke:none" /></g></g></g></g></svg>