<?xml version="1.0" encoding="utf-8"?>
<!-- Generator: Adobe Illustrator 18.0.0, SVG Export Plug-In . SVG Version: 6.00 Build 0)  -->
<!DOCTYPE svg PUBLIC "-//W3C//DTD SVG 1.1//EN" "http://www.w3.org/Graphics/SVG/1.1/DTD/svg11.dtd">
<svg version="1.1" id="Layer_1" xmlns="http://www.w3.org/2000/svg" xmlns:xlink="http://www.w3.org/1999/xlink" x="0px" y="0px"
	 viewBox="0 0 176.8 46.2" enable-background="new 0 0 176.8 46.2" xml:space="preserve">
<g>
	<g>
		<g>
			<path fill="#3D6D89" d="M62.4,26.6V20c1.1,1.3,2.3,1.7,3.9,1.7c1.5,0,2.8-0.5,3.6-1.3c1.5-1.5,1.7-4,1.7-6.3
				c0-2.2-0.2-4.7-1.7-6.2c-0.8-0.8-2.1-1.3-3.6-1.3c-1.6,0-2.8,0.4-3.9,1.7V7.4C62,7,61.5,6.7,60.9,6.7c-0.6,0-1.1,0.3-1.4,0.7
				v19.2 M65.5,19c-2.7,0-3.1-2.3-3.1-4.9c0-2.6,0.4-4.9,3.1-4.9c2.7,0,3.1,2.3,3.1,4.9C68.6,16.7,68.2,19,65.5,19z"/>
			<path fill="#3D6D89" d="M82.4,21.5v-1.3c-1.1,1.1-2.1,1.5-3.9,1.5c-1.8,0-3.1-0.4-4-1.3c-0.8-0.8-1.2-1.9-1.2-3.2
				c0-2.5,1.7-4.3,5.1-4.3h3.9v-1c0-1.9-0.9-2.8-3.2-2.8c-1.6,0-2.4,0.4-3.2,1.4l-2-1.8c1.4-1.6,2.9-2.1,5.3-2.1
				c4,0,6.1,1.7,6.1,5.1v9.9H82.4z M82.4,15h-3.5c-1.7,0-2.7,0.8-2.7,2.1c0,1.3,0.8,2.1,2.7,2.1c1.1,0,2-0.1,2.8-0.8
				c0.4-0.4,0.6-1.1,0.6-2.2V15z"/>
			<path fill="#3D6D89" d="M92.9,18.9c-1.2,0-1.6-0.6-1.6-1.7l0-16.5C90.9,0.3,90.4,0,89.8,0c-0.6,0-1.1,0.3-1.5,0.7v16.7
				c0,2.2,1.2,4.1,4,4.1h1.8v-2.5H92.9z"/>
			<path fill="#3D6D89" d="M105.8,19.9c-1,1-2.4,1.7-4.4,1.7c-2,0-3.4-0.8-4.4-1.7c-1.4-1.5-1.7-3.3-1.7-5.8c0-2.5,0.3-4.3,1.7-5.8
				c1-1,2.4-1.7,4.4-1.7c2,0,3.5,0.8,4.4,1.7c1.4,1.5,1.7,3.3,1.7,5.8C107.5,16.6,107.2,18.5,105.8,19.9z M103.5,10
				c-0.6-0.6-1.3-0.8-2.2-0.8c-0.9,0-1.6,0.3-2.2,0.8c-0.9,0.9-1,2.4-1,4c0,1.6,0.1,3.1,1,4c0.6,0.6,1.3,0.9,2.2,0.9
				c0.9,0,1.6-0.3,2.2-0.9c0.9-0.9,1-2.4,1-4C104.6,12.5,104.4,10.9,103.5,10z"/>
			<path fill="#97A822" d="M129.2,18.9c-1.2,0-1.6-0.6-1.6-1.7l0-16.5c-0.3-0.4-0.9-0.7-1.5-0.7c-0.6,0-1.1,0.3-1.5,0.7v16.7
				c0,2.2,1.2,4.1,4,4.1h1.8v-2.5H129.2z"/>
			<path fill="#97A822" d="M118.4,21.5v-1.3c-1.1,1.1-2.1,1.5-3.9,1.5c-1.8,0-3.1-0.4-4-1.3c-0.8-0.8-1.2-1.9-1.2-3.2
				c0-2.5,1.7-4.3,5.1-4.3h3.9v-1c0-1.9-0.9-2.8-3.2-2.8c-1.6,0-2.4,0.4-3.2,1.4l-2-1.8c1.4-1.6,2.9-2.1,5.3-2.1
				c4,0,6.1,1.7,6.1,5.1v9.9H118.4z M118.3,15h-3.5c-1.7,0-2.7,0.8-2.7,2.1c0,1.3,0.8,2.1,2.7,2.1c1.1,0,2-0.1,2.8-0.8
				c0.4-0.4,0.6-1.1,0.6-2.2V15z"/>
			<path fill="#97A822" d="M138.8,9.2V7h-2.9V2.5c-0.3-0.4-0.9-0.7-1.5-0.7c-0.6,0-1.1,0.3-1.5,0.7V7h-1.7v2.3h1.7v8.1
				c0,2.1,1.3,4.1,4,4.1h1.8v-2.5h-1.2c-1.1,0-1.6-0.6-1.6-1.7v-8H138.8z"/>
			<path fill="#97A822" d="M151.1,19.9c-1,1-2.4,1.7-4.4,1.7c-2,0-3.4-0.8-4.4-1.7c-1.4-1.5-1.7-3.3-1.7-5.8c0-2.5,0.3-4.3,1.7-5.8
				c1-1,2.4-1.7,4.4-1.7c2,0,3.5,0.8,4.4,1.7c1.4,1.5,1.7,3.3,1.7,5.8C152.9,16.6,152.5,18.5,151.1,19.9z M148.9,10
				c-0.6-0.6-1.3-0.8-2.2-0.8c-0.9,0-1.6,0.3-2.2,0.8c-0.9,0.9-1,2.4-1,4c0,1.6,0.1,3.1,1,4c0.6,0.6,1.3,0.9,2.2,0.9
				c0.9,0,1.6-0.3,2.2-0.9c0.9-0.9,1-2.4,1-4C149.9,12.5,149.8,10.9,148.9,10z"/>
			<g>
				<path fill="#3D6D89" d="M175,45.9c-1,0-1.9-0.8-1.9-1.9c0-1,0.8-1.9,1.9-1.9c1,0,1.9,0.8,1.9,1.9C176.8,45,176,45.9,175,45.9z
					 M175,42.4c-0.9,0-1.6,0.7-1.6,1.6c0,0.9,0.7,1.6,1.6,1.6c0.9,0,1.6-0.7,1.6-1.6C176.6,43.1,175.8,42.4,175,42.4z M175.4,45
					l-0.5-0.8h-0.3V45h-0.3v-2.1h0.7c0.4,0,0.6,0.3,0.6,0.6c0,0.3-0.2,0.5-0.4,0.6l0.5,0.9H175.4z M175,43.2h-0.4v0.7h0.4
					c0.2,0,0.4-0.2,0.4-0.4S175.3,43.2,175,43.2z"/>
			</g>
			<path fill="#3D6D89" d="M161.6,41.2c0.1,0.9,0.4,1.5,1,1.9c0.6,0.4,1.3,0.5,2.2,0.5c0.3,0,0.6,0,1-0.1c0.4,0,0.7-0.1,1.1-0.3
				c0.3-0.1,0.6-0.3,0.8-0.6c0.2-0.2,0.3-0.6,0.3-1c0-0.4-0.2-0.7-0.4-1c-0.3-0.3-0.6-0.5-1.1-0.6c-0.4-0.2-0.9-0.3-1.5-0.4
				c-0.5-0.1-1.1-0.2-1.7-0.4c-0.6-0.1-1.1-0.3-1.7-0.5c-0.5-0.2-1-0.4-1.4-0.7c-0.4-0.3-0.8-0.7-1-1.2c-0.3-0.5-0.4-1.1-0.4-1.8
				c0-0.8,0.2-1.4,0.6-1.9c0.4-0.5,0.8-0.9,1.4-1.3c0.6-0.3,1.2-0.5,1.9-0.7c0.7-0.1,1.4-0.2,2-0.2c0.7,0,1.4,0.1,2.1,0.2
				c0.7,0.2,1.3,0.4,1.8,0.8c0.5,0.3,1,0.8,1.3,1.4s0.6,1.2,0.7,2h-3.3c-0.1-0.7-0.5-1.2-1-1.5c-0.5-0.3-1.2-0.4-1.8-0.4
				c-0.2,0-0.5,0-0.8,0.1c-0.3,0-0.6,0.1-0.8,0.2c-0.3,0.1-0.5,0.2-0.7,0.4c-0.2,0.2-0.3,0.4-0.3,0.8c0,0.4,0.1,0.7,0.4,0.9
				c0.3,0.2,0.6,0.4,1,0.6c0.4,0.2,0.9,0.3,1.5,0.4c0.5,0.1,1.1,0.2,1.7,0.4c0.6,0.1,1.1,0.3,1.7,0.5c0.5,0.2,1,0.4,1.5,0.7
				c0.4,0.3,0.8,0.7,1,1.2c0.3,0.5,0.4,1.1,0.4,1.7c0,0.8-0.2,1.5-0.6,2.1c-0.4,0.6-0.9,1.1-1.5,1.4c-0.6,0.4-1.3,0.6-2,0.8
				c-0.7,0.2-1.5,0.2-2.2,0.2c-0.9,0-1.7-0.1-2.5-0.3c-0.8-0.2-1.4-0.5-2-0.9c-0.6-0.4-1-0.9-1.3-1.5c-0.3-0.6-0.5-1.3-0.5-2.2
				c0,0,0.5-0.8,1.6-0.8S161.6,41.2,161.6,41.2z"/>
			<path fill="#3D6D89" d="M144.7,26.2c0,0,0.5-0.8,1.5-0.8c1,0,1.6,0.8,1.6,0.8v11.1l5.6-5.7c0,0,0.6-1,1.9-1c1.3,0,1.9,1,1.9,1
				l-5.4,5.2l5.9,8.9H154l-4.3-6.9l-1.9,1.8v5.1h-3.1V26.2z"/>
			<path fill="#3D6D89" d="M97.3,31.6c0,0,0.5-0.8,1.6-0.8c1.1,0,1.7,0.8,1.7,0.8l2.8,10.5h0.1l2.6-10.5c0,0,0.6-0.8,1.6-0.8
				c1,0,1.6,0.8,1.6,0.8l2.5,10.5h0.1l2.9-10.5c0,0,0.5-0.8,1.6-0.8s1.6,0.8,1.6,0.8l-4.4,14.1h-3.2l-2.6-10.5h-0.1L105,45.7h-3.3
				L97.3,31.6z"/>
			<path fill="#3D6D89" d="M59.2,31.6c0,0,0.5-0.7,1.4-0.8c0.9,0,1.5,0.8,1.5,0.8v2.1l0.1,0.1c0.5-0.8,1.1-1.4,1.9-1.8
				c0.8-0.4,1.6-0.7,2.5-0.7c1.5,0,2.8,0.4,3.7,1.2c0.9,0.8,1.3,2,1.3,3.6v9.7h-3.1v-8.9c0-1.1-0.3-1.9-0.7-2.4
				c-0.4-0.5-1.1-0.8-2-0.8c-0.5,0-1,0.1-1.4,0.3c-0.4,0.2-0.8,0.5-1.1,0.8c-0.3,0.3-0.5,0.7-0.7,1.2c-0.2,0.5-0.2,0.9-0.2,1.4v8.3
				h-3.1V31.6z"/>
			<path fill="#3D6D89" d="M76.7,39.5c0,0.5,0.1,1.1,0.2,1.6c0.1,0.5,0.3,1,0.6,1.3c0.3,0.4,0.6,0.7,1.1,0.9
				c0.4,0.2,0.9,0.3,1.5,0.3c0.8,0,1.5-0.2,2-0.6c0.5-0.4,0.9-1,1.1-1.8c0,0,0.4-0.7,1.3-0.7s1.3,0.7,1.3,0.7
				c-0.1,0.8-0.4,1.4-0.8,2c-0.4,0.6-0.8,1.1-1.3,1.5s-1.1,0.7-1.7,0.9c-0.6,0.2-1.3,0.3-2,0.3c-1,0-1.9-0.2-2.7-0.5
				c-0.8-0.4-1.4-0.9-2-1.5c-0.5-0.7-0.9-1.4-1.2-2.3c-0.3-0.9-0.4-1.9-0.4-3c0-1,0.1-2,0.4-2.9s0.7-1.7,1.2-2.4
				c0.5-0.7,1.2-1.2,1.9-1.6c0.8-0.4,1.6-0.6,2.6-0.6c1,0,1.9,0.2,2.7,0.7c0.8,0.5,1.5,1.1,2,1.8c0.5,0.8,0.9,1.6,1.1,2.6
				c0.2,1,0.3,2,0.2,3.1H76.7z M83.3,37.4c0-0.5-0.1-1-0.3-1.4c-0.2-0.5-0.4-0.9-0.6-1.2c-0.3-0.3-0.6-0.6-1-0.8
				c-0.4-0.2-0.8-0.3-1.3-0.3c-0.5,0-0.9,0.1-1.3,0.3c-0.4,0.2-0.7,0.5-1,0.8c-0.3,0.3-0.5,0.7-0.7,1.2c-0.2,0.5-0.3,0.9-0.3,1.5
				H83.3z"/>
			<path fill="#3D6D89" d="M133.9,31.6c0,0,0.5-0.7,1.5-0.7c1,0,1.5,0.7,1.5,0.7v2.7h0.1c0.1-0.4,0.3-0.8,0.5-1.1
				c0.3-0.4,0.6-0.7,1-1c0.4-0.3,0.8-0.5,1.2-0.7c0.5-0.2,0.9-0.3,1.4-0.3c0.4,0,0.6,0,0.8,0c0.1,0,0.3,0,0.4,0.1v3
				c-0.2,0-0.4-0.1-0.7-0.1c-0.2,0-0.5,0-0.7,0c-0.5,0-1,0.1-1.5,0.3c-0.5,0.2-0.9,0.5-1.2,0.9c-0.3,0.4-0.6,0.9-0.8,1.5
				c-0.2,0.6-0.3,1.3-0.3,2.1v6.7h-3.1V31.6z"/>
			<path fill="#3D6D89" d="M129.6,44.5c-1,1-2.4,1.7-4.4,1.7c-2,0-3.4-0.8-4.4-1.7c-1.4-1.5-1.7-3.3-1.7-5.8c0-2.5,0.3-4.3,1.7-5.8
				c1-1,2.4-1.7,4.4-1.7c2,0,3.5,0.8,4.4,1.7c1.4,1.5,1.7,3.3,1.7,5.8C131.3,41.2,131,43,129.6,44.5z M127.3,34.6
				c-0.6-0.6-1.3-0.8-2.2-0.8c-0.9,0-1.6,0.3-2.2,0.8c-0.9,0.9-1,2.4-1,4c0,1.6,0.1,3.1,1,4c0.6,0.6,1.3,0.9,2.2,0.9
				c0.9,0,1.6-0.3,2.2-0.9c0.9-0.9,1-2.4,1-4C128.4,37,128.2,35.5,127.3,34.6z"/>
			<path fill="#3D6D89" d="M95.3,33.5v-2.3h-2.9v-4.5c-0.3-0.4-0.9-0.7-1.5-0.7c-0.6,0-1.1,0.3-1.5,0.7v4.5h-1.7v2.3h1.7v8.1
				c0,2.1,1.3,4.1,4,4.1h1.8v-2.5H94c-1.1,0-1.6-0.6-1.6-1.7v-8H95.3z"/>
		</g>
	</g>
	<g>
		<g>
			<path fill="#FFFFFF" d="M16.6,24.5l-3,17c-0.2,1.1,0.5,2,1.7,2s2.2-0.9,2.4-2l3-17c0.2-1.1-0.5-2-1.7-2
				C17.8,22.5,16.7,23.4,16.6,24.5z"/>
			<path fill="#FFFFFF" d="M24.8,16.4l-4,22.9c-0.2,1.1,0.5,2,1.7,2c1.1,0,2.2-0.9,2.4-2l4-22.9c0.2-1.1-0.5-2-1.7-2
				C26,14.4,25,15.3,24.8,16.4z"/>
			<path fill="#FFFFFF" d="M32,14.3l-3,17c-0.2,1.1,0.5,2,1.7,2c1.1,0,2.2-0.9,2.4-2l3-17c0.2-1.1-0.5-2-1.7-2
				C33.2,12.3,32.1,13.1,32,14.3z"/>
			<path fill="#FFFFFF" d="M46,22.6c-1.1,0-2.1,0.9-2.3,2l-0.4,2.5c-0.2,1.1,0.5,2,1.7,2c0.4,0,0.7-0.1,1.1-0.3L46,22.6z"/>
			<path fill="#FFFFFF" d="M38.2,29.2c1.1,0,2.2-0.9,2.4-2l1.5-8.9c0.2-1.1-0.5-2-1.7-2c-1.1,0-2.2,0.9-2.4,2l-1.5,8.9
				C36.3,28.3,37.1,29.2,38.2,29.2z"/>
			<path fill="#FFFFFF" d="M2.2,28.6l-0.4,2.5c-0.2,1.1,0.5,2,1.7,2c1.1,0,2.2-0.9,2.4-2l0.4-2.5c0.2-1.1-0.5-2-1.7-2
				C3.5,26.6,2.4,27.5,2.2,28.6z"/>
			<path fill="#FFFFFF" d="M9,28.6l-1.5,8.9c-0.2,1.1,0.5,2,1.7,2c1.1,0,2.2-0.9,2.4-2l1.5-8.9c0.2-1.1-0.5-2-1.7-2
				C10.3,26.6,9.2,27.5,9,28.6z"/>
		</g>
		<g>
			<path fill="none" d="M27.1,14.4c-1.1,0-2.2,0.9-2.4,2l-4,22.9c-0.2,1.1,0.5,2,1.7,2c1.1,0,2.2-0.9,2.4-2l4-22.9
				C29,15.3,28.2,14.4,27.1,14.4z"/>
			<path fill="none" d="M18.9,22.5c-1.1,0-2.2,0.9-2.4,2l-3,17c-0.2,1.1,0.5,2,1.7,2s2.2-0.9,2.4-2l3-17
				C20.8,23.4,20,22.5,18.9,22.5z"/>
			<path fill="none" d="M4.6,26.6c-1.1,0-2.2,0.9-2.4,2l-0.4,2.5c-0.2,1.1,0.5,2,1.7,2c1.1,0,2.2-0.9,2.4-2l0.4-2.5
				C6.4,27.5,5.7,26.6,4.6,26.6z"/>
			<path fill="none" d="M11.4,26.6c-1.1,0-2.2,0.9-2.4,2l-1.5,8.9c-0.2,1.1,0.5,2,1.7,2c1.1,0,2.2-0.9,2.4-2l1.5-8.9
				C13.2,27.5,12.5,26.6,11.4,26.6z"/>
			<path fill="none" d="M40.4,16.3c-1.1,0-2.2,0.9-2.4,2l-1.5,8.9c-0.2,1.1,0.5,2,1.7,2c1.1,0,2.2-0.9,2.4-2l1.5-8.9
				C42.2,17.2,41.5,16.3,40.4,16.3z"/>
			<path fill="#3D6D89" d="M43.8,24.6c0.2-1.1,1.2-2,2.3-2V7.2c0-4-3.2-7.2-7.2-7.2H7.2C3.2,0,0,3.2,0,7.2v31.7c0,4,3.2,7.2,7.2,7.2
				h31.7c4,0,7.2-3.2,7.2-7.2v-10c-0.3,0.2-0.7,0.3-1.1,0.3c-1.1,0-1.8-0.9-1.7-2L43.8,24.6z M6.2,28.6l-0.4,2.5
				c-0.2,1.1-1.2,2-2.4,2c-1.1,0-1.8-0.9-1.7-2l0.4-2.5c0.2-1.1,1.2-2,2.4-2C5.7,26.6,6.4,27.5,6.2,28.6z M13,28.6l-1.5,8.9
				c-0.2,1.1-1.2,2-2.4,2c-1.1,0-1.8-0.9-1.7-2L9,28.6c0.2-1.1,1.2-2,2.4-2C12.5,26.6,13.2,27.5,13,28.6z M20.6,24.5l-3,17
				c-0.2,1.1-1.2,2-2.4,2s-1.8-0.9-1.7-2l3-17c0.2-1.1,1.2-2,2.4-2C20,22.5,20.8,23.4,20.6,24.5z M28.8,16.4l-4,22.9
				c-0.2,1.1-1.2,2-2.4,2c-1.1,0-1.8-0.9-1.7-2l4-22.9c0.2-1.1,1.2-2,2.4-2C28.2,14.4,29,15.3,28.8,16.4z M36,14.3l-3,17
				c-0.2,1.1-1.2,2-2.4,2c-1.1,0-1.8-0.9-1.7-2l3-17c0.2-1.1,1.2-2,2.4-2C35.4,12.3,36.2,13.1,36,14.3z M42.1,18.3l-1.5,8.9
				c-0.2,1.1-1.2,2-2.4,2c-1.1,0-1.8-0.9-1.7-2l1.5-8.9c0.2-1.1,1.2-2,2.4-2C41.5,16.3,42.2,17.2,42.1,18.3z"/>
			<path fill="#97A822" d="M34.3,12.3c-1.1,0-2.2,0.9-2.4,2l-3,17c-0.2,1.1,0.5,2,1.7,2c1.1,0,2.2-0.9,2.4-2l3-17
				C36.2,13.1,35.4,12.3,34.3,12.3z"/>
		</g>
	</g>
</g>
</svg>
