<?xml version="1.0" encoding="UTF-8" standalone="no"?>
<svg width="376px" height="100px" viewBox="0 0 376 100" version="1.1" xmlns="http://www.w3.org/2000/svg" xmlns:xlink="http://www.w3.org/1999/xlink" xmlns:sketch="http://www.bohemiancoding.com/sketch/ns">
    <!-- Generator: Sketch 3.4.4 (17249) - http://www.bohemiancoding.com/sketch -->
    <title>logo with text</title>
    <desc>Created with Sketch.</desc>
    <defs>
        <path id="path-1" d="M55.9169481,26.2366174 C58.1976572,22.7429938 59.1593407,19.9717309 59.1593407,19.9717309 L51.6864292,19.9717309 C49.7044874,20.664516 48.4881319,21.6016078 48.4881319,22.6330234 C48.4881319,24.2749341 51.5705545,25.6778145 55.9169481,26.2366174 L55.9169481,26.2366174 Z"></path>
    </defs>
    <g id="Logo" stroke="none" stroke-width="1" fill="none" fill-rule="evenodd" sketch:type="MSPage">
        <g id="logo-with-text" sketch:type="MSArtboardGroup">
            <path d="M0,0 L100,0 L100,100 L0,100 L0,0 L0,0 Z" id="Border" fill="#3C1053" sketch:type="MSShapeGroup"></path>
            <path d="M6,6 L94,6 L94,94 L6,94 L6,6 L6,6 Z" id="Background" fill="#FFFFFF" sketch:type="MSShapeGroup"></path>
            <g id="Dog" sketch:type="MSLayerGroup" transform="translate(19.000000, 15.000000)">
                <path d="M0.190000534,62.0820002 C0.269000534,61.9050002 8.03500053,44.2810002 10.0330005,33.3190002 C12.0080005,22.4920002 9.03900053,7.47400015 9.00900053,7.35000038 L7.60600053,0.369999886 L23.8920005,18 L61.9730005,18 L61.0520005,20.6500015 C60.9170005,21.0200002 57.6480005,30.2230002 48.9790005,36.5280002 C42.1190005,41.5170002 33.1830005,43.6560002 29.6470005,44.3470002 L27.4130005,63.1280002 L23.4410005,62.6550002 L26.0320005,40.8810002 L27.5450005,40.6570002 C27.6580005,40.6400002 38.8760005,38.9300002 46.6270005,33.2930002 C51.5770005,29.6930002 54.5760005,24.9100002 56.0780005,22 L22.1410005,22 L13.9530005,13.1399994 C14.6510005,18.7610002 15.2390005,27.0710002 13.9690005,34.0360002 C11.8850005,45.4680002 4.17600053,62.9620002 3.84800053,63.7010002 L0.190000534,62.0820002 Z" id="Head" fill="#3B1952" sketch:type="MSShapeGroup"></path>
                <mask id="mask-2" sketch:name="Nose" fill="white">
                    <use xlink:href="#path-1"></use>
                </mask>
                <use id="Nose" fill="#3B1952" sketch:type="MSShapeGroup" xlink:href="#path-1"></use>
            </g>
            <g id="Text" sketch:type="MSLayerGroup" transform="translate(130.000000, 32.279999)" fill="#3C1053">
                <path d="M182.451667,4.81 L178.771667,4.81 L178.771667,0.703333333 L192.212778,0.703333333 L192.212778,4.81 L188.052778,4.81 L196.479444,29.6122222 C196.906111,30.9455556 197.119444,32.5455556 197.119444,32.5455556 L197.280556,32.5455556 C197.280556,32.5455556 197.492778,30.9455556 197.919444,29.6122222 L206.347222,4.81 L202.187222,4.81 L202.187222,0.703333333 L215.627222,0.703333333 L215.627222,4.81 L211.893889,4.81 L200.000556,38.36 L194.346111,38.36 L182.451667,4.81 Z" id="V" sketch:type="MSShapeGroup"></path>
                <path d="M157.066556,34.2527778 C164.694333,34.2527778 170.881,27.7461111 170.881,19.265 C170.881,11.0505556 164.694333,4.75722222 157.066556,4.75722222 C149.385444,4.75722222 143.198778,11.0505556 143.198778,19.265 C143.198778,27.7461111 149.385444,34.2527778 157.066556,34.2527778 M157.066556,0.0627777778 C167.947667,0.0627777778 176.428778,8.43722222 176.428778,19.265 C176.428778,30.3583333 167.947667,38.9994444 157.066556,38.9994444 C146.132111,38.9994444 137.705444,30.3583333 137.705444,19.265 C137.705444,8.43722222 146.132111,0.0627777778 157.066556,0.0627777778" id="O" sketch:type="MSShapeGroup"></path>
                <path d="M105.812667,34.1996667 L110.506,34.1996667 L110.506,5.07744444 L105.812667,5.07744444 L105.812667,0.703 L120.587111,0.703 L120.587111,5.07744444 L115.840444,5.07744444 L115.840444,33.9863333 L128.960444,33.9863333 L128.960444,27.9052222 L133.654889,27.9052222 L133.654889,38.3596667 L105.812667,38.3596667 L105.812667,34.1996667 Z" id="L" sketch:type="MSShapeGroup"></path>
                <path d="M69.1732222,4.81 L65.4932222,4.81 L65.4932222,0.703333333 L78.9343333,0.703333333 L78.9343333,4.81 L74.7743333,4.81 L83.201,29.6122222 C83.6276667,30.9455556 83.841,32.5455556 83.841,32.5455556 L84.001,32.5455556 C84.001,32.5455556 84.2143333,30.9455556 84.641,29.6122222 L93.0687778,4.81 L88.9087778,4.81 L88.9087778,0.703333333 L102.349889,0.703333333 L102.349889,4.81 L98.6165556,4.81 L86.721,38.36 L81.0676667,38.36 L69.1732222,4.81 Z" id="V" sketch:type="MSShapeGroup"></path>
                <path d="M54.2421111,21.5585556 L49.6554444,8.49077778 C49.1221111,6.94411111 49.0143333,5.60966667 49.0143333,5.60966667 L48.8543333,5.60966667 C48.8543333,5.60966667 48.6943333,6.94411111 48.2143333,8.49077778 L43.5743333,21.5585556 L54.2421111,21.5585556 Z M30.2932222,34.1996667 L33.9198889,34.1996667 L45.921,0.703 L51.9487778,0.703 L63.9498889,34.1996667 L67.5765556,34.1996667 L67.5765556,38.3596667 L54.5087778,38.3596667 L54.5087778,34.1996667 L58.5087778,34.1996667 L55.5754444,25.8252222 L42.241,25.8252222 L39.3076667,34.1996667 L43.361,34.1996667 L43.361,38.3596667 L30.2932222,38.3596667 L30.2932222,34.1996667 Z" id="A" sketch:type="MSShapeGroup"></path>
                <path d="M17.0144444,19.8517778 C18.7211111,19.8517778 20.0544444,19.5851111 21.2277778,19.1051111 C23.6288889,18.0384444 25.0155556,15.6384444 25.0155556,12.384 C25.0155556,9.344 23.7888889,7.104 21.6544444,5.984 C20.4822222,5.344 18.8811111,5.07733333 17.0677778,5.07733333 L10.0266667,5.07733333 L10.0266667,19.8517778 L17.0144444,19.8517778 Z M0,34.1995556 L4.69333333,34.1995556 L4.69333333,4.80955556 L0,4.80955556 L0,0.702888889 L17.5477778,0.702888889 C19.8411111,0.702888889 22.1344444,0.862888889 24.0022222,1.71622222 C27.8955556,3.37066667 30.4022222,7.37066667 30.4022222,12.384 C30.4022222,17.6651111 27.6288889,21.9317778 23.3088889,23.4251111 C21.5488889,24.0651111 19.7344444,24.2251111 17.6544444,24.2251111 L10.0266667,24.2251111 L10.0266667,34.1995556 L14.7744444,34.1995556 L14.7744444,38.3595556 L0,38.3595556 L0,34.1995556 Z" id="P" sketch:type="MSShapeGroup"></path>
            </g>
        </g>
    </g>
</svg>