<?xml version="1.0" encoding="utf-8"?>
<!-- Generator: Adobe Illustrator 16.0.0, SVG Export Plug-In . SVG Version: 6.00 Build 0)  -->
<!DOCTYPE svg PUBLIC "-//W3C//DTD SVG 1.1//EN" "http://www.w3.org/Graphics/SVG/1.1/DTD/svg11.dtd">
<svg version="1.1" id="Layer_1" xmlns="http://www.w3.org/2000/svg" xmlns:xlink="http://www.w3.org/1999/xlink" x="0px" y="0px"
	 width="1247.906px" height="319.761px" viewBox="0 0 1247.906 319.761" enable-background="new 0 0 1247.906 319.761"
	 xml:space="preserve">
<g>
	<path fill="#1473B7" d="M109.888,7.546c35.384-11.438,74.779-9.821,109.091,4.5c39.744,16.312,72.119,49.593,87.275,89.796
		c17.428,45.052,12.58,97.948-12.844,139.044c-9.612-9.627-19.237-19.224-28.837-28.851c11.604-23.113,15.548-49.997,10.741-75.421
		c-4.207-23.32-15.714-45.207-32.431-61.979c-17.999-18.332-42.126-30.535-67.578-34.102c-24.016-3.497-49.077,0.557-70.711,11.562
		c-25.146,12.649-45.485,34.561-56.211,60.585c-9.933,23.751-11.757,50.749-5.238,75.642c6.506,25.383,21.815,48.342,42.6,64.291
		c22.108,17.19,50.472,25.968,78.416,24.518c29.603-1.282,58.37-14.306,79.085-35.453c24.978,24.965,49.872,50.013,74.863,74.963
		c-16.939,0.013-33.894,0-50.832,0c-8.149-8.123-16.286-16.271-24.421-24.422c-23.962,14.99-51.893,23.586-80.171,24.283
		c-35.454,1.058-71.188-10.198-99.451-31.665c-31.095-23.195-53.104-58.188-60.32-96.305c-7.51-38.156-0.377-79.029,19.935-112.213
		C42.365,43.962,73.835,18.969,109.888,7.546z"/>
	<path fill="#1473B7" d="M342.642,95.895c12.956-0.014,25.91-0.014,38.881,0c0.014,41.931,0,83.861,0,125.795
		c0.097,14.502,2.618,29.7,11.214,41.738c7.662,10.892,20.158,17.802,33.252,19.625c12.9,1.798,26.58,0.905,38.449-4.792
		c10.001-4.777,18.151-13.248,22.498-23.459c5.154-11.688,6.018-24.7,5.809-37.318c-0.014-40.527,0-81.051,0-121.589
		c12.956-0.014,25.925-0.014,38.881,0c-0.028,42.907,0.069,85.812-0.042,128.706c-0.32,24.964-7.313,51.07-24.908,69.515
		c-14.654,15.673-35.996,23.276-56.99,25.075c-24.379,2.061-50.472-1.115-71.047-15.256c-18.263-12.383-29.588-33-33.586-54.384
		c-3.12-15.128-2.327-30.647-2.424-45.985C342.642,167.665,342.628,131.779,342.642,95.895z"/>
	<path fill="#1473B7" d="M568.38,95.895c12.955-0.014,25.925-0.014,38.88,0c0.014,73.525,0.014,147.039,0,220.564
		c-12.955,0-25.925,0.013-38.88-0.014C568.38,242.934,568.38,169.405,568.38,95.895z"/>
	<path fill="#1473B7" d="M632.062,95.895c15.296-0.014,30.593,0,45.887,0c18.292,26.285,36.514,52.615,54.775,78.931
		c18.391-26.302,36.707-52.658,55.111-78.944c14.863,0.014,29.741,0,44.618,0.014c-25.633,35.926-51.276,71.841-76.909,107.753
		c26.678,37.613,53.383,75.199,80.058,112.798c-15.294,0.026-30.604,0-45.9,0.014c-19.32-27.764-38.587-55.568-57.924-83.331
		c-19.405,27.763-38.811,55.527-58.201,83.317c-14.895,0.026-29.785,0.014-44.663,0c26.76-37.417,53.619-74.767,80.379-112.196
		C683.521,168.152,657.778,132.03,632.062,95.895z"/>
	<path fill="#1473B7" d="M857.316,316.445c0.014-73.524-0.027-147.04,0.014-220.564c54.594,0.014,109.189,0,163.783,0.014
		c0.014,11.604,0.027,23.209,0,34.827c-41.64,0.013-83.276-0.028-124.902,0.013c0.014,19.03-0.014,38.06,0.014,57.089
		c36.861,0.014,73.734,0.014,110.61,0c0.027,11.617,0,23.223,0.014,34.841c-36.89,0.016-73.763-0.028-110.638,0.016
		c0,19.642,0,39.297,0,58.939c42.141,0.026,84.28,0,126.421,0.013c0,11.605,0,23.209,0,34.827
		C967.521,316.445,912.427,316.472,857.316,316.445z"/>
	<path fill="#1473B7" d="M1033.33,95.895c15.297-0.014,30.606-0.027,45.917,0.014c20.562,32.5,41.096,65.014,61.684,97.487
		c20.799-32.5,41.542-65.028,62.354-97.515c14.864,0.027,29.742,0,44.622,0.014c-29.116,44.328-58.691,88.375-87.557,132.845
		c-0.362,29.225-0.055,58.479-0.152,87.706c-13.082,0.026-26.161,0-39.229,0.014c-0.013-28.361,0-56.74-0.013-85.103
		c0.07-1.352-0.308-2.55-1.116-3.622C1090.977,183.811,1062.154,139.86,1033.33,95.895z"/>
</g>
</svg>
