<?xml version="1.0" encoding="utf-8"?>
<!-- Generator: Adobe Illustrator 18.0.0, SVG Export Plug-In . SVG Version: 6.00 Build 0)  -->
<!DOCTYPE svg PUBLIC "-//W3C//DTD SVG 1.1//EN" "http://www.w3.org/Graphics/SVG/1.1/DTD/svg11.dtd">
<svg version="1.1" id="Layer_1" xmlns="http://www.w3.org/2000/svg" xmlns:xlink="http://www.w3.org/1999/xlink" x="0px" y="0px"
	 viewBox="0 0 421.5 238.4" enable-background="new 0 0 421.5 238.4" xml:space="preserve">
<g>
	<path fill="#EE2D3A" stroke="#EE2D3A" stroke-width="0.216" stroke-miterlimit="2.6131" d="M410.7,148.3c0.7,0,3.9,0.1,3.9,3.4
		c0,1.7-1.3,2.6-2.7,2.9v-0.2c0.6,0.1,1.1,0.7,1.4,1.4l2.1,4.9h-1.8l-2.1-4.6c-0.3-0.6-0.5-1-1.5-1h-1.4v5.6h-1.6v-12.4H410.7
		L410.7,148.3z M408.7,153.7L408.7,153.7h1.5c1.8,0,2.6-1,2.6-2c0-0.7-0.2-2-2.3-2h-1.9V153.7L408.7,153.7z M410.9,143.9
		L410.9,143.9c5.8,0,10.5,4.7,10.5,10.5s-4.7,10.5-10.5,10.5c-5.8,0-10.5-4.7-10.5-10.5S405.1,143.9,410.9,143.9L410.9,143.9z
		 M410.9,163.5L410.9,163.5c5.1,0,9.1-4,9.1-9.1s-4-9.1-9.1-9.1c-5.1,0-9.1,4-9.1,9.1S405.8,163.5,410.9,163.5L410.9,163.5z"/>
	<path fill-rule="evenodd" clip-rule="evenodd" fill="#FFE610" d="M51,66.9c-1.7-1.5-2.6-3.3-3.2-4.8c-0.5-1.5-1.2-3.4-1.2-5
		c0-7.3,4.3-12.7,8.9-15.2c2.1-1.1,2.9-1.9,3.2-2.3c-0.2-0.1-0.3-0.1-0.5-0.1c-6.2,0-9.4-2.4-11-4.5C45.8,33,45,30.5,45,27.8
		c0-1.3,0.2-2.7,0.6-4.1c1.8-2.9,3.4-2.1,4.4-0.6c0.7,0.9,5.1,4.1,10.6,4.6c4,0.4,6.2,2.3,7.3,3.9c1.3,1.8,1.8,4,1.8,5.9
		c0,0.8-0.1,1.5-0.2,2.1c-0.6,2.4-3.2,4.7-6.8,7.5l-2,1.7c-3,2.6-4.6,5.5-4.6,8c0,0.6,0.1,1.2,0.3,1.8c0.1,0.2,0.2,0.4,0.3,0.7
		c1.3,2.3,5.1,3.7,10.6,1.8c2.5-0.9,7.4-3.9,10.4-6.9c3.5-3.5,8.2-4.3,12.6-4.7c3.9-0.3,6.3-1.2,8-3.1c5-5.6,9.8-6.4,14.3-6.7
		c1.7-0.1,1.8-0.3,2-0.6c2.5-3.3,5-5,7.3-6.1c1.7-0.8,3.3-1.1,4.6-1.4L128,31l0.4-0.1c2.5-0.8,4.4-1.5,9.5-4.9l0.2-0.1l0,0l0.2-0.1
		l0,0l0.2-0.1l0,0l0.2-0.1l0,0l0.2-0.1l0,0l0.2-0.1l0,0l0.2-0.1l0,0l0.2-0.1l0,0l0.2-0.1l0,0l0.2-0.1l0,0l0.2-0.1l0,0l0.2-0.1
		l0.2-0.1l0,0l0.2-0.1l0,0l0.2-0.1l0,0l0.2-0.1l0,0l0.2-0.1l0,0l0.2,0l0,0l0.2,0l0,0l0.2,0l0,0l0.2,0l0,0l0.2,0l0,0l0.2,0l0,0l0.2,0
		l0,0l0.2,0l0,0l0.2,0l0,0l0.2,0l0,0l0.2,0l0.2,0h0l0.2,0h0.2h0l0.2,0l0,0h0c0.1,0,0.3,0,0.4,0l0.2,0l0,0l0.2,0l0,0l0.2,0l0,0l0.2,0
		l0,0l0.2,0l0,0l0.2,0l0,0l0.2,0l0,0l0.2,0l0,0l0.2,0l0,0l0.2,0l0,0c0.3,0.1,0.6,0.1,0.9,0.2l0.2,0l0,0c0.3,0.1,0.6,0.2,0.9,0.2
		l0.2,0.1l0,0c0.6,0.2,1.1,0.4,1.7,0.6l0.2,0.1l0.2,0.1C163.1,10.8,180.3,1,199.8,0.1v0c0.3,0,0.6,0,1,0c0.3,0,0.6,0,1,0
		c0.3,0,0.6,0,1,0c0.3,0,0.6,0,1,0c0.3,0,0.6,0,1,0c0.3,0,0.6,0,0.9,0h0c0.3,0,0.6,0,0.9,0l0,0c18.9,1.1,35.6,10.7,46.3,24.9
		c1.5-0.5,3.2-0.9,4.9-1l0,0l0.2,0l0.2,0l0,0l0,0l0.2,0l0,0l0.2,0l0,0l0.2,0h0l0.2,0h0l0.2,0l0.2,0l0,0l0.2,0l0,0l0.2,0l0,0l0.2,0
		l0,0l0.2,0l0,0c0.4,0,0.8,0.1,1.2,0.2l0.2,0l0,0l0.2,0l0,0l0.2,0l0,0l0.2,0l0,0l0.2,0.1l0,0l0.2,0.1l0,0l0.2,0.1l0,0l0.2,0.1
		l0.2,0.1l0,0l0.2,0.1l0,0l0.2,0.1l0,0c0.3,0.1,0.7,0.3,1,0.5l0,0l0.2,0.1l0,0l0.2,0.1l0,0l0.2,0.1l0,0l0.2,0.1v0l0.2,0.1
		c3.5,2.4,5.5,3.4,7.3,4.1c0.8,0.3,1.5,0.5,2.3,0.8l0.4,0.1l1.6,0.4c0.9,0.2,1.9,0.4,2.9,0.8c2.7,0.9,5.9,2.6,9,6.7
		c0.2,0.3,0.3,0.4,2.1,0.6c4.5,0.3,9.3,1.1,14.3,6.7c1.7,1.9,4.1,2.9,8,3.1c4.5,0.4,9.2,1.2,12.6,4.7c3,2.9,7.8,6,10.4,6.9
		c5.5,1.9,9.2,0.5,10.5-1.8c0.3-0.5,0.5-1,0.6-1.6c0-0.3,0.1-0.6,0.1-0.9c0-2.5-1.6-5.4-4.6-8l-0.4-0.3l-1.7-1.4
		c-3.6-2.8-6.2-5-6.8-7.5c-0.2-0.6-0.2-1.3-0.2-2.1c0-1.9,0.5-4,1.8-5.9c1.1-1.6,3.3-3.5,7.3-3.9c5.5-0.5,10-3.7,10.6-4.6
		c1-1.5,2.7-2.3,4.4,0.6c0.4,1.4,0.6,2.8,0.6,4.1c0,2.7-0.8,5.2-2.2,7.1c-1.6,2.1-4.8,4.5-11,4.5c-0.1,0-0.3,0.1-0.5,0.1
		c0.3,0.4,1.1,1.2,3.2,2.3c4.6,2.5,8.8,7.9,8.9,15.2c0,1.6-0.7,3.5-1.2,5c-0.5,1.3-1.3,2.9-2.6,4.3c-0.2,0.2-0.3,0.3-0.5,0.5
		c-2.6,2.4-6.9,4.3-14,3.9c-0.7,0-1.5-0.1-2.3-0.2c-0.2,3.6-1.2,7.9-2.6,10.1c-0.4,0.7-0.5,1.1-0.5,1.4c0,0.1,0,0.1,0,0.2
		c0,0,3.2,1.9,3.2,1.9l0.5,0.3c0,0,0.3,0.1,0.3,0.2c0,0,1.1-0.1,1.1-0.1l0.2,0l0,0c2-0.2,5-1.1,6.2,2.4c0.3,0.9,0.5,1.8,0.7,2.5
		c0.4,1.5,0.7,2.6,2,3.6c0,0,0.6-0.6,1.4-1.2c0.6-0.5,1.2-1.1,1.7-1.5c0.9-0.9,2.6-0.5,3.8,0c1.2,0.5,2.7,1.5,3.8,2.1
		c1.1,0.6,1.7,1.4,2,2.3c0.3,0.9,1.1,1.5,2.2,2.1c1.1,0.6,2.7,2.6,2.7,5.3c0,0.4,0,0.8,0.2,1.1c0.1,0.2,0.2,0.5,0.3,0.8
		c1.5,3.1,0.3,4.7-0.6,5.3c-1.2,0.9-3.3,1.3-5.3,0.9l0,0.5l-2.9-0.4c-1.1-0.1-2.6,0.1-3.5,0.3l-0.2,0.1c-2.1,0.4-4.8-0.3-6.3-2.8
		c-0.1-0.1-0.1-0.2-0.2-0.3c-0.8-1.4-2-2.6-2.6-3c-0.9,0.2-2.2,0.6-3.8,0.4c-1.5-0.1-3.2-0.7-4.9-2.2c-0.3-0.2-0.6-0.5-0.9-0.8
		c-2.6-2.6-5.9-3.1-8.1-2.8l-1.3,0.2c-2.6,0.5-5.9,1.1-8.9-0.8c-0.8-0.5-1.8-0.9-2.9-1.4c-2.7-1.2-5.6-2.4-6-5c-0.1-0.5-0.6-1.3-1-2
		c-0.4-0.6-0.8-1.2-1.1-1.9c-0.3-0.7-0.5-1.4-0.5-2.1c-0.9,0.2-1.8,0.3-2.7,0.3c-0.3,0-0.6,0-1-0.1l-1.2-0.2c-2-0.3-6.2-1-7.5-0.5
		c-2.7,1-11,1.4-13.3,0.9c0,0-0.8-0.2-1.6-0.4c-0.8,0.8-1.6,1.5-2.5,2.2c1.7,0.1,3.2-0.1,4.2,0.1l2.1,0.6c0.7-0.2,2.3-0.2,3.3-0.1
		l2.5,0.2l2.8,0.3c1.4,0.3,2.8,0.9,2.6,3.5c-0.1,0.8-0.6,2-1.2,2.7c-0.4,0.4-1.9,2.6-2.2,3.2l-0.1,0.2c-0.6,1.2-1.4,2.3-3.9,2.3
		c-0.3,0-0.7,0-0.9,0c-0.1,0.2-0.3,0.6-0.3,0.6c-0.6,1.3-1.4,3-2.9,4.1l-0.4,0.3c-1.2,0.9-3.3,2.3-6.4,1.2l-1.1-0.4
		c-2.7-1-6.9-2.5-9-3.6l-0.3-0.2c-2-1.1-2.4-1.3-3.1-1.2l-0.4,0.1c-1.5,0.2-4.3,0.6-6.3-2.6l-0.2-0.3c-9.3,12.7-23.2,21.8-39.2,24.8
		l-0.1,0c-0.5,0.1-1.1,0.2-1.7,0.3l-0.2,0l-0.8,0.1c-0.3,0-0.6,0.1-0.9,0.1l-0.5,0.1l-0.8,0.1l-0.6,0.1c-0.4,0-0.8,0.1-1.2,0.1
		l-0.4,0c-0.4,0-0.7,0-1.1,0.1l-0.4,0c-0.4,0-0.8,0-1.2,0l-0.4,0c-0.4,0-0.9,0-1.3,0c-0.4,0-0.9,0-1.3,0l-0.4,0c-0.4,0-0.8,0-1.2,0
		l-0.5,0c-0.3,0-0.7,0-1-0.1l-0.4,0c-0.4,0-0.8-0.1-1.2-0.1l-0.6-0.1l-0.8-0.1l-0.4,0c-0.4,0-0.8-0.1-1.2-0.2l-0.5-0.1l-0.9-0.1
		l-0.4-0.1c-0.3-0.1-0.7-0.1-1-0.2l-0.7-0.1l-0.4-0.1c-0.5-0.1-1-0.2-1.5-0.3l-0.1,0l-0.8-0.2l-0.4-0.1c-0.5-0.1-1-0.3-1.4-0.4
		l-0.2,0c-14.1-4.1-26.1-12.9-34.2-24.7l-1.1,1.6c-1.9,3.2-4.8,2.9-6.3,2.6l-0.4-0.1c-0.7-0.1-1.2,0.1-3.1,1.2l-0.3,0.2
		c-2.1,1.1-6.2,2.6-9,3.6l-1.1,0.4c-3.1,1.1-5.2-0.3-6.4-1.2l-0.4-0.3c-1.5-1-2.3-2.8-2.9-4.1c0,0-0.2-0.4-0.3-0.6
		c-0.2,0-0.6,0-0.9,0c-2.5,0-3.3-1.1-3.9-2.3l-0.1-0.2c-0.3-0.7-1.8-2.8-2.2-3.2c-0.7-0.7-1.2-1.8-1.2-2.7c-0.3-2.7,1.2-3.2,2.6-3.5
		l2.8-0.3l2.5-0.2c0.9-0.1,2.6-0.1,3.2,0.1l2.1-0.6c1-0.3,2.5-0.1,4.2-0.1c-0.9-0.7-1.7-1.4-2.5-2.2c-0.8,0.2-1.6,0.4-1.6,0.4
		c-2.3,0.5-10.7,0.1-13.3-0.9c-1.3-0.5-5.5,0.2-7.6,0.5l-1.2,0.2c-1.3,0.2-2.5,0.1-3.7-0.2c-0.1,1.5-0.9,2.9-1.6,4.1
		c-0.4,0.7-0.9,1.5-1,2c-0.4,2.6-3.2,3.8-6,5c-1.1,0.4-2.1,0.9-2.9,1.4c-3,1.8-6.3,1.2-8.9,0.8l-1.3-0.2c-2.1-0.3-5.5,0.2-8.1,2.8
		c-3.9,3.9-7.8,3.1-9.6,2.6c-0.6,0.3-1.8,1.6-2.6,3c-1.5,2.7-4.3,3.5-6.5,3l-0.2-0.1c-0.9-0.2-2.3-0.5-3.5-0.3l-2.9,0.4l0-0.5
		c-2,0.3-4.1,0-5.3-0.9c-0.9-0.7-2.1-2.2-0.6-5.3c0.4-0.7,0.5-1.3,0.5-2c0-2.7,1.6-4.7,2.7-5.3c1.2-0.6,1.9-1.2,2.2-2.1
		c0.3-0.9,0.9-1.7,2-2.3c1.1-0.6,2.6-1.7,3.8-2.1c1.2-0.5,2.9-0.9,3.8,0c0.9,0.9,3,2.7,3,2.7c1.9-1.5,1.8-3.2,2.8-6.1
		c1.3-3.6,4.3-2.6,6.2-2.4l0.2,0c0,0,1.1,0,1.1,0.1c0.1,0,0.3-0.2,0.3-0.2l0.5-0.3c0,0,3.1-1.8,3.2-1.9c0,0,0-0.1,0-0.2
		c0-0.2-0.1-0.7-0.5-1.4c-1.4-2.2-2.4-6.5-2.6-10.1c-0.5,0.1-1,0.1-1.5,0.1C58.2,71.3,53.7,69.4,51,66.9L51,66.9z M338.5,84.3
		l-0.2,0L338.5,84.3L338.5,84.3z M261.5,24.2c-0.4-0.1-0.8-0.1-1.2-0.2L261.5,24.2L261.5,24.2z M264.7,25.4c-0.3-0.2-0.6-0.3-1-0.5
		L264.7,25.4L264.7,25.4z M210.6,124.9c0.3,0,0.6-0.1,0.9-0.1L210.6,124.9L210.6,124.9z M207.5,125.2c0.4,0,0.8-0.1,1.2-0.1
		L207.5,125.2L207.5,125.2z M206,125.3c0.4,0,0.7,0,1.1-0.1L206,125.3L206,125.3z M204.4,125.3c0.4,0,0.8,0,1.2,0L204.4,125.3
		L204.4,125.3z M201.4,125.3c0.4,0,0.9,0,1.3,0c0.4,0,0.9,0,1.3,0L201.4,125.3L201.4,125.3z M199.8,125.3c0.4,0,0.8,0,1.2,0
		L199.8,125.3L199.8,125.3z M198.3,125.2c0.3,0,0.7,0,1,0.1L198.3,125.2L198.3,125.2z M196.7,125.1c0.4,0,0.8,0.1,1.2,0.1
		L196.7,125.1L196.7,125.1z M193.7,124.7c0.4,0.1,0.8,0.1,1.2,0.2L193.7,124.7L193.7,124.7z M190.9,124.2c0.3,0.1,0.7,0.1,1,0.2
		L190.9,124.2L190.9,124.2z"/>
	<path fill-rule="evenodd" clip-rule="evenodd" fill="#EE2D3A" d="M147.2,46.4c-0.4-0.8-0.3-1.6,0.2-2.4c1-1.5,1.9,0.1,1.9,0.1
		c3.5,4.8,0.9,12.1,0.9,12.1C149.9,49.5,147.2,46.4,147.2,46.4L147.2,46.4z M177.1,78.4c0.1-1.4,0.2-4.6-1.3-5.7
		c-0.5-0.4-2.6-2.7-2.6-2.7c-0.3-0.6-0.6-0.6-0.6-0.6c-0.4,0-1,1-1,1c-1.5,2.9-3,2.5-3,2.5c0-0.5,0.3-1.1,0.3-1.1
		c0.4-0.8,2.2-4.2,2.2-4.2c0.2-0.5,0.4-1.2,0.4-1.2c1.5-2.2,2.8-0.5,2.8-0.5c0.6,1.2,3.9,5.1,3.9,5.1c0.7,0.9,0.8,1.8,0.8,1.8
		C179.8,78,177.1,78.4,177.1,78.4L177.1,78.4L177.1,78.4z M168.6,92c-0.6,0-0.8-0.2-0.7-0.9c0.4-1.9,1.9-2.7,1.9-2.7
		c2.8-1.7,3.2,0,3.2,0c0.5,3-1.9,3.4-1.9,3.4C170.6,91.9,168.6,92,168.6,92L168.6,92L168.6,92z M45,100.8c0,0,0.6,0.5,0.3,1.4
		c0,0-1.6,4.3-1.5,5.8c0,0-3.5,0.6-4-1.1c0,0-0.1-0.7,0.5-1.6c0,0,0.6-0.9,0.7-2.6c0,0-0.1-4.2,2.6-3.1
		C44.2,99.9,44.6,100.3,45,100.8L45,100.8L45,100.8z M49.3,93.9c0.6-0.5,1.4-0.8,2.2-0.6c1.7,0.4,0.7,1.8,0.7,1.8
		c-0.7,1.3-2.9,3.5-2.9,3.5c-2,1.5-3.6-0.3-3.6-0.3c-1.5-1.5,0.4-2.2,0.4-2.2C47.2,95.7,49.3,93.9,49.3,93.9L49.3,93.9L49.3,93.9z
		 M69.8,67.9c0,0-0.6,6.2,2.1,11.6c0,0,2.1,2.9-0.1,4.8l-4.2,2.5c0,0-0.6,0.4-2.5,0.3c0,0-2.6-0.6-3.5,0.5c0,0-0.8,2.2-1.7,4.1
		c0,0-1.9,4.4-5.1,5.9c0,0-2.5,0.6-3.3,2.8c0,0-0.8,1.6-2.5,1.6c0,0-1.2,0.4-2,3.1c0,0-0.4,1.8-0.4,3.1c0,0,2.1-0.3,3.5,0.2
		c0,0,3.4,1.1,4.9-1.6c0,0,2.9-5,5-4.2c0,0,4.3,1.4,7.4-1.7c0,0,4.2-4.6,10.1-3.6c0,0,6.7,1.3,8.7-0.2c0,0,4.2-2.2,5.8-2.7
		c0,0,1.9-0.6,2.1-2.7c0,0,1.2-3,2-4l-3.2,0c0,0-2.9,4.8-7.8,6.3c0,0-2.7,1.1-8,0.2c0,0-7.7-1.7-14.5,5.6c0,0-0.9,1.3-2.2,0.8
		c0,0,3.7-6.4,12-7.9c0,0,2.7-0.6,4.9-0.2c0,0,11.1,0.3,16.2-10.6c0,0-0.6-9.3,1.9-11.5c0,0,0.9-0.3,0.8,1.5c0,0-1.7,9.7,1.5,11.6
		c0,0,1.8,1.4,5.2,0.9c0,0,5.1-1.2,9.3-0.5c0,0,6.4,1.5,12,0.8c0,0-1.4-2.2-1.2-4.8c0,0,0.8-1.9,1.7-0.7c0,0,2.1,7,7.9,9.1
		c0,0,5.2,1.9,5.1,8.5c0,0-0.8,0.9-7.7,3.3c0,0-2.6,0.8-3.4-1.1c0,0-3.3-7.1-6.2-6.9l-5.4,0.4c0,0-1.9,0.5-0.5,2
		c0,0,1.9,2.5,2.6,3.9c0,0,0.2,1.3,2,1c0,0,2.4-1.2,3.8,3.3c0,0,1.2,2.3,3.4,3c0,0,2,0.7,3.8-0.4c0,0,9-3.3,10.5-4.5
		c0,0,1.9-1.1,3.5-0.6c0,0,2.7,0.6,3.8-1.5l2.8-4.3c0,0,0.6-1.1,0.5-2.4c0,0,0.3-1.3-0.9-2.7c0,0-1-1.1-1.2-1.9l-2-4.7
		c0,0-0.8-1.2-1.7-1.8l-2.6,0.2c0,0,1.8,4.6,3.2,6.5c0,0,1.8,2.8,1.7,4.5c0,0-0.1,1.2-0.6,1.7c0,0-0.6,1-0.9,1.5
		c0,0-0.8,1.7-1.5,2.1c0,0-1.1,0.7-1.4,0.7c0,0-0.5,0.1-0.1-0.7c0,0,1.5-3.1,1.4-4.8c0,0,0.3-1.7-0.9-2.8c0,0-2.9-4.5-3.3-5.9
		c0,0-0.9-1.8-1.4-2.1c0,0-1-1.3,0.6-1.9c0,0,4-0.9,4.8-1.4c0,0,1.9-0.6,3.2-4.6c0,0,1.7-4.7,1.7-7.6c0,0,3.4,6.6-2,13.3
		c0,0,4.3,1.3,6.1,0c0,0,5.4-0.8,6.4-1.1c0,0,1.3-0.3,0.6,0.6c0,0-1.6,2.3-1.8,3.8c0,0-0.1,1.2-1.1,1.9c0,0-3,2.1-3.3,4.2
		c0,0-0.7,2,0.7,1.5c0,0,1.8-0.8,2.5,0c0,0,0.2,0.1-0.5,0.9c0,0-1.8,1.6-2,3.7c0,0,0.3,2.5,1,3.3c0,0,0.8,1.1,2.1,0.8
		c0,0,0.3-0.3,1-0.1c0,0,0.6,0,2.3-0.6c0,0,2.6-0.7,3.4-1c0,0,3.2-1.2,4.9-1.1c0,0,1-0.1,2.4,0.2c0,0,4.1,0.5,6.8-2.5
		c0,0,2.1-1.6,2.8,0c0,0,4.9,6.6,12.9,4.9c0,0-6.4-2.6-8-6.2c0,0-0.2-3-3.6-7.2c0,0-1-1.4,0-1.8c0,0,0.6-0.4,1.8,0.8
		c0,0,3.2,3,4.3,5.8c0,0,3.9,5.9,9.6,3.9c0,0-4.5-1.7-6.5-4.9c0,0-1.3-4.3-5.6-7.6c0,0-0.2-4.9-2.2-7.6c0,0-1-4.6-1.3-5.6
		c0,0-1.1-4-1.1-5.1c0,0,0.4-5.2-3-9.3c0,0-2.3-4.4-5.8-7.4c0,0-2.7-3.3-4.7-5.3c0,0-2.6-3.1-8.3-7.1c0,0-2.6-1.9-4.5-3.9
		c0,0-10.1-7.3-17.4-1.4c0,0-5,3.4-9.2,4.5c0,0-8.6,1-12.3,7c0,0-0.3,1.1-3.8,1.5c0,0-7.7-0.9-13.3,6.6c0,0-2.6,2.6-7.8,3.2
		c0,0-8.5-0.9-14,5.6c0,0-13.9,12.1-22.2,4.3c0,0-4.3-4.1,0.6-11.4c0,0,3.1-3.8,8.4-7.7c0,0,4.3-3,2.3-7.7c0,0-1-4.6-7.5-4.7
		c0,0-8.1-1.6-11.4-5.7c0,0-3.7,12.9,10.7,12.7c0,0,3.7,0.6,2.4,3.5c0,0-1.8,2.5-4.3,3.5c0,0-4.3,1.9-6.3,8.2c0,0-4.4,11,6.3,15.3
		C60.9,69,65.6,68.6,69.8,67.9L69.8,67.9L69.8,67.9z"/>
	<path fill-rule="evenodd" clip-rule="evenodd" fill="#EE2D3A" d="M256.4,46.4c0.4-0.8,0.3-1.6-0.2-2.4c-1-1.5-1.9,0.1-1.9,0.1
		c-3.5,4.8-0.9,12.1-0.9,12.1C253.7,49.5,256.4,46.4,256.4,46.4L256.4,46.4z M226.4,78.4c-0.1-1.4-0.2-4.6,1.3-5.7
		c0.5-0.4,2.6-2.7,2.6-2.7c0.3-0.6,0.6-0.6,0.6-0.6c0.4,0,1,1,1,1c1.5,2.9,3,2.5,3,2.5c0-0.5-0.3-1.1-0.3-1.1
		c-0.4-0.8-2.2-4.2-2.2-4.2c-0.2-0.5-0.4-1.2-0.4-1.2c-1.5-2.2-2.8-0.5-2.8-0.5c-0.6,1.2-3.9,5.1-3.9,5.1c-0.7,0.9-0.8,1.8-0.8,1.8
		C223.8,78,226.4,78.4,226.4,78.4L226.4,78.4L226.4,78.4z M235,92c0.6,0,0.8-0.2,0.7-0.9c-0.4-1.9-1.9-2.7-1.9-2.7
		c-2.8-1.7-3.2,0-3.2,0c-0.5,3,1.9,3.4,1.9,3.4C233,91.9,235,92,235,92L235,92L235,92z M358.5,100.8c0,0-0.6,0.5-0.3,1.4
		c0,0,1.6,4.3,1.5,5.8c0,0,3.5,0.6,4-1.1c0,0,0.1-0.7-0.5-1.6c0,0-0.6-0.9-0.7-2.6c0,0,0.1-4.2-2.6-3.1
		C359.4,99.9,358.9,100.3,358.5,100.8L358.5,100.8L358.5,100.8z M354.3,93.9c-0.6-0.5-1.4-0.8-2.2-0.6c-1.7,0.4-0.7,1.8-0.7,1.8
		c0.7,1.3,2.9,3.5,2.9,3.5c2,1.5,3.6-0.3,3.6-0.3c1.5-1.5-0.4-2.2-0.4-2.2C356.4,95.7,354.3,93.9,354.3,93.9L354.3,93.9L354.3,93.9z
		 M333.7,67.9c0,0,0.6,6.2-2.1,11.6c0,0-2.1,2.9,0.1,4.8l4.2,2.5c0,0,0.6,0.4,2.5,0.3c0,0,2.6-0.6,3.5,0.5c0,0,0.8,2.2,1.7,4.1
		c0,0,1.9,4.4,5.1,5.9c0,0,2.6,0.6,3.3,2.8c0,0,0.8,1.6,2.5,1.6c0,0,1.2,0.4,2,3.1c0,0,0.4,1.8,0.4,3.1c0,0-2.1-0.3-3.5,0.2
		c0,0-3.4,1.1-4.9-1.6c0,0-2.9-5-5-4.2c0,0-4.3,1.4-7.4-1.7c0,0-4.2-4.6-10.1-3.6c0,0-6.7,1.3-8.7-0.2c0,0-4.2-2.2-5.8-2.7
		c0,0-1.9-0.6-2.1-2.7c0,0-1.2-3-2-4l3.2,0c0,0,2.9,4.8,7.8,6.3c0,0,2.7,1.1,8,0.2c0,0,7.7-1.7,14.5,5.6c0,0,0.9,1.3,2.2,0.8
		c0,0-3.7-6.4-12-7.9c0,0-2.7-0.6-4.9-0.2c0,0-11.1,0.3-16.2-10.6c0,0,0.6-9.3-1.9-11.5c0,0-0.9-0.3-0.8,1.5c0,0,1.7,9.7-1.5,11.6
		c0,0-1.8,1.4-5.2,0.9c0,0-5.1-1.2-9.3-0.5c0,0-6.4,1.5-12,0.8c0,0,1.4-2.2,1.2-4.8c0,0-0.8-1.9-1.7-0.7c0,0-2.1,7-7.9,9.1
		c0,0-5.2,1.9-5.1,8.5c0,0,0.8,0.9,7.7,3.3c0,0,2.6,0.8,3.4-1.1c0,0,3.3-7.1,6.2-6.9l5.4,0.4c0,0,1.8,0.5,0.5,2c0,0-1.9,2.5-2.6,3.9
		c0,0-0.2,1.3-2,1c0,0-2.4-1.2-3.8,3.3c0,0-1.2,2.3-3.4,3c0,0-2,0.7-3.8-0.4c0,0-9-3.3-10.5-4.5c0,0-1.9-1.1-3.5-0.6
		c0,0-2.7,0.6-3.8-1.5l-2.8-4.3c0,0-0.6-1.1-0.5-2.4c0,0-0.3-1.3,0.9-2.7c0,0,1.1-1.1,1.2-1.9l2-4.7c0,0,0.8-1.2,1.7-1.8l2.6,0.2
		c0,0-1.8,4.6-3.2,6.5c0,0-1.8,2.8-1.7,4.5c0,0,0.1,1.2,0.6,1.7c0,0,0.6,1,0.9,1.5c0,0,0.8,1.7,1.4,2.1c0,0,1.1,0.7,1.4,0.7
		c0,0,0.5,0.1,0.1-0.7c0,0-1.5-3.1-1.4-4.8c0,0-0.3-1.7,0.9-2.8c0,0,2.9-4.5,3.3-5.9c0,0,0.9-1.8,1.4-2.1c0,0,1-1.3-0.6-1.9
		c0,0-4-0.9-4.8-1.4c0,0-1.9-0.6-3.2-4.6c0,0-1.7-4.7-1.7-7.6c0,0-3.4,6.6,2,13.3c0,0-4.3,1.3-6.1,0c0,0-5.4-0.8-6.4-1.1
		c0,0-1.3-0.3-0.6,0.6c0,0,1.6,2.3,1.8,3.8c0,0,0.1,1.2,1.1,1.9c0,0,3,2.1,3.3,4.2c0,0,0.7,2-0.7,1.5c0,0-1.8-0.8-2.5,0
		c0,0-0.2,0.1,0.5,0.9c0,0,1.8,1.6,2,3.7c0,0-0.3,2.5-1,3.3c0,0-0.8,1.1-2.1,0.8c0,0-0.3-0.3-1-0.1c0,0-0.6,0-2.3-0.6
		c0,0-2.6-0.7-3.4-1c0,0-3.2-1.2-4.9-1.1c0,0-1-0.1-2.4,0.2c0,0-4.1,0.5-6.8-2.5c0,0-2.1-1.6-2.8,0c0,0-4.9,6.6-12.9,4.9
		c0,0,6.4-2.6,8-6.2c0,0,0.2-3,3.6-7.2c0,0,1-1.4,0-1.8c0,0-0.6-0.4-1.8,0.8c0,0-3.2,3-4.3,5.8c0,0-3.9,5.9-9.6,3.9
		c0,0,4.4-1.7,6.5-4.9c0,0,1.3-4.3,5.6-7.6c0,0,0.2-4.9,2.2-7.6c0,0,1-4.6,1.3-5.6c0,0,1.1-4,1.1-5.1c0,0-0.4-5.2,3-9.3
		c0,0,2.3-4.4,5.8-7.4c0,0,2.7-3.3,4.7-5.3c0,0,2.6-3.1,8.3-7.1c0,0,2.6-1.9,4.5-3.9c0,0,10.1-7.3,17.4-1.4c0,0,5,3.4,9.2,4.5
		c0,0,8.6,1,12.3,7c0,0,0.3,1.1,3.8,1.5c0,0,7.7-0.9,13.3,6.6c0,0,2.6,2.6,7.8,3.2c0,0,8.5-0.9,14,5.6c0,0,13.9,12.1,22.2,4.3
		c0,0,4.3-4.1-0.6-11.4c0,0-3.1-3.8-8.4-7.7c0,0-4.3-3-2.3-7.7c0,0,1-4.6,7.5-4.7c0,0,8.1-1.6,11.4-5.7c0,0,3.7,12.9-10.7,12.7
		c0,0-3.7,0.6-2.4,3.5c0,0,1.8,2.5,4.3,3.5c0,0,4.3,1.9,6.3,8.2c0,0,4.4,11-6.3,15.3C342.7,69,338,68.6,333.7,67.9L333.7,67.9
		L333.7,67.9z"/>
	<path fill-rule="evenodd" clip-rule="evenodd" fill="#EE2D3A" d="M80,201.9h21.3c0,0-0.9-10.1-10.5-10.1S80,201.9,80,201.9
		L80,201.9L80,201.9z M91.1,179.7c28.7,0,27.6,28,27.6,28v4.4h-39c0,6.4,5.3,11.9,12.6,11.9c7.3,0,11-7,11-7l13.8,6.8
		c-6.4,9.6-15,13.5-24.6,13.5c-29.9,0-30.5-24.9-30.5-28C61.9,206.2,62.4,179.7,91.1,179.7L91.1,179.7L91.1,179.7z M155.2,221.7
		L155.2,221.7c-0.9,0-12,0.2-12-13.5c0-13.6,12.2-14.1,12.2-14.1s13.6,0.4,13.6,13.8C168.9,221.2,156,221.7,155.2,221.7L155.2,221.7
		L155.2,221.7z M168.2,145v41.1c0,0-8.3-6.4-17.8-6.4c-9.5,0-25.5,6.7-25.5,27.7c0,21,13.6,29,25.3,29c11.7,0,18.2-7.7,18.2-7.7v6.8
		h16.9V145H168.2L168.2,145z M282.2,182.5h17.2v30.4c0,0,0.6,10.2,10.2,10.2c9.6,0,9.5-10.2,9.5-10.2v-30.2h17.3v31.3
		c0,0,2.2,24.5-26.4,24.5c-28.6,0-27.9-21.5-27.9-25.3C282.2,209.2,282.2,182.5,282.2,182.5L282.2,182.5L282.2,182.5z M346.4,145h17
		v90.6h-17V145L346.4,145z M375.2,145H392v90.6h-16.7V145L375.2,145z M247.7,220.5L247.7,220.5h-16.1v-56.7h8.6
		c0,0,11.7-0.9,11.7,9.3c0,10.2-9.3,9.3-9.3,9.3h-5.3v15.3c0,0,7.7,0,10.4,0c2.7,0,11.5,1.3,11.5,11.4
		C259.2,219.1,247.7,220.5,247.7,220.5L247.7,220.5L247.7,220.5z M262.2,188.3c0,0,7.9-6.1,7.9-17.7c0-11.6-8.4-22-26.3-22
		c-17.9,0-30,0-30,0l0,87h36.9c0,0,26.5-0.3,26.5-24.2C277.1,197.5,271.7,192.2,262.2,188.3L262.2,188.3L262.2,188.3z M0,146.8v88.9
		h17.9v-71.9h8.4c0,0,13.2-0.6,13.2,11.4c0,12-11.7,11.7-11.7,11.7h-4.3v20.5l17.9,28.3h21l-25-36.3c0,0,20.6-1.8,20.6-24.2
		c0-22.4-15.6-28.4-36.3-28.4C1,146.8,0,146.8,0,146.8L0,146.8L0,146.8z"/>
</g>
</svg>
