<?xml version="1.0" encoding="utf-8"?>
<!-- Generator: Adobe Illustrator 18.0.0, SVG Export Plug-In . SVG Version: 6.00 Build 0)  -->
<!DOCTYPE svg PUBLIC "-//W3C//DTD SVG 1.1//EN" "http://www.w3.org/Graphics/SVG/1.1/DTD/svg11.dtd">
<svg version="1.1" xmlns="http://www.w3.org/2000/svg" xmlns:xlink="http://www.w3.org/1999/xlink" x="0px" y="0px"
	 viewBox="0 0 743.004 188.534" enable-background="new 0 0 743.004 188.534" xml:space="preserve">
<g id="Layer_3" display="none">
	<rect x="-32.688" y="-41.778" display="inline" fill="#404041" width="795.429" height="271.407"/>
	<g display="inline">
		<path fill="#FFFFFF" d="M321.77,70.918c-0.777,2.328-1.859,4.617-3.254,6.859c-2.246-1.07-4.547-1.961-6.91-2.664
			c-2.363-0.699-5.441-1.055-9.234-1.055c-1.395,0-2.887,0.121-4.473,0.355c-1.578,0.23-3.023,0.68-4.297,1.332
			c-1.273,0.668-2.336,1.562-3.188,2.734c-0.867,1.16-1.293,2.664-1.293,4.527c0,2.633,0.953,4.805,2.863,6.508
			c1.887,1.691,4.309,3.402,7.254,5.109c2.633,1.465,5.062,2.941,7.316,4.406c2.246,1.48,4.219,3.062,5.926,4.766
			c1.703,1.711,3.039,3.625,4.004,5.754c0.969,2.137,1.457,4.594,1.457,7.383c0,3.945-0.727,7.738-2.156,11.371
			c-1.43,3.652-3.633,6.82-6.621,9.52c-2.977,2.719-6.75,4.887-11.324,6.508c-4.566,1.641-9.988,2.449-16.262,2.449
			c-7.277,0-14.438-1.355-21.488-4.07c0.305-2.324,0.879-4.656,1.684-7.027c0.82-2.359,1.805-4.82,2.965-7.379
			c2.941,1.094,5.941,2.023,8.996,2.793c3.062,0.77,6.035,1.156,8.887,1.156c2.398,0,4.633-0.27,6.691-0.812
			c2.047-0.543,3.828-1.352,5.34-2.426c1.5-1.098,2.68-2.41,3.539-3.961c0.852-1.551,1.277-3.371,1.277-5.449
			c0-1.559-0.352-2.918-1.051-4.078c-0.691-1.156-1.586-2.203-2.664-3.133c-1.094-0.938-2.367-1.805-3.84-2.621
			c-1.477-0.809-2.941-1.676-4.41-2.605c-4.961-2.953-8.883-5.988-11.789-9.129c-2.898-3.125-4.363-6.832-4.363-11.078
			c0-4.18,0.746-7.922,2.219-11.215c1.457-3.281,3.551-6.055,6.262-8.305c2.711-2.242,5.984-3.98,9.828-5.18
			c3.824-1.188,8.141-1.785,12.941-1.785c4.266,0,7.941,0.316,11.031,0.914c3.105,0.629,6.355,1.601,9.762,2.91
			C323.086,66.402,322.543,68.602,321.77,70.918L321.77,70.918z M374.972,107.98c-1.621,2.555-3.793,4.727-6.508,6.512
			c-2.71,1.773-5.788,3.23-9.237,4.352c-3.441,1.117-7.031,1.961-10.742,2.504l-7.785,1.27c0.473,3.711,1.707,6.492,3.719,8.305
			c2.02,1.809,4.965,2.73,8.82,2.73c3.105,0,5.844-0.328,8.199-0.992c2.359-0.648,4.863-1.523,7.491-2.609
			c1.234,1.547,2.07,3.426,2.5,5.633c0.418,2.207,0.637,4.559,0.637,7.027c-1.316,0.621-2.84,1.191-4.593,1.688
			c-1.73,0.504-3.539,0.934-5.395,1.277c-1.863,0.352-3.719,0.617-5.574,0.812c-1.863,0.184-3.523,0.293-4.996,0.293
			c-4.727,0-8.766-0.59-12.148-1.742c-3.359-1.16-6.145-2.801-8.359-4.945c-2.199-2.129-3.824-4.723-4.879-7.785
			c-1.047-3.047-1.559-6.449-1.559-10.16c0-4.723,0.809-9.363,2.43-13.926c1.629-4.582,3.938-8.664,6.922-12.262
			c2.977-3.605,6.605-6.504,10.914-8.723c4.293-2.203,9.121-3.316,14.457-3.316c2.559,0,4.938,0.34,7.141,0.945
			c2.222,0.621,4.128,1.566,5.757,2.844c1.621,1.277,2.902,2.848,3.84,4.699c0.918,1.859,1.387,4.031,1.387,6.516
			C377.409,102.402,376.597,105.422,374.972,107.98L374.972,107.98z M360.277,97.414c-0.973-0.938-2.262-1.398-3.895-1.398
			c-2.004,0-3.855,0.453-5.516,1.34c-1.668,0.883-3.121,2.074-4.355,3.539c-1.242,1.465-2.309,3.156-3.203,5.051
			c-0.883,1.91-1.559,3.816-2.027,5.75l6.043-0.934c2.938-0.453,5.344-1.051,7.199-1.797c1.859-0.73,3.324-1.543,4.41-2.438
			c1.09-0.883,1.828-1.805,2.215-2.73c0.383-0.926,0.582-1.855,0.582-2.785C361.731,99.535,361.246,98.348,360.277,97.414
			L360.277,97.414z M438.39,103.105c-0.152,1.32-0.352,2.699-0.574,4.18l-6.742,38.105c-2.938,0.465-5.77,0.691-8.484,0.691
			c-2.707,0-5.375-0.227-8.004-0.691l6.504-36.832c0.297-1.547,0.453-3.02,0.453-4.406c0-2.312-0.5-3.949-1.508-4.887
			c-1-0.918-2.426-1.395-4.297-1.395c-1.082,0-2.305,0.285-3.656,0.801c-1.359,0.559-2.73,1.703-4.121,3.441
			c-1.391,1.75-2.754,4.203-4.066,7.387c-1.32,3.16-2.441,7.344-3.379,12.535l-4.289,23.355c-3.02,0.465-5.848,0.691-8.473,0.691
			c-2.719,0-5.395-0.227-8.031-0.691l6.281-34.273c0.855-4.879,1.496-9.199,1.914-12.949c0.43-3.766,0.641-6.676,0.641-8.766
			c0-0.859,0-1.574,0-2.164c0-0.578-0.039-1.211-0.113-1.902c2.547-0.469,5.113-0.699,7.664-0.699c1.16,0,2.313,0.051,3.484,0.172
			c1.168,0.129,2.391,0.289,3.715,0.527c0.156,0.613,0.312,1.348,0.477,2.203c0.145,0.859,0.223,2.129,0.223,3.844
			c0,0.684-0.02,1.383-0.055,2.082c-0.043,0.691-0.137,1.535-0.285,2.551c0.926-1.629,2.09-3.176,3.477-4.633
			c1.398-1.477,2.98-2.766,4.762-3.844c1.781-1.09,3.695-1.934,5.75-2.559c2.047-0.621,4.121-0.945,6.219-0.945
			c4.637,0,8.27,1.195,10.863,3.562c2.594,2.352,3.883,6.289,3.883,11.785C438.62,100.547,438.546,101.785,438.39,103.105
			L438.39,103.105z M504.022,77.309l-7.558,42.062c-0.848,4.863-1.469,9.191-1.856,12.937c-0.387,3.758-0.57,6.688-0.57,8.77
			c0,0.859,0,1.574,0,2.16c0,0.578,0.023,1.211,0.109,1.918c-2.555,0.457-5.066,0.699-7.555,0.699c-2.16,0-4.562-0.242-7.191-0.699
			c-0.16-0.617-0.316-1.363-0.477-2.207c-0.152-0.852-0.223-2.137-0.223-3.836c0-0.691,0.016-1.508,0.051-2.438
			c0.031-0.926,0.141-1.898,0.289-2.91c-1.082,1.789-2.375,3.465-3.883,5.059c-1.512,1.582-3.184,2.961-5.004,4.125
			c-1.82,1.16-3.766,2.09-5.859,2.773c-2.098,0.703-4.305,1.059-6.629,1.059c-5.105,0-8.938-1.625-11.492-4.883
			c-2.555-3.254-3.84-7.555-3.84-12.883c0-5.828,0.871-11.43,2.629-16.852c1.73-5.43,4.324-10.223,7.777-14.41
			c3.441-4.172,7.727-7.539,12.832-10.043c5.105-2.52,11.074-3.789,17.879-3.789c0.547,0,1.074,0.043,1.566,0.074
			c0.508,0.039,0.953,0.039,1.344,0.039c0.844-4.555,1.449-8.418,1.801-11.594c0.348-3.176,0.527-5.824,0.527-7.902
			c0-0.855-0.027-1.559-0.062-2.145c-0.031-0.582-0.102-1.219-0.172-1.918c1.309-0.234,2.82-0.41,4.539-0.531
			c1.695-0.105,3.156-0.16,4.398-0.16c2.254,0,4.727,0.211,7.438,0.691c0.395,1.16,0.582,2.625,0.582,4.406
			C505.413,68.293,504.948,72.441,504.022,77.309L504.022,77.309z M482.007,97.465c-0.66-0.035-1.289-0.051-1.902-0.051
			c-3.738,0-6.883,0.934-9.477,2.789c-2.606,1.855-4.746,4.18-6.453,6.965c-1.703,2.789-2.941,5.793-3.707,8.996
			c-0.781,3.219-1.172,6.152-1.172,8.77c0,5.734,1.906,8.59,5.695,8.59c3.707,0,7.164-2.25,10.332-6.777
			c3.184-4.539,5.496-10.891,6.973-19.117l1.742-9.875C483.331,97.609,482.663,97.504,482.007,97.465L482.007,97.465z
			 M570.519,70.582c-0.734,2.094-1.758,4.383-3.078,6.844c-2.398-1.004-4.609-1.656-6.621-1.957
			c-2.016-0.324-3.988-0.469-5.926-0.469c-5.188,0-9.629,1.125-13.301,3.355c-3.68,2.246-6.699,5.164-9.055,8.773
			c-2.367,3.602-4.117,7.695-5.223,12.254c-1.133,4.574-1.691,9.176-1.691,13.824c0,6.734,1.645,11.531,4.934,14.406
			c3.289,2.859,7.648,4.281,13.07,4.281c1.086,0,2.281-0.051,3.602-0.164c1.32-0.109,2.324-0.246,3.016-0.406l5.109-29.148
			c1.551-0.32,3.019-0.539,4.418-0.633c1.402-0.117,2.75-0.18,4.07-0.18c1.32,0,2.684,0.062,4.121,0.18
			c1.43,0.094,2.848,0.312,4.238,0.633l-7.312,41.359c-3.406,1.148-7.242,1.984-11.504,2.492c-4.262,0.5-8.246,0.754-11.965,0.754
			c-5.645,0-10.609-0.809-14.863-2.449c-4.262-1.621-7.828-3.871-10.691-6.727c-2.867-2.859-5.012-6.266-6.441-10.164
			c-1.438-3.914-2.152-8.152-2.152-12.715c0-7.523,1.121-14.559,3.363-21.145c2.238-6.582,5.406-12.324,9.469-17.262
			c4.062-4.914,8.969-8.777,14.703-11.602c5.727-2.832,12.082-4.242,19.035-4.242c3.641,0,6.898,0.234,9.766,0.699
			c2.863,0.461,5.773,1.355,8.707,2.668C571.851,66.242,571.257,68.488,570.519,70.582L570.519,70.582z M618.089,93.922
			c-0.547,2.324-1.281,4.258-2.207,5.816c-0.473-0.078-0.969-0.172-1.523-0.238c-0.539-0.07-1.234-0.117-2.082-0.117
			c-3.168,0-5.797,0.551-7.832,1.629c-2.059,1.082-3.75,2.609-5.062,4.59c-1.316,1.98-2.363,4.355-3.125,7.148
			c-0.785,2.777-1.484,5.867-2.098,9.285l-4.293,23.355c-3.031,0.465-5.859,0.691-8.48,0.691c-2.715,0-5.395-0.227-8.016-0.691
			l6.27-34.273c0.844-4.879,1.484-9.199,1.91-12.949c0.434-3.766,0.648-6.676,0.648-8.766c0-0.859,0-1.574,0-2.164
			c0-0.578-0.047-1.211-0.125-1.902c2.559-0.469,5.113-0.699,7.68-0.699c1.152,0,2.309,0.051,3.481,0.172
			c1.152,0.129,2.391,0.289,3.707,0.527c0.164,0.613,0.309,1.348,0.473,2.203c0.148,0.859,0.223,2.129,0.223,3.844
			c0,0.684-0.016,1.383-0.047,2.082c-0.047,0.691-0.141,1.535-0.297,2.551c0.773-1.391,1.75-2.766,2.902-4.129
			c1.168-1.352,2.461-2.57,3.891-3.656c1.43-1.082,3.02-1.953,4.766-2.613c1.738-0.66,3.652-0.98,5.746-0.98
			c1.629,0,3.027,0.199,4.18,0.57c0.082,0.312,0.125,0.633,0.125,0.934c0,0.309,0,0.668,0,1.051
			C618.901,89.352,618.624,91.605,618.089,93.922L618.089,93.922z M652.472,67.562c-0.469,2.488-1.164,5.031-2.098,7.66
			c-1.398,0.246-2.844,0.395-4.352,0.469c-1.508,0.078-2.879,0.125-4.121,0.125c-1.168,0-2.516-0.047-4.066-0.125
			c-1.555-0.074-2.945-0.223-4.188-0.469c-0.078-2.699,0.098-5.281,0.524-7.727c0.426-2.438,1.113-5.016,2.039-7.711
			c1.391-0.324,2.859-0.535,4.41-0.644c1.547-0.121,2.941-0.176,4.188-0.176c1.234,0,2.613,0.055,4.113,0.176
			c1.516,0.109,2.93,0.32,4.246,0.644C653.167,62.48,652.94,65.082,652.472,67.562L652.472,67.562z M638.062,145.391
			c-2.941,0.465-5.73,0.691-8.363,0.691c-2.398,0-4.988-0.227-7.777-0.691l8.363-47.52h-7.316c0-0.219-0.031-0.457-0.059-0.691
			c-0.047-0.219-0.066-0.508-0.066-0.816c0-2.008,0.203-3.891,0.582-5.633c0.387-1.742,0.969-3.539,1.742-5.395h23.473
			L638.062,145.391L638.062,145.391z M711.12,77.309l-7.539,42.062c-0.863,4.863-1.473,9.191-1.863,12.937
			c-0.387,3.758-0.582,6.688-0.582,8.77c0,0.859,0,1.574,0,2.16c0,0.578,0.043,1.211,0.121,1.918
			c-2.559,0.457-5.082,0.699-7.547,0.699c-2.176,0-4.574-0.242-7.211-0.699c-0.152-0.617-0.305-1.363-0.453-2.207
			c-0.168-0.852-0.234-2.137-0.234-3.836c0-0.691,0.012-1.508,0.051-2.438c0.039-0.926,0.137-1.898,0.285-2.91
			c-1.07,1.789-2.375,3.465-3.883,5.059c-1.508,1.582-3.18,2.961-5.004,4.125c-1.809,1.16-3.773,2.09-5.859,2.773
			c-2.102,0.703-4.289,1.059-6.617,1.059c-5.113,0-8.953-1.625-11.496-4.883c-2.562-3.254-3.84-7.555-3.84-12.883
			c0-5.828,0.875-11.43,2.609-16.852c1.754-5.43,4.336-10.223,7.793-14.41c3.434-4.172,7.715-7.539,12.828-10.043
			c5.106-2.52,11.07-3.789,17.891-3.789c0.543,0,1.062,0.043,1.566,0.074c0.508,0.039,0.945,0.039,1.332,0.039
			c0.848-4.555,1.465-8.418,1.797-11.594c0.355-3.176,0.527-5.824,0.527-7.902c0-0.855-0.02-1.559-0.062-2.145
			c-0.035-0.582-0.098-1.219-0.168-1.918c1.32-0.234,2.832-0.41,4.535-0.531c1.695-0.105,3.168-0.16,4.418-0.16
			c2.238,0,4.715,0.211,7.426,0.691c0.395,1.16,0.574,2.625,0.574,4.406C712.515,68.293,712.062,72.441,711.12,77.309L711.12,77.309
			z M689.112,97.465c-0.656-0.035-1.301-0.051-1.914-0.051c-3.715,0-6.863,0.934-9.469,2.789c-2.598,1.855-4.738,4.18-6.438,6.965
			c-1.711,2.789-2.945,5.793-3.727,8.996c-0.766,3.219-1.152,6.152-1.152,8.77c0,5.734,1.891,8.59,5.676,8.59
			c3.727,0,7.176-2.25,10.352-6.777c3.172-4.539,5.496-10.891,6.965-19.117l1.75-9.875
			C690.448,97.609,689.769,97.504,689.112,97.465L689.112,97.465z"/>
		<g>
			<path fill="#FFFFFF" d="M230.566,84.566c-0.035-0.102-0.07-0.203-0.098-0.281c-0.512-1.285-1.059-2.586-1.621-3.906
				c-1.09-1.367-2.336-2.43-3.656-3.258c-0.582-0.371-1.195-0.699-1.812-0.977c-0.387-0.176-0.781-0.344-1.172-0.484
				c-2.496-0.902-5.086-1.203-7.359-1.203c-5.914,0-12.641,2.004-18.496,5.457c-19.223,11.449-37.746,38.191-46.398,51.894
				l0.539-0.426l-3.691,5.832c15.148-0.461,49.492-1.641,67.973-14.234C236.207,106.809,232.449,89.832,230.566,84.566z"/>
			<path fill="#FFFFFF" d="M38.912,110.23C59.899,97.746,81.471,65.328,88.76,52.996c-19.398,0.449-50.771,3.051-68.203,14.465
				C8.758,74.965-0.42,92.035,4.66,105.492c0.065,0.145,0.119,0.238,0.162,0.348c0.527,1.328,1.082,2.688,1.676,4.07
				c3.781,4.703,9.385,5.809,13.832,5.809C26.254,115.719,33.022,113.715,38.912,110.23z"/>
			<path fill="#FFFFFF" d="M163.91,105.793c-15.824-5.359-32.982-10.426-47.605-15.625c-0.176-11.52-0.477-25.559-0.826-38.328
				c-0.018-0.609-0.033-1.207-0.047-1.797c-0.021-0.629-0.037-1.242-0.051-1.859c-0.318-10.992-0.664-20.711-1.004-26.555
				C106.668,31.141,100,41.32,95.17,49.285c-0.379,0.625-0.754,1.227-1.107,1.832c-0.182,0.301-0.373,0.625-0.549,0.918
				c-0.018,0.043-0.195,0.344-0.514,0.906c-2.115,3.633-10.482,17.609-21.838,31.777c0.316,0.523,18.748,31.254,33.289,55.406
				c0.346,0.566,0.693,1.148,1.031,1.719c0.354,0.578,0.697,1.156,1.041,1.73c7.428,12.32,13.471,22.32,14.908,24.621
				l-49.975-15.781l-2.635-0.84l-2.541-0.801l-2.162-0.691c2.111-19.109,5.576-59.129,7.022-65.328
				c-8.822,11-19.457,22.117-30.365,28.617c-6.434,3.812-13.891,6-20.445,6c-4.043,0-7.639-0.812-10.678-2.348
				c-0.311-0.168-0.629-0.328-0.936-0.5c9.945,21.715,25.113,47.672,38.795,66.195c1.303,1.777,2.605,3.484,3.879,5.121
				c0.041,0.043,0.07,0.09,0.098,0.121c5.293,6.434,13.371,10.004,22.725,10.004c5.916,0,12.262-1.422,18.875-4.219
				c20.449-9.871,38.926-39.672,46.818-52.406c0.047-0.082,0.086-0.148,0.133-0.219c0.441-0.723,0.863-1.391,1.227-1.976
				c0.152-0.227,0.285-0.441,0.418-0.656l0.012,0.004c0.133-0.301,0.34-0.676,0.605-1.18c0.68-1.211,1.84-3.113,3.77-6.207
				c2.562-4.086,6.68-10.43,11.789-17.402C159.695,111.203,161.723,108.535,163.91,105.793z"/>
			<path fill="#FFFFFF" d="M130.65,48.238c0.316,0.562,0.643,1.117,0.967,1.672c12.234,21.031,27.309,46.945,32.367,55.789
				c8.488-10.645,19.371-22.301,30.5-28.93c6.391-3.793,13.816-5.957,20.363-5.957c1.871,0,3.637,0.18,5.32,0.52
				c0.012,0,0.023,0.008,0.039,0.016c-0.02-0.016-0.031-0.039-0.059-0.055c-14.699-8.992-34.781-20.914-45.469-27.812
				c0.367-2.695,0.734-5.43,1.09-8.141c0.109-0.852,0.219-1.688,0.336-2.531c0.109-0.891,0.23-1.777,0.344-2.664
				c1.219-9.344,2.344-18.293,3.172-25.395c2.254,2.953,4.539,6.078,6.828,9.309c0.484,0.703,0.969,1.398,1.465,2.102
				c0.445,0.637,0.887,1.301,1.34,1.953c0.203,0.305,0.41,0.625,0.641,0.945c10.332,15.199,30.707,52.363,30.707,52.363l2.25,0.609
				c0.992,0.336,1.934,0.73,2.82,1.176c0.039,0.027,0.078,0.047,0.109,0.066c-3.957-8.57-8.758-17.824-14.043-27.117
				c-6.676-11.746-14.09-23.543-21.504-34.094c-0.676-0.98-1.375-1.957-2.062-2.918c-1.602-2.223-3.184-4.375-4.762-6.449
				c-0.934-1.242-1.871-2.453-2.789-3.625c-0.102-0.125-0.211-0.23-0.328-0.34v-0.027c-4.973-3.992-11.988-6.23-19.895-6.23
				c-6.406,0-12.965,1.508-17.996,4.129c-9.695,4.894-19.225,14.266-27.57,24.473c1.754,3.019,7.631,13.125,14.814,25.461
				C129.982,47.102,130.311,47.668,130.65,48.238z"/>
		</g>
		<g>
			<path fill="#FFFFFF" d="M721.659,70.57c-2.941,0-5.113-2.223-5.113-5.121c0-3.277,2.203-5.305,5.746-5.305
				c2.906,0,4.965,2.133,4.965,5.023C727.257,68.461,725.14,70.57,721.659,70.57z M721.976,61.316c-2.188,0-3.988,1.461-3.988,3.945
				c0,2.539,1.555,4.113,4.016,4.113c2.078,0,3.848-1.543,3.848-4.016C725.851,62.918,724.23,61.316,721.976,61.316z
				 M722.866,67.977l-1.355-1.996v1.207c0,0.043,0.008,0.199,0.105,0.789h-1.652v-4.543l-0.106-0.992h1.895
				c1.113,0,2.176,0.602,2.176,1.809c0,0.582-0.43,1.262-1.078,1.559l1.871,2.168H722.866z M721.569,65.238
				c0.473,0,0.984-0.32,0.984-0.988c0-0.664-0.512-0.863-0.984-0.863h-0.059v1.851H721.569z"/>
		</g>
	</g>
</g>
<g id="Layer_5" display="none">
	<g display="inline">
		<path fill="#2A79BD" d="M321.77,70.918c-0.777,2.328-1.859,4.617-3.254,6.859c-2.246-1.07-4.547-1.961-6.91-2.664
			c-2.363-0.699-5.441-1.055-9.234-1.055c-1.395,0-2.887,0.121-4.473,0.355c-1.578,0.23-3.023,0.68-4.297,1.332
			c-1.273,0.668-2.336,1.562-3.188,2.734c-0.867,1.16-1.293,2.664-1.293,4.527c0,2.633,0.953,4.805,2.863,6.508
			c1.887,1.691,4.309,3.402,7.254,5.109c2.633,1.465,5.062,2.941,7.316,4.406c2.246,1.48,4.219,3.062,5.926,4.766
			c1.703,1.711,3.039,3.625,4.004,5.754c0.969,2.137,1.457,4.594,1.457,7.383c0,3.945-0.727,7.738-2.156,11.371
			c-1.43,3.652-3.633,6.82-6.621,9.52c-2.977,2.719-6.75,4.887-11.324,6.508c-4.566,1.641-9.988,2.449-16.262,2.449
			c-7.277,0-14.438-1.355-21.488-4.07c0.305-2.324,0.879-4.656,1.684-7.027c0.82-2.359,1.805-4.82,2.965-7.379
			c2.941,1.094,5.941,2.023,8.996,2.793c3.062,0.77,6.035,1.156,8.887,1.156c2.398,0,4.633-0.27,6.691-0.812
			c2.047-0.543,3.828-1.352,5.34-2.426c1.5-1.098,2.68-2.41,3.539-3.961c0.852-1.551,1.277-3.371,1.277-5.449
			c0-1.559-0.352-2.918-1.051-4.078c-0.691-1.156-1.586-2.203-2.664-3.133c-1.094-0.938-2.367-1.805-3.84-2.621
			c-1.477-0.809-2.941-1.676-4.41-2.605c-4.961-2.953-8.883-5.988-11.789-9.129c-2.898-3.125-4.363-6.832-4.363-11.078
			c0-4.18,0.746-7.922,2.219-11.215c1.457-3.281,3.551-6.055,6.262-8.305c2.711-2.242,5.984-3.98,9.828-5.18
			c3.824-1.188,8.141-1.785,12.941-1.785c4.266,0,7.941,0.316,11.031,0.914c3.105,0.629,6.355,1.601,9.762,2.91
			C323.086,66.402,322.543,68.602,321.77,70.918L321.77,70.918z M374.972,107.98c-1.621,2.555-3.793,4.727-6.508,6.512
			c-2.71,1.773-5.788,3.23-9.237,4.352c-3.441,1.117-7.031,1.961-10.742,2.504l-7.785,1.27c0.473,3.711,1.707,6.492,3.719,8.305
			c2.02,1.809,4.965,2.73,8.82,2.73c3.105,0,5.844-0.328,8.199-0.992c2.359-0.648,4.863-1.523,7.491-2.609
			c1.234,1.547,2.07,3.426,2.5,5.633c0.418,2.207,0.637,4.559,0.637,7.027c-1.316,0.621-2.84,1.191-4.593,1.688
			c-1.73,0.504-3.539,0.934-5.395,1.277c-1.863,0.352-3.719,0.617-5.574,0.812c-1.863,0.184-3.523,0.293-4.996,0.293
			c-4.727,0-8.766-0.59-12.148-1.742c-3.359-1.16-6.145-2.801-8.359-4.945c-2.199-2.129-3.824-4.723-4.879-7.785
			c-1.047-3.047-1.559-6.449-1.559-10.16c0-4.723,0.809-9.363,2.43-13.926c1.629-4.582,3.938-8.664,6.922-12.262
			c2.977-3.605,6.605-6.504,10.914-8.723c4.293-2.203,9.121-3.316,14.457-3.316c2.559,0,4.938,0.34,7.141,0.945
			c2.222,0.621,4.128,1.566,5.757,2.844c1.621,1.277,2.902,2.848,3.84,4.699c0.918,1.859,1.387,4.031,1.387,6.516
			C377.409,102.402,376.597,105.422,374.972,107.98L374.972,107.98z M360.277,97.414c-0.973-0.938-2.262-1.398-3.895-1.398
			c-2.004,0-3.855,0.453-5.516,1.34c-1.668,0.883-3.121,2.074-4.355,3.539c-1.242,1.465-2.309,3.156-3.203,5.051
			c-0.883,1.91-1.559,3.816-2.027,5.75l6.043-0.934c2.938-0.453,5.344-1.051,7.199-1.797c1.859-0.73,3.324-1.543,4.41-2.438
			c1.09-0.883,1.828-1.805,2.215-2.73c0.383-0.926,0.582-1.855,0.582-2.785C361.731,99.535,361.246,98.348,360.277,97.414
			L360.277,97.414z M438.39,103.105c-0.152,1.32-0.352,2.699-0.574,4.18l-6.742,38.105c-2.938,0.465-5.77,0.691-8.484,0.691
			c-2.707,0-5.375-0.227-8.004-0.691l6.504-36.832c0.297-1.547,0.453-3.02,0.453-4.406c0-2.312-0.5-3.949-1.508-4.887
			c-1-0.918-2.426-1.395-4.297-1.395c-1.082,0-2.305,0.285-3.656,0.801c-1.359,0.559-2.73,1.703-4.121,3.441
			c-1.391,1.75-2.754,4.203-4.066,7.387c-1.32,3.16-2.441,7.344-3.379,12.535l-4.289,23.355c-3.02,0.465-5.848,0.691-8.473,0.691
			c-2.719,0-5.395-0.227-8.031-0.691l6.281-34.273c0.855-4.879,1.496-9.199,1.914-12.949c0.43-3.766,0.641-6.676,0.641-8.766
			c0-0.859,0-1.574,0-2.164c0-0.578-0.039-1.211-0.113-1.902c2.547-0.469,5.113-0.699,7.664-0.699c1.16,0,2.313,0.051,3.484,0.172
			c1.168,0.129,2.391,0.289,3.715,0.527c0.156,0.613,0.312,1.348,0.477,2.203c0.145,0.859,0.223,2.129,0.223,3.844
			c0,0.684-0.02,1.383-0.055,2.082c-0.043,0.691-0.137,1.535-0.285,2.551c0.926-1.629,2.09-3.176,3.477-4.633
			c1.398-1.477,2.98-2.766,4.762-3.844c1.781-1.09,3.695-1.934,5.75-2.559c2.047-0.621,4.121-0.945,6.219-0.945
			c4.637,0,8.27,1.195,10.863,3.562c2.594,2.352,3.883,6.289,3.883,11.785C438.62,100.547,438.546,101.785,438.39,103.105
			L438.39,103.105z M504.022,77.309l-7.558,42.062c-0.848,4.863-1.469,9.191-1.856,12.937c-0.387,3.758-0.57,6.688-0.57,8.77
			c0,0.859,0,1.574,0,2.16c0,0.578,0.023,1.211,0.109,1.918c-2.555,0.457-5.066,0.699-7.555,0.699c-2.16,0-4.562-0.242-7.191-0.699
			c-0.16-0.617-0.316-1.363-0.477-2.207c-0.152-0.852-0.223-2.137-0.223-3.836c0-0.691,0.016-1.508,0.051-2.438
			c0.031-0.926,0.141-1.898,0.289-2.91c-1.082,1.789-2.375,3.465-3.883,5.059c-1.512,1.582-3.184,2.961-5.004,4.125
			c-1.82,1.16-3.766,2.09-5.859,2.773c-2.098,0.703-4.305,1.059-6.629,1.059c-5.105,0-8.938-1.625-11.492-4.883
			c-2.555-3.254-3.84-7.555-3.84-12.883c0-5.828,0.871-11.43,2.629-16.852c1.73-5.43,4.324-10.223,7.777-14.41
			c3.441-4.172,7.727-7.539,12.832-10.043c5.105-2.52,11.074-3.789,17.879-3.789c0.547,0,1.074,0.043,1.566,0.074
			c0.508,0.039,0.953,0.039,1.344,0.039c0.844-4.555,1.449-8.418,1.801-11.594c0.348-3.176,0.527-5.824,0.527-7.902
			c0-0.855-0.027-1.559-0.062-2.145c-0.031-0.582-0.102-1.219-0.172-1.918c1.309-0.234,2.82-0.41,4.539-0.531
			c1.695-0.105,3.156-0.16,4.398-0.16c2.254,0,4.727,0.211,7.438,0.691c0.395,1.16,0.582,2.625,0.582,4.406
			C505.413,68.293,504.948,72.441,504.022,77.309L504.022,77.309z M482.007,97.465c-0.66-0.035-1.289-0.051-1.902-0.051
			c-3.738,0-6.883,0.934-9.477,2.789c-2.606,1.855-4.746,4.18-6.453,6.965c-1.703,2.789-2.941,5.793-3.707,8.996
			c-0.781,3.219-1.172,6.152-1.172,8.77c0,5.734,1.906,8.59,5.695,8.59c3.707,0,7.164-2.25,10.332-6.777
			c3.184-4.539,5.496-10.891,6.973-19.117l1.742-9.875C483.331,97.609,482.663,97.504,482.007,97.465L482.007,97.465z
			 M570.519,70.582c-0.734,2.094-1.758,4.383-3.078,6.844c-2.398-1.004-4.609-1.656-6.621-1.957
			c-2.016-0.324-3.988-0.469-5.926-0.469c-5.188,0-9.629,1.125-13.301,3.355c-3.68,2.246-6.699,5.164-9.055,8.773
			c-2.367,3.602-4.117,7.695-5.223,12.254c-1.133,4.574-1.691,9.176-1.691,13.824c0,6.734,1.645,11.531,4.934,14.406
			c3.289,2.859,7.648,4.281,13.07,4.281c1.086,0,2.281-0.051,3.602-0.164c1.32-0.109,2.324-0.246,3.016-0.406l5.109-29.148
			c1.551-0.32,3.019-0.539,4.418-0.633c1.402-0.117,2.75-0.18,4.07-0.18c1.32,0,2.684,0.062,4.121,0.18
			c1.43,0.094,2.848,0.312,4.238,0.633l-7.312,41.359c-3.406,1.148-7.242,1.984-11.504,2.492c-4.262,0.5-8.246,0.754-11.965,0.754
			c-5.645,0-10.609-0.809-14.863-2.449c-4.262-1.621-7.828-3.871-10.691-6.727c-2.867-2.859-5.012-6.266-6.441-10.164
			c-1.438-3.914-2.152-8.152-2.152-12.715c0-7.523,1.121-14.559,3.363-21.145c2.238-6.582,5.406-12.324,9.469-17.262
			c4.062-4.914,8.969-8.777,14.703-11.602c5.727-2.832,12.082-4.242,19.035-4.242c3.641,0,6.898,0.234,9.766,0.699
			c2.863,0.461,5.773,1.355,8.707,2.668C571.851,66.242,571.257,68.488,570.519,70.582L570.519,70.582z M618.089,93.922
			c-0.547,2.324-1.281,4.258-2.207,5.816c-0.473-0.078-0.969-0.172-1.523-0.238c-0.539-0.07-1.234-0.117-2.082-0.117
			c-3.168,0-5.797,0.551-7.832,1.629c-2.059,1.082-3.75,2.609-5.062,4.59c-1.316,1.98-2.363,4.355-3.125,7.148
			c-0.785,2.777-1.484,5.867-2.098,9.285l-4.293,23.355c-3.031,0.465-5.859,0.691-8.48,0.691c-2.715,0-5.395-0.227-8.016-0.691
			l6.27-34.273c0.844-4.879,1.484-9.199,1.91-12.949c0.434-3.766,0.648-6.676,0.648-8.766c0-0.859,0-1.574,0-2.164
			c0-0.578-0.047-1.211-0.125-1.902c2.559-0.469,5.113-0.699,7.68-0.699c1.152,0,2.309,0.051,3.481,0.172
			c1.152,0.129,2.391,0.289,3.707,0.527c0.164,0.613,0.309,1.348,0.473,2.203c0.148,0.859,0.223,2.129,0.223,3.844
			c0,0.684-0.016,1.383-0.047,2.082c-0.047,0.691-0.141,1.535-0.297,2.551c0.773-1.391,1.75-2.766,2.902-4.129
			c1.168-1.352,2.461-2.57,3.891-3.656c1.43-1.082,3.02-1.953,4.766-2.613c1.738-0.66,3.652-0.98,5.746-0.98
			c1.629,0,3.027,0.199,4.18,0.57c0.082,0.312,0.125,0.633,0.125,0.934c0,0.309,0,0.668,0,1.051
			C618.901,89.352,618.624,91.605,618.089,93.922L618.089,93.922z M652.472,67.562c-0.469,2.488-1.164,5.031-2.098,7.66
			c-1.398,0.246-2.844,0.395-4.352,0.469c-1.508,0.078-2.879,0.125-4.121,0.125c-1.168,0-2.516-0.047-4.066-0.125
			c-1.555-0.074-2.945-0.223-4.188-0.469c-0.078-2.699,0.098-5.281,0.524-7.727c0.426-2.438,1.113-5.016,2.039-7.711
			c1.391-0.324,2.859-0.535,4.41-0.644c1.547-0.121,2.941-0.176,4.188-0.176c1.234,0,2.613,0.055,4.113,0.176
			c1.516,0.109,2.93,0.32,4.246,0.644C653.167,62.48,652.94,65.082,652.472,67.562L652.472,67.562z M638.062,145.391
			c-2.941,0.465-5.73,0.691-8.363,0.691c-2.398,0-4.988-0.227-7.777-0.691l8.363-47.52h-7.316c0-0.219-0.031-0.457-0.059-0.691
			c-0.047-0.219-0.066-0.508-0.066-0.816c0-2.008,0.203-3.891,0.582-5.633c0.387-1.742,0.969-3.539,1.742-5.395h23.473
			L638.062,145.391L638.062,145.391z M711.12,77.309l-7.539,42.062c-0.863,4.863-1.473,9.191-1.863,12.937
			c-0.387,3.758-0.582,6.688-0.582,8.77c0,0.859,0,1.574,0,2.16c0,0.578,0.043,1.211,0.121,1.918
			c-2.559,0.457-5.082,0.699-7.547,0.699c-2.176,0-4.574-0.242-7.211-0.699c-0.152-0.617-0.305-1.363-0.453-2.207
			c-0.168-0.852-0.234-2.137-0.234-3.836c0-0.691,0.012-1.508,0.051-2.438c0.039-0.926,0.137-1.898,0.285-2.91
			c-1.07,1.789-2.375,3.465-3.883,5.059c-1.508,1.582-3.18,2.961-5.004,4.125c-1.809,1.16-3.773,2.09-5.859,2.773
			c-2.102,0.703-4.289,1.059-6.617,1.059c-5.113,0-8.953-1.625-11.496-4.883c-2.562-3.254-3.84-7.555-3.84-12.883
			c0-5.828,0.875-11.43,2.609-16.852c1.754-5.43,4.336-10.223,7.793-14.41c3.434-4.172,7.715-7.539,12.828-10.043
			c5.106-2.52,11.07-3.789,17.891-3.789c0.543,0,1.062,0.043,1.566,0.074c0.508,0.039,0.945,0.039,1.332,0.039
			c0.848-4.555,1.465-8.418,1.797-11.594c0.355-3.176,0.527-5.824,0.527-7.902c0-0.855-0.02-1.559-0.062-2.145
			c-0.035-0.582-0.098-1.219-0.168-1.918c1.32-0.234,2.832-0.41,4.535-0.531c1.695-0.105,3.168-0.16,4.418-0.16
			c2.238,0,4.715,0.211,7.426,0.691c0.395,1.16,0.574,2.625,0.574,4.406C712.515,68.293,712.062,72.441,711.12,77.309L711.12,77.309
			z M689.112,97.465c-0.656-0.035-1.301-0.051-1.914-0.051c-3.715,0-6.863,0.934-9.469,2.789c-2.598,1.855-4.738,4.18-6.438,6.965
			c-1.711,2.789-2.945,5.793-3.727,8.996c-0.766,3.219-1.152,6.152-1.152,8.77c0,5.734,1.891,8.59,5.676,8.59
			c3.727,0,7.176-2.25,10.352-6.777c3.172-4.539,5.496-10.891,6.965-19.117l1.75-9.875
			C690.448,97.609,689.769,97.504,689.112,97.465L689.112,97.465z"/>
		<g>
			<path fill="#2A79BD" d="M230.566,84.566c-0.035-0.102-0.07-0.203-0.098-0.281c-0.512-1.285-1.059-2.586-1.621-3.906
				c-1.09-1.367-2.336-2.43-3.656-3.258c-0.582-0.371-1.195-0.699-1.812-0.977c-0.387-0.176-0.781-0.344-1.172-0.484
				c-2.496-0.902-5.086-1.203-7.359-1.203c-5.914,0-12.641,2.004-18.496,5.457c-19.223,11.449-37.746,38.191-46.398,51.894
				l0.539-0.426l-3.691,5.832c15.148-0.461,49.492-1.641,67.973-14.234C236.207,106.809,232.449,89.832,230.566,84.566z"/>
			<path fill="#2A79BD" d="M38.912,110.23C59.899,97.746,81.471,65.328,88.76,52.996c-19.398,0.449-50.771,3.051-68.203,14.465
				C8.758,74.965-0.42,92.035,4.66,105.492c0.065,0.145,0.119,0.238,0.162,0.348c0.527,1.328,1.082,2.688,1.676,4.07
				c3.781,4.703,9.385,5.809,13.832,5.809C26.254,115.719,33.022,113.715,38.912,110.23z"/>
			<path fill="#2A79BD" d="M163.91,105.793c-15.824-5.359-32.982-10.426-47.605-15.625c-0.176-11.52-0.477-25.559-0.826-38.328
				c-0.018-0.609-0.033-1.207-0.047-1.797c-0.021-0.629-0.037-1.242-0.051-1.859c-0.318-10.992-0.664-20.711-1.004-26.555
				C106.668,31.141,100,41.32,95.17,49.285c-0.379,0.625-0.754,1.227-1.107,1.832c-0.182,0.301-0.373,0.625-0.549,0.918
				c-0.018,0.043-0.195,0.344-0.514,0.906c-2.115,3.633-10.482,17.609-21.838,31.777c0.316,0.523,18.748,31.254,33.289,55.406
				c0.346,0.566,0.693,1.148,1.031,1.719c0.354,0.578,0.697,1.156,1.041,1.73c7.428,12.32,13.471,22.32,14.908,24.621
				l-49.975-15.781l-2.635-0.84l-2.541-0.801l-2.162-0.691c2.111-19.109,5.576-59.129,7.022-65.328
				c-8.822,11-19.457,22.117-30.365,28.617c-6.434,3.812-13.891,6-20.445,6c-4.043,0-7.639-0.812-10.678-2.348
				c-0.311-0.168-0.629-0.328-0.936-0.5c9.945,21.715,25.113,47.672,38.795,66.195c1.303,1.777,2.605,3.484,3.879,5.121
				c0.041,0.043,0.07,0.09,0.098,0.121c5.293,6.434,13.371,10.004,22.725,10.004c5.916,0,12.262-1.422,18.875-4.219
				c20.449-9.871,38.926-39.672,46.818-52.406c0.047-0.082,0.086-0.148,0.133-0.219c0.441-0.723,0.863-1.391,1.227-1.976
				c0.152-0.227,0.285-0.441,0.418-0.656l0.012,0.004c0.133-0.301,0.34-0.676,0.605-1.18c0.68-1.211,1.84-3.113,3.77-6.207
				c2.562-4.086,6.68-10.43,11.789-17.402C159.695,111.203,161.723,108.535,163.91,105.793z"/>
			<path fill="#2A79BD" d="M130.65,48.238c0.316,0.562,0.643,1.117,0.967,1.672c12.234,21.031,27.309,46.945,32.367,55.789
				c8.488-10.645,19.371-22.301,30.5-28.93c6.391-3.793,13.816-5.957,20.363-5.957c1.871,0,3.637,0.18,5.32,0.52
				c0.012,0,0.023,0.008,0.039,0.016c-0.02-0.016-0.031-0.039-0.059-0.055c-14.699-8.992-34.781-20.914-45.469-27.812
				c0.367-2.695,0.734-5.43,1.09-8.141c0.109-0.852,0.219-1.688,0.336-2.531c0.109-0.891,0.23-1.777,0.344-2.664
				c1.219-9.344,2.344-18.293,3.172-25.395c2.254,2.953,4.539,6.078,6.828,9.309c0.484,0.703,0.969,1.398,1.465,2.102
				c0.445,0.637,0.887,1.301,1.34,1.953c0.203,0.305,0.41,0.625,0.641,0.945c10.332,15.199,30.707,52.363,30.707,52.363l2.25,0.609
				c0.992,0.336,1.934,0.73,2.82,1.176c0.039,0.027,0.078,0.047,0.109,0.066c-3.957-8.57-8.758-17.824-14.043-27.117
				c-6.676-11.746-14.09-23.543-21.504-34.094c-0.676-0.98-1.375-1.957-2.062-2.918c-1.602-2.223-3.184-4.375-4.762-6.449
				c-0.934-1.242-1.871-2.453-2.789-3.625c-0.102-0.125-0.211-0.23-0.328-0.34v-0.027c-4.973-3.992-11.988-6.23-19.895-6.23
				c-6.406,0-12.965,1.508-17.996,4.129c-9.695,4.894-19.225,14.266-27.57,24.473c1.754,3.019,7.631,13.125,14.814,25.461
				C129.982,47.102,130.311,47.668,130.65,48.238z"/>
		</g>
		<g>
			<path fill="#2A79BD" d="M721.659,70.57c-2.941,0-5.113-2.223-5.113-5.121c0-3.277,2.203-5.305,5.746-5.305
				c2.906,0,4.965,2.133,4.965,5.023C727.257,68.461,725.14,70.57,721.659,70.57z M721.976,61.316c-2.188,0-3.988,1.461-3.988,3.945
				c0,2.539,1.555,4.113,4.016,4.113c2.078,0,3.848-1.543,3.848-4.016C725.851,62.918,724.23,61.316,721.976,61.316z
				 M722.866,67.977l-1.355-1.996v1.207c0,0.043,0.008,0.199,0.105,0.789h-1.652v-4.543l-0.106-0.992h1.895
				c1.113,0,2.176,0.602,2.176,1.809c0,0.582-0.43,1.262-1.078,1.559l1.871,2.168H722.866z M721.569,65.238
				c0.473,0,0.984-0.32,0.984-0.988c0-0.664-0.512-0.863-0.984-0.863h-0.059v1.851H721.569z"/>
		</g>
	</g>
</g>
<g id="Layer_6" display="none">
	<g display="inline">
		<path fill="#404041" d="M321.77,70.918c-0.777,2.328-1.859,4.617-3.254,6.859c-2.246-1.07-4.547-1.961-6.91-2.664
			c-2.363-0.699-5.441-1.055-9.234-1.055c-1.395,0-2.887,0.121-4.473,0.355c-1.578,0.23-3.023,0.68-4.297,1.332
			c-1.273,0.668-2.336,1.562-3.188,2.734c-0.867,1.16-1.293,2.664-1.293,4.527c0,2.633,0.953,4.805,2.863,6.508
			c1.887,1.691,4.309,3.402,7.254,5.109c2.633,1.465,5.062,2.941,7.316,4.406c2.246,1.48,4.219,3.062,5.926,4.766
			c1.703,1.711,3.039,3.625,4.004,5.754c0.969,2.137,1.457,4.594,1.457,7.383c0,3.945-0.727,7.738-2.156,11.371
			c-1.43,3.652-3.633,6.82-6.621,9.52c-2.977,2.719-6.75,4.887-11.324,6.508c-4.566,1.641-9.988,2.449-16.262,2.449
			c-7.277,0-14.438-1.355-21.488-4.07c0.305-2.324,0.879-4.656,1.684-7.027c0.82-2.359,1.805-4.82,2.965-7.379
			c2.941,1.094,5.941,2.023,8.996,2.793c3.062,0.77,6.035,1.156,8.887,1.156c2.398,0,4.633-0.27,6.691-0.812
			c2.047-0.543,3.828-1.352,5.34-2.426c1.5-1.098,2.68-2.41,3.539-3.961c0.852-1.551,1.277-3.371,1.277-5.449
			c0-1.559-0.352-2.918-1.051-4.078c-0.691-1.156-1.586-2.203-2.664-3.133c-1.094-0.938-2.367-1.805-3.84-2.621
			c-1.477-0.809-2.941-1.676-4.41-2.605c-4.961-2.953-8.883-5.988-11.789-9.129c-2.898-3.125-4.363-6.832-4.363-11.078
			c0-4.18,0.746-7.922,2.219-11.215c1.457-3.281,3.551-6.055,6.262-8.305c2.711-2.242,5.984-3.98,9.828-5.18
			c3.824-1.188,8.141-1.785,12.941-1.785c4.266,0,7.941,0.316,11.031,0.914c3.105,0.629,6.355,1.601,9.762,2.91
			C323.086,66.402,322.543,68.602,321.77,70.918L321.77,70.918z M374.972,107.98c-1.621,2.555-3.793,4.727-6.508,6.512
			c-2.71,1.773-5.788,3.23-9.237,4.352c-3.441,1.117-7.031,1.961-10.742,2.504l-7.785,1.27c0.473,3.711,1.707,6.492,3.719,8.305
			c2.02,1.809,4.965,2.73,8.82,2.73c3.105,0,5.844-0.328,8.199-0.992c2.359-0.648,4.863-1.523,7.491-2.609
			c1.234,1.547,2.07,3.426,2.5,5.633c0.418,2.207,0.637,4.559,0.637,7.027c-1.316,0.621-2.84,1.191-4.593,1.688
			c-1.73,0.504-3.539,0.934-5.395,1.277c-1.863,0.352-3.719,0.617-5.574,0.812c-1.863,0.184-3.523,0.293-4.996,0.293
			c-4.727,0-8.766-0.59-12.148-1.742c-3.359-1.16-6.145-2.801-8.359-4.945c-2.199-2.129-3.824-4.723-4.879-7.785
			c-1.047-3.047-1.559-6.449-1.559-10.16c0-4.723,0.809-9.363,2.43-13.926c1.629-4.582,3.938-8.664,6.922-12.262
			c2.977-3.605,6.605-6.504,10.914-8.723c4.293-2.203,9.121-3.316,14.457-3.316c2.559,0,4.938,0.34,7.141,0.945
			c2.222,0.621,4.128,1.566,5.757,2.844c1.621,1.277,2.902,2.848,3.84,4.699c0.918,1.859,1.387,4.031,1.387,6.516
			C377.409,102.402,376.597,105.422,374.972,107.98L374.972,107.98z M360.277,97.414c-0.973-0.938-2.262-1.398-3.895-1.398
			c-2.004,0-3.855,0.453-5.516,1.34c-1.668,0.883-3.121,2.074-4.355,3.539c-1.242,1.465-2.309,3.156-3.203,5.051
			c-0.883,1.91-1.559,3.816-2.027,5.75l6.043-0.934c2.938-0.453,5.344-1.051,7.199-1.797c1.859-0.73,3.324-1.543,4.41-2.438
			c1.09-0.883,1.828-1.805,2.215-2.73c0.383-0.926,0.582-1.855,0.582-2.785C361.731,99.535,361.246,98.348,360.277,97.414
			L360.277,97.414z M438.39,103.105c-0.152,1.32-0.352,2.699-0.574,4.18l-6.742,38.105c-2.938,0.465-5.77,0.691-8.484,0.691
			c-2.707,0-5.375-0.227-8.004-0.691l6.504-36.832c0.297-1.547,0.453-3.02,0.453-4.406c0-2.312-0.5-3.949-1.508-4.887
			c-1-0.918-2.426-1.395-4.297-1.395c-1.082,0-2.305,0.285-3.656,0.801c-1.359,0.559-2.73,1.703-4.121,3.441
			c-1.391,1.75-2.754,4.203-4.066,7.387c-1.32,3.16-2.441,7.344-3.379,12.535l-4.289,23.355c-3.02,0.465-5.848,0.691-8.473,0.691
			c-2.719,0-5.395-0.227-8.031-0.691l6.281-34.273c0.855-4.879,1.496-9.199,1.914-12.949c0.43-3.766,0.641-6.676,0.641-8.766
			c0-0.859,0-1.574,0-2.164c0-0.578-0.039-1.211-0.113-1.902c2.547-0.469,5.113-0.699,7.664-0.699c1.16,0,2.313,0.051,3.484,0.172
			c1.168,0.129,2.391,0.289,3.715,0.527c0.156,0.613,0.312,1.348,0.477,2.203c0.145,0.859,0.223,2.129,0.223,3.844
			c0,0.684-0.02,1.383-0.055,2.082c-0.043,0.691-0.137,1.535-0.285,2.551c0.926-1.629,2.09-3.176,3.477-4.633
			c1.398-1.477,2.98-2.766,4.762-3.844c1.781-1.09,3.695-1.934,5.75-2.559c2.047-0.621,4.121-0.945,6.219-0.945
			c4.637,0,8.27,1.195,10.863,3.562c2.594,2.352,3.883,6.289,3.883,11.785C438.62,100.547,438.546,101.785,438.39,103.105
			L438.39,103.105z M504.022,77.309l-7.558,42.062c-0.848,4.863-1.469,9.191-1.856,12.937c-0.387,3.758-0.57,6.688-0.57,8.77
			c0,0.859,0,1.574,0,2.16c0,0.578,0.023,1.211,0.109,1.918c-2.555,0.457-5.066,0.699-7.555,0.699c-2.16,0-4.562-0.242-7.191-0.699
			c-0.16-0.617-0.316-1.363-0.477-2.207c-0.152-0.852-0.223-2.137-0.223-3.836c0-0.691,0.016-1.508,0.051-2.438
			c0.031-0.926,0.141-1.898,0.289-2.91c-1.082,1.789-2.375,3.465-3.883,5.059c-1.512,1.582-3.184,2.961-5.004,4.125
			c-1.82,1.16-3.766,2.09-5.859,2.773c-2.098,0.703-4.305,1.059-6.629,1.059c-5.105,0-8.938-1.625-11.492-4.883
			c-2.555-3.254-3.84-7.555-3.84-12.883c0-5.828,0.871-11.43,2.629-16.852c1.73-5.43,4.324-10.223,7.777-14.41
			c3.441-4.172,7.727-7.539,12.832-10.043c5.105-2.52,11.074-3.789,17.879-3.789c0.547,0,1.074,0.043,1.566,0.074
			c0.508,0.039,0.953,0.039,1.344,0.039c0.844-4.555,1.449-8.418,1.801-11.594c0.348-3.176,0.527-5.824,0.527-7.902
			c0-0.855-0.027-1.559-0.062-2.145c-0.031-0.582-0.102-1.219-0.172-1.918c1.309-0.234,2.82-0.41,4.539-0.531
			c1.695-0.105,3.156-0.16,4.398-0.16c2.254,0,4.727,0.211,7.438,0.691c0.395,1.16,0.582,2.625,0.582,4.406
			C505.413,68.293,504.948,72.441,504.022,77.309L504.022,77.309z M482.007,97.465c-0.66-0.035-1.289-0.051-1.902-0.051
			c-3.738,0-6.883,0.934-9.477,2.789c-2.606,1.855-4.746,4.18-6.453,6.965c-1.703,2.789-2.941,5.793-3.707,8.996
			c-0.781,3.219-1.172,6.152-1.172,8.77c0,5.734,1.906,8.59,5.695,8.59c3.707,0,7.164-2.25,10.332-6.777
			c3.184-4.539,5.496-10.891,6.973-19.117l1.742-9.875C483.331,97.609,482.663,97.504,482.007,97.465L482.007,97.465z
			 M570.519,70.582c-0.734,2.094-1.758,4.383-3.078,6.844c-2.398-1.004-4.609-1.656-6.621-1.957
			c-2.016-0.324-3.988-0.469-5.926-0.469c-5.188,0-9.629,1.125-13.301,3.355c-3.68,2.246-6.699,5.164-9.055,8.773
			c-2.367,3.602-4.117,7.695-5.223,12.254c-1.133,4.574-1.691,9.176-1.691,13.824c0,6.734,1.645,11.531,4.934,14.406
			c3.289,2.859,7.648,4.281,13.07,4.281c1.086,0,2.281-0.051,3.602-0.164c1.32-0.109,2.324-0.246,3.016-0.406l5.109-29.148
			c1.551-0.32,3.019-0.539,4.418-0.633c1.402-0.117,2.75-0.18,4.07-0.18c1.32,0,2.684,0.062,4.121,0.18
			c1.43,0.094,2.848,0.312,4.238,0.633l-7.312,41.359c-3.406,1.148-7.242,1.984-11.504,2.492c-4.262,0.5-8.246,0.754-11.965,0.754
			c-5.645,0-10.609-0.809-14.863-2.449c-4.262-1.621-7.828-3.871-10.691-6.727c-2.867-2.859-5.012-6.266-6.441-10.164
			c-1.438-3.914-2.152-8.152-2.152-12.715c0-7.523,1.121-14.559,3.363-21.145c2.238-6.582,5.406-12.324,9.469-17.262
			c4.062-4.914,8.969-8.777,14.703-11.602c5.727-2.832,12.082-4.242,19.035-4.242c3.641,0,6.898,0.234,9.766,0.699
			c2.863,0.461,5.773,1.355,8.707,2.668C571.851,66.242,571.257,68.488,570.519,70.582L570.519,70.582z M618.089,93.922
			c-0.547,2.324-1.281,4.258-2.207,5.816c-0.473-0.078-0.969-0.172-1.523-0.238c-0.539-0.07-1.234-0.117-2.082-0.117
			c-3.168,0-5.797,0.551-7.832,1.629c-2.059,1.082-3.75,2.609-5.062,4.59c-1.316,1.98-2.363,4.355-3.125,7.148
			c-0.785,2.777-1.484,5.867-2.098,9.285l-4.293,23.355c-3.031,0.465-5.859,0.691-8.48,0.691c-2.715,0-5.395-0.227-8.016-0.691
			l6.27-34.273c0.844-4.879,1.484-9.199,1.91-12.949c0.434-3.766,0.648-6.676,0.648-8.766c0-0.859,0-1.574,0-2.164
			c0-0.578-0.047-1.211-0.125-1.902c2.559-0.469,5.113-0.699,7.68-0.699c1.152,0,2.309,0.051,3.481,0.172
			c1.152,0.129,2.391,0.289,3.707,0.527c0.164,0.613,0.309,1.348,0.473,2.203c0.148,0.859,0.223,2.129,0.223,3.844
			c0,0.684-0.016,1.383-0.047,2.082c-0.047,0.691-0.141,1.535-0.297,2.551c0.773-1.391,1.75-2.766,2.902-4.129
			c1.168-1.352,2.461-2.57,3.891-3.656c1.43-1.082,3.02-1.953,4.766-2.613c1.738-0.66,3.652-0.98,5.746-0.98
			c1.629,0,3.027,0.199,4.18,0.57c0.082,0.312,0.125,0.633,0.125,0.934c0,0.309,0,0.668,0,1.051
			C618.901,89.352,618.624,91.605,618.089,93.922L618.089,93.922z M652.472,67.562c-0.469,2.488-1.164,5.031-2.098,7.66
			c-1.398,0.246-2.844,0.395-4.352,0.469c-1.508,0.078-2.879,0.125-4.121,0.125c-1.168,0-2.516-0.047-4.066-0.125
			c-1.555-0.074-2.945-0.223-4.188-0.469c-0.078-2.699,0.098-5.281,0.524-7.727c0.426-2.438,1.113-5.016,2.039-7.711
			c1.391-0.324,2.859-0.535,4.41-0.644c1.547-0.121,2.941-0.176,4.188-0.176c1.234,0,2.613,0.055,4.113,0.176
			c1.516,0.109,2.93,0.32,4.246,0.644C653.167,62.48,652.94,65.082,652.472,67.562L652.472,67.562z M638.062,145.391
			c-2.941,0.465-5.73,0.691-8.363,0.691c-2.398,0-4.988-0.227-7.777-0.691l8.363-47.52h-7.316c0-0.219-0.031-0.457-0.059-0.691
			c-0.047-0.219-0.066-0.508-0.066-0.816c0-2.008,0.203-3.891,0.582-5.633c0.387-1.742,0.969-3.539,1.742-5.395h23.473
			L638.062,145.391L638.062,145.391z M711.12,77.309l-7.539,42.062c-0.863,4.863-1.473,9.191-1.863,12.937
			c-0.387,3.758-0.582,6.688-0.582,8.77c0,0.859,0,1.574,0,2.16c0,0.578,0.043,1.211,0.121,1.918
			c-2.559,0.457-5.082,0.699-7.547,0.699c-2.176,0-4.574-0.242-7.211-0.699c-0.152-0.617-0.305-1.363-0.453-2.207
			c-0.168-0.852-0.234-2.137-0.234-3.836c0-0.691,0.012-1.508,0.051-2.438c0.039-0.926,0.137-1.898,0.285-2.91
			c-1.07,1.789-2.375,3.465-3.883,5.059c-1.508,1.582-3.18,2.961-5.004,4.125c-1.809,1.16-3.773,2.09-5.859,2.773
			c-2.102,0.703-4.289,1.059-6.617,1.059c-5.113,0-8.953-1.625-11.496-4.883c-2.562-3.254-3.84-7.555-3.84-12.883
			c0-5.828,0.875-11.43,2.609-16.852c1.754-5.43,4.336-10.223,7.793-14.41c3.434-4.172,7.715-7.539,12.828-10.043
			c5.106-2.52,11.07-3.789,17.891-3.789c0.543,0,1.062,0.043,1.566,0.074c0.508,0.039,0.945,0.039,1.332,0.039
			c0.848-4.555,1.465-8.418,1.797-11.594c0.355-3.176,0.527-5.824,0.527-7.902c0-0.855-0.02-1.559-0.062-2.145
			c-0.035-0.582-0.098-1.219-0.168-1.918c1.32-0.234,2.832-0.41,4.535-0.531c1.695-0.105,3.168-0.16,4.418-0.16
			c2.238,0,4.715,0.211,7.426,0.691c0.395,1.16,0.574,2.625,0.574,4.406C712.515,68.293,712.062,72.441,711.12,77.309L711.12,77.309
			z M689.112,97.465c-0.656-0.035-1.301-0.051-1.914-0.051c-3.715,0-6.863,0.934-9.469,2.789c-2.598,1.855-4.738,4.18-6.438,6.965
			c-1.711,2.789-2.945,5.793-3.727,8.996c-0.766,3.219-1.152,6.152-1.152,8.77c0,5.734,1.891,8.59,5.676,8.59
			c3.727,0,7.176-2.25,10.352-6.777c3.172-4.539,5.496-10.891,6.965-19.117l1.75-9.875
			C690.448,97.609,689.769,97.504,689.112,97.465L689.112,97.465z"/>
		<g>
			<path fill="#404041" d="M230.566,84.566c-0.035-0.102-0.07-0.203-0.098-0.281c-0.512-1.285-1.059-2.586-1.621-3.906
				c-1.09-1.367-2.336-2.43-3.656-3.258c-0.582-0.371-1.195-0.699-1.812-0.977c-0.387-0.176-0.781-0.344-1.172-0.484
				c-2.496-0.902-5.086-1.203-7.359-1.203c-5.914,0-12.641,2.004-18.496,5.457c-19.223,11.449-37.746,38.191-46.398,51.894
				l0.539-0.426l-3.691,5.832c15.148-0.461,49.492-1.641,67.973-14.234C236.207,106.809,232.449,89.832,230.566,84.566z"/>
			<path fill="#404041" d="M38.912,110.23C59.899,97.746,81.471,65.328,88.76,52.996c-19.398,0.449-50.771,3.051-68.203,14.465
				C8.758,74.965-0.42,92.035,4.66,105.492c0.065,0.145,0.119,0.238,0.162,0.348c0.527,1.328,1.082,2.688,1.676,4.07
				c3.781,4.703,9.385,5.809,13.832,5.809C26.254,115.719,33.022,113.715,38.912,110.23z"/>
			<path fill="#404041" d="M163.91,105.793c-15.824-5.359-32.982-10.426-47.605-15.625c-0.176-11.52-0.477-25.559-0.826-38.328
				c-0.018-0.609-0.033-1.207-0.047-1.797c-0.021-0.629-0.037-1.242-0.051-1.859c-0.318-10.992-0.664-20.711-1.004-26.555
				C106.668,31.141,100,41.32,95.17,49.285c-0.379,0.625-0.754,1.227-1.107,1.832c-0.182,0.301-0.373,0.625-0.549,0.918
				c-0.018,0.043-0.195,0.344-0.514,0.906c-2.115,3.633-10.482,17.609-21.838,31.777c0.316,0.523,18.748,31.254,33.289,55.406
				c0.346,0.566,0.693,1.148,1.031,1.719c0.354,0.578,0.697,1.156,1.041,1.73c7.428,12.32,13.471,22.32,14.908,24.621
				l-49.975-15.781l-2.635-0.84l-2.541-0.801l-2.162-0.691c2.111-19.109,5.576-59.129,7.022-65.328
				c-8.822,11-19.457,22.117-30.365,28.617c-6.434,3.812-13.891,6-20.445,6c-4.043,0-7.639-0.812-10.678-2.348
				c-0.311-0.168-0.629-0.328-0.936-0.5c9.945,21.715,25.113,47.672,38.795,66.195c1.303,1.777,2.605,3.484,3.879,5.121
				c0.041,0.043,0.07,0.09,0.098,0.121c5.293,6.434,13.371,10.004,22.725,10.004c5.916,0,12.262-1.422,18.875-4.219
				c20.449-9.871,38.926-39.672,46.818-52.406c0.047-0.082,0.086-0.148,0.133-0.219c0.441-0.723,0.863-1.391,1.227-1.976
				c0.152-0.227,0.285-0.441,0.418-0.656l0.012,0.004c0.133-0.301,0.34-0.676,0.605-1.18c0.68-1.211,1.84-3.113,3.77-6.207
				c2.562-4.086,6.68-10.43,11.789-17.402C159.695,111.203,161.723,108.535,163.91,105.793z"/>
			<path fill="#404041" d="M130.65,48.238c0.316,0.562,0.643,1.117,0.967,1.672c12.234,21.031,27.309,46.945,32.367,55.789
				c8.488-10.645,19.371-22.301,30.5-28.93c6.391-3.793,13.816-5.957,20.363-5.957c1.871,0,3.637,0.18,5.32,0.52
				c0.012,0,0.023,0.008,0.039,0.016c-0.02-0.016-0.031-0.039-0.059-0.055c-14.699-8.992-34.781-20.914-45.469-27.812
				c0.367-2.695,0.734-5.43,1.09-8.141c0.109-0.852,0.219-1.688,0.336-2.531c0.109-0.891,0.23-1.777,0.344-2.664
				c1.219-9.344,2.344-18.293,3.172-25.395c2.254,2.953,4.539,6.078,6.828,9.309c0.484,0.703,0.969,1.398,1.465,2.102
				c0.445,0.637,0.887,1.301,1.34,1.953c0.203,0.305,0.41,0.625,0.641,0.945c10.332,15.199,30.707,52.363,30.707,52.363l2.25,0.609
				c0.992,0.336,1.934,0.73,2.82,1.176c0.039,0.027,0.078,0.047,0.109,0.066c-3.957-8.57-8.758-17.824-14.043-27.117
				c-6.676-11.746-14.09-23.543-21.504-34.094c-0.676-0.98-1.375-1.957-2.062-2.918c-1.602-2.223-3.184-4.375-4.762-6.449
				c-0.934-1.242-1.871-2.453-2.789-3.625c-0.102-0.125-0.211-0.23-0.328-0.34v-0.027c-4.973-3.992-11.988-6.23-19.895-6.23
				c-6.406,0-12.965,1.508-17.996,4.129c-9.695,4.894-19.225,14.266-27.57,24.473c1.754,3.019,7.631,13.125,14.814,25.461
				C129.982,47.102,130.311,47.668,130.65,48.238z"/>
		</g>
		<g>
			<path fill="#404041" d="M721.659,70.57c-2.941,0-5.113-2.223-5.113-5.121c0-3.277,2.203-5.305,5.746-5.305
				c2.906,0,4.965,2.133,4.965,5.023C727.257,68.461,725.14,70.57,721.659,70.57z M721.976,61.316c-2.188,0-3.988,1.461-3.988,3.945
				c0,2.539,1.555,4.113,4.016,4.113c2.078,0,3.848-1.543,3.848-4.016C725.851,62.918,724.23,61.316,721.976,61.316z
				 M722.866,67.977l-1.355-1.996v1.207c0,0.043,0.008,0.199,0.105,0.789h-1.652v-4.543l-0.106-0.992h1.895
				c1.113,0,2.176,0.602,2.176,1.809c0,0.582-0.43,1.262-1.078,1.559l1.871,2.168H722.866z M721.569,65.238
				c0.473,0,0.984-0.32,0.984-0.988c0-0.664-0.512-0.863-0.984-0.863h-0.059v1.851H721.569z"/>
		</g>
	</g>
</g>
<g id="Layer_4" display="none">
</g>
<g id="Layer_7">
	<g>
		<g>
			<path fill="#444345" d="M296.239,63.785c-0.867,2.556-2.049,5.084-3.593,7.551c-2.474-1.177-5.002-2.165-7.604-2.935
				c-2.608-0.769-6.005-1.156-10.176-1.156c-1.544,0-3.199,0.125-4.935,0.388c-1.729,0.258-3.328,0.746-4.737,1.47
				c-1.396,0.732-2.571,1.725-3.513,3.009c-0.953,1.284-1.427,2.935-1.427,4.996c0,2.896,1.052,5.291,3.162,7.169
				c2.073,1.862,4.749,3.739,7.998,5.632c2.892,1.607,5.58,3.238,8.053,4.844c2.474,1.643,4.646,3.384,6.528,5.258
				c1.883,1.885,3.347,3.989,4.417,6.333c1.064,2.357,1.6,5.064,1.6,8.138c0,4.352-0.794,8.523-2.368,12.53
				c-1.575,4.023-4.006,7.522-7.297,10.492c-3.279,2.998-7.438,5.379-12.483,7.163c-5.026,1.809-11.007,2.705-17.909,2.705
				c-8.023,0-15.91-1.487-23.681-4.489c0.332-2.561,0.966-5.131,1.852-7.746c0.905-2.59,1.987-5.303,3.268-8.125
				c3.236,1.202,6.546,2.225,9.911,3.074c3.378,0.849,6.65,1.279,9.795,1.279c2.639,0,5.106-0.295,7.376-0.896
				c2.252-0.604,4.215-1.489,5.876-2.673c1.655-1.212,2.959-2.657,3.913-4.355c0.929-1.704,1.402-3.716,1.402-6.018
				c0-1.704-0.394-3.211-1.163-4.484c-0.763-1.273-1.747-2.433-2.928-3.458c-1.213-1.04-2.615-1.987-4.233-2.886
				c-1.63-0.892-3.255-1.852-4.866-2.873c-5.457-3.254-9.788-6.589-12.987-10.053c-3.193-3.441-4.799-7.53-4.799-12.212
				c0-4.603,0.812-8.727,2.436-12.354c1.612-3.617,3.913-6.671,6.903-9.154c2.99-2.463,6.589-4.383,10.828-5.697
				c4.214-1.316,8.964-1.971,14.255-1.971c4.7,0,8.755,0.356,12.157,0.992c3.421,0.71,7.008,1.778,10.761,3.218
				C297.686,58.814,297.089,61.228,296.239,63.785L296.239,63.785z M354.853,104.62c-1.784,2.813-4.177,5.218-7.167,7.174
				c-2.984,1.948-6.38,3.556-10.183,4.782c-3.789,1.241-7.745,2.176-11.831,2.769l-8.582,1.4c0.522,4.092,1.883,7.155,4.098,9.155
				c2.221,1.995,5.481,3.004,9.721,3.004c3.421,0,6.436-0.358,9.031-1.095c2.597-0.716,5.358-1.676,8.25-2.879
				c1.36,1.718,2.289,3.777,2.763,6.205c0.455,2.436,0.689,5.026,0.689,7.746c-1.446,0.687-3.113,1.316-5.052,1.855
				c-1.9,0.57-3.893,1.03-5.949,1.417c-2.055,0.384-4.091,0.677-6.145,0.889c-2.049,0.207-3.87,0.328-5.494,0.328
				c-5.211,0-9.659-0.65-13.382-1.92c-3.71-1.277-6.779-3.086-9.222-5.449c-2.412-2.34-4.215-5.204-5.371-8.574
				c-1.15-3.371-1.717-7.111-1.717-11.197c0-5.204,0.898-10.313,2.683-15.346c1.796-5.045,4.331-9.538,7.622-13.504
				c3.273-3.983,7.278-7.174,12.028-9.618c4.731-2.433,10.047-3.646,15.929-3.646c2.817,0,5.433,0.365,7.868,1.04
				c2.449,0.683,4.547,1.729,6.337,3.131c1.791,1.407,3.199,3.145,4.239,5.177c1.003,2.051,1.525,4.439,1.525,7.178
				C357.541,98.464,356.65,101.803,354.853,104.62L354.853,104.62z M338.66,92.986c-1.07-1.044-2.492-1.551-4.282-1.551
				c-2.215,0-4.251,0.494-6.085,1.475c-1.833,0.973-3.433,2.297-4.799,3.893c-1.365,1.624-2.541,3.482-3.525,5.572
				c-0.978,2.11-1.716,4.208-2.233,6.337l6.657-1.021c3.23-0.505,5.882-1.167,7.931-1.987c2.055-0.806,3.66-1.704,4.853-2.687
				c1.206-0.972,2.019-1.981,2.449-3.007c0.425-1.009,0.634-2.042,0.634-3.064C340.26,95.312,339.731,94.001,338.66,92.986
				L338.66,92.986z M424.725,99.247c-0.16,1.448-0.388,2.978-0.628,4.604l-7.432,41.978c-3.242,0.521-6.355,0.769-9.346,0.769
				c-2.983,0-5.931-0.248-8.816-0.769l7.161-40.573c0.326-1.702,0.499-3.324,0.499-4.852c0-2.548-0.554-4.356-1.661-5.39
				c-1.102-1.014-2.677-1.536-4.731-1.536c-1.193,0-2.535,0.317-4.029,0.88c-1.495,0.615-3.003,1.876-4.541,3.796
				c-1.532,1.926-3.033,4.633-4.485,8.136c-1.451,3.486-2.688,8.094-3.721,13.815l-4.726,25.724
				c-3.322,0.521-6.429,0.769-9.327,0.769c-3.002,0-5.936-0.248-8.852-0.769l6.933-37.751c0.929-5.384,1.637-10.133,2.098-14.277
				c0.474-4.149,0.701-7.351,0.701-9.647c0-0.949,0-1.739,0-2.391c0-0.638-0.037-1.329-0.123-2.097
				c2.806-0.51,5.63-0.769,8.441-0.769c1.286,0,2.553,0.056,3.845,0.19c1.286,0.142,2.633,0.314,4.091,0.578
				c0.179,0.686,0.345,1.483,0.523,2.431c0.16,0.949,0.252,2.34,0.252,4.243c0,0.74-0.03,1.516-0.062,2.288
				c-0.049,0.759-0.153,1.688-0.313,2.808c1.015-1.794,2.295-3.5,3.826-5.096c1.551-1.635,3.279-3.056,5.248-4.243
				c1.969-1.204,4.067-2.127,6.337-2.82c2.258-0.685,4.541-1.037,6.848-1.037c5.106,0,9.111,1.31,11.973,3.925
				c2.854,2.593,4.275,6.924,4.275,12.981C424.982,96.434,424.897,97.798,424.725,99.247L424.725,99.247z M497.045,70.827
				l-8.336,46.338c-0.923,5.358-1.605,10.133-2.036,14.263c-0.431,4.139-0.634,7.358-0.634,9.655c0,0.96,0,1.735,0,2.377
				c0,0.638,0.03,1.341,0.129,2.123c-2.817,0.496-5.593,0.767-8.33,0.767c-2.381,0-5.021-0.271-7.918-0.767
				c-0.179-0.677-0.357-1.508-0.529-2.436c-0.166-0.93-0.246-2.351-0.246-4.221c0-0.77,0.019-1.669,0.061-2.686
				c0.03-1.025,0.153-2.094,0.314-3.212c-1.193,1.979-2.614,3.814-4.282,5.583c-1.661,1.736-3.507,3.256-5.512,4.536
				c-2,1.279-4.153,2.305-6.448,3.056c-2.325,0.779-4.743,1.169-7.303,1.169c-5.629,0-9.862-1.788-12.668-5.388
				c-2.823-3.574-4.238-8.318-4.238-14.188c0-6.417,0.972-12.594,2.903-18.565c1.907-5.988,4.762-11.263,8.57-15.875
				c3.784-4.604,8.522-8.312,14.139-11.068c5.629-2.776,12.206-4.171,19.699-4.171c0.597,0,1.182,0.037,1.728,0.067
				c0.561,0.056,1.059,0.056,1.477,0.056c0.936-5.021,1.6-9.282,1.981-12.767c0.388-3.517,0.578-6.425,0.578-8.718
				c0-0.941-0.024-1.719-0.061-2.366c-0.037-0.642-0.116-1.333-0.196-2.108c1.445-0.263,3.112-0.453,5.008-0.582
				c1.864-0.119,3.47-0.185,4.848-0.185c2.485,0,5.205,0.237,8.195,0.767c0.431,1.275,0.64,2.892,0.64,4.86
				C498.577,60.886,498.072,65.473,497.045,70.827L497.045,70.827z M472.793,93.029c-0.732-0.03-1.428-0.043-2.099-0.043
				c-4.134,0-7.585,1.015-10.446,3.062c-2.873,2.039-5.235,4.61-7.105,7.674c-1.883,3.076-3.236,6.38-4.079,9.914
				c-0.868,3.548-1.292,6.784-1.292,9.663c0,6.313,2.092,9.458,6.275,9.458c4.079,0,7.887-2.469,11.375-7.456
				c3.514-5.011,6.055-12.012,7.69-21.078l1.907-10.867C474.245,93.186,473.507,93.078,472.793,93.029L472.793,93.029z
				 M570.314,63.408c-0.818,2.305-1.932,4.823-3.39,7.542c-2.646-1.107-5.088-1.825-7.303-2.155
				c-2.215-0.356-4.387-0.511-6.534-0.511c-5.716,0-10.601,1.249-14.648,3.691c-4.055,2.478-7.377,5.691-9.979,9.666
				c-2.603,3.968-4.534,8.483-5.752,13.504c-1.243,5.041-1.858,10.11-1.858,15.228c0,7.432,1.803,12.708,5.433,15.883
				c3.63,3.14,8.423,4.705,14.402,4.705c1.193,0,2.511-0.041,3.975-0.175c1.446-0.117,2.554-0.276,3.316-0.44l5.629-32.117
				c1.711-0.357,3.322-0.598,4.873-0.702c1.544-0.129,3.026-0.198,4.479-0.198c1.452,0,2.96,0.069,4.534,0.198
				c1.588,0.104,3.15,0.345,4.676,0.702l-8.053,45.562c-3.76,1.264-7.979,2.186-12.668,2.748c-4.7,0.55-9.093,0.833-13.197,0.833
				c-6.214,0-11.683-0.896-16.371-2.705c-4.694-1.784-8.619-4.26-11.788-7.409c-3.156-3.143-5.512-6.903-7.087-11.193
				c-1.581-4.319-2.375-8.984-2.375-14.005c0-8.296,1.225-16.052,3.704-23.308c2.467-7.245,5.961-13.576,10.434-19.021
				c4.467-5.404,9.881-9.661,16.199-12.774c6.307-3.125,13.313-4.676,20.974-4.676c4.005,0,7.598,0.261,10.767,0.775
				c3.15,0.5,6.356,1.481,9.592,2.937C571.772,58.632,571.126,61.117,570.314,63.408L570.314,63.408z M622.719,89.125
				c-0.597,2.557-1.408,4.698-2.424,6.408c-0.517-0.086-1.064-0.183-1.68-0.252c-0.597-0.074-1.365-0.136-2.295-0.136
				c-3.481,0-6.386,0.607-8.631,1.801c-2.271,1.19-4.135,2.869-5.581,5.06c-1.445,2.172-2.602,4.792-3.439,7.862
				c-0.861,3.07-1.631,6.471-2.313,10.237l-4.725,25.724c-3.348,0.521-6.454,0.769-9.352,0.769c-2.99,0-5.943-0.248-8.835-0.769
				l6.928-37.751c0.91-5.384,1.617-10.133,2.092-14.277c0.479-4.149,0.713-7.351,0.713-9.647c0-0.949,0-1.739,0-2.391
				c0-0.638-0.049-1.329-0.142-2.097c2.824-0.51,5.636-0.769,8.466-0.769c1.273,0,2.547,0.056,3.833,0.19
				c1.273,0.142,2.64,0.314,4.079,0.578c0.197,0.686,0.351,1.483,0.529,2.431c0.16,0.949,0.246,2.34,0.246,4.243
				c0,0.74-0.013,1.516-0.05,2.288c-0.055,0.759-0.153,1.688-0.325,2.808c0.849-1.527,1.925-3.049,3.199-4.553
				c1.273-1.495,2.7-2.83,4.281-4.018c1.575-1.19,3.322-2.153,5.248-2.885c1.92-0.72,4.023-1.083,6.337-1.083
				c1.791,0,3.341,0.222,4.596,0.634c0.099,0.34,0.142,0.693,0.142,1.027c0,0.334,0,0.736,0,1.158
				C623.617,84.103,623.316,86.565,622.719,89.125L622.719,89.125z M644.732,145.829c-3.255,0.521-6.318,0.769-9.217,0.769
				c-2.646,0-5.5-0.248-8.576-0.769l9.229-52.351h-8.071c0-0.24-0.025-0.492-0.062-0.763c-0.043-0.24-0.08-0.554-0.08-0.893
				c0-2.211,0.227-4.288,0.646-6.214c0.425-1.915,1.064-3.893,1.92-5.943h25.87L644.732,145.829L644.732,145.829z M725.23,70.827
				l-8.312,46.338c-0.942,5.358-1.618,10.133-2.049,14.263c-0.431,4.139-0.64,7.358-0.64,9.655c0,0.96,0,1.735,0,2.377
				c0,0.638,0.043,1.341,0.129,2.123c-2.824,0.496-5.599,0.767-8.318,0.767c-2.393,0-5.045-0.271-7.942-0.767
				c-0.172-0.677-0.338-1.508-0.498-2.436c-0.185-0.93-0.259-2.351-0.259-4.221c0-0.77,0.019-1.669,0.056-2.686
				c0.043-1.025,0.153-2.094,0.313-3.212c-1.181,1.979-2.614,3.814-4.275,5.583c-1.668,1.736-3.501,3.256-5.513,4.536
				c-1.993,1.279-4.159,2.305-6.46,3.056c-2.314,0.779-4.726,1.169-7.284,1.169c-5.642,0-9.869-1.788-12.674-5.388
				c-2.824-3.574-4.221-8.318-4.221-14.188c0-6.417,0.966-12.594,2.867-18.565c1.932-5.988,4.773-11.263,8.595-15.875
				c3.777-4.604,8.496-8.312,14.132-11.068c5.623-2.776,12.188-4.171,19.712-4.171c0.602,0,1.169,0.037,1.723,0.067
				c0.554,0.056,1.046,0.056,1.464,0.056c0.93-5.021,1.618-9.282,1.981-12.767c0.394-3.517,0.578-6.425,0.578-8.718
				c0-0.941-0.019-1.719-0.067-2.366c-0.043-0.642-0.104-1.333-0.179-2.108c1.452-0.263,3.119-0.453,4.99-0.582
				c1.863-0.119,3.488-0.185,4.866-0.185c2.473,0,5.205,0.237,8.183,0.767c0.431,1.275,0.634,2.892,0.634,4.86
				C726.762,60.886,726.263,65.473,725.23,70.827L725.23,70.827z M700.983,93.029c-0.727-0.03-1.434-0.043-2.11-0.043
				c-4.098,0-7.562,1.015-10.44,3.062c-2.854,2.039-5.218,4.61-7.088,7.674c-1.883,3.076-3.248,6.38-4.104,9.914
				c-0.837,3.548-1.273,6.784-1.273,9.663c0,6.313,2.086,9.458,6.251,9.458c4.109,0,7.918-2.469,11.412-7.456
				c3.495-5.011,6.048-12.012,7.666-21.078l1.932-10.867C702.447,93.186,701.703,93.078,700.983,93.029L700.983,93.029z"/>
			<g>
				<path fill="#467BBD" d="M208.587,84.49c-0.03-0.091-0.067-0.179-0.08-0.259c-0.485-1.182-0.972-2.371-1.488-3.574
					c-1.01-1.262-2.147-2.242-3.359-2.996c-0.542-0.345-1.102-0.652-1.655-0.882c-0.375-0.183-0.726-0.33-1.083-0.453
					c-2.295-0.837-4.669-1.11-6.761-1.11c-5.421,0-11.592,1.846-16.969,5.009c-17.633,10.504-34.638,35.035-42.567,47.614
					l0.498-0.394l-3.384,5.356c13.892-0.431,45.404-1.521,62.36-13.065C213.768,104.897,210.31,89.325,208.587,84.49z"/>
				<path fill="#467BBD" d="M32.735,108.047c19.264-11.453,39.062-41.21,45.743-52.516c-17.799,0.407-46.592,2.791-62.582,13.274
					C5.073,75.676-3.348,91.35,1.315,103.697c0.056,0.127,0.105,0.205,0.148,0.313c0.486,1.219,0.991,2.464,1.532,3.735
					c3.477,4.312,8.619,5.323,12.698,5.323C21.125,113.069,27.339,111.24,32.735,108.047z"/>
				<path fill="#467BBD" d="M147.421,103.968c-14.508-4.915-30.252-9.557-43.664-14.339c-0.172-10.569-0.442-23.448-0.763-35.158
					c-0.018-0.562-0.018-1.107-0.049-1.659c-0.019-0.576-0.031-1.143-0.037-1.696c-0.295-10.086-0.621-19.013-0.923-24.367
					c-7.075,8.72-13.196,18.071-17.62,25.372c-0.351,0.574-0.695,1.132-1.021,1.69c-0.166,0.267-0.338,0.565-0.505,0.845
					c-0.006,0.026-0.172,0.308-0.474,0.824c-1.943,3.335-9.604,16.158-20.031,29.152c0.289,0.485,17.201,28.676,30.54,50.836
					c0.319,0.529,0.64,1.062,0.947,1.571c0.326,0.539,0.64,1.066,0.953,1.587c6.823,11.309,12.36,20.483,13.69,22.602l-45.872-14.48
					l-2.411-0.771l-2.32-0.738l-1.993-0.628c1.932-17.538,5.113-54.26,6.441-59.952c-8.09,10.094-17.848,20.299-27.863,26.269
					c-5.9,3.494-12.742,5.502-18.753,5.502c-3.71,0-7.014-0.74-9.794-2.155c-0.296-0.147-0.591-0.302-0.855-0.466
					c9.105,19.937,23.034,43.743,35.585,60.736c1.2,1.637,2.388,3.197,3.568,4.708c0.031,0.033,0.05,0.089,0.086,0.113
					c4.849,5.896,12.269,9.169,20.838,9.169c5.433,0,11.253-1.3,17.325-3.866c18.765-9.061,35.721-36.398,42.956-48.076
					c0.049-0.073,0.073-0.145,0.123-0.207c0.406-0.658,0.794-1.273,1.132-1.809c0.142-0.222,0.252-0.406,0.382-0.613l0.006,0.01
					c0.129-0.282,0.308-0.629,0.56-1.082c0.622-1.118,1.686-2.867,3.458-5.699c2.344-3.736,6.128-9.565,10.822-15.964
					C143.557,108.923,145.421,106.482,147.421,103.968z"/>
				<path fill="#467BBD" d="M116.905,51.156c0.308,0.513,0.603,1.034,0.892,1.538c11.228,19.294,25.064,43.079,29.703,51.187
					c7.789-9.766,17.78-20.467,27.981-26.541c5.863-3.488,12.674-5.468,18.679-5.468c1.723,0,3.347,0.164,4.891,0.479
					c0.006,0,0.018,0,0.031,0.012c-0.025-0.012-0.025-0.036-0.05-0.055c-13.485-8.251-31.924-19.18-41.719-25.514
					c0.338-2.474,0.677-4.983,1.003-7.468c0.099-0.776,0.196-1.546,0.314-2.327c0.093-0.812,0.203-1.631,0.308-2.437
					c1.126-8.576,2.153-16.794,2.91-23.299c2.073,2.701,4.159,5.574,6.257,8.535c0.449,0.652,0.898,1.284,1.348,1.932
					c0.418,0.583,0.812,1.185,1.23,1.795c0.196,0.283,0.381,0.566,0.591,0.867c9.475,13.941,28.171,48.044,28.171,48.044
					l2.067,0.556c0.911,0.306,1.773,0.675,2.59,1.081c0.031,0.026,0.074,0.026,0.093,0.055c-3.617-7.854-8.022-16.356-12.89-24.871
					c-6.115-10.781-12.926-21.608-19.718-31.287c-0.628-0.906-1.262-1.797-1.901-2.679c-1.464-2.038-2.91-4.019-4.368-5.927
					c-0.854-1.134-1.71-2.239-2.553-3.312c-0.093-0.129-0.197-0.22-0.296-0.32V5.707C157.898,2.053,151.456,0,144.215,0
					c-5.882,0-11.904,1.378-16.513,3.767c-8.902,4.512-17.651,13.103-25.305,22.473c1.618,2.773,7.002,12.04,13.591,23.36
					C116.302,50.11,116.604,50.644,116.905,51.156z"/>
			</g>
			<g>
				<path fill="#444345" d="M736.833,63.972c-3.23,0-5.63-2.455-5.63-5.649c0-3.618,2.431-5.833,6.331-5.833
					c3.205,0,5.47,2.347,5.47,5.527C743.004,61.652,740.678,63.972,736.833,63.972z M737.19,53.771
					c-2.418,0-4.398,1.613-4.398,4.344c0,2.805,1.723,4.54,4.423,4.54c2.295,0,4.239-1.708,4.239-4.432
					C741.453,55.537,739.669,53.771,737.19,53.771z M738.168,61.117l-1.489-2.213v1.333c0,0.062,0.007,0.216,0.111,0.88h-1.821
					v-5.008l-0.123-1.098h2.098c1.225,0,2.4,0.667,2.4,1.989c0,0.646-0.474,1.391-1.193,1.723l2.062,2.393H738.168z M736.734,58.09
					c0.529,0,1.095-0.344,1.095-1.089c0-0.726-0.565-0.943-1.095-0.943h-0.056v2.032H736.734z"/>
			</g>
		</g>
		<path fill="#447BBE" d="M659.886,59.776c-0.529,2.737-1.292,5.543-2.326,8.44c-1.525,0.259-3.131,0.425-4.786,0.507
			c-1.661,0.09-3.169,0.14-4.534,0.14c-1.292,0-2.774-0.05-4.485-0.14c-1.717-0.082-3.248-0.248-4.62-0.507
			c-0.074-2.977,0.11-5.822,0.584-8.515c0.468-2.689,1.225-5.524,2.246-8.505c1.532-0.354,3.156-0.582,4.86-0.699
			c1.698-0.142,3.236-0.194,4.614-0.194c1.354,0,2.873,0.053,4.528,0.194c1.673,0.117,3.229,0.345,4.676,0.699
			C660.643,54.178,660.397,57.042,659.886,59.776L659.886,59.776z"/>
	</g>
</g>
<g id="Layer_7_copy" display="none">
	<rect x="-33.163" y="-42.807" display="inline" fill="#444345" width="797" height="277"/>
	<g display="inline">
		<g>
			<path fill="#E6E6E6" d="M296.239,63.785c-0.867,2.556-2.049,5.084-3.593,7.551c-2.474-1.177-5.002-2.165-7.604-2.935
				c-2.608-0.769-6.005-1.156-10.176-1.156c-1.544,0-3.199,0.125-4.935,0.388c-1.729,0.258-3.328,0.746-4.737,1.47
				c-1.396,0.732-2.571,1.725-3.513,3.009c-0.953,1.284-1.427,2.935-1.427,4.996c0,2.896,1.052,5.291,3.162,7.169
				c2.073,1.862,4.749,3.739,7.998,5.632c2.892,1.607,5.58,3.238,8.053,4.844c2.474,1.643,4.646,3.384,6.528,5.258
				c1.883,1.885,3.347,3.989,4.417,6.333c1.064,2.357,1.6,5.064,1.6,8.138c0,4.352-0.794,8.523-2.368,12.53
				c-1.575,4.023-4.006,7.522-7.297,10.492c-3.279,2.998-7.438,5.379-12.483,7.163c-5.026,1.809-11.007,2.705-17.909,2.705
				c-8.023,0-15.91-1.487-23.681-4.489c0.332-2.561,0.966-5.131,1.852-7.746c0.905-2.59,1.987-5.303,3.268-8.125
				c3.236,1.202,6.546,2.225,9.911,3.074c3.378,0.849,6.65,1.279,9.795,1.279c2.639,0,5.106-0.295,7.376-0.896
				c2.252-0.604,4.215-1.489,5.876-2.673c1.655-1.212,2.959-2.657,3.913-4.355c0.929-1.704,1.402-3.716,1.402-6.018
				c0-1.704-0.394-3.211-1.163-4.484c-0.763-1.273-1.747-2.433-2.928-3.458c-1.213-1.04-2.615-1.987-4.233-2.886
				c-1.63-0.892-3.255-1.852-4.866-2.873c-5.457-3.254-9.788-6.589-12.987-10.053c-3.193-3.441-4.799-7.53-4.799-12.212
				c0-4.603,0.812-8.727,2.436-12.354c1.612-3.617,3.913-6.671,6.903-9.154c2.99-2.463,6.589-4.383,10.828-5.697
				c4.214-1.316,8.964-1.971,14.255-1.971c4.7,0,8.755,0.356,12.157,0.992c3.421,0.71,7.008,1.778,10.761,3.218
				C297.686,58.814,297.089,61.228,296.239,63.785L296.239,63.785z M354.853,104.62c-1.784,2.813-4.177,5.218-7.167,7.174
				c-2.984,1.948-6.38,3.556-10.183,4.782c-3.789,1.241-7.745,2.176-11.831,2.769l-8.582,1.4c0.522,4.092,1.883,7.155,4.098,9.155
				c2.221,1.995,5.481,3.004,9.721,3.004c3.421,0,6.436-0.358,9.031-1.095c2.597-0.716,5.358-1.676,8.25-2.879
				c1.36,1.718,2.289,3.777,2.763,6.205c0.455,2.436,0.689,5.026,0.689,7.746c-1.446,0.687-3.113,1.316-5.052,1.855
				c-1.9,0.57-3.893,1.03-5.949,1.417c-2.055,0.384-4.091,0.677-6.145,0.889c-2.049,0.207-3.87,0.328-5.494,0.328
				c-5.211,0-9.659-0.65-13.382-1.92c-3.71-1.277-6.779-3.086-9.222-5.449c-2.412-2.34-4.215-5.204-5.371-8.574
				c-1.15-3.371-1.717-7.111-1.717-11.197c0-5.204,0.898-10.313,2.683-15.346c1.796-5.045,4.331-9.538,7.622-13.504
				c3.273-3.983,7.278-7.174,12.028-9.618c4.731-2.433,10.047-3.646,15.929-3.646c2.817,0,5.433,0.365,7.868,1.04
				c2.449,0.683,4.547,1.729,6.337,3.131c1.791,1.407,3.199,3.145,4.239,5.177c1.003,2.051,1.525,4.439,1.525,7.178
				C357.541,98.464,356.65,101.803,354.853,104.62L354.853,104.62z M338.66,92.986c-1.07-1.044-2.492-1.551-4.282-1.551
				c-2.215,0-4.251,0.494-6.085,1.475c-1.833,0.973-3.433,2.297-4.799,3.893c-1.365,1.624-2.541,3.482-3.525,5.572
				c-0.978,2.11-1.716,4.208-2.233,6.337l6.657-1.021c3.23-0.505,5.882-1.167,7.931-1.987c2.055-0.806,3.66-1.704,4.853-2.687
				c1.206-0.972,2.019-1.981,2.449-3.007c0.425-1.009,0.634-2.042,0.634-3.064C340.26,95.312,339.731,94.001,338.66,92.986
				L338.66,92.986z M424.725,99.247c-0.16,1.448-0.388,2.978-0.628,4.604l-7.432,41.978c-3.242,0.521-6.355,0.769-9.346,0.769
				c-2.983,0-5.931-0.248-8.816-0.769l7.161-40.573c0.326-1.702,0.499-3.324,0.499-4.852c0-2.548-0.554-4.356-1.661-5.39
				c-1.102-1.014-2.677-1.536-4.731-1.536c-1.193,0-2.535,0.317-4.029,0.88c-1.495,0.615-3.003,1.876-4.541,3.796
				c-1.532,1.926-3.033,4.633-4.485,8.136c-1.451,3.486-2.688,8.094-3.721,13.815l-4.726,25.724
				c-3.322,0.521-6.429,0.769-9.327,0.769c-3.002,0-5.936-0.248-8.852-0.769l6.933-37.751c0.929-5.384,1.637-10.133,2.098-14.277
				c0.474-4.149,0.701-7.351,0.701-9.647c0-0.949,0-1.739,0-2.391c0-0.638-0.037-1.329-0.123-2.097
				c2.806-0.51,5.63-0.769,8.441-0.769c1.286,0,2.553,0.056,3.845,0.19c1.286,0.142,2.633,0.314,4.091,0.578
				c0.179,0.686,0.345,1.483,0.523,2.431c0.16,0.949,0.252,2.34,0.252,4.243c0,0.74-0.03,1.516-0.062,2.288
				c-0.049,0.759-0.153,1.688-0.313,2.808c1.015-1.794,2.295-3.5,3.826-5.096c1.551-1.635,3.279-3.056,5.248-4.243
				c1.969-1.204,4.067-2.127,6.337-2.82c2.258-0.685,4.541-1.037,6.848-1.037c5.106,0,9.111,1.31,11.973,3.925
				c2.854,2.593,4.275,6.924,4.275,12.981C424.982,96.434,424.897,97.798,424.725,99.247L424.725,99.247z M497.045,70.827
				l-8.336,46.338c-0.923,5.358-1.605,10.133-2.036,14.263c-0.431,4.139-0.634,7.358-0.634,9.655c0,0.96,0,1.735,0,2.377
				c0,0.638,0.03,1.341,0.129,2.123c-2.817,0.496-5.593,0.767-8.33,0.767c-2.381,0-5.021-0.271-7.918-0.767
				c-0.179-0.677-0.357-1.508-0.529-2.436c-0.166-0.93-0.246-2.351-0.246-4.221c0-0.77,0.019-1.669,0.061-2.686
				c0.03-1.025,0.153-2.094,0.314-3.212c-1.193,1.979-2.614,3.814-4.282,5.583c-1.661,1.736-3.507,3.256-5.512,4.536
				c-2,1.279-4.153,2.305-6.448,3.056c-2.325,0.779-4.743,1.169-7.303,1.169c-5.629,0-9.862-1.788-12.668-5.388
				c-2.823-3.574-4.238-8.318-4.238-14.188c0-6.417,0.972-12.594,2.903-18.565c1.907-5.988,4.762-11.263,8.57-15.875
				c3.784-4.604,8.522-8.312,14.139-11.068c5.629-2.776,12.206-4.171,19.699-4.171c0.597,0,1.182,0.037,1.728,0.067
				c0.561,0.056,1.059,0.056,1.477,0.056c0.936-5.021,1.6-9.282,1.981-12.767c0.388-3.517,0.578-6.425,0.578-8.718
				c0-0.941-0.024-1.719-0.061-2.366c-0.037-0.642-0.116-1.333-0.196-2.108c1.445-0.263,3.112-0.453,5.008-0.582
				c1.864-0.119,3.47-0.185,4.848-0.185c2.485,0,5.205,0.237,8.195,0.767c0.431,1.275,0.64,2.892,0.64,4.86
				C498.577,60.886,498.072,65.473,497.045,70.827L497.045,70.827z M472.793,93.029c-0.732-0.03-1.428-0.043-2.099-0.043
				c-4.134,0-7.585,1.015-10.446,3.062c-2.873,2.039-5.235,4.61-7.105,7.674c-1.883,3.076-3.236,6.38-4.079,9.914
				c-0.868,3.548-1.292,6.784-1.292,9.663c0,6.313,2.092,9.458,6.275,9.458c4.079,0,7.887-2.469,11.375-7.456
				c3.514-5.011,6.055-12.012,7.69-21.078l1.907-10.867C474.245,93.186,473.507,93.078,472.793,93.029L472.793,93.029z
				 M570.314,63.408c-0.818,2.305-1.932,4.823-3.39,7.542c-2.646-1.107-5.088-1.825-7.303-2.155
				c-2.215-0.356-4.387-0.511-6.534-0.511c-5.716,0-10.601,1.249-14.648,3.691c-4.055,2.478-7.377,5.691-9.979,9.666
				c-2.603,3.968-4.534,8.483-5.752,13.504c-1.243,5.041-1.858,10.11-1.858,15.228c0,7.432,1.803,12.708,5.433,15.883
				c3.63,3.14,8.423,4.705,14.402,4.705c1.193,0,2.511-0.041,3.975-0.175c1.446-0.117,2.554-0.276,3.316-0.44l5.629-32.117
				c1.711-0.357,3.322-0.598,4.873-0.702c1.544-0.129,3.026-0.198,4.479-0.198c1.452,0,2.96,0.069,4.534,0.198
				c1.588,0.104,3.15,0.345,4.676,0.702l-8.053,45.562c-3.76,1.264-7.979,2.186-12.668,2.748c-4.7,0.55-9.093,0.833-13.197,0.833
				c-6.214,0-11.683-0.896-16.371-2.705c-4.694-1.784-8.619-4.26-11.788-7.409c-3.156-3.143-5.512-6.903-7.087-11.193
				c-1.581-4.319-2.375-8.984-2.375-14.005c0-8.296,1.225-16.052,3.704-23.308c2.467-7.245,5.961-13.576,10.434-19.021
				c4.467-5.404,9.881-9.661,16.199-12.774c6.307-3.125,13.313-4.676,20.974-4.676c4.005,0,7.598,0.261,10.767,0.775
				c3.15,0.5,6.356,1.481,9.592,2.937C571.772,58.632,571.126,61.117,570.314,63.408L570.314,63.408z M622.719,89.125
				c-0.597,2.557-1.408,4.698-2.424,6.408c-0.517-0.086-1.064-0.183-1.68-0.252c-0.597-0.074-1.365-0.136-2.295-0.136
				c-3.481,0-6.386,0.607-8.631,1.801c-2.271,1.19-4.135,2.869-5.581,5.06c-1.445,2.172-2.602,4.792-3.439,7.862
				c-0.861,3.07-1.631,6.471-2.313,10.237l-4.725,25.724c-3.348,0.521-6.454,0.769-9.352,0.769c-2.99,0-5.943-0.248-8.835-0.769
				l6.928-37.751c0.91-5.384,1.617-10.133,2.092-14.277c0.479-4.149,0.713-7.351,0.713-9.647c0-0.949,0-1.739,0-2.391
				c0-0.638-0.049-1.329-0.142-2.097c2.824-0.51,5.636-0.769,8.466-0.769c1.273,0,2.547,0.056,3.833,0.19
				c1.273,0.142,2.64,0.314,4.079,0.578c0.197,0.686,0.351,1.483,0.529,2.431c0.16,0.949,0.246,2.34,0.246,4.243
				c0,0.74-0.013,1.516-0.05,2.288c-0.055,0.759-0.153,1.688-0.325,2.808c0.849-1.527,1.925-3.049,3.199-4.553
				c1.273-1.495,2.7-2.83,4.281-4.018c1.575-1.19,3.322-2.153,5.248-2.885c1.92-0.72,4.023-1.083,6.337-1.083
				c1.791,0,3.341,0.222,4.596,0.634c0.099,0.34,0.142,0.693,0.142,1.027c0,0.334,0,0.736,0,1.158
				C623.617,84.103,623.316,86.565,622.719,89.125L622.719,89.125z M644.732,145.829c-3.255,0.521-6.318,0.769-9.217,0.769
				c-2.646,0-5.5-0.248-8.576-0.769l9.229-52.351h-8.071c0-0.24-0.025-0.492-0.062-0.763c-0.043-0.24-0.08-0.554-0.08-0.893
				c0-2.211,0.227-4.288,0.646-6.214c0.425-1.915,1.064-3.893,1.92-5.943h25.87L644.732,145.829L644.732,145.829z M725.23,70.827
				l-8.312,46.338c-0.942,5.358-1.618,10.133-2.049,14.263c-0.431,4.139-0.64,7.358-0.64,9.655c0,0.96,0,1.735,0,2.377
				c0,0.638,0.043,1.341,0.129,2.123c-2.824,0.496-5.599,0.767-8.318,0.767c-2.393,0-5.045-0.271-7.942-0.767
				c-0.172-0.677-0.338-1.508-0.498-2.436c-0.185-0.93-0.259-2.351-0.259-4.221c0-0.77,0.019-1.669,0.056-2.686
				c0.043-1.025,0.153-2.094,0.313-3.212c-1.181,1.979-2.614,3.814-4.275,5.583c-1.668,1.736-3.501,3.256-5.513,4.536
				c-1.993,1.279-4.159,2.305-6.46,3.056c-2.314,0.779-4.726,1.169-7.284,1.169c-5.642,0-9.869-1.788-12.674-5.388
				c-2.824-3.574-4.221-8.318-4.221-14.188c0-6.417,0.966-12.594,2.867-18.565c1.932-5.988,4.773-11.263,8.595-15.875
				c3.777-4.604,8.496-8.312,14.132-11.068c5.623-2.776,12.188-4.171,19.712-4.171c0.602,0,1.169,0.037,1.723,0.067
				c0.554,0.056,1.046,0.056,1.464,0.056c0.93-5.021,1.618-9.282,1.981-12.767c0.394-3.517,0.578-6.425,0.578-8.718
				c0-0.941-0.019-1.719-0.067-2.366c-0.043-0.642-0.104-1.333-0.179-2.108c1.452-0.263,3.119-0.453,4.99-0.582
				c1.863-0.119,3.488-0.185,4.866-0.185c2.473,0,5.205,0.237,8.183,0.767c0.431,1.275,0.634,2.892,0.634,4.86
				C726.762,60.886,726.263,65.473,725.23,70.827L725.23,70.827z M700.983,93.029c-0.727-0.03-1.434-0.043-2.11-0.043
				c-4.098,0-7.562,1.015-10.44,3.062c-2.854,2.039-5.218,4.61-7.088,7.674c-1.883,3.076-3.248,6.38-4.104,9.914
				c-0.837,3.548-1.273,6.784-1.273,9.663c0,6.313,2.086,9.458,6.251,9.458c4.109,0,7.918-2.469,11.412-7.456
				c3.495-5.011,6.048-12.012,7.666-21.078l1.932-10.867C702.447,93.186,701.703,93.078,700.983,93.029L700.983,93.029z"/>
			<g>
				<path fill="#467BBD" d="M208.587,84.49c-0.03-0.091-0.067-0.179-0.08-0.259c-0.485-1.182-0.972-2.371-1.488-3.574
					c-1.01-1.262-2.147-2.242-3.359-2.996c-0.542-0.345-1.102-0.652-1.655-0.882c-0.375-0.183-0.726-0.33-1.083-0.453
					c-2.295-0.837-4.669-1.11-6.761-1.11c-5.421,0-11.592,1.846-16.969,5.009c-17.633,10.504-34.638,35.035-42.567,47.614
					l0.498-0.394l-3.384,5.356c13.892-0.431,45.404-1.521,62.36-13.065C213.768,104.897,210.31,89.325,208.587,84.49z"/>
				<path fill="#467BBD" d="M32.735,108.047c19.264-11.453,39.062-41.21,45.743-52.516c-17.799,0.407-46.592,2.791-62.582,13.274
					C5.073,75.676-3.348,91.35,1.315,103.697c0.056,0.127,0.105,0.205,0.148,0.313c0.486,1.219,0.991,2.464,1.532,3.735
					c3.477,4.312,8.619,5.323,12.698,5.323C21.125,113.069,27.339,111.24,32.735,108.047z"/>
				<path fill="#467BBD" d="M147.421,103.968c-14.508-4.915-30.252-9.557-43.664-14.339c-0.172-10.569-0.442-23.448-0.763-35.158
					c-0.018-0.562-0.018-1.107-0.049-1.659c-0.019-0.576-0.031-1.143-0.037-1.696c-0.295-10.086-0.621-19.013-0.923-24.367
					c-7.075,8.72-13.196,18.071-17.62,25.372c-0.351,0.574-0.695,1.132-1.021,1.69c-0.166,0.267-0.338,0.565-0.505,0.845
					c-0.006,0.026-0.172,0.308-0.474,0.824c-1.943,3.335-9.604,16.158-20.031,29.152c0.289,0.485,17.201,28.676,30.54,50.836
					c0.319,0.529,0.64,1.062,0.947,1.571c0.326,0.539,0.64,1.066,0.953,1.587c6.823,11.309,12.36,20.483,13.69,22.602l-45.872-14.48
					l-2.411-0.771l-2.32-0.738l-1.993-0.628c1.932-17.538,5.113-54.26,6.441-59.952c-8.09,10.094-17.848,20.299-27.863,26.269
					c-5.9,3.494-12.742,5.502-18.753,5.502c-3.71,0-7.014-0.74-9.794-2.155c-0.296-0.147-0.591-0.302-0.855-0.466
					c9.105,19.937,23.034,43.743,35.585,60.736c1.2,1.637,2.388,3.197,3.568,4.708c0.031,0.033,0.05,0.089,0.086,0.113
					c4.849,5.896,12.269,9.169,20.838,9.169c5.433,0,11.253-1.3,17.325-3.866c18.765-9.061,35.721-36.398,42.956-48.076
					c0.049-0.073,0.073-0.145,0.123-0.207c0.406-0.658,0.794-1.273,1.132-1.809c0.142-0.222,0.252-0.406,0.382-0.613l0.006,0.01
					c0.129-0.282,0.308-0.629,0.56-1.082c0.622-1.118,1.686-2.867,3.458-5.699c2.344-3.736,6.128-9.565,10.822-15.964
					C143.557,108.923,145.421,106.482,147.421,103.968z"/>
				<path fill="#467BBD" d="M116.905,51.156c0.308,0.513,0.603,1.034,0.892,1.538c11.228,19.294,25.064,43.079,29.703,51.187
					c7.789-9.766,17.78-20.467,27.981-26.541c5.863-3.488,12.674-5.468,18.679-5.468c1.723,0,3.347,0.164,4.891,0.479
					c0.006,0,0.018,0,0.031,0.012c-0.025-0.012-0.025-0.036-0.05-0.055c-13.485-8.251-31.924-19.18-41.719-25.514
					c0.338-2.474,0.677-4.983,1.003-7.468c0.099-0.776,0.196-1.546,0.314-2.327c0.093-0.812,0.203-1.631,0.308-2.437
					c1.126-8.576,2.153-16.794,2.91-23.299c2.073,2.701,4.159,5.574,6.257,8.535c0.449,0.652,0.898,1.284,1.348,1.932
					c0.418,0.583,0.812,1.185,1.23,1.795c0.196,0.283,0.381,0.566,0.591,0.867c9.475,13.941,28.171,48.044,28.171,48.044
					l2.067,0.556c0.911,0.306,1.773,0.675,2.59,1.081c0.031,0.026,0.074,0.026,0.093,0.055c-3.617-7.854-8.022-16.356-12.89-24.871
					c-6.115-10.781-12.926-21.608-19.718-31.287c-0.628-0.906-1.262-1.797-1.901-2.679c-1.464-2.038-2.91-4.019-4.368-5.927
					c-0.854-1.134-1.71-2.239-2.553-3.312c-0.093-0.129-0.197-0.22-0.296-0.32V5.707C157.898,2.053,151.456,0,144.215,0
					c-5.882,0-11.904,1.378-16.513,3.767c-8.902,4.512-17.651,13.103-25.305,22.473c1.618,2.773,7.002,12.04,13.591,23.36
					C116.302,50.11,116.604,50.644,116.905,51.156z"/>
			</g>
			<g>
				<path fill="#444345" d="M736.833,63.972c-3.23,0-5.63-2.455-5.63-5.649c0-3.618,2.431-5.833,6.331-5.833
					c3.205,0,5.47,2.347,5.47,5.527C743.004,61.652,740.678,63.972,736.833,63.972z M737.19,53.771
					c-2.418,0-4.398,1.613-4.398,4.344c0,2.805,1.723,4.54,4.423,4.54c2.295,0,4.239-1.708,4.239-4.432
					C741.453,55.537,739.669,53.771,737.19,53.771z M738.168,61.117l-1.489-2.213v1.333c0,0.062,0.007,0.216,0.111,0.88h-1.821
					v-5.008l-0.123-1.098h2.098c1.225,0,2.4,0.667,2.4,1.989c0,0.646-0.474,1.391-1.193,1.723l2.062,2.393H738.168z M736.734,58.09
					c0.529,0,1.095-0.344,1.095-1.089c0-0.726-0.565-0.943-1.095-0.943h-0.056v2.032H736.734z"/>
			</g>
		</g>
		<path fill="#447BBE" d="M659.886,59.776c-0.529,2.737-1.292,5.543-2.326,8.44c-1.525,0.259-3.131,0.425-4.786,0.507
			c-1.661,0.09-3.169,0.14-4.534,0.14c-1.292,0-2.774-0.05-4.485-0.14c-1.717-0.082-3.248-0.248-4.62-0.507
			c-0.074-2.977,0.11-5.822,0.584-8.515c0.468-2.689,1.225-5.524,2.246-8.505c1.532-0.354,3.156-0.582,4.86-0.699
			c1.698-0.142,3.236-0.194,4.614-0.194c1.354,0,2.873,0.053,4.528,0.194c1.673,0.117,3.229,0.345,4.676,0.699
			C660.643,54.178,660.397,57.042,659.886,59.776L659.886,59.776z"/>
	</g>
</g>
<g id="Layer_7_copy_2">
	<path fill="#1D1F29" d="M296.239,63.785c-0.867,2.556-2.049,5.084-3.593,7.551c-2.474-1.177-5.002-2.165-7.604-2.935
		c-2.608-0.769-6.005-1.156-10.176-1.156c-1.544,0-3.199,0.125-4.935,0.388c-1.729,0.258-3.328,0.746-4.737,1.47
		c-1.396,0.732-2.571,1.725-3.513,3.009c-0.953,1.284-1.427,2.935-1.427,4.996c0,2.896,1.052,5.291,3.162,7.169
		c2.073,1.862,4.749,3.739,7.998,5.632c2.892,1.607,5.58,3.238,8.053,4.844c2.474,1.643,4.646,3.384,6.528,5.258
		c1.883,1.885,3.347,3.989,4.417,6.333c1.064,2.357,1.6,5.064,1.6,8.138c0,4.352-0.794,8.523-2.368,12.53
		c-1.575,4.023-4.006,7.522-7.297,10.492c-3.279,2.998-7.438,5.379-12.483,7.163c-5.026,1.809-11.007,2.705-17.909,2.705
		c-8.023,0-15.91-1.487-23.681-4.489c0.332-2.561,0.966-5.131,1.852-7.746c0.905-2.59,1.987-5.303,3.268-8.125
		c3.236,1.202,6.546,2.225,9.911,3.074c3.378,0.849,6.65,1.279,9.795,1.279c2.639,0,5.106-0.295,7.376-0.896
		c2.252-0.604,4.215-1.489,5.876-2.673c1.655-1.212,2.959-2.657,3.913-4.355c0.929-1.704,1.402-3.716,1.402-6.018
		c0-1.704-0.394-3.211-1.163-4.484c-0.763-1.273-1.747-2.433-2.928-3.458c-1.213-1.04-2.615-1.987-4.233-2.886
		c-1.63-0.892-3.255-1.852-4.866-2.873c-5.457-3.254-9.788-6.589-12.987-10.053c-3.193-3.441-4.799-7.53-4.799-12.212
		c0-4.603,0.812-8.727,2.436-12.354c1.612-3.617,3.913-6.671,6.903-9.154c2.99-2.463,6.589-4.383,10.828-5.697
		c4.214-1.316,8.964-1.971,14.255-1.971c4.7,0,8.755,0.356,12.157,0.992c3.421,0.71,7.008,1.778,10.761,3.218
		C297.686,58.814,297.089,61.228,296.239,63.785L296.239,63.785z M354.853,104.62c-1.784,2.813-4.177,5.218-7.167,7.174
		c-2.984,1.948-6.38,3.556-10.183,4.782c-3.789,1.241-7.745,2.176-11.831,2.769l-8.582,1.4c0.522,4.092,1.883,7.155,4.098,9.155
		c2.221,1.995,5.481,3.004,9.721,3.004c3.421,0,6.436-0.358,9.031-1.095c2.597-0.716,5.358-1.676,8.25-2.879
		c1.36,1.718,2.289,3.777,2.763,6.205c0.455,2.436,0.689,5.026,0.689,7.746c-1.446,0.687-3.113,1.316-5.052,1.855
		c-1.9,0.57-3.893,1.03-5.949,1.417c-2.055,0.384-4.091,0.677-6.145,0.889c-2.049,0.207-3.87,0.328-5.494,0.328
		c-5.211,0-9.659-0.65-13.382-1.92c-3.71-1.277-6.779-3.086-9.222-5.449c-2.412-2.34-4.215-5.204-5.371-8.574
		c-1.15-3.371-1.717-7.111-1.717-11.197c0-5.204,0.898-10.313,2.683-15.346c1.796-5.045,4.331-9.538,7.622-13.504
		c3.273-3.983,7.278-7.174,12.028-9.618c4.731-2.433,10.047-3.646,15.929-3.646c2.817,0,5.433,0.365,7.868,1.04
		c2.449,0.683,4.547,1.729,6.337,3.131c1.791,1.407,3.199,3.145,4.239,5.177c1.003,2.051,1.525,4.439,1.525,7.178
		C357.541,98.464,356.65,101.803,354.853,104.62L354.853,104.62z M338.66,92.986c-1.07-1.044-2.492-1.551-4.282-1.551
		c-2.215,0-4.251,0.494-6.085,1.475c-1.833,0.973-3.433,2.297-4.799,3.893c-1.365,1.624-2.541,3.482-3.525,5.572
		c-0.978,2.11-1.716,4.208-2.233,6.337l6.657-1.021c3.23-0.505,5.882-1.167,7.931-1.987c2.055-0.806,3.66-1.704,4.853-2.687
		c1.206-0.972,2.019-1.981,2.449-3.007c0.425-1.009,0.634-2.042,0.634-3.064C340.26,95.312,339.731,94.001,338.66,92.986
		L338.66,92.986z M424.725,99.247c-0.16,1.448-0.388,2.978-0.628,4.604l-7.432,41.978c-3.242,0.521-6.355,0.769-9.346,0.769
		c-2.983,0-5.931-0.248-8.816-0.769l7.161-40.573c0.326-1.702,0.499-3.324,0.499-4.852c0-2.548-0.554-4.356-1.661-5.39
		c-1.102-1.014-2.677-1.536-4.731-1.536c-1.193,0-2.535,0.317-4.029,0.88c-1.495,0.615-3.003,1.876-4.541,3.796
		c-1.532,1.926-3.033,4.633-4.485,8.136c-1.451,3.486-2.688,8.094-3.721,13.815l-4.726,25.724c-3.322,0.521-6.429,0.769-9.327,0.769
		c-3.002,0-5.936-0.248-8.852-0.769l6.933-37.751c0.929-5.384,1.637-10.133,2.098-14.277c0.474-4.149,0.701-7.351,0.701-9.647
		c0-0.949,0-1.739,0-2.391c0-0.638-0.037-1.329-0.123-2.097c2.806-0.51,5.63-0.769,8.441-0.769c1.286,0,2.553,0.056,3.845,0.19
		c1.286,0.142,2.633,0.314,4.091,0.578c0.179,0.686,0.345,1.483,0.523,2.431c0.16,0.949,0.252,2.34,0.252,4.243
		c0,0.74-0.03,1.516-0.062,2.288c-0.049,0.759-0.153,1.688-0.313,2.808c1.015-1.794,2.295-3.5,3.826-5.096
		c1.551-1.635,3.279-3.056,5.248-4.243c1.969-1.204,4.067-2.127,6.337-2.82c2.258-0.685,4.541-1.037,6.848-1.037
		c5.106,0,9.111,1.31,11.973,3.925c2.854,2.593,4.275,6.924,4.275,12.981C424.982,96.434,424.897,97.798,424.725,99.247
		L424.725,99.247z M497.045,70.827l-8.336,46.338c-0.923,5.358-1.605,10.133-2.036,14.263c-0.431,4.139-0.634,7.358-0.634,9.655
		c0,0.96,0,1.735,0,2.377c0,0.638,0.03,1.341,0.129,2.123c-2.817,0.496-5.593,0.767-8.33,0.767c-2.381,0-5.021-0.271-7.918-0.767
		c-0.179-0.677-0.357-1.508-0.529-2.436c-0.166-0.93-0.246-2.351-0.246-4.221c0-0.77,0.019-1.669,0.061-2.686
		c0.03-1.025,0.153-2.094,0.314-3.212c-1.193,1.979-2.614,3.814-4.282,5.583c-1.661,1.736-3.507,3.256-5.512,4.536
		c-2,1.279-4.153,2.305-6.448,3.056c-2.325,0.779-4.743,1.169-7.303,1.169c-5.629,0-9.862-1.788-12.668-5.388
		c-2.823-3.574-4.238-8.318-4.238-14.188c0-6.417,0.972-12.594,2.903-18.565c1.907-5.988,4.762-11.263,8.57-15.875
		c3.784-4.604,8.522-8.312,14.139-11.068c5.629-2.776,12.206-4.171,19.699-4.171c0.597,0,1.182,0.037,1.728,0.067
		c0.561,0.056,1.059,0.056,1.477,0.056c0.936-5.021,1.6-9.282,1.981-12.767c0.388-3.517,0.578-6.425,0.578-8.718
		c0-0.941-0.024-1.719-0.061-2.366c-0.037-0.642-0.116-1.333-0.196-2.108c1.445-0.263,3.112-0.453,5.008-0.582
		c1.864-0.119,3.47-0.185,4.848-0.185c2.485,0,5.205,0.237,8.195,0.767c0.431,1.275,0.64,2.892,0.64,4.86
		C498.577,60.886,498.072,65.473,497.045,70.827L497.045,70.827z M472.793,93.029c-0.732-0.03-1.428-0.043-2.099-0.043
		c-4.134,0-7.585,1.015-10.446,3.062c-2.873,2.039-5.235,4.61-7.105,7.674c-1.883,3.076-3.236,6.38-4.079,9.914
		c-0.868,3.548-1.292,6.784-1.292,9.663c0,6.313,2.092,9.458,6.275,9.458c4.079,0,7.887-2.469,11.375-7.456
		c3.514-5.011,6.055-12.012,7.69-21.078l1.907-10.867C474.245,93.186,473.507,93.078,472.793,93.029L472.793,93.029z
		 M570.314,63.408c-0.818,2.305-1.932,4.823-3.39,7.542c-2.646-1.107-5.088-1.825-7.303-2.155c-2.215-0.356-4.387-0.511-6.534-0.511
		c-5.716,0-10.601,1.249-14.648,3.691c-4.055,2.478-7.377,5.691-9.979,9.666c-2.603,3.968-4.534,8.483-5.752,13.504
		c-1.243,5.041-1.858,10.11-1.858,15.228c0,7.432,1.803,12.708,5.433,15.883c3.63,3.14,8.423,4.705,14.402,4.705
		c1.193,0,2.511-0.041,3.975-0.175c1.446-0.117,2.554-0.276,3.316-0.44l5.629-32.117c1.711-0.357,3.322-0.598,4.873-0.702
		c1.544-0.129,3.026-0.198,4.479-0.198c1.452,0,2.96,0.069,4.534,0.198c1.588,0.104,3.15,0.345,4.676,0.702l-8.053,45.562
		c-3.76,1.264-7.979,2.186-12.668,2.748c-4.7,0.55-9.093,0.833-13.197,0.833c-6.214,0-11.683-0.896-16.371-2.705
		c-4.694-1.784-8.619-4.26-11.788-7.409c-3.156-3.143-5.512-6.903-7.087-11.193c-1.581-4.319-2.375-8.984-2.375-14.005
		c0-8.296,1.225-16.052,3.704-23.308c2.467-7.245,5.961-13.576,10.434-19.021c4.467-5.404,9.881-9.661,16.199-12.774
		c6.307-3.125,13.313-4.676,20.974-4.676c4.005,0,7.598,0.261,10.767,0.775c3.15,0.5,6.356,1.481,9.592,2.937
		C571.772,58.632,571.126,61.117,570.314,63.408L570.314,63.408z M622.719,89.125c-0.597,2.557-1.408,4.698-2.424,6.408
		c-0.517-0.086-1.064-0.183-1.68-0.252c-0.597-0.074-1.365-0.136-2.295-0.136c-3.481,0-6.386,0.607-8.631,1.801
		c-2.271,1.19-4.135,2.869-5.581,5.06c-1.445,2.172-2.602,4.792-3.439,7.862c-0.861,3.07-1.631,6.471-2.313,10.237l-4.725,25.724
		c-3.348,0.521-6.454,0.769-9.352,0.769c-2.99,0-5.943-0.248-8.835-0.769l6.928-37.751c0.91-5.384,1.617-10.133,2.092-14.277
		c0.479-4.149,0.713-7.351,0.713-9.647c0-0.949,0-1.739,0-2.391c0-0.638-0.049-1.329-0.142-2.097
		c2.824-0.51,5.636-0.769,8.466-0.769c1.273,0,2.547,0.056,3.833,0.19c1.273,0.142,2.64,0.314,4.079,0.578
		c0.197,0.686,0.351,1.483,0.529,2.431c0.16,0.949,0.246,2.34,0.246,4.243c0,0.74-0.013,1.516-0.05,2.288
		c-0.055,0.759-0.153,1.688-0.325,2.808c0.849-1.527,1.925-3.049,3.199-4.553c1.273-1.495,2.7-2.83,4.281-4.018
		c1.575-1.19,3.322-2.153,5.248-2.885c1.92-0.72,4.023-1.083,6.337-1.083c1.791,0,3.341,0.222,4.596,0.634
		c0.099,0.34,0.142,0.693,0.142,1.027c0,0.334,0,0.736,0,1.158C623.617,84.103,623.316,86.565,622.719,89.125L622.719,89.125z
		 M644.732,145.829c-3.255,0.521-6.318,0.769-9.217,0.769c-2.646,0-5.5-0.248-8.576-0.769l9.229-52.351h-8.071
		c0-0.24-0.025-0.492-0.062-0.763c-0.043-0.24-0.08-0.554-0.08-0.893c0-2.211,0.227-4.288,0.646-6.214
		c0.425-1.915,1.064-3.893,1.92-5.943h25.87L644.732,145.829L644.732,145.829z M725.23,70.827l-8.312,46.338
		c-0.942,5.358-1.618,10.133-2.049,14.263c-0.431,4.139-0.64,7.358-0.64,9.655c0,0.96,0,1.735,0,2.377
		c0,0.638,0.043,1.341,0.129,2.123c-2.824,0.496-5.599,0.767-8.318,0.767c-2.393,0-5.045-0.271-7.942-0.767
		c-0.172-0.677-0.338-1.508-0.498-2.436c-0.185-0.93-0.259-2.351-0.259-4.221c0-0.77,0.019-1.669,0.056-2.686
		c0.043-1.025,0.153-2.094,0.313-3.212c-1.181,1.979-2.614,3.814-4.275,5.583c-1.668,1.736-3.501,3.256-5.513,4.536
		c-1.993,1.279-4.159,2.305-6.46,3.056c-2.314,0.779-4.726,1.169-7.284,1.169c-5.642,0-9.869-1.788-12.674-5.388
		c-2.824-3.574-4.221-8.318-4.221-14.188c0-6.417,0.966-12.594,2.867-18.565c1.932-5.988,4.773-11.263,8.595-15.875
		c3.777-4.604,8.496-8.312,14.132-11.068c5.623-2.776,12.188-4.171,19.712-4.171c0.602,0,1.169,0.037,1.723,0.067
		c0.554,0.056,1.046,0.056,1.464,0.056c0.93-5.021,1.618-9.282,1.981-12.767c0.394-3.517,0.578-6.425,0.578-8.718
		c0-0.941-0.019-1.719-0.067-2.366c-0.043-0.642-0.104-1.333-0.179-2.108c1.452-0.263,3.119-0.453,4.99-0.582
		c1.863-0.119,3.488-0.185,4.866-0.185c2.473,0,5.205,0.237,8.183,0.767c0.431,1.275,0.634,2.892,0.634,4.86
		C726.762,60.886,726.263,65.473,725.23,70.827L725.23,70.827z M700.983,93.029c-0.727-0.03-1.434-0.043-2.11-0.043
		c-4.098,0-7.562,1.015-10.44,3.062c-2.854,2.039-5.218,4.61-7.088,7.674c-1.883,3.076-3.248,6.38-4.104,9.914
		c-0.837,3.548-1.273,6.784-1.273,9.663c0,6.313,2.086,9.458,6.251,9.458c4.109,0,7.918-2.469,11.412-7.456
		c3.495-5.011,6.048-12.012,7.666-21.078l1.932-10.867C702.447,93.186,701.703,93.078,700.983,93.029L700.983,93.029z"/>
	<g>
		<path fill="#0071CE" d="M208.587,84.49c-0.03-0.091-0.067-0.179-0.08-0.259c-0.485-1.182-0.972-2.371-1.488-3.574
			c-1.01-1.262-2.147-2.242-3.359-2.996c-0.542-0.345-1.102-0.652-1.655-0.882c-0.375-0.183-0.726-0.33-1.083-0.453
			c-2.295-0.837-4.669-1.11-6.761-1.11c-5.421,0-11.592,1.846-16.969,5.009c-17.633,10.504-34.638,35.035-42.567,47.614l0.498-0.394
			l-3.384,5.356c13.892-0.431,45.404-1.521,62.36-13.065C213.768,104.897,210.31,89.325,208.587,84.49z"/>
		<path fill="#0071CE" d="M32.735,108.047c19.264-11.453,39.062-41.21,45.743-52.516c-17.799,0.407-46.592,2.791-62.582,13.274
			C5.073,75.676-3.348,91.35,1.315,103.697c0.056,0.127,0.105,0.205,0.148,0.313c0.486,1.219,0.991,2.464,1.532,3.735
			c3.477,4.312,8.619,5.323,12.698,5.323C21.125,113.069,27.339,111.24,32.735,108.047z"/>
		<path fill="#0071CE" d="M147.421,103.968c-14.508-4.915-30.252-9.557-43.664-14.339c-0.172-10.569-0.442-23.448-0.763-35.158
			c-0.018-0.562-0.018-1.107-0.049-1.659c-0.019-0.576-0.031-1.143-0.037-1.696c-0.295-10.086-0.621-19.013-0.923-24.367
			c-7.075,8.72-13.196,18.071-17.62,25.372c-0.351,0.574-0.695,1.132-1.021,1.69c-0.166,0.267-0.338,0.565-0.505,0.845
			c-0.006,0.026-0.172,0.308-0.474,0.824c-1.943,3.335-9.604,16.158-20.031,29.152c0.289,0.485,17.201,28.676,30.54,50.836
			c0.319,0.529,0.64,1.062,0.947,1.571c0.326,0.539,0.64,1.066,0.953,1.587c6.823,11.309,12.36,20.483,13.69,22.602l-45.872-14.48
			l-2.411-0.771l-2.32-0.738l-1.993-0.628c1.932-17.538,5.113-54.26,6.441-59.952c-8.09,10.094-17.848,20.299-27.863,26.269
			c-5.9,3.494-12.742,5.502-18.753,5.502c-3.71,0-7.014-0.74-9.794-2.155c-0.296-0.147-0.591-0.302-0.855-0.466
			c9.105,19.937,23.034,43.743,35.585,60.736c1.2,1.637,2.388,3.197,3.568,4.708c0.031,0.033,0.05,0.089,0.086,0.113
			c4.849,5.896,12.269,9.169,20.838,9.169c5.433,0,11.253-1.3,17.325-3.866c18.765-9.061,35.721-36.398,42.956-48.076
			c0.049-0.073,0.073-0.145,0.123-0.207c0.406-0.658,0.794-1.273,1.132-1.809c0.142-0.222,0.252-0.406,0.382-0.613l0.006,0.01
			c0.129-0.282,0.308-0.629,0.56-1.082c0.622-1.118,1.686-2.867,3.458-5.699c2.344-3.736,6.128-9.565,10.822-15.964
			C143.557,108.923,145.421,106.482,147.421,103.968z"/>
		<path fill="#0071CE" d="M116.905,51.156c0.308,0.513,0.603,1.034,0.892,1.538c11.228,19.294,25.064,43.079,29.703,51.187
			c7.789-9.766,17.78-20.467,27.981-26.541c5.863-3.488,12.674-5.468,18.679-5.468c1.723,0,3.347,0.164,4.891,0.479
			c0.006,0,0.018,0,0.031,0.012c-0.025-0.012-0.025-0.036-0.05-0.055c-13.485-8.251-31.924-19.18-41.719-25.514
			c0.338-2.474,0.677-4.983,1.003-7.468c0.099-0.776,0.196-1.546,0.314-2.327c0.093-0.812,0.203-1.631,0.308-2.437
			c1.126-8.576,2.153-16.794,2.91-23.299c2.073,2.701,4.159,5.574,6.257,8.535c0.449,0.652,0.898,1.284,1.348,1.932
			c0.418,0.583,0.812,1.185,1.23,1.795c0.196,0.283,0.381,0.566,0.591,0.867c9.475,13.941,28.171,48.044,28.171,48.044l2.067,0.556
			c0.911,0.306,1.773,0.675,2.59,1.081c0.031,0.026,0.074,0.026,0.093,0.055c-3.617-7.854-8.022-16.356-12.89-24.871
			c-6.115-10.781-12.926-21.608-19.718-31.287c-0.628-0.906-1.262-1.797-1.901-2.679c-1.464-2.038-2.91-4.019-4.368-5.927
			c-0.854-1.134-1.71-2.239-2.553-3.312c-0.093-0.129-0.197-0.22-0.296-0.32V5.707C157.898,2.053,151.456,0,144.215,0
			c-5.882,0-11.904,1.378-16.513,3.767c-8.902,4.512-17.651,13.103-25.305,22.473c1.618,2.773,7.002,12.04,13.591,23.36
			C116.302,50.11,116.604,50.644,116.905,51.156z"/>
	</g>
	<g>
		<path fill="#1D1F29" d="M736.833,63.972c-3.23,0-5.63-2.455-5.63-5.649c0-3.618,2.431-5.833,6.331-5.833
			c3.205,0,5.47,2.347,5.47,5.527C743.004,61.652,740.678,63.972,736.833,63.972z M737.19,53.771c-2.418,0-4.398,1.613-4.398,4.344
			c0,2.805,1.723,4.54,4.423,4.54c2.295,0,4.239-1.708,4.239-4.432C741.453,55.537,739.669,53.771,737.19,53.771z M738.168,61.117
			l-1.489-2.213v1.333c0,0.062,0.007,0.216,0.111,0.88h-1.821v-5.008l-0.123-1.098h2.098c1.225,0,2.4,0.667,2.4,1.989
			c0,0.646-0.474,1.391-1.193,1.723l2.062,2.393H738.168z M736.734,58.09c0.529,0,1.095-0.344,1.095-1.089
			c0-0.726-0.565-0.943-1.095-0.943h-0.056v2.032H736.734z"/>
	</g>
	<path fill="#0071CE" d="M659.886,59.776c-0.529,2.737-1.292,5.543-2.326,8.44c-1.525,0.259-3.131,0.425-4.786,0.507
		c-1.661,0.09-3.169,0.14-4.534,0.14c-1.292,0-2.774-0.05-4.485-0.14c-1.717-0.082-3.248-0.248-4.62-0.507
		c-0.074-2.977,0.11-5.822,0.584-8.515c0.468-2.689,1.225-5.524,2.246-8.505c1.532-0.354,3.156-0.582,4.86-0.699
		c1.698-0.142,3.236-0.194,4.614-0.194c1.354,0,2.873,0.053,4.528,0.194c1.673,0.117,3.229,0.345,4.676,0.699
		C660.643,54.178,660.397,57.042,659.886,59.776L659.886,59.776z"/>
</g>
</svg>
