<?xml version="1.0" encoding="utf-8"?>
<!-- Generator: Adobe Illustrator 18.0.0, SVG Export Plug-In . SVG Version: 6.00 Build 0)  -->
<!DOCTYPE svg PUBLIC "-//W3C//DTD SVG 1.1//EN" "http://www.w3.org/Graphics/SVG/1.1/DTD/svg11.dtd">
<svg version="1.1" id="Layer_1" xmlns="http://www.w3.org/2000/svg" xmlns:xlink="http://www.w3.org/1999/xlink" x="0px" y="0px"
	 viewBox="0 0 1713.2 1033.8" enable-background="new 0 0 1713.2 1033.8" xml:space="preserve">
<path d="M405,0c3.1,0.3,6.3,0.7,9.4,0.8C466.9,2,519.4,3,571.8,4.3c14.6,0.4,29.3,1.8,43.9,2.7c4.2,0.2,6.4,2.1,7,6.2
	c2.9,18.7,3.6,37.6-0.3,56.2c-1.2,5.7-6.1,10.8-9.9,15.8c-0.9,1.2-4,1-6,0.8c-29.9-2.1-59.8-4.4-89.7-6.3c-11.5-0.7-23-0.9-34.5-0.8
	c-8.1,0.1-9,1.8-5,8.9c8.3,14.8,17.4,29.2,25.6,44c13.2,23.7,25.7,47.8,38.9,71.5c5.8,10.5,4.8,19.9-2.4,29.1
	c-19.8,25.3-39.6,50.6-59.3,76c-4.3,5.5-8.7,10.9-12.4,16.8c-3.3,5.2-2.6,7,3.2,8.9c18.5,6.2,36.9,12.7,55.6,17.8
	c30.8,8.4,61.9,15.8,92.9,23.8c7.8,2,8.2,2.3,8.3,10.1c0.3,19,0.4,38,0,56.9c-0.2,9.6-2.6,11.6-11.9,9.1
	c-27.3-7.3-54.7-14.4-81.6-23.2c-46.4-15.1-92-32.5-136.2-53.4c-5.6-2.6-10.9-5.7-16.3-8.7c-7.6-4.2-11.7-10.7-12.4-19.3
	c-0.7-9-1.3-18-1.5-26.9c0-1.9,1.4-4.3,2.9-5.8c21.6-22,43.6-43.6,64.8-66c9.6-10.1,17.7-21.6,26.1-32.7c4.3-5.7,4.9-12.2,1.1-18.8
	c-13.2-22.8-25.8-45.8-39.5-68.3c-13.1-21.5-27-42.4-40.8-63.4c-9.5-14.4-10.3-30.5-8.7-46.6c0.6-6.5,5.5-12.5,8.5-18.8
	C389.7,0,397.4,0,405,0z"/>
<path d="M784.3,830c-3,0.5-6.1,0.6-8.9,1.6c-19.6,7.1-39.2,14-58.5,21.8c-37.9,15.3-76.7,26.8-117.6,30.1c-16.5,1.4-33,1.2-49.2-2.8
	c-2-0.5-3.9-1.3-6-3.1c2.2-1,4.2-2.3,6.5-3.1c19.8-6.9,39.8-13.3,59.4-20.8c18.9-7.2,37.1-16,52-30.2c2.5-2.4,4.7-5.2,6.8-8
	c0.7-0.9,0.6-2.4,0.8-3.7c-1.4-0.2-3-0.9-4.1-0.4c-4.5,1.6-9,3.4-13.4,5.5C597.4,844,540,857.7,479.1,855.8
	c-25.3-0.8-50.1-5-73.2-16.1c-7.2-3.5-13.8-8.2-20.6-12.4c0.2-0.6,0.4-1.3,0.6-1.9c2-0.5,4-1,6-1.4c29.1-5,58.2-9.6,87.1-15.1
	c22.3-4.2,44.4-9.6,65-19.2c10.9-5.1,20.7-12.5,31.1-18.9c2.1-1.3,4.2-2.7,6.3-4c-0.6-0.9-1.1-1.8-1.7-2.7c-2.6,0.4-5.3,0.6-7.8,1.3
	c-16.5,4.6-32.9,9.6-49.6,13.8c-41.1,10.3-82.6,19-125.1,19.4c-40.4,0.3-79.1-8-114.5-28.5c-9-5.2-16.4-12.3-23.6-21.1
	c2.5,0,4.1,0,5.7,0c43.6-0.7,87.3-0.7,130.9-2.3c32.1-1.2,64.2-5,94.8-15.9c12.5-4.5,24.2-10.9,36.3-16.6c2.1-1,4.1-2.3,5.7-4
	c1.4-1.4,2.2-3.3,3.2-5.1c-2.1-0.5-4.5-1.8-6.3-1.3c-32.6,9.1-66.2,11.7-99.8,14.3c-40.1,3.1-80.3,2.9-120.3-1.3
	c-51.5-5.4-99.9-19.6-141.9-51.5c-19.2-14.6-35-32.2-48-52.4c-2.4-3.7-3.9-7.8-6.5-13.1c4.5,0.4,7.3,0.2,9.9,0.8
	c24.8,5.9,49.5,11.9,74.3,18c43,10.6,86.1,21,130.2,26c49.7,5.7,99.4,6.2,149-1.4c9.5-1.5,12.1-2.8,16-6.8c-2.4-0.8-4.4-1.8-6.5-2.1
	c-23.8-3.2-47.5-6.6-71.3-9.3c-54.8-6.2-109.6-12.7-163.2-25.9c-31.6-7.8-62.7-17.3-91.6-32.6c-38.1-20.2-70-47.3-92.1-84.9
	c-8.2-13.9-14.2-28.6-18.3-44.2c-0.4-1.4-0.7-2.9-1-4.4c-1.3-7.5,0-8.8,7-6.1c9.5,3.7,18.7,7.9,28,12c52.7,22.9,105,46.8,158.1,68.6
	c64.3,26.5,131.7,41.6,200.7,49.6c7.8,0.9,15.6,1.7,23.4,2.4c3.2,0.3,6.5,0,9.7,0c0.1-0.6,0.3-1.2,0.4-1.8c-2.1-1-4.1-2.4-6.4-3.1
	c-23.8-7-47.6-13.9-71.4-20.9c-67.3-19.8-132.7-44.3-194.4-77.9c-46.1-25.1-88.7-54.9-124.3-93.8C33.8,312.4,5.6,254.8,0.6,187.2
	c-1.6-21,0.1-42.3,0.8-63.4c0.2-5.3,2.1-10.8,4.2-15.8c2.1-5.1,5.7-5.6,10-2.1c1.7,1.3,3.2,2.9,4.6,4.6c18.3,21.8,36.5,43.7,55,65.3
	c20.7,24.2,41.2,48.5,62.6,72.1c41.1,45.4,87.2,85.1,137.3,120.3C365.9,432,465,477.9,572.8,504.6c18.4,4.5,37,8.3,55.6,12.4
	c1.9,0.4,3.9,0.9,6.2,1.5c0,2.1,0,4.1,0,6.1c-0.3,28-0.3,56-0.9,84c-0.8,35.2,17,58.3,47.9,71.2c30,12.5,60.9,12.4,90.8-1.4
	c17-7.9,26.9-21.6,26.2-41.2c-0.6-17.3-9-28-26.4-34.3c-17.2-6.2-30.2-5.8-53.6,1.8c3.6-10.1,6.1-20.1,15.5-25.7
	c6.7-4,13.9-7.3,21.3-9.7c12.7-4.1,24.4-10,34.8-18.2c7-5.5,14.6-7.7,23.2-7.6c16.2,0.3,32.3,0.8,48.5,0.8
	c22.6,0.1,45.1-1.7,66-11.4c6.5-3,12.2-7.7,18.7-11.9c-0.4,1.6-0.7,3.4-1.4,5.1c-9.8,24.2-27.8,40.1-51.1,50.8
	c-6,2.8-11.7,6.3-17.5,9.6c-1.1,0.6-2.2,2.2-2.2,3.4c-0.4,18.4-0.6,36.7,6.9,54.1c16,36.9,54.9,56.8,95.9,48.6
	c16.9-3.4,33.3-7.9,46.9-19.6c18.6-16,29.5-35.7,29-60.5c-0.5-23.5-2.1-46.9-3.3-70.4c-0.3-5.8-0.8-11.6-1.3-17.7
	c12-2.1,23.6-4.1,35.1-6.3c87.7-16.8,171.7-44.6,251.1-85.7c69-35.7,132.2-79.9,190.9-130.7c36.2-31.4,70.7-64.4,101.8-100.8
	c17-19.9,32.8-40.7,49.7-60.7c9.3-11,19.7-21.1,29.5-31.6c0.7,0.1,1.3,0.2,2,0.3c1.4,6.9,3.8,13.7,4.1,20.6
	c1.5,37.3-0.4,74.4-8.6,110.8c-9.6,42.7-29.2,81-56.5,115.3c-37.5,47.2-84.5,82.9-137.3,111.2c-61.3,32.9-126.7,55.1-194,71.6
	c-32.2,7.9-64.7,14.3-97.1,21.4c-3.6,0.8-7,2.1-10.6,3.1c0,0.6,0.1,1.3,0.1,1.9c2.5,0.4,5,1.2,7.4,1c23.6-1,47.3-1.1,70.8-3.5
	c71.4-7.1,139.9-26.6,206.7-52.1c47.8-18.3,94.2-39.7,140-62.6c6.7-3.4,13.9-6,22.2-9.5c-0.3,4.2-0.2,6.6-0.6,8.9
	c-8.6,53-37.9,91.7-82.7,119.8c-34.5,21.7-72.2,35.5-111.3,46.1c-44.7,12.1-90.5,18.2-136.5,21.7c-43.9,3.4-87.8,5.6-131.7,8.4
	c-1.1,0.1-2.1,0.2-3.4,1.4c1.6,0.5,3.3,1,4.9,1.6c44.9,16,91.5,17.6,138.6,16.6c61.2-1.3,120.3-14.2,179-29.5
	c19.5-5.1,38.7-11.3,58-16.9c3.2-0.9,6.6-1.4,11.5-2.4c-1.7,4.8-2.6,8.3-4.1,11.5c-19,41.7-50.8,69.7-93.1,86.5
	c-40.3,16-82.3,23-125.3,25.2c-62.5,3.2-124.1-4.1-185.1-17.4c-8.1-1.8-16.4-3.1-24.6-4.5c-2.4-0.4-4.8-0.1-8,1.1
	c1.8,1.7,3.2,4,5.3,5.2c8.8,4.8,17.5,9.7,26.6,13.7c33.4,14.7,68.7,21.9,104.8,26c44.3,5.1,88.8,5.6,133.3,5.9c5,0,10,0.6,14.9,1.2
	c1.6,0.2,3.2,1.5,4.7,2.3c-1,1.6-1.6,3.8-3,4.7c-11.4,7.1-22.8,14.5-34.6,20.9c-24.5,13.3-51.4,16.8-78.8,17.6
	c-70.8,2.2-137.8-13.9-202.8-40.7c-3-1.2-6.1-2-9.2-3c-0.4,0.5-0.7,0.9-1.1,1.4c1.6,2.1,2.9,4.5,4.8,6.4
	c14.8,14.7,32.7,24.5,52,31.8c35.6,13.5,72.8,20.1,110.3,25.3c6.3,0.9,12.5,1.7,18.7,3c1.7,0.3,3.2,2,4.7,3.1
	c-1.1,1.4-1.8,3.3-3.2,4.1c-20.2,11.8-40.5,23.2-65.1,22.7c-23.3-0.5-46.6-0.4-70-0.9c-18.9-0.5-36.7-6.1-54.3-12.5
	c-27-9.7-53.2-21.3-77.4-36.9c-4.5-2.9-9.6-5.1-14.4-7.5c-0.6,0.4-1.1,0.9-1.7,1.3c1,2.6,1.5,5.4,2.9,7.7
	c9.2,14.2,22.2,24.2,36.6,32.6c21.9,12.8,45.6,21.1,69.8,28.3c4.8,1.4,9.5,3,14.2,4.7c1.5,0.5,2.8,1.5,4.1,2.2
	c0,0.5-0.1,0.9-0.1,1.4c-5.6,1.1-11.2,2.5-16.9,3.3c-31.8,4.5-62.7,0-93.3-9.1c-28.2-8.4-54.4-21.8-81.1-33.7
	c-12.3-5.5-25.1-9.7-37.8-14.2c-3.1-1.1-6.7-1-10.1-1.4c-0.3,0.5-0.6,1-0.8,1.4c1.8,2.2,3.4,4.6,5.4,6.6
	c25.4,24.8,50.9,49.5,76.3,74.2c13.4,13,26.7,26.1,39.9,39.2c1.4,1.4,2.7,3,3.9,4.5c5.6,7.1,5.1,9.3-3.1,13.5
	c-24.1,12.4-48.1,8.1-66.4-13.7c-13.6-16.2-25.2-33.9-37.7-51c-6.8-9.3-13.7-18.5-20.7-27.6c-1.2-1.5-3-2.6-4.6-3.9
	c-0.6,0.3-1.1,0.7-1.7,1c0.8,2.5,1.3,5.1,2.4,7.5c9.7,21.9,19.7,43.7,29.1,65.8c6,13.9,11,28.2,16.6,42.3c5,12.5-4.7,20.5-14.5,20.9
	c-14.7,0.6-30.4-9.8-33.8-24c-5.8-23.9-10.7-48.1-16.2-72.1c-1.5-6.7-3.7-13.3-5.6-19.9c-0.6,0.1-1.3,0.2-1.9,0.2
	c-0.2,2.3-0.7,4.7-0.5,7c1.5,22.9,3.2,45.9,4.5,68.8c0.6,11.5,1,23,0.6,34.5c-0.6,14.5-16.1,26.7-30.6,24.8
	c-1.8-0.2-3.8-0.6-5.2-1.6c-11.3-7.9-21.2-16.8-19.7-32.3c2.2-22.5,4.7-45.1,7.1-67.6c0.9-8.6,1.9-17.2,2.7-25.8
	c0.2-2.1,0-4.2,0-6.3c-0.6-0.2-1.1-0.4-1.7-0.6c-1.2,2.2-2.9,4.3-3.5,6.7c-3.8,15-7.4,30.1-11.2,45.1c-3.2,12.7-6.1,25.6-10,38.1
	c-5.5,17.6-18.2,23.5-37.6,19.6c-10.6-2.2-15.3-9.5-11.8-19.7c4.5-12.9,10-25.4,15.5-37.8c9.3-21.2,19-42.2,28.5-63.3
	c1-2.2,1.7-4.6,1.5-7.6c-1.2,1.3-2.6,2.6-3.7,4c-13.8,19.8-27.6,39.7-41.5,59.4c-4.3,6.1-9,12-13.9,17.7
	c-14.8,17.1-45.5,16.7-60,9.5c-8.6-4.3-9.7-9.4-3.1-16.2c27.8-28.9,55.8-57.7,83.7-86.6c9.2-9.6,18.2-19.5,27.3-29.2
	c2.1-2.3,4-4.8,5.9-7.3C784.7,831.2,784.5,830.6,784.3,830z M808.2,555.5c-10.6,0-15.2,6-11.1,13.6c2,3.6,7.2,5.3,13.4,4.3
	c7.9-1.3,10.5-6,7.4-13.2C815.9,555.6,811.8,555.7,808.2,555.5z"/>
<path d="M761.9,472.9c-19.8-1.1-39.8,0.2-59.1-5.3c-4.7-1.3-8.9-4.4-13-7.2c-1.2-0.8-1.6-3.4-1.6-5.2c0.3-38.8,0.8-77.6,1.2-116.5
	c0.6-50.2,1-100.3,1.9-150.5c1-53.5,2.4-106.9,3.7-160.4c0.1-4,0.5-8,0.8-12c0.6-8.1,2.9-11,11.3-11.5c11.5-0.7,23-0.7,34.5-0.7
	c6.1,0.1,12.3,0.7,18.4,1.6c7,1.1,8.1,2.2,8.8,9.3c0.9,9.5,1.6,18.9,1.8,28.4c0.6,38.7,0.9,77.3,1.5,116c0.1,6.6,1,13.3,1.5,19.9
	c0.3,4.5,2.6,6.9,7.2,7.3c20.9,1.6,41.8,3.7,62.8,4.8c15.9,0.8,32,0.8,47.9,0.1c10.6-0.4,14.4-4.6,15.3-15.4
	c1.1-12.6,1.7-25.3,2.1-37.9c1.2-34.8,2-69.6,3.2-104.4c0.2-6.5,1.4-12.9,2.2-19.3c0.5-4.3,3-7,7.3-7.8c22.1-4.1,44-4.9,65.4,3.4
	c3.3,1.3,3,3.4,2.9,5.9c-0.4,39.8-0.7,79.7-1.3,119.5c-1.3,96.5-2.7,192.9-4.1,289.4c-0.2,13.8-0.9,27.6-1.2,41.5
	c-0.1,3.8-1.7,5.9-5.2,6.9c-20.2,5.8-40.8,7.8-61.8,6.3c-5.7-0.4-7.1-3.9-7.3-8.7c-0.7-17.1-1.6-34.3-1.9-51.4
	c-0.5-31.2-0.4-62.3-0.8-93.5c-0.1-10.6-0.9-21.3-1.8-31.9c-0.6-7.6-1.8-9.2-9.5-9.5c-25-1-49.9-1.8-74.9-2
	c-13.6-0.1-27.3,0.9-40.9,1.9c-7.7,0.6-8.9,1.8-9.6,9.5c-1.1,12.6-1.9,25.2-2.2,37.9c-0.8,31.3-1,62.6-1.9,94
	c-0.4,14.8-2.1,29.6-3.2,44.4C762.6,470.6,762.2,471.5,761.9,472.9z"/>
<path d="M1064.3,460.1c0-1.9,0-3.5,0-5.1c0.3-127.8,0.5-255.6,0.9-383.4c0.1-17.8,1.1-35.6,1.9-53.4c0.3-7.2,1-8.2,8.2-8.5
	c21.8-1,43.6-2.2,65.4-2.2c60.8,0,121.6,0.4,182.4,0.8c5.6,0,11.3,1,16.9,1.6c5,0.5,8,3.1,8.1,8.4c0.5,18,1.6,36,1.2,53.9
	c-1.7,83.3-3.7,166.6-5.9,249.8c-0.4,13.9-2.2,27.9-3.4,41.8c-0.5,5-3.1,8.6-7.5,11.2c-17.9,10.5-36.6,19.2-56.4,25.3
	c-1.1,0.3-2.3,0.6-3.4,0.8c-0.6,0.1-1.3-0.1-2.6-0.2c-0.3-4.1-0.9-8.2-1-12.3c-0.2-64-0.3-128-0.6-191.9c-0.1-30-0.4-60-0.7-90
	c0-2.8-0.4-5.6-0.8-8.5c-1.3-9.8-3.8-12.6-13.7-13c-11.1-0.5-22.3-0.4-33.5,0.2c-17.5,0.9-34.9,2.3-52.3,3.6
	c-2.3,0.2-4.6,0.6-6.9,1.1c-9.6,2-13.6,5.6-14.2,15.4c-1.3,21.8-2.6,43.6-2.8,65.4c-0.7,72.1-0.9,144.3-1.6,216.4
	c-0.1,13.6-0.9,27.3-2.6,40.9c-2,16.4-6.8,21.1-22.9,24.5c-13.2,2.8-26.4,5.3-39.7,7.5C1073.2,460.7,1068.9,460.1,1064.3,460.1z"/>
</svg>
