<?xml version="1.0" encoding="utf-8"?>
<!-- Generator: Adobe Illustrator 18.0.0, SVG Export Plug-In . SVG Version: 6.00 Build 0)  -->
<!DOCTYPE svg PUBLIC "-//W3C//DTD SVG 1.1//EN" "http://www.w3.org/Graphics/SVG/1.1/DTD/svg11.dtd">
<svg version="1.1" id="Layer_1" xmlns="http://www.w3.org/2000/svg" xmlns:xlink="http://www.w3.org/1999/xlink" x="0px" y="0px"
	 viewBox="0 0 4504.8 518.9" enable-background="new 0 0 4504.8 518.9" xml:space="preserve">
<g>
	<path fill="#010101" d="M643.3,364.9l24-30.7c20.7,24,55.2,46.1,100.4,46.1c57.1,0,75.4-30.7,75.4-55.7
		c0-82.6-189.7-36.5-189.7-150.8c0-52.8,47.1-89.3,110.5-89.3c48.5,0,86.4,16.8,113.3,45.1l-24,29.3c-24-26.9-57.6-38.4-92.7-38.4
		c-37.9,0-65.8,20.7-65.8,50.9c0,72,189.7,30.7,189.7,150.3c0,46.1-31.7,94.1-118.1,94.1C711,415.8,669.7,394.7,643.3,364.9z"/>
	<path fill="#010101" d="M930.9,250.1c0-94.6,64.4-165.7,159-165.7s159.4,71.1,159.4,165.7s-64.8,165.7-159.4,165.7
		S930.9,344.7,930.9,250.1z M1208,250.1c0-74.9-46.6-130.1-118.1-130.1c-72,0-117.7,55.2-117.7,130.1c0,74.4,45.6,130.1,117.7,130.1
		C1161.4,380.3,1208,324.6,1208,250.1z"/>
	<path fill="#010101" d="M1298.3,250.1c0-98.4,72.5-165.7,164.7-165.7c56.7,0,96,26.9,121.5,63.4l-33.1,18.7
		c-18.2-27.4-51.9-46.6-88.4-46.6c-70.1,0-123.4,53.3-123.4,130.1c0,75.9,53.3,130.1,123.4,130.1c36.5,0,70.1-19.7,88.4-46.6
		l33.6,18.2c-26.9,37-65.3,63.9-122,63.9C1370.8,415.8,1298.3,348.6,1298.3,250.1z"/>
	<path fill="#010101" d="M1635.9,410V89.7h39.9V410H1635.9z"/>
	<path fill="#010101" d="M1979.3,410l-28.3-71.6h-159.4l-28.3,71.6h-45.6l129.2-320.3h49.5L2024.9,410H1979.3z M1871.2,130.5
		l-67.7,172.9h135.9L1871.2,130.5z"/>
	<path fill="#010101" d="M2061.4,410V89.7h39.9v284.8h148.9V410H2061.4z"/>
	<path fill="#010101" d="M2656.4,410l-28.3-71.6h-159.4l-28.3,71.6h-45.6l129.2-320.3h49.5L2702,410H2656.4z M2548.3,130.5
		l-67.7,172.9h135.9L2548.3,130.5z"/>
	<path fill="#010101" d="M2743.8,410V89.7h128.7c64.4,0,100.4,44.2,100.4,96.5c0,52.3-36.5,96.5-100.4,96.5h-88.8V410H2743.8z
		 M2931.6,186.3c0-36-25.9-61-63.9-61h-84v122h84C2905.6,247.2,2931.6,222.3,2931.6,186.3z"/>
	<path fill="#010101" d="M3025.7,410V89.7h128.7c64.4,0,100.4,44.2,100.4,96.5c0,52.3-36.5,96.5-100.4,96.5h-88.8V410H3025.7z
		 M3213.5,186.3c0-36-25.9-61-63.9-61h-84v122h84C3187.5,247.2,3213.5,222.3,3213.5,186.3z"/>
	<path fill="#010101" d="M3288.4,364.9l24-30.7c20.7,24,55.2,46.1,100.4,46.1c57.1,0,75.4-30.7,75.4-55.7
		c0-82.6-189.7-36.5-189.7-150.8c0-52.8,47.1-89.3,110.5-89.3c48.5,0,86.4,16.8,113.3,45.1l-24,29.3c-24-26.9-57.6-38.4-92.7-38.4
		c-37.9,0-65.8,20.7-65.8,50.9c0,72,189.7,30.7,189.7,150.3c0,46.1-31.7,94.1-118.1,94.1C3356.1,415.8,3314.8,394.7,3288.4,364.9z"
		/>
	<path fill="#010101" d="M3708.1,410V89.7h39.9v284.8h148.9V410H3708.1z"/>
	<path fill="#010101" d="M4178.7,410l-28.3-71.6h-159.4l-28.3,71.6H3917l129.2-320.3h49.5L4224.3,410H4178.7z M4070.7,130.5
		l-67.7,172.9h135.9L4070.7,130.5z"/>
	<path fill="#010101" d="M4266.1,410V89.7h142.6c55.7,0,89.8,33.6,89.8,81.6c0,40.3-26.9,67.2-56.2,73.5
		c34.1,5.3,62.4,40.3,62.4,78.8c0,51.4-34.1,86.4-92.7,86.4H4266.1z M4457.2,177.1c0-28.8-19.2-51.9-55.2-51.9h-96v103.3h96
		C4438,228.5,4457.2,206.4,4457.2,177.1z M4463.5,319.3c0-29.3-20.2-55.2-59.1-55.2H4306v110.5h98.4
		C4441.4,374.5,4463.5,353.4,4463.5,319.3z"/>
</g>
<g>
	<circle fill="#FFFFFF" cx="259.5" cy="259.2" r="259.2"/>
	<g>
		<path fill="#309F47" d="M177.4,58c4.4,86.9,52.6,112.3,89.8,110.4c62.8-3.2,73.2-76.1,89.6-149.3c-30.1-12.2-63-19-97.5-19
			c-27.6,0-54.2,4.3-79.2,12.3C177.7,26.8,176.6,42,177.4,58z"/>
		<path fill="#309F47" d="M460.6,337.4c-79.8-40.6-127.2-10.9-144.7,23.2c-24.7,48.1,13.1,88.5,59.3,131
			c54.7-27.4,98.4-73.5,122.6-130C486.8,352.7,474.5,344.5,460.6,337.4z"/>
		<g>
			<path fill="#309F47" d="M114.2,276.9C89.8,239.2,48,242.4,0,255.5c0,1.3,0,2.7,0,4c0,59,19.7,113.3,52.8,156.9
				c3.6-2,7.1-4.2,10.6-6.4C136.5,362.7,134.4,308.3,114.2,276.9z"/>
			<path fill="#309F47" d="M415.7,52.5c-17.6,80.9-37.9,173.3-140.1,178.5c-70.9,3.6-145.6-40.9-152.3-172.4
				c-0.3-6.7-0.4-13.2-0.4-19.6C69.2,72.2,28.6,124.5,10.5,186.3c57.7-12.1,114.4-8.7,153.7,52.1C202.7,298,201.6,385,91,456.6
				c-0.1,0-0.1,0.1-0.2,0.1c45.3,38.8,104.2,62.2,168.5,62.2c15.1,0,29.9-1.3,44.3-3.8c-48.5-48.7-85.8-105.1-47.8-179.2
				c33.3-64.8,111.4-108.3,232.1-46.9c9.5,4.8,18.4,9.9,26.9,15.3c2.5-14.6,3.9-29.6,3.9-44.9C518.7,174.9,478.3,99.9,415.7,52.5z"
				/>
		</g>
	</g>
</g>
</svg>
