<?xml version="1.0" encoding="utf-8"?>
<!-- Generator: Adobe Illustrator 18.0.0, SVG Export Plug-In . SVG Version: 6.00 Build 0)  -->
<!DOCTYPE svg PUBLIC "-//W3C//DTD SVG 1.1//EN" "http://www.w3.org/Graphics/SVG/1.1/DTD/svg11.dtd">
<svg version="1.1" id="Logo_9_" xmlns="http://www.w3.org/2000/svg" xmlns:xlink="http://www.w3.org/1999/xlink" x="0px" y="0px"
	 viewBox="0 0 616.7 100" enable-background="new 0 0 616.7 100" xml:space="preserve">
<g id="Berkeley_9_">
	<linearGradient id="B_1_" gradientUnits="userSpaceOnUse" x1="357.3106" y1="15.2544" x2="357.3106" y2="84.7461">
		<stop  offset="0" style="stop-color:#426C80"/>
		<stop  offset="1" style="stop-color:#426C80"/>
	</linearGradient>
	<path id="B_9_" fill="url(#B_1_)" d="M361.6,84.7h-8.5c-6.7,0-10.5-5.6-10.5-11.7V27c0-6.3,4-11.7,10.6-11.7h8.3
		c6.6,0,10.5,5.5,10.5,11.7v20.2c0,4.2-1.4,8-3.8,10.8c3.7,3.8,3.8,9.2,3.8,15C372.1,79.2,368.2,84.7,361.6,84.7 M363.2,27
		c0-0.9-0.1-2.9-1.4-2.9H353c-1.5,0-1.6,1.9-1.6,2.9v26.7h6h0.1c3.8,0.1,5.8-2.9,5.8-6.5V27z M357.6,62.5L357.6,62.5h-0.2h-6V73
		c0,0.9,0.1,2.9,1.5,2.9h8.7c2.4,0,1.6-5.8,1.6-6.9C363.2,65.5,361.3,62.4,357.6,62.5"/>
	<linearGradient id="E_1_" gradientUnits="userSpaceOnUse" x1="394.0781" y1="15.2544" x2="394.0781" y2="84.7441">
		<stop  offset="0" style="stop-color:#426C80"/>
		<stop  offset="1" style="stop-color:#426C80"/>
	</linearGradient>
	<path id="E_14_" fill="url(#E_1_)" d="M402.3,24.1h-10.6c-1.4,0-1.5,2-1.5,2.9v26.7h12.2c2.6,0,4.5,1.8,4.5,4.5
		c0,2.5-1.8,4.4-4.5,4.4h-12.2V73c0,1,0.1,2.9,1.6,2.9h10.5c2.6,0,4.5,1.8,4.5,4.5c0,2.5-1.8,4.4-4.5,4.4h-10.4
		c-6.6,0-10.5-5.6-10.5-11.7V27c0-6.2,4-11.7,10.6-11.7h10.3c2.6,0,4.5,1.8,4.5,4.4C406.8,22.1,405,24.1,402.3,24.1"/>
	<linearGradient id="R_1_" gradientUnits="userSpaceOnUse" x1="428.8228" y1="15.2544" x2="428.8228" y2="84.7461">
		<stop  offset="0" style="stop-color:#426C80"/>
		<stop  offset="1" style="stop-color:#426C80"/>
	</linearGradient>
	<path id="R_9_" fill="url(#R_1_)" d="M443.6,47.2c0,4.2-1.4,8-4.1,10.8c2.6,2.7,4.1,6.7,4.1,11v11.4c0,2.5-1.8,4.4-4.4,4.4
		c-2.5,0-4.5-1.8-4.5-4.4V69c0-3.7-1.7-6.4-5.5-6.6h-0.4h-6v17.9c0,2.5-1.8,4.4-4.5,4.4c-2.5,0-4.4-1.8-4.4-4.4V27
		c0-6.3,3.9-11.7,10.6-11.7h8.3c6.6,0,10.5,5.5,10.5,11.7V47.2z M433.3,24.1h-8.8c-1.5,0-1.6,1.9-1.6,2.9v26.7h6h0.2
		c3.8,0.1,5.7-2.6,5.7-6.5V27C434.8,26.1,434.6,24.1,433.3,24.1 M428.7,62.5h0.2h0.1H428.7z"/>
	<linearGradient id="K_1_" gradientUnits="userSpaceOnUse" x1="467.6152" y1="15.2544" x2="467.6152" y2="84.7461">
		<stop  offset="0" style="stop-color:#426C80"/>
		<stop  offset="1" style="stop-color:#426C80"/>
	</linearGradient>
	<path id="K_4_" fill="url(#K_1_)" d="M478,84.7c-10.5,0,2.2-22.1-10.3-22.3h-0.2h-5.8v17.9c0,2.5-1.8,4.4-4.5,4.4
		c-2.5,0-4.4-1.8-4.4-4.4V19.6c0-2.5,1.8-4.4,4.4-4.4c2.6,0,4.5,1.8,4.5,4.4v34h6.5c3.6,0,5.4-3.2,5.4-6.5V19.6
		c0-2.5,1.9-4.4,4.5-4.4c2.5,0,4.4,1.8,4.4,4.4v27.6c0,3.9-1.3,7.9-3.9,10.8c2.8,2.9,3.9,7,3.9,11v11.4
		C482.4,82.9,480.5,84.7,478,84.7 M467.7,53.7h0.3H467.7z M467.7,62.5h0.6H467.7z"/>
	<linearGradient id="E_2_" gradientUnits="userSpaceOnUse" x1="504.3862" y1="15.2544" x2="504.3862" y2="84.7441">
		<stop  offset="0" style="stop-color:#426C80"/>
		<stop  offset="1" style="stop-color:#426C80"/>
	</linearGradient>
	<path id="E_13_" fill="url(#E_2_)" d="M512.6,24.1H502c-1.4,0-1.5,2-1.5,2.9v26.7h12.2c2.6,0,4.5,1.8,4.5,4.5
		c0,2.5-1.8,4.4-4.5,4.4h-12.2V73c0,1,0.1,2.9,1.6,2.9h10.5c2.6,0,4.5,1.8,4.5,4.5c0,2.5-1.8,4.4-4.5,4.4h-10.4
		c-6.6,0-10.5-5.6-10.5-11.7V27c0-6.2,4.1-11.7,10.6-11.7h10.3c2.6,0,4.5,1.8,4.5,4.4C517.1,22.1,515.3,24.1,512.6,24.1"/>
	<linearGradient id="L_1_" gradientUnits="userSpaceOnUse" x1="537.1035" y1="15.2534" x2="537.1035" y2="84.7441">
		<stop  offset="0" style="stop-color:#426C80"/>
		<stop  offset="1" style="stop-color:#426C80"/>
	</linearGradient>
	<path id="L_4_" fill="url(#L_1_)" d="M545.4,84.7h-10.4c-6.6,0-10.5-5.6-10.5-11.7V19.6c0-2.5,1.8-4.4,4.4-4.4
		c2.6,0,4.5,1.8,4.5,4.4V73c0,1,0.1,2.9,1.6,2.9h10.5c2.6,0,4.5,1.8,4.5,4.5C549.8,82.9,548,84.7,545.4,84.7"/>
	<linearGradient id="E_3_" gradientUnits="userSpaceOnUse" x1="567.1875" y1="15.2544" x2="567.1875" y2="84.7441">
		<stop  offset="0" style="stop-color:#426C80"/>
		<stop  offset="1" style="stop-color:#426C80"/>
	</linearGradient>
	<path id="E_12_" fill="url(#E_3_)" d="M575.4,24.1h-10.6c-1.4,0-1.5,2-1.5,2.9v26.7h12.2c2.6,0,4.5,1.8,4.5,4.5
		c0,2.5-1.8,4.4-4.5,4.4h-12.2V73c0,1,0.1,2.9,1.6,2.9h10.5c2.6,0,4.5,1.8,4.5,4.5c0,2.5-1.8,4.4-4.5,4.4H565
		c-6.6,0-10.5-5.6-10.5-11.7V27c0-6.2,4.1-11.7,10.6-11.7h10.3c2.6,0,4.5,1.8,4.5,4.4C579.9,22.1,578.1,24.1,575.4,24.1"/>
	<linearGradient id="Y_1_" gradientUnits="userSpaceOnUse" x1="601.9307" y1="15.2544" x2="601.9307" y2="84.7461">
		<stop  offset="0" style="stop-color:#426C80"/>
		<stop  offset="1" style="stop-color:#426C80"/>
	</linearGradient>
	<path id="Y_4_" fill="url(#Y_1_)" d="M606.3,61.9v18.5c0,2.5-1.8,4.4-4.4,4.4c-2.6,0-4.5-1.8-4.5-4.4V61.9
		c-6.4-1.8-10.3-7.6-10.3-14.7V19.6c0-2.5,1.8-4.4,4.4-4.4c2.6,0,4.5,1.8,4.5,4.4v27.6c0,3.7,2,6.5,6,6.5c3.9,0,5.9-2.7,5.9-6.5
		V19.6c0-2.5,1.9-4.4,4.5-4.4c2.5,0,4.4,1.8,4.4,4.4v27.6C616.7,54.2,612.7,60,606.3,61.9"/>
</g>
<path id="_x40__9_" fill="#D7BE28" d="M316,100h-23.2c-3.6,0-35.4-0.6-35.4-21V20.8C257.4,4.4,278.5,0,290.9,0
	c11.4,0,37.8,2,37.8,20.8v43.4c0,7.8-4.2,15.7-13.7,15.7c-9.4,0-13.5-7.9-13.5-15.7v-0.9v-2.1h-2.1h-12.9h-2.1l0,2.1l0.1,12
	c0,2.7-1.9,4.5-4.6,4.5c-2.7,0-4.4-1.8-4.4-4.6V33.7c0-9.4,9.1-13.7,17.5-13.7c8.4,0,17.5,4.3,17.5,13.7v31c0,5.8,3.5,6.2,4.5,6.2
	c2.9,0,4.7-2.4,4.7-6.2V20.8C319.8,9.1,293.3,9,293.1,9c-0.3,0-26.7,0.1-26.7,11.8V79c0,11.8,26.5,12,26.7,12H316
	c2.7,0,4.4,1.8,4.4,4.6C320.4,98.2,318.7,100,316,100 M293.5,29.1c-3.9,0-6.6,0.9-8.3,2.6l-0.6,0.6l0,1.2c0,1.7-0.1,8.8-0.1,16.7
	v2.1h2.1h12.9h2.1v-2.1V33.7C301.6,30.3,297.2,29.1,293.5,29.1"/>
<g id="Startup_10_">
	<linearGradient id="S_1_" gradientUnits="userSpaceOnUse" x1="14.7417" y1="15.2529" x2="14.7417" y2="84.7441">
		<stop  offset="0" style="stop-color:#426C80"/>
		<stop  offset="1" style="stop-color:#426C80"/>
	</linearGradient>
	<path id="S_9_" fill="url(#S_1_)" d="M14.8,84.7C6.2,84.7,0,78.4,0,69.3C0,66.4,2.2,65,4.4,65c2.2,0,4.5,1.4,4.5,4.4
		c0,6.5,5.2,6.6,5.9,6.6h0.1c0.7,0,5.9-0.1,5.9-6.6V56.7c0-1.1-0.1-2.6-1.4-2.9h-8.7C4.1,53.7,0,48.4,0,42V30.6
		c0-9,6.2-15.3,14.8-15.3c8.6,0,14.7,6.3,14.7,15.3c0,2.9-2.1,4.5-4.4,4.5c-2.2,0-4.5-1.5-4.5-4.5c0-4.2-2-6.5-5.9-6.5h-1
		c-3.4,0.6-5,2.7-5,6.5V42c0,1.4,0.1,2.6,1.6,2.9h8.5c6.6,0,10.5,5.6,10.5,11.7v12.7C29.5,78.4,23.4,84.7,14.8,84.7"/>
	<linearGradient id="T_1_" gradientUnits="userSpaceOnUse" x1="48.876" y1="15.2529" x2="48.876" y2="84.7441">
		<stop  offset="0" style="stop-color:#426C80"/>
		<stop  offset="1" style="stop-color:#426C80"/>
	</linearGradient>
	<path id="T_14_" fill="url(#T_1_)" d="M59.3,24.1h-6v56.3c0,2.5-1.8,4.4-4.4,4.4c-2.6,0-4.5-1.8-4.5-4.4V24.1h-6
		c-2.5,0-4.4-1.8-4.4-4.5c0-2.5,1.8-4.4,4.4-4.4h20.8c2.5,0,4.4,1.8,4.4,4.4C63.6,22.2,61.8,24.1,59.3,24.1"/>
	<linearGradient id="A_1_" gradientUnits="userSpaceOnUse" x1="83.0132" y1="15.2539" x2="83.0132" y2="84.7471">
		<stop  offset="0" style="stop-color:#426C80"/>
		<stop  offset="1" style="stop-color:#426C80"/>
	</linearGradient>
	<path id="A_4_" fill="url(#A_1_)" d="M93.4,84.7c-2.5,0-4.5-1.8-4.5-4.4V62.5H77.1v17.9c0,2.5-1.8,4.4-4.5,4.4
		c-2.5,0-4.4-1.8-4.4-4.4V30.6c0-8.7,5.9-15.3,14.8-15.3c8.8,0,14.7,6.6,14.7,15.3v49.8C97.8,82.9,95.9,84.7,93.4,84.7 M88.9,30.6
		c0-3.8-1.8-6.5-5.9-6.5c-4.2,0-6,2.6-6,6.5v23.1h11.8V30.6z"/>
	<linearGradient id="R_2_" gradientUnits="userSpaceOnUse" x1="121.8057" y1="15.2539" x2="121.8057" y2="84.7471">
		<stop  offset="0" style="stop-color:#426C80"/>
		<stop  offset="1" style="stop-color:#426C80"/>
	</linearGradient>
	<path id="R_8_" fill="url(#R_2_)" d="M136.5,47.2c0,4.2-1.4,8-4.1,10.8c2.6,2.7,4.1,6.7,4.1,11v11.4c0,2.5-1.8,4.4-4.4,4.4
		c-2.5,0-4.5-1.8-4.5-4.4V69c0-3.7-1.7-6.4-5.5-6.6h-0.4h-6v17.9c0,2.5-1.8,4.4-4.5,4.4c-2.5,0-4.4-1.8-4.4-4.4V27
		c0-6.3,4-11.7,10.6-11.7h8.3c6.6,0,10.5,5.5,10.5,11.7V47.2z M126.3,24.1h-8.8c-1.5,0-1.6,1.9-1.6,2.9v26.7h6h0.2
		c3.9,0.1,5.7-2.6,5.7-6.5V27C127.7,26.1,127.6,24.1,126.3,24.1 M121.7,62.5h0.2h0.1H121.7z"/>
	<linearGradient id="T_2_" gradientUnits="userSpaceOnUse" x1="155.9429" y1="15.2529" x2="155.9429" y2="84.7441">
		<stop  offset="0" style="stop-color:#426C80"/>
		<stop  offset="1" style="stop-color:#426C80"/>
	</linearGradient>
	<path id="T_13_" fill="url(#T_2_)" d="M166.3,24.1h-6v56.3c0,2.5-1.8,4.4-4.4,4.4c-2.6,0-4.5-1.8-4.5-4.4V24.1h-6
		c-2.5,0-4.4-1.8-4.4-4.5c0-2.5,1.8-4.4,4.4-4.4h20.8c2.5,0,4.4,1.8,4.4,4.4C170.7,22.2,168.9,24.1,166.3,24.1"/>
	<linearGradient id="U_1_" gradientUnits="userSpaceOnUse" x1="190.0762" y1="15.2529" x2="190.0762" y2="84.7441">
		<stop  offset="0" style="stop-color:#426C80"/>
		<stop  offset="1" style="stop-color:#426C80"/>
	</linearGradient>
	<path id="U_4_" fill="url(#U_1_)" d="M190.1,84.7c-8.9,0-14.8-6.7-14.8-15.4V19.6c0-2.5,1.8-4.4,4.4-4.4c2.6,0,4.5,1.8,4.5,4.4
		v49.7c0,4,1.8,6.6,6,6.6c4.1,0,5.9-2.6,5.9-6.6V19.6c0-2.5,1.9-4.4,4.5-4.4c2.5,0,4.4,1.8,4.4,4.4v49.7
		C204.8,78.1,198.9,84.7,190.1,84.7"/>
	<linearGradient id="P_1_" gradientUnits="userSpaceOnUse" x1="228.8731" y1="15.2549" x2="228.8731" y2="84.7441">
		<stop  offset="0" style="stop-color:#426C80"/>
		<stop  offset="1" style="stop-color:#426C80"/>
	</linearGradient>
	<path id="P_4_" fill="url(#P_1_)" d="M233.2,62.5h-10.2v17.9c0,2.5-1.8,4.3-4.5,4.3c-2.5,0-4.4-1.8-4.4-4.3V27
		c0-6.2,4.1-11.7,10.6-11.7h8.3c6.6,0,10.5,5.6,10.5,11.7v23.7C243.6,56.9,239.8,62.5,233.2,62.5 M234.8,27c0-1-0.1-2.9-1.6-2.9
		h-8.7c-1.3,0-1.5,2-1.5,2.9v26.6h10.4c1.3,0,1.4-2,1.4-2.9V27z"/>
</g>
</svg>
