<?xml version="1.0" encoding="utf-8"?>
<!-- Generator: Adobe Illustrator 18.0.0, SVG Export Plug-In . SVG Version: 6.00 Build 0)  -->
<!DOCTYPE svg PUBLIC "-//W3C//DTD SVG 1.1//EN" "http://www.w3.org/Graphics/SVG/1.1/DTD/svg11.dtd">
<svg version="1.1" id="Layer_1" xmlns="http://www.w3.org/2000/svg" xmlns:xlink="http://www.w3.org/1999/xlink" x="0px" y="0px"
	 viewBox="0 0 272.2 248.4" enable-background="new 0 0 272.2 248.4" xml:space="preserve">
<g>
	<path fill="#009DDC" d="M272.2,215.7c0-1.5-1.1-2.5-2.3-3.2c-1.3-0.8-2.9-1.4-4.6-1.9c-3.2-0.9-7.6-1.7-13.1-1.7h-8.8
		c-5.8,0-11.6,1.1-13.7,1.8c-1.4,0.4-2.9,1-4.1,1.7c-1.2,0.7-2.3,1.6-2.3,3v10l6.6,3.2l-6.6,3.2v9.6c0,1.3,0.9,2.3,2,3.1
		c1.1,0.8,2.5,1.3,3.9,1.8c2.9,1,7.7,2.1,13.5,2.1h9.3c5.7,0,10.6-0.8,13.9-1.8c2-0.6,3.5-1.1,4.6-1.9c1.1-0.7,1.8-1.7,1.8-2.9v-10
		l-6.8-3.2l6.8-3.2V215.7z M254.7,243.3h-13.9v-12.2h13.9V243.3z M254.7,226.1h-13.9v-12.2h13.9V226.1z"/>
	<path fill="#010101" d="M4.3,216.3c-2.3,0.7-4.1,1.4-4.3,3v5.5c0,1.3,1.2,2.5,3.8,3.3c2.8,0.9,6.8,1.3,9.8,1.3h6.5v7.8h-8.9v-2.4H0
		v5.7h18.4c4,0,6.9-0.4,9.5-1.3c1.1-0.4,1.9-0.7,2.5-1.2c0.6-0.4,1-1,1-1.7v-5.7c-0.1-1.5-1.5-2.5-4.2-3.2c-2.6-0.8-5.7-1.1-8.6-1.1
		h-7.3v-7.8h8.9v2.4h11.2v-5.7h-17C10.2,215.1,7,215.4,4.3,216.3z"/>
	<polygon fill="#010101" points="39.1,218.4 49.2,218.4 49.2,240.4 60.4,240.4 60.4,218.4 70.5,218.4 70.5,215.1 39.1,215.1 	"/>
	<path fill="#010101" d="M106.9,217.4c-0.8-0.5-1.8-0.9-2.9-1.2c-2.1-0.6-4.9-1.1-8.5-1.1H90c-3.7,0-7.5,0.7-8.8,1.2
		c-0.9,0.2-1.8,0.6-2.6,1.1c-0.8,0.5-1.5,1-1.5,2V236c0.1,1.7,2.1,2.5,3.8,3.1c1.8,0.7,4.9,1.3,8.7,1.3h5.9c3.8,0,6.9-0.5,9-1.2
		c1.2-0.4,2.2-0.7,2.9-1.2c0.7-0.4,1.2-1.1,1.2-1.8v-16.7C108.4,218.5,107.7,217.9,106.9,217.4z M97.2,237.2h-8.9v-18.8h8.9V237.2z"
		/>
	<path fill="#010101" d="M150.8,219.5c0-0.9-0.7-1.6-1.5-2.1c-0.8-0.5-1.9-0.9-3-1.2c-2.1-0.6-4.9-1.1-8.4-1.1h-18.6v25.3h11.3v-11
		h8.8v11.4c0,0.9,0,4.6,3,5.8c1.5,0.5,4.3,1.2,7.7,1.5l0.6,0v-18.3l-4.4-2l4.4-2V219.5z M139.6,226.1h-8.9v-7.8h8.9V226.1z"/>
	<path fill="#010101" d="M210.9,217.5c-0.7-0.5-1.7-0.8-2.9-1.2c-2.1-0.7-5.2-1.1-8.9-1.1h-26.1c-3.7,0-6.8,0.7-8.7,1.3
		c-0.9,0.3-1.8,0.7-2.5,1.2c-0.7,0.5-1.3,1.1-1.3,1.9v20.9h11.2v-22.1h8.8v22.1H192v-22.1h8.9v22.1h11.2v-21.1
		C212.1,218.5,211.6,217.9,210.9,217.5z"/>
	<path fill="#009DDC" d="M191.5,108.3c-13.2-15-32.5-19.7-32.5-19.7c-1.6-0.3-2.9-0.6-2.9-0.6c-1-1.5-3.5-2.9-5.6-3.8
		c15.7-6.1,27-22.1,27-40.8c0-23-16.9-41.8-38.2-43.3L137,9.8l19.4,0.1l-23.3,38.7l5.6-27.1l-20,0l5.9-19.8c-16.8,5.4-29,22-29,41.5
		c0,18.6,11,34.5,26.5,40.7c-0.1,0-0.2,0-0.2,0c-2.2,0.8-4.8,2.4-5.9,3.9c0,0-1.3,0.3-2.9,0.6c0,0-19.2,4.7-32.5,19.7
		c0,0-16.9,16.9-5.7,30.5c0,0,4.8,4.3,8.9-0.9c0,0,0.4-0.6,0-1.5l-1.2-3.8c0,0-0.9-3.4,3.6-5.5c0,0,3.5-1.5,4.9,2.4c0,0,0,6,2.6,6.1
		c2.5,0.1,4.1-2.4,4.1-2.4s2.2-4,1.5-13.5c0,0-0.9-4.1,4.4-8.5l3.7-2.9c0,0,1.4-1,1.2,0.6c0,0-2.9,13.6-3.5,21.1
		c0,0-1.1,8.3,1.8,10.2c0,0,0.7,0.5-0.3,1.1c0,0-6.2,5.1-12.2,17.8c0,0-5.8,11.1-6.2,27.2c0,0-1.1,7.1,19.8,7.8c0,0,17,1.3,19.4-8.5
		c0,0,0-0.9-0.3-2.1c-0.3-1.2-2.3-10.9,0.1-21.6l1.9-8.3c0,0,0-1.8,2.5-2.6c0.9-0.3,2.1-0.3,3.9-0.2c0,0-0.1,0.1,0,0l3.9,0.1
		c3.5-0.1,3.6,2.7,3.6,2.7l1.9,8.3c2.4,10.7,0.4,20.4,0.1,21.6c-0.3,1.2-0.3,2.1-0.3,2.1c2.5,9.8,19.4,8.5,19.4,8.5
		c20.9-0.7,19.8-7.8,19.8-7.8c-0.4-16.1-6.2-27.2-6.2-27.2c-6-12.7-12.2-17.8-12.2-17.8c-0.9-0.7-0.3-1.1-0.3-1.1
		c2.9-1.9,1.8-10.2,1.8-10.2c-0.6-7.5-3.5-21.1-3.5-21.1c-0.1-1.6,1.2-0.6,1.2-0.6l3.7,2.9c5.3,4.4,4.4,8.5,4.4,8.5
		c-0.7,9.5,1.5,13.5,1.5,13.5s1.6,2.5,4.1,2.4c2.5-0.1,2.6-6.1,2.6-6.1c1.3-3.8,4.9-2.4,4.9-2.4c4.5,2.1,3.6,5.5,3.6,5.5l-1.2,3.8
		c-0.4,0.9,0,1.5,0,1.5c4,5.3,8.9,0.9,8.9,0.9C208.4,125.2,191.5,108.3,191.5,108.3z M107.3,54.2c0-9.5,3.9-7.6,10.1-4.1
		c-0.3,0.6-0.5,1.3-0.5,2v4.7c0,2.6,2.2,4.8,4.9,4.8c2.7,0,4.9-2.1,4.9-4.8v-1.8c3,1.2,6.2,2.1,9.6,2.1c3.3,0,6.4-0.8,9.4-2v1.7
		c0,2.6,2.2,4.8,4.9,4.8s4.9-2.1,4.9-4.8V52c0-0.6-0.1-1.3-0.4-1.8c6.5-3.7,10.7-5.7,10.7,3.9c0,17.2-13.1,25.2-29.3,25.2
		C120.4,79.4,107.3,71.3,107.3,54.2z"/>
</g>
</svg>
