<?xml version="1.0" encoding="utf-8"?>
<!-- Generator: Adobe Illustrator 18.0.0, SVG Export Plug-In . SVG Version: 6.00 Build 0)  -->
<!DOCTYPE svg PUBLIC "-//W3C//DTD SVG 1.1//EN" "http://www.w3.org/Graphics/SVG/1.1/DTD/svg11.dtd">
<svg version="1.1" id="Layer_1" xmlns="http://www.w3.org/2000/svg" xmlns:xlink="http://www.w3.org/1999/xlink" x="0px" y="0px"
	 viewBox="72.1 79.9 1042.9 250.9" enable-background="new 72.1 79.9 1042.9 250.9" xml:space="preserve">
<g id="_x23_3ca9e1ff">
</g>
<g id="_x23_ffffffff">
	<path fill="#3CA9E1" d="M222,80.8c33.9-2.6,68.3,0.8,101.2,9.2c-4.4,21.9-8.8,43.7-13.3,65.6c-13.3-2.4-26.6-4.3-40.1-5
		c-1.3,27.4-2.7,54.9-3.9,82.3c-3.5-4.9-8.8-7.8-13.8-10.8c1-28.7,2.4-57.5,3.6-86.2c14.4,0,28.7,1.3,42.9,3.2
		c2.5-12.8,5.2-25.6,7.7-38.4c-23.3-4.9-47.1-7-70.9-6.6c-2.5,11.9-9.6,22.7-19.8,29.4c-12.8,8.6-30,10-44,3.8
		c-8.8-3.7-16-10.5-21.1-18.5c-20.9,6.7-41.1,15.9-60.1,27.1c5.4,11.8,10.7,23.6,16.2,35.4c11.7-6.1,23.8-11.4,36.1-16
		c7,29.1,14,58.1,21,87.2c13.2-5.3,26.9-9.4,41.1-10.4c13.1-1,27-0.8,39.2,4.7c7.1,3.1,13.2,9.2,15.1,16.9c2,7.4,0.2,15.5-3.8,21.9
		c4.4,9.2,2.9,20.6-2.8,28.9c-5.1,7.3-12.8,12.4-20.8,16.1c-12.9,5.9-27.1,8.8-41.1,10.2c-0.4-5.2-0.6-10.3-0.9-15.5
		c14.1-1.7,28.5-4.6,41-11.7c6-3.3,11.2-8.8,11.9-15.9C225,298,204.4,303,184,302.2c-6.9-0.4-14.4-1.6-19.6-6.6
		c-4.4-4.2-5.1-11.2-2.4-16.5c2.4-5.1,7.1-8.5,12-11.1c8.4-4.3,17.6-6.6,26.9-7.8c12.2-1.7,24.9-1.4,36.6,2.7
		c-4.7,7.5-13.5,12.8-22.5,11.9c-8.9-0.1-17.8,1.2-26.2,3.9c-4.4,1.6-9.1,3.2-12.3,6.8c8.1,2,16.5,1.5,24.6,0.3
		c10.7-1.6,21.2-4.6,30.7-9.9c5.2-2.9,10.5-7,12.3-12.9c1.4-4.1-0.8-8.6-4.4-10.7c-6.5-4-14.3-4.6-21.7-4.9
		c-22.4-0.8-44.3,6.6-63.8,17.3c-7.1-29.9-14.4-59.8-21.5-89.7c-11.2,4.9-22.2,10.5-32.8,16.6c-9.3-20.3-18.4-40.7-27.8-60.9
		c26.6-17.5,56.1-30.6,86.8-39.1c2.4,10.3,9.6,19.4,19.5,23.3c12.3,5.3,27.6,1.2,36.1-9.1C220.4,98.8,222.5,89.6,222,80.8z"/>
	<path fill="#3CA9E1" d="M883.4,140.5c5.8-1.9,12.8,1.2,15.1,6.9c2.8,6.1-0.3,14.1-6.6,16.6c-6.3,2.9-14.5-0.7-16.6-7.3
		C872.7,150.3,876.8,142.3,883.4,140.5z"/>
	<path fill="#3CA9E1" d="M343.2,151c6.8,0,13.5,0,20.3,0c0,8.3,0,16.6,0,25c6.2,0,12.5,0,18.7,0c0,5.9,0,11.8,0,17.8
		c-6.2,0-12.5,0-18.7,0c0,15.4,0,30.9,0,46.3c0,4,0.7,8.9,4.4,11.2c4.4,2.4,9.5,0.5,13.4-1.9c1.5,5.1,3.2,10.2,4.8,15.3
		c-8.6,6.3-20.5,7.2-30.4,3.7c-8.1-2.9-12.3-11.6-12.3-19.8c-0.3-18.2,0-36.5-0.1-54.7c-5,0-10,0-15,0c0-5.9,0-11.8,0-17.8
		c5,0,10,0,15,0C343.2,167.7,343.2,159.3,343.2,151z"/>
	<path fill="#3CA9E1" d="M415.2,181.2c12.5-8.2,29-9.6,42.9-4.3c10.7,4.1,19.2,12.9,23.5,23.4c3.9,8.9,4.8,18.8,4.6,28.4
		c-23.7,0-47.3-0.1-71,0c1.2,9.1,6.6,17.9,15.1,21.8c13.2,6.4,29.5,2.4,40.2-6.9c3,4.5,6.2,8.8,9.2,13.3c-11.5,10.5-27.7,14.3-43,13
		c-12.8-1.1-25.4-7.3-33.2-17.7c-8.5-11.1-10.9-25.8-8.8-39.3C397,200.2,404.3,188.3,415.2,181.2 M423.7,196.6
		c-5.1,4.5-7.6,11.2-8.7,17.8c17.2,0.1,34.4,0,51.6,0c-0.8-7.3-3.8-14.8-9.9-19.2C447.2,188.2,432.5,188.5,423.7,196.6z"/>
	<path fill="#3CA9E1" d="M520.6,181.5c12.1-8.2,28.1-9.9,41.8-5.1c10.1,3.5,18.6,11.1,23.5,20.6c5.1,9.7,6.5,20.9,6.1,31.8
		c-23.7,0-47.3-0.1-71,0.1c1.4,8.6,6.1,17,14,21.2c13.2,7.1,30.4,3.4,41.3-6.4c3.1,4.4,6.2,8.8,9.3,13.3
		c-11.1,10.3-26.8,14.1-41.6,13.1c-13-0.8-25.8-6.7-33.9-17C493.4,231.8,497.6,196.6,520.6,181.5 M529.5,196.6
		c-5.1,4.6-7.6,11.3-8.7,17.9c17.2,0,34.4,0,51.6,0c-0.7-7.8-4.2-15.7-11-20C551.9,188.3,538,188.8,529.5,196.6z"/>
	<path fill="#3CA9E1" d="M611.5,186.5c6-7.9,15.9-11.6,25.5-12.5c14.8-1.5,30.3,2.7,41.6,12.7c-2.8,4.8-5.7,9.6-8.5,14.4
		c-8.1-8.4-20.4-12.3-31.9-10.8c-5,0.7-10.6,3.5-12.1,8.8c-1.1,3.3,1,6.6,3.9,8c6,3.2,12.8,4,19.3,5.6c9.1,2.1,18.8,4.6,25.5,11.5
		c6.3,6.3,7.7,16.1,5.7,24.5c-2,7.6-7.8,13.8-14.9,17.1c-9.5,4.4-20.4,5.2-30.7,4.1c-11.6-1.2-23.1-5.7-31.5-13.8
		c3.1-4.9,6.2-9.8,9.3-14.7c9.7,8.9,23.2,14.4,36.4,12.6c5.8-0.6,12.4-4.3,12.7-10.8c0.8-4.7-3.4-8.1-7.4-9.4
		c-11.4-4.2-24-4.6-34.9-10.3c-5.6-2.8-10.5-7.7-12.2-13.9C605.3,201.7,606.4,192.9,611.5,186.5z"/>
	<path fill="#3CA9E1" d="M739.4,175.5c13.1-4.1,28.5-1.1,38.5,8.6c9.6,9.2,13.4,22.9,13.6,35.9c0.3,13.3-2.6,27.6-11.7,37.8
		c-12.1,14-35.3,16.8-50.3,5.7c-3.1-2.2-5.6-4.9-8.1-7.7c0.1,15.7,0,31.5,0,47.2c-6.8,0-13.5,0-20.3,0c0-42.3,0-84.7,0-127
		c6.7,0,13.5,0,20.3,0c0,4,0,8.1,0,12.1C726.2,182.4,732.3,177.7,739.4,175.5 M726.5,198.5c-2.2,2-5.2,4.2-5,7.5
		c-0.1,11.4,0.1,22.8,0,34.2c7.1,9.4,20.1,14.7,31.5,10.9c7.5-2.4,13.1-9,15.6-16.4c2.9-8.8,2.7-18.7-0.7-27.4
		c-3-7.5-9.7-13.6-17.7-15.1C741.8,190.5,733,193.3,726.5,198.5z"/>
	<path fill="#3CA9E1" d="M831.2,189.3c7.3-9,18.3-15.2,30-15.4c0,6.7,0,13.4,0,20.1c-10.9-1.9-23.2,2.5-29.8,11.5
		c-0.6,20.8-0.1,41.7-0.2,62.6c-6.8,0-13.5,0-20.2,0c0-30.7,0-61.3,0-92c6.8,0,13.5,0,20.2,0C831.2,180.4,831.3,184.8,831.2,189.3z"
		/>
	<path fill="#3CA9E1" d="M943,188.2c9.8-10.9,25.3-16.5,39.8-13.8c7.8,1.1,15.4,5.7,18.8,13c3.6,7,3.3,15,3.2,22.7
		c0,19.3,0,38.7,0,58c-6.8,0-13.5,0-20.3,0c0.1-19.3,0-38.6,0-58c0-4.9-1-10.3-4.6-13.9c-4.2-4-10.3-4.7-15.9-4.3
		c-8.4,0.7-15.9,5.7-21.1,12.1c0.1,21.4,0,42.7,0,64.1c-6.8,0-13.5,0-20.2,0c0-30.7,0-61.3,0-92c6.8,0,13.5,0,20.2,0
		C943,180.1,943,184.1,943,188.2z"/>
	<path fill="#3CA9E1" d="M1034.4,188.4c11.4-15.3,35.1-19.4,51-8.8c3.6,2.3,6.6,5.4,9.4,8.6c-0.1-4.1,0-8.2,0-12.3
		c6.8,0,13.5,0,20.2,0c0,29.3,0,58.7,0,88c-0.1,10-2.8,20.6-9.9,28c-7.4,8-18.4,11.7-29,12.8c-11.8,1.1-24.2,0.3-35-5
		c-4.4-2.1-8.2-5.1-11.8-8.3c3.2-4.9,6.4-9.9,9.5-14.9c4.6,5.3,10.8,9.3,17.7,10.8c9.3,2.1,19.7,2,28-3c6.1-3.6,9.7-10.4,10.2-17.4
		c0.3-4.6,0.1-9.2,0.2-13.8c-6.3,7.9-15.5,13.7-25.7,14.6c-10.8,1-22.2-2.1-30.2-9.6c-9-8.1-13.1-20.3-13.9-32.2
		C1024.1,213,1026.3,199.1,1034.4,188.4 M1064.4,192.6c-6.4,1.6-11.9,6.1-14.9,12c-3.8,7.5-4.5,16.4-2.9,24.5
		c1.4,6.8,5.1,13.4,11.1,17.1c11.9,7.6,29.4,3.2,36.9-8.5c0.5-9.6,0-19.2,0.2-28.8c-0.1-2.4,0.5-5.3-1.6-7.2
		C1086.2,193.9,1074.7,189.8,1064.4,192.6z"/>
	<path fill="#3CA9E1" d="M877,176c6.8,0,13.5,0,20.2,0c0,30.7,0,61.3,0,92c-6.8,0-13.5,0-20.2,0C877,237.3,877,206.7,877,176z"/>
</g>
</svg>
