<?xml version="1.0" encoding="utf-8"?>
<!-- Generator: Adobe Illustrator 18.0.0, SVG Export Plug-In . SVG Version: 6.00 Build 0)  -->
<!DOCTYPE svg PUBLIC "-//W3C//DTD SVG 1.1//EN" "http://www.w3.org/Graphics/SVG/1.1/DTD/svg11.dtd">
<svg version="1.1" id="Layer_1" xmlns="http://www.w3.org/2000/svg" xmlns:xlink="http://www.w3.org/1999/xlink" x="0px" y="0px"
	 viewBox="0 0 707.973 238.223" enable-background="new 0 0 707.973 238.223" xml:space="preserve">
<circle cx="109.222" cy="28.079" r="8.657"/>
<path d="M158.419,37.779c-11.544-6.996-26.935-6.646-34.631-4.198l-3.498,18.54h11.543l-3.148,16.79h-11.543l-4.898,25.536
	c-2.099,10.494,3.498,8.396,7.696,8.396l-1.749,9.794c-30.783,13.643-36.73-7.346-34.98-16.79l4.897-26.935H72.717l3.148-16.79
	h15.392l3.848-19.939c-13.643-4.547-12.593-5.247-12.593-16.091V0H41.584v63.664H0.308c-1.749,6.646,4.198,17.141,11.893,19.24
	c7.696,2.099,12.943,18.539,15.742,22.038c2.798,3.497,9.794,8.045,16.79,7.346c7.696-9.795,8.745-11.193,12.243-9.795
	c2.099,0.35,6.297,1.399,9.445,1.05c19.939,53.169,45.474,59.816,60.866,52.12c-22.038-38.128,27.285-52.82,37.779-56.668
	c3.148-10.145,3.498-23.437,2.448-31.133C155.621,61.916,157.37,47.224,158.419,37.779z"/>
<polygon points="88.202,96.492 106.742,96.492 117.586,40.173 98.697,40.173 "/>
<path d="M449.458,233.838c-2.856-0.204-7.038-2.55-7.038-7.344v-42.432c0-4.794,4.182-7.14,7.038-7.344
	c1.02,0,1.02-1.224-0.102-1.224h-17.34l-24.072,39.984l-24.684-39.984h-18.36c-1.122,0-1.122,1.224-0.102,1.224
	c2.856,0.204,7.038,2.549,7.038,7.344v42.432c0,4.794-4.182,7.14-7.038,7.344c-1.02,0-1.02,1.224,0.102,1.224h22.032
	c1.122,0,1.122-1.224,0.102-1.224c-2.856-0.204-7.038-2.55-7.038-7.344v-30.396l23.256,37.74c1.02,1.428,1.632,1.835,2.856,0
	c0-0.204,22.44-36.924,22.44-36.924v29.58c0,4.794-4.182,7.14-7.038,7.344c-1.02,0-1.02,1.224,0.102,1.224h27.744
	C450.478,235.062,450.478,233.838,449.458,233.838z"/>
<path d="M360.422,175.495h-20.4c-1.122,0-1.122,1.224-0.102,1.224c2.856,0.204,7.038,2.549,7.038,7.344v30.6
	c-0.204,10.2-9.794,14.484-17.952,14.28c-8.16-0.204-16.32-1.428-16.32-14.28v-30.6c0-4.794,4.182-7.14,7.038-7.344
	c1.02,0,1.02-1.224-0.102-1.224h-25.296c-1.122,0-1.122,1.224-0.102,1.224c2.856,0.204,7.038,2.549,7.038,7.344v30.6
	c0,14.076,10.2,20.4,27.744,20.4c12.24,0,24.48-7.14,24.48-20.4v-30.6c0-4.794,4.182-7.14,7.038-7.344
	C361.543,176.719,361.543,175.495,360.422,175.495z"/>
<path d="M300.638,229.355c-2.652,1.632-10.302-0.204-12.342-3.672c-3.264-5.508-12.954-14.076-16.83-15.198
	c-2.04-0.306-2.55-1.938,0.714-1.938c2.864,0,18.156-0.204,18.156-15.504s-14.28-17.543-21.624-17.543h-41.616
	c-1.122,0-1.122,1.224-0.102,1.224c2.856,0.204,7.038,2.55,7.038,7.344v42.432c0,4.794-4.182,7.14-7.038,7.344
	c-1.02,0-1.02,1.224,0.102,1.224h26.928c1.122,0,1.122-1.224,0.102-1.224c-2.856-0.204-7.038-2.55-7.038-6.833v-16.014
	c0-1.428,0.612-2.448,2.04-2.448c0,0,6.025-0.051,6.222,0c3.57,0.918,5.61,1.224,12.954,12.852
	c7.344,11.628,19.38,23.46,33.252,8.772C301.862,229.763,301.658,228.947,300.638,229.355z M266.876,201.611H249.74
	c-1.632,0-2.652-0.816-2.652-2.652v-13.158c0-1.734,0.816-3.366,2.652-3.366h15.096c8.364,0,10.608,5.712,10.608,9.384
	C275.444,195.491,273.812,201.611,266.876,201.611z"/>
<path d="M103.307,175.503H84.131c-1.122,0-1.122,1.224-0.102,1.224c2.856,0.204,7.038,2.549,7.038,7.344v30.804l-39.168-39.372
	H31.907c-1.122,0-1.122,1.224-0.102,1.224c2.856,0.204,9.282,6.324,13.566,11.424v38.352c0,4.794-4.182,7.14-7.038,7.344
	c-1.02,0-1.02,1.224,0.102,1.224h20.4c1.122,0,1.122-1.224,0.102-1.224c-2.856-0.204-7.038-2.549-7.038-7.344v-32.231l42.84,43.248
	c1.428,1.428,1.632,0.408,1.632-0.612V184.07c0-4.794,4.182-7.14,7.038-7.344C104.429,176.727,104.429,175.503,103.307,175.503z"/>
<path d="M30.941,233.785c-2.856-0.204-7.038-2.549-7.038-7.343v-63.648c0-4.794,4.181-7.14,7.038-7.344
	c1.02,0,1.02-1.224-0.102-1.224H3.911c-1.122,0-1.122,1.224-0.102,1.224c2.856,0.204,7.038,2.55,7.038,7.344v63.648
	c0,4.794-4.182,7.139-7.038,7.343c-1.02,0-1.02,1.224,0.102,1.224h26.928C31.961,235.009,31.961,233.785,30.941,233.785z"/>
<path d="M229.411,189.366l-5.712-13.872h-54.468l-5.103,12.394l-3.496-10.446c-0.344-0.711-1.493-1.431-2.207,0.303
	c-0.714,1.733-2.855,3.468-5.399,2.363c-2.963-1.134-9.391-3.413-19.412-3.413c-13.643,0-22.752,6.15-22.752,18.152
	c0,22.671,44.606,10.847,44.144,26.851c-0.244,8.456-7.699,9.055-15.454,9.055c-10.663,0-25.395-8.127-31.584-16.835
	c-1.395-1.16-2.073-0.371-1.646,1.239l6.067,19.384c0.441,0.705,0.72,2.023,1.781,2.04c1.109,0.019,1.762-3.371,3.965-3.371
	c2.732,0,14.576,3.395,23.828,3.395c10.134,0,24.743-5.937,24.743-17.481c0-15.069-9.199-17.306-29.182-20.282
	c-6.325-0.942-16.075-1.04-16.075-9.499c0-5.904,9.344-7.467,14.367-7.467c16.182,0,28.604,14.974,29.926,14.974
	c1.148,0,1.059-1.326,0.441-2.82l-1.333-3.982c2.027-2.5,4.729-7.617,12.949-7.617h6.528c2.04,0,3.672,1.836,3.672,4.08v39.984
	c0,4.794-4.182,7.14-7.038,7.344c-1.02,0-1.02,1.224,0.102,1.224h28.56c1.122,0,1.122-1.224,0.102-1.224
	c-2.856-0.204-7.038-2.55-7.038-7.344V186.51c0-2.244,1.632-4.08,3.672-4.08h8.771c8.364,0,11.016,5.304,13.056,7.753
	C228.799,190.794,229.819,190.794,229.411,189.366z"/>
<path d="M650.533,189.366l-5.712-13.872h-54.468l-5.711,13.872c-0.408,1.428,0.612,1.428,1.224,0.816
	c2.04-2.448,4.692-7.753,13.056-7.753h6.528c2.04,0,3.672,1.836,3.672,4.08v39.984c0,4.794-4.182,7.14-7.038,7.344
	c-1.019,0-1.019,1.224,0.102,1.224h28.56c1.122,0,1.122-1.224,0.102-1.224c-2.856-0.204-7.038-2.55-7.038-7.344V186.51
	c0-2.244,1.632-4.08,3.672-4.08h8.773c8.364,0,11.016,5.304,13.056,7.753C649.921,190.794,650.941,190.794,650.533,189.366z"/>
<path d="M455.767,176.719c2.856,0.204,7.038,2.549,7.038,7.344v42.432c0,4.794-4.182,7.14-7.038,7.344
	c-1.02,0-1.02,1.224,0.102,1.224h54.264l5.712-13.872c0.408-1.428-0.612-1.428-1.224-0.816c-2.04,2.448-4.692,7.752-13.056,7.752
	h-20.4c-2.04,0-3.671-1.836-3.671-4.08v-14.28c0-1.836,1.02-2.651,3.06-2.651h8.771c5.1,0,7.14,2.142,7.344,4.997
	c0,1.02,1.224,1.02,1.224-0.102v-16.728c0-1.122-1.224-1.122-1.224-0.102c-0.204,2.856-2.244,4.998-7.344,4.998h-8.771
	c-2.04,0-3.06-0.817-3.06-2.652V186.51c0-2.244,1.632-4.08,3.671-4.08h18.564c8.364,0,11.016,5.304,13.056,7.753
	c0.612,0.612,1.632,0.612,1.224-0.816l-5.712-13.872h-52.428C454.747,175.495,454.747,176.719,455.767,176.719z"/>
<path d="M266.733,96.349c2.856,0.204,7.038,2.55,7.038,7.344v42.432c0,4.794-4.182,7.14-7.038,7.344c-1.02,0-1.02,1.224,0.103,1.224
	h54.263l5.712-13.872c0.408-1.428-0.612-1.428-1.224-0.816c-2.04,2.448-4.692,7.752-13.056,7.752h-20.4
	c-2.04,0-3.672-1.836-3.672-4.08v-14.28c0-1.836,1.02-2.652,3.06-2.652h8.772c5.1,0,7.14,2.142,7.344,4.998
	c0,1.02,1.224,1.02,1.224-0.102v-16.728c0-1.122-1.224-1.122-1.224-0.102c-0.204,2.856-2.244,4.998-7.344,4.998h-8.772
	c-2.04,0-3.06-0.816-3.06-2.652v-11.016c0-2.244,1.632-4.08,3.672-4.08h18.564c8.364,0,11.016,5.304,13.056,7.752
	c0.612,0.612,1.632,0.612,1.224-0.816l-5.712-13.872h-52.427C265.713,95.125,265.713,96.349,266.733,96.349z"/>
<path d="M513.614,176.727c2.856,0.204,9.282,6.324,13.566,11.424v38.352c0,4.794-4.182,7.14-7.038,7.344
	c-1.02,0-1.02,1.224,0.102,1.224h20.4c1.122,0,1.122-1.224,0.102-1.224c-2.856-0.204-7.038-2.549-7.038-7.344v-32.231l42.84,43.248
	c1.428,1.428,1.632,0.408,1.632-0.612V184.07c0-4.794,4.182-7.14,7.038-7.344c1.02,0,1.02-1.224-0.102-1.224H565.94
	c-1.122,0-1.122,1.224-0.102,1.224c2.857,0.204,7.038,2.549,7.038,7.344v30.804l-39.167-39.372h-19.992
	C512.594,175.503,512.594,176.727,513.614,176.727z"/>
<path d="M476.022,117.036c-6.325-0.942-16.076-1.04-16.076-9.499c0-5.904,9.344-7.467,14.367-7.467
	c16.182,0,28.604,14.974,29.926,14.974c1.149,0,1.059-1.326,0.441-2.82l-5.552-16.587c-0.343-0.711-1.493-1.431-2.207,0.303
	c-0.714,1.734-2.856,3.468-5.399,2.363c-2.963-1.134-9.391-3.414-19.412-3.414c-13.643,0-22.752,6.15-22.752,18.152
	c0,22.671,44.605,10.847,44.144,26.851c-0.244,8.456-7.699,9.055-15.454,9.055c-10.663,0-25.395-8.127-31.583-16.835
	c-1.395-1.16-2.073-0.37-1.647,1.239l6.067,19.384c0.104,0.166,0.199,0.367,0.297,0.576c-1.74-0.33-3.884-1.16-4.572-2.79
	l-24.337-55.396h-9.18l-26.047,54.915l-19.622-28.701l15.402-19.074c3.468-5.304,7.242-5.712,10.098-5.916
	c1.02,0,1.02-1.224-0.102-1.224h-23.663c-1.122,0-1.122,1.224-0.102,1.224c2.856,0.204,5.406,2.244,3.569,5.508l-9.996,12.444
	l-8.568-12.444c-1.836-3.264,0.714-5.304,3.57-5.508c1.02,0,1.02-1.224-0.102-1.224h-28.764c-1.122,0-1.122,1.224-0.102,1.224
	c2.856,0.204,6.426,0.612,9.894,5.916l15.606,22.746l-20.156,25.51c-1.477,1.863-3.565,2.821-5.344,2.948
	c-1.02,0-1.02,1.224,0.102,1.224h21.216c1.122,0,1.122-1.224,0.102-1.224c-1.779-0.127-5.814-2.856-3.712-5.6l12.587-15.82
	l10.75,15.616c2.102,2.744-2.75,5.677-4.528,5.804c-1.02,0-1.02,1.224,0.102,1.224h34.96c1.122,0,1.122-1.224,0.102-1.224
	c-1.778-0.127-5.813-2.856-3.712-5.6l4.426-10.21c0.408-0.918,1.224-1.734,2.448-1.734h20.808c1.02,0,2.04,0.816,2.346,1.632
	l3.917,9.701c1.489,3.662-2.75,6.085-4.529,6.211c-1.02,0-1.02,1.224,0.102,1.224h26.112c0.002,0,0.003-0.001,0.006-0.001
	c0.121,0.048,0.251,0.081,0.4,0.084c1.109,0.019,1.762-3.371,3.965-3.371c2.732,0,14.576,3.395,23.828,3.395
	c10.134,0,24.743-5.937,24.743-17.481C505.203,122.25,496.004,120.012,476.022,117.036z M421.967,128.988h-15.402
	c-0.51,0-1.428-0.51-1.02-1.326l8.058-18.054c0.51-1.122,1.734-1.02,2.142,0l6.936,17.748
	C423.089,128.479,422.783,129.09,421.967,128.988z"/>
<path d="M202.703,88.743c2.448-2.856,9.996-9.588,16.32-9.588h11.016c2.244,0,3.876,2.04,3.876,4.081v62.832
	c0,4.794-4.182,7.14-7.038,7.344c-1.02,0-1.02,1.224,0.102,1.224h26.928c1.122,0,1.122-1.224,0.102-1.224
	c-2.856-0.204-7.038-2.55-7.038-7.344V83.235c0-2.041,1.632-4.081,3.876-4.081h11.016c6.324,0,13.872,6.732,16.32,9.588
	c0.816,1.02,2.448,0.816,1.632-0.816l-8.364-15.912h-62.016l-8.364,15.912C200.255,89.559,201.887,89.763,202.703,88.743z"/>
<path d="M678.792,198.841c-6.325-0.942-16.076-1.04-16.076-9.499c0-5.904,9.345-7.467,14.368-7.467
	c16.182,0,28.604,14.974,29.926,14.974c1.148,0,1.059-1.326,0.44-2.82l-5.552-16.587c-0.343-0.711-1.493-1.431-2.207,0.303
	c-0.714,1.733-2.856,3.468-5.398,2.363c-2.963-1.134-9.391-3.413-19.413-3.413c-13.642,0-22.752,6.15-22.752,18.152
	c0,22.671,44.605,10.847,44.144,26.851c-0.244,8.456-7.699,9.055-15.454,9.055c-10.663,0-25.395-8.127-31.584-16.835
	c-1.394-1.16-2.073-0.371-1.646,1.239l6.067,19.384c0.44,0.705,0.72,2.023,1.781,2.04c1.109,0.019,1.762-3.371,3.965-3.371
	c2.731,0,14.576,3.395,23.829,3.395c10.133,0,24.742-5.937,24.742-17.481C707.973,204.055,698.773,201.817,678.792,198.841z"/>
</svg>
