<?xml version="1.0" encoding="utf-8"?>
<!-- Generator: Adobe Illustrator 16.0.0, SVG Export Plug-In . SVG Version: 6.00 Build 0)  -->
<!DOCTYPE svg PUBLIC "-//W3C//DTD SVG 1.1//EN" "http://www.w3.org/Graphics/SVG/1.1/DTD/svg11.dtd">
<svg version="1.1" id="Layer_1" xmlns="http://www.w3.org/2000/svg" xmlns:xlink="http://www.w3.org/1999/xlink" x="0px" y="0px"
	 width="444.238px" height="55.645px" viewBox="0 0 444.238 55.645" enable-background="new 0 0 444.238 55.645"
	 xml:space="preserve">
<g>
	<g>
		<path fill="#00BCDD" d="M69.934,21.183c0-6.957-2.028-13.696-5.874-19.506C63.284,0.625,62.038,0,60.732,0
			c-0.888,0-1.739,0.284-2.456,0.811c-1.839,1.361-2.245,3.943-0.924,5.711l0.033,0.07c2.798,4.365,4.279,9.411,4.279,14.59
			s-1.48,10.227-4.279,14.594l-0.009,0.021c-0.502,0.633-1.486,0.773-2.142,0.285c-0.34-0.252-0.563-0.605-0.632-0.995
			c-0.075-0.39,0.021-0.787,0.28-1.138l0.03-0.056c2.393-3.817,3.653-8.213,3.653-12.712c0-4.504-1.251-8.889-3.62-12.67L54.9,8.454
			c-0.777-1.052-2.017-1.678-3.325-1.678c-0.888,0-1.74,0.283-2.459,0.811c-0.891,0.659-1.48,1.619-1.649,2.701
			c-0.184,1.089,0.079,2.177,0.74,3.075c1.366,2.38,2.083,5.08,2.083,7.819c0,2.787-0.687,5.405-2.059,7.793l-0.018,0.038
			c-0.488,0.659-1.469,0.788-2.143,0.292c-0.705-0.521-0.855-1.392-0.367-2.162l0.06-0.101c0.951-1.803,1.432-3.774,1.432-5.861
			c0-2.058-0.505-4.099-1.459-5.891c-0.62-1.169-1.893-1.921-3.244-1.921c-0.668,0-1.321,0.179-1.941,0.531
			c-1.026,0.584-1.537,2.239-1.48,4.788v36.955l0.325-0.034c17.357-2.012,30.459-16.665,30.538-34.137V21.183L69.934,21.183z
			 M67.358,21.464C67.286,36.667,56.522,49.723,41.66,52.678V18.797c0-0.103-0.006-0.22-0.006-0.354
			c-0.006-0.653-0.03-2.184,0.375-2.394c0.115-0.057,0.232-0.088,0.358-0.088c0.385,0,0.836,0.299,1.198,0.794
			c0.544,0.748,1.023,2.818,1.023,4.428c0,1.547-0.346,3.037-1.005,4.389l-0.036,0.059c-1.222,2.109-0.831,4.424,0.963,5.754
			c0.719,0.531,1.571,0.808,2.458,0.808c1.309,0,2.552-0.623,3.343-1.698c1.667-2.815,2.546-6.037,2.546-9.311
			c0-3.296-0.867-6.507-2.51-9.285l-0.036-0.065c-0.244-0.33-0.349-0.74-0.286-1.148c0.063-0.409,0.276-0.773,0.608-1.017
			c0.677-0.5,1.652-0.369,2.151,0.302c2.076,3.371,3.172,7.251,3.172,11.212s-1.096,7.838-3.19,11.237
			c-1.335,1.809-0.929,4.384,0.909,5.744c0.716,0.531,1.568,0.812,2.456,0.812c1.306,0,2.552-0.631,3.34-1.688
			c3.111-4.815,4.758-10.382,4.758-16.106c0-5.743-1.631-11.295-4.719-16.063l-0.039-0.06c-0.247-0.33-0.349-0.744-0.289-1.151
			s0.277-0.771,0.614-1.014c0.668-0.5,1.661-0.359,2.148,0.309c3.521,5.352,5.38,11.567,5.38,17.984L67.358,21.464L67.358,21.464z"
			/>
		<path fill="#00BCDD" d="M0,21.183C0,14.226,2.031,7.487,5.874,1.677C6.65,0.625,7.896,0,9.202,0c0.891,0,1.739,0.284,2.456,0.811
			c1.835,1.361,2.245,3.943,0.924,5.711l-0.033,0.07c-2.798,4.365-4.276,9.411-4.276,14.59S9.75,31.41,12.548,35.777l0.012,0.021
			c0.502,0.633,1.48,0.773,2.137,0.285c0.343-0.252,0.568-0.605,0.638-0.995s-0.024-0.787-0.28-1.138l-0.036-0.056
			c-2.386-3.817-3.65-8.213-3.65-12.712c0-4.504,1.252-8.889,3.617-12.67l0.045-0.059c0.779-1.052,2.02-1.678,3.329-1.678
			c0.891,0,1.742,0.283,2.458,0.811c0.891,0.659,1.478,1.619,1.656,2.701c0.18,1.089-0.082,2.177-0.747,3.075
			c-1.366,2.38-2.088,5.08-2.088,7.819c0,2.787,0.695,5.405,2.07,7.793l0.012,0.038c0.488,0.659,1.469,0.788,2.143,0.292
			c0.708-0.521,0.855-1.392,0.368-2.162l-0.061-0.101c-0.951-1.803-1.432-3.774-1.432-5.861c0-2.058,0.505-4.099,1.459-5.891
			c0.623-1.169,1.893-1.921,3.241-1.921c0.668,0,1.321,0.179,1.944,0.531c1.026,0.584,1.541,2.239,1.484,4.788l-0.003,36.955
			l-0.325-0.034C13.18,53.599,0.078,38.945,0,21.474V21.183L0,21.183z M2.582,21.464c0.066,15.203,10.833,28.258,25.692,31.213
			V18.797c0-0.103,0.003-0.22,0.003-0.354c0.015-0.653,0.039-2.184-0.373-2.394c-0.111-0.057-0.231-0.088-0.355-0.088
			c-0.388,0-0.833,0.299-1.201,0.794c-0.548,0.748-1.023,2.818-1.023,4.428c0,1.547,0.344,3.037,1.005,4.389l0.039,0.059
			c1.219,2.109,0.828,4.424-0.969,5.754c-0.716,0.531-1.562,0.808-2.455,0.808c-1.309,0-2.549-0.623-3.343-1.698
			c-1.667-2.815-2.546-6.037-2.546-9.311c0-3.296,0.87-6.507,2.51-9.285l0.036-0.065c0.247-0.33,0.349-0.74,0.286-1.148
			c-0.057-0.409-0.277-0.773-0.611-1.017c-0.674-0.5-1.649-0.369-2.148,0.302c-2.076,3.371-3.172,7.251-3.172,11.212
			s1.096,7.838,3.19,11.237c1.339,1.809,0.93,4.384-0.906,5.744c-0.719,0.531-1.568,0.812-2.458,0.812
			c-1.306,0-2.552-0.631-3.334-1.688c-3.117-4.815-4.763-10.382-4.763-16.106c0-5.743,1.634-11.295,4.718-16.063l0.045-0.06
			c0.244-0.33,0.343-0.744,0.283-1.151s-0.28-0.771-0.614-1.014c-0.668-0.5-1.661-0.359-2.152,0.309
			C4.447,8.555,2.588,14.771,2.588,21.188L2.582,21.464L2.582,21.464z"/>
	</g>
	<g>
		<g>
			<g>
				<g>
					<g>
						<path fill="#1E252B" d="M281.44,27.572c0-9.167,1.258-20.146,15.641-20.146c10.123,0,13.807,5.337,13.807,12.965h-7.932
							c0-5.185-2.913-7.128-5.875-7.128c-5.582,0-7.222,1.829-7.201,14.309c0.004,11.694,1.619,14.312,7.201,14.312
							c4.604,0,5.875-4.702,6.007-7.778h8.327c0,8.905-5.059,13.61-14.334,13.61C282.433,47.716,281.44,36.068,281.44,27.572z"/>
					</g>
				</g>
				<path fill="#1E252B" d="M110.844,15.071H99.948v32.311h-8.161V15.071H80.881V8.252h29.963V15.071z"/>
				<path fill="#1E252B" d="M146.708,47.382h-8.152V31.008h-14.113v16.374h-8.155V8.252h8.155v15.996h14.113V8.252h8.152V47.382z"/>
				<path fill="#1E252B" d="M187.495,47.382h-8.507l-2.456-6.927h-14.826l-2.519,6.927h-8.504l15.202-39.129h6.383L187.495,47.382z
					 M174.39,34.015l-5.13-14.222l-5.263,14.222H174.39z"/>
				<path fill="#1E252B" d="M216.479,47.382h-24.982V8.252h8.161v32.31h16.821V47.382z"/>
				<path fill="#1E252B" d="M258.585,47.382h-8.158V24.567l-7.957,14.846h-5.521l-8.013-14.846v22.815h-8.161V8.252h8.047
					L239.698,29.4l10.843-21.148h8.044V47.382z"/>
				<path fill="#1E252B" d="M275.295,47.382h-8.155V8.252h8.155V47.382z"/>
			</g>
			<g>
				<path fill="#1E252B" d="M345.698,47.375h-25.785V8.248h4.462v35.398h21.323V47.375z"/>
				<path fill="#1E252B" d="M376.724,47.375h-4.749l-3.347-8.854h-18.229l-3.35,8.854h-4.722l15.335-39.127h3.756L376.724,47.375z
					 M367.341,34.899l-7.73-20.666l-7.869,20.666H367.341z"/>
				<path fill="#1E252B" d="M410.927,36.562c0,2.343-0.512,4.32-1.547,5.931c-1.029,1.611-2.48,2.828-4.349,3.649
					c-1.869,0.821-4.048,1.233-6.527,1.233h-16.226V8.248h15.715c1.793,0,3.463,0.244,5.019,0.729
					c1.556,0.481,2.858,1.166,3.906,2.052c1.054,0.881,1.878,1.981,2.474,3.286c0.607,1.303,0.906,2.764,0.906,4.373
					c0,1.36-0.269,2.617-0.801,3.771c-0.539,1.154-1.27,2.144-2.206,2.966c-0.933,0.823-1.983,1.432-3.147,1.827
					c1.354,0.465,2.537,1.134,3.551,2.01c1.012,0.879,1.803,1.945,2.371,3.197C410.638,33.706,410.927,35.075,410.927,36.562z
					 M405.829,18.743c0-2.254-0.744-3.944-2.246-5.074c-1.498-1.126-3.473-1.689-5.939-1.689h-10.899v13.579h10.899
					c2.443,0,4.418-0.578,5.928-1.732C405.076,22.674,405.829,20.979,405.829,18.743z M406.46,36.426
					c0-1.467-0.334-2.73-1.014-3.796c-0.678-1.063-1.646-1.89-2.913-2.469c-1.27-0.582-2.747-0.872-4.444-0.872h-11.345v14.357
					h11.345c2.572,0,4.609-0.654,6.117-1.96C405.712,40.382,406.46,38.627,406.46,36.426z"/>
				<path fill="#1E252B" d="M444.238,36.614c0,2.255-0.597,4.22-1.788,5.891c-1.188,1.673-2.864,2.956-5.037,3.851
					c-2.164,0.896-4.7,1.344-7.596,1.344c-2.1,0-3.98-0.175-5.639-0.525c-1.661-0.35-3.193-0.898-4.592-1.649
					c-1.406-0.751-2.763-1.745-4.074-2.979l3.057-2.871c1.126,1.055,2.264,1.902,3.406,2.536c1.141,0.637,2.351,1.087,3.617,1.357
					c1.27,0.267,2.715,0.403,4.336,0.403c3.073,0,5.48-0.646,7.229-1.936c1.742-1.286,2.621-3.059,2.621-5.312
					c0-1.02-0.174-1.967-0.518-2.847c-0.343-0.876-0.84-1.563-1.486-2.064c-0.632-0.537-1.312-0.925-2.034-1.167
					c-0.723-0.241-1.86-0.47-3.4-0.686l-4.869-0.727c-3.319-0.498-5.877-1.483-7.673-2.95c-2.116-1.768-3.172-4.213-3.172-7.324
					c0-2.165,0.535-4.086,1.601-5.773c1.068-1.679,2.618-2.976,4.652-3.889c2.028-0.914,4.399-1.369,7.107-1.369
					c2.636,0,4.911,0.326,6.825,0.982c1.92,0.648,3.779,1.747,5.598,3.286l-2.865,2.711c-1.312-1.128-2.738-1.968-4.276-2.523
					s-3.353-0.832-5.45-0.832c-1.814,0-3.382,0.299-4.709,0.898c-1.327,0.601-2.338,1.44-3.03,2.522
					c-0.7,1.083-1.047,2.356-1.047,3.826c0,2.004,0.62,3.506,1.859,4.505c1.318,1.076,3.199,1.793,5.64,2.148l4.55,0.643
					c1.835,0.254,3.341,0.599,4.538,1.032c1.191,0.444,2.227,1.019,3.1,1.736C443.07,30.703,444.238,33.285,444.238,36.614z"/>
			</g>
		</g>
		<g>
			<g>
				<g>
					<g>
						<path fill="#1E252B" d="M281.44,27.572c0-9.167,1.258-20.146,15.641-20.146c10.123,0,13.807,5.337,13.807,12.965h-7.932
							c0-5.185-2.913-7.128-5.875-7.128c-5.582,0-7.222,1.829-7.201,14.309c0.004,11.694,1.619,14.312,7.201,14.312
							c4.604,0,5.875-4.702,6.007-7.778h8.327c0,8.905-5.059,13.61-14.334,13.61C282.433,47.716,281.44,36.068,281.44,27.572z"/>
					</g>
				</g>
				<path fill="#1E252B" d="M110.844,15.071H99.948v32.311h-8.161V15.071H80.881V8.252h29.963V15.071z"/>
				<path fill="#1E252B" d="M146.708,47.382h-8.152V31.008h-14.113v16.374h-8.155V8.252h8.155v15.996h14.113V8.252h8.152V47.382z"/>
				<path fill="#1E252B" d="M187.495,47.382h-8.507l-2.456-6.927h-14.826l-2.519,6.927h-8.504l15.202-39.129h6.383L187.495,47.382z
					 M174.39,34.015l-5.13-14.222l-5.263,14.222H174.39z"/>
				<path fill="#1E252B" d="M216.479,47.382h-24.982V8.252h8.161v32.31h16.821V47.382z"/>
				<path fill="#1E252B" d="M258.585,47.382h-8.158V24.567l-7.957,14.846h-5.521l-8.013-14.846v22.815h-8.161V8.252h8.047
					L239.698,29.4l10.843-21.148h8.044V47.382z"/>
				<path fill="#1E252B" d="M275.295,47.382h-8.155V8.252h8.155V47.382z"/>
			</g>
			<g>
				<path fill="#1E252B" d="M345.698,47.375h-25.785V8.248h4.462v35.398h21.323V47.375z"/>
				<path fill="#1E252B" d="M376.724,47.375h-4.749l-3.347-8.854h-18.229l-3.35,8.854h-4.722l15.335-39.127h3.756L376.724,47.375z
					 M367.341,34.899l-7.73-20.666l-7.869,20.666H367.341z"/>
				<path fill="#1E252B" d="M410.927,36.562c0,2.343-0.512,4.32-1.547,5.931c-1.029,1.611-2.48,2.828-4.349,3.649
					c-1.869,0.821-4.048,1.233-6.527,1.233h-16.226V8.248h15.715c1.793,0,3.463,0.244,5.019,0.729
					c1.556,0.481,2.858,1.166,3.906,2.052c1.054,0.881,1.878,1.981,2.474,3.286c0.607,1.303,0.906,2.764,0.906,4.373
					c0,1.36-0.269,2.617-0.801,3.771c-0.539,1.154-1.27,2.144-2.206,2.966c-0.933,0.823-1.983,1.432-3.147,1.827
					c1.354,0.465,2.537,1.134,3.551,2.01c1.012,0.879,1.803,1.945,2.371,3.197C410.638,33.706,410.927,35.075,410.927,36.562z
					 M405.829,18.743c0-2.254-0.744-3.944-2.246-5.074c-1.498-1.126-3.473-1.689-5.939-1.689h-10.899v13.579h10.899
					c2.443,0,4.418-0.578,5.928-1.732C405.076,22.674,405.829,20.979,405.829,18.743z M406.46,36.426
					c0-1.467-0.334-2.73-1.014-3.796c-0.678-1.063-1.646-1.89-2.913-2.469c-1.27-0.582-2.747-0.872-4.444-0.872h-11.345v14.357
					h11.345c2.572,0,4.609-0.654,6.117-1.96C405.712,40.382,406.46,38.627,406.46,36.426z"/>
				<path fill="#1E252B" d="M444.238,36.614c0,2.255-0.597,4.22-1.788,5.891c-1.188,1.673-2.864,2.956-5.037,3.851
					c-2.164,0.896-4.7,1.344-7.596,1.344c-2.1,0-3.98-0.175-5.639-0.525c-1.661-0.35-3.193-0.898-4.592-1.649
					c-1.406-0.751-2.763-1.745-4.074-2.979l3.057-2.871c1.126,1.055,2.264,1.902,3.406,2.536c1.141,0.637,2.351,1.087,3.617,1.357
					c1.27,0.267,2.715,0.403,4.336,0.403c3.073,0,5.48-0.646,7.229-1.936c1.742-1.286,2.621-3.059,2.621-5.312
					c0-1.02-0.174-1.967-0.518-2.847c-0.343-0.876-0.84-1.563-1.486-2.064c-0.632-0.537-1.312-0.925-2.034-1.167
					c-0.723-0.241-1.86-0.47-3.4-0.686l-4.869-0.727c-3.319-0.498-5.877-1.483-7.673-2.95c-2.116-1.768-3.172-4.213-3.172-7.324
					c0-2.165,0.535-4.086,1.601-5.773c1.068-1.679,2.618-2.976,4.652-3.889c2.028-0.914,4.399-1.369,7.107-1.369
					c2.636,0,4.911,0.326,6.825,0.982c1.92,0.648,3.779,1.747,5.598,3.286l-2.865,2.711c-1.312-1.128-2.738-1.968-4.276-2.523
					s-3.353-0.832-5.45-0.832c-1.814,0-3.382,0.299-4.709,0.898c-1.327,0.601-2.338,1.44-3.03,2.522
					c-0.7,1.083-1.047,2.356-1.047,3.826c0,2.004,0.62,3.506,1.859,4.505c1.318,1.076,3.199,1.793,5.64,2.148l4.55,0.643
					c1.835,0.254,3.341,0.599,4.538,1.032c1.191,0.444,2.227,1.019,3.1,1.736C443.07,30.703,444.238,33.285,444.238,36.614z"/>
			</g>
		</g>
	</g>
</g>
</svg>
