<?xml version="1.0" encoding="utf-8"?>
<!-- Generator: Adobe Illustrator 18.0.0, SVG Export Plug-In . SVG Version: 6.00 Build 0)  -->
<!DOCTYPE svg PUBLIC "-//W3C//DTD SVG 1.1//EN" "http://www.w3.org/Graphics/SVG/1.1/DTD/svg11.dtd">
<svg version="1.1" id="Layer_1" xmlns="http://www.w3.org/2000/svg" xmlns:xlink="http://www.w3.org/1999/xlink" x="0px" y="0px"
	 viewBox="0 0 549.7 166.4" enable-background="new 0 0 549.7 166.4" xml:space="preserve">
<g>
	<g>
		<g>
			<path d="M78.2,166.4c0,0-4.2,3.1,39.2-30.2c43.5-33.3,38.8-56.3,38.8-56.3V0h-87l17.9,0h-87v79.8c0,0-4.7,23,38.8,56.3
				C82.4,169.4,78.2,166.4,78.2,166.4L78.2,166.4z"/>
		</g>
		<g>
			<path fill="#FFFFFF" d="M78.2,154.1c0,0-3.8,2.7,34.9-26.3c38.7-29,34.5-49.1,34.5-49.1V9.1H70.2l15.9,0H8.7v69.6
				c0,0-4.2,20.1,34.5,49.1C82,156.8,78.2,154.1,78.2,154.1L78.2,154.1z"/>
		</g>
		<g>
			<rect x="56.3" y="108.5" fill="#BCBEC0" width="45.4" height="3.8"/>
			<g>
				<path d="M57.1,43c0-6.7,3-10.1,9.8-10.1c6.2,0,9.2,3.8,9.2,10v6.5c0,2.5-0.6,6.2-1.5,8.9l-13,37.3h14.6v5.2h-20v-6.3l12.6-37
					c1.1-3.2,1.5-6,1.5-9.2v-5.3c0-3.7-1.2-5.5-3.7-5.5c-2.5,0-3.7,1.8-3.7,5.5v7.7h-5.8V43z"/>
				<path d="M82.4,42.9c0-8.5,5.4-10,9.6-10c4.2,0,9.6,1.5,9.6,10v48.5c0,8.5-5.4,10-9.6,10c-4.2,0-9.6-1.5-9.6-10V42.9z M95.8,42.3
					c0-1.7,0-4.7-3.8-4.7c-3.8,0-3.8,3-3.8,4.7v49.8c0,1.7,0,4.7,3.8,4.7c3.8,0,3.8-3,3.8-4.7V42.3z"/>
			</g>
		</g>
	</g>
	<g>
		<path d="M209.4,66c-5.5,0-7.8-2.6-7.7-8.4l0.4-24.4c-2,0-4.8,0-5.7,0.1c-0.4,0-0.4-1-0.3-1.1c4.3-3,8.1-6.7,11.8-10.9
			c0.1-0.1,0.7,0.2,0.7,0.4c-0.2,1.8-0.6,6.5-0.7,8.2h4.8c3.7,0,6.6-0.1,7.7-0.4c0.7-0.2,0.3,4-0.7,3.9c-1-0.1-2.6-0.2-5.9-0.3h-5.9
			l-0.4,22.3c-0.1,5.4,2.5,7.1,6.4,7.1c1.9,0,4.3-0.4,6.4-0.9c0.1,0,0.4,0.7,0.2,0.8C216.8,64.8,211.9,66,209.4,66z"/>
		<path d="M260,64.7c-3.5,0-6.1,0.1-8.6,0.4c-0.4,0.1-0.2-1.1,0-1.1c4.6-0.4,5.6-1.1,5.6-7.8V43c0-7.8-1.9-11.1-6.5-11.1
			c-2.8,0-5,0.7-11.6,4.8v19.6c0,6.3,0.8,7.4,5.6,7.8c0.2,0,0.4,1.2,0,1.1c-1.8-0.3-5.7-0.4-8.2-0.4c-3.4,0-7.5,0.1-9.9,0.4
			c-0.4,0.1-0.2-1.1-0.1-1.1c6.1-0.6,6.7-0.9,6.7-7.8V13.6c0-5.8-1.1-6.9-5.7-5.4c-0.2,0.1-0.5-0.6-0.2-0.8c3.5-2,8.8-4.7,11.6-7.4
			c0.1-0.1,0.8,0.2,0.7,0.4c-0.4,1.7-0.6,9.5-0.5,12.8l-0.1,22.1c6.9-5.4,11.4-6.9,15.5-6.9c6.2,0,8.4,4,8.4,10.7v17.2
			c0,6.4,0.4,7.4,6.6,7.8c0.2,0,0.3,1.2,0,1.1C267.7,64.9,262.5,64.7,260,64.7z"/>
		<path d="M283.6,64.7c-3.4,0-7.3,0.1-9.8,0.4c-0.3,0.1-0.2-1,0-1c6-0.7,6.6-1,6.6-7.9v-15c0-5.8-1.1-6.9-5.7-5.3
			c-0.2,0-0.4-0.6-0.2-0.8c3.5-2,8.8-5,11.6-7.7c0.1-0.1,0.8,0.2,0.8,0.4c-0.4,1.8-0.7,9.8-0.6,13v15.3c0,6.9,0.6,7.2,6.6,7.9
			c0.2,0,0.3,1.1,0,1C290.6,64.8,286.9,64.7,283.6,64.7z M284.5,16.1c-2,0-3.5-1.8-3.5-3.7c0-2,1.6-3.9,3.7-3.9c2,0,3.6,1.8,3.6,3.7
			C288.4,14.2,286.8,16.1,284.5,16.1z"/>
		<path d="M330.1,42.1l-24.8,0.5c-0.1,1-0.2,2-0.2,3.1c0,12,6.7,16.8,13.2,16.8c4.1,0,8.2-1.5,11.3-3.8c0.1-0.1,0.6,0.6,0.4,0.8
			c-3.1,3.6-9,6.5-14.6,6.5c-9.8,0-16.6-7.3-16.6-17.6c0-10.6,9.4-20,18.5-20c8.7,0,13,6.5,13,11.6
			C330.4,40.7,330.3,41.4,330.1,42.1z M315,30.5c-4.6,0-8.4,4-9.6,10.7l18.7-0.4C324.1,36.2,320.8,30.5,315,30.5z"/>
		<path d="M343.4,64.7c-3.4,0-7,0.1-9.5,0.4c-0.3,0.1-0.2-1,0-1c6-0.7,6.6-1,6.6-7.9V13.6c0-5.8-1.1-6.9-5.7-5.4
			c-0.2,0.1-0.4-0.6-0.2-0.8c3.5-2,8.8-4.7,11.6-7.4c0.1-0.1,0.8,0.2,0.8,0.4c-0.4,1.7-0.7,9.5-0.6,12.8v43.1c0,6.9,0.6,7.2,6.6,7.9
			c0.2,0,0.3,1.1,0,1C350.7,64.8,346.8,64.7,343.4,64.7z"/>
		<path d="M225.6,87.1c-2.2,0-5.5-3.7-9.5-3.7c-6.1,0-7.9,4.3-7.9,19.5v5.5h4.8c3.7,0,6.2-0.1,7.3-0.4c0.5-0.2,0.5,3.3,0,3.2
			c-1-0.1-2.8-0.2-6.1-0.2h-5.9v23.7c0,6.2,1.1,7.5,9,7.9c0.2,0,0.4,1.1,0,1c-1.9-0.3-9-0.4-11.5-0.4c-3.4,0-7.4,0.1-9.9,0.4
			c-0.4,0.1-0.2-1,0-1c6-0.7,6.6-1,6.6-7.9V111c-2,0-6.3-0.1-7.2-0.1c-0.4,0.1-0.4-1.5-0.3-1.5c3.4-0.2,5.8-0.4,7.4-1.3v-3.5
			c0-15,9-25.8,19.6-25.8c3.5,0,6.9,2.2,6.9,3.4C228.9,83.8,226.9,87.1,225.6,87.1z"/>
		<path d="M257.5,120.5l-24.8,0.5c-0.1,1-0.2,2-0.2,3.1c0,12,6.7,16.8,13.2,16.8c4.1,0,8.2-1.5,11.3-3.8c0.1-0.1,0.6,0.6,0.4,0.8
			c-3.1,3.6-9,6.5-14.6,6.5c-9.8,0-16.6-7.3-16.6-17.5c0-10.6,9.4-20,18.5-20c8.7,0,13,6.5,13,11.6
			C257.8,119.1,257.7,119.8,257.5,120.5z M242.4,108.9c-4.6,0-8.4,4-9.6,10.7l18.7-0.4C251.5,114.6,248.2,108.9,242.4,108.9z"/>
		<path d="M272.6,143.1c-3.4,0-7,0.1-9.5,0.4c-0.3,0.1-0.2-1,0-1c6-0.7,6.6-1,6.6-7.9V92c0-5.9-1.1-6.9-5.7-5.4
			c-0.2,0.1-0.4-0.6-0.2-0.8c3.5-2,8.8-4.7,11.6-7.4c0.1-0.1,0.8,0.2,0.8,0.4c-0.4,1.7-0.7,9.5-0.6,12.8v43.1c0,6.9,0.6,7.2,6.6,7.9
			c0.2,0,0.3,1.1,0,1C279.8,143.2,276,143.1,272.6,143.1z"/>
		<path d="M299.3,143.1c-3.4,0-7,0.1-9.5,0.4c-0.3,0.1-0.2-1,0-1c6-0.7,6.6-1,6.6-7.9V92c0-5.9-1.1-6.9-5.7-5.4
			c-0.2,0.1-0.4-0.6-0.2-0.8c3.5-2,8.8-4.7,11.6-7.4c0.1-0.1,0.8,0.2,0.8,0.4c-0.4,1.7-0.7,9.5-0.6,12.8v43.1c0,6.9,0.6,7.2,6.6,7.9
			c0.2,0,0.3,1.1,0,1C306.6,143.2,302.8,143.1,299.3,143.1z"/>
		<path d="M331.3,144.4c-11.1,0-18.2-8.7-18.2-18.2c0-10,7.3-19.4,19.1-19.4c11.1,0,18.2,8.7,18.2,18.2
			C350.5,135,343.2,144.4,331.3,144.4z M330.4,108.7c-7.2,0-10.8,6.6-10.8,13.9c0,12.3,5.5,19.8,13.7,19.8c7.2,0,10.7-6.6,10.7-13.9
			C344,116.2,338.5,108.7,330.4,108.7z"/>
		<path d="M405.3,116.2l-11.2,28.1c-0.2,0.4-1.1,0.4-1.2,0.1l-9.4-26.4l-10.4,26.3c-0.2,0.4-1.1,0.4-1.2,0.1l-11.2-28.2
			c-2.4-6-4.2-7.4-8.7-7.8c-0.2,0-0.3-1.1,0.1-1c1.7,0.3,6.4,0.4,8.9,0.4c3.5,0,6.5-0.1,9-0.4c0.3-0.1,0.1,1,0,1
			c-4.7,0.5-5.6,1.6-3.1,7.8l7.7,19.5l8-20.5c-2-5.2-3.7-6.5-8-6.8c-0.2,0-0.3-1.1,0.1-1c1.8,0.3,6.5,0.4,9,0.4
			c3.4,0,6.4-0.1,8.9-0.4c0.3-0.1,0.2,1,0,1c-4.7,0.5-5.7,1.6-3.5,7.8l6.7,19.1l7.4-19.1c2.4-6,1.7-7.3-3.1-7.8c-0.1,0-0.3-1.1,0-1
			c2.5,0.3,3.7,0.4,7.1,0.4c2.5,0,5.1-0.1,6.8-0.4c0.3-0.1,0.2,1,0.1,1C409.1,108.7,407.5,110.6,405.3,116.2z"/>
		<path d="M425.5,144.4c-3.8,0-7.5-1.1-10.2-2.6c-0.4-0.3-0.4-6-0.4-9.8c0-0.3,0.9-0.2,1-0.1c2.1,7.9,6.6,10.9,11.2,10.9
			c4.4,0,6.3-2.6,6.3-6.5c0-8.6-17.1-9.3-17.1-19.4c0-5.2,4.3-10.1,12.1-10.1c3.2,0,5.4,0.4,7.5,1.5c0.4,0.3,0.9,5.2,0.9,8.9
			c0,0.2-1,0.2-1,0.1c-1.6-5.3-5.5-9-9.3-9c-3.3,0-5.1,2.3-5.1,5.8c0,8.2,16.8,8.2,16.8,18.9C438.2,139,433.2,144.4,425.5,144.4z"/>
		<path d="M476,143.1c-3.5,0-6.1,0.1-8.6,0.4c-0.4,0.1-0.2-1.1,0-1.1c4.6-0.4,5.6-1.1,5.6-7.8v-13.3c0-7.8-1.9-11.1-6.5-11.1
			c-2.8,0-5,0.7-11.6,4.8v19.6c0,6.3,0.8,7.4,5.6,7.8c0.2,0,0.4,1.2,0,1.1c-1.8-0.3-5.7-0.4-8.2-0.4c-3.4,0-7.5,0.1-9.9,0.4
			c-0.4,0.1-0.2-1.1-0.1-1.1c6.1-0.6,6.7-0.9,6.7-7.8V92c0-5.9-1.1-6.9-5.7-5.4c-0.2,0.1-0.5-0.6-0.2-0.8c3.5-2,8.8-4.7,11.6-7.4
			c0.1-0.1,0.8,0.2,0.7,0.4c-0.4,1.7-0.6,9.5-0.5,12.8l-0.1,22.1c6.9-5.4,11.4-6.9,15.5-6.9c6.2,0,8.4,4,8.4,10.7v17.2
			c0,6.4,0.4,7.4,6.6,7.8c0.2,0,0.3,1.2,0,1.1C483.7,143.3,478.4,143.1,476,143.1z"/>
		<path d="M497.8,143.1c-3.4,0-7.3,0.1-9.7,0.4c-0.3,0.1-0.2-1,0-1c6-0.7,6.6-1,6.6-7.9v-15c0-5.9-1.1-6.9-5.7-5.3
			c-0.2,0-0.4-0.6-0.2-0.8c3.5-2,8.8-5,11.6-7.7c0.1-0.1,0.8,0.2,0.8,0.4c-0.4,1.8-0.7,9.8-0.6,13v15.3c0,6.9,0.6,7.2,6.6,7.9
			c0.2,0,0.3,1.1,0,1C504.8,143.2,501.1,143.1,497.8,143.1z M498.7,94.5c-2,0-3.5-1.8-3.5-3.7c0-2,1.6-3.9,3.7-3.9
			c2,0,3.6,1.8,3.6,3.7C502.5,92.6,501,94.5,498.7,94.5z"/>
		<path d="M528,144.4c-2,0-3.9-0.2-5.9-0.8v13.6c0,6.7,0.9,7.3,9,7.5c0.2,0,0.4,1.1,0,1.1c-2.5-0.2-9.1-0.2-11.6-0.1
			c-3.5,0.1-6.6,0.3-9,0.7c-0.3,0.1-0.2-1,0-1c5.6-0.8,5.7-1.2,5.7-8.1v-16.3c-0.9-0.4-1.9-1.1-2.9-1.7l2.9-4.5v-15.1
			c0-5.8-1.1-7-5.7-5.4c-0.1,0-0.5-0.6-0.2-0.8c3.5-2,7.9-5.2,10.7-7.9c0.1-0.1,0.7,0.3,0.7,0.5c0.3,1.5,0.2,4.9,0.3,6.9
			c4.4-3.8,9-5.6,12.7-5.6c8.6,0,15.1,7.5,15.1,16.4C549.7,133.6,540.3,144.4,528,144.4z M530.9,111.8c-3,0-5.8,1-8.9,2.8V138
			c3.7,2.1,7.8,3.1,11.1,3.1c6,0,10.1-5.7,10.1-15.2C543.2,116.5,537.1,111.8,530.9,111.8z"/>
	</g>
</g>
</svg>
