<?xml version="1.0" encoding="utf-8"?>
<!-- Generator: Adobe Illustrator 18.0.0, SVG Export Plug-In . SVG Version: 6.00 Build 0)  -->
<!DOCTYPE svg PUBLIC "-//W3C//DTD SVG 1.1//EN" "http://www.w3.org/Graphics/SVG/1.1/DTD/svg11.dtd">
<svg version="1.1" id="Layer_1" xmlns="http://www.w3.org/2000/svg" xmlns:xlink="http://www.w3.org/1999/xlink" x="0px" y="0px"
	 viewBox="0 0 777.6 206.8" enable-background="new 0 0 777.6 206.8" xml:space="preserve">
<g>
	<g>
		<g>
			<path fill="#0C3E5F" d="M85.5,0.1v23.3H54.4v93.3H31.1V23.4H0V0.1H85.5z"/>
			<path fill="#0C3E5F" d="M124.4,0.1v46.7h46.7V0.1h23.3v116.6h-23.3V70.1h-46.7v46.7h-23.3V0.1H124.4z"/>
			<path fill="#0C3E5F" d="M233.3,0.1v116.6h-23.3V0.1H233.3z"/>
			<path fill="#0C3E5F" d="M248.8,116.7V15.6C248.8,5.2,254,0,264.4,0h62.3c10.4,0,15.5,5.2,15.5,15.6v101.2h-23.3l-0.1-93.4h-46.6
				v93.4H248.8z"/>
			<path fill="#0C3E5F" d="M381,46.7h14.8l16.3-46.7h23.3L419,46.9c8.7,0.9,14.7,6.1,18,15.4l21.8,54.4h-23.3l-19.5-46.7H381v46.7
				h-23.3V0.1H381V46.7z"/>
			<path fill="#29ABE2" d="M552.2,23.3h-62.3v23.4h54.4c10.4,0,15.6,5.2,15.6,15.5v38.9c0,10.4-5.2,15.5-15.6,15.5h-77.7V93.4
				l70-0.1V70h-54.4c-10.4,0-15.5-5.2-15.5-15.5V15.6c0-10.4,5.2-15.6,15.5-15.6h77.8L552.2,23.3z"/>
			<path fill="#29ABE2" d="M668.7,101.1c0,10.4-5.2,15.5-15.5,15.5H591l7.8-23.3h46.7v-7.8H591c-10.4,0-15.6-5.2-15.6-15.5V0h23.3
				v62.2h46.7V0h23.4L668.7,101.1z"/>
			<path fill="#29ABE2" d="M769.9,23.3h-62.3v23.4H762c10.4,0,15.6,5.2,15.6,15.5v38.9c0,10.4-5.2,15.5-15.6,15.5h-77.8V93.4l70-0.1
				V70h-54.4c-10.4,0-15.6-5.2-15.6-15.5V15.6c0-10.4,5.2-15.6,15.6-15.6h77.8L769.9,23.3z"/>
		</g>
		<polygon fill="#29ABE2" points="575.9,160.5 8.5,160.5 17.4,136.6 583.9,136.9 		"/>
		<polygon fill="#0C3E5F" points="769.3,160.5 739,160.5 747.8,136.9 777.2,136.9 		"/>
		<polygon fill="#0C3E5F" points="721.1,160.5 690.9,160.5 699.6,136.9 729.1,136.9 		"/>
		<polygon fill="#0C3E5F" points="673,160.5 642.7,160.5 651.5,136.9 680.9,136.9 		"/>
		<polygon fill="#0C3E5F" points="624.8,160.5 594.5,160.5 603.3,136.9 632.8,136.9 		"/>
	</g>
	<text transform="matrix(1 0 0 1 466.0239 199.0904)" fill="#2FB5E8" font-family="'TrebuchetMS'" font-size="29.5267">Engagements that work</text>
</g>
</svg>
