<?xml version="1.0" encoding="UTF-8" standalone="no"?>
<svg width="96px" height="39px" viewBox="0 0 96 39" version="1.1" xmlns="http://www.w3.org/2000/svg" xmlns:xlink="http://www.w3.org/1999/xlink" xmlns:sketch="http://www.bohemiancoding.com/sketch/ns">
    <!-- Generator: Sketch 3.3.2 (12043) - http://www.bohemiancoding.com/sketch -->
    <title>thync</title>
    <desc>Created with Sketch.</desc>
    <defs></defs>
    <g id="Page-1" stroke="none" stroke-width="1" fill="none" fill-rule="evenodd" sketch:type="MSPage">
        <g id="thync" sketch:type="MSLayerGroup">
            <g id="g3349" sketch:type="MSShapeGroup">
                <path d="M47.8493774,20.9628972 L41.4761017,8.40478026 C41.4067354,8.26820852 41.2667061,8.18306728 41.1134951,8.18306728 L38.4509945,8.18306728 C38.3304138,8.18306728 38.2526197,8.30991477 38.3066434,8.41817812 L46.2723196,24.1100978 L47.8493774,20.9628972 L47.8493774,20.9628972 Z" id="path3" fill="#A7A7A8"></path>
                <path d="M7.59701895,27.1674031 L7.59701895,2.84293951 L0.16207089,2.84293951 C0.0726077587,2.84293951 0,2.77033175 0,2.68108471 L0,0.169202009 C0,0.0786584053 0.0726077587,0.00605064656 0.16207089,0.00605064656 L17.8772835,0.00605064656 C17.967395,0.00605064656 18.0391383,0.0786584053 18.0391383,0.169202009 L18.0391383,2.6813008 C18.0391383,2.77033175 17.9676111,2.8431556 17.8772835,2.8431556 L10.43434,2.8431556 L10.43434,27.1674031 C10.43434,27.256434 10.3617322,27.3283935 10.2718369,27.3283935 L7.75995421,27.3283935 C7.67049108,27.3283935 7.59701895,27.256434 7.59701895,27.1674031" id="path5" fill="#A7A7A8"></path>
                <path d="M35.669858,27.3283935 C35.5797466,27.3283935 35.5077871,27.256434 35.5077871,27.1658904 L35.5118929,16.7605071 C35.5270196,15.100469 34.8990489,13.5473976 33.7440237,12.3882666 C32.5859731,11.2263264 31.0350628,10.5866866 29.3761051,10.5866866 L29.3248907,10.5866866 C25.9162158,10.5866866 23.1437231,13.3565862 23.1437231,16.7613714 L23.1437231,16.9787625 L23.1406978,16.9787625 L23.1406978,27.1661065 C23.1406978,27.2566501 23.0676578,27.3286096 22.9779786,27.3286096 L20.4691212,27.3286096 C20.3790098,27.3286096 20.3061859,27.2566501 20.3061859,27.1661065 L20.3061859,0.162503079 C20.3061859,0.0734721368 20.3787937,0 20.4691212,0 L22.9779786,0 C23.0678739,0 23.1406978,0.0734721368 23.1406978,0.162503079 L23.1406978,10.5827969 C24.2142553,8.96878696 26.8203553,7.752607 29.3188401,7.752607 L29.3771856,7.752607 C31.7942028,7.752607 34.0586573,8.68829627 35.7515418,10.388528 C37.446155,12.0885435 38.367582,14.3571038 38.3459726,16.7747693 L38.3416507,27.1661065 C38.3416507,27.2566501 38.2690429,27.3286096 38.1791476,27.3286096 L35.669858,27.3286096 L35.669858,27.3283935 Z" id="path7" fill="#A7A7A8"></path>
                <path d="M41.447145,38.6377002 L56.7937457,8.40478026 C56.8628959,8.26820852 57.0029251,8.18306728 57.1561362,8.18306728 L59.8132344,8.18306728 C59.9342473,8.18306728 60.0129057,8.30991477 59.958666,8.4190425 L44.6159551,38.6502337 C44.5474531,38.7868054 44.4069917,38.872811 44.2542128,38.872811 L41.5917123,38.872811 C41.4696189,38.872811 41.3913926,38.7450992 41.447145,38.6377002" id="path9" fill="#58595B"></path>
                <path d="M75.1604833,27.3283935 C75.0710202,27.3283935 74.9979802,27.256434 74.9979802,27.1658904 L75.0031665,16.7203135 C75.0167804,15.0648134 74.3909707,13.5177927 73.2400513,12.3621192 C72.0852422,11.2032043 70.5373571,10.5650772 68.8799122,10.5650772 L68.8278334,10.5650772 C65.4325563,10.5650772 62.6706522,13.3269812 62.6706522,16.7220422 L62.6654659,27.1658904 C62.6654659,27.256434 62.592426,27.3283935 62.5023146,27.3283935 L59.9988596,27.3283935 C59.9093964,27.3283935 59.8367887,27.256434 59.8367887,27.165026 L59.8428393,16.7172882 C59.8428393,11.7654822 63.8725699,7.7368321 68.8278334,7.7368321 L68.8907169,7.7368321 C71.2980098,7.7368321 73.5542527,8.67036043 75.2430314,10.3667024 C76.9326744,12.0615317 77.8502118,14.3233931 77.8298989,16.7343596 L77.8253609,27.1656743 C77.8253609,27.2562179 77.7529692,27.3281774 77.6637222,27.3281774 L75.1604833,27.3281774 L75.1604833,27.3283935 Z" id="path11" fill="#A7A7A8"></path>
                <path d="M90.3201621,24.849141 C86.2560725,24.901652 82.9197892,21.7174993 82.8683587,17.7346612 C82.8167121,13.7535518 86.0689347,10.482313 90.1332404,10.4304503 C91.673346,10.4097052 93.1077815,10.8565887 94.2997588,11.6340968 C94.3736632,11.6831502 94.4700413,11.6652144 94.5199591,11.5932549 L95.8016157,9.76552745 C95.8530462,9.69140703 95.8353265,9.58897823 95.7614222,9.53776383 C95.5833603,9.41545433 95.4037857,9.29660234 95.2196732,9.18531367 C92.8428496,7.7485012 89.9078538,7.32171453 87.2375738,8.11067562 C85.1230889,8.73475659 83.2571128,10.0810255 81.970486,11.8676949 C80.6782408,13.6606312 79.9927889,15.8669562 80.0874383,18.0788997 C80.1957017,20.624061 81.3265243,23.093157 83.1700267,24.8504376 C85.0282234,26.6224127 87.5800836,27.6242269 90.1481509,27.5915966 C92.2161755,27.565017 94.1893345,26.8681121 95.873143,25.6854268 C95.9466152,25.6326998 95.9636866,25.530271 95.9103113,25.4559345 L94.5938635,23.6320967 C94.5426491,23.5607855 94.4456226,23.5452267 94.3736632,23.5934158 C93.2166931,24.3674664 91.8239639,24.8290443 90.3201621,24.849141" id="path13" fill="#A7A7A8"></path>
            </g>
        </g>
    </g>
</svg>