<?xml version="1.0" encoding="utf-8"?>
<!-- Generator: Adobe Illustrator 18.0.0, SVG Export Plug-In . SVG Version: 6.00 Build 0)  -->
<!DOCTYPE svg PUBLIC "-//W3C//DTD SVG 1.1//EN" "http://www.w3.org/Graphics/SVG/1.1/DTD/svg11.dtd">
<svg version="1.1" id="Layer_1" xmlns="http://www.w3.org/2000/svg" xmlns:xlink="http://www.w3.org/1999/xlink" x="0px" y="0px"
	 viewBox="1.5 1.833 267.782 64" enable-background="new 1.5 1.833 267.782 64" xml:space="preserve">
<path fill="#103A51" d="M45.5,1.833h16c2.209,0,4,1.791,4,4v8c0,2.209-1.791,4-4,4h-16c-2.209,0-4-1.791-4-4v-8
	C41.5,3.624,43.291,1.833,45.5,1.833z M25.5,13.833h16c2.209,0,4,1.791,4,4v8c0,2.209-1.791,4-4,4h-16c-2.209,0-4-1.791-4-4v-8
	C21.5,15.624,23.291,13.833,25.5,13.833z M5.5,25.833h16c2.209,0,4,1.791,4,4v8c0,2.209-1.791,4-4,4h-16c-2.209,0-4-1.791-4-4v-8
	C1.5,27.624,3.291,25.833,5.5,25.833z M45.5,25.833h16c2.209,0,4,1.791,4,4v8c0,2.209-1.791,4-4,4h-16c-2.209,0-4-1.791-4-4v-8
	C41.5,27.624,43.291,25.833,45.5,25.833z M25.5,37.833h16c2.209,0,4,1.791,4,4v8c0,2.209-1.791,4-4,4h-16c-2.209,0-4-1.791-4-4v-8
	C21.5,39.624,23.291,37.833,25.5,37.833z M5.5,49.833h16c2.209,0,4,1.791,4,4v8c0,2.209-1.791,4-4,4h-16c-2.209,0-4-1.791-4-4v-8
	C1.5,51.624,3.291,49.833,5.5,49.833z"/>
<path fill="#103A51" d="M79.628,12.151v5.607h9.518v26.061h6.66V17.758h9.475v-5.607C105.281,12.151,79.628,12.151,79.628,12.151z
	 M106.773,53.207c0.659,0.043,1.154,0.068,1.484,0.075s0.767,0.011,1.312,0.011c2.71,0,4.517-0.533,5.42-1.601
	c0.904-1.066,2.131-3.82,3.683-8.261L126.7,20.4h-6.51l-4.834,17.273L110.243,20.4h-6.811l8.605,24.449
	c0.043,0.172-0.09,0.645-0.398,1.418c-0.308,0.773-0.641,1.281-0.999,1.525c-0.372,0.258-0.831,0.422-1.375,0.494
	s-1.117,0.094-1.719,0.064l-0.773-0.043C106.773,48.307,106.773,53.207,106.773,53.207z M147.002,32.11
	c0,2.191-0.452,3.946-1.357,5.264c-0.905,1.317-2.219,1.977-3.94,1.977c-1.186,0-2.215-0.322-3.082-0.967
	c-1.461-1.103-2.191-3.015-2.191-5.736c0-1.719,0.217-3.137,0.652-4.254c0.839-2.105,2.38-3.158,4.622-3.158
	c1.867,0,3.217,0.695,4.048,2.084C146.586,28.708,147.002,30.305,147.002,32.11z M143.46,19.885c-1.89,0-3.519,0.523-4.887,1.568
	c-0.75,0.587-1.456,1.39-2.12,2.406V20.4h-5.864v32.635h6.059V40.832c0.647,0.988,1.312,1.74,1.988,2.256
	c1.24,0.931,2.797,1.396,4.671,1.396c2.941,0,5.346-1.081,7.212-3.244c1.867-2.163,2.8-5.307,2.8-9.432
	c0-3.91-0.954-6.875-2.865-8.895C148.544,20.895,146.213,19.885,143.46,19.885L143.46,19.885z M167.832,24.827
	c1.445,0,2.655,0.421,3.632,1.263c0.976,0.841,1.52,2.075,1.631,3.7h-10.549c0.223-1.524,0.766-2.733,1.631-3.625
	C165.042,25.273,166.261,24.827,167.832,24.827z M167.83,19.778c-3.433,0-6.224,1.083-8.374,3.247
	c-2.151,2.165-3.227,5.275-3.227,9.332c0,4.329,1.191,7.455,3.573,9.375c2.383,1.921,5.133,2.882,8.249,2.882
	c3.775,0,6.713-1.139,8.81-3.416c1.349-1.433,2.106-2.843,2.27-4.232h-6.251c-0.365,0.688-0.785,1.225-1.261,1.611
	c-0.872,0.717-2.005,1.074-3.399,1.074c-1.315,0-2.44-0.294-3.376-0.881c-1.538-0.945-2.355-2.593-2.449-4.941h17.057
	c0.029-2.022-0.037-3.572-0.202-4.647c-0.285-1.837-0.906-3.45-1.866-4.841c-1.064-1.578-2.413-2.733-4.046-3.464
	C171.703,20.144,169.868,19.778,167.83,19.778L167.83,19.778z M181.527,36.342c0,2.406,0.879,4.387,2.637,5.94
	c1.759,1.554,4.481,2.331,8.17,2.331c3.616,0,6.289-0.733,8.018-2.202c1.73-1.468,2.595-3.362,2.595-5.683
	c0-1.762-0.603-3.229-1.805-4.404c-1.218-1.16-3.047-2.026-5.485-2.6c-3.659-0.802-5.79-1.368-6.393-1.697
	c-0.604-0.315-0.905-0.823-0.905-1.525c0-0.559,0.283-1.045,0.851-1.461c0.567-0.415,1.518-0.623,2.854-0.623
	c1.623,0,2.771,0.416,3.447,1.246c0.358,0.458,0.582,1.082,0.668,1.869h6.122c-0.272-2.864-1.331-4.88-3.175-6.048
	c-1.845-1.167-4.232-1.751-7.159-1.751c-3.086,0-5.479,0.777-7.181,2.331c-1.701,1.554-2.552,3.413-2.552,5.575
	c0,1.833,0.545,3.237,1.634,4.211c1.088,0.988,2.963,1.812,5.624,2.471c3.696,0.874,5.831,1.489,6.405,1.848
	c0.574,0.358,0.861,0.881,0.861,1.568c0,0.717-0.357,1.254-1.069,1.611c-0.712,0.358-1.672,0.537-2.881,0.537
	c-2.059,0-3.469-0.408-4.232-1.225c-0.432-0.458-0.713-1.231-0.843-2.32L181.527,36.342L181.527,36.342z M220.918,34.709
	c-0.044,2.048-0.629,3.459-1.756,4.232s-2.36,1.16-3.697,1.16c-0.845,0-1.561-0.232-2.149-0.698
	c-0.589-0.465-0.884-1.221-0.884-2.267c0-1.174,0.482-2.041,1.446-2.6c0.57-0.329,1.508-0.608,2.815-0.838l1.393-0.258
	c0.697-0.129,1.245-0.269,1.646-0.419c0.398-0.15,0.795-0.347,1.187-0.591L220.918,34.709L220.918,34.709z M215.074,29.832
	c-2.381,0.301-4.185,0.802-5.41,1.504c-2.237,1.289-3.355,3.373-3.355,6.252c0,2.221,0.695,3.936,2.085,5.146
	c1.391,1.21,3.151,1.815,5.284,1.815c1.671,0,3.17-0.38,4.495-1.139c1.108-0.645,2.089-1.425,2.938-2.342
	c0.043,0.53,0.1,1.003,0.172,1.418c0.072,0.415,0.201,0.859,0.387,1.332h6.66v-0.902c-0.4-0.185-0.702-0.423-0.902-0.709
	s-0.322-0.83-0.365-1.633c-0.029-1.06-0.043-1.962-0.043-2.707V27.125c0-2.821-1-4.741-2.999-5.758
	c-1.999-1.017-4.286-1.525-6.861-1.525c-3.956,0-6.747,1.031-8.372,3.094c-1.021,1.318-1.598,3.001-1.727,5.049h5.908
	c0.145-0.902,0.436-1.618,0.871-2.149c0.609-0.716,1.648-1.074,3.114-1.074c1.307,0,2.298,0.183,2.973,0.548
	c0.676,0.365,1.013,1.028,1.013,1.987c0,0.788-0.441,1.368-1.32,1.74c-0.491,0.215-1.306,0.394-2.445,0.537L215.074,29.832z
	 M241.446,11.828c-3.395,0-5.536,0.702-6.424,2.106c-0.846,0.945-1.268,2.671-1.268,5.178v1.504h-3.352v4.318h3.438v18.885h6.08
	V24.934h4.018v-4.318h-4.018V18.64c0-0.458,0.153-0.877,0.462-1.257c0.308-0.379,0.866-0.559,1.676-0.537
	c0.809,0.021,1.386,0.054,1.73,0.097v-4.984l-1.289-0.097C242.184,11.839,241.833,11.828,241.446,11.828z M257.656,24.827
	c1.445,0,2.656,0.421,3.632,1.263c0.977,0.841,1.521,2.075,1.631,3.7H252.37c0.223-1.524,0.766-2.733,1.632-3.625
	C254.867,25.273,256.085,24.827,257.656,24.827z M257.654,19.778c-3.432,0-6.224,1.083-8.374,3.247
	c-2.151,2.165-3.226,5.275-3.226,9.332c0,4.329,1.19,7.455,3.572,9.375c2.383,1.921,5.133,2.882,8.249,2.882
	c3.776,0,6.713-1.139,8.81-3.416c1.349-1.433,2.104-2.843,2.27-4.232h-6.251c-0.364,0.688-0.785,1.225-1.261,1.611
	c-0.871,0.717-2.005,1.074-3.399,1.074c-1.315,0-2.44-0.294-3.376-0.881c-1.538-0.945-2.354-2.593-2.449-4.941h17.056
	c0.031-2.022-0.036-3.572-0.201-4.647c-0.284-1.837-0.906-3.45-1.865-4.841c-1.065-1.578-2.414-2.733-4.048-3.464
	C261.528,20.144,259.692,19.778,257.654,19.778L257.654,19.778z"/>
</svg>
