<?xml version="1.0" encoding="UTF-8" ?>
<!DOCTYPE svg PUBLIC "-//W3C//DTD SVG 1.1//EN" "http://www.w3.org/Graphics/SVG/1.1/DTD/svg11.dtd">
<svg width="1472pt" height="207pt" viewBox="0 0 1472 207" version="1.1" xmlns="http://www.w3.org/2000/svg">
<g id="#121125ff">
<path fill="#121125" opacity="1.00" d=" M 0.00 0.00 L 3.16 0.00 C 11.53 0.85 19.67 4.42 25.65 10.39 C 32.76 17.27 36.86 27.10 36.76 37.00 C 36.75 64.99 36.73 92.98 36.77 120.97 C 37.03 136.14 40.67 152.29 51.64 163.43 C 63.44 175.46 80.61 179.94 96.88 181.64 C 115.23 183.29 134.08 182.98 151.95 178.05 C 165.15 174.42 177.75 166.58 184.58 154.42 C 192.19 141.33 192.90 125.74 192.75 110.99 C 192.75 74.08 192.75 37.17 192.75 0.25 C 200.50 0.24 208.25 0.25 216.00 0.25 C 216.00 42.84 216.00 85.43 216.00 128.02 C 215.86 144.05 210.78 160.20 200.77 172.82 C 190.25 186.40 174.79 195.43 158.56 200.50 C 140.03 206.27 120.36 207.39 101.09 206.08 C 79.52 204.41 57.52 198.33 40.40 184.60 C 23.57 171.46 13.65 150.36 13.49 129.09 C 13.51 98.73 13.48 68.37 13.51 38.01 C 13.64 33.42 11.82 28.66 8.05 25.87 C 5.75 24.01 2.76 23.55 0.00 22.76 L 0.00 0.00 Z" />
<path fill="#121125" opacity="1.00" d=" M 423.50 0.00 L 579.09 0.00 C 593.56 1.09 607.46 8.09 616.80 19.21 C 626.70 30.86 631.41 46.78 629.20 61.93 C 627.38 76.04 619.62 89.15 608.38 97.82 C 622.63 108.24 632.12 125.22 632.28 143.01 C 632.94 158.46 626.91 173.97 616.13 185.03 C 605.77 195.83 591.03 202.40 576.03 202.51 C 525.19 202.48 474.34 202.52 423.50 202.50 C 423.49 135.00 423.50 67.50 423.50 0.00 M 447.00 22.00 C 446.99 44.54 447.01 67.08 446.99 89.62 C 451.16 88.15 455.50 86.96 459.96 87.00 C 498.29 87.01 536.62 86.99 574.96 87.00 C 585.76 87.11 596.40 81.41 602.28 72.35 C 609.51 61.67 609.29 46.66 601.85 36.15 C 595.72 27.14 584.92 21.82 574.07 22.04 C 531.71 21.94 489.36 22.03 447.00 22.00 M 447.00 122.89 C 446.99 142.09 447.00 161.29 447.00 180.50 C 489.99 180.50 532.98 180.49 575.97 180.50 C 592.70 180.30 607.72 166.55 609.90 150.06 C 611.57 139.43 608.04 128.18 600.62 120.39 C 593.89 113.05 583.97 109.01 574.07 109.02 C 536.68 108.99 499.30 108.98 461.92 109.02 C 454.27 108.62 447.00 115.17 447.00 122.89 Z" />
<path fill="#121125" opacity="1.00" d=" M 840.75 0.00 L 1028.50 0.00 C 1028.50 7.75 1028.51 15.50 1028.49 23.25 C 973.75 23.26 919.00 23.25 864.25 23.25 C 864.24 45.29 864.27 67.33 864.24 89.37 C 868.66 87.79 873.29 86.64 878.03 86.73 C 911.60 86.78 945.17 86.73 978.75 86.75 C 978.75 94.58 978.75 102.41 978.75 110.25 C 945.13 110.28 911.51 110.21 877.90 110.27 C 870.71 110.30 864.26 116.74 864.27 123.94 C 864.22 142.37 864.26 160.81 864.25 179.24 C 921.33 179.26 978.42 179.24 1035.50 179.25 C 1035.50 187.00 1035.50 194.75 1035.50 202.50 C 970.58 202.50 905.67 202.51 840.75 202.50 C 840.74 135.00 840.75 67.50 840.75 0.00 Z" />
<path fill="#121125" opacity="1.00" d=" M 1243.50 0.00 L 1398.36 0.00 C 1416.41 1.42 1433.61 11.15 1443.93 26.06 C 1454.48 40.85 1457.73 60.41 1452.91 77.88 C 1448.54 94.19 1437.04 108.39 1422.05 116.13 C 1413.96 120.44 1404.87 122.57 1395.77 123.18 C 1408.37 138.94 1420.75 154.88 1433.28 170.70 C 1436.69 174.60 1439.16 179.66 1443.96 182.08 C 1448.55 184.57 1454.01 183.41 1458.19 180.65 C 1462.80 186.48 1467.41 192.31 1472.00 198.16 L 1472.00 199.25 C 1469.40 200.95 1466.79 202.65 1463.92 203.82 C 1449.30 210.12 1430.89 205.56 1421.04 193.03 C 1402.79 169.78 1384.38 146.66 1366.24 123.32 C 1337.80 123.15 1309.35 123.30 1280.92 123.24 C 1273.14 122.95 1266.47 130.28 1266.99 137.95 C 1267.15 159.47 1266.82 180.98 1266.75 202.50 C 1259.00 202.51 1251.25 202.50 1243.50 202.50 C 1243.49 135.00 1243.50 67.50 1243.50 0.00 M 1266.75 22.00 C 1266.75 49.30 1267.18 76.58 1266.99 103.88 C 1275.55 100.30 1284.93 101.40 1293.95 101.25 C 1323.64 101.25 1353.32 101.25 1383.01 101.25 C 1390.99 101.12 1399.29 102.08 1406.89 99.00 C 1424.86 92.91 1436.51 72.69 1432.51 54.09 C 1429.41 36.45 1413.01 22.30 1395.07 22.00 C 1352.30 22.00 1309.53 22.00 1266.75 22.00 Z" />
</g>
</svg>
