<?xml version="1.0" encoding="utf-8"?>
<!-- Generator: Adobe Illustrator 18.0.0, SVG Export Plug-In . SVG Version: 6.00 Build 0)  -->
<!DOCTYPE svg PUBLIC "-//W3C//DTD SVG 1.1//EN" "http://www.w3.org/Graphics/SVG/1.1/DTD/svg11.dtd">
<svg version="1.1" id="Layer_1" xmlns="http://www.w3.org/2000/svg" xmlns:xlink="http://www.w3.org/1999/xlink" x="0px" y="0px"
	 viewBox="0 0 366.508 136.41" enable-background="new 0 0 366.508 136.41" xml:space="preserve">
<g>
	<g>
		<path fill="#141414" d="M161.068,56.686v39.58c0,3.027,1.279,4.541,4.541,4.541c3.492,0,9.662-2.096,14.783-4.771v-39.35h14.203
			v56.693H183.77l-1.396-4.773c-7.102,3.492-16.066,5.938-22.701,5.938c-9.43,0-12.805-6.637-12.805-16.762V56.686H161.068z"/>
		<path fill="#141414" d="M234.196,113.379v-39.58c0-3.027-1.281-4.539-4.541-4.539c-3.492,0-9.662,2.096-14.785,4.771v39.348
			h-14.201V56.686h10.826l1.398,4.773c7.1-3.492,16.062-5.938,22.699-5.938c9.43,0,12.805,6.637,12.805,16.764v41.094H234.196z"/>
		<path fill="#141414" d="M254.251,48.654V32.24h14.203v16.414H254.251z M254.251,113.379V56.686h14.203v56.693H254.251z"/>
		<path fill="#141414" d="M308.728,112.33c-3.025,1.281-8.848,2.213-12.457,2.213c-10.359,0-15.598-4.891-15.598-15.016V67.979h-8.5
			V56.686h8.5V42.602l14.201-1.981v16.065h14.551l-0.93,11.293h-13.621v29.686c0,3.025,1.396,5.004,5.123,5.004
			c2.096,0,4.656-0.463,7.1-1.162L308.728,112.33z"/>
		<path fill="#141414" d="M348.348,113.379l-7.598,23.031h-13.502l7.131-23.031h-5.006l-17.928-56.693h14.551l12.922,43.072
			l13.039-43.072h14.551L348.348,113.379z"/>
	</g>
	<path fill="#141414" d="M132.699,54.178L118.178,0L63.977,14.519l-8.023,14.147l-16.281-0.117L0,68.209l39.672,39.65h0.002
		l16.274-0.121l8.035,14.146l54.195,14.518l14.522-54.168l-8.246-14.029L132.699,54.178z M98.719,20.287L74.918,61.506H27.311
		l29.953-30.562L98.719,20.287z M74.918,74.898l23.807,41.213l-41.461-10.652L27.311,74.898H74.918z M86.52,68.205l23.803-41.219
		l11.502,41.219l-11.502,41.209L86.52,68.205z"/>
</g>
</svg>
