<?xml version="1.0" encoding="utf-8"?>
<!-- Generator: Adobe Illustrator 18.0.0, SVG Export Plug-In . SVG Version: 6.00 Build 0)  -->
<!DOCTYPE svg PUBLIC "-//W3C//DTD SVG 1.1//EN" "http://www.w3.org/Graphics/SVG/1.1/DTD/svg11.dtd">
<svg version="1.1"
	 id="svg3023" sodipodi:docname="New document 2" inkscape:version="0.48.2 r9819" xmlns:inkscape="http://www.inkscape.org/namespaces/inkscape" xmlns:sodipodi="http://sodipodi.sourceforge.net/DTD/sodipodi-0.dtd" xmlns:svg="http://www.w3.org/2000/svg" xmlns:rdf="http://www.w3.org/1999/02/22-rdf-syntax-ns#" xmlns:dc="http://purl.org/dc/elements/1.1/" xmlns:cc="http://creativecommons.org/ns#"
	 xmlns="http://www.w3.org/2000/svg" xmlns:xlink="http://www.w3.org/1999/xlink" x="0px" y="0px" viewBox="0 0 448 114.5"
	 enable-background="new 0 0 448 114.5" xml:space="preserve">
<sodipodi:namedview  inkscape:window-maximized="0" inkscape:window-y="22" inkscape:window-x="896" inkscape:window-height="1362" inkscape:window-width="1645" inkscape:current-layer="layer1" inkscape:document-units="px" inkscape:pageopacity="0.0" fit-margin-right="0" fit-margin-bottom="0" inkscape:pageshadow="2" fit-margin-top="0" showgrid="false" fit-margin-left="0" id="base" pagecolor="#ffffff" inkscape:cx="368.88048" inkscape:zoom="1.4" borderopacity="1.0" bordercolor="#666666" inkscape:cy="105.72257">
	</sodipodi:namedview>
<g id="layer1" transform="translate(-96.316514,-299.82709)" inkscape:groupmode="layer" inkscape:label="Layer 1">
	<g id="g5205">
		<g id="g4825" transform="matrix(1.3300829,0,0,-1.3300829,198.55865,301.60796)">
			<path id="path4827" inkscape:connector-curvature="0" fill="#BCD5EF" d="M-39.2,1.3c-1.7,0-5-0.6-5.4-4.6v-41.8v-2.8l48.6-1v42.8
				c0,0,0,5.1-4.8,5.6l-37.5,1.8C-38.3,1.3-38.6,1.3-39.2,1.3z M-29.8-16.5c2.7,0,4.8-2.2,4.8-4.8c0-2.7-2.2-4.8-4.8-4.8
				c-2.7,0-4.8,2.2-4.8,4.8C-34.7-18.7-32.5-16.5-29.8-16.5z M-7.7-16.5c2.7,0,4.8-2.2,4.8-4.8c0-2.7-2.2-4.8-4.8-4.8
				c-2.7,0-4.8,2.2-4.8,4.8C-12.6-18.7-10.4-16.5-7.7-16.5z M-60.4-27.1c0-4.5,1.3-8.1,3.1-8.2c1.7,0,3.2,3.6,3.2,8.1
				c0,4.5-1.3,8.1-3.1,8.2C-58.9-19-60.4-22.6-60.4-27.1 M-56-8.3v-7.3l0.1-1.4c1.6-1.4,2.8-5.4,2.8-10.1c0-4.4-1.3-8.5-2.8-10.1
				l0-2v-10.4l9.6,1.8v47.1C-46.4-0.8-56.2-5.5-56-8.3 M-46.4-49.6v-2.3l-9.6-0.7v1.5l7.2,1.1C-48.8-50-46.4-49.6-46.4-49.6z
				 M-63.8-84.8v26.2c0,0,0.2,3.5-3,3.4c0,0-8.4,0-10.1-7v-22.5C-76.9-84.8-63.8-84.8-63.8-84.8z M16.7-84.8v25.5
				c0,0,0.5,4.2-3.5,4.6l-68.4,1c0,0-6.8,1.3-7.1-4.8v-26.3C-62.3-84.8,16.7-84.8,16.7-84.8z M4.1-51.1l-11.9,0.4l-36.5,1.1
				l-0.1-2.2L4-53.1C4-53.1,4.1-51.1,4.1-51.1z"/>
		</g>
		<g id="g3013" transform="translate(85.746197,-143.93616)">
			<g id="g3076" transform="translate(-9.722718,143.54268)">
				<path id="path3904-5-7-5-2-2" inkscape:connector-curvature="0" fill="#1A2326" d="M413.2,338.2c-8,0-16.7,1.5-22.7,3.9
					l2.3,16.3c4.5-2.1,11.7-3.8,17.2-3.8c6.2,0,9.5,2,9.5,6.6c0,0.3,0,1.6-0.1,2.8c-24.7,0-34.1,4.7-34.1,18.5
					c0,12.2,7.6,19.2,20.5,19.2c5.5,0,10.6,0,15.5-3.9h0.6l0.9,3.9h16.7c-2.6-4.6-2.8-14.6-2.8-20.4c0.1-7.3,0.7-15.9,0.7-21.9
					C437.4,343.8,426.2,338.2,413.2,338.2z M419.1,376.6l0.1,1.6c0.2,2.9-0.7,5.3-2.6,7.3c-1.9,2-4.4,3.1-7.5,3.2
					c-2.4,0.1-4.4-0.3-5.8-1.2c-1.4-1-2.1-2.3-2.2-4.1c-0.1-1.9,0.6-3.4,2.2-4.5c1.6-1.1,4.1-1.7,7.5-1.9L419.1,376.6z"/>
				<path id="path3900-5-0-0-4-7" inkscape:connector-curvature="0" fill="#1A2326" d="M342.2,355.4v-17.2h-14.6v-20.9l-19.9,7.6
					v13.3h-9.3v17.2h9.3v19.5c0,11.8,4,26.4,27.3,27l6-17c-9.7-1.1-13.5-4.7-13.5-14.8v-14.6H342.2"/>
				<path id="path4120-2-8-4-8-3" sodipodi:nodetypes="cccccccccccccccc" inkscape:connector-curvature="0" fill="#1A2326" d="
					M168.2,338.2l14.1,63.6h16.5c-4.2-22.1-7.7-40.9-12-63.6H168.2z M203.3,338.2l-3.6,13l6.4,33.9l6.5-23.3l11.1,40h19.2l14-63.6
					h-18.5l-6.7,35.5l-9.8-35.5L203.3,338.2z"/>
				<path id="path4925-1-4-7" inkscape:connector-curvature="0" fill="#1A2326" d="M286.7,323.1c0,5.5-4.4,9.9-9.9,9.9
					c-5.5,0-9.9-4.4-9.9-9.9c0-5.5,4.4-9.9,9.9-9.9C282.3,313.1,286.7,317.6,286.7,323.1z"/>
				<path id="path4925-4-9-9-9" inkscape:connector-curvature="0" fill="#1A2326" d="M372.9,391.9c0,5.5-4.4,9.9-9.9,9.9
					c-5.5,0-9.9-4.4-9.9-9.9c0-5.5,4.4-9.9,9.9-9.9C368.5,382,372.9,386.4,372.9,391.9z"/>
				<path id="path4925-8-5-4-0" inkscape:connector-curvature="0" fill="#1A2326" d="M468.3,323.1c0,5.5-4.4,9.9-9.9,9.9
					c-5.5,0-9.9-4.4-9.9-9.9c0-5.5,4.4-9.9,9.9-9.9C463.9,313.1,468.3,317.6,468.3,323.1z"/>
				<path id="path3900-5-0-24-92-4-2" sodipodi:nodetypes="cccc" inkscape:connector-curvature="0" fill="#1A2326" d="M286.7,338.3
					h-19.9v63.5h19.9"/>
				<path id="path3900-5-0-24-9-9-5-3" sodipodi:nodetypes="cccc" inkscape:connector-curvature="0" fill="#1A2326" d="M468.3,338.6
					h-19.9v63.2h19.9"/>
			</g>
		</g>
	</g>
</g>
</svg>
