<?xml version="1.0" encoding="utf-8"?>
<!-- Generator: Adobe Illustrator 18.0.0, SVG Export Plug-In . SVG Version: 6.00 Build 0)  -->
<!DOCTYPE svg PUBLIC "-//W3C//DTD SVG 1.1//EN" "http://www.w3.org/Graphics/SVG/1.1/DTD/svg11.dtd">
<svg version="1.1" id="Layer_1" xmlns="http://www.w3.org/2000/svg" xmlns:xlink="http://www.w3.org/1999/xlink" x="0px" y="0px"
	 viewBox="0 0 290.568 84.203" enable-background="new 0 0 290.568 84.203" xml:space="preserve">
<linearGradient id="SVGID_1_" gradientUnits="userSpaceOnUse" x1="145.2841" y1="81.1887" x2="145.2841" y2="29.69">
	<stop  offset="0" style="stop-color:#ED1C24"/>
	<stop  offset="1" style="stop-color:#FFCB05"/>
</linearGradient>
<path fill="url(#SVGID_1_)" d="M41.654,62.409H0v-5.94l23.295-29.899H2.32V16.006h39.149v7.069l-22.072,28.77h22.258V62.409
	L41.654,62.409z M290.568,39.208c0-14.318-11.612-25.93-25.93-25.93c-14.318,0-25.93,11.612-25.93,25.93
	c0,14.318,11.612,25.93,25.93,25.93C278.957,65.138,290.568,53.526,290.568,39.208L290.568,39.208z M258.361,27.959l9.74,5.625
	l9.741,5.623l-9.741,5.623l-9.74,5.625V39.208V27.959L258.361,27.959z M249.17,39.208c0-8.542,6.927-15.468,15.468-15.468
	c8.542,0,15.468,6.927,15.468,15.468c0,8.542-6.927,15.468-15.468,15.468C256.097,54.676,249.17,47.749,249.17,39.208L249.17,39.208
	z M232.34,43.291h-30.27c0.48,6.728,4.733,10.1,12.73,10.1c5.104,0,9.59-1.206,13.457-3.619v10.333
	c-4.285,2.289-9.853,3.434-16.72,3.434c-7.486,0-13.302-2.073-17.448-6.233c-4.13-4.145-6.202-9.946-6.202-17.37
	c0-7.703,2.227-13.813,6.713-18.314c4.47-4.501,9.961-6.744,16.488-6.744c6.76,0,12.003,2.011,15.7,6.017
	c3.697,4.021,5.553,9.482,5.553,16.365V43.291L232.34,43.291z M219.069,34.49c0-6.636-2.691-9.961-8.074-9.961
	c-2.289,0-4.285,0.943-5.955,2.846c-1.686,1.903-2.691,4.285-3.062,7.115H219.069L219.069,34.49z M178.683,57.104
	c0,8.615-2.49,15.282-7.471,20.015c-4.996,4.718-12.204,7.084-21.67,7.084c-6.249,0-11.199-0.882-14.865-2.676V69.478
	c4.78,2.784,9.59,4.176,14.462,4.176c4.826,0,8.584-1.284,11.229-3.836c2.661-2.552,3.991-6.017,3.991-10.394v-3.681h-0.17
	c-3.264,5.197-8.09,7.796-14.462,7.796c-5.924,0-10.627-2.088-14.091-6.249c-3.48-4.176-5.212-9.76-5.212-16.767
	c0-7.857,1.933-14.091,5.8-18.716s8.956-6.93,15.266-6.93c5.646,0,9.884,2.165,12.699,6.527h0.17v-5.398h14.323V57.104
	L178.683,57.104z M164.545,40.12v-3.681c0-2.923-0.866-5.429-2.598-7.502c-1.748-2.057-4.006-3.093-6.775-3.093
	c-3.186,0-5.677,1.237-7.486,3.712c-1.81,2.475-2.722,5.97-2.722,10.472c0,3.867,0.866,6.914,2.583,9.172
	c1.732,2.243,4.083,3.372,7.069,3.372c2.97,0,5.367-1.129,7.192-3.418C163.633,46.88,164.545,43.864,164.545,40.12L164.545,40.12z
	 M121.22,57.104c0,8.615-2.49,15.282-7.471,20.015c-4.996,4.718-12.204,7.084-21.67,7.084c-6.249,0-11.199-0.882-14.865-2.676
	V69.478c4.779,2.784,9.59,4.176,14.462,4.176c4.826,0,8.584-1.284,11.229-3.836c2.661-2.552,3.991-6.017,3.991-10.394v-3.681h-0.17
	c-3.264,5.197-8.09,7.796-14.462,7.796c-5.924,0-10.627-2.088-14.091-6.249c-3.48-4.176-5.212-9.76-5.212-16.767
	c0-7.857,1.933-14.091,5.8-18.716c3.867-4.625,8.956-6.93,15.267-6.93c5.646,0,9.884,2.165,12.699,6.527h0.17v-5.398h14.323V57.104
	L121.22,57.104z M107.083,40.12v-3.681c0-2.923-0.866-5.429-2.598-7.502c-1.748-2.057-4.006-3.093-6.775-3.093
	c-3.187,0-5.677,1.237-7.486,3.712c-1.81,2.475-2.722,5.97-2.722,10.472c0,3.867,0.866,6.914,2.583,9.172
	c1.732,2.243,4.083,3.372,7.069,3.372c2.97,0,5.367-1.129,7.192-3.418C106.17,46.88,107.083,43.864,107.083,40.12L107.083,40.12z
	 M63.665,62.409H49.357V16.006h14.308V62.409L63.665,62.409z M49.357,11.482h14.308V0H49.357V11.482z"/>
</svg>
