<svg xmlns="http://www.w3.org/2000/svg" xmlns:xlink="http://www.w3.org/1999/xlink" version="1.1" id="Layer_1" x="0px" y="0px" width="100px" height="100px" viewBox="0 0 100 100" enable-background="new 0 0 100 100" xml:space="preserve">
<g id="Captions">
	<text transform="matrix(1 0 0 1 87.2129 -19.5)" font-family="'Helvetica'" font-size="2.4">S&#233;vag+Tina</text>
</g>
<path fill="#4a4a4a" d="M100,96.512c0,1.934-1.557,3.488-3.484,3.488H3.491C1.57,100,0,98.443,0,96.512  c0-1.93,1.57-3.488,3.491-3.488h93.022C98.443,93.023,100,94.582,100,96.512z"/>
<path fill="#4a4a4a" d="M88.377,71.91v21.113H11.632V71.908c0.664-0.42,1.288-0.92,1.862-1.49l4.314-4.314  c1.465-1.465,4.014-1.465,5.475,0l4.317,4.314c1.022,1.025,2.222,1.816,3.523,2.354c1.302,0.541,2.707,0.82,4.15,0.82  c2.896,0,5.626-1.125,7.671-3.174l4.316-4.314c1.466-1.465,4.01-1.465,5.487,0l4.313,4.314c1.023,1.025,2.209,1.816,3.515,2.354  c1.303,0.541,2.694,0.82,4.147,0.82c2.911,0,5.631-1.125,7.678-3.174l4.324-4.314c1.452-1.465,4.01-1.465,5.479,0l4.312,4.314  C87.088,70.988,87.712,71.49,88.377,71.91z"/>
<path fill="#4a4a4a" d="M94.189,66.615c-1.194,0.003-2.166-0.549-2.987-1.371c-0.659-0.659-1.318-1.318-1.978-1.979  c-0.391-0.391-0.781-0.781-1.17-1.172c-0.302-0.3-0.602-0.601-0.902-0.9c-0.178-0.178-0.358-0.369-0.557-0.523  c-0.244-0.211-0.586-0.395-0.798-0.631c-0.354-0.344-0.926-0.617-1.358-0.842c-0.512-0.268-1.043-0.48-1.592-0.658  c-1.584-0.514-3.257-0.671-4.906-0.445c-1.778,0.244-3.5,0.953-4.938,2.027c-0.657,0.494-1.233,1.066-1.812,1.646  c-1.213,1.213-2.426,2.426-3.639,3.639c-0.931,0.93-2.207,1.379-3.517,1.148c-0.991-0.175-1.718-0.742-2.403-1.429  c-1.244-1.244-2.49-2.487-3.734-3.731c-1.924-1.922-4.348-3.177-7.084-3.377c-3.166-0.275-6.312,0.988-8.54,3.215  c-1.2,1.199-2.4,2.398-3.601,3.6c-0.547,0.545-1.062,1.111-1.781,1.438c-1.455,0.66-3.236,0.351-4.367-0.783  c-1.121-1.123-2.242-2.247-3.364-3.372c-0.439-0.439-0.868-0.896-1.33-1.312c-1.297-1.137-2.793-1.991-4.464-2.442  c-2.882-0.776-6.023-0.303-8.553,1.272c-1.475,0.935-2.65,2.255-3.876,3.481c-0.674,0.675-1.347,1.349-2.02,2.021  c-0.786,0.787-1.647,1.385-2.801,1.469c-0.1,0.008-0.199,0.013-0.298,0.013c0-3.05,0-11.82,0-13.154c0-2.36,1.115-4.585,3.086-5.914  c1.214-0.816,2.618-1.187,4.071-1.187c0.445,0,73.082,0,74.18,0c3.821,0,7.032,3.134,7.032,6.978  C94.189,53.338,94.189,65.239,94.189,66.615z"/>
<path fill="#4a4a4a" d="M31.399,35.793v10.568h-9.303V35.793c0-2.568,2.082-4.65,4.65-4.65  C29.317,31.143,31.399,33.225,31.399,35.793z"/>
<path fill="#4a4a4a" d="M26.748,26.49c3.211,0,5.814-2.606,5.814-5.819c0-3.214-5.814-12.53-5.814-12.53s-5.813,9.316-5.813,12.53  C20.935,23.884,23.535,26.49,26.748,26.49z"/>
<path fill="#4a4a4a" d="M54.656,27.651v18.71h-9.304v-18.71c0-2.564,2.083-4.65,4.65-4.65  C52.573,23.001,54.656,25.087,54.656,27.651z"/>
<path fill="#4a4a4a" d="M50.004,18.351c3.208,0,5.814-2.606,5.814-5.817C55.818,9.316,50.004,0,50.004,0S44.19,9.316,44.19,12.533  C44.189,15.744,46.792,18.351,50.004,18.351z"/>
<path fill="#4a4a4a" d="M77.911,35.793v10.568h-9.304V35.793c0-2.568,2.084-4.65,4.649-4.65  C75.829,31.143,77.911,33.225,77.911,35.793z"/>
<path fill="#4a4a4a" d="M73.259,26.489c3.21,0,5.814-2.605,5.814-5.816c0-3.216-5.814-12.533-5.814-12.533  s-5.813,9.317-5.813,12.533C67.445,23.884,70.047,26.489,73.259,26.489z"/>
<line fill="none" stroke="#4a4a4a" stroke-width="0.25" stroke-miterlimit="10" x1="100" y1="-18.346" x2="87.213" y2="-18.346"/>
</svg>