<svg xmlns="http://www.w3.org/2000/svg" xmlns:xlink="http://www.w3.org/1999/xlink" version="1.1" id="Layer_1" x="0px" y="0px" width="89.704px" height="100px" viewBox="0 0 89.704 100" enable-background="new 0 0 89.704 100" xml:space="preserve">
<path fill="#4a4a4a" d="M45.895,14.604c-1.153,0-2.086-0.933-2.086-2.086V2.086C43.809,0.933,44.742,0,45.895,0  c1.153,0,2.086,0.933,2.086,2.086v10.432C47.981,13.671,47.048,14.604,45.895,14.604z"/>
<path fill="#4a4a4a" d="M64.667,20.861c-0.438,0-0.871-0.137-1.248-0.417c-0.926-0.69-1.111-1.998-0.418-2.919l6.258-8.346  c0.691-0.922,2-1.108,2.922-0.418c0.92,0.692,1.107,2,0.416,2.92l-6.26,8.344C65.93,20.574,65.301,20.861,64.667,20.861z"/>
<path fill="#4a4a4a" d="M25.035,20.861c-0.636,0-1.258-0.287-1.671-0.835l-6.258-8.344c-0.691-0.921-0.504-2.229,0.421-2.92  c0.916-0.691,2.224-0.506,2.916,0.418l6.259,8.346c0.692,0.921,0.504,2.229-0.417,2.919C25.911,20.725,25.47,20.861,25.035,20.861z"/>
<path fill="#4a4a4a" d="M10.427,35.464c-0.312,0-0.631-0.071-0.928-0.22l-8.346-4.172c-1.031-0.516-1.449-1.769-0.933-2.8  c0.517-1.03,1.767-1.444,2.798-0.933l8.347,4.172c1.031,0.516,1.446,1.769,0.933,2.8C11.931,35.042,11.195,35.464,10.427,35.464z"/>
<path fill="#4a4a4a" d="M79.274,35.464c-0.768,0-1.5-0.422-1.867-1.152c-0.518-1.031-0.098-2.284,0.934-2.8l8.344-4.172  c1.031-0.512,2.283-0.098,2.801,0.933c0.512,1.031,0.098,2.284-0.934,2.8l-8.344,4.172C79.903,35.393,79.586,35.464,79.274,35.464z"/>
<path fill="#4a4a4a" d="M75.102,52.152c0-2.086,0-1.148,0-2.086c0-16.128-13.08-29.205-29.207-29.205  c-16.129,0-29.205,13.077-29.205,29.205c0,6.811,2.351,13.062,6.258,18.027V100H60.5V89.703c6.91,0,12.516-5.603,12.516-12.517  v-6.258h6.258c1.152,0,2.086-0.934,2.086-2.087C81.36,68.299,75.102,52.152,75.102,52.152z M63.684,51.825  c-2.016-0.438-1.68-1.72-3.195-1.72c-1.521,0-1.877,0.976-1.975,1.604c-0.26,1.723-0.225,7.113-0.225,7.113  s-7.033,0.187-8.756-0.073c-0.627-0.098-1.605-0.455-1.605-1.975c0-1.516,1.279-1.182,1.721-3.199  c0.187-2.042-1.537-3.548-3.463-3.548c-1.924,0-3.652,1.506-3.46,3.548c0.437,2.018,1.716,1.684,1.716,3.199  c0,1.52-0.974,1.877-1.606,1.975c-1.719,0.26-8.958,0.073-8.958,0.073s0.138-5.394-0.124-7.114  c-0.098-0.629-0.452-1.607-1.971-1.607c-1.517,0-1.183,1.282-3.2,1.719c-2.045,0.192-3.548-1.535-3.548-3.459  c0-1.927,1.503-3.652,3.548-3.463c2.017,0.438,1.683,1.718,3.2,1.718c1.519,0,1.873-0.976,1.971-1.604  c0.262-1.726,0.225-7.114,0.225-7.114s7.138-1.075,8.857-0.814c0.632,0.093,1.606,0.45,1.606,1.971c0,1.515-1.279,1.181-1.716,3.198  c-0.191,2.045,1.537,3.548,3.46,3.548c1.926,0,3.649-1.503,3.463-3.548c-0.441-2.018-1.721-1.684-1.721-3.198  c0-1.521,0.979-1.878,1.605-1.971c1.723-0.261,8.861,0.814,8.861,0.814s-0.141,5.395,0.119,7.118  c0.098,0.626,0.453,1.604,1.975,1.604c1.516,0,1.18-1.282,3.195-1.72c2.045-0.191,3.549,1.534,3.549,3.464  C67.233,50.289,65.729,52.014,63.684,51.825z"/>
</svg>