<svg xmlns="http://www.w3.org/2000/svg" xmlns:xlink="http://www.w3.org/1999/xlink" version="1.1" x="0px" y="0px" width="100px" height="100px" viewBox="0 0 100 100" enable-background="new 0 0 100 100" xml:space="preserve">
<g id="Your_Icon">
	<g>
		<path fill="#4a4a4a" d="M49.779,0C22.286,0,0,22.286,0,49.779c0,27.493,22.286,49.779,49.779,49.779s49.779-22.286,49.779-49.779    C99.559,22.286,77.272,0,49.779,0z M92.325,54H82.136h-1.675c-2.154,15-15.066,26.651-30.682,26.651    c-17.123,0-31.003-13.791-31.003-30.915c0-17.123,13.88-31.045,31.003-31.045c15.825,0,28.871,11.774,30.759,27.088L80.546,45    h1.59h10.189C94.255,45,96,46.904,96,48.834v1.89C96,52.654,94.255,54,92.325,54z"/>
		<path fill="#4a4a4a" d="M49.779,23.725c-14.39,0-26.055,11.665-26.055,26.055c0,14.39,11.665,26.054,26.055,26.054s26.054-11.664,26.054-26.054    C75.833,35.389,64.169,23.725,49.779,23.725z M55.338,62.894c-3.09,1.498-15.29,5.303-15.29,5.303s-3.771-12.211-4.289-15.607    c-0.514-3.396,0.317-12.413,7.473-11.695c7.34,0.74,7.062,7.831,7.062,7.831s5.688-4.244,10.452,1.389    C65.391,55.604,58.429,61.395,55.338,62.894z"/>
	</g>
</g>
</svg>