<svg xmlns="http://www.w3.org/2000/svg" xmlns:xlink="http://www.w3.org/1999/xlink" version="1.0" x="0px" y="0px" width="100px" height="100px" viewBox="0 0 100 100" overflow="" enable-background="new 0 0 100 100" xml:space="preserve">
    <path fill="#4a4a4a" d="M99.23,79.853L69.594,50.22l13.842-13.845c0.792,0.113,1.639-0.126,2.254-0.741l5.821-5.817 c0.619-0.624,0.863-1.475,0.737-2.271l3.268-3.272c2.769-2.771,2.769-7.262,0-10.038l-8.576-8.581 c-2.771-2.767-7.274-2.767-10.045,0l-3.224,3.218c-0.829-0.168-1.73,0.071-2.38,0.72l-5.82,5.822 c-0.645,0.64-0.885,1.542-0.725,2.371L50.955,31.582L21.272,1.894c-0.746-0.737-1.946-0.737-2.688,0L2.621,17.867 c-0.737,0.737-0.737,1.941,0,2.683l3.752,3.75l6.668-6.672c0.325-0.32,0.851-0.32,1.175,0c0.324,0.329,0.324,0.855,0,1.176 l-6.672,6.671l3.778,3.778l6.668-6.671c0.324-0.325,0.851-0.325,1.175,0c0.325,0.324,0.325,0.851,0,1.175l-6.668,6.672l3.774,3.773 l6.668-6.672c0.329-0.325,0.854-0.325,1.175,0c0.325,0.324,0.325,0.851,0,1.175l-6.668,6.672l3.774,3.774l6.668-6.672 c0.325-0.324,0.851-0.324,1.179,0c0.32,0.324,0.32,0.851,0,1.176l-6.672,6.667l3.774,3.774l10.952-10.943 c0.324-0.328,0.851-0.328,1.171,0c0.325,0.321,0.325,0.847,0,1.175L27.346,45.271l3.774,3.774l6.672-6.668 c0.324-0.324,0.847-0.324,1.175,0c0.324,0.32,0.324,0.852,0,1.171l-28.049,28.07h0.004c-0.855,0.859-1.293,1.979-1.289,3.113 l0.063,13.791c0.101,0.724,0.425,1.431,0.985,1.996c0.564,0.568,1.276,0.893,2.001,0.989l13.787,0.06 c1.129,0.004,2.257-0.426,3.117-1.285L62.08,57.747c0.308-0.16,0.703-0.113,0.965,0.147c0.324,0.329,0.324,0.855,0,1.176 L52.093,70.018l3.774,3.774l6.677-6.669c0.323-0.323,0.85-0.323,1.17,0c0.325,0.325,0.325,0.852,0,1.176l-6.667,6.669l3.774,3.778 l6.667-6.673c0.324-0.324,0.852-0.324,1.18,0c0.319,0.328,0.319,0.851,0,1.176l-6.673,6.671l3.774,3.774l6.672-6.673 c0.324-0.323,0.847-0.323,1.176,0c0.324,0.33,0.324,0.852,0,1.18l-6.672,6.669l3.774,3.773l6.672-6.672 c0.324-0.324,0.851-0.324,1.174,0c0.326,0.324,0.326,0.852,0,1.18l-6.671,6.668l3.773,3.773l10.951-10.946 c0.326-0.324,0.852-0.324,1.176,0c0.324,0.323,0.324,0.85,0,1.175L76.848,94.768l3.736,3.736c0.741,0.741,1.941,0.741,2.683,0 L99.23,82.541C99.973,81.795,99.973,80.598,99.23,79.853z M79.312,8.492c1.271-1.274,3.34-1.274,4.611,0l4.348,4.345l-4.992,4.987 l-6.646-6.655L79.312,8.492z M73.907,12.875c0.404-0.405,1.062-0.405,1.471,0l6.427,6.428c0.4,0.409,0.4,1.065-0.008,1.47 c-0.404,0.404-1.062,0.404-1.465,0l-0.006,0.004l-6.385-6.386h0.017c-0.017-0.021-0.034-0.03-0.051-0.046 C73.499,13.937,73.499,13.284,73.907,12.875z M68.681,18.103c0.404-0.405,1.062-0.405,1.47,0c0.017,0.012,0.025,0.029,0.041,0.05 l0.006-0.004l6.381,6.377c0.404,0.409,0.404,1.066,0,1.47c-0.413,0.408-1.065,0.408-1.475,0L75.1,26.004l-6.445-6.445 c0-0.004,0.005-0.004,0.009-0.012C68.276,19.147,68.28,18.499,68.681,18.103z M15.868,85.476l-2.763-2.763l0.025-7.018 c1.247,1.02,2.776,1.524,4.305,1.534c0.004,1.714,0.648,3.424,1.934,4.75L15.868,85.476z M21.365,79.769 c-1.512-1.339-1.373-3.749,0.194-5.319l42.045-42.08c0.404-0.4,0.404-1.066,0-1.466c-0.403-0.404-1.066-0.404-1.471,0 L20.093,72.979c-1.592,1.584-4.044,1.715-5.379,0.148l52.228-52.27l6.651,6.656L21.365,79.769z"/>
</svg>