<svg xmlns="http://www.w3.org/2000/svg" xmlns:xlink="http://www.w3.org/1999/xlink" version="1.1" id="Your_Icon" x="0px" y="0px" width="99.085px" height="100px" viewBox="0 0 99.085 100" enable-background="new 0 0 99.085 100" xml:space="preserve">
<g>
	<path fill="#4a4a4a" d="M49.541,0C22.198-0.019,0.027,22.376,0,49.978C0.027,77.621,22.198,100.01,49.541,100   c27.353,0.011,49.523-22.379,49.544-50.021C99.064,22.376,76.894-0.019,49.541,0z M54.484,77.194h-9.159v-9.291h9.159V77.194z    M57.685,52.033c-2.379,1.557-3.266,3.359-3.242,5.261v7.015l-9.073,0.041V53.876c0.007-3.104,1.024-5.223,3.983-7.142l5.09-3.465   c3.264-2.226,3.246-6.714,1.222-8.722c-1.792-1.727-4.796-2.734-8.018-2.103c-5.854,1.202-6.326,5.537-6.312,9.64v1.799h-9.07   c0.014-7.711,0.864-11.207,4.905-15.603c4.496-4.957,10.845-5.752,16.699-4.561c5.861,1.236,12.832,6.95,12.842,15.251   C66.701,47.308,60.065,50.469,57.685,52.033z"/>
</g>
</svg>