<svg xmlns="http://www.w3.org/2000/svg" xmlns:xlink="http://www.w3.org/1999/xlink" version="1.1" id="Layer_1" x="0px" y="0px" width="100px" height="76.792px" viewBox="0 0 100 76.792" enable-background="new 0 0 100 76.792" xml:space="preserve">
<polygon fill="#4a4a4a" points="37.887,64.734 36.951,76.439 32.992,74.795 "/>
<polygon fill="#4a4a4a" points="21.722,60.972 18.917,70.726 14.658,68.257 "/>
<polygon fill="#4a4a4a" points="12.146,47.255 3.643,54.538 0,50.286 "/>
<polygon fill="#4a4a4a" points="85.792,47.455 100,47.242 98.474,52.202 "/>
<polygon fill="#4a4a4a" points="83.478,60.449 95.193,67.73 90.387,72.384 "/>
<polygon fill="#4a4a4a" points="49.099,14.628 54.258,2.583 48.238,0 "/>
<polygon fill="#4a4a4a" points="20.245,21.507 12.793,11.669 9.071,15.328 "/>
<polygon fill="#4a4a4a" points="79.53,23.637 85.787,15.375 88.914,18.447 "/>
<polygon fill="#4a4a4a" points="32.686,13.645 33.547,0.572 28.273,3.543 "/>
<polygon fill="#4a4a4a" points="66.502,15.983 72.304,5.101 66.565,3.464 "/>
<polygon fill="#4a4a4a" points="11.504,34.693 0.64,32.382 1.796,26.95 "/>
<polygon fill="#4a4a4a" points="84.221,34.693 95.085,32.382 93.93,26.95 "/>
<path fill="#4a4a4a" d="M77.748,31.958c-1.354-1.036-2.526-1.93-2.526-3.134c0-3.71-3.672-5.711-7.127-5.711c-1.092,0-2.086,0.202-2.875,0.583  c-0.3,0.146-0.589,0.219-0.857,0.219c-0.862,0-1.393-0.764-1.489-0.915c-1.419-2.243-3.361-3.379-5.772-3.379  c-1.994,0-3.923,0.773-5.332,1.338c-0.613,0.247-1.246,0.5-1.57,0.545c-1.43-1.689-3.979-2.692-6.865-2.692  c-3.246,0-7.038,1.35-8.194,4.368c-0.143,0.37-0.61,0.558-1.392,0.558c-0.455,0-0.902-0.065-1.201-0.115  c-0.552-0.092-1.094-0.139-1.614-0.139c-6.691,0-8.475,7.517-8.81,9.355c-1.325,0.602-5.797,2.889-7.354,6.984  c-0.876,2.306-0.673,4.769,0.604,7.323c1.743,3.487,5.531,5.569,10.13,5.569c1.58-0.002,3.135-0.271,4.265-0.738  c0.191-0.079,0.361-0.117,0.532-0.117c0.698,0,1.66,0.664,3.213,2.218c0.715,0.715,2.096,1.125,3.791,1.125  c2.237,0,4.95-0.739,6.375-2.372c1.411,0.831,5.342,3.249,7.844,5.751c4.19,4.189,1.76,17.251,1.734,17.383l-0.154,0.813  l11.631,0.015l0.058-0.63c0.778-8.437,5.322-10.598,5.399-10.646c3.27-0.817,5.514-2.303,6.674-4.417  c1.11-2.022,0.894-4.042,0.702-4.965c5.764-4.179,3.117-10.008,2.269-11.551C84.258,36.932,80.502,34.062,77.748,31.958z   M71.943,42.956c0.83,1.739,1.374,3.752,1.067,5.876c-0.304,2.174-1.603,3.931-3.026,5.275c2.634,1.68,3.734,5.657,2.369,5.177  c-1.325-0.463-1.002-3.814-4.161-3.699c-1.494,1.115-2.986,1.998-4.087,3.116c-2.725,2.745-4.162,6.362-4.862,9.505  c-0.694,3.167-0.611,6.656-0.649,8.576h-1.071c-0.146-1.93-0.089-5.469,0.453-8.818c0.253-1.673,0.684-3.479,1.396-5.325  c0.715-1.84,1.768-3.718,3.296-5.336c1.555-1.669,3.478-2.772,5.023-4.091c1.183-0.982,2.18-2.121,2.73-3.399  c-3.123-5.386-6.045-1.037-7.793-1.793c-1.857-0.8,4.312-4.289,8.12-1.863c-0.219-1.116-0.667-2.237-1.213-3.299  c-0.462-0.885-1.047-1.869-1.626-2.452c-0.628-0.669-1.44-1.186-2.288-1.642c-1.715-0.897-3.631-1.44-5.443-2.005  c-0.716-0.218-1.434-0.287-2.135-0.339c-0.683,0.67-1.901,2.053-2.383,3.024c-0.488,0.977-0.941,2.022-1.252,3.083  c-0.162,0.526-0.285,1.06-0.375,1.585c0.005,0.52-0.188,1.048-0.103,1.543c-0.003,1.005,0.181,1.969,0.457,2.782  c0.163,0.398,0.247,0.812,0.4,1.144c0.158,0.338,0.458,0.595,0.433,0.861c-0.177,1.688-2.089-1.346-2.089-1.346  c-0.349-0.383-0.595-0.881-0.823-1.429c-0.286-0.534-0.438-1.149-0.541-1.801c-0.117-0.457-0.125-0.928-0.114-1.409  c-3.795-1.797-4.724,2.338-6.436,2.348c-2.04,0.013,2.308-5.761,6.816-4.938c0.004-0.015,0.007-0.031,0.011-0.046  c0.438-1.299,1.024-2.516,1.763-3.506c0.417-0.592,1.213-1.453,1.948-2.192c-0.262-0.071-0.521-0.155-0.77-0.277  c-1.404-0.692-3.607-1.861-4.681-2.858l0.021,0.026c-0.757,0.453-2.831,1.496-3.908,1.817c-0.961,0.317-2.051,0.455-3.167,0.484  c-0.002,0.009-0.004,0.016-0.008,0.026c-0.3,0.776-0.878,1.888-1.986,2.918c-0.542,0.517-1.208,1.034-2.006,1.398  c-0.777,0.401-1.668,0.717-2.607,0.863c-0.469,0.11-0.946,0.137-1.434,0.166c-0.489,0.054-0.98,0.051-1.466-0.007  c-0.956-0.022-2.025-0.276-2.837-0.413c-0.899-0.179-1.853-0.408-2.544-0.388c-0.739-0.035-1.547-0.007-2.219,0.202  c-0.696,0.175-1.293,0.511-1.849,0.893c-0.506,0.439-0.977,0.911-1.331,1.44c-0.716,1.05-0.759,2.232-1.195,2.902  c-0.481,0.742-1.077-0.087-1.101-0.277c-0.111-0.82,0.313-1.909,0.868-3.322c0.275-0.704,0.88-1.411,1.489-2.098  c0.643-0.642,1.443-1.281,2.409-1.608c0.476-0.176,0.966-0.355,1.47-0.405c0.506-0.093,1.021-0.175,1.554-0.125  c1.134-0.011,1.98,0.191,2.895,0.342c0.999,0.202,1.724,0.415,2.585,0.468c0.829,0.104,1.643,0.136,2.413,0.066  c0.772-0.063,1.517-0.179,2.191-0.405c0.682-0.203,1.257-0.816,1.622-1.389c0.436-0.677,0.523-1.164,0.591-1.565  c-0.513-0.157-1.019-0.309-1.457-0.589c-0.536-0.278-1.023-0.587-1.401-0.99c-0.41-0.36-0.768-0.715-0.996-1.129  c0,0-2.071-2.531-0.562-2.194c0.237,0.053,0.375,0.389,0.62,0.624c0.243,0.229,0.576,0.422,0.874,0.675  c0.624,0.476,1.402,0.913,2.273,1.203c0.404,0.218,0.917,0.204,1.365,0.358c0.479,0.075,0.977,0.124,1.479,0.136  c1.009,0.038,2.044-0.05,3.031-0.19c0.989-0.136,2.562-0.806,3.33-1.198c-0.481-0.815-0.8-1.668-1.037-2.312  c-0.033-0.089-0.759-3.49,0.662-1.955c0.751,0.814,1.958,3.26,2.906,4.146c0.949,0.889,2.228,1.628,3.704,2.237  c1.266,0.522,2.699,0.925,4.236,1.306c0.542-4.467,7.102-7.046,6.555-5.104c-0.468,1.668-4.804,1.444-3.934,5.755  c1.304,0.328,2.657,0.711,4.03,1.32c1.011,0.452,2.009,1.067,2.878,1.919c0.599,0.603,1.024,1.188,1.416,1.796  c4.095-0.846,2.226-4.459,3.46-5.49C75.666,34.088,75.929,41.098,71.943,42.956z"/>
</svg>