<svg xmlns="http://www.w3.org/2000/svg" xmlns:xlink="http://www.w3.org/1999/xlink" version="1.1" x="0px" y="0px" width="100px" height="100px" viewBox="0 0 100 100" enable-background="new 0 0 100 100" xml:space="preserve">
<g id="Captions">
</g>
<g id="Your_Icon">
	<path fill="#b2a797" d="M30.351,31.551l3.958,5.074l10.178-25.145l-26.864,3.753l4.29,5.5c-7.36,7-11.909,16.543-12.617,26.761   C7.913,67.493,21.045,85.368,40.519,90l3.148-13.229c-12.975-3.088-21.724-15.006-20.802-28.338   C23.305,42.07,26.002,36.113,30.351,31.551z"/>
	<path fill="#b2a797" d="M90.707,53.121C92.155,32.195,77.073,13.25,56.375,10l-2.111,13.436   C68.054,25.6,78.103,38.232,77.14,52.185c-0.439,6.325-3.108,12.257-7.419,16.81l-3.971-5.062L55.655,89.11l26.851-3.846   l-4.311-5.485C85.494,72.796,90.01,63.285,90.707,53.121z"/>
</g>
</svg>