<svg xmlns="http://www.w3.org/2000/svg" xmlns:xlink="http://www.w3.org/1999/xlink" version="1.1" x="0px" y="0px" width="100px" height="100px" viewBox="0 0 100 100" enable-background="new 0 0 100 100" xml:space="preserve">
<g id="Your_Icon">
	<path fill="#4a4a4a" d="M93.677,13.603H6.324c-3.217,0-5.824,2.607-5.824,5.823v61.147c0,3.216,2.606,5.824,5.824,5.824h87.353   c3.217,0,5.823-2.608,5.823-5.824V19.426C99.5,16.21,96.894,13.603,93.677,13.603z M87.853,74.75H12.147v-49.5h75.706V74.75z"/>
	<path fill="#4a4a4a" d="M32.529,52.912h34.941c1.607,0,2.912-1.304,2.912-2.912s-1.305-2.912-2.912-2.912H32.529c-1.607,0-2.912,1.304-2.912,2.912   S30.922,52.912,32.529,52.912z"/>
	<path fill="#4a4a4a" d="M32.529,63.103h34.941c1.607,0,2.912-1.304,2.912-2.911s-1.305-2.912-2.912-2.912H32.529c-1.607,0-2.912,1.305-2.912,2.912   S30.922,63.103,32.529,63.103z"/>
	<path fill="#4a4a4a" d="M74.021,41.794h8.252c0.758,0,1.374-0.615,1.374-1.375V30.106c0-0.759-0.616-1.375-1.374-1.375h-8.252   c-0.759,0-1.375,0.616-1.375,1.375v10.312C72.646,41.179,73.262,41.794,74.021,41.794z"/>
</g>
</svg>