<svg xmlns="http://www.w3.org/2000/svg" xmlns:xlink="http://www.w3.org/1999/xlink" version="1.1" id="Capa_1" x="0px" y="0px" width="96.4px" height="92.286px" viewBox="0 0 96.4 92.286" enable-background="new 0 0 96.4 92.286" xml:space="preserve">
<path fill="#4a4a4a" d="M80.249-2.223H15.151c-8.459,0-15.316,6.858-15.316,15.317v65.098c0,8.459,6.857,15.317,15.316,15.317h65.098  c8.459,0,15.318-6.858,15.318-15.317V13.094C95.567,4.635,88.708-2.223,80.249-2.223z M70.187,57.364l-10.764,0.001l-23.453-0.001  H25.229c-4.604,0-8.336-5.232-8.336-11.725c0-6.48,3.731-11.725,8.335-11.725l10.743-0.001l23.453-0.001l10.764,0.001  c4.604,0,8.313,5.244,8.313,11.726C78.502,52.131,74.792,57.365,70.187,57.364z"/>
</svg>