<svg xmlns="http://www.w3.org/2000/svg" xmlns:xlink="http://www.w3.org/1999/xlink" version="1.1" x="0px" y="0px" width="100px" height="100px" viewBox="0 0 100 100" enable-background="new 0 0 100 100" xml:space="preserve">
<g id="Captions">
</g>
<g id="Your_Icon">
	<path fill="#4a4a4a" d="M95.588,38.202c-2.43,0-4.397,1.969-4.397,4.398v10.234H8.811V27.883c0-2.429-1.97-4.398-4.398-4.398   s-4.397,1.969-4.397,4.398v44.233c0,2.429,1.969,4.397,4.397,4.397s4.398-1.969,4.398-4.397v-7.314h82.38v7.314   c0,2.429,1.968,4.397,4.397,4.397c2.429,0,4.398-1.969,4.398-4.397V42.6C99.986,40.171,98.017,38.202,95.588,38.202z"/>
	<path fill="#4a4a4a" d="M16.649,49.866h13.403h3.93c2.17,0,3.93-1.76,3.93-3.93V33.339c0-2.169-1.76-3.929-3.93-3.929   c-2.17,0-3.93,1.759-3.93,3.929v8.667H16.649c-2.17,0-3.93,1.759-3.93,3.93C12.72,48.105,14.479,49.866,16.649,49.866z"/>
	<circle fill="#4a4a4a" cx="20.905" cy="32.754" r="7.748"/>
	<path fill="#4a4a4a" d="M88.362,39.61c0-5.634-4.566-10.2-10.199-10.2H40.766v20.455h47.597V39.61z"/>
</g>
</svg>