<?xml version="1.0" encoding="UTF-8" standalone="no"?>
<svg
   xmlns:dc="http://purl.org/dc/elements/1.1/"
   xmlns:cc="http://creativecommons.org/ns#"
   xmlns:rdf="http://www.w3.org/1999/02/22-rdf-syntax-ns#"
   xmlns:svg="http://www.w3.org/2000/svg"
   xmlns="http://www.w3.org/2000/svg"
   xml:space="preserve"
   enable-background="new 0 0 200 30"
   viewBox="0 0 181.89462 22.098606"
   height="22.098606"
   width="181.89462"
   y="0px"
   x="0px"
   id="Layer_1"
   version="1.1"><metadata
     id="metadata39"><rdf:RDF><cc:Work
         rdf:about=""><dc:format>image/svg+xml</dc:format><dc:type
           rdf:resource="http://purl.org/dc/dcmitype/StillImage" /><dc:title></dc:title></cc:Work></rdf:RDF></metadata><defs
     id="defs37" /><rect
     y="83.499687"
     x="-82.454979"
     height="110.96774"
     width="367.74194"
     id="rect4167"
     style="opacity:1;fill:#000000;fill-opacity:1;stroke:#000000;stroke-opacity:1" /><path
     style="fill:#e31c3d;fill-opacity:1;stroke:#e31c3d;stroke-width:0.60000002;stroke-miterlimit:10;stroke-opacity:1"
     id="path3"
     d="M 12.807629,0.59960562 0.5206294,21.798606 l 24.4999996,0 -12.213,-21.19900038 z m 2.737,6.81799998 7.691,13.3500004 -15.3999996,0 -1.19,0 -4.335,0 10.4949996,-18.1060004 2.145,3.723 0.594,1.033 z"
     stroke-miterlimit="10" /><path
     id="path5"
     d="m 12.765629,14.928606 c 0,0.597 -0.441,1.092 -1.015,1.178 -0.058,0.009 -0.117,0.016 -0.179,0.016 -0.518,0 -0.958,-0.333 -1.124,-0.796 -0.043,-0.124 -0.069,-0.258 -0.069,-0.397 0,-0.581 0.42,-1.069 0.975,-1.171 0.07,-0.014 0.143,-0.02 0.218,-0.02 0.505,0 0.936,0.314 1.11,0.756 0.054,0.135 0.084,0.283 0.084,0.434 z m -1.851,2.626 0,0 c 0.212,0.053 0.431,0.086 0.659,0.086 1.495,0 2.711,-1.215 2.711,-2.71 0,-0.733 -0.292,-1.396 -0.766,-1.884 l -1.319,-0.749 c -0.201,-0.052 -0.41,-0.079 -0.626,-0.079 -1.494,0 -2.7099996,1.217 -2.7099996,2.712 0,0.719 0.284,1.371 0.743,1.857"
     style="fill:#e31c3d;fill-opacity:1" /><polygon
     transform="translate(-1.4793706,-3.4003944)"
     id="polygon7"
     points="13.423,16.634 14.32,17.145 17.713,11.268 17.124,10.224 "
     stroke-miterlimit="10"
     style="fill:#e31c3d;fill-opacity:1;stroke:#e31c3d;stroke-width:0.60000002;stroke-miterlimit:10;stroke-opacity:1" /><polygon
     transform="translate(-1.4793706,-3.4003944)"
     style="fill:#e31c3d;fill-opacity:1;stroke:#e31c3d;stroke-width:0.60000002;stroke-miterlimit:10;stroke-opacity:1"
     id="polygon9"
     points="8.668,24.545 9.86,24.545 12.139,20.598 11.544,19.563 "
     stroke-miterlimit="10" /><g
     transform="translate(-1.4793706,-3.4003944)"
     style="fill:#e31c3d;fill-opacity:1;stroke:#e31c3d;stroke-opacity:1"
     id="g11"><path
       style="fill:#e31c3d;fill-opacity:1;stroke:#e31c3d;stroke-width:0.40000001;stroke-miterlimit:10;stroke-opacity:1"
       id="path13"
       d="m 33.527,8.201 5.432,0 c 0.729,0 1.376,0.101 1.941,0.302 0.565,0.201 1.03,0.479 1.395,0.832 0.547,0.574 0.821,1.257 0.821,2.05 l 0,0.036 c 0,0.415 -0.058,0.784 -0.173,1.107 -0.115,0.324 -0.271,0.604 -0.464,0.842 -0.194,0.238 -0.41,0.438 -0.647,0.603 -0.237,0.166 -0.482,0.303 -0.738,0.412 0.377,0.11 0.732,0.253 1.066,0.429 0.334,0.176 0.623,0.385 0.866,0.628 0.243,0.244 0.438,0.533 0.583,0.865 0.146,0.336 0.219,0.721 0.219,1.158 l 0,0.036 c 0,0.548 -0.11,1.037 -0.329,1.468 -0.219,0.432 -0.532,0.797 -0.939,1.096 -0.407,0.299 -0.896,0.524 -1.467,0.685 -0.572,0.156 -1.204,0.235 -1.896,0.235 l -5.67,0 0,-12.784 z m 8.146,3.388 c 0,-0.636 -0.243,-1.143 -0.729,-1.522 C 40.458,9.688 39.76,9.498 38.849,9.498 l -3.879,0 0,4.42 3.77,0 c 0.874,0 1.581,-0.192 2.122,-0.578 0.541,-0.386 0.811,-0.957 0.811,-1.715 l 0,-0.036 z m 0.713,5.781 c 0,-0.693 -0.286,-1.233 -0.857,-1.616 -0.571,-0.383 -1.415,-0.575 -2.532,-0.575 l -4.026,0 0,4.51 4.281,0 c 0.971,0 1.737,-0.199 2.295,-0.603 0.559,-0.401 0.838,-0.962 0.838,-1.681 l 0,-0.035 0.001,0 z"
       stroke-miterlimit="10" /><path
       style="fill:#e31c3d;fill-opacity:1;stroke:#e31c3d;stroke-width:0.40000001;stroke-miterlimit:10;stroke-opacity:1"
       id="path15"
       d="m 52.354,8.11 1.352,0 5.826,12.876 -1.552,0 -1.498,-3.379 -6.958,0 -1.517,3.379 -1.479,0 5.826,-12.876 z m 3.562,8.183 -2.905,-6.502 -2.922,6.502 5.827,0 z"
       stroke-miterlimit="10" /><path
       style="fill:#e31c3d;fill-opacity:1;stroke:#e31c3d;stroke-width:0.40000001;stroke-miterlimit:10;stroke-opacity:1"
       id="path17"
       d="m 65.363,15.928 -5.314,-7.727 1.753,0 4.301,6.393 4.337,-6.393 1.681,0 -5.314,7.708 0,5.077 -1.443,0 -0.001,-5.058 0,0 z"
       stroke-miterlimit="10" /><path
       style="fill:#e31c3d;fill-opacity:1;stroke:#e31c3d;stroke-width:0.40000001;stroke-miterlimit:10;stroke-opacity:1"
       id="path19"
       d="m 75.616,8.201 9.242,0 0,1.315 -7.799,0 0,4.365 6.977,0 0,1.315 -6.977,0 0,4.476 7.89,0 0,1.314 -9.333,0 0,-12.785 z"
       stroke-miterlimit="10" /><path
       style="fill:#e31c3d;fill-opacity:1;stroke:#e31c3d;stroke-width:0.40000001;stroke-miterlimit:10;stroke-opacity:1"
       id="path21"
       d="m 93.44,21.17 c -1.023,0 -1.958,-0.169 -2.804,-0.504 -0.847,-0.334 -1.653,-0.85 -2.42,-1.543 l 0.895,-1.059 c 0.669,0.608 1.345,1.062 2.027,1.36 0.682,0.298 1.467,0.446 2.356,0.446 0.864,0 1.555,-0.203 2.072,-0.612 0.519,-0.407 0.776,-0.928 0.776,-1.562 l 0,-0.036 c 0,-0.292 -0.049,-0.558 -0.146,-0.794 -0.098,-0.237 -0.268,-0.453 -0.512,-0.649 -0.244,-0.192 -0.582,-0.37 -1.014,-0.528 -0.432,-0.157 -0.983,-0.312 -1.653,-0.457 -0.73,-0.159 -1.366,-0.341 -1.909,-0.549 -0.541,-0.207 -0.989,-0.457 -1.341,-0.749 -0.354,-0.292 -0.615,-0.633 -0.786,-1.023 -0.171,-0.389 -0.256,-0.846 -0.256,-1.369 l 0,-0.037 c 0,-0.499 0.104,-0.962 0.311,-1.388 0.207,-0.426 0.499,-0.794 0.876,-1.105 0.377,-0.311 0.822,-0.554 1.333,-0.73 0.511,-0.176 1.071,-0.265 1.681,-0.265 0.938,0 1.756,0.131 2.456,0.393 0.7,0.262 1.38,0.654 2.036,1.178 l -0.84,1.114 C 95.98,10.215 95.382,9.862 94.779,9.642 94.176,9.423 93.546,9.314 92.888,9.314 c -0.84,0 -1.504,0.198 -1.99,0.593 -0.488,0.396 -0.73,0.886 -0.73,1.47 l 0,0.037 c 0,0.304 0.048,0.575 0.145,0.813 0.097,0.237 0.273,0.456 0.528,0.657 0.255,0.201 0.607,0.384 1.057,0.548 0.449,0.165 1.026,0.319 1.731,0.466 1.421,0.316 2.469,0.755 3.143,1.315 0.674,0.56 1.013,1.327 1.013,2.302 l 0,0.036 c 0,0.548 -0.109,1.044 -0.324,1.488 -0.218,0.444 -0.517,0.825 -0.896,1.142 -0.381,0.317 -0.84,0.562 -1.375,0.729 -0.533,0.174 -1.117,0.26 -1.75,0.26 z"
       stroke-miterlimit="10" /><path
       style="fill:#e31c3d;fill-opacity:1;stroke:#e31c3d;stroke-width:0.40000001;stroke-miterlimit:10;stroke-opacity:1"
       id="path23"
       d="m 108.652,8.201 1.443,0 0,12.785 -1.443,0 0,-12.785 z"
       stroke-miterlimit="10" /><path
       style="fill:#e31c3d;fill-opacity:1;stroke:#e31c3d;stroke-width:0.40000001;stroke-miterlimit:10;stroke-opacity:1"
       id="path25"
       d="m 115.066,8.201 1.461,0 4.656,6.978 4.658,-6.978 1.461,0 0,12.785 -1.443,0 0,-10.355 -4.655,6.85 -0.073,0 -4.658,-6.832 0,10.337 -1.404,0 0,-12.785 -0.003,0 z"
       stroke-miterlimit="10" /><path
       style="fill:#e31c3d;fill-opacity:1;stroke:#e31c3d;stroke-width:0.40000001;stroke-miterlimit:10;stroke-opacity:1"
       id="path27"
       d="m 132.227,8.201 4.776,0 c 0.716,0 1.369,0.095 1.958,0.283 0.59,0.189 1.096,0.457 1.514,0.804 0.42,0.347 0.74,0.77 0.967,1.269 0.225,0.5 0.338,1.065 0.338,1.698 l 0,0.037 c 0,0.694 -0.135,1.299 -0.401,1.817 -0.266,0.518 -0.629,0.953 -1.085,1.305 -0.455,0.354 -0.986,0.618 -1.594,0.795 -0.608,0.177 -1.251,0.266 -1.932,0.266 l -3.099,0 0,4.512 -1.442,0 0,-12.786 0,0 z m 4.601,6.959 c 0.523,0 1.002,-0.067 1.436,-0.201 0.432,-0.134 0.803,-0.326 1.113,-0.576 0.311,-0.249 0.547,-0.544 0.711,-0.885 0.165,-0.341 0.247,-0.724 0.247,-1.151 l 0,-0.037 c 0,-0.913 -0.313,-1.604 -0.94,-2.073 -0.627,-0.469 -1.457,-0.703 -2.492,-0.703 l -3.232,0 0,5.625 3.157,10e-4 0,0 z"
       stroke-miterlimit="10" /><path
       style="fill:#e31c3d;fill-opacity:1;stroke:#e31c3d;stroke-width:0.40000001;stroke-miterlimit:10;stroke-opacity:1"
       id="path29"
       d="m 149.104,8.11 1.354,0 5.826,12.876 -1.553,0 -1.498,-3.379 -6.959,0 -1.517,3.379 -1.479,0 5.826,-12.876 z m 3.561,8.183 -2.903,-6.502 -2.923,6.502 5.826,0 z"
       stroke-miterlimit="10" /><path
       style="fill:#e31c3d;fill-opacity:1;stroke:#e31c3d;stroke-width:0.40000001;stroke-miterlimit:10;stroke-opacity:1"
       id="path31"
       d="m 165.004,21.205 c -0.926,0 -1.777,-0.17 -2.557,-0.512 -0.78,-0.34 -1.456,-0.807 -2.027,-1.396 -0.572,-0.592 -1.021,-1.289 -1.343,-2.093 -0.323,-0.803 -0.483,-1.661 -0.483,-2.575 l 0,-0.036 c 0,-0.901 0.16,-1.754 0.483,-2.557 0.321,-0.804 0.771,-1.507 1.343,-2.109 0.571,-0.603 1.254,-1.078 2.045,-1.425 0.791,-0.347 1.655,-0.521 2.594,-0.521 0.586,0 1.111,0.049 1.58,0.146 0.469,0.097 0.903,0.234 1.307,0.411 0.4,0.176 0.772,0.39 1.113,0.639 0.34,0.25 0.668,0.527 0.985,0.832 l -0.985,1.06 c -0.548,-0.512 -1.135,-0.932 -1.762,-1.261 -0.629,-0.329 -1.379,-0.493 -2.256,-0.493 -0.708,0 -1.361,0.134 -1.965,0.401 -0.602,0.268 -1.126,0.64 -1.569,1.114 -0.444,0.475 -0.793,1.032 -1.042,1.671 -0.25,0.639 -0.373,1.325 -0.373,2.055 l 0,0.037 c 0,0.743 0.123,1.434 0.373,2.073 0.249,0.64 0.598,1.196 1.042,1.671 0.443,0.477 0.968,0.85 1.569,1.123 0.604,0.273 1.257,0.411 1.965,0.411 0.877,0 1.631,-0.162 2.266,-0.483 0.631,-0.322 1.254,-0.775 1.861,-1.361 l 0.95,0.933 c -0.329,0.341 -0.673,0.647 -1.032,0.923 -0.359,0.273 -0.747,0.508 -1.16,0.702 -0.412,0.194 -0.857,0.349 -1.334,0.456 -0.474,0.109 -1.004,0.164 -1.588,0.164 z"
       stroke-miterlimit="10" /><path
       style="fill:#e31c3d;fill-opacity:1;stroke:#e31c3d;stroke-width:0.40000001;stroke-miterlimit:10;stroke-opacity:1"
       id="path33"
       d="m 177.439,9.535 -4.291,0 0,-1.334 10.026,0 0,1.334 -4.293,0 0,11.451 -1.442,0 0,-11.451 z"
       stroke-miterlimit="10" /></g></svg>