<?xml version="1.0" encoding="UTF-8" standalone="no"?>
<svg
   xmlns:dc="http://purl.org/dc/elements/1.1/"
   xmlns:cc="http://creativecommons.org/ns#"
   xmlns:rdf="http://www.w3.org/1999/02/22-rdf-syntax-ns#"
   xmlns:svg="http://www.w3.org/2000/svg"
   xmlns="http://www.w3.org/2000/svg"
   viewBox="0 0 29.333332 30.666668"
   height="30.666668"
   width="29.333332"
   xml:space="preserve"
   version="1.1"
   id="svg2"><metadata
     id="metadata8"><rdf:RDF><cc:Work
         rdf:about=""><dc:format>image/svg+xml</dc:format><dc:type
           rdf:resource="http://purl.org/dc/dcmitype/StillImage" /></cc:Work></rdf:RDF></metadata><defs
     id="defs6" /><g
     transform="matrix(1.3333333,0,0,-1.3333333,0,30.666667)"
     id="g10"><g
       transform="translate(15.0003,23.0004)"
       id="g12"><path
         id="path14"
         style="fill:#ffffff;fill-opacity:1;fill-rule:nonzero;stroke:none"
         d="m 0,0 0,-1.001 -1,0 -1.001,0 -1,0 -1,0 -0.999,0 -1,0 -1,0 -1,0 0,1.001 -6,0 0,-1.001 -1,0 0,-1 0,-1 0,-1 0,-0.999 0,-1 1,0 0,-1 0,-1 -1,0 0,-1 0,-1.001 0,-1 0,-1 0,-1 0,-0.999 0,-1 0,-1 0,-1 1,0 0,-1 0,-1.001 0.999,0 0,-1 1,0 0,-1 1,0 0,-1 1.001,0 1,0 0,-0.999 1,0 1,0 1,0 1,0 0.999,0 1,0 1,0 1.001,0 1,0 1,0 0,0.999 1,0 1,0 0,1 1,0 0,1 0.999,0 0,1 1,0 0,1.001 0,1 1,0 0,9 -1,0 0,1 0,1 1,0 0,4.999 -1,0 L 5.999,0 0,0 Z" /></g><g
       transform="translate(20,21)"
       id="g16"><path
         id="path18"
         style="fill:#f6ba57;fill-opacity:1;fill-rule:nonzero;stroke:none"
         d="m 0,0 0,1 -1,0 -1,0 -1,0 -1,0 0,-1 -1,0 0,-1 -1,0 0,1 -1,0 -1,0 -1,0 -1,0 -1,0 -1,0 0,-1 -1,0 0,1 -1,0 0,1 -1,0 -1,0 -1,0 -1,0 0,-1 -1,0 0,-1 0,-1 0,-1 1,0 0,-1 1,0 0,-1 -1,0 0,-1 0,-1 -1,0 0,-1 0,-1 0,-1 0,-1 0,-1 0,-1 0,-1 1,0 0,-1 0,-1 1,0 0,-1 1,0 0,-1 1,0 0,-1 1,0 1,0 0,-1 1,0 1,0 1,0 1,0 1,0 1,0 1,0 1,0 0,1 1,0 1,0 0,1 1,0 0,1 1,0 0,1 1,0 0,1 0,1 1,0 0,1 0,1 0,1 0,1 0,1 0,1 0,1 -1,0 0,1 0,1 -1,0 0,1 1,0 0,1 1,0 0,1 0,1 0,1 -1,0 z" /></g><g
       transform="translate(12,9)"
       id="g20"><path
         id="path22"
         style="fill:#3a4b58;fill-opacity:1;fill-rule:nonzero;stroke:none"
         d="m 0,0 -1,0 -1,0 -1,0 0,-1 0,-1 1,0 0,-1 1,0 1,0 0,1 1,0 0,1 0,1 -1,0 z" /></g><g
       transform="translate(14.0004,12.9996)"
       id="g24"><path
         id="path26"
         style="fill:#3a4b58;fill-opacity:1;fill-rule:nonzero;stroke:none"
         d="m 0,0 0,-1 0,-1 1,0 0,1 0,1 -1,0 z" /></g><g
       transform="translate(7.0002,12.9996)"
       id="g28"><path
         id="path30"
         style="fill:#3a4b58;fill-opacity:1;fill-rule:nonzero;stroke:none"
         d="m 0,0 0,-1 0,-1 1,0 0,1 0,1 -1,0 z" /></g><path
       id="path32"
       style="fill:#ffffff;fill-opacity:1;fill-rule:nonzero;stroke:none"
       d="m 14,13 1,0 0,1.001 -1,0 L 14,13 Z" /><path
       id="path34"
       style="fill:#ffffff;fill-opacity:1;fill-rule:nonzero;stroke:none"
       d="m 7,13 1,0 0,1.001 -1,0 L 7,13 Z" /><g
       transform="translate(18,20)"
       id="g36"><path
         id="path38"
         style="fill:#3a4b58;fill-opacity:1;fill-rule:nonzero;stroke:none"
         d="m 0,0 -1,0 0,-1 0,-1 1,0 0,1 1,0 0,1 -1,0 z" /></g><g
       transform="translate(4,20)"
       id="g40"><path
         id="path42"
         style="fill:#3a4b58;fill-opacity:1;fill-rule:nonzero;stroke:none"
         d="m 0,0 -1,0 0,-1 1,0 0,-1 1,0 0,1 0,1 -1,0 z" /></g></g></svg>