<?xml version="1.0" encoding="UTF-8" standalone="no"?>
<svg width="532px" height="53px" viewBox="0 0 532 53" version="1.1" xmlns="http://www.w3.org/2000/svg" xmlns:xlink="http://www.w3.org/1999/xlink" xmlns:sketch="http://www.bohemiancoding.com/sketch/ns">
    <!-- Generator: Sketch 3.3 (11970) - http://www.bohemiancoding.com/sketch -->
    <title>Group Copy + II Copy Copy Copy + II</title>
    <desc>Created with Sketch.</desc>
    <defs></defs>
    <g id="Welcome" stroke="none" stroke-width="1" fill="none" fill-rule="evenodd" sketch:type="MSPage">
        <g id="Desktop-HD-Copy-7" sketch:type="MSArtboardGroup" transform="translate(-386.000000, -316.000000)">
            <g id="Group-Copy-+-II-Copy-Copy-Copy-+-II" sketch:type="MSLayerGroup" transform="translate(386.000000, 315.000000)">
                <g id="Group-Copy-+-II-Copy-Copy-Copy" sketch:type="MSShapeGroup">
                    <g id="Group-Copy">
                        <g id="C-+-V-+-L" transform="translate(43.698065, 0.935609)" fill="#5F5E5D">
                            <path d="M37.6848111,16.4683609 L44.246712,16.4683609 C43.8783228,13.8435874 43.0955073,11.529677 41.8982422,9.52656042 C40.7009771,7.5234438 39.2044182,5.85420498 37.4085205,4.5187939 C35.6126228,3.18338281 33.5634883,2.17032753 31.2610554,1.47959766 C28.9586225,0.788867791 26.5180802,0.443508036 23.9393554,0.443508036 C20.1633654,0.443508036 16.8133758,1.12271555 13.889286,2.48115097 C10.9651962,3.83958638 8.52465394,5.69301706 6.56758597,8.04149863 C4.610518,10.3899802 3.12547106,13.1413462 2.11240058,16.2956793 C1.0993301,19.4500124 0.592802462,22.823026 0.592802462,26.4148213 C0.592802462,30.0066167 1.06479413,33.3681183 2.00879162,36.499427 C2.95278911,39.6307358 4.3687641,42.3475658 6.25675908,44.6499987 C8.14475406,46.9524316 10.5162244,48.7598144 13.3712412,50.0722011 C16.226258,51.3845879 19.5647356,52.0407714 23.3867742,52.0407714 C29.6954404,52.0407714 34.6686209,50.3139726 38.3064648,46.8603233 C41.9443088,43.4066739 44.0855393,38.5716373 44.7302205,32.3550685 L38.1683196,32.3550685 C38.0301736,34.3812095 37.6157419,36.2691761 36.925012,38.0190251 C36.2342821,39.7688741 35.2787868,41.2769451 34.0584974,42.5432832 C32.8382079,43.8096213 31.387697,44.7996526 29.7069209,45.5134068 C28.0261449,46.227161 26.1036423,46.5840327 23.9393554,46.5840327 C20.9922412,46.5840327 18.459603,46.0314571 16.3413648,44.9262893 C14.2231265,43.8211215 12.4848157,42.3360746 11.1263803,40.4711039 C9.76794491,38.6061333 8.76640162,36.4188548 8.12172041,33.9092029 C7.4770392,31.3995511 7.15470343,28.740281 7.15470343,25.9313128 C7.15470343,23.352588 7.4770392,20.8659977 8.12172041,18.4714675 C8.76640162,16.0769373 9.76794491,13.9472188 11.1263803,12.0822482 C12.4848157,10.2172775 14.2116145,8.73223057 16.3068285,7.62706277 C18.4020424,6.52189498 20.9231686,5.96931937 23.8702827,5.96931937 C27.3239321,5.96931937 30.305538,6.84423075 32.8151898,8.59407976 C35.3248417,10.3439288 36.9480325,12.9686629 37.6848111,16.4683609 L37.6848111,16.4683609 Z" id="C"></path>
                            <path d="M74.3442308,51 L91.8886818,1.68213381 L85.0504903,1.68213381 L70.8215261,44.438099 L70.6833808,44.438099 L56.5925619,1.68213381 L49.5471524,1.68213381 L66.8843855,51 L74.3442308,51 Z" id="V" transform="translate(70.717917, 26.341067) rotate(-180.000000) translate(-70.717917, -26.341067) "></path>
                            <path d="M97.340398,1.61774295 L97.340398,50.9356091 L130.011758,50.9356091 L130.011758,45.4097978 L103.902299,45.4097978 L103.902299,1.61774295 L97.340398,1.61774295 Z" id="L"></path>
                        </g>
                        <path d="M35.2662435,15.1936018 L35.2662435,10.4966622 L0.177341519,26.3833698 L0.177341519,30.6658735 L35.2662435,46.4835085 L35.2662435,41.8556415 L5.91037078,28.5246216 L35.2662435,15.1936018 Z" id="&lt;-copy" fill="#5F5E5D"></path>
                        <path d="M203.107658,1.37911717 L182.731229,52.9763805 L187.704459,52.9763805 L208.149961,1.37911717 L203.107658,1.37911717 Z" id="/-copy" fill="#5F5E5D"></path>
                        <path d="M219.425173,2.55335208 L219.425173,51.8712183 L225.987074,51.8712183 L225.987074,29.2844644 L251.958387,29.2844644 L251.958387,51.8712183 L258.520288,51.8712183 L258.520288,2.55335208 L251.958387,2.55335208 L251.958387,23.7586531 L225.987074,23.7586531 L225.987074,2.55335208 L219.425173,2.55335208 Z" id="H" fill="#F6A623"></path>
                        <path d="M288.089253,51.9356091 L305.633704,2.61774295 L298.795512,2.61774295 L284.566548,45.3737082 L284.428403,45.3737082 L270.337584,2.61774295 L263.292174,2.61774295 L280.629407,51.9356091 L288.089253,51.9356091 Z" id="V-Copy" fill="#F6A623" transform="translate(284.462939, 27.276676) rotate(-180.000000) translate(-284.462939, -27.276676) "></path>
                        <path d="M345.382565,17.40397 L351.944466,17.40397 C351.576076,14.7791965 350.793261,12.4652862 349.595996,10.4621696 C348.398731,8.45905293 346.902172,6.78981411 345.106274,5.45440303 C343.310377,4.11899195 341.261242,3.10593666 338.958809,2.41520679 C336.656376,1.72447692 334.215834,1.37911717 331.637109,1.37911717 C327.861119,1.37911717 324.51113,2.05832469 321.58704,3.4167601 C318.66295,4.77519551 316.222408,6.6286262 314.26534,8.97710776 C312.308272,11.3255893 310.823225,14.0769554 309.810154,17.2312884 C308.797084,20.3856215 308.290556,23.7586351 308.290556,27.3504305 C308.290556,30.9422258 308.762548,34.3037274 309.706545,37.4350361 C310.650543,40.5663449 312.066518,43.283175 313.954513,45.5856079 C315.842508,47.8880408 318.213978,49.6954235 321.068995,51.0078102 C323.924012,52.320197 327.262489,52.9763805 331.084528,52.9763805 C337.393194,52.9763805 342.366375,51.2495818 346.004219,47.7959324 C349.642063,44.342283 351.783293,39.5072465 352.427974,33.2906776 L345.866073,33.2906776 C345.727927,35.3168186 345.313496,37.2047853 344.622766,38.9546343 C343.932036,40.7044833 342.976541,42.2125542 341.756251,43.4788923 C340.535962,44.7452304 339.085451,45.7352617 337.404675,46.4490159 C335.723899,47.1627701 333.801396,47.5196418 331.637109,47.5196418 C328.689995,47.5196418 326.157357,46.9670662 324.039119,45.8618984 C321.92088,44.7567306 320.182569,43.2716837 318.824134,41.406713 C317.465699,39.5417424 316.464155,37.3544639 315.819474,34.8448121 C315.174793,32.3351602 314.852457,29.6758901 314.852457,26.866922 C314.852457,24.2881971 315.174793,21.8016069 315.819474,19.4070767 C316.464155,17.0125464 317.465699,14.8828279 318.824134,13.0178573 C320.182569,11.1528866 321.909368,9.6678397 324.004582,8.56267191 C326.099796,7.45750411 328.620922,6.90492851 331.568036,6.90492851 C335.021686,6.90492851 338.003292,7.77983988 340.512944,9.52968889 C343.022595,11.2795379 344.645786,13.904272 345.382565,17.40397 L345.382565,17.40397 Z M360.578546,2.55335208 L360.578546,51.8712183 L367.140447,51.8712183 L367.140447,34.6030578 L375.360091,26.9359946 L393.180833,51.8712183 L401.46955,51.8712183 L379.849813,22.4462729 L400.640678,2.55335208 L392.144743,2.55335208 L367.140447,27.1432125 L367.140447,2.55335208 L360.578546,2.55335208 Z M435.176999,16.9895342 L441.393537,16.9895342 C441.301439,14.2726634 440.7834,11.935729 439.839402,9.97866106 C438.895405,8.02159309 437.606062,6.39840225 435.971334,5.10903982 C434.336607,3.8196774 432.437128,2.87569406 430.272841,2.27706151 C428.108555,1.67842896 425.760108,1.37911717 423.227432,1.37911717 C420.971048,1.37911717 418.772257,1.66691696 416.630995,2.24252519 C414.489732,2.81813342 412.578741,3.69304479 410.897965,4.86728557 C409.217189,6.04152635 407.870286,7.53808529 406.857216,9.35700729 C405.844145,11.1759293 405.337618,13.3286718 405.337618,15.8152993 C405.337618,18.0716835 405.786585,19.9481382 406.684534,21.4447196 C407.582483,22.941301 408.77973,24.1615721 410.276312,25.1055696 C411.772893,26.0495671 413.465156,26.8093585 415.353151,27.3849668 C417.241146,27.960575 419.163648,28.4671026 421.120716,28.9045649 C423.077784,29.3420271 425.000287,29.7679708 426.888282,30.1824088 C428.776277,30.5968467 430.46854,31.1379103 431.965121,31.8056158 C433.461703,32.4733214 434.65895,33.3367208 435.556899,34.3958399 C436.454847,35.454959 436.903815,36.8363981 436.903815,38.5401984 C436.903815,40.3360961 436.535431,41.809631 435.798653,42.9608475 C435.061874,44.1120639 434.094867,45.0215113 432.897602,45.6892168 C431.700337,46.3569224 430.353434,46.828914 428.856852,47.105206 C427.360271,47.3814979 425.875224,47.5196418 424.401667,47.5196418 C422.559721,47.5196418 420.76385,47.289402 419.014001,46.8289154 C417.264152,46.3684288 415.733057,45.6546853 414.42067,44.6876635 C413.108283,43.7206417 412.04918,42.4888586 411.243329,40.9922772 C410.437477,39.4956958 410.034557,37.7113371 410.034557,35.6391475 L403.81802,35.6391475 C403.81802,38.6323102 404.359083,41.2225084 405.441227,43.4098197 C406.52337,45.5971309 407.996905,47.3930016 409.861876,48.7974857 C411.726846,50.2019698 413.891101,51.249561 416.354704,51.9402909 C418.818307,52.6310208 421.43153,52.9763805 424.194449,52.9763805 C426.450833,52.9763805 428.718696,52.7116047 430.998104,52.1820452 C433.277513,51.6524856 435.338159,50.8005982 437.180106,49.6263574 C439.022052,48.4521166 440.530123,46.9325337 441.704364,45.0675631 C442.878604,43.2025924 443.465716,40.957754 443.465716,38.3329805 C443.465716,35.8924016 443.016748,33.866291 442.1188,32.254588 C441.220851,30.642885 440.023604,29.3074939 438.527022,28.2483748 C437.030441,27.1892557 435.338178,26.3488803 433.450183,25.7272234 C431.562188,25.1055665 429.639685,24.5645029 427.682617,24.1040163 C425.725549,23.6435297 423.803047,23.217586 421.915052,22.8261724 C420.027057,22.4347588 418.334794,21.9397432 416.838213,21.3411106 C415.341631,20.7424781 414.144384,19.9711746 413.246435,19.0271771 C412.348486,18.0831796 411.899519,16.8513965 411.899519,15.3317908 C411.899519,13.7200878 412.210343,12.3731847 412.831999,11.2910413 C413.453656,10.2088978 414.28252,9.3454984 415.318615,8.70081719 C416.354709,8.05613598 417.540445,7.5956563 418.875856,7.31936436 C420.211267,7.04307241 421.569682,6.90492851 422.951141,6.90492851 C426.358742,6.90492851 429.156156,7.69925594 431.343467,9.28793464 C433.530779,10.8766133 434.80861,13.4437875 435.176999,16.9895342 L435.176999,16.9895342 Z" id="CKS" fill="#F6A623"></path>
                        <path d="M451.705173,41.8556415 L451.705173,46.4835085 L486.794075,30.6658735 L486.794075,26.3833698 L451.705173,10.4966622 L451.705173,15.1936018 L481.061046,28.5246216 L451.705173,41.8556415 Z" id="&gt;-copy" fill="#F6A623"></path>
                    </g>
                </g>
                <path d="M505.068,1.164 L505.068,54 L512.098,54 L512.098,1.164 L505.068,1.164 Z M524.234,1.164 L524.234,54 L531.264,54 L531.264,1.164 L524.234,1.164 Z" id="II" fill="#5F5E5D" sketch:type="MSShapeGroup"></path>
            </g>
        </g>
    </g>
</svg>