<?xml version="1.0" encoding="UTF-8" standalone="no"?>
<svg width="56px" height="57px" viewBox="0 0 56 57" version="1.1" xmlns="http://www.w3.org/2000/svg" xmlns:xlink="http://www.w3.org/1999/xlink" xmlns:sketch="http://www.bohemiancoding.com/sketch/ns">
    <!-- Generator: Sketch 3.3 (11970) - http://www.bohemiancoding.com/sketch -->
    <title>Shape Copy + noun_2404</title>
    <desc>Created with Sketch.</desc>
    <defs></defs>
    <g id="Welcome" stroke="none" stroke-width="1" fill="none" fill-rule="evenodd" sketch:type="MSPage">
        <g id="Desktop-HD-Copy" sketch:type="MSArtboardGroup" transform="translate(-1291.000000, -26.000000)">
            <g id="Shape-Copy-+-noun_2404" sketch:type="MSLayerGroup" transform="translate(1291.000000, 26.133333)">
                <path d="M28,56.0326667 C43.4616,56.0326667 55.9981333,43.498 55.9981333,28.0289333 C55.9981333,12.5654667 43.4616,0.0270666667 28,0.0270666667 C12.5384,0.0270666667 0.00186666667,12.5654667 0.00186666667,28.0289333 C0.00186666667,43.498 12.5384,56.0326667 28,56.0326667" id="Shape-Copy" fill="#BC5478" sketch:type="MSShapeGroup"></path>
                <g id="noun_2404" transform="translate(12.500000, 17.794800)" fill="#FFFFFF" sketch:type="MSShapeGroup">
                    <path d="M1.82342,0 C-3.98570066e-14,0 0.91171,0.628590556 1.82342,1.38944967 L14.58829,12.0411623 L29.17689,1.38944967 C30.08891,0.628590556 31,0 29.17689,0 L14.58829,0 L1.82342,0 L1.82342,0 Z" id="Shape"></path>
                    <path d="M0,2.77889933 L0,18.5251557 C0,19.4513505 0.92318,20.3775453 1.65261,20.3775453 L29.3477,20.3775453 C30.07682,20.3775453 31,19.4516655 31,18.5251557 L31,2.77858441 L14.58829,14.8197467 L0,2.77889933 L0,2.77889933 Z" id="Shape"></path>
                </g>
            </g>
        </g>
    </g>
</svg>