<?xml version="1.0" encoding="UTF-8" standalone="no"?>
<svg width="56px" height="57px" viewBox="0 0 56 57" version="1.1" xmlns="http://www.w3.org/2000/svg" xmlns:xlink="http://www.w3.org/1999/xlink" xmlns:sketch="http://www.bohemiancoding.com/sketch/ns">
    <!-- Generator: Sketch 3.3 (11970) - http://www.bohemiancoding.com/sketch -->
    <title>Group Copy 2</title>
    <desc>Created with Sketch.</desc>
    <defs></defs>
    <g id="Welcome" stroke="none" stroke-width="1" fill="none" fill-rule="evenodd" sketch:type="MSPage">
        <g id="Desktop-HD-Copy" sketch:type="MSArtboardGroup" transform="translate(-1210.000000, -26.000000)">
            <g id="Group-Copy-2" sketch:type="MSLayerGroup" transform="translate(1210.000000, 26.133333)">
                <path d="M28,56.0336 C43.4616,56.0336 55.9981333,43.4989333 55.9981333,28.0298667 C55.9981333,12.5664 43.4616,0.028 28,0.028 C12.5384,0.028 0.00186666667,12.5664 0.00186666667,28.0298667 C0.00186666667,43.4989333 12.5384,56.0336 28,56.0336" id="Shape" fill="#547BBC" sketch:type="MSShapeGroup"></path>
                <path d="M21.2445333,23.2922667 L24.1416,23.2922667 L24.1416,20.4773333 C24.1416,19.236 24.1733333,17.3226667 25.0730667,16.1354667 C26.0213333,14.8829333 27.3261333,14.0298667 29.5661333,14.0298667 C33.2173333,14.0298667 34.7554667,14.5506667 34.7554667,14.5506667 L34.0312,18.8402667 C34.0312,18.8402667 32.8253333,18.4893333 31.6997333,18.4893333 C30.5722667,18.4893333 29.5642667,18.8944 29.5642667,20.0181333 L29.5642667,23.2904 L34.1805333,23.2904 L33.8576,27.4773333 L29.5642667,27.4773333 L29.5642667,42.0298667 L24.1397333,42.0298667 L24.1397333,27.4773333 L21.2426667,27.4773333 L21.2426667,23.2922667 L21.2445333,23.2922667 Z" id="Shape" fill="#FFFFFF" sketch:type="MSShapeGroup"></path>
            </g>
        </g>
    </g>
</svg>