<?xml version="1.0" encoding="UTF-8" standalone="no"?>
<svg width="15px" height="29px" viewBox="0 0 15 29" version="1.1" xmlns="http://www.w3.org/2000/svg" xmlns:xlink="http://www.w3.org/1999/xlink" xmlns:sketch="http://www.bohemiancoding.com/sketch/ns">
    <!-- Generator: Sketch 3.3 (11970) - http://www.bohemiancoding.com/sketch -->
    <title>Group Copy 2</title>
    <desc>Created with Sketch.</desc>
    <defs></defs>
    <g id="Welcome" stroke="none" stroke-width="1" fill="none" fill-rule="evenodd" sketch:type="MSPage">
        <g id="Desktop-HD-Copy-6" sketch:type="MSArtboardGroup" transform="translate(-714.000000, -45.000000)" fill="#FFFFFF">
            <g id="Group-Copy-2" sketch:type="MSLayerGroup" transform="translate(714.500000, 45.133333)">
                <path d="M0.244533333,9.29226667 L3.1416,9.29226667 L3.1416,6.47733333 C3.1416,5.236 3.17333333,3.32266667 4.07306667,2.13546667 C5.02133333,0.882933333 6.32613333,0.0298666667 8.56613333,0.0298666667 C12.2173333,0.0298666667 13.7554667,0.550666667 13.7554667,0.550666667 L13.0312,4.84026667 C13.0312,4.84026667 11.8253333,4.48933333 10.6997333,4.48933333 C9.57226667,4.48933333 8.56426667,4.8944 8.56426667,6.01813333 L8.56426667,9.2904 L13.1805333,9.2904 L12.8576,13.4773333 L8.56426667,13.4773333 L8.56426667,28.0298667 L3.13973333,28.0298667 L3.13973333,13.4773333 L0.242666667,13.4773333 L0.242666667,9.29226667 L0.244533333,9.29226667 Z" id="Shape" sketch:type="MSShapeGroup"></path>
            </g>
        </g>
    </g>
</svg>