<?xml version="1.0" encoding="UTF-8" standalone="no"?>
<svg
   xmlns:dc="http://purl.org/dc/elements/1.1/"
   xmlns:cc="http://creativecommons.org/ns#"
   xmlns:rdf="http://www.w3.org/1999/02/22-rdf-syntax-ns#"
   xmlns:svg="http://www.w3.org/2000/svg"
   xmlns="http://www.w3.org/2000/svg"
   viewBox="0 0 995.55603 746.66669"
   height="746.66669"
   width="995.55603"
   xml:space="preserve"
   version="1.1"
   id="svg2"><metadata
     id="metadata8"><rdf:RDF><cc:Work
         rdf:about=""><dc:format>image/svg+xml</dc:format><dc:type
           rdf:resource="http://purl.org/dc/dcmitype/StillImage" /></cc:Work></rdf:RDF></metadata><defs
     id="defs6"><clipPath
       id="clipPath18"
       clipPathUnits="userSpaceOnUse"><path
         id="path20"
         d="m 0,560 746.667,0 0,-560 L 0,0 0,560 Z" /></clipPath><clipPath
       id="clipPath26"
       clipPathUnits="userSpaceOnUse"><path
         id="path28"
         d="m 112.167,98 552.25,0 0,-22.25 -552.25,0 0,22.25 z" /></clipPath><clipPath
       id="clipPath70"
       clipPathUnits="userSpaceOnUse"><path
         id="path72"
         d="m 205.583,257.5 84.834,0 0,-124.833 -84.834,0 0,124.833 z" /></clipPath><clipPath
       id="clipPath106"
       clipPathUnits="userSpaceOnUse"><path
         id="path108"
         d="m 314.042,263.667 44.211,0 0,-129.167 -44.211,0 0,129.167 z" /></clipPath><clipPath
       id="clipPath122"
       clipPathUnits="userSpaceOnUse"><path
         id="path124"
         d="m 388.771,300.5 75.729,0 0,-62.5 -75.729,0 0,62.5 z" /></clipPath><clipPath
       id="clipPath138"
       clipPathUnits="userSpaceOnUse"><path
         id="path140"
         d="m 346.167,245.356 118.333,0 0,-110.856 -118.333,0 0,110.856 z" /></clipPath></defs><g
     transform="matrix(1.3333333,0,0,-1.3333333,0,746.66667)"
     id="g10"><path
       id="path12"
       style="fill:#ed5f5f;fill-opacity:1;fill-rule:nonzero;stroke:none"
       d="m 0,0 746.667,0 0,560 L 0,560 0,0 Z" /><g
       id="g14"><g
         clip-path="url(#clipPath18)"
         id="g16"><g
           id="g22"><g
             id="g24" /><g
             id="g30"><g
               style="opacity:0.16999799"
               id="g32"
               clip-path="url(#clipPath26)"><g
                 id="g34"
                 transform="translate(112.1667,86.875)"><path
                   id="path36"
                   style="fill:#000000;fill-opacity:1;fill-rule:nonzero;stroke:none"
                   d="m 0,0 c 0,-6.144 123.625,-11.125 276.125,-11.125 152.5,0 276.125,4.981 276.125,11.125 0,6.144 -123.625,11.125 -276.125,11.125 C 123.625,11.125 0,6.144 0,0" /></g></g></g></g><g
           transform="translate(242.6357,86.1667)"
           id="g38"><path
             id="path40"
             style="fill:#d8d4d4;fill-opacity:1;fill-rule:nonzero;stroke:none"
             d="m 0,0 183.711,0 c 1.917,0 3.487,1.569 3.487,3.487 l 0,14.904 c 0,1.918 -1.57,3.487 -3.487,3.487 l -194.847,0 0,-10.742 C -11.136,5.011 -6.125,0 0,0" /></g><g
           transform="translate(417.7917,86.1058)"
           id="g42"><path
             id="path44"
             style="fill:#a8a7ab;fill-opacity:1;fill-rule:nonzero;stroke:none"
             d="m 0,0 185.107,0 c 4.428,0 8.018,3.64 8.018,8.13 l 0,13.87 L 6.936,22 C 6.936,22 10.579,4.182 0,0" /></g><g
           transform="translate(493.75,101.8333)"
           id="g46"><path
             id="path48"
             style="fill:#d8d4d4;fill-opacity:1;fill-rule:nonzero;stroke:none"
             d="m 0,0 29,0 c 1.787,0 3.25,1.462 3.25,3.25 l 0,3.25 -35.5,0 0,-3.25 C -3.25,1.462 -1.788,0 0,0" /></g><g
           transform="translate(236.8963,113.5833)"
           id="g50"><path
             id="path52"
             style="fill:none;stroke:#000000;stroke-width:8;stroke-linecap:butt;stroke-linejoin:miter;stroke-miterlimit:10;stroke-dasharray:none;stroke-opacity:1"
             d="m 0,0 229.27,0 -26.499,139.917 -229.271,0 L 0,0 Z" /></g><g
           transform="translate(233.5833,109.5833)"
           id="g54"><path
             id="path56"
             style="fill:#d8d4d4;fill-opacity:1;fill-rule:nonzero;stroke:none"
             d="m 0,0 1,0 c 1.1,0 -29,147.917 -29,147.917 -1.1,0 -3,-0.667 -3,-3 L -2,2 C -2,0.9 -1.1,0 0,0" /></g><g
           transform="translate(329.8333,249.5)"
           id="g58"><path
             id="path60"
             style="fill:#ed5f5f;fill-opacity:1;fill-rule:nonzero;stroke:none"
             d="M 0,0 -84.833,0" /></g><g
           transform="translate(240.4069,117.28)"
           id="g62"><path
             id="path64"
             style="fill:#ed5f5f;fill-opacity:1;fill-rule:nonzero;stroke:none"
             d="m 0,0 221.093,0 -25,132.22 -221.167,0 L 0,0 Z" /></g><g
           id="g66"><g
             id="g68" /><g
             id="g74"><g
               style="opacity:0.25"
               id="g76"
               clip-path="url(#clipPath70)"><g
                 id="g78"
                 transform="translate(230.5217,132.6667)"><path
                   id="path80"
                   style="fill:#ffffff;fill-opacity:1;fill-rule:nonzero;stroke:none"
                   d="m 0,0 59.895,124.833 -84.833,0 L 0,0 Z" /></g></g></g></g><g
           transform="translate(330.8333,258.5)"
           id="g82"><path
             id="path84"
             style="fill:#ed5f5f;fill-opacity:1;fill-rule:nonzero;stroke:none"
             d="m 0,0 c 0,0 -7.792,-10.831 -8.917,-12.472 0.25,-1.969 4.75,-34.134 4.75,-36.431 0,-2.298 -1.833,-27.898 -1.833,-30.195 0,-2.298 -0.667,-22.318 -0.667,-22.318 0,0 -3,55.139 -3,52.841 0,-1.696 -0.75,1.641 -11.125,38.072 C -18.667,0 -19.764,-5.705 -18.667,0 L 0,0 Z" /></g><g
           transform="translate(329.8333,257.5)"
           id="g86"><path
             id="path88"
             style="fill:#a8a7ab;fill-opacity:1;fill-rule:nonzero;stroke:none"
             d="m 0,0 c 0,0 -3.167,-9.503 -2.917,-11.472 0.25,-1.969 4.75,-34.134 4.75,-36.431 C 1.833,-50.201 0,-75.801 0,-78.098 0,-80.396 -5.667,-121.75 -5.667,-121.75 l 0,38.072 c 0,-1.641 2,38.401 2,36.103 0,-2.297 -7.005,34.835 -5.75,36.759 C -5.582,-6.074 0,0 0,0" /></g><g
           transform="translate(323.6354,285.0897)"
           id="g90"><path
             id="path92"
             style="fill:#bb9770;fill-opacity:1;fill-rule:nonzero;stroke:none"
             d="m 0,0 c 95.708,-95.231 126.195,-64.588 30.487,30.644 -71.969,71.611 -128.507,126.207 -164.971,166.181 -2.867,3.142 -7.5,3.915 -11.241,1.89 -6.017,-3.257 -10.084,-8.883 -12.326,-10.961 -2.899,-2.689 -5.736,-6.813 -8.327,-12.292 -1.676,-3.542 -0.909,-7.773 1.884,-10.522 C -106.382,107.741 -70.005,69.657 0,0" /></g><g
           transform="translate(346.1667,134.5)"
           id="g94"><path
             id="path96"
             style="fill:#e15f38;fill-opacity:1;fill-rule:nonzero;stroke:none"
             d="M 0,0 119.333,103.5 67.5,156 43.604,166 -32.125,77.5 -22.229,22.5 0,0 Z" /></g><g
           transform="translate(314.0417,212)"
           id="g98"><path
             id="path100"
             style="fill:#e8e6e6;fill-opacity:1;fill-rule:nonzero;stroke:none"
             d="M 0,0 54.288,-58.278 32.125,-77.5 9.896,-55 0,0 Z" /></g><g
           id="g102"><g
             id="g104" /><g
             id="g110"><g
               style="opacity:0.10000598"
               id="g112"
               clip-path="url(#clipPath106)"><g
                 id="g114"
                 transform="translate(323.9375,157)"><path
                   id="path116"
                   style="fill:#000000;fill-opacity:1;fill-rule:nonzero;stroke:none"
                   d="m 0,0 22.229,-22.5 c 0,0 -11.806,45.492 -10.019,64.583 1.51,16.146 22.105,64.584 22.105,64.584 L -9.896,55 0,0 Z" /></g></g></g></g><g
           id="g118"><g
             id="g120" /><g
             id="g126"><g
               style="opacity:0.19999701"
               id="g128"
               clip-path="url(#clipPath122)"><g
                 id="g130"
                 transform="translate(464.5,238)"><path
                   id="path132"
                   style="fill:#000000;fill-opacity:1;fill-rule:nonzero;stroke:none"
                   d="M 0,0 -21.24,7.356 -75.729,62.5 -51.833,52.5 0,0 Z" /></g></g></g></g><g
           id="g134"><g
             id="g136" /><g
             id="g142"><g
               style="opacity:0.19999701"
               id="g144"
               clip-path="url(#clipPath138)"><g
                 id="g146"
                 transform="translate(346.1667,134.5)"><path
                   id="path148"
                   style="fill:#000000;fill-opacity:1;fill-rule:nonzero;stroke:none"
                   d="M 0,0 118.333,103.5 97.094,110.856 0,0 Z" /></g></g></g></g><g
           transform="translate(417.7945,190.9476)"
           id="g150"><path
             id="path152"
             style="fill:#bb9770;fill-opacity:1;fill-rule:nonzero;stroke:none"
             d="M 0,0 C 5.842,-5.813 36.331,24.829 30.489,30.642 24.647,36.455 18.014,39.194 4.667,25.846 -10.353,10.826 -5.842,5.813 0,0" /></g><g
           transform="translate(418.4729,190.461)"
           id="g154"><path
             id="path156"
             style="fill:#977f51;fill-opacity:1;fill-rule:nonzero;stroke:none"
             d="m 0,0 c 2.557,-2.544 11.366,2.164 19.677,10.516 8.31,8.352 12.974,17.185 10.417,19.729 C 27.538,32.789 18.728,28.081 10.418,19.729 2.108,11.377 -2.557,2.544 0,0" /></g><g
           transform="translate(374.6667,287.25)"
           id="g158"><path
             id="path160"
             style="fill:none;stroke:#edcba9;stroke-width:1.5;stroke-linecap:round;stroke-linejoin:miter;stroke-miterlimit:10;stroke-dasharray:none;stroke-opacity:1"
             d="M 0,0 C 0,0 -70.25,55.5 -100.941,90.688 -123.615,116.683 -196.25,192.5 -196.25,192.5" /></g><g
           transform="translate(377.3333,289.4246)"
           id="g162"><path
             id="path164"
             style="fill:none;stroke:#edcba9;stroke-width:1.5;stroke-linecap:round;stroke-linejoin:miter;stroke-miterlimit:10;stroke-dasharray:none;stroke-opacity:1"
             d="m 0,0 -98.523,94.372 c -0.102,0.095 -0.2,0.193 -0.295,0.295 l -93.349,97.658" /></g><g
           transform="translate(175.4167,477.25)"
           id="g166"><path
             id="path168"
             style="fill:none;stroke:#edcba9;stroke-width:1.5;stroke-linecap:round;stroke-linejoin:miter;stroke-miterlimit:10;stroke-dasharray:none;stroke-opacity:1"
             d="m 0,0 c 0,0 32.75,-30.75 34,-38 1.25,-7.25 -51.75,16.25 -51.75,16.25" /></g><g
           transform="translate(172.1667,475)"
           id="g170"><path
             id="path172"
             style="fill:none;stroke:#edcba9;stroke-width:1.5;stroke-linecap:round;stroke-linejoin:miter;stroke-miterlimit:10;stroke-dasharray:none;stroke-opacity:1"
             d="m 0,0 c 0,0 20.75,-23.75 18.25,-26 -2.5,-2.25 -31.5,11.25 -31.5,11.25" /></g><g
           transform="translate(168.1667,472)"
           id="g174"><path
             id="path176"
             style="fill:none;stroke:#edcba9;stroke-width:1.5;stroke-linecap:round;stroke-linejoin:miter;stroke-miterlimit:10;stroke-dasharray:none;stroke-opacity:1"
             d="M 0,0 C 0,0 8.209,-8.253 6.605,-10.126 5,-12 -5.25,-6.5 -5.25,-6.5" /></g><g
           transform="translate(334.1667,310.5)"
           id="g178"><path
             id="path180"
             style="fill:none;stroke:#edcba9;stroke-width:1.5;stroke-linecap:butt;stroke-linejoin:miter;stroke-miterlimit:10;stroke-dasharray:none;stroke-opacity:1"
             d="M 0,0 C 0.989,1.071 -13.097,8.393 -27.75,23.5 -42.403,38.607 -57.625,61.5 -61,60 -67.75,57 -50.75,41.25 -48,30.015 -47.103,26.35 -46.5,16.75 -42.5,12.5 -38.5,8.25 -23.13,6.783 -19,5.75 -14,4.5 -3,-3.25 0,0 Z" /></g><g
           transform="translate(307.4167,327)"
           id="g182"><path
             id="path184"
             style="fill:none;stroke:#edcba9;stroke-width:1.5;stroke-linecap:butt;stroke-linejoin:miter;stroke-miterlimit:10;stroke-dasharray:none;stroke-opacity:1"
             d="m 0,0 c 0,-2.264 -9.25,-3 -11.75,0 -2.5,3 -4.741,12.875 -1.75,15.25 1.374,1.091 3.234,-5.115 6.034,-8.491 C -4.172,2.788 0,1.351 0,0 Z" /></g><g
           transform="translate(281.7588,330.5)"
           id="g186"><path
             id="path188"
             style="fill:none;stroke:#edcba9;stroke-width:1.5;stroke-linecap:round;stroke-linejoin:miter;stroke-miterlimit:10;stroke-dasharray:none;stroke-opacity:1"
             d="m 0,0 c 0,0 -26.092,51.75 -50.592,79.75 -14.054,16.062 -37.921,21.01 -47.614,22.5 -5.444,0.837 -11.136,5.111 -11.136,5.111" /></g><g
           transform="translate(266.4167,345)"
           id="g190"><path
             id="path192"
             style="fill:none;stroke:#edcba9;stroke-width:1.5;stroke-linecap:round;stroke-linejoin:miter;stroke-miterlimit:10;stroke-dasharray:none;stroke-opacity:1"
             d="M 0,0 C 0,0 -32.436,50.841 -34.75,53.75 -43.5,64.75 -51,70.75 -60.25,75 -68.014,78.567 -79,78 -79,78" /></g><g
           transform="translate(227.0877,384.1807)"
           id="g194"><path
             id="path196"
             style="fill:none;stroke:#edcba9;stroke-width:1.5;stroke-linecap:round;stroke-linejoin:miter;stroke-miterlimit:10;stroke-dasharray:none;stroke-opacity:1"
             d="M 0,0 C 0,0 -5.671,23.069 -30.671,31.069" /></g><g
           transform="translate(370.1667,280.5)"
           id="g198"><path
             id="path200"
             style="fill:none;stroke:#edcba9;stroke-width:1.5;stroke-linecap:round;stroke-linejoin:miter;stroke-miterlimit:10;stroke-dasharray:none;stroke-opacity:1"
             d="M 0,0 C 0,0 -41.273,27.25 -67.262,27.25" /></g><g
           transform="translate(362.4167,272.25)"
           id="g202"><path
             id="path204"
             style="fill:none;stroke:#edcba9;stroke-width:1.5;stroke-linecap:round;stroke-linejoin:miter;stroke-miterlimit:10;stroke-dasharray:none;stroke-opacity:1"
             d="M 0,0 C 0,0 -16.5,24.5 -50,27" /></g><g
           transform="translate(356.6667,265.5)"
           id="g206"><path
             id="path208"
             style="fill:none;stroke:#edcba9;stroke-width:1.5;stroke-linecap:round;stroke-linejoin:miter;stroke-miterlimit:10;stroke-dasharray:none;stroke-opacity:1"
             d="M 0,0 C 0,0 -20.25,22.849 -34.75,23.925" /></g></g></g></g></svg>