<?xml version="1.0" encoding="UTF-8" standalone="no"?>
<svg width="534px" height="565px" viewBox="0 0 534 565" version="1.1" xmlns="http://www.w3.org/2000/svg" xmlns:xlink="http://www.w3.org/1999/xlink" xmlns:sketch="http://www.bohemiancoding.com/sketch/ns">
    <!-- Generator: Sketch 3.3 (11970) - http://www.bohemiancoding.com/sketch -->
    <title>hackathon_tablet</title>
    <desc>Created with Sketch.</desc>
    <defs>
        <path id="path-1" d="M0,564.843986 L533.707987,564.843986 L533.707987,0 L0,0 L0,564.843986 L0,564.843986 Z"></path>
        <path id="path-3" d="M0.888933311,30.0039992 L396.333323,30.0039992 L396.333323,0.336666658 L0.888933311,0.336666658 L0.888933311,30.0039992 L0.888933311,30.0039992 Z"></path>
        <path id="path-5" d="M0.333333325,145.20533 L54.849332,145.20533 L54.849332,1.19066664 L0.333333325,1.19066664 L0.333333325,145.20533 L0.333333325,145.20533 Z"></path>
        <path id="path-7" d="M0.938666643,10.2839997 L10.1826664,10.2839997 L10.1826664,1.03919997 L0.938666643,1.03919997 L0.938666643,10.2839997 L0.938666643,10.2839997 Z"></path>
        <path id="path-9" d="M1.27866663,10.0879997 L8.78266645,10.0879997 L8.78266645,1.10586664 L1.27866663,1.10586664 L1.27866663,10.0879997 L1.27866663,10.0879997 Z"></path>
        <path id="path-11" d="M0.833333313,172.398662 L76.8333314,172.398662 L76.8333314,0.177333329 L0.833333313,0.177333329 L0.833333313,172.398662 L0.833333313,172.398662 Z"></path>
        <path id="path-13" d="M0.855999979,65.7319984 L82.1666646,65.7319984 L82.1666646,0.321333325 L0.855999979,0.321333325 L0.855999979,65.7319984 L0.855999979,65.7319984 Z"></path>
        <path id="path-15" d="M0.855999979,114.635997 L115.33333,114.635997 L115.33333,0.177333329 L0.855999979,0.177333329 L0.855999979,114.635997 L0.855999979,114.635997 Z"></path>
    </defs>
    <g id="Page-1" stroke="none" stroke-width="1" fill="none" fill-rule="evenodd" sketch:type="MSPage">
        <g id="hackathon_tablet" sketch:type="MSLayerGroup" transform="translate(0.000000, -1.000000)">
            <g id="g10" transform="translate(267.000000, 283.344000) scale(1, -1) translate(-267.000000, -283.344000) translate(0.000000, 0.844000)">
                <path d="M0,0 L533.707987,0 L533.707987,564.843986 L0,564.843986 L0,0 L0,0 Z" id="path12" fill="#F6A623" sketch:type="MSShapeGroup"></path>
                <g id="g14">
                    <g id="g16-Clipped">
                        <mask id="mask-2" sketch:name="path20" fill="white">
                            <use xlink:href="#path-1"></use>
                        </mask>
                        <g id="path20"></g>
                        <g id="g16" mask="url(#mask-2)">
                            <g id="g22">
                                <g id="g24"></g>
                                <g id="g30" transform="translate(75.999998, 106.666664)">
                                    <g id="g32-Clipped">
                                        <mask id="mask-4" sketch:name="path28" fill="white">
                                            <use xlink:href="#path-3"></use>
                                        </mask>
                                        <g id="path28"></g>
                                        <g id="g32" mask="url(#mask-4)">
                                            <g transform="translate(0.000000, -1.333333)" id="g34">
                                                <g transform="translate(0.333333, 0.503333)">
                                                    <path d="M395.99999,15.9999996 C395.99999,7.8079998 307.477326,1.16666664 198.277328,1.16666664 C89.0786644,1.16666664 0.555999986,7.8079998 0.555999986,15.9999996 C0.555999986,24.1919994 89.0786644,30.8333326 198.277328,30.8333326 C307.477326,30.8333326 395.99999,24.1919994 395.99999,15.9999996" id="path36" fill="#000000" sketch:type="MSShapeGroup"></path>
                                                </g>
                                            </g>
                                        </g>
                                    </g>
                                </g>
                            </g>
                            <g id="g38" transform="translate(175.334796, 123.871597)" fill="#BABABA" sketch:type="MSShapeGroup">
                                <path d="M178.666662,242.666661 L29.2799993,242.666661 C24.1239994,242.666661 19.8333328,238.758661 19.4199995,233.687994 L1.3133333,11.1719997 C0.851999979,5.49199986 5.39866653,0.631999984 11.1733331,0.631999984 L160.607996,0.631999984 C165.761329,0.631999984 171.601329,4.53466655 172.018662,9.60266643 L190.306662,230.783994 C190.773329,236.466661 184.443995,242.666661 178.666662,242.666661 M175.359996,227.999994 L157.771996,15.2986663 L16.3639996,15.2986663 L33.6719992,227.999994 L175.359996,227.999994" id="path40"></path>
                            </g>
                            <g id="g42" transform="translate(176.231462, 124.725597)" fill="#F6A623" sketch:type="MSShapeGroup">
                                <path d="M147.999996,0 L15.3599996,0 C6.83599983,0 0.12133333,7.26666649 0.793333313,15.7639996 L16.7946662,217.991995 C17.3959996,225.590661 23.7373327,231.451994 31.3599992,231.451994 L164.047996,231.451994 C172.573329,231.451994 179.287996,224.182661 178.613329,215.683995 L162.566663,13.4559997 C161.962663,5.85866652 155.621329,0 147.999996,0" id="path44"></path>
                            </g>
                            <g id="g46" transform="translate(175.753196, 123.871597)" fill="#000000" sketch:type="MSShapeGroup">
                                <path d="M177.333329,242.666661 L28.3213326,242.666661 C23.2386661,242.666661 19.0079995,238.758661 18.6013329,233.689327 L0.753333314,11.1786664 C0.297333326,5.49999986 4.77999988,0.638666651 10.4719997,0.638666651 L159.305329,0.638666651 C164.385329,0.638666651 168.613329,4.54133322 169.023996,9.60933309 L187.051995,232.118661 C187.511995,237.801327 183.029329,242.666661 177.333329,242.666661 M172.002662,227.999994 L154.770663,15.305333 L15.7986663,15.305333 L32.8586658,227.999994 L172.002662,227.999994" id="path48"></path>
                            </g>
                            <g id="g50">
                                <g id="g52"></g>
                                <g id="g58" transform="translate(307.999992, 221.333328)">
                                    <g id="g60-Clipped">
                                        <mask id="mask-6" sketch:name="path56" fill="white">
                                            <use xlink:href="#path-5"></use>
                                        </mask>
                                        <g id="path56"></g>
                                        <g id="g60" mask="url(#mask-6)">
                                            <g transform="translate(-1.333333, 0.000000)" id="g62">
                                                <g transform="translate(1.314267, 1.191067)">
                                                    <path d="M43.9999989,0 L0.351999991,144.01333 L45.1413322,144.01333 C51.3946654,144.01333 56.1439986,138.36133 54.561332,131.27733 L43.9999989,0 L43.9999989,0 Z" id="path64" fill="#FFFFFF" sketch:type="MSShapeGroup"></path>
                                                </g>
                                            </g>
                                        </g>
                                    </g>
                                </g>
                            </g>
                            <g id="g66" transform="translate(272.111060, 231.093728)" fill="#F6A623" sketch:type="MSShapeGroup">
                                <path d="M0,135.999997 C0,135.999997 10.3893331,121.558664 11.889333,119.370664 C11.5559997,116.74533 5.55599986,73.8586648 5.55599986,70.7959982 C5.55599986,67.7319983 7.9999998,33.5986658 7.9999998,30.5359992 C7.9999998,27.4719993 8.88933311,0.778666647 8.88933311,0.778666647 C8.88933311,0.778666647 12.889333,74.2973315 12.889333,71.2333316 C12.889333,68.9719983 13.889333,72.2586649 27.722666,120.83333 C24.8893327,134.83733 26.3519993,128.39333 24.8893327,135.999997 L0,135.999997 L0,135.999997 Z" id="path68"></path>
                            </g>
                            <g id="g70" transform="translate(268.510660, 203.871595)" fill="#A8A7AB" sketch:type="MSShapeGroup">
                                <path d="M3.9999999,162.666663 C3.9999999,162.666663 7.89066647,150.514663 7.55733314,147.88933 C7.22399982,145.262663 1.21199997,102.414664 1.21199997,99.3519975 C1.21199997,96.2879976 3.65599991,62.1546651 3.65599991,59.0906652 C3.65599991,56.0279986 11.2119997,0.889333311 11.2119997,0.889333311 L11.2119997,51.6519987 C11.2119997,49.4639988 8.54533312,102.851997 8.54533312,99.7893308 C8.54533312,96.7253309 17.9693329,145.322663 16.2959996,147.88933 C11.1826664,154.210663 3.9999999,162.666663 3.9999999,162.666663" id="path72"></path>
                            </g>
                            <g id="g74" transform="translate(254.116260, 126.994797)" fill="#000000" sketch:type="MSShapeGroup">
                                <path d="M9.3333331,5.3333332 C9.3333331,2.81733326 7.29333315,0.777333314 4.77733321,0.777333314 C2.26133328,0.777333314 0.222666661,2.81733326 0.222666661,5.3333332 C0.222666661,7.84933314 2.26133328,9.88933309 4.77733321,9.88933309 C7.29333315,9.88933309 9.3333331,7.84933314 9.3333331,5.3333332" id="path76"></path>
                            </g>
                            <g id="g78">
                                <g id="g80"></g>
                                <g id="g86" transform="translate(253.333327, 126.666664)">
                                    <g id="g88-Clipped">
                                        <mask id="mask-8" sketch:name="path84" fill="white">
                                            <use xlink:href="#path-7"></use>
                                        </mask>
                                        <g id="path84"></g>
                                        <g id="g88" mask="url(#mask-8)" stroke="#FFFFFF" stroke-width="0.5" sketch:type="MSShapeGroup">
                                            <g id="g90" transform="translate(0.782933, 0.328133)">
                                                <path d="M9.3333331,5.3333332 C9.3333331,2.81733326 7.29333315,0.777333314 4.77733321,0.777333314 C2.26133328,0.777333314 0.222666661,2.81733326 0.222666661,5.3333332 C0.222666661,7.84933314 2.26133328,9.88933309 4.77733321,9.88933309 C7.29333315,9.88933309 9.3333331,7.84933314 9.3333331,5.3333332 L9.3333331,5.3333332 Z" id="path92"></path>
                                            </g>
                                        </g>
                                    </g>
                                </g>
                            </g>
                            <g id="g94" transform="translate(257.122527, 130.651063)" stroke="#FFFFFF" stroke-width="0.66666665" sketch:type="MSShapeGroup">
                                <path d="M2.6666666,0 L0.875999978,0 C0.446666656,0 0.0946666643,0.351999991 0.0946666643,0.782666647 L0.0946666643,2.57199994 C0.0946666643,3.00266659 0.446666656,3.35466658 0.875999978,3.35466658 L2.6666666,3.35466658 C3.09733326,3.35466658 3.44933325,3.00266659 3.44933325,2.57199994 L3.44933325,0.782666647 C3.44933325,0.351999991 3.09733326,0 2.6666666,0 L2.6666666,0 Z" id="path96"></path>
                            </g>
                            <g id="g98">
                                <g id="g100"></g>
                                <g id="g106" transform="translate(254.666660, 126.666664)">
                                    <g id="g108-Clipped">
                                        <mask id="mask-10" sketch:name="path104" fill="white">
                                            <use xlink:href="#path-9"></use>
                                        </mask>
                                        <g id="path104"></g>
                                        <g id="g108" mask="url(#mask-10)" fill="#FFFFFF" sketch:type="MSShapeGroup">
                                            <g id="g110" transform="translate(0.141333, 0.674667)">
                                                <path d="M7.9999998,2.6666666 C6.7186665,0.501333321 3.9239999,-0.214666661 1.75866662,1.06799997 C-0.405333323,2.34933327 3.73333324,2.39866661 4.35866656,4.68933322 C5.01999987,7.11733316 3.13599992,10.7573331 6.40133317,8.90799978 C8.58933312,7.66666647 9.2813331,4.83199988 7.9999998,2.6666666" id="path112"></path>
                                            </g>
                                        </g>
                                    </g>
                                </g>
                            </g>
                            <g id="g114" transform="translate(188.133062, 303.462659)" fill="#BB9770" sketch:type="MSShapeGroup">
                                <path d="M70.6666649,46.6666655 C-5.11866654,-29.2533326 -29.2586659,-4.82399988 46.5253322,71.0959982 C103.513331,128.186663 148.282663,171.711996 177.155996,203.579995 C179.426662,206.085328 183.094662,206.699995 186.057329,205.086662 C190.821329,202.490662 194.041328,198.005328 195.817328,196.347995 C198.113328,194.205328 200.358662,190.915995 202.410662,186.549329 C203.737328,183.723995 203.130662,180.351995 200.918662,178.159996 C154.903996,132.559997 126.099997,102.198664 70.6666649,46.6666655" id="path116"></path>
                            </g>
                            <g id="g118" transform="translate(218.391461, 351.851458)" stroke="#EDCBA9" stroke-width="1.99999995" sketch:type="MSShapeGroup">
                                <path d="M0,0 C0,0 55.6266653,44.2453322 79.9293313,72.2986649 C97.8826642,93.021331 155.397329,153.465329 155.397329,153.465329" id="path120"></path>
                            </g>
                            <g id="g122" transform="translate(216.279861, 353.585058)" stroke="#EDCBA9" stroke-width="1.99999995" sketch:type="MSShapeGroup">
                                <path d="M0,0 L78.0146647,75.2346648 C78.0946647,75.3106648 78.171998,75.3893314 78.247998,75.4706648 L152.163996,153.32533" id="path124"></path>
                            </g>
                            <g id="g126" transform="translate(348.164525, 471.323455)" stroke="#EDCBA9" stroke-width="1.99999995" sketch:type="MSShapeGroup">
                                <path d="M27.9999993,31.9999992 C27.9999993,31.9999992 2.06799995,7.48533315 1.07733331,1.70533329 C0.0879999978,-4.07466656 42.0546656,14.6599996 42.0546656,14.6599996" id="path128"></path>
                            </g>
                            <g id="g130" transform="translate(364.071324, 480.196388)" stroke="#EDCBA9" stroke-width="1.99999995" sketch:type="MSShapeGroup">
                                <path d="M14.6666663,21.3333328 C14.6666663,21.3333328 -1.76399996,2.39866661 0.215999995,0.605333318 C2.19466661,-1.18799997 25.158666,9.57466643 25.158666,9.57466643" id="path132"></path>
                            </g>
                            <g id="g134" transform="translate(375.238657, 489.804654)" stroke="#EDCBA9" stroke-width="1.99999995" sketch:type="MSShapeGroup">
                                <path d="M6.6666665,9.3333331 C6.6666665,9.3333331 0.166666662,2.75333326 1.4373333,1.25999997 C2.70799993,-0.233333327 10.8239997,4.1519999 10.8239997,4.1519999" id="path136"></path>
                            </g>
                            <g id="g138" transform="translate(249.127460, 369.053591)" stroke="#EDCBA9" stroke-width="1.99999995" sketch:type="MSShapeGroup">
                                <path d="M1.3333333,1.3333333 C0.550666653,2.18666661 11.7039997,8.0239998 23.3066661,20.0679995 C34.9093325,32.1119992 46.9626655,50.3626654 49.6346654,49.1666654 C54.9799986,46.7746655 41.5186656,34.2186658 39.3413323,25.262666 C38.6306657,22.3399994 38.1533324,14.6866663 34.9866658,11.2986664 C31.8186659,7.91066647 19.6479995,6.73999983 16.3786663,5.91733319 C12.4186664,4.92133321 3.70933324,-1.2573333 1.3333333,1.3333333 L1.3333333,1.3333333 Z" id="path140"></path>
                            </g>
                            <g id="g142" transform="translate(271.642393, 380.874390)" stroke="#EDCBA9" stroke-width="1.99999995" sketch:type="MSShapeGroup">
                                <path d="M0,2.6666666 C0,0.861333312 7.32399982,0.27466666 9.30399977,2.6666666 C11.2839997,5.05866654 13.0586663,12.9306663 10.6893331,14.8239996 C9.60133309,15.6946663 8.12933313,10.7466664 5.91199985,8.0559998 C3.30399992,4.88933321 0,3.74399991 0,2.6666666 L0,2.6666666 Z" id="path144"></path>
                            </g>
                            <g id="g146" transform="translate(291.959193, 386.331324)" stroke="#EDCBA9" stroke-width="1.99999995" sketch:type="MSShapeGroup">
                                <path d="M0,0 C0,0 20.6599995,41.255999 40.059999,63.5786651 C51.1893321,76.3826648 70.0879982,80.327998 77.7626647,81.515998 C82.0733313,82.1826646 86.5813312,85.5906645 86.5813312,85.5906645" id="path148"></path>
                            </g>
                            <g id="g150" transform="translate(304.107592, 397.890923)" stroke="#EDCBA9" stroke-width="1.99999995" sketch:type="MSShapeGroup">
                                <path d="M0,0 C0,0 25.6839994,40.531999 27.5159993,42.8506656 C34.4453325,51.6199987 40.383999,56.4039986 47.7079988,59.7919985 C53.8559987,62.6359984 62.5546651,62.1826651 62.5546651,62.1826651" id="path152"></path>
                            </g>
                            <g id="g154" transform="translate(335.249592, 429.126656)" stroke="#EDCBA9" stroke-width="1.99999995" sketch:type="MSShapeGroup">
                                <path d="M0,0 C0,0 4.49066655,18.3906662 24.2866661,24.7693327" id="path156"></path>
                            </g>
                            <g id="g158" transform="translate(221.954661, 346.470258)" stroke="#EDCBA9" stroke-width="1.99999995" sketch:type="MSShapeGroup">
                                <path d="M0,0 C0,0 32.6813325,21.7239995 53.2599987,21.7239995" id="path160"></path>
                            </g>
                            <g id="g162" transform="translate(228.091461, 339.893192)" stroke="#EDCBA9" stroke-width="1.99999995" sketch:type="MSShapeGroup">
                                <path d="M0,0 C0,0 13.065333,19.5319995 39.591999,21.5253328" id="path164"></path>
                            </g>
                            <g id="g166" transform="translate(232.644528, 334.511858)" stroke="#EDCBA9" stroke-width="1.99999995" sketch:type="MSShapeGroup">
                                <path d="M0,0 C0,0 16.0346663,18.2159995 27.5159993,19.0733329" id="path168"></path>
                            </g>
                            <g id="g170" transform="translate(141.999996, 202.843728)" fill="#D0011B" sketch:type="MSShapeGroup">
                                <path d="M114.666664,0 C114.666664,0 83.9999979,41.1106656 52.6439987,70.8133316 C21.7999995,100.030664 0.189333329,106.810664 0.189333329,106.810664 L62.5786651,170.087996 L81.499998,172.222662 C81.499998,172.222662 84.2799979,160.163996 103.458664,140.986663 C128.86133,115.583997 157.499996,103.333331 157.499996,103.333331 L144.30533,29.9999992 L114.666664,0 L114.666664,0 Z" id="path172"></path>
                            </g>
                            <g id="g174" transform="translate(239.499994, 202.177062)" fill="#E8E6E6" sketch:type="MSShapeGroup">
                                <path d="M59.9999985,103.999997 C59.9999985,103.999997 51.9479987,66.0893317 37.1666657,50.3333321 C21.9999995,34.1666658 0.0613333318,22.6106661 0.0613333318,22.6106661 L17.1666662,0.66666665 L46.8053322,30.6666659 L59.9999985,103.999997 L59.9999985,103.999997 Z" id="path176"></path>
                            </g>
                            <g id="g178">
                                <g id="g180"></g>
                                <g id="g186" transform="translate(222.666661, 202.666662)">
                                    <g id="g188-Clipped">
                                        <mask id="mask-12" sketch:name="path184" fill="white">
                                            <use xlink:href="#path-11"></use>
                                        </mask>
                                        <g id="path184"></g>
                                        <g id="g188" mask="url(#mask-12)">
                                            <g transform="translate(-1.333333, -1.333333)" id="g190">
                                                <g transform="translate(0.972267, 0.843733)">
                                                    <path d="M63.9999984,30.6666659 L34.3613325,0.66666665 C34.3613325,0.66666665 50.1026654,61.3226651 47.7199988,86.7773312 C46.3293322,101.649331 23.6946661,132.80933 12.6946663,148.862663 C1.69466662,164.917329 1.19466664,172.889329 1.19466664,172.889329 C1.19466664,172.889329 4.1479999,160.681329 24.8159994,140.01333 C48.8173321,116.011997 77.1946647,103.999997 77.1946647,103.999997 L63.9999984,30.6666659 L63.9999984,30.6666659 Z" id="path192" fill="#000000" sketch:type="MSShapeGroup"></path>
                                                </g>
                                            </g>
                                        </g>
                                    </g>
                                </g>
                            </g>
                            <g id="g194">
                                <g id="g196"></g>
                                <g id="g202" transform="translate(141.333330, 309.333326)">
                                    <g id="g204-Clipped">
                                        <mask id="mask-14" sketch:name="path200" fill="white">
                                            <use xlink:href="#path-13"></use>
                                        </mask>
                                        <g id="path200"></g>
                                        <g id="g204" mask="url(#mask-14)" fill="#000000" sketch:type="MSShapeGroup">
                                            <g id="g206" transform="translate(0.856133, 0.321067)">
                                                <path d="M0,0 C0,0 5.23599987,2.18533328 12.8666663,4.66133322 C18.3546662,6.44133317 26.502666,7.64799981 26.502666,7.64799981 L81.3106646,65.4119984 L62.3893318,63.2773318 L0,0 L0,0 Z" id="path208"></path>
                                            </g>
                                        </g>
                                    </g>
                                </g>
                            </g>
                            <g id="g210">
                                <g id="g212"></g>
                                <g id="g218" transform="translate(141.333330, 202.666662)">
                                    <g id="g220-Clipped">
                                        <mask id="mask-16" sketch:name="path216" fill="white">
                                            <use xlink:href="#path-15"></use>
                                        </mask>
                                        <g id="path216"></g>
                                        <g id="g220" mask="url(#mask-16)" fill="#000000" sketch:type="MSShapeGroup">
                                            <g id="g222" transform="translate(0.666667, 0.177067)">
                                                <path d="M114.666664,0 C114.666664,0 48.6666655,90.8306644 0.189333329,106.810664 C11.6666664,111.389331 17.7226662,113.222664 26.6919993,114.458664 C33.1733325,111.859997 33.1733325,111.859997 47.1666655,93.333331 C61.9999985,73.6946648 114.666664,0 114.666664,0" id="path224"></path>
                                            </g>
                                        </g>
                                    </g>
                                </g>
                            </g>
                            <g id="g226" transform="translate(156.199863, 273.663726)" fill="#BB9770" sketch:type="MSShapeGroup">
                                <path d="M27.9999993,1.3333333 C22.9879994,-3.65466658 -4.21466656,23.6839994 0.797333313,28.6719993 C5.81066652,33.6586658 11.5679997,35.9426658 23.4746661,24.0333327 C36.8733324,10.6306664 33.0119992,6.32133318 27.9999993,1.3333333" id="path228"></path>
                            </g>
                            <g id="g230" transform="translate(155.614663, 273.249327)" fill="#977F51" sketch:type="MSShapeGroup">
                                <path d="M27.9999993,1.3333333 C25.806666,-0.849333312 18.0173329,3.42133325 10.6026664,10.8733331 C3.18799992,18.3253329 -1.04399997,26.134666 1.1493333,28.3173326 C3.34399992,30.4999992 11.1319997,26.2293327 18.5466662,18.7773329 C25.9613327,11.3266664 30.1933326,3.51599991 27.9999993,1.3333333" id="path232"></path>
                            </g>
                        </g>
                    </g>
                </g>
            </g>
        </g>
    </g>
</svg>