<?xml version="1.0" encoding="UTF-8" standalone="no"?>
<svg width="145px" height="146px" viewBox="0 0 145 146" version="1.1" xmlns="http://www.w3.org/2000/svg" xmlns:xlink="http://www.w3.org/1999/xlink" xmlns:sketch="http://www.bohemiancoding.com/sketch/ns">
    <!-- Generator: Sketch 3.3.2 (12043) - http://www.bohemiancoding.com/sketch -->
    <title>path18 + path20 + path22</title>
    <desc>Created with Sketch.</desc>
    <defs></defs>
    <g id="Page-1" stroke="none" stroke-width="1" fill="none" fill-rule="evenodd" sketch:type="MSPage">
        <g id="path18-+-path20-+-path22" sketch:type="MSLayerGroup" transform="translate(72.000000, 73.166667) scale(-1, 1) rotate(-180.000000) translate(-72.000000, -73.166667) translate(-0.500000, 0.666667)" fill="#FFFFFF">
            <path d="M87.6973268,70.9439961 C87.6973268,78.7719959 81.3279936,85.1399957 73.4999938,85.1399957 C65.6733273,85.1399957 59.3053275,78.7719959 59.3053275,70.9439961 C59.3053275,63.1159963 65.6733273,56.7493298 73.4999938,56.7493298 C81.3279936,56.7493298 87.6973268,63.1159963 87.6973268,70.9439961" id="path18" sketch:type="MSShapeGroup"></path>
            <path d="M103.007993,122.957328 C103.007993,125.157328 104.807993,126.957328 107.007993,126.957328 L119.367993,126.957328 C121.567993,126.957328 123.367993,125.157328 123.367993,122.957328 L123.367993,110.597328 C123.367993,108.397328 121.567993,106.597329 119.367993,106.597329 L107.007993,106.597329 C104.807993,106.597329 103.007993,108.397328 103.007993,110.597328 L103.007993,122.957328 L103.007993,122.957328 Z M73.4999938,105.139995 C80.8719936,105.139995 87.6999934,102.787995 93.2893266,98.8053287 L144.787992,98.8053287 L144.787992,108.835995 C144.787992,128.686661 128.638659,144.835994 108.787993,144.835994 L36.7386614,144.835994 C16.8879952,144.835994 0.738662273,128.686661 0.738662273,108.835995 L0.738662273,98.8053287 L53.7133276,98.8053287 C59.3026608,102.787995 66.1293273,105.139995 73.4999938,105.139995 L73.4999938,105.139995 Z" id="path20" sketch:type="MSShapeGroup"></path>
            <path d="M107.697326,70.9439961 C107.697326,52.0893299 92.3559933,36.7494636 73.4999938,36.7494636 C54.6453276,36.7494636 39.305328,52.0893299 39.305328,70.9439961 C39.305328,76.135996 40.4746613,81.0599958 42.5533279,85.4719957 L0.738662273,85.4719957 L0.738662273,36.1973303 C0.738662273,16.3469308 16.8879952,0.197331203 36.7386614,0.197331203 L108.787993,0.197331203 C128.638659,0.197331203 144.787992,16.3469308 144.787992,36.1973303 L144.787992,85.4719957 L104.447993,85.4719957 C106.527993,81.0599958 107.697326,76.135996 107.697326,70.9439961" id="path22" sketch:type="MSShapeGroup"></path>
        </g>
    </g>
</svg>