<?xml version="1.0" encoding="UTF-8" standalone="no"?>
<svg width="230px" height="26px" viewBox="0 0 230 26" version="1.1" xmlns="http://www.w3.org/2000/svg" xmlns:xlink="http://www.w3.org/1999/xlink" xmlns:sketch="http://www.bohemiancoding.com/sketch/ns">
    <!-- Generator: Sketch 3.3 (11970) - http://www.bohemiancoding.com/sketch -->
    <title>Group Copy + II Copy Copy</title>
    <desc>Created with Sketch.</desc>
    <defs></defs>
    <g id="Welcome" stroke="none" stroke-width="1" fill="none" fill-rule="evenodd" sketch:type="MSPage">
        <g id="Desktop-HD-Copy-7" sketch:type="MSArtboardGroup" transform="translate(-230.000000, -123.000000)">
            <g id="Group-Copy-+-II-Copy-Copy" sketch:type="MSLayerGroup" transform="translate(230.000000, 123.000000)">
                <g id="Group-Copy" sketch:type="MSShapeGroup">
                    <g id="C-+-V-+-L" transform="translate(19.110826, 0.387156)" fill="#5F5E5D">
                        <path d="M18.4497863,8.8196477 C18.4497863,7.18439706 17.9973738,5.94162521 17.0925351,5.09129488 C16.1876964,4.24096454 14.8849663,3.81580575 13.1843056,3.81580575 C11.7888917,3.81580575 10.5733736,4.13194947 9.5377149,4.76424638 C8.50205617,5.3965433 7.64083708,6.22505786 6.95403181,7.24981493 C6.26722654,8.274572 5.74940494,9.43013179 5.40055147,10.716529 C5.051698,12.0029261 4.87727388,13.3002055 4.87727388,14.608406 C4.87727388,16.7887402 5.43325076,18.5002769 6.54522119,19.7430674 C7.65719163,20.9858579 9.2379102,21.6072438 11.2874243,21.6072438 C12.3339848,21.6072438 13.2170069,21.4055659 13.9365171,21.0022041 C14.6560274,20.5988422 15.2501596,20.1082744 15.7189314,19.5304858 C16.1877033,18.9526973 16.547453,18.3585651 16.7981914,17.7480716 C17.0489299,17.137578 17.2288048,16.6361086 17.3378215,16.2436485 L21.4259276,16.2436485 C21.0988775,17.7262757 20.6083097,19.0126536 19.9542094,20.1028207 C19.3001091,21.1929878 18.5206514,22.0978129 17.6158127,22.8173232 C16.710974,23.5368335 15.7080353,24.0710073 14.6069665,24.4198608 C13.5058978,24.7687143 12.3557887,24.9431384 11.1566049,24.9431384 C9.47774762,24.9431384 7.99514261,24.6815022 6.70874544,24.158222 C5.42234827,23.6349418 4.34309903,22.9154423 3.47096536,21.999702 C2.59883168,21.0839616 1.93383973,20.0047124 1.47596955,18.7619219 C1.01809937,17.5191314 0.789167717,16.178246 0.789167717,14.7392254 C0.789167717,12.2972511 1.15436822,10.1769079 1.88478017,8.37813223 C2.61519212,6.57935653 3.57452477,5.09675152 4.76280691,3.93027273 C5.95108904,2.76379394 7.29197445,1.8971241 8.78550337,1.33023721 C10.2790323,0.763350319 11.7888911,0.479911126 13.315125,0.479911126 C14.6887355,0.479911126 15.9533104,0.665236753 17.1088875,1.03589356 C18.2644646,1.40655038 19.2510511,1.94072424 20.0686764,2.63843118 C20.8863017,3.33613812 21.5131384,4.20825871 21.9492052,5.25481912 C22.3852721,6.30137953 22.5814992,7.48964384 22.5378925,8.8196477 L18.4497863,8.8196477 Z" id="C"></path>
                        <path d="M21.8891738,0.812840985 L26.0426897,0.812840985 L28.2339146,19.258376 L28.2993243,19.258376 L38.0453694,0.812840985 L42.3951143,0.812840985 L29.5748134,24.1641034 L24.9307248,24.1641034 L21.8891738,0.812840985 Z" id="V" transform="translate(32.142144, 12.488472) rotate(-180.000000) translate(-32.142144, -12.488472) "></path>
                        <path d="M49.3294976,1.03589356 L53.4176038,1.03589356 L49.2967928,20.8550322 L61.0705385,20.8550322 L60.3510318,24.387156 L44.4891799,24.387156 L49.3294976,1.03589356 Z" id="L"></path>
                    </g>
                    <path d="M16.9140665,22.2616388 L0.300003052,14.9030477 L0.300003052,12.5482986 L16.9140665,5.18970746 L16.9140665,8.52560209 L4.68245286,13.7256731 L16.9140665,18.9257442 L16.9140665,22.2616388 Z" id="&lt;-copy" fill="#5F5E5D"></path>
                    <path d="M85.0343289,25.3302944 L94.4206206,0.86706709 L97.9854492,0.86706709 L88.5991574,25.3302944 L85.0343289,25.3302944 Z" id="/-copy" fill="#5F5E5D"></path>
                    <path d="M105.301999,1.42304953 L109.390105,1.42304953 L107.460519,10.7112267 L118.383939,10.7112267 L120.313525,1.42304953 L124.401631,1.42304953 L119.561313,24.7743119 L115.473207,24.7743119 L117.664432,14.2433505 L106.741013,14.2433505 L104.549788,24.7743119 L100.461681,24.7743119 L105.301999,1.42304953 Z" id="H" fill="#F6A623"></path>
                    <path d="M122,1.40000153 L126.153516,1.40000153 L128.344741,19.8455365 L128.41015,19.8455365 L138.156196,1.40000153 L142.505941,1.40000153 L129.68564,24.7512639 L125.041551,24.7512639 L122,1.40000153 Z" id="V-Copy" fill="#F6A623" transform="translate(132.252970, 13.075633) rotate(-180.000000) translate(-132.252970, -13.075633) "></path>
                    <path d="M162.079977,9.20680366 C162.079977,7.57155302 161.627564,6.32878117 160.722726,5.47845084 C159.817887,4.62812051 158.515157,4.20296172 156.814496,4.20296172 C155.419082,4.20296172 154.203564,4.51910543 153.167905,5.15140235 C152.132247,5.78369926 151.271028,6.61221383 150.584222,7.63697089 C149.897417,8.66172796 149.379595,9.81728775 149.030742,11.1036849 C148.681888,12.3900821 148.507464,13.6873615 148.507464,14.995562 C148.507464,17.1758962 149.063441,18.8874328 150.175412,20.1302233 C151.287382,21.3730138 152.868101,21.9943997 154.917615,21.9943997 C155.964175,21.9943997 156.847197,21.7927218 157.566708,21.38936 C158.286218,20.9859982 158.88035,20.4954304 159.349122,19.9176418 C159.817894,19.3398532 160.177643,18.7457211 160.428382,18.1352275 C160.67912,17.5247339 160.858995,17.0232646 160.968012,16.6308045 L165.056118,16.6308045 C164.729068,18.1134317 164.2385,19.3998096 163.5844,20.4899767 C162.9303,21.5801438 162.150842,22.4849689 161.246003,23.2044792 C160.341164,23.9239894 159.338226,24.4581633 158.237157,24.8070168 C157.136088,25.1558702 155.985979,25.3302944 154.786795,25.3302944 C153.107938,25.3302944 151.625333,25.0686582 150.338936,24.545378 C149.052539,24.0220978 147.97329,23.3025983 147.101156,22.3868579 C146.229022,21.4711176 145.56403,20.3918683 145.10616,19.1490778 C144.64829,17.9062874 144.419358,16.5654019 144.419358,15.1263814 C144.419358,12.6844071 144.784559,10.5640639 145.514971,8.7652882 C146.245383,6.96651249 147.204715,5.48390748 148.392997,4.31742869 C149.58128,3.1509499 150.922165,2.28428006 152.415694,1.71739317 C153.909223,1.15050628 155.419082,0.86706709 156.945315,0.86706709 C158.318926,0.86706709 159.583501,1.05239272 160.739078,1.42304953 C161.894655,1.79370634 162.881242,2.3278802 163.698867,3.02558714 C164.516492,3.72329408 165.143329,4.59541468 165.579396,5.64197509 C166.015463,6.6885355 166.21169,7.87679981 166.168083,9.20680366 L162.079977,9.20680366 Z M171.891432,1.42304953 L175.979538,1.42304953 L173.788313,12.0194207 L173.853723,12.0848304 L185.758288,1.42304953 L191.219998,1.42304953 L180.002234,11.0709801 L187.32812,24.7743119 L182.684032,24.7743119 L176.829864,13.6219583 L172.709053,17.154082 L171.13922,24.7743119 L167.051114,24.7743119 L171.891432,1.42304953 Z M193.770976,17.0559675 C193.683762,18.8656449 194.130724,20.1411212 195.111875,20.8824349 C196.093025,21.6237485 197.43391,21.9943997 199.134571,21.9943997 C199.679655,21.9943997 200.262885,21.9289907 200.884281,21.7981706 C201.505676,21.6673506 202.067103,21.4547712 202.56858,21.1604261 C203.070057,20.866081 203.489765,20.4845282 203.827717,20.0157564 C204.165669,19.5469845 204.334642,18.9637539 204.334642,18.2660469 C204.334642,17.6119467 204.17657,17.0668713 203.860422,16.6308045 C203.544273,16.1947376 203.130016,15.8295371 202.617638,15.535192 C202.105259,15.2408469 201.511127,14.9901122 200.835223,14.7829805 C200.15932,14.5758487 199.461623,14.3741708 198.742113,14.1779408 C198.218833,14.0471207 197.597447,13.8672458 196.877936,13.6383107 C196.158426,13.4093757 195.46073,13.0714289 194.784826,12.6244604 C194.108923,12.1774919 193.536593,11.5942613 193.067822,10.874751 C192.59905,10.1552407 192.364667,9.23951407 192.364667,8.12754363 C192.364667,7.08098322 192.560894,6.11074906 192.953355,5.21681205 C193.345815,4.32287503 193.912693,3.55431876 194.654007,2.91112017 C195.39532,2.26792159 196.305596,1.76645224 197.384862,1.4066971 C198.464127,1.04694196 199.690547,0.86706709 201.064157,0.86706709 C202.285144,0.86706709 203.429803,0.997885179 204.498166,1.25952528 C205.56653,1.52116538 206.493158,1.94632417 207.278079,2.5350144 C208.062999,3.12370463 208.673483,3.89226091 209.10955,4.84070628 C209.545617,5.78915165 209.741844,6.95016219 209.698237,8.32377273 L205.773655,8.32377273 C205.751852,6.86294882 205.348496,5.81095336 204.563576,5.16775477 C203.778656,4.52455619 202.590391,4.20296172 200.998747,4.20296172 C200.715304,4.20296172 200.32285,4.23566624 199.821373,4.30107627 C199.319896,4.36648629 198.818427,4.5191074 198.31695,4.75894416 C197.815473,4.99878092 197.379413,5.3421784 197.008756,5.78914691 C196.638099,6.23611542 196.452773,6.85205059 196.452773,7.63697089 C196.452773,8.20385778 196.583592,8.6726226 196.845232,9.04327941 C197.106872,9.41393623 197.461171,9.73007994 197.908139,9.99172004 C198.355108,10.2533601 198.872929,10.4713903 199.46162,10.645817 C200.05031,10.8202438 200.671696,10.9837664 201.325796,11.1363898 C202.154323,11.3544232 202.988288,11.5942564 203.827717,11.8558965 C204.667146,12.1175366 205.430251,12.4827371 206.117056,12.9515089 C206.803862,13.4202808 207.359839,14.0362159 207.785004,14.7993329 C208.210169,15.5624499 208.422748,16.554487 208.422748,17.7754742 C208.422748,18.6912145 208.248324,19.5960397 207.899471,20.4899767 C207.550617,21.3839137 206.98919,22.1906252 206.215171,22.9101355 C205.441152,23.6296458 204.438214,24.2128764 203.206325,24.659845 C201.974436,25.1068135 200.475479,25.3302944 198.709408,25.3302944 C197.335797,25.3302944 196.093026,25.1722225 194.981055,24.856074 C193.869085,24.5399256 192.926104,24.0493578 192.152086,23.3843558 C191.378067,22.7193539 190.789386,21.8635856 190.386024,20.8170252 C189.982662,19.7704648 189.802787,18.5167914 189.846394,17.0559675 L193.770976,17.0559675 Z" id="CKS" fill="#F6A623"></path>
                    <path d="M224.948078,13.7256731 L212.716465,8.52560209 L212.716465,5.18970746 L229.330528,12.5482986 L229.330528,14.9030477 L212.716465,22.2616388 L212.716465,18.9257442 L224.948078,13.7256731 Z" id="&gt;-copy" fill="#F6A623"></path>
                </g>
            </g>
        </g>
    </g>
</svg>