<?xml version="1.0" encoding="UTF-8" standalone="no"?>
<svg width="152px" height="30px" viewBox="0 0 152 30" version="1.1" xmlns="http://www.w3.org/2000/svg" xmlns:xlink="http://www.w3.org/1999/xlink" xmlns:sketch="http://www.bohemiancoding.com/sketch/ns">
    <!-- Generator: Sketch 3.3 (11970) - http://www.bohemiancoding.com/sketch -->
    <title>CALHACKS Copy</title>
    <desc>Created with Sketch.</desc>
    <defs></defs>
    <g id="Welcome" stroke="none" stroke-width="1" fill="none" fill-rule="evenodd" sketch:type="MSPage">
        <path d="M17.476,0.726 L17.476,14.586 L10.312,14.586 L10.312,6.882 L7.648,6.882 L7.648,20.526 L10.312,20.526 L10.312,16.314 L17.44,16.314 L17.476,20.67 L12.076,25.998 L0.52,25.998 L0.52,9.042 L5.92,0.726 L17.476,0.726 Z M36.916,25.998 L29.788,25.998 L29.788,15.306 L27.088,15.306 L27.088,25.998 L19.96,25.998 L19.96,9.042 L25.36,0.726 L36.916,0.726 L36.916,25.998 Z M29.788,10.914 L29.788,5.73 L27.088,10.914 L29.788,10.914 Z M54.628,25.998 L39.4,25.998 L39.4,0.726 L46.528,0.726 L46.528,19.842 L54.628,19.842 L54.628,25.998 Z M74.068,29.274 L66.94,29.274 L66.94,15.306 L64.276,15.306 L64.276,25.998 L57.148,25.998 L57.148,0.726 L64.276,0.726 L64.276,10.914 L66.94,10.914 L66.94,0.726 L74.068,0.726 L74.068,29.274 Z M93.544,25.998 L86.416,25.998 L86.416,15.306 L83.716,15.306 L83.716,25.998 L76.588,25.998 L76.588,9.042 L81.988,0.726 L93.544,0.726 L93.544,25.998 Z M86.416,10.914 L86.416,5.73 L83.716,10.914 L86.416,10.914 Z M112.984,0.726 L112.984,14.586 L105.82,14.586 L105.82,6.882 L103.156,6.882 L103.156,20.526 L105.82,20.526 L105.82,16.314 L112.948,16.314 L112.984,20.67 L107.584,25.998 L96.028,25.998 L96.028,9.042 L101.428,0.726 L112.984,0.726 Z M132.388,25.998 L125.26,25.998 L125.26,15.846 L122.596,15.846 L122.596,25.998 L115.468,25.998 L115.468,0.726 L122.596,0.726 L122.596,11.058 L125.26,8.394 L125.26,0.726 L132.388,0.726 L132.388,9.258 L128.464,13.218 L132.388,13.218 L132.388,25.998 Z M151.864,6.882 L141.856,6.882 L141.856,10.914 L151.828,10.914 L151.828,21.93 L148.192,25.998 L134.908,25.998 L134.908,20.31 L145.636,20.31 L145.636,15.306 L134.908,15.306 L134.908,9.042 L140.308,0.726 L151.864,0.726 L151.864,6.882 Z" id="CALHACKS-Copy" fill="#FFFFFF" sketch:type="MSShapeGroup"></path>
    </g>
</svg>