<?xml version="1.0" encoding="UTF-8" standalone="no"?>
<svg width="152px" height="30px" viewBox="0 0 152 30" version="1.1" xmlns="http://www.w3.org/2000/svg" xmlns:xlink="http://www.w3.org/1999/xlink" xmlns:sketch="http://www.bohemiancoding.com/sketch/ns">
    <!-- Generator: Sketch 3.3 (11970) - http://www.bohemiancoding.com/sketch -->
    <title>CALHACKS</title>
    <desc>Created with Sketch.</desc>
    <defs></defs>
    <g id="Welcome" stroke="none" stroke-width="1" fill="none" fill-rule="evenodd" sketch:type="MSPage">
        <path d="M17.476,0.728 L17.476,14.588 L10.312,14.588 L10.312,6.884 L7.648,6.884 L7.648,20.528 L10.312,20.528 L10.312,16.316 L17.44,16.316 L17.476,20.672 L12.076,26 L0.52,26 L0.52,9.044 L5.92,0.728 L17.476,0.728 Z M36.916,26 L29.788,26 L29.788,15.308 L27.088,15.308 L27.088,26 L19.96,26 L19.96,9.044 L25.36,0.728 L36.916,0.728 L36.916,26 Z M29.788,10.916 L29.788,5.732 L27.088,10.916 L29.788,10.916 Z M54.628,26 L39.4,26 L39.4,0.728 L46.528,0.728 L46.528,19.844 L54.628,19.844 L54.628,26 Z M74.068,29.276 L66.94,29.276 L66.94,15.308 L64.276,15.308 L64.276,26 L57.148,26 L57.148,0.728 L64.276,0.728 L64.276,10.916 L66.94,10.916 L66.94,0.728 L74.068,0.728 L74.068,29.276 Z M93.544,26 L86.416,26 L86.416,15.308 L83.716,15.308 L83.716,26 L76.588,26 L76.588,9.044 L81.988,0.728 L93.544,0.728 L93.544,26 Z M86.416,10.916 L86.416,5.732 L83.716,10.916 L86.416,10.916 Z M112.984,0.728 L112.984,14.588 L105.82,14.588 L105.82,6.884 L103.156,6.884 L103.156,20.528 L105.82,20.528 L105.82,16.316 L112.948,16.316 L112.984,20.672 L107.584,26 L96.028,26 L96.028,9.044 L101.428,0.728 L112.984,0.728 Z M132.388,26 L125.26,26 L125.26,15.848 L122.596,15.848 L122.596,26 L115.468,26 L115.468,0.728 L122.596,0.728 L122.596,11.06 L125.26,8.396 L125.26,0.728 L132.388,0.728 L132.388,9.26 L128.464,13.22 L132.388,13.22 L132.388,26 Z M151.864,6.884 L141.856,6.884 L141.856,10.916 L151.828,10.916 L151.828,21.932 L148.192,26 L134.908,26 L134.908,20.312 L145.636,20.312 L145.636,15.308 L134.908,15.308 L134.908,9.044 L140.308,0.728 L151.864,0.728 L151.864,6.884 Z" id="CALHACKS" fill="#F6A623" sketch:type="MSShapeGroup"></path>
    </g>
</svg>