<?xml version="1.0" encoding="UTF-8" standalone="no"?>
<svg width="323px" height="324px" viewBox="0 0 323 324" version="1.1" xmlns="http://www.w3.org/2000/svg" xmlns:xlink="http://www.w3.org/1999/xlink" xmlns:sketch="http://www.bohemiancoding.com/sketch/ns">
    <!-- Generator: Sketch 3.3.2 (12043) - http://www.bohemiancoding.com/sketch -->
    <title>Rocket</title>
    <desc>Created with Sketch.</desc>
    <defs></defs>
    <g id="Page-1" stroke="none" stroke-width="1" fill="none" fill-rule="evenodd" sketch:type="MSPage">
        <g id="Rocket" sketch:type="MSLayerGroup">
            <path d="M84.381,184.887 C35.789,234.536 4.551,287.926 0.381,323.297 C35.653,318.366 88.361,285.992 136.956,236.341 C185.549,186.695 216.784,133.302 220.955,97.932 C185.683,102.861 132.975,135.237 84.381,184.887" id="Fill-93" fill="#FFFDC0" sketch:type="MSShapeGroup"></path>
            <path d="M137.309,153.582 C108.916,182.592 90.664,213.787 88.228,234.454 C108.837,231.573 139.634,212.657 168.027,183.647 C196.42,154.639 214.671,123.441 217.107,102.775 C196.498,105.655 165.701,124.572 137.309,153.582" id="Fill-94" fill="#FF7B57" sketch:type="MSShapeGroup"></path>
            <path d="M181.961,230.177 C168.216,243.922 150.998,252.076 133.132,254.642 C165.458,270.551 205.648,265.059 232.543,238.164 C265.151,205.556 266.295,153.403 235.982,119.419 L205.246,150.156 C211.438,178.072 203.679,208.459 181.961,230.177 M93.945,142.162 C80.2,155.906 72.045,173.124 69.481,190.99 C53.57,158.664 59.064,118.474 85.958,91.579 C118.566,58.971 170.719,57.827 204.703,88.139 L173.966,118.876 C146.05,112.685 115.663,120.443 93.945,142.162" id="Fill-95" fill="#C31B33" sketch:type="MSShapeGroup"></path>
            <path d="M108.37,130.532 C108.377,130.523 108.384,130.514 108.392,130.505 C119.809,123.162 132.574,118.775 145.604,117.339 C145.603,117.34 145.601,117.342 145.6,117.343 C132.565,118.784 119.791,123.181 108.37,130.532" id="Fill-96" fill="#2D4250" sketch:type="MSShapeGroup"></path>
            <path d="M108.392,130.505 C120.354,115.413 133.568,100.546 147.972,86.143 C154.087,80.028 160.287,74.131 166.551,68.447 C172.809,69.881 178.939,72.012 184.815,74.846 C181.45,77.974 178.112,81.192 174.81,84.494 C164.152,95.151 154.399,106.161 145.604,117.339 C132.574,118.775 119.809,123.162 108.392,130.505" id="Fill-97" fill="#AF182E" sketch:type="MSShapeGroup"></path>
            <path d="M194.852,213.731 C201.642,202.509 205.656,190.079 206.893,177.428 C206.894,177.426 206.895,177.426 206.897,177.424 C205.665,190.07 201.66,202.493 194.877,213.711 C194.869,213.718 194.86,213.725 194.852,213.731" id="Fill-98" fill="#2D4250" sketch:type="MSShapeGroup"></path>
            <path d="M194.877,213.711 C201.66,202.493 205.665,190.07 206.897,177.424 C217.842,168.768 228.624,159.194 239.066,148.752 C242.436,145.382 245.716,141.977 248.903,138.543 C251.781,144.359 253.964,150.431 255.458,156.636 C249.67,163.028 243.654,169.353 237.417,175.591 C223.594,189.413 209.343,202.134 194.877,213.711" id="Fill-99" fill="#AF182E" sketch:type="MSShapeGroup"></path>
            <path d="M192.067,188.527 C208.089,177.192 223.935,163.884 239.066,148.752 C286.992,100.826 316.686,45.754 322.998,0.562 C277.807,6.874 222.734,36.568 174.81,84.494 C159.677,99.626 146.368,115.472 135.033,131.493 L192.067,188.527" id="Fill-100" fill="#FFFEE6" sketch:type="MSShapeGroup"></path>
            <path d="M297.8,71.248 C311.323,46.588 319.646,22.667 322.69,0.869 C300.894,3.915 276.973,12.237 252.313,25.76 L297.8,71.248" id="Fill-101" fill="#E84550" sketch:type="MSShapeGroup"></path>
            <path d="M214.215,99.386 L224.332,109.502 L100.277,223.439 L214.215,99.386" id="Fill-102" fill="#C31B33" sketch:type="MSShapeGroup"></path>
            <path d="M259.873,96.884 C250.706,106.051 235.844,106.05 226.677,96.884 C217.511,87.717 217.51,72.855 226.677,63.687 C235.844,54.522 250.706,54.522 259.872,63.687 C269.039,72.855 269.039,87.717 259.873,96.884" id="Fill-103" fill="#E84550" sketch:type="MSShapeGroup"></path>
            <path d="M252.769,89.78 C247.525,95.023 239.023,95.023 233.78,89.78 C228.537,84.537 228.537,76.035 233.781,70.792 C239.024,65.549 247.525,65.549 252.769,70.791 C258.012,76.035 258.012,84.537 252.769,89.78" id="Fill-104" fill="#4BB4BF" sketch:type="MSShapeGroup"></path>
            <path d="M322.973,0.565 C322.981,0.564 322.99,0.563 322.998,0.562 C322.99,0.563 322.981,0.564 322.973,0.565" id="Fill-105" fill="#2D4250" sketch:type="MSShapeGroup"></path>
            <path d="M192.067,188.527 L192.067,188.527 L172.812,169.272 C194.275,153.701 215.473,135.678 235.777,115.373 C239.738,111.412 243.61,107.42 247.397,103.396 C251.966,102.585 256.342,100.414 259.873,96.884 C264.086,92.67 266.363,87.254 266.703,81.74 C273.163,74.084 279.31,66.355 285.135,58.583 L297.8,71.248 C311.323,46.588 319.646,22.667 322.69,0.869 C322.497,0.896 322.303,0.924 322.11,0.951 C322.16,0.859 322.208,0.768 322.258,0.676 C322.495,0.642 322.736,0.599 322.973,0.565 C322.981,0.564 322.99,0.563 322.998,0.562 C317.13,42.576 291.052,93.131 248.903,138.543 C245.716,141.977 242.436,145.382 239.066,148.752 C228.624,159.194 217.842,168.768 206.897,177.424 C206.895,177.426 206.894,177.426 206.893,177.428 C201.979,181.314 197.031,185.016 192.067,188.527" id="Fill-106" fill="#E5E4CF" sketch:type="MSShapeGroup"></path>
            <path d="M297.8,71.248 L285.135,58.583 C299.449,39.484 311.818,20.126 322.11,0.951 C322.303,0.924 322.497,0.896 322.69,0.869 C319.646,22.667 311.323,46.588 297.8,71.248" id="Fill-107" fill="#D03E48" sketch:type="MSShapeGroup"></path>
            <path d="M247.397,103.396 C254.11,96.262 260.55,89.032 266.703,81.74 C266.363,87.254 264.086,92.67 259.873,96.884 C256.342,100.414 251.966,102.585 247.397,103.396" id="Fill-108" fill="#D03E48" sketch:type="MSShapeGroup"></path>
        </g>
    </g>
</svg>