<?xml version="1.0" encoding="UTF-8" standalone="no"?>
<svg width="29px" height="23px" viewBox="0 0 29 23" version="1.1" xmlns="http://www.w3.org/2000/svg" xmlns:xlink="http://www.w3.org/1999/xlink" xmlns:sketch="http://www.bohemiancoding.com/sketch/ns">
    <!-- Generator: Sketch 3.3 (11970) - http://www.bohemiancoding.com/sketch -->
    <title>Group</title>
    <desc>Created with Sketch.</desc>
    <defs></defs>
    <g id="Welcome" stroke="none" stroke-width="1" fill="none" fill-rule="evenodd" sketch:type="MSPage">
        <g id="Desktop-HD-Copy-6" sketch:type="MSArtboardGroup" transform="translate(-623.000000, -49.000000)" fill="#FFFFFF">
            <g id="Group" sketch:type="MSLayerGroup" transform="translate(623.500000, 49.000000)">
                <path d="M28.0466667,2.7116129 C27.0144,3.17187097 25.9056,3.48245161 24.7408,3.62090323 C25.9317333,2.90619355 26.8426667,1.778 27.2701333,0.430903226 C26.1557333,1.09322581 24.9274667,1.57032258 23.6152,1.82851613 C22.568,0.707806452 21.0709333,0.00619354839 19.4152,0.00619354839 C16.24,0.00619354839 13.664,2.59 13.664,5.7743871 C13.664,6.22716129 13.7125333,6.66870968 13.8114667,7.08780645 C9.02906667,6.84645161 4.79173333,4.55451613 1.95066667,1.05954839 C1.45413333,1.91645161 1.1704,2.90432258 1.1704,3.96329032 C1.1704,5.96148387 2.18773333,7.72767742 3.73146667,8.76419355 C2.7888,8.73425806 1.90026667,8.47232258 1.12373333,8.042 L1.12373333,8.11309677 C1.12373333,10.9083226 3.10613333,13.2395484 5.74186667,13.7671613 C5.2584,13.9037419 4.75253333,13.9692258 4.22613333,13.9692258 C3.85466667,13.9692258 3.49253333,13.9355484 3.14346667,13.8663226 C3.87706667,16.1582581 5.9976,17.8271613 8.5176,17.8720645 C6.54826667,19.4193548 4.0656,20.3417419 1.372,20.3417419 C0.9072,20.3417419 0.446133333,20.3155484 1.24344979e-14,20.2612903 C2.54613333,21.8965161 5.56826667,22.8525806 8.82,22.8525806 C19.4058667,22.8525806 25.1925333,14.0646452 25.1925333,6.44232258 C25.1925333,6.18974194 25.1869333,5.94090323 25.1757333,5.69767742 C26.3013333,4.88567742 27.2776,3.86974194 28.0466667,2.7116129" id="Shape" sketch:type="MSShapeGroup"></path>
            </g>
        </g>
    </g>
</svg>