<?xml version="1.0" encoding="UTF-8" standalone="no"?>
<svg width="56px" height="57px" viewBox="0 0 56 57" version="1.1" xmlns="http://www.w3.org/2000/svg" xmlns:xlink="http://www.w3.org/1999/xlink" xmlns:sketch="http://www.bohemiancoding.com/sketch/ns">
    <!-- Generator: Sketch 3.3 (11970) - http://www.bohemiancoding.com/sketch -->
    <title>Group</title>
    <desc>Created with Sketch.</desc>
    <defs></defs>
    <g id="Welcome" stroke="none" stroke-width="1" fill="none" fill-rule="evenodd" sketch:type="MSPage">
        <g id="Desktop-HD-Copy" sketch:type="MSArtboardGroup" transform="translate(-1126.000000, -26.000000)">
            <g id="Group" sketch:type="MSLayerGroup" transform="translate(1126.000000, 26.000000)">
                <path d="M28,56.1327742 C43.4634667,56.1327742 55.9981333,43.5692258 55.9981333,28.0663871 C55.9981333,12.5672903 43.4634667,0 28,0 C12.5384,0 0.00186666667,12.5672903 0.00186666667,28.0663871 C0.00186666667,43.5692258 12.5384,56.1327742 28,56.1327742" id="Shape" fill="#78CBEF" sketch:type="MSShapeGroup"></path>
                <path d="M42.0466667,20.7116129 C41.0144,21.171871 39.9056,21.4824516 38.7408,21.6209032 C39.9317333,20.9061935 40.8426667,19.778 41.2701333,18.4309032 C40.1557333,19.0932258 38.9274667,19.5703226 37.6152,19.8285161 C36.568,18.7078065 35.0709333,18.0061935 33.4152,18.0061935 C30.24,18.0061935 27.664,20.59 27.664,23.7743871 C27.664,24.2271613 27.7125333,24.6687097 27.8114667,25.0878065 C23.0290667,24.8464516 18.7917333,22.5545161 15.9506667,19.0595484 C15.4541333,19.9164516 15.1704,20.9043226 15.1704,21.9632903 C15.1704,23.9614839 16.1877333,25.7276774 17.7314667,26.7641935 C16.7888,26.7342581 15.9002667,26.4723226 15.1237333,26.042 L15.1237333,26.1130968 C15.1237333,28.9083226 17.1061333,31.2395484 19.7418667,31.7671613 C19.2584,31.9037419 18.7525333,31.9692258 18.2261333,31.9692258 C17.8546667,31.9692258 17.4925333,31.9355484 17.1434667,31.8663226 C17.8770667,34.1582581 19.9976,35.8271613 22.5176,35.8720645 C20.5482667,37.4193548 18.0656,38.3417419 15.372,38.3417419 C14.9072,38.3417419 14.4461333,38.3155484 14,38.2612903 C16.5461333,39.8965161 19.5682667,40.8525806 22.82,40.8525806 C33.4058667,40.8525806 39.1925333,32.0646452 39.1925333,24.4423226 C39.1925333,24.1897419 39.1869333,23.9409032 39.1757333,23.6976774 C40.3013333,22.8856774 41.2776,21.8697419 42.0466667,20.7116129" id="Shape" fill="#FFFFFF" sketch:type="MSShapeGroup"></path>
            </g>
        </g>
    </g>
</svg>