<?xml version="1.0" encoding="utf-8"?>
<!-- Generated by IcoMoon.io -->
<!DOCTYPE svg PUBLIC "-//W3C//DTD SVG 1.1//EN" "http://www.w3.org/Graphics/SVG/1.1/DTD/svg11.dtd">
<svg version="1.1" xmlns="http://www.w3.org/2000/svg" xmlns:xlink="http://www.w3.org/1999/xlink" width="24" height="24" viewBox="0 0 24 24">
<path fill="#444444" d="M22 6v-2h-2v-2h-16v2h-2v2h-2v6h2v2h2v2h2v2h2v2h2v2h4v-2h2v-2h2v-2h2v-2h2v-2h2v-6h-2zM8 14h-2v-2h-2v-2h4v4zM8 8h-4v-2h2v-2h2v4zM14 18h-4v-8h4v8zM14 8h-4v-4h4v4zM20 12h-2v2h-2v-4h4v2zM20 8h-4v-4h2v2h2v2z"></path>
</svg>
