<svg xmlns="http://www.w3.org/2000/svg" xmlns:xlink="http://www.w3.org/1999/xlink" version="1.1" id="Layer_1" x="0px" y="0px" width="100px" height="100px" viewBox="0 0 100 100" enable-background="new 0 0 100 100" xml:space="preserve">
<g>
	<rect x="65.945" y="43.337" fill="#757c78" width="6.493" height="6.736"/>
</g>
<g>
	<rect x="56.457" y="43.337" fill="#757c78" width="6.486" height="6.736"/>
</g>
<g>
	<rect x="46.958" y="43.337" fill="#757c78" width="6.483" height="6.736"/>
</g>
<g>
	<rect x="65.945" y="52.729" fill="#757c78" width="6.493" height="6.738"/>
</g>
<g>
	<rect x="56.457" y="52.729" fill="#757c78" width="6.486" height="6.738"/>
</g>
<g>
	<rect x="46.958" y="52.729" fill="#757c78" width="6.483" height="6.738"/>
</g>
<g>
	<rect x="37.466" y="52.729" fill="#757c78" width="6.49" height="6.738"/>
</g>
<g>
	<rect x="27.975" y="52.729" fill="#757c78" width="6.489" height="6.738"/>
</g>
<g>
	<rect x="65.945" y="62.12" fill="#757c78" width="6.493" height="6.735"/>
</g>
<g>
	<rect x="56.457" y="62.12" fill="#757c78" width="6.486" height="6.735"/>
</g>
<g>
	<rect x="46.958" y="62.12" fill="#757c78" width="6.483" height="6.735"/>
</g>
<g>
	<rect x="37.466" y="62.12" fill="#757c78" width="6.49" height="6.735"/>
</g>
<g>
	<rect x="27.975" y="62.12" fill="#757c78" width="6.489" height="6.735"/>
</g>
<g>
	<rect x="56.457" y="71.512" fill="#757c78" width="6.486" height="6.734"/>
</g>
<g>
	<rect x="46.958" y="71.512" fill="#757c78" width="6.483" height="6.734"/>
</g>
<g>
	<rect x="37.466" y="71.512" fill="#757c78" width="6.49" height="6.734"/>
</g>
<g>
	<rect x="27.975" y="71.512" fill="#757c78" width="6.489" height="6.734"/>
</g>
<path fill="#757c78" d="M75.435,14.846v11.409H63.513V14.846H37.246v11.409h-11.89V14.846H11.883V91.71h76.864V14.846H75.435z   M82.302,85.265H18.328V35.342h63.974V85.265z"/>
<rect x="66.264" y="4.35" fill="#757c78" width="6.427" height="19.082"/>
<rect x="27.975" y="4.35" fill="#757c78" width="6.427" height="19.082"/>
</svg>