<svg xmlns="http://www.w3.org/2000/svg" xmlns:xlink="http://www.w3.org/1999/xlink" version="1.1" id="Layer_1" x="0px" y="0px" width="100px" height="100px" viewBox="0 0 100 100" enable-background="new 0 0 100 100" xml:space="preserve">
<path fill="#78c272" d="M89.252,76.522L99.24,6.797L76.305,3.512l-4.69,32.741L58.476,3.807L37,12.502l13.598,33.583L22.947,24.311L8.612,42.514  l24.881,19.593L3.793,57.852L0.507,80.787l63.426,9.086l0,0l4.667,0.668l1.144,2.826l2.277-0.922l5.133,4.042l3.341-4.242  l6.372,0.913l1.516-10.581l-0.493,3.441l3.329-1.348l-1.617-3.991l1.887-2.396L89.252,76.522z M78.431,6.774l17.625,2.525L94,23.651  l-17.625-2.525L78.431,6.774z M76.02,23.603l17.625,2.525L91.59,40.479l-17.625-2.525L76.02,23.603z M40.479,14.253L56.981,7.57  l5.442,13.438L45.92,27.691L40.479,14.253z M46.859,30.01l16.503-6.683l5.441,13.438L52.3,43.449L46.859,30.01z M12.501,42.308  L23.516,28.32l11.391,8.969L23.891,51.278L12.501,42.308z M25.856,52.825l11.016-13.988l11.39,8.969L37.248,61.795L25.856,52.825z   M3.769,78.661l2.525-17.625l14.352,2.056l-2.525,17.625L3.769,78.661z M20.598,81.072l2.524-17.625l14.352,2.056l-2.525,17.625  L20.598,81.072z M51.777,85.539l-14.352-2.056l2.354-16.426L39.3,66.678l13.641,10.741L51.777,85.539z M64.298,87.332l-10.043-1.439  l0.958-6.685l9.209,7.253L64.298,87.332z M63.96,82.829L52.569,73.86l6.126-7.779l-1.081-2.67l-7.011,8.902l-11.39-8.97  l11.014-13.988l2.488,1.959l12.247,30.244L63.96,82.829z M65.082,81.853l1.049-7.324l-1.069,0.433l-5.441-13.438l8.89-3.6  l0.194-1.354L65.082,81.853z M58.682,59.206l-5.442-13.438l16.504-6.683l1.083,2.674L68.921,55.06L58.682,59.206z M74.6,91.402  l-3.004-0.431L74.6,91.402L74.6,91.402z M82.035,85.881c-1.686,0-3.052-1.366-3.052-3.052c0-1.686,1.366-3.052,3.052-3.052  s3.052,1.367,3.052,3.052C85.086,84.515,83.721,85.881,82.035,85.881z M86.768,74.135L69.143,71.61l2.056-14.352l17.625,2.525  L86.768,74.135z M71.554,54.782l2.056-14.352l17.625,2.525l-2.056,14.351L71.554,54.782z"/>
</svg>