<svg xmlns="http://www.w3.org/2000/svg" xmlns:xlink="http://www.w3.org/1999/xlink" version="1.1" id="Layer_1" x="0px" y="0px" width="100px" height="100px" viewBox="0 0 100 100" style="enable-background:new 0 0 100 100;" xml:space="preserve">
<path style="fill:#757c78;" d="M100,100H85.718c0-47.266-38.452-85.712-85.718-85.712V0C55.127,0,100,44.861,100,100L100,100z"/>
<path style="fill:#757c78;" d="M42.859,100H28.564C28.564,84.24,15.76,71.436,0,71.436V57.141  C23.633,57.141,42.859,76.367,42.859,100L42.859,100z"/>
<path style="fill:#757c78;" d="M71.424,100H57.141c0-31.506-25.646-57.141-57.141-57.141V28.57C39.38,28.57,71.424,60.62,71.424,100  L71.424,100z"/>
<path style="fill:#757c78;" d="M14.282,100c0-7.886-6.384-14.282-14.282-14.282V100H14.282z"/>
</svg>