<svg xmlns="http://www.w3.org/2000/svg" xmlns:xlink="http://www.w3.org/1999/xlink" version="1.1" id="Layer_1" x="0px" y="0px" width="70.866px" height="70.866px" viewBox="-59.418 14.567 70.866 70.866" enable-background="new -59.418 14.567 70.866 70.866" xml:space="preserve">
<g>
	<g>
		<path fill="#FFFFFF" d="M-28.552,61.485c-0.017,0.016-0.029,0.035-0.046,0.053l-5.825,5.725c-0.952,0.938-2.214,1.445-3.549,1.434    s-2.586-0.543-3.522-1.494c-1.931-1.967-1.903-5.139,0.063-7.072l5.826-5.725c0.017-0.017,0.038-0.028,0.057-0.046l6.925-6.806    c-1.076-0.362-2.211-0.571-3.382-0.582c-2.938-0.026-5.709,1.095-7.804,3.152l-5.827,5.727    c-4.326,4.248-4.388,11.227-0.137,15.555c2.058,2.096,4.813,3.266,7.75,3.291s5.711-1.094,7.806-3.152l5.825-5.727    c2.096-2.059,3.265-4.813,3.292-7.748c0.009-1.172-0.181-2.307-0.523-3.393L-28.552,61.485z"/>
		<path fill="#FFFFFF" d="M-2.202,28.594c-2.062-2.096-4.813-3.264-7.75-3.29c-2.94-0.026-5.71,1.094-7.807,3.154l-5.825,5.723    c-3.044,2.991-3.966,7.327-2.771,11.145l6.922-6.801c0.02-0.021,0.033-0.045,0.053-0.064l5.826-5.724    c0.954-0.936,2.212-1.445,3.549-1.433c1.335,0.011,2.585,0.543,3.522,1.495c0.936,0.952,1.445,2.212,1.434,3.548    c-0.013,1.335-0.544,2.587-1.495,3.523l-5.826,5.723c-0.016,0.016-0.034,0.025-0.05,0.041l-6.931,6.81    c1.077,0.361,2.21,0.571,3.38,0.582c2.938,0.024,5.71-1.095,7.805-3.154l5.827-5.723c2.095-2.059,3.264-4.812,3.29-7.749    C0.976,33.461-0.144,30.688-2.202,28.594z"/>
	</g>
	<path fill="#FFFFFF" d="M-13.41,39.604c1.183,1.203,1.001,3.299-0.405,4.68L-29.88,60.069c-1.405,1.381-3.505,1.527-4.688,0.324l0,0   c-1.18-1.203-0.998-3.297,0.408-4.68l16.065-15.784C-16.688,38.548-14.592,38.402-13.41,39.604L-13.41,39.604z"/>
</g>
</svg>