<?xml version="1.0" encoding="UTF-8" standalone="no"?>
<svg width="90px" height="74px" viewBox="0 0 90 74" version="1.1" xmlns="http://www.w3.org/2000/svg" xmlns:xlink="http://www.w3.org/1999/xlink" xmlns:sketch="http://www.bohemiancoding.com/sketch/ns">
    <!-- Generator: Sketch 3.3.3 (12072) - http://www.bohemiancoding.com/sketch -->
    <title>noun_106632_cc</title>
    <desc>Created with Sketch.</desc>
    <defs></defs>
    <g id="Page-1" stroke="none" stroke-width="1" fill="none" fill-rule="evenodd" sketch:type="MSPage">
        <g id="noun_106632_cc" sketch:type="MSLayerGroup" fill="#000000">
            <g id="Group" sketch:type="MSShapeGroup">
                <path d="M55.9,37.2 C55.9,43.2 51,48.2 45,48.2 C39,48.2 34.1,43.2 34.1,37.2 C34.1,31.2 39,26.2 45,26.2 C51,26.2 55.9,31 55.9,37.2 L55.9,37.2 Z" id="Shape"></path>
                <g id="Shape">
                    <path d="M13.2,37.2 C13.2,26.6 18.4,17.3 26.5,11.6 L25.1,9.8 C16.5,15.9 11,26 11,37.4 C11,48.6 16.4,58.5 24.8,64.7 L26.2,62.9 C18.3,56.8 13.2,47.7 13.2,37.2 L13.2,37.2 Z"></path>
                    <path d="M79,37.2 C79,26 73.5,15.9 64.9,9.8 L63.6,11.6 C71.5,17.3 76.8,26.7 76.8,37.2 C76.8,47.6 71.7,56.7 64,62.6 L65.4,64.4 C73.6,58.2 79,48.3 79,37.2 L79,37.2 Z"></path>
                    <path d="M87.8,37.2 C87.8,51.1 81,63.6 70.6,71.4 L72,73.2 C82.8,64.9 90,51.8 90,37.1 C90,22.1 82.6,8.9 71.4,0.8 L70,2.5 C80.9,10.3 87.8,22.9 87.8,37.2 L87.8,37.2 Z"></path>
                    <path d="M2.2,37.2 C2.2,23 9.3,10.3 19.9,2.5 L18.5,0.7 C7.3,9 0,22.2 0,37.2 C0,52 7.2,65.1 18.3,73.3 L19.7,71.5 C9,63.7 2.2,51.3 2.2,37.2 L2.2,37.2 Z"></path>
                    <path d="M24.1,37.2 C24.1,30.2 27.6,24 33,20.3 L31.6,18.5 C25.7,22.7 21.8,29.5 21.8,37.1 C21.8,44.6 25.6,51.4 31.1,55.6 L32.5,53.8 C27.4,49.9 24.1,43.9 24.1,37.2 L24.1,37.2 Z"></path>
                    <path d="M68.1,37.2 C68.1,29.6 64.2,22.8 58.5,18.6 L57.1,20.4 C62.3,24.2 65.8,30.3 65.8,37.2 C65.8,44 62.5,50 57.6,53.7 L58.9,55.5 C64.4,51.1 68.1,44.7 68.1,37.2 L68.1,37.2 Z"></path>
                </g>
            </g>
        </g>
    </g>
</svg>