<svg xmlns="http://www.w3.org/2000/svg" xmlns:xlink="http://www.w3.org/1999/xlink" version="1.1" id="Layer_1" x="0px" y="0px" width="100px" height="100px" viewBox="0 0 100 100" enable-background="new 0 0 100 100" xml:space="preserve">
<path fill="#FFFFFF" d="M81.387,33.897c-0.003-0.088-0.007-0.175-0.013-0.263c-0.046-0.697-0.184-1.379-0.405-2.033  c-0.025-0.076-0.053-0.15-0.08-0.225c-0.122-0.327-0.258-0.648-0.421-0.956l0,0c-0.166-0.314-0.36-0.613-0.568-0.903  c-0.044-0.061-0.088-0.121-0.134-0.181c-0.217-0.286-0.447-0.563-0.703-0.82L61.996,11.415c-1.5-1.504-3.537-2.349-5.662-2.349  H25.775c-4.418,0-8,3.582-8,8v63.501c0,4.418,3.582,8,8,8H73.4c4.418,0,8-3.582,8-8V34.167C81.4,34.077,81.391,33.987,81.387,33.897  z M56.393,17.162L73.4,34.17H56.393V17.162z M73.4,80.566H25.775V17.065H48.4c-0.001,0.033-0.008,0.064-0.008,0.097V34.17  c0,4.418,3.582,8,8,8H73.4V80.566z"/>
</svg>