<svg xmlns="http://www.w3.org/2000/svg" xmlns:xlink="http://www.w3.org/1999/xlink" version="1.1" x="0px" y="0px" width="100px" height="100px" viewBox="0 0 100 100" enable-background="new 0 0 100 100" xml:space="preserve">
<g id="pen">
	<path fill="#FFFFFF" d="M80.791,19.209c-3.137-3.14-7.253-4.709-11.368-4.709c-4.116,0-8.229,1.569-11.369,4.709L19.209,58.053   c-3.057,3.055-4.62,7.035-4.701,11.04c-0.002-0.107-0.008-0.214-0.008-0.32V85.5h16.729c-0.106,0-0.211-0.007-0.315-0.008   c4.002-0.083,7.98-1.647,11.034-4.701l38.844-38.844C87.07,35.669,87.07,25.488,80.791,19.209z M35.494,74.337   c-1.312,1.312-3.059,2.036-4.914,2.036c-1.857,0-3.603-0.724-4.915-2.036c-2.712-2.709-2.712-7.119-0.002-9.83l30.355-30.354   l9.832,9.829L35.494,74.337z M74.337,35.493l-5.078,5.081l-9.832-9.831l5.081-5.079c1.312-1.313,3.06-2.037,4.915-2.037   s3.603,0.724,4.914,2.037c1.314,1.312,2.039,3.059,2.039,4.914C76.376,32.436,75.651,34.18,74.337,35.493z"/>
</g>
</svg>