<svg xmlns="http://www.w3.org/2000/svg" xmlns:xlink="http://www.w3.org/1999/xlink" version="1.1" baseProfile="tiny" x="0px" y="0px" width="100px" height="100px" viewBox="0 0 100 100" xml:space="preserve">
<g id="Captions">
</g>
<g id="Your_Icon">
	<path fill-rule="evenodd" fill="#FFFFFF" d="M43.475,69.043c0,1.633,0.518,2.965,1.551,4.02c1.057,1.033,2.369,1.572,3.941,1.572   c1.594,0,2.926-0.539,3.979-1.572c1.074-1.055,1.613-2.387,1.613-4.02c0-1.613-0.539-2.965-1.613-3.998   c-1.053-1.057-2.385-1.574-3.979-1.574c-1.572,0-2.885,0.518-3.941,1.574C43.992,66.078,43.475,67.43,43.475,69.043z    M45.363,57.959h7.504c-0.201-1.531-0.1-2.289,0.359-3.521c0.475-1.234,1.092-2.408,1.869-3.5c0.756-1.098,1.631-2.15,2.607-3.166   c0.953-0.996,1.869-2.051,2.705-3.143c0.836-1.096,1.551-2.25,2.109-3.463c0.576-1.236,0.855-2.588,0.855-4.119   c0-1.971-0.338-3.68-0.994-5.154c-0.678-1.492-1.633-2.727-2.865-3.721c-1.236-1.016-2.709-1.77-4.379-2.268   c-1.691-0.498-3.521-0.758-5.512-0.758c-2.727,0-5.172,0.598-7.342,1.771c-2.189,1.154-4.08,2.646-5.652,4.479l4.756,4.217   c1.074-1.154,2.25-2.049,3.48-2.725c1.256-0.658,2.629-0.996,4.16-0.996c1.893,0,3.365,0.518,4.438,1.57   c1.055,1.057,1.594,2.43,1.594,4.16c0,1.096-0.279,2.109-0.816,3.064c-0.559,0.957-1.236,1.93-2.051,2.906   c-0.816,0.973-1.691,1.99-2.605,3.004c-0.918,1.035-1.732,2.127-2.449,3.322c-0.715,1.195-1.254,2.51-1.631,3.939   C45.127,55.293,45.107,56.25,45.363,57.959z M11,50c0,21.531,17.471,39,39,39c21.531,0,39-17.469,39-39S71.531,11,50,11   C28.471,11,11,28.469,11,50z M18.184,50c0-17.57,14.246-31.818,31.816-31.818S81.818,32.43,81.818,50S67.57,81.818,50,81.818   S18.184,67.57,18.184,50z"/>
</g>
</svg>