<?xml version="1.0" encoding="utf-8"?>
<!-- Generator: Adobe Illustrator 16.0.0, SVG Export Plug-In . SVG Version: 6.00 Build 0)  -->
<!DOCTYPE svg PUBLIC "-//W3C//DTD SVG 1.1//EN" "http://www.w3.org/Graphics/SVG/1.1/DTD/svg11.dtd">
<svg version="1.1" id="Layer_1" xmlns="http://www.w3.org/2000/svg" xmlns:xlink="http://www.w3.org/1999/xlink" x="0px" y="0px"
	 width="12px" height="12px" viewBox="-9 3 12 12" enable-background="new -9 3 12 12" xml:space="preserve">
<g opacity="0.1">
	<polygon enable-background="new    " points="-9,3 -9,3.707 -8.293,3 	"/>
	<polygon enable-background="new    " points="-6.707,3 -9,5.293 -9,6.707 -5.293,3 	"/>
	<polygon enable-background="new    " points="-3.707,3 -9,8.293 -9,9.707 -2.293,3 	"/>
	<polyline enable-background="new    " points="3,14.293 2.293,15 3,15 	"/>
	<polygon enable-background="new    " points="-3.707,15 -2.293,15 3,9.707 3,8.293 	"/>
	<polygon enable-background="new    " points="2.293,3 -9,14.293 -9,15 -8.293,15 3,3.707 3,3 	"/>
	<polygon enable-background="new    " points="-6.707,15 -5.293,15 3,6.707 3,5.293 	"/>
	<polygon enable-background="new    " points="-0.707,3 -9,11.293 -9,12.707 0.707,3 	"/>
	<polygon enable-background="new    " points="0.707,15 3,12.707 3,11.293 -0.707,15 	"/>
</g>
</svg>
