<svg xmlns="http://www.w3.org/2000/svg" xmlns:xlink="http://www.w3.org/1999/xlink" version="1.1" id="Your_Icon" x="0px" y="0px" width="100px" height="100px" viewBox="0 0 100 100" enable-background="new 0 0 100 100" xml:space="preserve">
<path fill="#de6868" stroke="#de6868" stroke-miterlimit="10" d="M52,20.513c0-0.74-0.732-3.574-1.635-3.574h-0.729  c-0.903,0-1.635,2.833-1.635,3.574v29.482l3.991,0.009L52,20.513z"/>
<path fill="#de6868" stroke="#de6868" stroke-miterlimit="10" d="M52.499,67.873L52.5,48.296c-0.001-0.439-0.915-0.795-2.044-0.795l-0.912,0.001  c-1.128,0-2.043,0.355-2.043,0.794l0.001,19.577c0,0.438,0.914,2.124,2.042,2.124h0.912C51.585,69.997,52.5,68.313,52.499,67.873z"/>
<path fill="#de6868" stroke="#de6868" stroke-miterlimit="10" d="M10.297,28.812c0.47-0.882,0.971-1.748,1.5-2.6c0.86,0.53,3.93,3.065,3.524,3.768  C14.91,30.692,12.668,30.169,10.297,28.812z M25.504,92.429C9.788,83.354,1,66.886,1,49.954C1,41.643,3.117,33.221,7.572,25.504  C21.101,2.072,51.063-5.957,74.496,7.572C90.213,16.646,98.999,33.116,99,50.046c0,8.312-2.116,16.734-6.572,24.449  C78.899,97.929,48.937,105.957,25.504,92.429z M85.895,77.148c0.803-1.062,1.554-2.153,2.254-3.273  c-2.358-1.374-3.932-3.054-3.521-3.766c0.405-0.703,4.142,0.69,5.026,1.17c1.627-3.037,2.9-6.259,3.805-9.635  c0.888-3.313,1.394-6.675,1.516-10.054c-0.976-0.02-4.956-0.682-4.956-1.498c0.001-0.825,2.219-1.495,4.963-1.503  c-0.043-1.384-0.149-2.769-0.321-4.153c-0.676-5.443-2.33-10.656-4.916-15.521c-0.973,0.504-4.576,1.835-4.974,1.146  c-0.408-0.707,1.146-2.373,3.483-3.745c-1.864-3.014-4.065-5.791-6.559-8.268c-2.378-2.361-5.02-4.451-7.868-6.226  c-1.376,2.362-3.056,3.938-3.768,3.527c-0.712-0.411-0.187-2.654,1.17-5.026C65.16,7.085,58.397,5.269,51.52,5.029  c-0.025,2.693-0.688,4.853-1.501,4.853c-0.79,0-1.436-3.736-1.493-4.857c-3.306,0.105-6.59,0.575-9.788,1.403  c-3.437,0.891-6.769,2.194-9.925,3.881c1.342,2.36,1.857,4.584,1.148,4.994c-0.693,0.401-3.175-2.592-3.745-3.494  c-4.711,2.928-8.781,6.638-12.11,11.043c-0.823,1.09-1.592,2.21-2.308,3.36c-0.02-0.012-0.038-0.022-0.055-0.032l-1.501,2.601  c0.019,0.011,0.038,0.021,0.057,0.031c-1.604,3.011-2.861,6.202-3.757,9.544c-0.903,3.37-1.411,6.792-1.521,10.23  c1.113,0.056,4.862,0.702,4.861,1.494c0,0.814-2.162,1.479-4.856,1.503c0.046,1.326,0.151,2.654,0.315,3.98  c0.687,5.535,2.384,10.831,5.046,15.765c1.048-0.523,4.526-1.793,4.917-1.116c0.404,0.7-1.114,2.339-3.412,3.703  c1.833,2.926,3.986,5.624,6.416,8.037c2.399,2.383,5.068,4.489,7.947,6.274c1.376-2.363,3.057-3.94,3.769-3.529  c0.711,0.41,0.188,2.651-1.168,5.022c6.048,3.211,12.78,5.014,19.627,5.252c0.025-2.693,0.688-4.854,1.501-4.854  c0.791,0,1.436,3.737,1.494,4.858c3.306-0.105,6.59-0.575,9.787-1.403c3.465-0.897,6.822-2.216,10.002-3.923  c-1.361-2.377-1.888-4.627-1.174-5.039c0.704-0.407,3.253,2.688,3.77,3.534C78.54,85.225,82.583,81.531,85.895,77.148z"/>
</svg>