<svg xmlns="http://www.w3.org/2000/svg" xmlns:xlink="http://www.w3.org/1999/xlink" version="1.1" id="Your_Icon" x="0px" y="0px" width="100px" height="100px" viewBox="0 0 100 100" enable-background="new 0 0 100 100" xml:space="preserve">
<path d="M97.526,89.948c-2.815-6.329-16.553-10.517-25.682-14.45c-9.128-3.932-7.881-6.316-8.209-9.577  c-0.052-0.517-0.084-1.071-0.1-1.638c2.796-2.632,5.089-6.083,6.615-10.02c0,0,0.087-0.217,0.112-0.284  c0.349-0.928,0.661-1.898,0.927-2.886c2.093-0.413,3.312-2.634,3.778-4.688c0.47-0.832,1.448-2.88,1.224-5.206  c-0.227-2.352-1.04-3.707-2.052-4.462c1.676-9.275,0.103-14.149-1.1-19.523c-0.913-4.076,3.805,0.287,3.805,0.287  c0.215-3.734-6.4-8.071-7.708-11.21c-0.383-0.92,3.382,0.39,3.382,0.39C60.832-5.691,38.31,2.909,38.31,2.909  s-8.933-2.083-10.587-0.017c-0.105,0.131,2.163-0.13,3.039,1.388c1.11,1.924-3.638,4.742-3.638,4.742  c-4.012,2.831-3.382,4.943-3.382,4.943c1.237-1.394,3.846-0.664,3.846-0.664s-5.441,4.41-4.272,6.749  c0.119,0.24,2.952-2.725,3.159,1.005c0.26,4.695-0.442,7.328,0.287,15.276c-1.31,0.625-2.445,2.015-2.721,4.867  c-0.225,2.326,0.753,4.374,1.224,5.206c0.474,2.09,1.727,4.352,3.887,4.709c0.269,0.992,0.583,1.967,0.937,2.905  c0.023,0.061,0.047,0.121,0.072,0.181l0.032,0.081c1.518,3.909,3.794,7.34,6.567,9.963c-0.016,0.581-0.048,1.149-0.101,1.678  c-0.328,3.261,0.632,5.645-8.496,9.577c-9.128,3.932-22.866,8.12-25.682,14.45C-0.336,96.276,0.789,100,0.789,100h98.417  C99.207,100,100.341,96.276,97.526,89.948z"/>
</svg>