<svg xmlns="http://www.w3.org/2000/svg" xmlns:xlink="http://www.w3.org/1999/xlink" version="1.1" id="Layer_1" x="0px" y="0px" width="100px" height="100px" viewBox="0 0 100 100" enable-background="new 0 0 100 100" xml:space="preserve">
<g>
	<path fill="#757c78" d="M49.584,6.334c-22.562,0-40.917,18.354-40.917,40.916c0,22.562,18.355,40.917,40.917,40.917   c22.56,0,40.916-18.355,40.916-40.917C90.5,24.688,72.145,6.334,49.584,6.334z M49.584,83.24   c-19.845,0-35.991-16.146-35.991-35.991c0-1.655,0.122-3.281,0.34-4.877c2.546-0.542,8.203-3.76,20.461-13.869l5.199-5.201   c0,0,5.643,10.925,17.961,16.235l-7.823,4.806c-0.86,0.416-1.44,1.161-1.44,2.022c0,1.26,1.234,2.279,2.79,2.357   c0.005,0,0.143,0.014,0.187,0.014c0.013,0,0.025,0.345,0.038,0.345L64.732,50c0.018,0,0.035,0,0.053,0   c0.882,0,1.612-1.192,1.641-2.081c0.027-0.907-0.685-1.98-1.591-2.007l-10.584-0.404l7.263-4.505   c6.311,1.844,14.062,2.106,23.362-0.778c0.455,2.279,0.697,4.624,0.697,7.036C85.573,67.105,69.43,83.24,49.584,83.24z"/>
	<circle fill="#757c78" cx="28.235" cy="48.893" r="5.885"/>
	<path fill="#757c78" d="M38.61,66.665c0.938,5.974,6.543,10.055,12.515,9.117c5.973-0.94,10.056-6.542,9.115-12.516L38.61,66.665z"/>
</g>
</svg>