<svg xmlns="http://www.w3.org/2000/svg" xmlns:xlink="http://www.w3.org/1999/xlink" version="1.1" x="0px" y="0px" width="100px" height="100px" viewBox="0 0 100 100" enable-background="new 0 0 100 100" xml:space="preserve">
<g id="Your_Icon_copy_22">
	<path fill="#de6868" d="M98.943,73.272c0.58,0,1.056-0.476,1.056-1.056v-4.219c0-0.58-0.476-1.055-1.056-1.055H28.402   c-0.704,1.555-2.261,2.643-4.079,2.643c-1.817,0-3.375-1.088-4.079-2.643h-3.57l-0.618,0.618   c-3.498,3.497-5.424,8.146-5.424,13.093c0,4.947,1.927,9.599,5.424,13.095l0.618,0.619h3.495c0.664-1.647,2.27-2.813,4.154-2.813   c1.885,0,3.491,1.166,4.154,2.813h70.468c0.578,0,1.055-0.476,1.055-1.056v-4.22c0-0.579-0.477-1.055-1.055-1.055h-4.34   c-1.334-2.205-2.049-4.74-2.049-7.385c0-2.643,0.715-5.177,2.049-7.383h4.338V73.272z M23.536,88.04h-4.085   c-1.614-2.111-2.488-4.682-2.488-7.385c0-2.701,0.874-5.271,2.489-7.383h4.084h66.34c-0.491,1.132-0.87,2.311-1.13,3.525H61.425   c-0.873,0-1.582,0.709-1.582,1.582s0.709,1.582,1.582,1.582h26.948c-0.008,0.231-0.036,0.461-0.036,0.692   c0,2.585,0.538,5.084,1.539,7.384h-66.34V88.04z"/>
	<path fill="#de6868" d="M98.943,11.961c0.58,0,1.056-0.476,1.056-1.056V6.687c0-0.58-0.476-1.055-1.056-1.055H28.402   c-0.704,1.555-2.261,2.642-4.079,2.642c-1.817,0-3.375-1.087-4.079-2.642h-3.57L16.057,6.25c-3.497,3.498-5.424,8.147-5.424,13.095   c0,4.946,1.927,9.598,5.424,13.095l0.618,0.618h3.495c0.664-1.647,2.27-2.813,4.154-2.813c1.885,0,3.491,1.166,4.154,2.813h70.468   c0.578,0,1.055-0.476,1.055-1.056v-4.219c0-0.58-0.477-1.055-1.055-1.055h-4.34c-1.334-2.206-2.049-4.739-2.049-7.384   c0-2.644,0.715-5.179,2.049-7.384H98.943z M23.536,26.729h-4.085c-1.614-2.112-2.488-4.682-2.488-7.384   c0-2.703,0.874-5.271,2.489-7.384h4.084h66.34c-0.491,1.13-0.87,2.312-1.13,3.525H61.425c-0.873,0-1.582,0.708-1.582,1.582   s0.709,1.582,1.582,1.582h26.948c-0.008,0.231-0.036,0.46-0.036,0.692c0,2.585,0.538,5.083,1.539,7.385L23.536,26.729   L23.536,26.729z"/>
	<path fill="#de6868" d="M83.973,57.386c-1.334-2.205-2.049-4.74-2.049-7.384c0-2.645,0.715-5.179,2.049-7.384h4.34c0.58,0,1.055-0.476,1.055-1.056   v-4.218c0-0.58-0.475-1.056-1.055-1.056H17.846c-0.663,1.646-2.27,2.812-4.154,2.812c-1.883,0-3.49-1.166-4.153-2.812H6.043   l-0.618,0.618C1.927,40.403,0,45.055,0,50c0,4.946,1.927,9.599,5.425,13.096l0.618,0.617h3.57c0.704-1.556,2.261-2.643,4.079-2.643   c1.817,0,3.375,1.087,4.079,2.643h70.542c0.58,0,1.056-0.475,1.056-1.055v-4.22c0-0.58-0.476-1.056-1.056-1.056h-4.34V57.386z    M79.243,42.619c-1.001,2.3-1.539,4.799-1.539,7.383c0,0.233,0.028,0.463,0.036,0.693H50.792c-0.874,0-1.582,0.709-1.582,1.582   c0,0.874,0.708,1.582,1.582,1.582h27.321c0.26,1.215,0.638,2.396,1.13,3.526H12.902H8.818c-1.615-2.112-2.489-4.681-2.489-7.384   s0.874-5.272,2.488-7.384h4.084L79.243,42.619L79.243,42.619z"/>
</g>
</svg>