<?xml version="1.0" encoding="utf-8"?>
<!-- Generator: Adobe Illustrator 18.0.0, SVG Export Plug-In . SVG Version: 6.00 Build 0)  -->
<!DOCTYPE svg PUBLIC "-//W3C//DTD SVG 1.1//EN" "http://www.w3.org/Graphics/SVG/1.1/DTD/svg11.dtd">
<svg version="1.1" id="Layer_1" xmlns="http://www.w3.org/2000/svg" xmlns:xlink="http://www.w3.org/1999/xlink" x="0px" y="0px"
	 viewBox="117.1 28.6 557 561.6" enable-background="new 117.1 28.6 557 561.6" xml:space="preserve">
<g>
	<path fill="#004A7C" d="M626.2,308.2c0,128.5-104.2,232.6-232.6,232.6c-128.5,0-232.6-104.2-232.6-232.6
		C160.8,179.7,265,75.5,393.6,75.5C522,75.5,626.2,179.7,626.2,308.2z"/>
	<g>
		<g>
			<g>
				<g>
					<g>
						<path fill="#FFFFFF" d="M396.5,363.1c38.5,0,73.5-9.3,100.7-24.4l-0.6-0.4c-17.8,6.5-38.5,10.1-60.5,10.1
							c-70.9,0-128.4-37.1-128.4-82.9s57.6-82.9,128.4-82.9c22.1,0,42.8,3.7,60.2,10l0.6-0.4c-26.7-15-61.9-24.2-100.3-24.2
							c-83.5,0-151,43.6-151,97.6C245.3,319.5,312.9,363.1,396.5,363.1z"/>
						<path fill="#F26522" d="M535,296.5c-13.7,12.3-36.5,20.3-62.2,20.3c-43.7,0-79.3-22.9-79.3-51.2s35.4-51.2,79.3-51.2
							c25.7,0,48.5,7.9,62.2,20.3l0.6-0.4c-17.8-24.2-56.5-41.2-101.7-41.2c-62.2,0-112.3,32.4-112.3,72.5s50.1,72.5,112.3,72.5
							c44.8,0,83.3-16.9,101.7-41.2L535,296.5z"/>
						<path fill="#F7941E" d="M533.9,284.8c-8.2,7.3-21.6,12-37,12c-26.1,0-47.1-13.6-47.1-30.4c0-16.8,21.1-30.4,47.1-30.4
							c15.3,0,28.8,4.7,37,12l0.4-0.3c-10.5-14.3-33.6-24.6-60.4-24.6c-37,0-66.8,19.2-66.8,43.1s29.8,43.1,66.8,43.1
							c26.6,0,49.5-10,60.4-24.6H533.9z"/>
						<path fill="#FFC20E" d="M526.3,274.9c-3.8,3.6-10.4,5.8-17.8,5.8c-12.5,0-22.6-6.5-22.6-14.6c0-8.1,10.1-14.6,22.6-14.6
							c7.3,0,13.8,2.3,17.8,5.8l0.3-0.1c-5.1-6.9-16.1-11.8-29-11.8c-17.8,0-32.1,9.2-32.1,20.7c0,11.5,14.3,20.7,32.1,20.7
							c12.8,0,23.8-4.9,29-11.8L526.3,274.9z"/>
					</g>
					<g>
						<path fill="#FFFFFF" stroke="#FFFFFF" stroke-miterlimit="10" d="M299.3,439.6c-1.7,1.8-3.6,3.3-5.8,4.7
							c-2.2,1.4-4.6,2.6-7.2,3.5c-2.7,0.9-5.6,1.4-9,1.4c-4.9,0-9.2-0.8-13-2.3c-3.8-1.5-7-3.3-9.3-5.6c-3.1-2.9-5.4-6.3-7-10.1
							c-1.7-3.8-2.6-8.1-2.6-12.8c0-4.6,0.8-9,2.4-12.7c1.7-3.7,3.8-7,6.8-9.7c2.9-2.7,6.4-4.7,10.2-6.1c4-1.4,8.2-2,12.9-2
							c2.8,0,5.4,0.4,7.8,1c2.4,0.6,4.6,1.5,6.5,2.8c1.9,1.2,3.7,2.7,5.4,4.2c1.7,1.7,3.1,3.5,4.2,5.4l-3.6,2.2
							c-1-1.7-2.3-3.2-3.6-4.6c-1.3-1.4-2.8-2.7-4.5-3.7c-1.7-1-3.6-1.9-5.5-2.4c-2-0.6-4.2-0.9-6.7-0.9c-3.3,0-6.8,0.5-10.1,1.5
							c-3.3,1-6.4,2.6-9,4.7c-2.7,2.2-4.9,5-6.5,8.3c-1.7,3.3-2.4,7.4-2.4,12.3c0,4.5,0.8,8.4,2.3,11.8c1.5,3.3,3.6,6.1,6.1,8.3
							c2.6,2.2,5.5,3.8,8.8,4.9c3.3,1.2,6.8,1.7,10.4,1.7c2.8,0,5.5-0.4,7.8-1.3c2.3-0.9,4.5-1.9,6.4-3.2s3.6-2.7,5-4.2
							c1.4-1.5,2.6-3.1,3.6-4.3l3.5,2.4C302.4,436.1,301,437.9,299.3,439.6z"/>
						<path fill="#FFFFFF" stroke="#FFFFFF" stroke-miterlimit="10" d="M315,448v-59.1h4.3V448H315z"/>
						<path fill="#FFFFFF" stroke="#FFFFFF" stroke-miterlimit="10" d="M361.1,393v55h-4.3v-55h-23.3v-4.1h50.9v4.1H361.1z"/>
						<path fill="#FFFFFF" stroke="#FFFFFF" stroke-miterlimit="10" d="M447.2,448l-25.3-24.6h-19.6V448h-4.3v-59.1h20.3
							c10.1,0,17.5,1.5,22.3,4.5c4.6,2.9,7,7,7,12.4c0,2.4-0.5,4.6-1.5,6.5c-1,1.9-2.4,3.7-4.2,5.2s-4,2.8-6.4,3.7
							c-2.4,1-5.1,1.7-7.9,1.9l25.8,24.9h-6.1V448z M442.2,401.2c-0.6-1.5-1.8-2.9-3.7-4.1c-1.8-1.2-4.5-2.2-7.8-2.9
							c-3.3-0.8-7.7-1.2-13.2-1.2h-15.3v26.3h20.7c3.3,0,6.3-0.4,8.8-1.2c2.6-0.8,4.6-1.8,6.3-3.2c1.7-1.3,2.9-2.7,3.8-4.3
							c0.9-1.7,1.3-3.3,1.3-5C443.1,404.3,442.7,402.8,442.2,401.2z"/>
						<path fill="#FFFFFF" stroke="#FFFFFF" stroke-miterlimit="10" d="M467.6,448v-59.1h4.3V448H467.6z"/>
						<path fill="#FFFFFF" stroke="#FFFFFF" stroke-miterlimit="10" d="M537.5,438.4c-1.3,2.2-3.1,4-5.5,5.5
							c-2.4,1.7-5.2,2.9-8.6,3.8c-3.3,0.9-7,1.4-11,1.4c-6.7,0-12.2-0.9-16.4-2.6c-4.2-1.8-7.7-4.2-10.5-7.4l3.3-2.8
							c2.2,2.7,5.1,4.9,9,6.4c3.8,1.7,8.7,2.4,14.7,2.4c3.7,0,7-0.4,9.8-1.3c2.8-0.9,5.2-1.9,7.4-3.3c1.7-1.2,3.1-2.4,4-4.1
							c0.9-1.5,1.4-3.2,1.4-5c0-2.3-0.5-4.2-1.7-5.5s-2.3-2.3-3.6-3.1c-0.6-0.4-1.4-0.8-2.3-1c-0.9-0.4-2-0.8-3.3-1.2
							c-1.4-0.4-3.1-0.8-5-1.3c-2-0.5-4.5-1-7.4-1.7c-3.1-0.6-5.6-1.3-7.5-1.8c-1.9-0.5-3.6-0.9-4.9-1.3c-1.3-0.4-2.3-0.8-3.2-1
							c-0.9-0.4-1.5-0.6-2.3-1c-1.5-0.9-3.1-2.2-4.3-3.8c-1.3-1.8-1.9-4-1.9-6.8c0-1.9,0.5-4,1.7-5.9s2.9-3.6,5.5-4.9
							c2.3-1.3,5-2,7.9-2.7c3.1-0.5,6.4-0.8,10.1-0.8c3.3,0,6.3,0.3,8.7,0.6c2.6,0.4,4.7,1,6.7,1.9c1.9,0.9,3.6,1.9,5,3.2
							s2.6,2.7,3.5,4.3l-3.7,2c-0.8-1.3-1.7-2.4-2.8-3.5c-1.2-1-2.4-1.8-4-2.6c-1.7-0.6-3.5-1.3-5.6-1.5c-2.2-0.4-4.7-0.5-7.7-0.5
							c-3.2,0-6.3,0.3-9.1,0.8s-5.1,1.3-6.9,2.2c-3.2,1.8-4.9,4.2-4.9,7.4c0,1.7,0.4,2.9,1.3,4.2c0.8,1.2,1.9,2.2,3.3,2.8
							c0.8,0.4,1.5,0.8,2.4,1c0.9,0.3,2,0.6,3.3,1c1.4,0.4,2.9,0.8,5,1.2c1.9,0.4,4.3,0.9,7.2,1.5c2.4,0.5,4.6,1,6.5,1.5
							c1.9,0.4,3.6,0.9,5,1.3c1.5,0.4,2.8,0.9,3.8,1.4c1.2,0.5,2.2,1,3.2,1.7c1.7,1,3.2,2.6,4.5,4.5s2,4.2,2,7
							C539.4,434,538.7,436.3,537.5,438.4z"/>
					</g>
				</g>
			</g>
		</g>
	</g>
	<g>
		<path fill="#004A7C" d="M150.2,384.5c1,0.4,1.9,0.9,2.8,1.7c0.9,0.6,1.7,1.4,2.4,2.4c0.8,0.9,1.4,2,1.8,3.3c0.6,1.9,1,3.7,1,5.5
			s-0.4,3.2-0.9,4.6c-0.6,1.7-1.7,3.1-2.9,4.2s-2.8,2.2-4.7,2.8c-1.8,0.6-3.6,1-5.4,0.9c-1.8-0.1-3.3-0.5-4.9-1.3
			c-1.5-0.8-2.8-1.9-4-3.2c-1.2-1.4-2-2.9-2.7-4.9c-0.4-1.2-0.6-2.2-0.8-3.3c-0.1-1,0-2,0.3-3.1c0.3-1,0.5-1.9,1-2.8
			c0.5-0.9,1-1.8,1.7-2.6l1.8,1.4c-1,1.4-1.8,2.8-2.2,4.3c-0.4,1.5-0.3,3.3,0.4,5.1c0.5,1.3,1.2,2.6,1.9,3.7c0.9,1.2,1.8,2,3.1,2.8
			c1.2,0.8,2.6,1.2,4.1,1.3c1.5,0.1,3.2-0.1,5-0.8c1.7-0.6,3.1-1.4,4.2-2.6c1-1,1.8-2.2,2.3-3.5s0.8-2.6,0.6-4.1
			c0-1.4-0.3-2.8-0.8-4.1c-0.4-1.2-0.9-2-1.5-2.8s-1.4-1.4-2.2-2c-0.8-0.5-1.5-1-2.4-1.3c-0.8-0.4-1.5-0.6-2.3-0.8l0.6-2.2
			C148.3,383.7,149.3,384.1,150.2,384.5z"/>
		<path fill="#004A7C" d="M152.4,378.5l-24.3,6.3l-4.2-16.5l2.2-0.5l3.7,14.2l8.3-2.2l-2.9-11.5l2.2-0.5l2.9,11.5l9.3-2.4l-3.8-14.6
			l2.2-0.5L152.4,378.5z"/>
		<path fill="#004A7C" d="M144.2,339.1c-4.3,4.9-8.1,9-11,12.3c-2.9,3.3-5.4,6-7.3,8.1c2-0.4,4.9-0.8,8.3-1.4
			c3.5-0.5,7.7-1.3,12.7-2l0.4,2.3l-24.7,4l-0.4-2c4.3-4.9,8.1-9,11-12.3c3.1-3.3,5.4-6,7.2-8.1c-2,0.4-4.9,0.8-8.3,1.4
			c-3.5,0.5-7.7,1.3-12.7,2L119,341l24.7-4L144.2,339.1z"/>
		<path fill="#004A7C" d="M120,322.1l22.8-1.3l0.1,2.3l-22.8,1.3l0.5,9.6l-2.3,0.1l-1.3-21.6l2.2-0.1L120,322.1z"/>
		<path fill="#004A7C" d="M142.2,307.2l-25.1-0.8l0.5-17h2.2l-0.4,14.7l8.6,0.3l0.4-11.9l2.3,0.1l-0.4,11.9l9.7,0.3l0.5-15.1h2.3
			L142.2,307.2z"/>
		<path fill="#004A7C" d="M145.7,264.4l-11.4,9.1l-0.9,7.7l10.1,1.3l-0.3,2.3l-24.8-3.1l1-8.6c0.5-4.2,1.5-7.2,3.1-9.1
			c1.5-1.8,3.5-2.7,5.8-2.3c1,0.1,1.8,0.5,2.7,1c0.8,0.5,1.4,1.2,1.9,1.9s1,1.7,1.3,2.7c0.3,1,0.5,2,0.5,3.2l11.6-9.5L145.7,264.4z
			 M126,264.1c-0.6,0.1-1.2,0.5-1.8,1.2c-0.5,0.6-1.2,1.7-1.5,2.9c-0.5,1.3-0.9,3.1-1.2,5.2l-0.8,6l10.4,1.3l1-8.2
			c0.1-1.3,0.1-2.6,0-3.6c-0.3-1-0.5-1.9-0.9-2.7c-0.4-0.8-0.9-1.3-1.5-1.7c-0.6-0.4-1.3-0.6-1.9-0.8C127.3,264,126.6,264,126,264.1
			z"/>
		<path fill="#004A7C" d="M127.9,239.4l8.3,2.3l3.1-11.5l2.2,0.6l-3.1,11.5l11.5,3.2l-0.6,2.3l-24.2-6.5l4.5-16.4l2.2,0.6
			L127.9,239.4z"/>
		<path fill="#004A7C" d="M156.6,203.9c1.3,1.3,2.2,2.7,2.7,4.3c0.5,1.5,0.8,3.2,0.8,5c-0.1,1.7-0.4,3.5-1,5.1s-1.5,3.2-2.6,4.5
			c-1,1.4-2.3,2.4-3.8,3.2c-1.4,0.8-3.1,1.3-4.9,1.4c-1.8,0.1-3.7-0.1-5.8-0.9c-2-0.8-3.7-1.8-5-3.1c-1.3-1.3-2.2-2.7-2.7-4.2
			s-0.8-3.2-0.8-5c0.1-1.8,0.4-3.5,1-5.1s1.4-3.2,2.6-4.5c1-1.4,2.3-2.4,3.8-3.2c1.4-0.8,3.1-1.3,4.9-1.4c1.8-0.1,3.7,0.1,5.8,0.9
			C153.8,201.6,155.3,202.6,156.6,203.9z M150.8,203c-1.7-0.6-3.3-0.9-4.7-0.8c-1.5,0.1-2.8,0.5-4.1,1.2c-1.2,0.6-2.3,1.5-3.2,2.7
			c-0.9,1.2-1.7,2.4-2.2,3.8s-0.8,2.8-0.9,4.2s0.1,2.8,0.6,4.1c0.5,1.3,1.3,2.4,2.3,3.6c1,1,2.4,1.9,4.1,2.6
			c1.7,0.6,3.3,0.9,4.7,0.8c1.5-0.1,2.8-0.5,4-1.2c1.2-0.6,2.3-1.5,3.2-2.7c0.9-1.2,1.7-2.4,2.2-3.7c0.5-1.4,0.8-2.8,0.9-4.2
			c0-1.4-0.1-2.8-0.6-4.1c-0.5-1.3-1.3-2.4-2.3-3.6C153.9,204.5,152.5,203.6,150.8,203L150.8,203z"/>
		<path fill="#004A7C" d="M175.2,181.7l-13.8,4.7l-3.5,6.8l9.1,4.6l-1,2l-22.3-11.4l4-7.7c1.9-3.7,4-6.3,5.9-7.4
			c2-1.3,4.1-1.3,6.1-0.3c0.9,0.5,1.5,1,2.2,1.8c0.5,0.8,0.9,1.5,1.2,2.6c0.3,0.9,0.4,1.9,0.3,2.9c0,1-0.3,2.2-0.6,3.2l14.2-4.9
			L175.2,181.7z M157,174.7c-0.6-0.1-1.3,0.1-2,0.5c-0.8,0.4-1.5,1.2-2.4,2.2c-0.9,1-1.9,2.6-2.8,4.6l-2.7,5.4l9.2,4.7l3.7-7.3
			c0.6-1.2,1-2.3,1.2-3.5c0.1-1,0.1-2,0-2.8s-0.4-1.5-0.9-2.2c-0.4-0.6-0.9-1-1.5-1.3C158.1,175,157.6,174.8,157,174.7z"/>
		<path fill="#004A7C" d="M184.7,166.9L164,152.8l1.3-1.9L186,165L184.7,166.9z"/>
		<path fill="#004A7C" d="M201.3,144.4c-6.5,0.1-12,0.3-16.5,0.3c-4.5,0.1-8.1,0.1-10.9,0.1c1.7,1.3,4,3.1,6.7,5.1
			c2.7,2.2,6.1,4.7,10.1,7.9l-1.5,1.9l-19.7-15.5l1.3-1.7c6.5-0.1,12-0.3,16.5-0.3c4.5-0.1,8.1-0.1,10.7-0.1c-1.7-1.3-4-2.9-6.7-5.1
			c-2.7-2.2-6.1-4.7-10.1-7.8l1.4-1.9l19.7,15.5L201.3,144.4z"/>
		<path fill="#004A7C" d="M191.7,121l6.3,5.9l8.2-8.7l1.7,1.5l-8.2,8.6l8.7,8.2l-1.7,1.7l-18.2-17l11.6-12.3l1.7,1.5L191.7,121z"/>
		<path fill="#004A7C" d="M234.1,103.1c0.5,1.8,0.6,3.5,0.4,5.1c-0.3,1.7-0.8,3.2-1.7,4.7c-0.9,1.5-2,2.8-3.3,4
			c-1.3,1.2-2.8,2-4.3,2.8c-1.7,0.6-3.2,1-4.9,1s-3.3-0.3-5-1c-1.7-0.6-3.2-1.9-4.6-3.6c-1.4-1.7-2.4-3.3-2.9-5.1
			c-0.5-1.7-0.6-3.5-0.4-5c0.3-1.7,0.8-3.2,1.7-4.7c0.9-1.5,2-2.8,3.3-4c1.3-1.2,2.8-2,4.3-2.8c1.5-0.6,3.2-1,4.9-1
			c1.7,0,3.3,0.3,5,1c1.7,0.8,3.2,1.9,4.6,3.6C232.5,99.6,233.6,101.3,234.1,103.1z M229.3,99.5c-1.2-1.4-2.4-2.3-3.8-2.9
			c-1.4-0.6-2.7-0.9-4.1-0.9c-1.4,0-2.7,0.3-4.1,0.9c-1.3,0.5-2.6,1.4-3.7,2.3c-1.2,1-2,2-2.8,3.3c-0.8,1.2-1.2,2.6-1.4,3.8
			c-0.3,1.4-0.1,2.8,0.4,4.2c0.4,1.4,1.3,2.8,2.4,4.2c1.2,1.4,2.4,2.3,3.8,2.9c1.4,0.6,2.7,0.9,4.1,0.9s2.7-0.3,4.1-0.9
			c1.3-0.5,2.6-1.3,3.7-2.3c1.2-1,2-2,2.8-3.3c0.8-1.3,1.2-2.6,1.4-3.8c0.3-1.4,0.1-2.7-0.4-4.2C231.4,102.3,230.5,100.9,229.3,99.5
			L229.3,99.5z"/>
		<path fill="#004A7C" d="M260.7,92.6l-14.5-2.4l-6.3,4.3l5.9,8.3l-1.9,1.3l-14.3-20.6l7-5c3.5-2.4,6.4-3.7,8.8-3.8
			c2.4-0.1,4.2,0.8,5.5,2.7c0.5,0.8,0.9,1.7,1,2.6c0.1,0.9,0.1,1.8-0.1,2.8c-0.3,0.9-0.6,1.9-1.2,2.8c-0.5,0.9-1.3,1.8-2,2.6
			l14.7,2.4L260.7,92.6z M247.8,77.8c-0.5-0.4-1.3-0.5-2-0.5c-0.9,0-1.9,0.3-3.2,0.8c-1.3,0.5-2.8,1.4-4.7,2.7l-5,3.5l5.9,8.6
			l6.8-4.7c1.2-0.8,2-1.7,2.7-2.4c0.6-0.9,1.2-1.7,1.4-2.4c0.3-0.8,0.4-1.5,0.3-2.3s-0.4-1.3-0.8-1.9
			C248.7,78.5,248.3,78.1,247.8,77.8z"/>
		<path fill="#004A7C" d="M294.4,74.6c-2.2-4.5-4.1-8.2-5.6-11.1c-1.5-3.1-2.8-5.5-3.7-7.4c-0.3,2.6-0.6,5.9-1.2,10
			c-0.5,4.1-1,9.1-1.8,14.8l-1.4,0.8c-5.1-2.9-9.5-5.4-13-7.4c-3.6-2-6.5-3.7-8.7-4.9c1,1.9,2.3,4.3,3.8,7.4s3.5,6.8,5.6,11.1
			l-2.2,1l-11.3-22.4l2-1c5.6,3.2,10.4,5.9,14.1,8.1c3.8,2.2,6.8,3.8,9,5.1c0.3-2.4,0.6-5.9,1.2-10.2c0.5-4.3,1.2-9.7,1.9-16.1l2-1
			l11.4,22.4L294.4,74.6z"/>
		<path fill="#004A7C" d="M320.4,65.1l-6.1-6.5l-10.6,3.7l-0.8,9l-2.4,0.8l2.2-27.2l1.4-0.5l18.8,20L320.4,65.1z M308.5,52.3
			c-0.6-0.6-1.3-1.4-1.9-2s-1.3-1.4-1.9-2c-0.1,0.9-0.1,1.9-0.1,2.8c0,0.9-0.1,1.8-0.1,2.7L304,60l8.7-3.1L308.5,52.3z"/>
		<path fill="#004A7C" d="M326.8,39.8l5.8,22l-2.3,0.6l-5.8-22l-9.3,2.4l-0.6-2.2l21-5.5l0.5,2.2L326.8,39.8z"/>
		<path fill="#004A7C" d="M345.9,58.8l-4.7-24.6l2.3-0.5l4.7,24.6L345.9,58.8z"/>
		<path fill="#004A7C" d="M379.1,47.3c-0.6,1.7-1.4,3.2-2.6,4.3c-1.2,1.3-2.6,2.2-4.1,2.9c-1.5,0.6-3.2,1.2-5,1.4s-3.5,0.1-5.1-0.3
			c-1.7-0.4-3.2-1-4.6-1.9c-1.4-0.9-2.6-2.2-3.5-3.7s-1.5-3.3-1.8-5.5c-0.3-2.2,0-4.1,0.5-5.8c0.6-1.7,1.4-3.2,2.6-4.3
			s2.6-2.2,4.1-2.9c1.5-0.6,3.2-1.2,5-1.4c1.8-0.1,3.5-0.1,5.1,0.3c1.7,0.4,3.2,1,4.6,1.9c1.4,0.9,2.6,2.2,3.5,3.7
			c0.9,1.5,1.5,3.5,1.8,5.6C379.9,43.7,379.8,45.7,379.1,47.3z M377.3,41.8c-0.1-1.8-0.6-3.3-1.4-4.6c-0.8-1.3-1.7-2.3-2.8-3.1
			s-2.4-1.3-3.8-1.5c-1.4-0.3-2.8-0.4-4.3-0.1c-1.5,0.1-2.8,0.5-4.2,1.2c-1.3,0.5-2.4,1.4-3.3,2.4c-0.9,1-1.7,2.2-2,3.6
			c-0.5,1.4-0.6,3.1-0.4,4.9c0.3,1.8,0.6,3.3,1.4,4.6c0.8,1.3,1.8,2.3,2.8,3.1c1.2,0.8,2.4,1.3,3.8,1.5c1.4,0.3,2.8,0.4,4.3,0.1
			c1.5-0.1,2.9-0.5,4.2-1.2c1.3-0.5,2.4-1.4,3.3-2.4c0.9-1,1.7-2.2,2-3.6C377.3,45.1,377.5,43.6,377.3,41.8L377.3,41.8z"/>
		<path fill="#004A7C" d="M405.6,54.1c-4-5.1-7.4-9.5-10.1-13c-2.8-3.6-5-6.4-6.7-8.6c0,2.2,0,5-0.1,8.4c0,3.5-0.1,7.8-0.3,12.8H386
			l0.4-25.1h2.2c4,5.1,7.4,9.5,10.2,13c2.8,3.6,5,6.4,6.7,8.4c0-2.2,0-4.9,0.1-8.4c0-3.5,0.1-7.8,0.1-12.8h2.4L407.8,54L405.6,54.1z
			"/>
		<path fill="#004A7C" d="M439.1,34.5L435.6,57l-2.3-0.4l3.5-22.5l-9.6-1.4l0.4-2.3l21.4,3.3l-0.4,2.2L439.1,34.5z"/>
		<path fill="#004A7C" d="M449.1,59.5l6-24.3l16.5,4.1l-0.5,2.2l-14.3-3.6l-2,8.3l11.5,2.8l-0.5,2.2l-11.5-2.8l-2.3,9.5l14.7,3.6
			l-0.5,2.2L449.1,59.5z"/>
		<path fill="#004A7C" d="M489,67.4c-0.9,0.5-1.9,0.9-2.9,1.2c-1,0.3-2.2,0.4-3.5,0.4c-1.2,0-2.4-0.3-3.7-0.6
			c-1.9-0.6-3.6-1.5-4.9-2.7c-1.3-1.2-2.3-2.3-2.9-3.6c-0.9-1.5-1.3-3.2-1.5-5c-0.1-1.8,0.1-3.6,0.8-5.5c0.6-1.8,1.5-3.5,2.7-4.7
			c1.2-1.3,2.6-2.3,4.1-2.9c1.5-0.6,3.2-1,5-1s3.6,0.3,5.5,0.9c1.2,0.4,2.2,0.9,3.1,1.5c0.9,0.6,1.7,1.3,2.3,2s1.2,1.7,1.5,2.6
			c0.4,0.9,0.8,1.9,1,2.9l-2.3,0.5c-0.4-1.7-1-3.2-2-4.5c-0.9-1.3-2.4-2.3-4.2-2.9c-1.3-0.4-2.7-0.8-4.1-0.8
			c-1.4-0.1-2.8,0.1-4.1,0.6s-2.4,1.3-3.6,2.3c-1,1.2-1.9,2.6-2.6,4.3c-0.6,1.7-0.8,3.3-0.6,4.9c0.1,1.4,0.6,2.8,1.3,4
			c0.6,1.2,1.7,2.2,2.7,3.1c1.2,0.9,2.4,1.5,3.7,1.9c1,0.4,2.2,0.5,3.2,0.5s1.9-0.1,2.9-0.4c0.9-0.3,1.8-0.6,2.6-1
			c0.8-0.4,1.5-0.9,2-1.3l1.4,1.9C490.8,66.4,490,66.9,489,67.4z"/>
		<path fill="#004A7C" d="M510.2,81.1l5.1-10.9l-15.6-7.3l-5.1,10.9l-2.2-1L503.1,50l2.2,1l-4.6,9.8l15.6,7.3l4.6-9.8l2.2,1
			l-10.6,22.8L510.2,81.1z"/>
		<path fill="#004A7C" d="M534.1,94.9c-0.9-6.5-1.7-11.9-2.2-16.4c-0.6-4.5-1.2-8.1-1.4-10.7c-1.2,1.8-2.6,4.2-4.3,7.3
			c-1.8,3.1-4,6.7-6.7,11l-2-1.3l13-21.5l1.8,1.2c0.9,6.4,1.7,11.9,2.2,16.4c0.6,4.5,1.2,8.1,1.4,10.7c1-1.8,2.6-4.2,4.3-7.2
			c1.8-2.9,4-6.7,6.7-11l2,1.3l-12.9,21.2L534.1,94.9z"/>
		<path fill="#004A7C" d="M565.3,109.6c-1.7,0.8-3.2,1.3-4.9,1.3c-1.7,0.1-3.3-0.1-5-0.8c-1.7-0.6-3.2-1.4-4.5-2.6
			c-1.4-1-2.6-2.3-3.6-3.7c-1-1.4-1.7-2.9-1.9-4.6c-0.4-1.7-0.3-3.3,0.1-5.1s1.3-3.5,2.6-5.2c1.3-1.7,2.8-2.9,4.5-3.8
			c1.7-0.8,3.2-1.3,4.9-1.3c1.7,0,3.3,0.1,5,0.8c1.7,0.6,3.2,1.4,4.5,2.6c1.4,1,2.6,2.3,3.6,3.7c1,1.4,1.7,2.9,1.9,4.6
			c0.4,1.7,0.3,3.3-0.1,5.1c-0.4,1.8-1.3,3.5-2.6,5.2C568.4,107.6,566.9,108.8,565.3,109.6z M567.9,104.4c1.2-1.4,1.8-2.9,2.2-4.3
			c0.4-1.4,0.4-2.8,0.1-4.2c-0.3-1.3-0.8-2.6-1.7-3.8c-0.8-1.2-1.8-2.3-2.9-3.2c-1.2-0.9-2.4-1.7-3.8-2.2c-1.4-0.5-2.7-0.6-4.1-0.6
			c-1.4,0.1-2.7,0.4-4.1,1.2c-1.3,0.6-2.6,1.8-3.7,3.2c-1.2,1.4-1.9,2.9-2.2,4.3c-0.4,1.4-0.4,2.8-0.1,4.2c0.3,1.4,0.8,2.6,1.7,3.8
			c0.8,1.2,1.8,2.3,2.9,3.2c1.2,0.9,2.4,1.7,3.8,2c1.3,0.5,2.7,0.8,4.1,0.6c1.4,0,2.7-0.4,4.1-1.2
			C565.6,106.8,566.7,105.8,567.9,104.4L567.9,104.4z"/>
		<path fill="#004A7C" d="M566.1,119.6l17.4-18l1.7,1.7l-15.7,16.4l11.3,10.9l-1.5,1.7L566.1,119.6z"/>
		<path fill="#004A7C" d="M600.6,146.4c-1.8,0.5-3.5,0.6-5.1,0.4s-3.2-0.9-4.7-1.7c-1.5-0.9-2.8-2-4-3.3c-1.2-1.3-2-2.8-2.7-4.3
			c-0.6-1.5-1-3.2-1-4.9c0-1.7,0.4-3.3,1-5c0.8-1.7,1.9-3.2,3.6-4.6c1.7-1.4,3.3-2.4,5.1-2.8c1.8-0.5,3.5-0.6,5.1-0.4
			c1.7,0.3,3.2,0.9,4.7,1.8c1.5,0.9,2.8,2,4,3.3c1.2,1.3,2,2.8,2.8,4.3c0.6,1.5,1,3.2,1,4.9c0,1.7-0.4,3.3-1,5
			c-0.8,1.7-1.9,3.2-3.6,4.6C604.1,145,602.4,146.1,600.6,146.4z M604.2,141.8c1.4-1.2,2.4-2.4,2.9-3.8c0.6-1.4,0.9-2.7,0.9-4.1
			c0-1.4-0.3-2.7-0.9-4.1c-0.5-1.4-1.4-2.6-2.3-3.7c-1-1.2-2-2-3.3-2.8c-1.3-0.8-2.6-1.2-3.8-1.4c-1.4-0.3-2.7-0.1-4.2,0.3
			c-1.4,0.4-2.8,1.2-4.2,2.4c-1.4,1.2-2.4,2.4-2.9,3.8c-0.6,1.4-0.9,2.7-0.9,4.1c0,1.4,0.3,2.7,0.9,4.1c0.5,1.3,1.3,2.6,2.3,3.7
			c1,1.2,2,2,3.3,2.8s2.6,1.3,3.8,1.4c1.4,0.3,2.7,0.1,4.2-0.3C601.4,143.8,602.8,143,604.2,141.8L604.2,141.8z"/>
		<path fill="#004A7C" d="M626.6,162.8c0.3-0.9,0.5-1.8,0.6-2.6c0.1-0.8,0.3-1.5,0.1-2.3c-0.1-0.8-0.3-1.5-0.5-2.2
			c-0.3-0.8-0.6-1.4-1.2-2.3c-0.6-1-1.5-1.9-2.6-2.8s-2.2-1.5-3.6-1.9c-1.3-0.4-2.7-0.5-4.3-0.4c-1.5,0.1-3.2,0.9-4.9,1.9
			c-1.4,1-2.6,2-3.3,3.3c-0.8,1.3-1.3,2.6-1.4,3.8c-0.1,1.4-0.1,2.7,0.3,4.1c0.4,1.4,1,2.7,1.9,4.1c0.6,1,1.5,1.9,2.6,2.8
			c1,0.9,2,1.5,3.2,2.2l4.9-3.3l-5.4-7.9l1.9-1.3l6.7,9.8l-7.7,5.2c-1-0.4-1.8-0.8-2.6-1.3c-0.8-0.5-1.5-0.9-2.2-1.4
			c-0.6-0.5-1.3-1.2-1.8-1.8c-0.5-0.6-1.2-1.3-1.5-2c-1-1.4-1.7-3.1-2.2-4.7c-0.4-1.7-0.5-3.3-0.3-5c0.3-1.7,0.8-3.2,1.7-4.7
			c0.9-1.5,2.2-2.8,4-4c1.9-1.3,3.8-2.2,5.8-2.3c1.9-0.3,3.6-0.1,5.1,0.4c1.5,0.5,3.1,1.3,4.3,2.3c1.3,1,2.3,2.2,3.1,3.3
			c0.6,1,1.3,2,1.5,2.9c0.4,0.9,0.5,1.9,0.6,2.8c0.1,0.9,0,1.9-0.1,2.8s-0.4,1.9-0.8,3.1L626.6,162.8z"/>
		<path fill="#004A7C" d="M627.8,181.2l-9.3,5.1l-1.2-2l9.3-5.1l7.4-16.5l1.4,2.4l-3.5,7.7c-0.5,1-1,2-1.4,3.2c-0.5,1-0.9,2-1.4,3.2
			c1.2,0.1,2.3,0.3,3.5,0.5c1.2,0.1,2.3,0.3,3.5,0.5l8.3,1.2l1.4,2.4L627.8,181.2z"/>
		<path fill="#004A7C" d="M637,228.7l5.9-13.4l-2.7-7.2l-9.6,3.6l-0.9-2.2l23.4-8.8l3.1,8.1c1.5,4,2,7.2,1.5,9.5
			c-0.5,2.3-1.8,3.8-4,4.7c-0.9,0.4-1.8,0.5-2.8,0.4c-0.9-0.1-1.8-0.4-2.7-0.8c-0.9-0.4-1.7-1-2.4-1.8c-0.8-0.8-1.4-1.7-1.9-2.7
			l-5.9,13.7L637,228.7z M654.5,219.9c0.5-0.4,0.8-1,1-1.9c0.3-0.9,0.3-1.9,0-3.3c-0.3-1.4-0.6-3.1-1.5-5.2l-2.2-5.6l-9.7,3.7
			l2.9,7.7c0.5,1.3,1,2.3,1.7,3.2s1.3,1.5,2,1.9c0.8,0.4,1.4,0.8,2.2,0.8c0.8,0.1,1.4,0,2-0.3C653.5,220.5,654,220.2,654.5,219.9z"
			/>
		<path fill="#004A7C" d="M638.9,235.5l24.2-6.3l4.3,16.5l-2.2,0.5l-3.7-14.2l-8.3,2.2l3.1,11.5l-2.2,0.5l-3.1-11.5l-9.3,2.4
			l3.8,14.6l-2.2,0.6L638.9,235.5z"/>
		<path fill="#004A7C" d="M651.5,275.5c-1-0.4-1.9-1-2.7-1.9c-0.9-0.9-1.7-2-2.2-3.3c-0.6-1.3-1-2.8-1.3-4.5
			c-0.3-1.4-0.4-2.7-0.4-3.8s0.1-2.2,0.4-3.2c0.3-1,0.5-1.9,1-2.7c0.4-0.8,0.9-1.7,1.5-2.4l1.8,1.5c-1,1.2-1.7,2.4-2.2,4.1
			c-0.4,1.7-0.4,3.7,0,6c0.3,1.5,0.6,2.8,1.2,3.8c0.5,1.2,1.2,2,1.8,2.7c0.5,0.5,1.2,1,1.8,1.3c0.6,0.3,1.3,0.4,2,0.3
			c0.9-0.1,1.5-0.5,2-1c0.4-0.5,0.8-1,1-1.5c0.1-0.3,0.3-0.6,0.3-1c0.1-0.4,0.1-0.8,0.3-1.4c0.1-0.5,0.1-1.3,0.3-2
			c0-0.9,0.1-1.9,0.1-3.2c0.1-1.3,0.1-2.4,0.3-3.2c0.1-0.8,0.1-1.5,0.3-2c0-0.5,0.1-1,0.3-1.4c0.1-0.4,0.1-0.8,0.3-1
			c0.1-0.4,0.3-0.8,0.5-1.2c0.3-0.4,0.5-0.8,0.9-1c0.4-0.3,0.8-0.5,1.2-0.8c0.5-0.3,1-0.4,1.5-0.5c0.9-0.1,1.7,0,2.7,0.3
			c0.9,0.4,1.8,1,2.4,1.9s1.2,1.9,1.7,3.2c0.4,1.3,0.8,2.6,1,4.1c0.3,1.4,0.4,2.6,0.3,3.7c0,1-0.1,2-0.4,2.9s-0.6,1.7-1,2.3
			c-0.5,0.6-1,1.3-1.8,1.9l-1.4-1.9c0.5-0.4,0.9-0.9,1.3-1.4c0.4-0.5,0.6-1.2,0.8-1.8c0.3-0.6,0.3-1.4,0.3-2.4
			c0-0.9-0.1-1.9-0.3-3.1c-0.3-1.3-0.5-2.6-0.9-3.6c-0.4-1.2-0.9-1.9-1.3-2.6c-0.9-1.2-1.9-1.5-3.1-1.4c-0.6,0.1-1,0.4-1.4,0.8
			c-0.4,0.4-0.6,0.9-0.9,1.4c-0.1,0.4-0.1,0.6-0.3,1c0,0.4-0.1,0.9-0.1,1.4c-0.1,0.5-0.1,1.3-0.1,2c0,0.8-0.1,1.8-0.1,3.1
			c0,1-0.1,1.9-0.1,2.7c-0.1,0.8-0.1,1.5-0.3,2.2c-0.1,0.6-0.1,1.2-0.3,1.7c-0.1,0.5-0.3,1-0.5,1.4c-0.1,0.4-0.4,0.8-0.6,1.2
			c-0.3,0.4-0.5,0.8-0.9,1c-0.4,0.4-0.8,0.6-1.3,0.9s-1,0.4-1.7,0.5C653.6,276.1,652.6,276,651.5,275.5z"/>
		<path fill="#004A7C" d="M648,281.9l24.9-1.8l1.2,17l-2.2,0.1l-1-14.6l-8.6,0.6l0.8,11.9l-2.2,0.1l-0.8-11.9l-9.6,0.6l1,15.1
			l-2.3,0.1L648,281.9z"/>
		<path fill="#004A7C" d="M648.7,322.8l8.3-3.5l0.3-11.3l-8.1-3.8v-2.6l24.8,11.6v1.5l-25.3,10.5V322.8z M665,316.2
			c0.9-0.4,1.7-0.8,2.6-1c0.9-0.4,1.8-0.8,2.7-1c-0.9-0.4-1.7-0.8-2.6-1.2c-0.8-0.4-1.7-0.8-2.4-1.2l-5.6-2.6l-0.3,9.3L665,316.2z"
			/>
		<path fill="#004A7C" d="M645.5,351l11.4-9.1l1-7.7l-10.1-1.3l0.3-2.3l24.8,3.2l-1,8.6c-0.5,4.2-1.5,7.2-3.1,9.1
			c-1.5,1.8-3.5,2.6-5.8,2.3c-1-0.1-1.9-0.5-2.7-1s-1.4-1.2-1.9-1.9c-0.5-0.8-1-1.7-1.3-2.7c-0.3-1-0.5-2.2-0.5-3.2l-11.6,9.3
			L645.5,351z M665.2,351.2c0.6-0.1,1.2-0.5,1.8-1.3c0.5-0.6,1-1.7,1.5-2.9c0.5-1.3,0.9-3.1,1.2-5.2l0.8-6l-10.4-1.3l-1,8.2
			c-0.1,1.4-0.1,2.6,0,3.6c0.1,1,0.5,1.9,0.9,2.7c0.4,0.8,0.9,1.3,1.5,1.7s1.2,0.6,1.9,0.8C664.1,351.5,664.6,351.3,665.2,351.2z"/>
		<path fill="#004A7C" d="M643,378.5c-0.6-0.9-1-1.8-1.4-2.8c-0.4-1-0.6-2.2-0.8-3.3c-0.1-1.2,0-2.4,0.4-3.8c0.5-2,1.3-3.7,2.2-5.1
			c1-1.4,2-2.6,3.3-3.3c1.5-1,3.1-1.7,4.9-1.9c1.7-0.3,3.6-0.3,5.5,0.3c1.9,0.5,3.6,1.3,5,2.3c1.4,1,2.6,2.3,3.3,3.7
			c0.8,1.5,1.3,3.1,1.5,4.9c0.3,1.8,0,3.6-0.4,5.5c-0.3,1.2-0.6,2.2-1.2,3.1s-1.2,1.8-1.8,2.4c-0.8,0.8-1.5,1.3-2.4,1.8
			c-0.9,0.5-1.8,0.9-2.8,1.3l-0.6-2.2c1.7-0.5,3.1-1.4,4.2-2.4c1.2-1,2-2.6,2.6-4.5c0.4-1.4,0.5-2.7,0.4-4.1c-0.1-1.4-0.4-2.7-1-4
			c-0.6-1.3-1.4-2.4-2.7-3.3c-1.2-1-2.7-1.7-4.6-2.2c-1.8-0.4-3.3-0.5-4.9-0.3c-1.4,0.3-2.7,0.9-3.8,1.7c-1.2,0.8-2,1.8-2.8,3.1
			c-0.8,1.2-1.3,2.6-1.7,4c-0.3,1.2-0.4,2.2-0.3,3.2c0.1,1,0.4,1.9,0.6,2.8c0.4,0.9,0.8,1.7,1.3,2.4c0.5,0.8,1,1.4,1.5,1.9l-1.7,1.5
			C644.3,380.1,643.6,379.4,643,378.5z"/>
		<path fill="#004A7C" d="M631.3,400.8l11.3,4.1l5.8-16.2l-11.3-4.1l0.8-2.3l23.5,8.4l-0.8,2.2l-10.2-3.7l-5.8,16.2l10.2,3.7
			l-0.8,2.3l-23.5-8.4L631.3,400.8z"/>
	</g>
	<g>
		<path fill="#004A7C" d="M151.2,445.2l21.9-12.4l1.2,2l-21.9,12.4L151.2,445.2z"/>
		<path fill="#004A7C" d="M167.1,470.5c1.9-6.3,3.6-11.5,5-15.7c1.3-4.3,2.4-7.7,3.2-10.4c-1.8,1.2-4.1,2.8-7,4.7
			c-2.9,1.9-6.4,4.3-10.6,7l-1.3-2l20.8-13.8l1.2,1.8c-1.9,6.1-3.6,11.5-5,15.7c-1.4,4.3-2.4,7.7-3.2,10.4c1.8-1.2,4.1-2.8,7-4.7
			c2.9-1.9,6.4-4.2,10.6-7l1.3,1.9l-20.8,13.8L167.1,470.5z"/>
		<path fill="#004A7C" d="M205.4,481.8l-17,15.2l-1.5-1.8l16.9-15.2l-6.4-7.2l1.7-1.5l14.5,16.1l-1.7,1.5L205.4,481.8z"/>
		<path fill="#004A7C" d="M214,522.1l8.1-8.8l-12.8-11.6l-8.1,8.8l-1.8-1.5l16.9-18.5l1.8,1.5l-7.3,8.1l12.8,11.6l7.3-8.1l1.8,1.7
			l-16.9,18.5L214,522.1z"/>
		<path fill="#004A7C" d="M222.6,529l15-20.1l13.6,10.1l-1.3,1.8L238,512l-5.1,6.9l9.6,7.2l-1.4,1.8l-9.6-7.2l-5.8,7.8l12.2,9.1
			l-1.4,1.8L222.6,529z"/>
		<path fill="#004A7C" d="M254.3,550.7l12.7-21.6l2,1.2l-12.7,21.6L254.3,550.7z"/>
		<path fill="#004A7C" d="M280.8,564.7c-1.4-6.3-2.7-11.6-3.6-16.1c-1-4.3-1.8-7.9-2.3-10.6c-0.9,1.9-2.2,4.5-3.7,7.5
			s-3.5,6.9-5.6,11.5l-2.2-1l11.1-22.5l1.9,0.9c1.4,6.4,2.7,11.8,3.6,16.1c1,4.3,1.8,7.9,2.4,10.5c0.9-1.9,2.2-4.5,3.7-7.5
			s3.5-6.9,5.6-11.5l2.2,1l-11.1,22.5L280.8,564.7z"/>
		<path fill="#004A7C" d="M308.3,551.1l-7.9,21.4l-2.2-0.8l7.9-21.4L297,547l0.8-2.2l20.2,7.5l-0.8,2.2L308.3,551.1z"/>
		<path fill="#004A7C" d="M315.6,577.7l6.7-24.2l16.4,4.5l-0.6,2.2l-14.2-3.8l-2.3,8.3l11.5,3.2l-0.6,2.2l-11.5-3.2l-2.6,9.3l14.6,4
			l-0.6,2.2L315.6,577.7z"/>
		<path fill="#004A7C" d="M359.8,587.4l-8.6-11.9l-7.5-1.4l-1.8,10.1l-2.3-0.4l4.3-24.7l8.6,1.5c4.2,0.8,7.2,1.9,9,3.5
			c1.8,1.5,2.4,3.6,2,5.9c-0.1,1-0.5,1.8-1.2,2.6c-0.5,0.8-1.3,1.4-2,1.9c-0.8,0.5-1.8,0.9-2.8,1.2s-2,0.4-3.2,0.4l8.8,12.2
			L359.8,587.4z M361,567.9c-0.1-0.6-0.5-1.3-1.2-1.9c-0.6-0.6-1.5-1.2-2.8-1.7s-3.1-1-5.2-1.4l-6-1l-1.8,10.2l8.2,1.4
			c1.3,0.3,2.6,0.3,3.6,0.1c1-0.1,1.9-0.4,2.7-0.8c0.8-0.4,1.4-0.9,1.8-1.4c0.5-0.5,0.8-1.2,0.9-1.8
			C361.2,569.2,361.1,568.5,361,567.9z"/>
		<path fill="#004A7C" d="M369.5,588.5l1.8-25.1l17,1.3l-0.1,2.2l-14.6-1l-0.6,8.6l11.9,0.9l-0.1,2.2l-11.9-0.9l-0.8,9.6l15.1,1.2
			l-0.1,2.3L369.5,588.5z"/>
		<path fill="#004A7C" d="M413.5,585.4c-0.5,0.9-1.3,1.8-2.3,2.4c-1,0.8-2.2,1.3-3.6,1.8c-1.4,0.4-2.9,0.6-4.6,0.6
			c-1.4,0-2.7,0-3.8-0.3c-1.2-0.1-2.2-0.5-3.1-0.8c-0.9-0.4-1.8-0.9-2.6-1.4s-1.4-1.2-2.2-1.9l1.8-1.5c0.9,1.2,2.2,2,3.8,2.7
			c1.5,0.6,3.6,1,6,0.9c1.5,0,2.8-0.3,4-0.6c1.2-0.4,2.2-0.9,2.9-1.4c0.6-0.5,1.2-1,1.5-1.5c0.4-0.6,0.5-1.3,0.5-1.9
			c0-0.9-0.3-1.5-0.6-2.2c-0.5-0.5-0.9-0.9-1.4-1.2c-0.3-0.1-0.6-0.3-0.9-0.4c-0.4-0.1-0.8-0.3-1.3-0.4c-0.5-0.1-1.3-0.3-2-0.5
			c-0.8-0.1-1.9-0.4-3.1-0.6c-1.3-0.3-2.3-0.5-3.2-0.6c-0.8-0.1-1.5-0.4-2-0.5c-0.5-0.1-1-0.3-1.3-0.4c-0.4-0.1-0.6-0.3-1-0.4
			c-0.4-0.1-0.6-0.4-1-0.6c-0.4-0.3-0.6-0.6-0.9-1s-0.5-0.9-0.6-1.3c-0.1-0.5-0.3-1-0.3-1.7c0-0.9,0.3-1.7,0.6-2.6
			c0.5-0.9,1.3-1.5,2.3-2.2c1-0.5,2-0.9,3.3-1.2c1.3-0.3,2.7-0.4,4.2-0.4c1.4,0,2.6,0,3.7,0.3c1,0.1,2,0.4,2.8,0.8
			c0.9,0.4,1.5,0.8,2.2,1.4c0.6,0.6,1.2,1.3,1.7,2l-2,1.2c-0.4-0.5-0.8-1-1.2-1.4c-0.5-0.4-1-0.8-1.7-1s-1.4-0.5-2.3-0.6
			c-0.9-0.1-1.9-0.3-3.1-0.1c-1.3,0-2.6,0.1-3.7,0.4c-1.2,0.3-2,0.5-2.8,0.9c-1.3,0.8-1.8,1.7-1.8,2.9c0,0.6,0.1,1.2,0.5,1.5
			c0.3,0.4,0.8,0.8,1.3,1c0.3,0.1,0.6,0.3,1,0.4c0.4,0.1,0.8,0.3,1.4,0.4c0.5,0.1,1.3,0.3,2,0.5c0.8,0.1,1.8,0.4,2.9,0.6
			c1,0.3,1.9,0.4,2.7,0.5c0.8,0.1,1.4,0.4,2,0.5c0.6,0.1,1.2,0.4,1.7,0.5c0.5,0.3,0.9,0.4,1.4,0.8c0.4,0.3,0.8,0.5,1,0.8
			c0.4,0.3,0.6,0.6,0.9,1c0.3,0.4,0.5,0.9,0.6,1.4s0.3,1,0.3,1.7C414.4,583.5,414.2,584.5,413.5,585.4z"/>
		<path fill="#004A7C" d="M426.6,565.4l2.4,22.6l-2.3,0.3l-2.3-22.6l-9.6,1l-0.3-2.3l21.5-2.3l0.3,2.2L426.6,565.4z"/>
		<path fill="#004A7C" d="M479.3,571.1c-0.4,1.8-1,3.3-1.9,4.7c-0.9,1.4-2.2,2.4-3.6,3.5c-1.4,0.9-3.1,1.7-4.7,2
			c-1.7,0.5-3.5,0.6-5.1,0.5c-1.8-0.1-3.3-0.5-4.9-1.3c-1.5-0.8-2.8-1.8-4-3.2c-1.2-1.4-2-3.2-2.6-5.2c-0.5-2-0.6-4.1-0.3-5.8
			c0.4-1.8,1-3.3,1.9-4.7c0.9-1.4,2.2-2.6,3.6-3.5c1.4-0.9,3.1-1.7,4.7-2c1.7-0.4,3.5-0.6,5.1-0.5c1.8,0.1,3.3,0.5,4.9,1.3
			c1.5,0.8,2.8,1.8,4,3.2s2,3.2,2.6,5.2S479.5,569.3,479.3,571.1z M476.6,565.8c-0.5-1.8-1.2-3.2-2-4.3c-0.9-1.2-2-2-3.3-2.7
			c-1.3-0.6-2.6-0.9-4-1c-1.4-0.1-2.9,0-4.3,0.4c-1.4,0.4-2.8,0.9-4,1.7s-2.2,1.7-2.9,2.8c-0.8,1.2-1.3,2.4-1.5,3.8
			c-0.3,1.4-0.1,3.1,0.3,4.9c0.5,1.8,1.2,3.2,2,4.3c0.9,1.2,2,2,3.3,2.7c1.3,0.6,2.6,0.9,4,1c1.4,0.1,2.8,0,4.3-0.4
			c1.4-0.4,2.8-0.9,4-1.7c1.2-0.8,2.2-1.7,2.9-2.8c0.8-1.2,1.3-2.4,1.5-3.8C477.2,569.2,477.1,567.6,476.6,565.8L476.6,565.8z"/>
		<path fill="#004A7C" d="M484.1,552.3l3.1,8.1l11.1-4.2l0.8,2.2l-11.1,4.2l4.2,11.3l-2.2,0.9l-8.8-23.4l15.9-6l0.8,2L484.1,552.3z"
			/>
		<path fill="#004A7C" d="M540,546.9c0,1-0.4,2.2-0.9,3.2c-0.5,1.2-1.4,2.2-2.4,3.2c-1,1-2.3,1.9-3.8,2.7c-1.3,0.6-2.4,1.2-3.5,1.5
			c-1.2,0.4-2.2,0.6-3.2,0.8c-1,0.1-1.9,0.1-2.9,0c-0.9-0.1-1.8-0.4-2.8-0.6l0.9-2.2c1.4,0.6,2.9,0.8,4.6,0.6s3.6-0.8,5.8-1.9
			c1.3-0.8,2.4-1.5,3.2-2.3c0.9-0.9,1.5-1.8,1.9-2.7c0.4-0.6,0.5-1.4,0.6-2.2c0-0.6-0.1-1.4-0.4-1.9c-0.4-0.8-1-1.3-1.7-1.5
			c-0.6-0.3-1.3-0.4-1.8-0.4c-0.4,0-0.6,0-1,0.1c-0.4,0-0.8,0.1-1.4,0.3c-0.5,0.1-1.3,0.3-2,0.5c-0.8,0.3-1.8,0.5-3.1,0.9
			c-1.3,0.4-2.3,0.6-3.1,0.9s-1.5,0.4-2,0.5c-0.5,0.1-1,0.3-1.4,0.3s-0.8,0-1,0.1c-0.4,0-0.8,0-1.3-0.1c-0.4,0-0.9-0.3-1.3-0.4
			c-0.4-0.3-0.8-0.5-1.2-0.9c-0.4-0.4-0.6-0.8-1-1.3c-0.4-0.8-0.6-1.7-0.5-2.6c0-1,0.4-1.9,1-2.9c0.6-0.9,1.4-1.8,2.4-2.6
			s2.2-1.5,3.6-2.3c1.3-0.6,2.3-1.2,3.3-1.5c1-0.4,2-0.5,2.9-0.6c0.9-0.1,1.8,0,2.6,0.3c0.8,0.3,1.7,0.5,2.4,1l-1.3,1.9
			c-0.5-0.4-1.2-0.6-1.7-0.8c-0.6-0.1-1.3-0.3-1.9-0.1c-0.8,0-1.5,0.1-2.3,0.5c-0.9,0.3-1.8,0.8-2.8,1.3c-1.2,0.6-2.2,1.3-3.1,2
			c-0.9,0.8-1.5,1.4-2,2c-0.8,1.3-0.9,2.3-0.3,3.5c0.3,0.5,0.6,0.9,1.2,1.2c0.5,0.3,1,0.4,1.7,0.4c0.4,0,0.6-0.1,1-0.1
			s0.9-0.1,1.4-0.3c0.5-0.1,1.3-0.3,2-0.5c0.8-0.3,1.8-0.5,2.9-0.9c1-0.3,1.9-0.5,2.7-0.8c0.8-0.1,1.4-0.4,2-0.5
			c0.6-0.1,1.2-0.3,1.7-0.3s1,0,1.5,0c0.4,0,0.9,0.1,1.3,0.3c0.5,0.1,0.9,0.3,1.3,0.5c0.4,0.3,0.9,0.5,1.3,0.9
			c0.4,0.4,0.8,0.8,1,1.4C539.9,544.7,540,545.7,540,546.9z"/>
		<path fill="#004A7C" d="M566.9,525.5c0.3,1.8,0.3,3.5-0.1,5.1c-0.4,1.5-1.2,3.1-2.2,4.5s-2.3,2.6-3.7,3.6s-2.9,1.8-4.6,2.3
			s-3.3,0.6-5,0.5c-1.7-0.1-3.2-0.6-4.9-1.5c-1.5-0.9-2.9-2.2-4.2-4s-2-3.6-2.3-5.4c-0.3-1.8-0.3-3.5,0.1-5.1
			c0.4-1.7,1.2-3.1,2.2-4.5c1-1.4,2.3-2.6,3.7-3.6c1.4-1,2.9-1.8,4.6-2.3c1.7-0.5,3.3-0.8,5-0.5c1.7,0.1,3.3,0.6,4.9,1.5
			c1.5,0.9,2.9,2.2,4.2,4.1C565.7,522,566.5,523.7,566.9,525.5z M562.5,521.4c-1-1.5-2.2-2.6-3.6-3.3c-1.3-0.8-2.6-1.2-4-1.3
			c-1.4-0.1-2.7,0-4.1,0.5c-1.4,0.4-2.7,1-3.8,1.9c-1.3,0.9-2.3,1.9-3.1,2.9c-0.9,1.2-1.4,2.4-1.8,3.7c-0.4,1.3-0.4,2.7-0.1,4.2
			c0.3,1.4,0.9,2.9,1.9,4.5c1,1.5,2.2,2.6,3.6,3.3c1.3,0.8,2.6,1.2,4,1.3s2.7,0,4.1-0.5c1.4-0.4,2.7-1,3.8-1.9
			c1.3-0.9,2.3-1.9,3.1-3.1c0.9-1.2,1.4-2.4,1.8-3.7s0.4-2.7,0.1-4.2C564.2,524.4,563.5,523,562.5,521.4L562.5,521.4z"/>
		<path fill="#004A7C" d="M592.3,507.4c0,1-0.1,2-0.4,3.2c-0.3,1-0.6,2.2-1.3,3.2c-0.6,1-1.4,2-2.4,2.9c-1.5,1.4-3.1,2.3-4.7,2.9
			c-1.7,0.6-3.2,0.9-4.6,0.9c-1.8,0-3.5-0.4-5.1-1.2c-1.5-0.8-3.1-1.8-4.3-3.3c-1.3-1.4-2.3-2.9-2.8-4.6c-0.5-1.7-0.8-3.3-0.6-5
			c0.1-1.7,0.6-3.3,1.5-4.9c0.8-1.5,1.9-2.9,3.5-4.3c0.9-0.8,1.8-1.4,2.8-1.9c0.9-0.5,1.9-0.8,2.9-1c1-0.1,1.9-0.3,2.9-0.1
			s2,0.3,3.1,0.5l-0.6,2.2c-1.7-0.5-3.3-0.6-4.9-0.4c-1.5,0.1-3.2,0.9-4.6,2.3c-1,0.9-1.9,2-2.7,3.2s-1.3,2.4-1.4,3.8
			c-0.3,1.4-0.1,2.8,0.3,4.2c0.4,1.4,1.3,2.9,2.6,4.3c1.3,1.3,2.6,2.3,3.8,2.9c1.4,0.5,2.7,0.9,4.1,0.8c1.4,0,2.7-0.4,4-0.9
			c1.3-0.6,2.4-1.4,3.6-2.3c0.9-0.8,1.5-1.7,2-2.6s0.9-1.8,1-2.7c0.3-0.9,0.3-1.8,0.4-2.7c0-0.9,0-1.7-0.1-2.4l2.3-0.3
			C592.3,505.3,592.3,506.2,592.3,507.4z"/>
		<path fill="#004A7C" d="M599.4,505.2l-17.9-17.5l1.7-1.7l17.9,17.5L599.4,505.2z"/>
		<path fill="#004A7C" d="M606.7,497.7l-18.9-16.4l11.1-12.9l1.7,1.4l-9.6,11.1l6.5,5.6l7.8-9.1l1.7,1.4l-7.8,9.1l7.3,6.3l9.8-11.4
			l1.7,1.5L606.7,497.7z"/>
		<path fill="#004A7C" d="M608.8,458.6l18.4,13.4l-1.4,1.9l-18.4-13.4l-5.6,7.8l-1.8-1.3l12.7-17.5l1.8,1.3L608.8,458.6z"/>
		<path fill="#004A7C" d="M632.6,444.5l9.2,5.4l-1.2,2l-9.2-5.4l-17.9,2l1.4-2.4l8.3-0.9c1.2-0.1,2.3-0.3,3.5-0.4
			c1.2-0.1,2.3-0.3,3.5-0.4c-0.5-1.2-0.9-2.2-1.4-3.2c-0.5-1-0.9-2.2-1.3-3.2l-3.2-7.7l1.4-2.4L632.6,444.5z"/>
	</g>
</g>
</svg>
